M48
;DRILL file {KiCad 5.0.2+dfsg1-1~bpo9+1} date Wed Mar  4 21:18:07 2020
;FORMAT={-:-/ absolute / metric / decimal}
FMAT,2
METRIC,TZ
T1C0.400
T2C0.650
T3C0.700
T4C0.762
T5C0.800
T6C0.950
T7C1.000
T8C1.520
%
G90
G05
T1
X90.52Y-95.35
X95.694Y-96.466
X95.997Y-107.231
X102.293Y-97.518
X102.294Y-94.344
X102.588Y-92.69
X103.014Y-100.926
X106.262Y-91.65
X106.66Y-97.451
X106.7Y-99.8
X106.887Y-94.813
X107.1Y-96.3
X107.582Y-98.704
X107.8Y-102.3
X109.126Y-98.691
X109.383Y-87.84
X109.7Y-112.8
X110.846Y-99.489
X111.Y-112.8
X112.921Y-101.523
X113.25Y-111.5
X114.5Y-111.5
X119.04Y-96.544
X119.156Y-100.54
X130.Y-84.5
T4
X133.69Y-98.36
X133.69Y-103.44
X133.69Y-108.52
X133.69Y-113.6
X133.69Y-116.14
X141.31Y-98.36
X141.31Y-103.44
X141.31Y-108.52
X141.31Y-113.6
X141.31Y-116.14
T5
X69.85Y-87.75
X73.25Y-87.75
T6
X71.7Y-94.
X71.7Y-96.5
X71.7Y-99.
X71.7Y-101.5
T7
X127.75Y-97.5
X127.75Y-100.04
X127.75Y-102.58
X127.75Y-105.12
X135.05Y-85.75
X137.59Y-85.75
X140.13Y-85.75
X142.67Y-85.75
X145.21Y-85.75
X147.75Y-85.75
X76.75Y-105.71
X76.75Y-108.25
X79.29Y-105.71
X79.29Y-108.25
X81.83Y-105.71
X81.83Y-108.25
X84.37Y-105.71
X84.37Y-108.25
X83.71Y-87.25
X83.71Y-89.79
X86.25Y-87.25
X86.25Y-89.79
X88.79Y-87.25
X88.79Y-89.79
X130.4Y-89.8
X130.4Y-92.34
X130.4Y-94.88
X130.4Y-97.42
X130.4Y-99.96
X130.4Y-102.5
T8
X147.Y-98.84
X147.Y-103.92
X147.Y-109.
T2
X146.565Y-89.355G85X146.165Y-89.355
G05
X146.565Y-94.195G85X146.165Y-94.195
G05
T3
X149.615Y-89.045G85X149.115Y-89.045
G05
X149.615Y-94.505G85X149.115Y-94.505
G05
T0
M30
