  0
SECTION
  2
HEADER
  9
$ANGBASE
  50
0.0
  9
$ANGDIR
  70
  1
  9
$MEASUREMENT
  70
0
  0
ENDSEC
  0
SECTION
  2
TABLES
  0
TABLE
  2
LTYPE
  70
4
  0
LTYPE
  5
40F
  2
CONTINUOUS
  70
0
  3
Solid line
  72
65
  73
0
  40
0.0
  0
LTYPE
  5
410
  2
DASHDOT
 70
0
  3
Dash Dot ____ _ ____ _
 72
65
 73
4
 40
2.0
 49
1.25
 49
-0.25
 49
0.25
 49
-0.25
  0
LTYPE
  5
411
  2
DASHED
 70
0
  3
Dashed __ __ __ __ __
 72
65
 73
2
 40
0.75
 49
0.5
 49
-0.25
  0
LTYPE
  5
43B
  2
DOTTED
 70
0
  3
Dotted .  .  .  .
 72
65
 73
2
 40
0.2
 49
0.0
 49
-0.2
  0
ENDTAB
  0
TABLE
  2
STYLE
  70
4
  0
STYLE
  2
KICAD
  70
0
  40
0
  41
1
  42
1
  50
0
  71
0
  3
isocp.shx
  0
STYLE
  2
KICADB
  70
0
  40
0
  41
1
  42
1
  50
0
  71
0
  3
isocp.shx
  0
STYLE
  2
KICADI
  70
0
  40
0
  41
1
  42
1
  50
15
  71
0
  3
isocp.shx
  0
STYLE
  2
KICADBI
  70
0
  40
0
  41
1
  42
1
  50
15
  71
0
  3
isocp.shx
  0
ENDTAB
  0
TABLE
  2
LAYER
  70
30
  0
LAYER
  2
BLACK
  70
0
  62
7
  6
CONTINUOUS
  0
LAYER
  2
GRAY1
  70
0
  62
251
  6
CONTINUOUS
  0
LAYER
  2
GRAY2
  70
0
  62
8
  6
CONTINUOUS
  0
LAYER
  2
GRAY3
  70
0
  62
9
  6
CONTINUOUS
  0
LAYER
  2
WHITE
  70
0
  62
7
  6
CONTINUOUS
  0
LAYER
  2
LYELLOW
  70
0
  62
51
  6
CONTINUOUS
  0
LAYER
  2
BLUE1
  70
0
  62
178
  6
CONTINUOUS
  0
LAYER
  2
GREEN1
  70
0
  62
98
  6
CONTINUOUS
  0
LAYER
  2
CYAN1
  70
0
  62
138
  6
CONTINUOUS
  0
LAYER
  2
RED1
  70
0
  62
18
  6
CONTINUOUS
  0
LAYER
  2
MAGENTA1
  70
0
  62
228
  6
CONTINUOUS
  0
LAYER
  2
BROWN1
  70
0
  62
58
  6
CONTINUOUS
  0
LAYER
  2
BLUE2
  70
0
  62
5
  6
CONTINUOUS
  0
LAYER
  2
GREEN2
  70
0
  62
3
  6
CONTINUOUS
  0
LAYER
  2
CYAN2
  70
0
  62
4
  6
CONTINUOUS
  0
LAYER
  2
RED2
  70
0
  62
1
  6
CONTINUOUS
  0
LAYER
  2
MAGENTA2
  70
0
  62
6
  6
CONTINUOUS
  0
LAYER
  2
BROWN2
  70
0
  62
54
  6
CONTINUOUS
  0
LAYER
  2
BLUE3
  70
0
  62
171
  6
CONTINUOUS
  0
LAYER
  2
GREEN3
  70
0
  62
91
  6
CONTINUOUS
  0
LAYER
  2
CYAN3
  70
0
  62
131
  6
CONTINUOUS
  0
LAYER
  2
RED3
  70
0
  62
11
  6
CONTINUOUS
  0
LAYER
  2
MAGENTA3
  70
0
  62
221
  6
CONTINUOUS
  0
LAYER
  2
YELLOW3
  70
0
  62
2
  6
CONTINUOUS
  0
LAYER
  2
BLUE4
  70
0
  62
5
  6
CONTINUOUS
  0
LAYER
  2
GREEN4
  70
0
  62
3
  6
CONTINUOUS
  0
LAYER
  2
CYAN4
  70
0
  62
4
  6
CONTINUOUS
  0
LAYER
  2
RED4
  70
0
  62
1
  6
CONTINUOUS
  0
LAYER
  2
MAGENTA4
  70
0
  62
6
  6
CONTINUOUS
  0
LAYER
  2
YELLOW4
  70
0
  62
2
  6
CONTINUOUS
  0
ENDTAB
  0
ENDSEC
  0
SECTION
  2
ENTITIES
0
CIRCLE
8
BLACK
10
148
20
-80.75
40
1.75
0
CIRCLE
8
BLACK
10
148
20
-114.75
40
1.75
0
CIRCLE
8
BLACK
10
69
20
-114.75
40
1.75
0
CIRCLE
8
BLACK
10
69
20
-80.75
40
1.75
0
LINE
8
BLACK
6
CONTINUOUS
10
66
20
-117.75
11
66
21
-77.75
0
LINE
8
BLACK
6
CONTINUOUS
10
151
20
-117.75
11
66
21
-117.75
0
LINE
8
BLACK
6
CONTINUOUS
10
151
20
-77.75
11
151
21
-117.75
0
LINE
8
BLACK
6
CONTINUOUS
10
66
20
-77.75
11
151
21
-77.75
0
LINE
8
BLACK
6
CONTINUOUS
10
68.7893
20
-122.482
11
68.7893
21
-119.482
0
LINE
8
BLACK
6
CONTINUOUS
10
68.7893
20
-119.482
11
69.5036
21
-119.482
0
LINE
8
BLACK
6
CONTINUOUS
10
69.5036
20
-119.482
11
69.9321
21
-119.625
0
LINE
8
BLACK
6
CONTINUOUS
10
69.9321
20
-119.625
11
70.2179
21
-119.911
0
LINE
8
BLACK
6
CONTINUOUS
10
70.2179
20
-119.911
11
70.3607
21
-120.196
0
LINE
8
BLACK
6
CONTINUOUS
10
70.3607
20
-120.196
11
70.5036
21
-120.768
0
LINE
8
BLACK
6
CONTINUOUS
10
70.5036
20
-120.768
11
70.5036
21
-121.196
0
LINE
8
BLACK
6
CONTINUOUS
10
70.5036
20
-121.196
11
70.3607
21
-121.768
0
LINE
8
BLACK
6
CONTINUOUS
10
70.3607
20
-121.768
11
70.2179
21
-122.054
0
LINE
8
BLACK
6
CONTINUOUS
10
70.2179
20
-122.054
11
69.9321
21
-122.339
0
LINE
8
BLACK
6
CONTINUOUS
10
69.9321
20
-122.339
11
69.5036
21
-122.482
0
LINE
8
BLACK
6
CONTINUOUS
10
69.5036
20
-122.482
11
68.7893
21
-122.482
0
LINE
8
BLACK
6
CONTINUOUS
10
71.7893
20
-122.482
11
71.7893
21
-120.482
0
LINE
8
BLACK
6
CONTINUOUS
10
71.7893
20
-121.054
11
71.9321
21
-120.768
0
LINE
8
BLACK
6
CONTINUOUS
10
71.9321
20
-120.768
11
72.075
21
-120.625
0
LINE
8
BLACK
6
CONTINUOUS
10
72.075
20
-120.625
11
72.3607
21
-120.482
0
LINE
8
BLACK
6
CONTINUOUS
10
72.3607
20
-120.482
11
72.6464
21
-120.482
0
LINE
8
BLACK
6
CONTINUOUS
10
73.6464
20
-122.482
11
73.6464
21
-120.482
0
LINE
8
BLACK
6
CONTINUOUS
10
73.6464
20
-119.482
11
73.5036
21
-119.625
0
LINE
8
BLACK
6
CONTINUOUS
10
73.5036
20
-119.625
11
73.6464
21
-119.768
0
LINE
8
BLACK
6
CONTINUOUS
10
73.6464
20
-119.768
11
73.7893
21
-119.625
0
LINE
8
BLACK
6
CONTINUOUS
10
73.7893
20
-119.625
11
73.6464
21
-119.482
0
LINE
8
BLACK
6
CONTINUOUS
10
73.6464
20
-119.482
11
73.6464
21
-119.768
0
LINE
8
BLACK
6
CONTINUOUS
10
75.5036
20
-122.482
11
75.2179
21
-122.339
0
LINE
8
BLACK
6
CONTINUOUS
10
75.2179
20
-122.339
11
75.075
21
-122.054
0
LINE
8
BLACK
6
CONTINUOUS
10
75.075
20
-122.054
11
75.075
21
-119.482
0
LINE
8
BLACK
6
CONTINUOUS
10
77.075
20
-122.482
11
76.7893
21
-122.339
0
LINE
8
BLACK
6
CONTINUOUS
10
76.7893
20
-122.339
11
76.6464
21
-122.054
0
LINE
8
BLACK
6
CONTINUOUS
10
76.6464
20
-122.054
11
76.6464
21
-119.482
0
LINE
8
BLACK
6
CONTINUOUS
10
80.5036
20
-122.482
11
80.5036
21
-119.482
0
LINE
8
BLACK
6
CONTINUOUS
10
80.5036
20
-119.482
11
81.5036
21
-121.625
0
LINE
8
BLACK
6
CONTINUOUS
10
81.5036
20
-121.625
11
82.5036
21
-119.482
0
LINE
8
BLACK
6
CONTINUOUS
10
82.5036
20
-119.482
11
82.5036
21
-122.482
0
LINE
8
BLACK
6
CONTINUOUS
10
85.2179
20
-122.482
11
85.2179
21
-120.911
0
LINE
8
BLACK
6
CONTINUOUS
10
85.2179
20
-120.911
11
85.075
21
-120.625
0
LINE
8
BLACK
6
CONTINUOUS
10
85.075
20
-120.625
11
84.7893
21
-120.482
0
LINE
8
BLACK
6
CONTINUOUS
10
84.7893
20
-120.482
11
84.2179
21
-120.482
0
LINE
8
BLACK
6
CONTINUOUS
10
84.2179
20
-120.482
11
83.9321
21
-120.625
0
LINE
8
BLACK
6
CONTINUOUS
10
85.2179
20
-122.339
11
84.9321
21
-122.482
0
LINE
8
BLACK
6
CONTINUOUS
10
84.9321
20
-122.482
11
84.2179
21
-122.482
0
LINE
8
BLACK
6
CONTINUOUS
10
84.2179
20
-122.482
11
83.9321
21
-122.339
0
LINE
8
BLACK
6
CONTINUOUS
10
83.9321
20
-122.339
11
83.7893
21
-122.054
0
LINE
8
BLACK
6
CONTINUOUS
10
83.7893
20
-122.054
11
83.7893
21
-121.768
0
LINE
8
BLACK
6
CONTINUOUS
10
83.7893
20
-121.768
11
83.9321
21
-121.482
0
LINE
8
BLACK
6
CONTINUOUS
10
83.9321
20
-121.482
11
84.2179
21
-121.339
0
LINE
8
BLACK
6
CONTINUOUS
10
84.2179
20
-121.339
11
84.9321
21
-121.339
0
LINE
8
BLACK
6
CONTINUOUS
10
84.9321
20
-121.339
11
85.2179
21
-121.196
0
LINE
8
BLACK
6
CONTINUOUS
10
86.6464
20
-120.482
11
86.6464
21
-123.482
0
LINE
8
BLACK
6
CONTINUOUS
10
86.6464
20
-120.625
11
86.9321
21
-120.482
0
LINE
8
BLACK
6
CONTINUOUS
10
86.9321
20
-120.482
11
87.5036
21
-120.482
0
LINE
8
BLACK
6
CONTINUOUS
10
87.5036
20
-120.482
11
87.7893
21
-120.625
0
LINE
8
BLACK
6
CONTINUOUS
10
87.7893
20
-120.625
11
87.9321
21
-120.768
0
LINE
8
BLACK
6
CONTINUOUS
10
87.9321
20
-120.768
11
88.075
21
-121.054
0
LINE
8
BLACK
6
CONTINUOUS
10
88.075
20
-121.054
11
88.075
21
-121.911
0
LINE
8
BLACK
6
CONTINUOUS
10
88.075
20
-121.911
11
87.9321
21
-122.196
0
LINE
8
BLACK
6
CONTINUOUS
10
87.9321
20
-122.196
11
87.7893
21
-122.339
0
LINE
8
BLACK
6
CONTINUOUS
10
87.7893
20
-122.339
11
87.5036
21
-122.482
0
LINE
8
BLACK
6
CONTINUOUS
10
87.5036
20
-122.482
11
86.9321
21
-122.482
0
LINE
8
BLACK
6
CONTINUOUS
10
86.9321
20
-122.482
11
86.6464
21
-122.339
0
LINE
8
BLACK
6
CONTINUOUS
10
89.3607
20
-122.196
11
89.5036
21
-122.339
0
LINE
8
BLACK
6
CONTINUOUS
10
89.5036
20
-122.339
11
89.3607
21
-122.482
0
LINE
8
BLACK
6
CONTINUOUS
10
89.3607
20
-122.482
11
89.2179
21
-122.339
0
LINE
8
BLACK
6
CONTINUOUS
10
89.2179
20
-122.339
11
89.3607
21
-122.196
0
LINE
8
BLACK
6
CONTINUOUS
10
89.3607
20
-122.196
11
89.3607
21
-122.482
0
LINE
8
BLACK
6
CONTINUOUS
10
89.3607
20
-120.625
11
89.5036
21
-120.768
0
LINE
8
BLACK
6
CONTINUOUS
10
89.5036
20
-120.768
11
89.3607
21
-120.911
0
LINE
8
BLACK
6
CONTINUOUS
10
89.3607
20
-120.911
11
89.2179
21
-120.768
0
LINE
8
BLACK
6
CONTINUOUS
10
89.2179
20
-120.768
11
89.3607
21
-120.625
0
LINE
8
BLACK
6
CONTINUOUS
10
89.3607
20
-120.625
11
89.3607
21
-120.911
  0
ENDSEC
  0
EOF
