  0
SECTION
  2
HEADER
  9
$ANGBASE
  50
0.0
  9
$ANGDIR
  70
  1
  9
$MEASUREMENT
  70
0
  0
ENDSEC
  0
SECTION
  2
TABLES
  0
TABLE
  2
LTYPE
  70
4
  0
LTYPE
  5
40F
  2
CONTINUOUS
  70
0
  3
Solid line
  72
65
  73
0
  40
0.0
  0
LTYPE
  5
410
  2
DASHDOT
 70
0
  3
Dash Dot ____ _ ____ _
 72
65
 73
4
 40
2.0
 49
1.25
 49
-0.25
 49
0.25
 49
-0.25
  0
LTYPE
  5
411
  2
DASHED
 70
0
  3
Dashed __ __ __ __ __
 72
65
 73
2
 40
0.75
 49
0.5
 49
-0.25
  0
LTYPE
  5
43B
  2
DOTTED
 70
0
  3
Dotted .  .  .  .
 72
65
 73
2
 40
0.2
 49
0.0
 49
-0.2
  0
ENDTAB
  0
TABLE
  2
STYLE
  70
4
  0
STYLE
  2
KICAD
  70
0
  40
0
  41
1
  42
1
  50
0
  71
0
  3
isocp.shx
  0
STYLE
  2
KICADB
  70
0
  40
0
  41
1
  42
1
  50
0
  71
0
  3
isocp.shx
  0
STYLE
  2
KICADI
  70
0
  40
0
  41
1
  42
1
  50
15
  71
0
  3
isocp.shx
  0
STYLE
  2
KICADBI
  70
0
  40
0
  41
1
  42
1
  50
15
  71
0
  3
isocp.shx
  0
ENDTAB
  0
TABLE
  2
LAYER
  70
30
  0
LAYER
  2
BLACK
  70
0
  62
7
  6
CONTINUOUS
  0
LAYER
  2
GRAY1
  70
0
  62
251
  6
CONTINUOUS
  0
LAYER
  2
GRAY2
  70
0
  62
8
  6
CONTINUOUS
  0
LAYER
  2
GRAY3
  70
0
  62
9
  6
CONTINUOUS
  0
LAYER
  2
WHITE
  70
0
  62
7
  6
CONTINUOUS
  0
LAYER
  2
LYELLOW
  70
0
  62
51
  6
CONTINUOUS
  0
LAYER
  2
BLUE1
  70
0
  62
178
  6
CONTINUOUS
  0
LAYER
  2
GREEN1
  70
0
  62
98
  6
CONTINUOUS
  0
LAYER
  2
CYAN1
  70
0
  62
138
  6
CONTINUOUS
  0
LAYER
  2
RED1
  70
0
  62
18
  6
CONTINUOUS
  0
LAYER
  2
MAGENTA1
  70
0
  62
228
  6
CONTINUOUS
  0
LAYER
  2
BROWN1
  70
0
  62
58
  6
CONTINUOUS
  0
LAYER
  2
BLUE2
  70
0
  62
5
  6
CONTINUOUS
  0
LAYER
  2
GREEN2
  70
0
  62
3
  6
CONTINUOUS
  0
LAYER
  2
CYAN2
  70
0
  62
4
  6
CONTINUOUS
  0
LAYER
  2
RED2
  70
0
  62
1
  6
CONTINUOUS
  0
LAYER
  2
MAGENTA2
  70
0
  62
6
  6
CONTINUOUS
  0
LAYER
  2
BROWN2
  70
0
  62
54
  6
CONTINUOUS
  0
LAYER
  2
BLUE3
  70
0
  62
171
  6
CONTINUOUS
  0
LAYER
  2
GREEN3
  70
0
  62
91
  6
CONTINUOUS
  0
LAYER
  2
CYAN3
  70
0
  62
131
  6
CONTINUOUS
  0
LAYER
  2
RED3
  70
0
  62
11
  6
CONTINUOUS
  0
LAYER
  2
MAGENTA3
  70
0
  62
221
  6
CONTINUOUS
  0
LAYER
  2
YELLOW3
  70
0
  62
2
  6
CONTINUOUS
  0
LAYER
  2
BLUE4
  70
0
  62
5
  6
CONTINUOUS
  0
LAYER
  2
GREEN4
  70
0
  62
3
  6
CONTINUOUS
  0
LAYER
  2
CYAN4
  70
0
  62
4
  6
CONTINUOUS
  0
LAYER
  2
RED4
  70
0
  62
1
  6
CONTINUOUS
  0
LAYER
  2
MAGENTA4
  70
0
  62
6
  6
CONTINUOUS
  0
LAYER
  2
YELLOW4
  70
0
  62
2
  6
CONTINUOUS
  0
ENDTAB
  0
ENDSEC
  0
SECTION
  2
ENTITIES
0
CIRCLE
8
BLACK
10
148
20
-80.75
40
1.75
0
CIRCLE
8
BLACK
10
148
20
-114.75
40
1.75
0
CIRCLE
8
BLACK
10
69
20
-114.75
40
1.75
0
CIRCLE
8
BLACK
10
69
20
-80.75
40
1.75
0
LINE
8
BLACK
6
CONTINUOUS
10
66
20
-117.75
11
66
21
-77.75
0
LINE
8
BLACK
6
CONTINUOUS
10
151
20
-117.75
11
66
21
-117.75
0
LINE
8
BLACK
6
CONTINUOUS
10
151
20
-77.75
11
151
21
-117.75
0
LINE
8
BLACK
6
CONTINUOUS
10
66
20
-77.75
11
151
21
-77.75
0
LINE
8
BLACK
6
CONTINUOUS
10
90.3201
20
-95.1503
11
90.7201
21
-95.5503
0
LINE
8
BLACK
6
CONTINUOUS
10
90.7201
20
-95.1503
11
90.3201
21
-95.5503
0
LINE
8
BLACK
6
CONTINUOUS
10
95.4943
20
-96.2664
11
95.8943
21
-96.6664
0
LINE
8
BLACK
6
CONTINUOUS
10
95.8943
20
-96.2664
11
95.4943
21
-96.6664
0
LINE
8
BLACK
6
CONTINUOUS
10
95.7969
20
-107.031
11
96.1969
21
-107.431
0
LINE
8
BLACK
6
CONTINUOUS
10
96.1969
20
-107.031
11
95.7969
21
-107.431
0
LINE
8
BLACK
6
CONTINUOUS
10
102.093
20
-97.3177
11
102.493
21
-97.7177
0
LINE
8
BLACK
6
CONTINUOUS
10
102.493
20
-97.3177
11
102.093
21
-97.7177
0
LINE
8
BLACK
6
CONTINUOUS
10
102.094
20
-94.1442
11
102.494
21
-94.5442
0
LINE
8
BLACK
6
CONTINUOUS
10
102.494
20
-94.1442
11
102.094
21
-94.5442
0
LINE
8
BLACK
6
CONTINUOUS
10
102.388
20
-92.4897
11
102.788
21
-92.8897
0
LINE
8
BLACK
6
CONTINUOUS
10
102.788
20
-92.4897
11
102.388
21
-92.8897
0
LINE
8
BLACK
6
CONTINUOUS
10
102.814
20
-100.726
11
103.214
21
-101.126
0
LINE
8
BLACK
6
CONTINUOUS
10
103.214
20
-100.726
11
102.814
21
-101.126
0
LINE
8
BLACK
6
CONTINUOUS
10
106.062
20
-91.45
11
106.462
21
-91.85
0
LINE
8
BLACK
6
CONTINUOUS
10
106.462
20
-91.45
11
106.062
21
-91.85
0
LINE
8
BLACK
6
CONTINUOUS
10
106.46
20
-97.2513
11
106.86
21
-97.6513
0
LINE
8
BLACK
6
CONTINUOUS
10
106.86
20
-97.2513
11
106.46
21
-97.6513
0
LINE
8
BLACK
6
CONTINUOUS
10
106.5
20
-99.6
11
106.9
21
-100
0
LINE
8
BLACK
6
CONTINUOUS
10
106.9
20
-99.6
11
106.5
21
-100
0
LINE
8
BLACK
6
CONTINUOUS
10
106.687
20
-94.6127
11
107.087
21
-95.0127
0
LINE
8
BLACK
6
CONTINUOUS
10
107.087
20
-94.6127
11
106.687
21
-95.0127
0
LINE
8
BLACK
6
CONTINUOUS
10
106.9
20
-96.1
11
107.3
21
-96.5
0
LINE
8
BLACK
6
CONTINUOUS
10
107.3
20
-96.1
11
106.9
21
-96.5
0
LINE
8
BLACK
6
CONTINUOUS
10
107.382
20
-98.504
11
107.782
21
-98.904
0
LINE
8
BLACK
6
CONTINUOUS
10
107.782
20
-98.504
11
107.382
21
-98.904
0
LINE
8
BLACK
6
CONTINUOUS
10
107.6
20
-102.1
11
108
21
-102.5
0
LINE
8
BLACK
6
CONTINUOUS
10
108
20
-102.1
11
107.6
21
-102.5
0
LINE
8
BLACK
6
CONTINUOUS
10
108.926
20
-98.491
11
109.326
21
-98.891
0
LINE
8
BLACK
6
CONTINUOUS
10
109.326
20
-98.491
11
108.926
21
-98.891
0
LINE
8
BLACK
6
CONTINUOUS
10
109.183
20
-87.64
11
109.583
21
-88.04
0
LINE
8
BLACK
6
CONTINUOUS
10
109.583
20
-87.64
11
109.183
21
-88.04
0
LINE
8
BLACK
6
CONTINUOUS
10
109.5
20
-112.6
11
109.9
21
-113
0
LINE
8
BLACK
6
CONTINUOUS
10
109.9
20
-112.6
11
109.5
21
-113
0
LINE
8
BLACK
6
CONTINUOUS
10
110.646
20
-99.2894
11
111.046
21
-99.6894
0
LINE
8
BLACK
6
CONTINUOUS
10
111.046
20
-99.2894
11
110.646
21
-99.6894
0
LINE
8
BLACK
6
CONTINUOUS
10
110.8
20
-112.6
11
111.2
21
-113
0
LINE
8
BLACK
6
CONTINUOUS
10
111.2
20
-112.6
11
110.8
21
-113
0
LINE
8
BLACK
6
CONTINUOUS
10
112.721
20
-101.323
11
113.121
21
-101.723
0
LINE
8
BLACK
6
CONTINUOUS
10
113.121
20
-101.323
11
112.721
21
-101.723
0
LINE
8
BLACK
6
CONTINUOUS
10
113.05
20
-111.3
11
113.45
21
-111.7
0
LINE
8
BLACK
6
CONTINUOUS
10
113.45
20
-111.3
11
113.05
21
-111.7
0
LINE
8
BLACK
6
CONTINUOUS
10
114.3
20
-111.3
11
114.7
21
-111.7
0
LINE
8
BLACK
6
CONTINUOUS
10
114.7
20
-111.3
11
114.3
21
-111.7
0
LINE
8
BLACK
6
CONTINUOUS
10
118.84
20
-96.3439
11
119.24
21
-96.7439
0
LINE
8
BLACK
6
CONTINUOUS
10
119.24
20
-96.3439
11
118.84
21
-96.7439
0
LINE
8
BLACK
6
CONTINUOUS
10
118.956
20
-100.34
11
119.356
21
-100.74
0
LINE
8
BLACK
6
CONTINUOUS
10
119.356
20
-100.34
11
118.956
21
-100.74
0
LINE
8
BLACK
6
CONTINUOUS
10
129.8
20
-84.3
11
130.2
21
-84.7
0
LINE
8
BLACK
6
CONTINUOUS
10
130.2
20
-84.3
11
129.8
21
-84.7
0
CIRCLE
8
BLACK
10
146.365
20
-89.355
40
0.325
0
LINE
8
BLACK
6
CONTINUOUS
10
146.565
20
-89.03
11
146.165
21
-89.03
0
LINE
8
BLACK
6
CONTINUOUS
10
146.565
20
-89.68
11
146.165
21
-89.68
0
ARC
8
BLACK
10
146.165
20
-89.355
40
0.325
50
450
51
630
0
ARC
8
BLACK
10
146.565
20
-89.355
40
0.325
50
270
51
450
0
CIRCLE
8
BLACK
10
146.365
20
-94.195
40
0.325
0
LINE
8
BLACK
6
CONTINUOUS
10
146.565
20
-93.87
11
146.165
21
-93.87
0
LINE
8
BLACK
6
CONTINUOUS
10
146.565
20
-94.52
11
146.165
21
-94.52
0
ARC
8
BLACK
10
146.165
20
-94.195
40
0.325
50
450
51
630
0
ARC
8
BLACK
10
146.565
20
-94.195
40
0.325
50
270
51
450
0
LINE
8
BLACK
6
CONTINUOUS
10
149.365
20
-88.695
11
149.365
21
-89.395
0
LINE
8
BLACK
6
CONTINUOUS
10
149.015
20
-89.045
11
149.715
21
-89.045
0
LINE
8
BLACK
6
CONTINUOUS
10
149.615
20
-88.695
11
149.115
21
-88.695
0
LINE
8
BLACK
6
CONTINUOUS
10
149.615
20
-89.395
11
149.115
21
-89.395
0
ARC
8
BLACK
10
149.115
20
-89.045
40
0.35
50
450
51
630
0
ARC
8
BLACK
10
149.615
20
-89.045
40
0.35
50
270
51
450
0
LINE
8
BLACK
6
CONTINUOUS
10
149.365
20
-94.155
11
149.365
21
-94.855
0
LINE
8
BLACK
6
CONTINUOUS
10
149.015
20
-94.505
11
149.715
21
-94.505
0
LINE
8
BLACK
6
CONTINUOUS
10
149.615
20
-94.155
11
149.115
21
-94.155
0
LINE
8
BLACK
6
CONTINUOUS
10
149.615
20
-94.855
11
149.115
21
-94.855
0
ARC
8
BLACK
10
149.115
20
-94.505
40
0.35
50
450
51
630
0
ARC
8
BLACK
10
149.615
20
-94.505
40
0.35
50
270
51
450
0
LINE
8
BLACK
6
CONTINUOUS
10
133.959
20
-98.6294
11
133.959
21
-98.0906
0
LINE
8
BLACK
6
CONTINUOUS
10
133.959
20
-98.0906
11
133.421
21
-98.0906
0
LINE
8
BLACK
6
CONTINUOUS
10
133.421
20
-98.0906
11
133.421
21
-98.6294
0
LINE
8
BLACK
6
CONTINUOUS
10
133.421
20
-98.6294
11
133.959
21
-98.6294
0
LINE
8
BLACK
6
CONTINUOUS
10
133.959
20
-103.709
11
133.959
21
-103.171
0
LINE
8
BLACK
6
CONTINUOUS
10
133.959
20
-103.171
11
133.421
21
-103.171
0
LINE
8
BLACK
6
CONTINUOUS
10
133.421
20
-103.171
11
133.421
21
-103.709
0
LINE
8
BLACK
6
CONTINUOUS
10
133.421
20
-103.709
11
133.959
21
-103.709
0
LINE
8
BLACK
6
CONTINUOUS
10
133.959
20
-108.789
11
133.959
21
-108.251
0
LINE
8
BLACK
6
CONTINUOUS
10
133.959
20
-108.251
11
133.421
21
-108.251
0
LINE
8
BLACK
6
CONTINUOUS
10
133.421
20
-108.251
11
133.421
21
-108.789
0
LINE
8
BLACK
6
CONTINUOUS
10
133.421
20
-108.789
11
133.959
21
-108.789
0
LINE
8
BLACK
6
CONTINUOUS
10
133.959
20
-113.869
11
133.959
21
-113.331
0
LINE
8
BLACK
6
CONTINUOUS
10
133.959
20
-113.331
11
133.421
21
-113.331
0
LINE
8
BLACK
6
CONTINUOUS
10
133.421
20
-113.331
11
133.421
21
-113.869
0
LINE
8
BLACK
6
CONTINUOUS
10
133.421
20
-113.869
11
133.959
21
-113.869
0
LINE
8
BLACK
6
CONTINUOUS
10
133.959
20
-116.409
11
133.959
21
-115.871
0
LINE
8
BLACK
6
CONTINUOUS
10
133.959
20
-115.871
11
133.421
21
-115.871
0
LINE
8
BLACK
6
CONTINUOUS
10
133.421
20
-115.871
11
133.421
21
-116.409
0
LINE
8
BLACK
6
CONTINUOUS
10
133.421
20
-116.409
11
133.959
21
-116.409
0
LINE
8
BLACK
6
CONTINUOUS
10
141.579
20
-98.6294
11
141.579
21
-98.0906
0
LINE
8
BLACK
6
CONTINUOUS
10
141.579
20
-98.0906
11
141.041
21
-98.0906
0
LINE
8
BLACK
6
CONTINUOUS
10
141.041
20
-98.0906
11
141.041
21
-98.6294
0
LINE
8
BLACK
6
CONTINUOUS
10
141.041
20
-98.6294
11
141.579
21
-98.6294
0
LINE
8
BLACK
6
CONTINUOUS
10
141.579
20
-103.709
11
141.579
21
-103.171
0
LINE
8
BLACK
6
CONTINUOUS
10
141.579
20
-103.171
11
141.041
21
-103.171
0
LINE
8
BLACK
6
CONTINUOUS
10
141.041
20
-103.171
11
141.041
21
-103.709
0
LINE
8
BLACK
6
CONTINUOUS
10
141.041
20
-103.709
11
141.579
21
-103.709
0
LINE
8
BLACK
6
CONTINUOUS
10
141.579
20
-108.789
11
141.579
21
-108.251
0
LINE
8
BLACK
6
CONTINUOUS
10
141.579
20
-108.251
11
141.041
21
-108.251
0
LINE
8
BLACK
6
CONTINUOUS
10
141.041
20
-108.251
11
141.041
21
-108.789
0
LINE
8
BLACK
6
CONTINUOUS
10
141.041
20
-108.789
11
141.579
21
-108.789
0
LINE
8
BLACK
6
CONTINUOUS
10
141.579
20
-113.869
11
141.579
21
-113.331
0
LINE
8
BLACK
6
CONTINUOUS
10
141.579
20
-113.331
11
141.041
21
-113.331
0
LINE
8
BLACK
6
CONTINUOUS
10
141.041
20
-113.331
11
141.041
21
-113.869
0
LINE
8
BLACK
6
CONTINUOUS
10
141.041
20
-113.869
11
141.579
21
-113.869
0
LINE
8
BLACK
6
CONTINUOUS
10
141.579
20
-116.409
11
141.579
21
-115.871
0
LINE
8
BLACK
6
CONTINUOUS
10
141.579
20
-115.871
11
141.041
21
-115.871
0
LINE
8
BLACK
6
CONTINUOUS
10
141.041
20
-115.871
11
141.041
21
-116.409
0
LINE
8
BLACK
6
CONTINUOUS
10
141.041
20
-116.409
11
141.579
21
-116.409
0
LINE
8
BLACK
6
CONTINUOUS
10
69.85
20
-88.15
11
70.25
21
-87.75
0
LINE
8
BLACK
6
CONTINUOUS
10
70.25
20
-87.75
11
69.85
21
-87.35
0
LINE
8
BLACK
6
CONTINUOUS
10
69.85
20
-87.35
11
69.45
21
-87.75
0
LINE
8
BLACK
6
CONTINUOUS
10
69.45
20
-87.75
11
69.85
21
-88.15
0
LINE
8
BLACK
6
CONTINUOUS
10
73.25
20
-88.15
11
73.65
21
-87.75
0
LINE
8
BLACK
6
CONTINUOUS
10
73.65
20
-87.75
11
73.25
21
-87.35
0
LINE
8
BLACK
6
CONTINUOUS
10
73.25
20
-87.35
11
72.85
21
-87.75
0
LINE
8
BLACK
6
CONTINUOUS
10
72.85
20
-87.75
11
73.25
21
-88.15
0
LINE
8
BLACK
6
CONTINUOUS
10
71.225
20
-93.525
11
72.175
21
-94.475
0
LINE
8
BLACK
6
CONTINUOUS
10
72.175
20
-93.525
11
71.225
21
-94.475
0
CIRCLE
8
BLACK
10
71.7
20
-94
40
0.475
0
LINE
8
BLACK
6
CONTINUOUS
10
71.225
20
-96.025
11
72.175
21
-96.975
0
LINE
8
BLACK
6
CONTINUOUS
10
72.175
20
-96.025
11
71.225
21
-96.975
0
CIRCLE
8
BLACK
10
71.7
20
-96.5
40
0.475
0
LINE
8
BLACK
6
CONTINUOUS
10
71.225
20
-98.525
11
72.175
21
-99.475
0
LINE
8
BLACK
6
CONTINUOUS
10
72.175
20
-98.525
11
71.225
21
-99.475
0
CIRCLE
8
BLACK
10
71.7
20
-99
40
0.475
0
LINE
8
BLACK
6
CONTINUOUS
10
71.225
20
-101.025
11
72.175
21
-101.975
0
LINE
8
BLACK
6
CONTINUOUS
10
72.175
20
-101.025
11
71.225
21
-101.975
0
CIRCLE
8
BLACK
10
71.7
20
-101.5
40
0.475
0
LINE
8
BLACK
6
CONTINUOUS
10
127.25
20
-97
11
128.25
21
-98
0
LINE
8
BLACK
6
CONTINUOUS
10
128.25
20
-97
11
127.25
21
-98
0
LINE
8
BLACK
6
CONTINUOUS
10
127.75
20
-97
11
127.75
21
-98
0
LINE
8
BLACK
6
CONTINUOUS
10
127.25
20
-97.5
11
128.25
21
-97.5
0
LINE
8
BLACK
6
CONTINUOUS
10
127.25
20
-99.54
11
128.25
21
-100.54
0
LINE
8
BLACK
6
CONTINUOUS
10
128.25
20
-99.54
11
127.25
21
-100.54
0
LINE
8
BLACK
6
CONTINUOUS
10
127.75
20
-99.54
11
127.75
21
-100.54
0
LINE
8
BLACK
6
CONTINUOUS
10
127.25
20
-100.04
11
128.25
21
-100.04
0
LINE
8
BLACK
6
CONTINUOUS
10
127.25
20
-102.08
11
128.25
21
-103.08
0
LINE
8
BLACK
6
CONTINUOUS
10
128.25
20
-102.08
11
127.25
21
-103.08
0
LINE
8
BLACK
6
CONTINUOUS
10
127.75
20
-102.08
11
127.75
21
-103.08
0
LINE
8
BLACK
6
CONTINUOUS
10
127.25
20
-102.58
11
128.25
21
-102.58
0
LINE
8
BLACK
6
CONTINUOUS
10
127.25
20
-104.62
11
128.25
21
-105.62
0
LINE
8
BLACK
6
CONTINUOUS
10
128.25
20
-104.62
11
127.25
21
-105.62
0
LINE
8
BLACK
6
CONTINUOUS
10
127.75
20
-104.62
11
127.75
21
-105.62
0
LINE
8
BLACK
6
CONTINUOUS
10
127.25
20
-105.12
11
128.25
21
-105.12
0
LINE
8
BLACK
6
CONTINUOUS
10
134.55
20
-85.25
11
135.55
21
-86.25
0
LINE
8
BLACK
6
CONTINUOUS
10
135.55
20
-85.25
11
134.55
21
-86.25
0
LINE
8
BLACK
6
CONTINUOUS
10
135.05
20
-85.25
11
135.05
21
-86.25
0
LINE
8
BLACK
6
CONTINUOUS
10
134.55
20
-85.75
11
135.55
21
-85.75
0
LINE
8
BLACK
6
CONTINUOUS
10
137.09
20
-85.25
11
138.09
21
-86.25
0
LINE
8
BLACK
6
CONTINUOUS
10
138.09
20
-85.25
11
137.09
21
-86.25
0
LINE
8
BLACK
6
CONTINUOUS
10
137.59
20
-85.25
11
137.59
21
-86.25
0
LINE
8
BLACK
6
CONTINUOUS
10
137.09
20
-85.75
11
138.09
21
-85.75
0
LINE
8
BLACK
6
CONTINUOUS
10
139.63
20
-85.25
11
140.63
21
-86.25
0
LINE
8
BLACK
6
CONTINUOUS
10
140.63
20
-85.25
11
139.63
21
-86.25
0
LINE
8
BLACK
6
CONTINUOUS
10
140.13
20
-85.25
11
140.13
21
-86.25
0
LINE
8
BLACK
6
CONTINUOUS
10
139.63
20
-85.75
11
140.63
21
-85.75
0
LINE
8
BLACK
6
CONTINUOUS
10
142.17
20
-85.25
11
143.17
21
-86.25
0
LINE
8
BLACK
6
CONTINUOUS
10
143.17
20
-85.25
11
142.17
21
-86.25
0
LINE
8
BLACK
6
CONTINUOUS
10
142.67
20
-85.25
11
142.67
21
-86.25
0
LINE
8
BLACK
6
CONTINUOUS
10
142.17
20
-85.75
11
143.17
21
-85.75
0
LINE
8
BLACK
6
CONTINUOUS
10
144.71
20
-85.25
11
145.71
21
-86.25
0
LINE
8
BLACK
6
CONTINUOUS
10
145.71
20
-85.25
11
144.71
21
-86.25
0
LINE
8
BLACK
6
CONTINUOUS
10
145.21
20
-85.25
11
145.21
21
-86.25
0
LINE
8
BLACK
6
CONTINUOUS
10
144.71
20
-85.75
11
145.71
21
-85.75
0
LINE
8
BLACK
6
CONTINUOUS
10
147.25
20
-85.25
11
148.25
21
-86.25
0
LINE
8
BLACK
6
CONTINUOUS
10
148.25
20
-85.25
11
147.25
21
-86.25
0
LINE
8
BLACK
6
CONTINUOUS
10
147.75
20
-85.25
11
147.75
21
-86.25
0
LINE
8
BLACK
6
CONTINUOUS
10
147.25
20
-85.75
11
148.25
21
-85.75
0
LINE
8
BLACK
6
CONTINUOUS
10
76.25
20
-105.21
11
77.25
21
-106.21
0
LINE
8
BLACK
6
CONTINUOUS
10
77.25
20
-105.21
11
76.25
21
-106.21
0
LINE
8
BLACK
6
CONTINUOUS
10
76.75
20
-105.21
11
76.75
21
-106.21
0
LINE
8
BLACK
6
CONTINUOUS
10
76.25
20
-105.71
11
77.25
21
-105.71
0
LINE
8
BLACK
6
CONTINUOUS
10
76.25
20
-107.75
11
77.25
21
-108.75
0
LINE
8
BLACK
6
CONTINUOUS
10
77.25
20
-107.75
11
76.25
21
-108.75
0
LINE
8
BLACK
6
CONTINUOUS
10
76.75
20
-107.75
11
76.75
21
-108.75
0
LINE
8
BLACK
6
CONTINUOUS
10
76.25
20
-108.25
11
77.25
21
-108.25
0
LINE
8
BLACK
6
CONTINUOUS
10
78.79
20
-105.21
11
79.79
21
-106.21
0
LINE
8
BLACK
6
CONTINUOUS
10
79.79
20
-105.21
11
78.79
21
-106.21
0
LINE
8
BLACK
6
CONTINUOUS
10
79.29
20
-105.21
11
79.29
21
-106.21
0
LINE
8
BLACK
6
CONTINUOUS
10
78.79
20
-105.71
11
79.79
21
-105.71
0
LINE
8
BLACK
6
CONTINUOUS
10
78.79
20
-107.75
11
79.79
21
-108.75
0
LINE
8
BLACK
6
CONTINUOUS
10
79.79
20
-107.75
11
78.79
21
-108.75
0
LINE
8
BLACK
6
CONTINUOUS
10
79.29
20
-107.75
11
79.29
21
-108.75
0
LINE
8
BLACK
6
CONTINUOUS
10
78.79
20
-108.25
11
79.79
21
-108.25
0
LINE
8
BLACK
6
CONTINUOUS
10
81.33
20
-105.21
11
82.33
21
-106.21
0
LINE
8
BLACK
6
CONTINUOUS
10
82.33
20
-105.21
11
81.33
21
-106.21
0
LINE
8
BLACK
6
CONTINUOUS
10
81.83
20
-105.21
11
81.83
21
-106.21
0
LINE
8
BLACK
6
CONTINUOUS
10
81.33
20
-105.71
11
82.33
21
-105.71
0
LINE
8
BLACK
6
CONTINUOUS
10
81.33
20
-107.75
11
82.33
21
-108.75
0
LINE
8
BLACK
6
CONTINUOUS
10
82.33
20
-107.75
11
81.33
21
-108.75
0
LINE
8
BLACK
6
CONTINUOUS
10
81.83
20
-107.75
11
81.83
21
-108.75
0
LINE
8
BLACK
6
CONTINUOUS
10
81.33
20
-108.25
11
82.33
21
-108.25
0
LINE
8
BLACK
6
CONTINUOUS
10
83.87
20
-105.21
11
84.87
21
-106.21
0
LINE
8
BLACK
6
CONTINUOUS
10
84.87
20
-105.21
11
83.87
21
-106.21
0
LINE
8
BLACK
6
CONTINUOUS
10
84.37
20
-105.21
11
84.37
21
-106.21
0
LINE
8
BLACK
6
CONTINUOUS
10
83.87
20
-105.71
11
84.87
21
-105.71
0
LINE
8
BLACK
6
CONTINUOUS
10
83.87
20
-107.75
11
84.87
21
-108.75
0
LINE
8
BLACK
6
CONTINUOUS
10
84.87
20
-107.75
11
83.87
21
-108.75
0
LINE
8
BLACK
6
CONTINUOUS
10
84.37
20
-107.75
11
84.37
21
-108.75
0
LINE
8
BLACK
6
CONTINUOUS
10
83.87
20
-108.25
11
84.87
21
-108.25
0
LINE
8
BLACK
6
CONTINUOUS
10
83.21
20
-86.75
11
84.21
21
-87.75
0
LINE
8
BLACK
6
CONTINUOUS
10
84.21
20
-86.75
11
83.21
21
-87.75
0
LINE
8
BLACK
6
CONTINUOUS
10
83.71
20
-86.75
11
83.71
21
-87.75
0
LINE
8
BLACK
6
CONTINUOUS
10
83.21
20
-87.25
11
84.21
21
-87.25
0
LINE
8
BLACK
6
CONTINUOUS
10
83.21
20
-89.29
11
84.21
21
-90.29
0
LINE
8
BLACK
6
CONTINUOUS
10
84.21
20
-89.29
11
83.21
21
-90.29
0
LINE
8
BLACK
6
CONTINUOUS
10
83.71
20
-89.29
11
83.71
21
-90.29
0
LINE
8
BLACK
6
CONTINUOUS
10
83.21
20
-89.79
11
84.21
21
-89.79
0
LINE
8
BLACK
6
CONTINUOUS
10
85.75
20
-86.75
11
86.75
21
-87.75
0
LINE
8
BLACK
6
CONTINUOUS
10
86.75
20
-86.75
11
85.75
21
-87.75
0
LINE
8
BLACK
6
CONTINUOUS
10
86.25
20
-86.75
11
86.25
21
-87.75
0
LINE
8
BLACK
6
CONTINUOUS
10
85.75
20
-87.25
11
86.75
21
-87.25
0
LINE
8
BLACK
6
CONTINUOUS
10
85.75
20
-89.29
11
86.75
21
-90.29
0
LINE
8
BLACK
6
CONTINUOUS
10
86.75
20
-89.29
11
85.75
21
-90.29
0
LINE
8
BLACK
6
CONTINUOUS
10
86.25
20
-89.29
11
86.25
21
-90.29
0
LINE
8
BLACK
6
CONTINUOUS
10
85.75
20
-89.79
11
86.75
21
-89.79
0
LINE
8
BLACK
6
CONTINUOUS
10
88.29
20
-86.75
11
89.29
21
-87.75
0
LINE
8
BLACK
6
CONTINUOUS
10
89.29
20
-86.75
11
88.29
21
-87.75
0
LINE
8
BLACK
6
CONTINUOUS
10
88.79
20
-86.75
11
88.79
21
-87.75
0
LINE
8
BLACK
6
CONTINUOUS
10
88.29
20
-87.25
11
89.29
21
-87.25
0
LINE
8
BLACK
6
CONTINUOUS
10
88.29
20
-89.29
11
89.29
21
-90.29
0
LINE
8
BLACK
6
CONTINUOUS
10
89.29
20
-89.29
11
88.29
21
-90.29
0
LINE
8
BLACK
6
CONTINUOUS
10
88.79
20
-89.29
11
88.79
21
-90.29
0
LINE
8
BLACK
6
CONTINUOUS
10
88.29
20
-89.79
11
89.29
21
-89.79
0
LINE
8
BLACK
6
CONTINUOUS
10
129.9
20
-89.3
11
130.9
21
-90.3
0
LINE
8
BLACK
6
CONTINUOUS
10
130.9
20
-89.3
11
129.9
21
-90.3
0
LINE
8
BLACK
6
CONTINUOUS
10
130.4
20
-89.3
11
130.4
21
-90.3
0
LINE
8
BLACK
6
CONTINUOUS
10
129.9
20
-89.8
11
130.9
21
-89.8
0
LINE
8
BLACK
6
CONTINUOUS
10
129.9
20
-91.84
11
130.9
21
-92.84
0
LINE
8
BLACK
6
CONTINUOUS
10
130.9
20
-91.84
11
129.9
21
-92.84
0
LINE
8
BLACK
6
CONTINUOUS
10
130.4
20
-91.84
11
130.4
21
-92.84
0
LINE
8
BLACK
6
CONTINUOUS
10
129.9
20
-92.34
11
130.9
21
-92.34
0
LINE
8
BLACK
6
CONTINUOUS
10
129.9
20
-94.38
11
130.9
21
-95.38
0
LINE
8
BLACK
6
CONTINUOUS
10
130.9
20
-94.38
11
129.9
21
-95.38
0
LINE
8
BLACK
6
CONTINUOUS
10
130.4
20
-94.38
11
130.4
21
-95.38
0
LINE
8
BLACK
6
CONTINUOUS
10
129.9
20
-94.88
11
130.9
21
-94.88
0
LINE
8
BLACK
6
CONTINUOUS
10
129.9
20
-96.92
11
130.9
21
-97.92
0
LINE
8
BLACK
6
CONTINUOUS
10
130.9
20
-96.92
11
129.9
21
-97.92
0
LINE
8
BLACK
6
CONTINUOUS
10
130.4
20
-96.92
11
130.4
21
-97.92
0
LINE
8
BLACK
6
CONTINUOUS
10
129.9
20
-97.42
11
130.9
21
-97.42
0
LINE
8
BLACK
6
CONTINUOUS
10
129.9
20
-99.46
11
130.9
21
-100.46
0
LINE
8
BLACK
6
CONTINUOUS
10
130.9
20
-99.46
11
129.9
21
-100.46
0
LINE
8
BLACK
6
CONTINUOUS
10
130.4
20
-99.46
11
130.4
21
-100.46
0
LINE
8
BLACK
6
CONTINUOUS
10
129.9
20
-99.96
11
130.9
21
-99.96
0
LINE
8
BLACK
6
CONTINUOUS
10
129.9
20
-102
11
130.9
21
-103
0
LINE
8
BLACK
6
CONTINUOUS
10
130.9
20
-102
11
129.9
21
-103
0
LINE
8
BLACK
6
CONTINUOUS
10
130.4
20
-102
11
130.4
21
-103
0
LINE
8
BLACK
6
CONTINUOUS
10
129.9
20
-102.5
11
130.9
21
-102.5
0
LINE
8
BLACK
6
CONTINUOUS
10
146.24
20
-98.08
11
147.76
21
-99.6
0
LINE
8
BLACK
6
CONTINUOUS
10
147.76
20
-98.08
11
146.24
21
-99.6
0
LINE
8
BLACK
6
CONTINUOUS
10
147.537
20
-99.3774
11
147.537
21
-98.3026
0
LINE
8
BLACK
6
CONTINUOUS
10
147.537
20
-98.3026
11
146.463
21
-98.3026
0
LINE
8
BLACK
6
CONTINUOUS
10
146.463
20
-98.3026
11
146.463
21
-99.3774
0
LINE
8
BLACK
6
CONTINUOUS
10
146.463
20
-99.3774
11
147.537
21
-99.3774
0
LINE
8
BLACK
6
CONTINUOUS
10
146.24
20
-103.16
11
147.76
21
-104.68
0
LINE
8
BLACK
6
CONTINUOUS
10
147.76
20
-103.16
11
146.24
21
-104.68
0
LINE
8
BLACK
6
CONTINUOUS
10
147.537
20
-104.457
11
147.537
21
-103.383
0
LINE
8
BLACK
6
CONTINUOUS
10
147.537
20
-103.383
11
146.463
21
-103.383
0
LINE
8
BLACK
6
CONTINUOUS
10
146.463
20
-103.383
11
146.463
21
-104.457
0
LINE
8
BLACK
6
CONTINUOUS
10
146.463
20
-104.457
11
147.537
21
-104.457
0
LINE
8
BLACK
6
CONTINUOUS
10
146.24
20
-108.24
11
147.76
21
-109.76
0
LINE
8
BLACK
6
CONTINUOUS
10
147.76
20
-108.24
11
146.24
21
-109.76
0
LINE
8
BLACK
6
CONTINUOUS
10
147.537
20
-109.537
11
147.537
21
-108.463
0
LINE
8
BLACK
6
CONTINUOUS
10
147.537
20
-108.463
11
146.463
21
-108.463
0
LINE
8
BLACK
6
CONTINUOUS
10
146.463
20
-108.463
11
146.463
21
-109.537
0
LINE
8
BLACK
6
CONTINUOUS
10
146.463
20
-109.537
11
147.537
21
-109.537
0
LINE
8
BLACK
6
CONTINUOUS
10
68.7893
20
-122.482
11
68.7893
21
-119.482
0
LINE
8
BLACK
6
CONTINUOUS
10
68.7893
20
-119.482
11
69.5036
21
-119.482
0
LINE
8
BLACK
6
CONTINUOUS
10
69.5036
20
-119.482
11
69.9321
21
-119.625
0
LINE
8
BLACK
6
CONTINUOUS
10
69.9321
20
-119.625
11
70.2179
21
-119.911
0
LINE
8
BLACK
6
CONTINUOUS
10
70.2179
20
-119.911
11
70.3607
21
-120.196
0
LINE
8
BLACK
6
CONTINUOUS
10
70.3607
20
-120.196
11
70.5036
21
-120.768
0
LINE
8
BLACK
6
CONTINUOUS
10
70.5036
20
-120.768
11
70.5036
21
-121.196
0
LINE
8
BLACK
6
CONTINUOUS
10
70.5036
20
-121.196
11
70.3607
21
-121.768
0
LINE
8
BLACK
6
CONTINUOUS
10
70.3607
20
-121.768
11
70.2179
21
-122.054
0
LINE
8
BLACK
6
CONTINUOUS
10
70.2179
20
-122.054
11
69.9321
21
-122.339
0
LINE
8
BLACK
6
CONTINUOUS
10
69.9321
20
-122.339
11
69.5036
21
-122.482
0
LINE
8
BLACK
6
CONTINUOUS
10
69.5036
20
-122.482
11
68.7893
21
-122.482
0
LINE
8
BLACK
6
CONTINUOUS
10
71.7893
20
-122.482
11
71.7893
21
-120.482
0
LINE
8
BLACK
6
CONTINUOUS
10
71.7893
20
-121.054
11
71.9321
21
-120.768
0
LINE
8
BLACK
6
CONTINUOUS
10
71.9321
20
-120.768
11
72.075
21
-120.625
0
LINE
8
BLACK
6
CONTINUOUS
10
72.075
20
-120.625
11
72.3607
21
-120.482
0
LINE
8
BLACK
6
CONTINUOUS
10
72.3607
20
-120.482
11
72.6464
21
-120.482
0
LINE
8
BLACK
6
CONTINUOUS
10
73.6464
20
-122.482
11
73.6464
21
-120.482
0
LINE
8
BLACK
6
CONTINUOUS
10
73.6464
20
-119.482
11
73.5036
21
-119.625
0
LINE
8
BLACK
6
CONTINUOUS
10
73.5036
20
-119.625
11
73.6464
21
-119.768
0
LINE
8
BLACK
6
CONTINUOUS
10
73.6464
20
-119.768
11
73.7893
21
-119.625
0
LINE
8
BLACK
6
CONTINUOUS
10
73.7893
20
-119.625
11
73.6464
21
-119.482
0
LINE
8
BLACK
6
CONTINUOUS
10
73.6464
20
-119.482
11
73.6464
21
-119.768
0
LINE
8
BLACK
6
CONTINUOUS
10
75.5036
20
-122.482
11
75.2179
21
-122.339
0
LINE
8
BLACK
6
CONTINUOUS
10
75.2179
20
-122.339
11
75.075
21
-122.054
0
LINE
8
BLACK
6
CONTINUOUS
10
75.075
20
-122.054
11
75.075
21
-119.482
0
LINE
8
BLACK
6
CONTINUOUS
10
77.075
20
-122.482
11
76.7893
21
-122.339
0
LINE
8
BLACK
6
CONTINUOUS
10
76.7893
20
-122.339
11
76.6464
21
-122.054
0
LINE
8
BLACK
6
CONTINUOUS
10
76.6464
20
-122.054
11
76.6464
21
-119.482
0
LINE
8
BLACK
6
CONTINUOUS
10
80.5036
20
-122.482
11
80.5036
21
-119.482
0
LINE
8
BLACK
6
CONTINUOUS
10
80.5036
20
-119.482
11
81.5036
21
-121.625
0
LINE
8
BLACK
6
CONTINUOUS
10
81.5036
20
-121.625
11
82.5036
21
-119.482
0
LINE
8
BLACK
6
CONTINUOUS
10
82.5036
20
-119.482
11
82.5036
21
-122.482
0
LINE
8
BLACK
6
CONTINUOUS
10
85.2179
20
-122.482
11
85.2179
21
-120.911
0
LINE
8
BLACK
6
CONTINUOUS
10
85.2179
20
-120.911
11
85.075
21
-120.625
0
LINE
8
BLACK
6
CONTINUOUS
10
85.075
20
-120.625
11
84.7893
21
-120.482
0
LINE
8
BLACK
6
CONTINUOUS
10
84.7893
20
-120.482
11
84.2179
21
-120.482
0
LINE
8
BLACK
6
CONTINUOUS
10
84.2179
20
-120.482
11
83.9321
21
-120.625
0
LINE
8
BLACK
6
CONTINUOUS
10
85.2179
20
-122.339
11
84.9321
21
-122.482
0
LINE
8
BLACK
6
CONTINUOUS
10
84.9321
20
-122.482
11
84.2179
21
-122.482
0
LINE
8
BLACK
6
CONTINUOUS
10
84.2179
20
-122.482
11
83.9321
21
-122.339
0
LINE
8
BLACK
6
CONTINUOUS
10
83.9321
20
-122.339
11
83.7893
21
-122.054
0
LINE
8
BLACK
6
CONTINUOUS
10
83.7893
20
-122.054
11
83.7893
21
-121.768
0
LINE
8
BLACK
6
CONTINUOUS
10
83.7893
20
-121.768
11
83.9321
21
-121.482
0
LINE
8
BLACK
6
CONTINUOUS
10
83.9321
20
-121.482
11
84.2179
21
-121.339
0
LINE
8
BLACK
6
CONTINUOUS
10
84.2179
20
-121.339
11
84.9321
21
-121.339
0
LINE
8
BLACK
6
CONTINUOUS
10
84.9321
20
-121.339
11
85.2179
21
-121.196
0
LINE
8
BLACK
6
CONTINUOUS
10
86.6464
20
-120.482
11
86.6464
21
-123.482
0
LINE
8
BLACK
6
CONTINUOUS
10
86.6464
20
-120.625
11
86.9321
21
-120.482
0
LINE
8
BLACK
6
CONTINUOUS
10
86.9321
20
-120.482
11
87.5036
21
-120.482
0
LINE
8
BLACK
6
CONTINUOUS
10
87.5036
20
-120.482
11
87.7893
21
-120.625
0
LINE
8
BLACK
6
CONTINUOUS
10
87.7893
20
-120.625
11
87.9321
21
-120.768
0
LINE
8
BLACK
6
CONTINUOUS
10
87.9321
20
-120.768
11
88.075
21
-121.054
0
LINE
8
BLACK
6
CONTINUOUS
10
88.075
20
-121.054
11
88.075
21
-121.911
0
LINE
8
BLACK
6
CONTINUOUS
10
88.075
20
-121.911
11
87.9321
21
-122.196
0
LINE
8
BLACK
6
CONTINUOUS
10
87.9321
20
-122.196
11
87.7893
21
-122.339
0
LINE
8
BLACK
6
CONTINUOUS
10
87.7893
20
-122.339
11
87.5036
21
-122.482
0
LINE
8
BLACK
6
CONTINUOUS
10
87.5036
20
-122.482
11
86.9321
21
-122.482
0
LINE
8
BLACK
6
CONTINUOUS
10
86.9321
20
-122.482
11
86.6464
21
-122.339
0
LINE
8
BLACK
6
CONTINUOUS
10
89.3607
20
-122.196
11
89.5036
21
-122.339
0
LINE
8
BLACK
6
CONTINUOUS
10
89.5036
20
-122.339
11
89.3607
21
-122.482
0
LINE
8
BLACK
6
CONTINUOUS
10
89.3607
20
-122.482
11
89.2179
21
-122.339
0
LINE
8
BLACK
6
CONTINUOUS
10
89.2179
20
-122.339
11
89.3607
21
-122.196
0
LINE
8
BLACK
6
CONTINUOUS
10
89.3607
20
-122.196
11
89.3607
21
-122.482
0
LINE
8
BLACK
6
CONTINUOUS
10
89.3607
20
-120.625
11
89.5036
21
-120.768
0
LINE
8
BLACK
6
CONTINUOUS
10
89.5036
20
-120.768
11
89.3607
21
-120.911
0
LINE
8
BLACK
6
CONTINUOUS
10
89.3607
20
-120.911
11
89.2179
21
-120.768
0
LINE
8
BLACK
6
CONTINUOUS
10
89.2179
20
-120.768
11
89.3607
21
-120.625
0
LINE
8
BLACK
6
CONTINUOUS
10
89.3607
20
-120.625
11
89.3607
21
-120.911
0
LINE
8
BLACK
6
CONTINUOUS
10
65.525
20
-127.225
11
65.925
21
-127.625
0
LINE
8
BLACK
6
CONTINUOUS
10
65.925
20
-127.225
11
65.525
21
-127.625
0
LINE
8
BLACK
6
CONTINUOUS
10
69.3607
20
-125.782
11
69.6464
21
-125.782
0
LINE
8
BLACK
6
CONTINUOUS
10
69.6464
20
-125.782
11
69.9321
21
-125.925
0
LINE
8
BLACK
6
CONTINUOUS
10
69.9321
20
-125.925
11
70.075
21
-126.068
0
LINE
8
BLACK
6
CONTINUOUS
10
70.075
20
-126.068
11
70.2179
21
-126.354
0
LINE
8
BLACK
6
CONTINUOUS
10
70.2179
20
-126.354
11
70.3607
21
-126.925
0
LINE
8
BLACK
6
CONTINUOUS
10
70.3607
20
-126.925
11
70.3607
21
-127.639
0
LINE
8
BLACK
6
CONTINUOUS
10
70.3607
20
-127.639
11
70.2179
21
-128.211
0
LINE
8
BLACK
6
CONTINUOUS
10
70.2179
20
-128.211
11
70.075
21
-128.496
0
LINE
8
BLACK
6
CONTINUOUS
10
70.075
20
-128.496
11
69.9321
21
-128.639
0
LINE
8
BLACK
6
CONTINUOUS
10
69.9321
20
-128.639
11
69.6464
21
-128.782
0
LINE
8
BLACK
6
CONTINUOUS
10
69.6464
20
-128.782
11
69.3607
21
-128.782
0
LINE
8
BLACK
6
CONTINUOUS
10
69.3607
20
-128.782
11
69.075
21
-128.639
0
LINE
8
BLACK
6
CONTINUOUS
10
69.075
20
-128.639
11
68.9321
21
-128.496
0
LINE
8
BLACK
6
CONTINUOUS
10
68.9321
20
-128.496
11
68.7893
21
-128.211
0
LINE
8
BLACK
6
CONTINUOUS
10
68.7893
20
-128.211
11
68.6464
21
-127.639
0
LINE
8
BLACK
6
CONTINUOUS
10
68.6464
20
-127.639
11
68.6464
21
-126.925
0
LINE
8
BLACK
6
CONTINUOUS
10
68.6464
20
-126.925
11
68.7893
21
-126.354
0
LINE
8
BLACK
6
CONTINUOUS
10
68.7893
20
-126.354
11
68.9321
21
-126.068
0
LINE
8
BLACK
6
CONTINUOUS
10
68.9321
20
-126.068
11
69.075
21
-125.925
0
LINE
8
BLACK
6
CONTINUOUS
10
69.075
20
-125.925
11
69.3607
21
-125.782
0
LINE
8
BLACK
6
CONTINUOUS
10
71.6464
20
-128.496
11
71.7893
21
-128.639
0
LINE
8
BLACK
6
CONTINUOUS
10
71.7893
20
-128.639
11
71.6464
21
-128.782
0
LINE
8
BLACK
6
CONTINUOUS
10
71.6464
20
-128.782
11
71.5036
21
-128.639
0
LINE
8
BLACK
6
CONTINUOUS
10
71.5036
20
-128.639
11
71.6464
21
-128.496
0
LINE
8
BLACK
6
CONTINUOUS
10
71.6464
20
-128.496
11
71.6464
21
-128.782
0
LINE
8
BLACK
6
CONTINUOUS
10
74.3607
20
-126.782
11
74.3607
21
-128.782
0
LINE
8
BLACK
6
CONTINUOUS
10
73.6464
20
-125.639
11
72.9321
21
-127.782
0
LINE
8
BLACK
6
CONTINUOUS
10
72.9321
20
-127.782
11
74.7893
21
-127.782
0
LINE
8
BLACK
6
CONTINUOUS
10
76.5036
20
-125.782
11
76.7893
21
-125.782
0
LINE
8
BLACK
6
CONTINUOUS
10
76.7893
20
-125.782
11
77.075
21
-125.925
0
LINE
8
BLACK
6
CONTINUOUS
10
77.075
20
-125.925
11
77.2179
21
-126.068
0
LINE
8
BLACK
6
CONTINUOUS
10
77.2179
20
-126.068
11
77.3607
21
-126.354
0
LINE
8
BLACK
6
CONTINUOUS
10
77.3607
20
-126.354
11
77.5036
21
-126.925
0
LINE
8
BLACK
6
CONTINUOUS
10
77.5036
20
-126.925
11
77.5036
21
-127.639
0
LINE
8
BLACK
6
CONTINUOUS
10
77.5036
20
-127.639
11
77.3607
21
-128.211
0
LINE
8
BLACK
6
CONTINUOUS
10
77.3607
20
-128.211
11
77.2179
21
-128.496
0
LINE
8
BLACK
6
CONTINUOUS
10
77.2179
20
-128.496
11
77.075
21
-128.639
0
LINE
8
BLACK
6
CONTINUOUS
10
77.075
20
-128.639
11
76.7893
21
-128.782
0
LINE
8
BLACK
6
CONTINUOUS
10
76.7893
20
-128.782
11
76.5036
21
-128.782
0
LINE
8
BLACK
6
CONTINUOUS
10
76.5036
20
-128.782
11
76.2179
21
-128.639
0
LINE
8
BLACK
6
CONTINUOUS
10
76.2179
20
-128.639
11
76.075
21
-128.496
0
LINE
8
BLACK
6
CONTINUOUS
10
76.075
20
-128.496
11
75.9321
21
-128.211
0
LINE
8
BLACK
6
CONTINUOUS
10
75.9321
20
-128.211
11
75.7893
21
-127.639
0
LINE
8
BLACK
6
CONTINUOUS
10
75.7893
20
-127.639
11
75.7893
21
-126.925
0
LINE
8
BLACK
6
CONTINUOUS
10
75.7893
20
-126.925
11
75.9321
21
-126.354
0
LINE
8
BLACK
6
CONTINUOUS
10
75.9321
20
-126.354
11
76.075
21
-126.068
0
LINE
8
BLACK
6
CONTINUOUS
10
76.075
20
-126.068
11
76.2179
21
-125.925
0
LINE
8
BLACK
6
CONTINUOUS
10
76.2179
20
-125.925
11
76.5036
21
-125.782
0
LINE
8
BLACK
6
CONTINUOUS
10
78.7893
20
-128.782
11
78.7893
21
-126.782
0
LINE
8
BLACK
6
CONTINUOUS
10
78.7893
20
-127.068
11
78.9321
21
-126.925
0
LINE
8
BLACK
6
CONTINUOUS
10
78.9321
20
-126.925
11
79.2179
21
-126.782
0
LINE
8
BLACK
6
CONTINUOUS
10
79.2179
20
-126.782
11
79.6464
21
-126.782
0
LINE
8
BLACK
6
CONTINUOUS
10
79.6464
20
-126.782
11
79.9321
21
-126.925
0
LINE
8
BLACK
6
CONTINUOUS
10
79.9321
20
-126.925
11
80.075
21
-127.211
0
LINE
8
BLACK
6
CONTINUOUS
10
80.075
20
-127.211
11
80.075
21
-128.782
0
LINE
8
BLACK
6
CONTINUOUS
10
80.075
20
-127.211
11
80.2179
21
-126.925
0
LINE
8
BLACK
6
CONTINUOUS
10
80.2179
20
-126.925
11
80.5036
21
-126.782
0
LINE
8
BLACK
6
CONTINUOUS
10
80.5036
20
-126.782
11
80.9321
21
-126.782
0
LINE
8
BLACK
6
CONTINUOUS
10
80.9321
20
-126.782
11
81.2179
21
-126.925
0
LINE
8
BLACK
6
CONTINUOUS
10
81.2179
20
-126.925
11
81.3607
21
-127.211
0
LINE
8
BLACK
6
CONTINUOUS
10
81.3607
20
-127.211
11
81.3607
21
-128.782
0
LINE
8
BLACK
6
CONTINUOUS
10
82.7893
20
-128.782
11
82.7893
21
-126.782
0
LINE
8
BLACK
6
CONTINUOUS
10
82.7893
20
-127.068
11
82.9321
21
-126.925
0
LINE
8
BLACK
6
CONTINUOUS
10
82.9321
20
-126.925
11
83.2179
21
-126.782
0
LINE
8
BLACK
6
CONTINUOUS
10
83.2179
20
-126.782
11
83.6464
21
-126.782
0
LINE
8
BLACK
6
CONTINUOUS
10
83.6464
20
-126.782
11
83.9321
21
-126.925
0
LINE
8
BLACK
6
CONTINUOUS
10
83.9321
20
-126.925
11
84.075
21
-127.211
0
LINE
8
BLACK
6
CONTINUOUS
10
84.075
20
-127.211
11
84.075
21
-128.782
0
LINE
8
BLACK
6
CONTINUOUS
10
84.075
20
-127.211
11
84.2179
21
-126.925
0
LINE
8
BLACK
6
CONTINUOUS
10
84.2179
20
-126.925
11
84.5036
21
-126.782
0
LINE
8
BLACK
6
CONTINUOUS
10
84.5036
20
-126.782
11
84.9321
21
-126.782
0
LINE
8
BLACK
6
CONTINUOUS
10
84.9321
20
-126.782
11
85.2179
21
-126.925
0
LINE
8
BLACK
6
CONTINUOUS
10
85.2179
20
-126.925
11
85.3607
21
-127.211
0
LINE
8
BLACK
6
CONTINUOUS
10
85.3607
20
-127.211
11
85.3607
21
-128.782
0
LINE
8
BLACK
6
CONTINUOUS
10
91.2179
20
-125.639
11
88.6464
21
-129.496
0
LINE
8
BLACK
6
CONTINUOUS
10
95.075
20
-125.782
11
95.3607
21
-125.782
0
LINE
8
BLACK
6
CONTINUOUS
10
95.3607
20
-125.782
11
95.6464
21
-125.925
0
LINE
8
BLACK
6
CONTINUOUS
10
95.6464
20
-125.925
11
95.7893
21
-126.068
0
LINE
8
BLACK
6
CONTINUOUS
10
95.7893
20
-126.068
11
95.9321
21
-126.354
0
LINE
8
BLACK
6
CONTINUOUS
10
95.9321
20
-126.354
11
96.075
21
-126.925
0
LINE
8
BLACK
6
CONTINUOUS
10
96.075
20
-126.925
11
96.075
21
-127.639
0
LINE
8
BLACK
6
CONTINUOUS
10
96.075
20
-127.639
11
95.9321
21
-128.211
0
LINE
8
BLACK
6
CONTINUOUS
10
95.9321
20
-128.211
11
95.7893
21
-128.496
0
LINE
8
BLACK
6
CONTINUOUS
10
95.7893
20
-128.496
11
95.6464
21
-128.639
0
LINE
8
BLACK
6
CONTINUOUS
10
95.6464
20
-128.639
11
95.3607
21
-128.782
0
LINE
8
BLACK
6
CONTINUOUS
10
95.3607
20
-128.782
11
95.075
21
-128.782
0
LINE
8
BLACK
6
CONTINUOUS
10
95.075
20
-128.782
11
94.7893
21
-128.639
0
LINE
8
BLACK
6
CONTINUOUS
10
94.7893
20
-128.639
11
94.6464
21
-128.496
0
LINE
8
BLACK
6
CONTINUOUS
10
94.6464
20
-128.496
11
94.5036
21
-128.211
0
LINE
8
BLACK
6
CONTINUOUS
10
94.5036
20
-128.211
11
94.3607
21
-127.639
0
LINE
8
BLACK
6
CONTINUOUS
10
94.3607
20
-127.639
11
94.3607
21
-126.925
0
LINE
8
BLACK
6
CONTINUOUS
10
94.3607
20
-126.925
11
94.5036
21
-126.354
0
LINE
8
BLACK
6
CONTINUOUS
10
94.5036
20
-126.354
11
94.6464
21
-126.068
0
LINE
8
BLACK
6
CONTINUOUS
10
94.6464
20
-126.068
11
94.7893
21
-125.925
0
LINE
8
BLACK
6
CONTINUOUS
10
94.7893
20
-125.925
11
95.075
21
-125.782
0
LINE
8
BLACK
6
CONTINUOUS
10
97.3607
20
-128.496
11
97.5036
21
-128.639
0
LINE
8
BLACK
6
CONTINUOUS
10
97.5036
20
-128.639
11
97.3607
21
-128.782
0
LINE
8
BLACK
6
CONTINUOUS
10
97.3607
20
-128.782
11
97.2179
21
-128.639
0
LINE
8
BLACK
6
CONTINUOUS
10
97.2179
20
-128.639
11
97.3607
21
-128.496
0
LINE
8
BLACK
6
CONTINUOUS
10
97.3607
20
-128.496
11
97.3607
21
-128.782
0
LINE
8
BLACK
6
CONTINUOUS
10
99.3607
20
-125.782
11
99.6464
21
-125.782
0
LINE
8
BLACK
6
CONTINUOUS
10
99.6464
20
-125.782
11
99.9321
21
-125.925
0
LINE
8
BLACK
6
CONTINUOUS
10
99.9321
20
-125.925
11
100.075
21
-126.068
0
LINE
8
BLACK
6
CONTINUOUS
10
100.075
20
-126.068
11
100.218
21
-126.354
0
LINE
8
BLACK
6
CONTINUOUS
10
100.218
20
-126.354
11
100.361
21
-126.925
0
LINE
8
BLACK
6
CONTINUOUS
10
100.361
20
-126.925
11
100.361
21
-127.639
0
LINE
8
BLACK
6
CONTINUOUS
10
100.361
20
-127.639
11
100.218
21
-128.211
0
LINE
8
BLACK
6
CONTINUOUS
10
100.218
20
-128.211
11
100.075
21
-128.496
0
LINE
8
BLACK
6
CONTINUOUS
10
100.075
20
-128.496
11
99.9321
21
-128.639
0
LINE
8
BLACK
6
CONTINUOUS
10
99.9321
20
-128.639
11
99.6464
21
-128.782
0
LINE
8
BLACK
6
CONTINUOUS
10
99.6464
20
-128.782
11
99.3607
21
-128.782
0
LINE
8
BLACK
6
CONTINUOUS
10
99.3607
20
-128.782
11
99.075
21
-128.639
0
LINE
8
BLACK
6
CONTINUOUS
10
99.075
20
-128.639
11
98.9321
21
-128.496
0
LINE
8
BLACK
6
CONTINUOUS
10
98.9321
20
-128.496
11
98.7893
21
-128.211
0
LINE
8
BLACK
6
CONTINUOUS
10
98.7893
20
-128.211
11
98.6464
21
-127.639
0
LINE
8
BLACK
6
CONTINUOUS
10
98.6464
20
-127.639
11
98.6464
21
-126.925
0
LINE
8
BLACK
6
CONTINUOUS
10
98.6464
20
-126.925
11
98.7893
21
-126.354
0
LINE
8
BLACK
6
CONTINUOUS
10
98.7893
20
-126.354
11
98.9321
21
-126.068
0
LINE
8
BLACK
6
CONTINUOUS
10
98.9321
20
-126.068
11
99.075
21
-125.925
0
LINE
8
BLACK
6
CONTINUOUS
10
99.075
20
-125.925
11
99.3607
21
-125.782
0
LINE
8
BLACK
6
CONTINUOUS
10
103.218
20
-128.782
11
101.504
21
-128.782
0
LINE
8
BLACK
6
CONTINUOUS
10
102.361
20
-128.782
11
102.361
21
-125.782
0
LINE
8
BLACK
6
CONTINUOUS
10
102.361
20
-125.782
11
102.075
21
-126.211
0
LINE
8
BLACK
6
CONTINUOUS
10
102.075
20
-126.211
11
101.789
21
-126.496
0
LINE
8
BLACK
6
CONTINUOUS
10
101.789
20
-126.496
11
101.504
21
-126.639
0
LINE
8
BLACK
6
CONTINUOUS
10
105.789
20
-125.782
11
105.218
21
-125.782
0
LINE
8
BLACK
6
CONTINUOUS
10
105.218
20
-125.782
11
104.932
21
-125.925
0
LINE
8
BLACK
6
CONTINUOUS
10
104.932
20
-125.925
11
104.789
21
-126.068
0
LINE
8
BLACK
6
CONTINUOUS
10
104.789
20
-126.068
11
104.504
21
-126.496
0
LINE
8
BLACK
6
CONTINUOUS
10
104.504
20
-126.496
11
104.361
21
-127.068
0
LINE
8
BLACK
6
CONTINUOUS
10
104.361
20
-127.068
11
104.361
21
-128.211
0
LINE
8
BLACK
6
CONTINUOUS
10
104.361
20
-128.211
11
104.504
21
-128.496
0
LINE
8
BLACK
6
CONTINUOUS
10
104.504
20
-128.496
11
104.646
21
-128.639
0
LINE
8
BLACK
6
CONTINUOUS
10
104.646
20
-128.639
11
104.932
21
-128.782
0
LINE
8
BLACK
6
CONTINUOUS
10
104.932
20
-128.782
11
105.504
21
-128.782
0
LINE
8
BLACK
6
CONTINUOUS
10
105.504
20
-128.782
11
105.789
21
-128.639
0
LINE
8
BLACK
6
CONTINUOUS
10
105.789
20
-128.639
11
105.932
21
-128.496
0
LINE
8
BLACK
6
CONTINUOUS
10
105.932
20
-128.496
11
106.075
21
-128.211
0
LINE
8
BLACK
6
CONTINUOUS
10
106.075
20
-128.211
11
106.075
21
-127.496
0
LINE
8
BLACK
6
CONTINUOUS
10
106.075
20
-127.496
11
105.932
21
-127.211
0
LINE
8
BLACK
6
CONTINUOUS
10
105.932
20
-127.211
11
105.789
21
-127.068
0
LINE
8
BLACK
6
CONTINUOUS
10
105.789
20
-127.068
11
105.504
21
-126.925
0
LINE
8
BLACK
6
CONTINUOUS
10
105.504
20
-126.925
11
104.932
21
-126.925
0
LINE
8
BLACK
6
CONTINUOUS
10
104.932
20
-126.925
11
104.646
21
-127.068
0
LINE
8
BLACK
6
CONTINUOUS
10
104.646
20
-127.068
11
104.504
21
-127.211
0
LINE
8
BLACK
6
CONTINUOUS
10
104.504
20
-127.211
11
104.361
21
-127.496
0
LINE
8
BLACK
6
CONTINUOUS
10
107.218
20
-125.782
11
107.218
21
-126.354
0
LINE
8
BLACK
6
CONTINUOUS
10
108.361
20
-125.782
11
108.361
21
-126.354
0
LINE
8
BLACK
6
CONTINUOUS
10
112.789
20
-129.925
11
112.646
21
-129.782
0
LINE
8
BLACK
6
CONTINUOUS
10
112.646
20
-129.782
11
112.361
21
-129.354
0
LINE
8
BLACK
6
CONTINUOUS
10
112.361
20
-129.354
11
112.218
21
-129.068
0
LINE
8
BLACK
6
CONTINUOUS
10
112.218
20
-129.068
11
112.075
21
-128.639
0
LINE
8
BLACK
6
CONTINUOUS
10
112.075
20
-128.639
11
111.932
21
-127.925
0
LINE
8
BLACK
6
CONTINUOUS
10
111.932
20
-127.925
11
111.932
21
-127.354
0
LINE
8
BLACK
6
CONTINUOUS
10
111.932
20
-127.354
11
112.075
21
-126.639
0
LINE
8
BLACK
6
CONTINUOUS
10
112.075
20
-126.639
11
112.218
21
-126.211
0
LINE
8
BLACK
6
CONTINUOUS
10
112.218
20
-126.211
11
112.361
21
-125.925
0
LINE
8
BLACK
6
CONTINUOUS
10
112.361
20
-125.925
11
112.646
21
-125.496
0
LINE
8
BLACK
6
CONTINUOUS
10
112.646
20
-125.496
11
112.789
21
-125.354
0
LINE
8
BLACK
6
CONTINUOUS
10
113.789
20
-126.068
11
113.932
21
-125.925
0
LINE
8
BLACK
6
CONTINUOUS
10
113.932
20
-125.925
11
114.218
21
-125.782
0
LINE
8
BLACK
6
CONTINUOUS
10
114.218
20
-125.782
11
114.932
21
-125.782
0
LINE
8
BLACK
6
CONTINUOUS
10
114.932
20
-125.782
11
115.218
21
-125.925
0
LINE
8
BLACK
6
CONTINUOUS
10
115.218
20
-125.925
11
115.361
21
-126.068
0
LINE
8
BLACK
6
CONTINUOUS
10
115.361
20
-126.068
11
115.504
21
-126.354
0
LINE
8
BLACK
6
CONTINUOUS
10
115.504
20
-126.354
11
115.504
21
-126.639
0
LINE
8
BLACK
6
CONTINUOUS
10
115.504
20
-126.639
11
115.361
21
-127.068
0
LINE
8
BLACK
6
CONTINUOUS
10
115.361
20
-127.068
11
113.646
21
-128.782
0
LINE
8
BLACK
6
CONTINUOUS
10
113.646
20
-128.782
11
115.504
21
-128.782
0
LINE
8
BLACK
6
CONTINUOUS
10
118.218
20
-125.782
11
116.789
21
-125.782
0
LINE
8
BLACK
6
CONTINUOUS
10
116.789
20
-125.782
11
116.646
21
-127.211
0
LINE
8
BLACK
6
CONTINUOUS
10
116.646
20
-127.211
11
116.789
21
-127.068
0
LINE
8
BLACK
6
CONTINUOUS
10
116.789
20
-127.068
11
117.075
21
-126.925
0
LINE
8
BLACK
6
CONTINUOUS
10
117.075
20
-126.925
11
117.789
21
-126.925
0
LINE
8
BLACK
6
CONTINUOUS
10
117.789
20
-126.925
11
118.075
21
-127.068
0
LINE
8
BLACK
6
CONTINUOUS
10
118.075
20
-127.068
11
118.218
21
-127.211
0
LINE
8
BLACK
6
CONTINUOUS
10
118.218
20
-127.211
11
118.361
21
-127.496
0
LINE
8
BLACK
6
CONTINUOUS
10
118.361
20
-127.496
11
118.361
21
-128.211
0
LINE
8
BLACK
6
CONTINUOUS
10
118.361
20
-128.211
11
118.218
21
-128.496
0
LINE
8
BLACK
6
CONTINUOUS
10
118.218
20
-128.496
11
118.075
21
-128.639
0
LINE
8
BLACK
6
CONTINUOUS
10
118.075
20
-128.639
11
117.789
21
-128.782
0
LINE
8
BLACK
6
CONTINUOUS
10
117.789
20
-128.782
11
117.075
21
-128.782
0
LINE
8
BLACK
6
CONTINUOUS
10
117.075
20
-128.782
11
116.789
21
-128.639
0
LINE
8
BLACK
6
CONTINUOUS
10
116.789
20
-128.639
11
116.646
21
-128.496
0
LINE
8
BLACK
6
CONTINUOUS
10
121.932
20
-128.782
11
121.932
21
-125.782
0
LINE
8
BLACK
6
CONTINUOUS
10
123.218
20
-128.782
11
123.218
21
-127.211
0
LINE
8
BLACK
6
CONTINUOUS
10
123.218
20
-127.211
11
123.075
21
-126.925
0
LINE
8
BLACK
6
CONTINUOUS
10
123.075
20
-126.925
11
122.789
21
-126.782
0
LINE
8
BLACK
6
CONTINUOUS
10
122.789
20
-126.782
11
122.361
21
-126.782
0
LINE
8
BLACK
6
CONTINUOUS
10
122.361
20
-126.782
11
122.075
21
-126.925
0
LINE
8
BLACK
6
CONTINUOUS
10
122.075
20
-126.925
11
121.932
21
-127.068
0
LINE
8
BLACK
6
CONTINUOUS
10
125.075
20
-128.782
11
124.789
21
-128.639
0
LINE
8
BLACK
6
CONTINUOUS
10
124.789
20
-128.639
11
124.646
21
-128.496
0
LINE
8
BLACK
6
CONTINUOUS
10
124.646
20
-128.496
11
124.504
21
-128.211
0
LINE
8
BLACK
6
CONTINUOUS
10
124.504
20
-128.211
11
124.504
21
-127.354
0
LINE
8
BLACK
6
CONTINUOUS
10
124.504
20
-127.354
11
124.646
21
-127.068
0
LINE
8
BLACK
6
CONTINUOUS
10
124.646
20
-127.068
11
124.789
21
-126.925
0
LINE
8
BLACK
6
CONTINUOUS
10
124.789
20
-126.925
11
125.075
21
-126.782
0
LINE
8
BLACK
6
CONTINUOUS
10
125.075
20
-126.782
11
125.504
21
-126.782
0
LINE
8
BLACK
6
CONTINUOUS
10
125.504
20
-126.782
11
125.789
21
-126.925
0
LINE
8
BLACK
6
CONTINUOUS
10
125.789
20
-126.925
11
125.932
21
-127.068
0
LINE
8
BLACK
6
CONTINUOUS
10
125.932
20
-127.068
11
126.075
21
-127.354
0
LINE
8
BLACK
6
CONTINUOUS
10
126.075
20
-127.354
11
126.075
21
-128.211
0
LINE
8
BLACK
6
CONTINUOUS
10
126.075
20
-128.211
11
125.932
21
-128.496
0
LINE
8
BLACK
6
CONTINUOUS
10
125.932
20
-128.496
11
125.789
21
-128.639
0
LINE
8
BLACK
6
CONTINUOUS
10
125.789
20
-128.639
11
125.504
21
-128.782
0
LINE
8
BLACK
6
CONTINUOUS
10
125.504
20
-128.782
11
125.075
21
-128.782
0
LINE
8
BLACK
6
CONTINUOUS
10
127.789
20
-128.782
11
127.504
21
-128.639
0
LINE
8
BLACK
6
CONTINUOUS
10
127.504
20
-128.639
11
127.361
21
-128.354
0
LINE
8
BLACK
6
CONTINUOUS
10
127.361
20
-128.354
11
127.361
21
-125.782
0
LINE
8
BLACK
6
CONTINUOUS
10
130.075
20
-128.639
11
129.789
21
-128.782
0
LINE
8
BLACK
6
CONTINUOUS
10
129.789
20
-128.782
11
129.218
21
-128.782
0
LINE
8
BLACK
6
CONTINUOUS
10
129.218
20
-128.782
11
128.932
21
-128.639
0
LINE
8
BLACK
6
CONTINUOUS
10
128.932
20
-128.639
11
128.789
21
-128.354
0
LINE
8
BLACK
6
CONTINUOUS
10
128.789
20
-128.354
11
128.789
21
-127.211
0
LINE
8
BLACK
6
CONTINUOUS
10
128.789
20
-127.211
11
128.932
21
-126.925
0
LINE
8
BLACK
6
CONTINUOUS
10
128.932
20
-126.925
11
129.218
21
-126.782
0
LINE
8
BLACK
6
CONTINUOUS
10
129.218
20
-126.782
11
129.789
21
-126.782
0
LINE
8
BLACK
6
CONTINUOUS
10
129.789
20
-126.782
11
130.075
21
-126.925
0
LINE
8
BLACK
6
CONTINUOUS
10
130.075
20
-126.925
11
130.218
21
-127.211
0
LINE
8
BLACK
6
CONTINUOUS
10
130.218
20
-127.211
11
130.218
21
-127.496
0
LINE
8
BLACK
6
CONTINUOUS
10
130.218
20
-127.496
11
128.789
21
-127.782
0
LINE
8
BLACK
6
CONTINUOUS
10
131.361
20
-128.639
11
131.646
21
-128.782
0
LINE
8
BLACK
6
CONTINUOUS
10
131.646
20
-128.782
11
132.218
21
-128.782
0
LINE
8
BLACK
6
CONTINUOUS
10
132.218
20
-128.782
11
132.504
21
-128.639
0
LINE
8
BLACK
6
CONTINUOUS
10
132.504
20
-128.639
11
132.646
21
-128.354
0
LINE
8
BLACK
6
CONTINUOUS
10
132.646
20
-128.354
11
132.646
21
-128.211
0
LINE
8
BLACK
6
CONTINUOUS
10
132.646
20
-128.211
11
132.504
21
-127.925
0
LINE
8
BLACK
6
CONTINUOUS
10
132.504
20
-127.925
11
132.218
21
-127.782
0
LINE
8
BLACK
6
CONTINUOUS
10
132.218
20
-127.782
11
131.789
21
-127.782
0
LINE
8
BLACK
6
CONTINUOUS
10
131.789
20
-127.782
11
131.504
21
-127.639
0
LINE
8
BLACK
6
CONTINUOUS
10
131.504
20
-127.639
11
131.361
21
-127.354
0
LINE
8
BLACK
6
CONTINUOUS
10
131.361
20
-127.354
11
131.361
21
-127.211
0
LINE
8
BLACK
6
CONTINUOUS
10
131.361
20
-127.211
11
131.504
21
-126.925
0
LINE
8
BLACK
6
CONTINUOUS
10
131.504
20
-126.925
11
131.789
21
-126.782
0
LINE
8
BLACK
6
CONTINUOUS
10
131.789
20
-126.782
11
132.218
21
-126.782
0
LINE
8
BLACK
6
CONTINUOUS
10
132.218
20
-126.782
11
132.504
21
-126.925
0
LINE
8
BLACK
6
CONTINUOUS
10
133.646
20
-129.925
11
133.789
21
-129.782
0
LINE
8
BLACK
6
CONTINUOUS
10
133.789
20
-129.782
11
134.075
21
-129.354
0
LINE
8
BLACK
6
CONTINUOUS
10
134.075
20
-129.354
11
134.218
21
-129.068
0
LINE
8
BLACK
6
CONTINUOUS
10
134.218
20
-129.068
11
134.361
21
-128.639
0
LINE
8
BLACK
6
CONTINUOUS
10
134.361
20
-128.639
11
134.504
21
-127.925
0
LINE
8
BLACK
6
CONTINUOUS
10
134.504
20
-127.925
11
134.504
21
-127.354
0
LINE
8
BLACK
6
CONTINUOUS
10
134.504
20
-127.354
11
134.361
21
-126.639
0
LINE
8
BLACK
6
CONTINUOUS
10
134.361
20
-126.639
11
134.218
21
-126.211
0
LINE
8
BLACK
6
CONTINUOUS
10
134.218
20
-126.211
11
134.075
21
-125.925
0
LINE
8
BLACK
6
CONTINUOUS
10
134.075
20
-125.925
11
133.789
21
-125.496
0
LINE
8
BLACK
6
CONTINUOUS
10
133.789
20
-125.496
11
133.646
21
-125.354
0
CIRCLE
8
BLACK
10
65.6
20
-131.385
40
0.325
0
LINE
8
BLACK
6
CONTINUOUS
10
69.3607
20
-129.742
11
69.6464
21
-129.742
0
LINE
8
BLACK
6
CONTINUOUS
10
69.6464
20
-129.742
11
69.9321
21
-129.885
0
LINE
8
BLACK
6
CONTINUOUS
10
69.9321
20
-129.885
11
70.075
21
-130.028
0
LINE
8
BLACK
6
CONTINUOUS
10
70.075
20
-130.028
11
70.2179
21
-130.314
0
LINE
8
BLACK
6
CONTINUOUS
10
70.2179
20
-130.314
11
70.3607
21
-130.885
0
LINE
8
BLACK
6
CONTINUOUS
10
70.3607
20
-130.885
11
70.3607
21
-131.599
0
LINE
8
BLACK
6
CONTINUOUS
10
70.3607
20
-131.599
11
70.2179
21
-132.171
0
LINE
8
BLACK
6
CONTINUOUS
10
70.2179
20
-132.171
11
70.075
21
-132.456
0
LINE
8
BLACK
6
CONTINUOUS
10
70.075
20
-132.456
11
69.9321
21
-132.599
0
LINE
8
BLACK
6
CONTINUOUS
10
69.9321
20
-132.599
11
69.6464
21
-132.742
0
LINE
8
BLACK
6
CONTINUOUS
10
69.6464
20
-132.742
11
69.3607
21
-132.742
0
LINE
8
BLACK
6
CONTINUOUS
10
69.3607
20
-132.742
11
69.075
21
-132.599
0
LINE
8
BLACK
6
CONTINUOUS
10
69.075
20
-132.599
11
68.9321
21
-132.456
0
LINE
8
BLACK
6
CONTINUOUS
10
68.9321
20
-132.456
11
68.7893
21
-132.171
0
LINE
8
BLACK
6
CONTINUOUS
10
68.7893
20
-132.171
11
68.6464
21
-131.599
0
LINE
8
BLACK
6
CONTINUOUS
10
68.6464
20
-131.599
11
68.6464
21
-130.885
0
LINE
8
BLACK
6
CONTINUOUS
10
68.6464
20
-130.885
11
68.7893
21
-130.314
0
LINE
8
BLACK
6
CONTINUOUS
10
68.7893
20
-130.314
11
68.9321
21
-130.028
0
LINE
8
BLACK
6
CONTINUOUS
10
68.9321
20
-130.028
11
69.075
21
-129.885
0
LINE
8
BLACK
6
CONTINUOUS
10
69.075
20
-129.885
11
69.3607
21
-129.742
0
LINE
8
BLACK
6
CONTINUOUS
10
71.6464
20
-132.456
11
71.7893
21
-132.599
0
LINE
8
BLACK
6
CONTINUOUS
10
71.7893
20
-132.599
11
71.6464
21
-132.742
0
LINE
8
BLACK
6
CONTINUOUS
10
71.6464
20
-132.742
11
71.5036
21
-132.599
0
LINE
8
BLACK
6
CONTINUOUS
10
71.5036
20
-132.599
11
71.6464
21
-132.456
0
LINE
8
BLACK
6
CONTINUOUS
10
71.6464
20
-132.456
11
71.6464
21
-132.742
0
LINE
8
BLACK
6
CONTINUOUS
10
74.3607
20
-129.742
11
73.7893
21
-129.742
0
LINE
8
BLACK
6
CONTINUOUS
10
73.7893
20
-129.742
11
73.5036
21
-129.885
0
LINE
8
BLACK
6
CONTINUOUS
10
73.5036
20
-129.885
11
73.3607
21
-130.028
0
LINE
8
BLACK
6
CONTINUOUS
10
73.3607
20
-130.028
11
73.075
21
-130.456
0
LINE
8
BLACK
6
CONTINUOUS
10
73.075
20
-130.456
11
72.9321
21
-131.028
0
LINE
8
BLACK
6
CONTINUOUS
10
72.9321
20
-131.028
11
72.9321
21
-132.171
0
LINE
8
BLACK
6
CONTINUOUS
10
72.9321
20
-132.171
11
73.075
21
-132.456
0
LINE
8
BLACK
6
CONTINUOUS
10
73.075
20
-132.456
11
73.2179
21
-132.599
0
LINE
8
BLACK
6
CONTINUOUS
10
73.2179
20
-132.599
11
73.5036
21
-132.742
0
LINE
8
BLACK
6
CONTINUOUS
10
73.5036
20
-132.742
11
74.075
21
-132.742
0
LINE
8
BLACK
6
CONTINUOUS
10
74.075
20
-132.742
11
74.3607
21
-132.599
0
LINE
8
BLACK
6
CONTINUOUS
10
74.3607
20
-132.599
11
74.5036
21
-132.456
0
LINE
8
BLACK
6
CONTINUOUS
10
74.5036
20
-132.456
11
74.6464
21
-132.171
0
LINE
8
BLACK
6
CONTINUOUS
10
74.6464
20
-132.171
11
74.6464
21
-131.456
0
LINE
8
BLACK
6
CONTINUOUS
10
74.6464
20
-131.456
11
74.5036
21
-131.171
0
LINE
8
BLACK
6
CONTINUOUS
10
74.5036
20
-131.171
11
74.3607
21
-131.028
0
LINE
8
BLACK
6
CONTINUOUS
10
74.3607
20
-131.028
11
74.075
21
-130.885
0
LINE
8
BLACK
6
CONTINUOUS
10
74.075
20
-130.885
11
73.5036
21
-130.885
0
LINE
8
BLACK
6
CONTINUOUS
10
73.5036
20
-130.885
11
73.2179
21
-131.028
0
LINE
8
BLACK
6
CONTINUOUS
10
73.2179
20
-131.028
11
73.075
21
-131.171
0
LINE
8
BLACK
6
CONTINUOUS
10
73.075
20
-131.171
11
72.9321
21
-131.456
0
LINE
8
BLACK
6
CONTINUOUS
10
77.3607
20
-129.742
11
75.9321
21
-129.742
0
LINE
8
BLACK
6
CONTINUOUS
10
75.9321
20
-129.742
11
75.7893
21
-131.171
0
LINE
8
BLACK
6
CONTINUOUS
10
75.7893
20
-131.171
11
75.9321
21
-131.028
0
LINE
8
BLACK
6
CONTINUOUS
10
75.9321
20
-131.028
11
76.2179
21
-130.885
0
LINE
8
BLACK
6
CONTINUOUS
10
76.2179
20
-130.885
11
76.9321
21
-130.885
0
LINE
8
BLACK
6
CONTINUOUS
10
76.9321
20
-130.885
11
77.2179
21
-131.028
0
LINE
8
BLACK
6
CONTINUOUS
10
77.2179
20
-131.028
11
77.3607
21
-131.171
0
LINE
8
BLACK
6
CONTINUOUS
10
77.3607
20
-131.171
11
77.5036
21
-131.456
0
LINE
8
BLACK
6
CONTINUOUS
10
77.5036
20
-131.456
11
77.5036
21
-132.171
0
LINE
8
BLACK
6
CONTINUOUS
10
77.5036
20
-132.171
11
77.3607
21
-132.456
0
LINE
8
BLACK
6
CONTINUOUS
10
77.3607
20
-132.456
11
77.2179
21
-132.599
0
LINE
8
BLACK
6
CONTINUOUS
10
77.2179
20
-132.599
11
76.9321
21
-132.742
0
LINE
8
BLACK
6
CONTINUOUS
10
76.9321
20
-132.742
11
76.2179
21
-132.742
0
LINE
8
BLACK
6
CONTINUOUS
10
76.2179
20
-132.742
11
75.9321
21
-132.599
0
LINE
8
BLACK
6
CONTINUOUS
10
75.9321
20
-132.599
11
75.7893
21
-132.456
0
LINE
8
BLACK
6
CONTINUOUS
10
78.7893
20
-132.742
11
78.7893
21
-130.742
0
LINE
8
BLACK
6
CONTINUOUS
10
78.7893
20
-131.028
11
78.9321
21
-130.885
0
LINE
8
BLACK
6
CONTINUOUS
10
78.9321
20
-130.885
11
79.2179
21
-130.742
0
LINE
8
BLACK
6
CONTINUOUS
10
79.2179
20
-130.742
11
79.6464
21
-130.742
0
LINE
8
BLACK
6
CONTINUOUS
10
79.6464
20
-130.742
11
79.9321
21
-130.885
0
LINE
8
BLACK
6
CONTINUOUS
10
79.9321
20
-130.885
11
80.075
21
-131.171
0
LINE
8
BLACK
6
CONTINUOUS
10
80.075
20
-131.171
11
80.075
21
-132.742
0
LINE
8
BLACK
6
CONTINUOUS
10
80.075
20
-131.171
11
80.2179
21
-130.885
0
LINE
8
BLACK
6
CONTINUOUS
10
80.2179
20
-130.885
11
80.5036
21
-130.742
0
LINE
8
BLACK
6
CONTINUOUS
10
80.5036
20
-130.742
11
80.9321
21
-130.742
0
LINE
8
BLACK
6
CONTINUOUS
10
80.9321
20
-130.742
11
81.2179
21
-130.885
0
LINE
8
BLACK
6
CONTINUOUS
10
81.2179
20
-130.885
11
81.3607
21
-131.171
0
LINE
8
BLACK
6
CONTINUOUS
10
81.3607
20
-131.171
11
81.3607
21
-132.742
0
LINE
8
BLACK
6
CONTINUOUS
10
82.7893
20
-132.742
11
82.7893
21
-130.742
0
LINE
8
BLACK
6
CONTINUOUS
10
82.7893
20
-131.028
11
82.9321
21
-130.885
0
LINE
8
BLACK
6
CONTINUOUS
10
82.9321
20
-130.885
11
83.2179
21
-130.742
0
LINE
8
BLACK
6
CONTINUOUS
10
83.2179
20
-130.742
11
83.6464
21
-130.742
0
LINE
8
BLACK
6
CONTINUOUS
10
83.6464
20
-130.742
11
83.9321
21
-130.885
0
LINE
8
BLACK
6
CONTINUOUS
10
83.9321
20
-130.885
11
84.075
21
-131.171
0
LINE
8
BLACK
6
CONTINUOUS
10
84.075
20
-131.171
11
84.075
21
-132.742
0
LINE
8
BLACK
6
CONTINUOUS
10
84.075
20
-131.171
11
84.2179
21
-130.885
0
LINE
8
BLACK
6
CONTINUOUS
10
84.2179
20
-130.885
11
84.5036
21
-130.742
0
LINE
8
BLACK
6
CONTINUOUS
10
84.5036
20
-130.742
11
84.9321
21
-130.742
0
LINE
8
BLACK
6
CONTINUOUS
10
84.9321
20
-130.742
11
85.2179
21
-130.885
0
LINE
8
BLACK
6
CONTINUOUS
10
85.2179
20
-130.885
11
85.3607
21
-131.171
0
LINE
8
BLACK
6
CONTINUOUS
10
85.3607
20
-131.171
11
85.3607
21
-132.742
0
LINE
8
BLACK
6
CONTINUOUS
10
91.2179
20
-129.599
11
88.6464
21
-133.456
0
LINE
8
BLACK
6
CONTINUOUS
10
95.075
20
-129.742
11
95.3607
21
-129.742
0
LINE
8
BLACK
6
CONTINUOUS
10
95.3607
20
-129.742
11
95.6464
21
-129.885
0
LINE
8
BLACK
6
CONTINUOUS
10
95.6464
20
-129.885
11
95.7893
21
-130.028
0
LINE
8
BLACK
6
CONTINUOUS
10
95.7893
20
-130.028
11
95.9321
21
-130.314
0
LINE
8
BLACK
6
CONTINUOUS
10
95.9321
20
-130.314
11
96.075
21
-130.885
0
LINE
8
BLACK
6
CONTINUOUS
10
96.075
20
-130.885
11
96.075
21
-131.599
0
LINE
8
BLACK
6
CONTINUOUS
10
96.075
20
-131.599
11
95.9321
21
-132.171
0
LINE
8
BLACK
6
CONTINUOUS
10
95.9321
20
-132.171
11
95.7893
21
-132.456
0
LINE
8
BLACK
6
CONTINUOUS
10
95.7893
20
-132.456
11
95.6464
21
-132.599
0
LINE
8
BLACK
6
CONTINUOUS
10
95.6464
20
-132.599
11
95.3607
21
-132.742
0
LINE
8
BLACK
6
CONTINUOUS
10
95.3607
20
-132.742
11
95.075
21
-132.742
0
LINE
8
BLACK
6
CONTINUOUS
10
95.075
20
-132.742
11
94.7893
21
-132.599
0
LINE
8
BLACK
6
CONTINUOUS
10
94.7893
20
-132.599
11
94.6464
21
-132.456
0
LINE
8
BLACK
6
CONTINUOUS
10
94.6464
20
-132.456
11
94.5036
21
-132.171
0
LINE
8
BLACK
6
CONTINUOUS
10
94.5036
20
-132.171
11
94.3607
21
-131.599
0
LINE
8
BLACK
6
CONTINUOUS
10
94.3607
20
-131.599
11
94.3607
21
-130.885
0
LINE
8
BLACK
6
CONTINUOUS
10
94.3607
20
-130.885
11
94.5036
21
-130.314
0
LINE
8
BLACK
6
CONTINUOUS
10
94.5036
20
-130.314
11
94.6464
21
-130.028
0
LINE
8
BLACK
6
CONTINUOUS
10
94.6464
20
-130.028
11
94.7893
21
-129.885
0
LINE
8
BLACK
6
CONTINUOUS
10
94.7893
20
-129.885
11
95.075
21
-129.742
0
LINE
8
BLACK
6
CONTINUOUS
10
97.3607
20
-132.456
11
97.5036
21
-132.599
0
LINE
8
BLACK
6
CONTINUOUS
10
97.5036
20
-132.599
11
97.3607
21
-132.742
0
LINE
8
BLACK
6
CONTINUOUS
10
97.3607
20
-132.742
11
97.2179
21
-132.599
0
LINE
8
BLACK
6
CONTINUOUS
10
97.2179
20
-132.599
11
97.3607
21
-132.456
0
LINE
8
BLACK
6
CONTINUOUS
10
97.3607
20
-132.456
11
97.3607
21
-132.742
0
LINE
8
BLACK
6
CONTINUOUS
10
99.3607
20
-129.742
11
99.6464
21
-129.742
0
LINE
8
BLACK
6
CONTINUOUS
10
99.6464
20
-129.742
11
99.9321
21
-129.885
0
LINE
8
BLACK
6
CONTINUOUS
10
99.9321
20
-129.885
11
100.075
21
-130.028
0
LINE
8
BLACK
6
CONTINUOUS
10
100.075
20
-130.028
11
100.218
21
-130.314
0
LINE
8
BLACK
6
CONTINUOUS
10
100.218
20
-130.314
11
100.361
21
-130.885
0
LINE
8
BLACK
6
CONTINUOUS
10
100.361
20
-130.885
11
100.361
21
-131.599
0
LINE
8
BLACK
6
CONTINUOUS
10
100.361
20
-131.599
11
100.218
21
-132.171
0
LINE
8
BLACK
6
CONTINUOUS
10
100.218
20
-132.171
11
100.075
21
-132.456
0
LINE
8
BLACK
6
CONTINUOUS
10
100.075
20
-132.456
11
99.9321
21
-132.599
0
LINE
8
BLACK
6
CONTINUOUS
10
99.9321
20
-132.599
11
99.6464
21
-132.742
0
LINE
8
BLACK
6
CONTINUOUS
10
99.6464
20
-132.742
11
99.3607
21
-132.742
0
LINE
8
BLACK
6
CONTINUOUS
10
99.3607
20
-132.742
11
99.075
21
-132.599
0
LINE
8
BLACK
6
CONTINUOUS
10
99.075
20
-132.599
11
98.9321
21
-132.456
0
LINE
8
BLACK
6
CONTINUOUS
10
98.9321
20
-132.456
11
98.7893
21
-132.171
0
LINE
8
BLACK
6
CONTINUOUS
10
98.7893
20
-132.171
11
98.6464
21
-131.599
0
LINE
8
BLACK
6
CONTINUOUS
10
98.6464
20
-131.599
11
98.6464
21
-130.885
0
LINE
8
BLACK
6
CONTINUOUS
10
98.6464
20
-130.885
11
98.7893
21
-130.314
0
LINE
8
BLACK
6
CONTINUOUS
10
98.7893
20
-130.314
11
98.9321
21
-130.028
0
LINE
8
BLACK
6
CONTINUOUS
10
98.9321
20
-130.028
11
99.075
21
-129.885
0
LINE
8
BLACK
6
CONTINUOUS
10
99.075
20
-129.885
11
99.3607
21
-129.742
0
LINE
8
BLACK
6
CONTINUOUS
10
101.504
20
-130.028
11
101.646
21
-129.885
0
LINE
8
BLACK
6
CONTINUOUS
10
101.646
20
-129.885
11
101.932
21
-129.742
0
LINE
8
BLACK
6
CONTINUOUS
10
101.932
20
-129.742
11
102.646
21
-129.742
0
LINE
8
BLACK
6
CONTINUOUS
10
102.646
20
-129.742
11
102.932
21
-129.885
0
LINE
8
BLACK
6
CONTINUOUS
10
102.932
20
-129.885
11
103.075
21
-130.028
0
LINE
8
BLACK
6
CONTINUOUS
10
103.075
20
-130.028
11
103.218
21
-130.314
0
LINE
8
BLACK
6
CONTINUOUS
10
103.218
20
-130.314
11
103.218
21
-130.599
0
LINE
8
BLACK
6
CONTINUOUS
10
103.218
20
-130.599
11
103.075
21
-131.028
0
LINE
8
BLACK
6
CONTINUOUS
10
103.075
20
-131.028
11
101.361
21
-132.742
0
LINE
8
BLACK
6
CONTINUOUS
10
101.361
20
-132.742
11
103.218
21
-132.742
0
LINE
8
BLACK
6
CONTINUOUS
10
105.789
20
-129.742
11
105.218
21
-129.742
0
LINE
8
BLACK
6
CONTINUOUS
10
105.218
20
-129.742
11
104.932
21
-129.885
0
LINE
8
BLACK
6
CONTINUOUS
10
104.932
20
-129.885
11
104.789
21
-130.028
0
LINE
8
BLACK
6
CONTINUOUS
10
104.789
20
-130.028
11
104.504
21
-130.456
0
LINE
8
BLACK
6
CONTINUOUS
10
104.504
20
-130.456
11
104.361
21
-131.028
0
LINE
8
BLACK
6
CONTINUOUS
10
104.361
20
-131.028
11
104.361
21
-132.171
0
LINE
8
BLACK
6
CONTINUOUS
10
104.361
20
-132.171
11
104.504
21
-132.456
0
LINE
8
BLACK
6
CONTINUOUS
10
104.504
20
-132.456
11
104.646
21
-132.599
0
LINE
8
BLACK
6
CONTINUOUS
10
104.646
20
-132.599
11
104.932
21
-132.742
0
LINE
8
BLACK
6
CONTINUOUS
10
104.932
20
-132.742
11
105.504
21
-132.742
0
LINE
8
BLACK
6
CONTINUOUS
10
105.504
20
-132.742
11
105.789
21
-132.599
0
LINE
8
BLACK
6
CONTINUOUS
10
105.789
20
-132.599
11
105.932
21
-132.456
0
LINE
8
BLACK
6
CONTINUOUS
10
105.932
20
-132.456
11
106.075
21
-132.171
0
LINE
8
BLACK
6
CONTINUOUS
10
106.075
20
-132.171
11
106.075
21
-131.456
0
LINE
8
BLACK
6
CONTINUOUS
10
106.075
20
-131.456
11
105.932
21
-131.171
0
LINE
8
BLACK
6
CONTINUOUS
10
105.932
20
-131.171
11
105.789
21
-131.028
0
LINE
8
BLACK
6
CONTINUOUS
10
105.789
20
-131.028
11
105.504
21
-130.885
0
LINE
8
BLACK
6
CONTINUOUS
10
105.504
20
-130.885
11
104.932
21
-130.885
0
LINE
8
BLACK
6
CONTINUOUS
10
104.932
20
-130.885
11
104.646
21
-131.028
0
LINE
8
BLACK
6
CONTINUOUS
10
104.646
20
-131.028
11
104.504
21
-131.171
0
LINE
8
BLACK
6
CONTINUOUS
10
104.504
20
-131.171
11
104.361
21
-131.456
0
LINE
8
BLACK
6
CONTINUOUS
10
107.218
20
-129.742
11
107.218
21
-130.314
0
LINE
8
BLACK
6
CONTINUOUS
10
108.361
20
-129.742
11
108.361
21
-130.314
0
LINE
8
BLACK
6
CONTINUOUS
10
112.789
20
-133.885
11
112.646
21
-133.742
0
LINE
8
BLACK
6
CONTINUOUS
10
112.646
20
-133.742
11
112.361
21
-133.314
0
LINE
8
BLACK
6
CONTINUOUS
10
112.361
20
-133.314
11
112.218
21
-133.028
0
LINE
8
BLACK
6
CONTINUOUS
10
112.218
20
-133.028
11
112.075
21
-132.599
0
LINE
8
BLACK
6
CONTINUOUS
10
112.075
20
-132.599
11
111.932
21
-131.885
0
LINE
8
BLACK
6
CONTINUOUS
10
111.932
20
-131.885
11
111.932
21
-131.314
0
LINE
8
BLACK
6
CONTINUOUS
10
111.932
20
-131.314
11
112.075
21
-130.599
0
LINE
8
BLACK
6
CONTINUOUS
10
112.075
20
-130.599
11
112.218
21
-130.171
0
LINE
8
BLACK
6
CONTINUOUS
10
112.218
20
-130.171
11
112.361
21
-129.885
0
LINE
8
BLACK
6
CONTINUOUS
10
112.361
20
-129.885
11
112.646
21
-129.456
0
LINE
8
BLACK
6
CONTINUOUS
10
112.646
20
-129.456
11
112.789
21
-129.314
0
LINE
8
BLACK
6
CONTINUOUS
10
114.504
20
-129.742
11
114.789
21
-129.742
0
LINE
8
BLACK
6
CONTINUOUS
10
114.789
20
-129.742
11
115.075
21
-129.885
0
LINE
8
BLACK
6
CONTINUOUS
10
115.075
20
-129.885
11
115.218
21
-130.028
0
LINE
8
BLACK
6
CONTINUOUS
10
115.218
20
-130.028
11
115.361
21
-130.314
0
LINE
8
BLACK
6
CONTINUOUS
10
115.361
20
-130.314
11
115.504
21
-130.885
0
LINE
8
BLACK
6
CONTINUOUS
10
115.504
20
-130.885
11
115.504
21
-131.599
0
LINE
8
BLACK
6
CONTINUOUS
10
115.504
20
-131.599
11
115.361
21
-132.171
0
LINE
8
BLACK
6
CONTINUOUS
10
115.361
20
-132.171
11
115.218
21
-132.456
0
LINE
8
BLACK
6
CONTINUOUS
10
115.218
20
-132.456
11
115.075
21
-132.599
0
LINE
8
BLACK
6
CONTINUOUS
10
115.075
20
-132.599
11
114.789
21
-132.742
0
LINE
8
BLACK
6
CONTINUOUS
10
114.789
20
-132.742
11
114.504
21
-132.742
0
LINE
8
BLACK
6
CONTINUOUS
10
114.504
20
-132.742
11
114.218
21
-132.599
0
LINE
8
BLACK
6
CONTINUOUS
10
114.218
20
-132.599
11
114.075
21
-132.456
0
LINE
8
BLACK
6
CONTINUOUS
10
114.075
20
-132.456
11
113.932
21
-132.171
0
LINE
8
BLACK
6
CONTINUOUS
10
113.932
20
-132.171
11
113.789
21
-131.599
0
LINE
8
BLACK
6
CONTINUOUS
10
113.789
20
-131.599
11
113.789
21
-130.885
0
LINE
8
BLACK
6
CONTINUOUS
10
113.789
20
-130.885
11
113.932
21
-130.314
0
LINE
8
BLACK
6
CONTINUOUS
10
113.932
20
-130.314
11
114.075
21
-130.028
0
LINE
8
BLACK
6
CONTINUOUS
10
114.075
20
-130.028
11
114.218
21
-129.885
0
LINE
8
BLACK
6
CONTINUOUS
10
114.218
20
-129.885
11
114.504
21
-129.742
0
LINE
8
BLACK
6
CONTINUOUS
10
119.075
20
-132.742
11
119.075
21
-129.742
0
LINE
8
BLACK
6
CONTINUOUS
10
120.361
20
-132.742
11
120.361
21
-131.171
0
LINE
8
BLACK
6
CONTINUOUS
10
120.361
20
-131.171
11
120.218
21
-130.885
0
LINE
8
BLACK
6
CONTINUOUS
10
120.218
20
-130.885
11
119.932
21
-130.742
0
LINE
8
BLACK
6
CONTINUOUS
10
119.932
20
-130.742
11
119.504
21
-130.742
0
LINE
8
BLACK
6
CONTINUOUS
10
119.504
20
-130.742
11
119.218
21
-130.885
0
LINE
8
BLACK
6
CONTINUOUS
10
119.218
20
-130.885
11
119.075
21
-131.028
0
LINE
8
BLACK
6
CONTINUOUS
10
122.218
20
-132.742
11
121.932
21
-132.599
0
LINE
8
BLACK
6
CONTINUOUS
10
121.932
20
-132.599
11
121.789
21
-132.456
0
LINE
8
BLACK
6
CONTINUOUS
10
121.789
20
-132.456
11
121.646
21
-132.171
0
LINE
8
BLACK
6
CONTINUOUS
10
121.646
20
-132.171
11
121.646
21
-131.314
0
LINE
8
BLACK
6
CONTINUOUS
10
121.646
20
-131.314
11
121.789
21
-131.028
0
LINE
8
BLACK
6
CONTINUOUS
10
121.789
20
-131.028
11
121.932
21
-130.885
0
LINE
8
BLACK
6
CONTINUOUS
10
121.932
20
-130.885
11
122.218
21
-130.742
0
LINE
8
BLACK
6
CONTINUOUS
10
122.218
20
-130.742
11
122.646
21
-130.742
0
LINE
8
BLACK
6
CONTINUOUS
10
122.646
20
-130.742
11
122.932
21
-130.885
0
LINE
8
BLACK
6
CONTINUOUS
10
122.932
20
-130.885
11
123.075
21
-131.028
0
LINE
8
BLACK
6
CONTINUOUS
10
123.075
20
-131.028
11
123.218
21
-131.314
0
LINE
8
BLACK
6
CONTINUOUS
10
123.218
20
-131.314
11
123.218
21
-132.171
0
LINE
8
BLACK
6
CONTINUOUS
10
123.218
20
-132.171
11
123.075
21
-132.456
0
LINE
8
BLACK
6
CONTINUOUS
10
123.075
20
-132.456
11
122.932
21
-132.599
0
LINE
8
BLACK
6
CONTINUOUS
10
122.932
20
-132.599
11
122.646
21
-132.742
0
LINE
8
BLACK
6
CONTINUOUS
10
122.646
20
-132.742
11
122.218
21
-132.742
0
LINE
8
BLACK
6
CONTINUOUS
10
124.932
20
-132.742
11
124.646
21
-132.599
0
LINE
8
BLACK
6
CONTINUOUS
10
124.646
20
-132.599
11
124.504
21
-132.314
0
LINE
8
BLACK
6
CONTINUOUS
10
124.504
20
-132.314
11
124.504
21
-129.742
0
LINE
8
BLACK
6
CONTINUOUS
10
127.218
20
-132.599
11
126.932
21
-132.742
0
LINE
8
BLACK
6
CONTINUOUS
10
126.932
20
-132.742
11
126.361
21
-132.742
0
LINE
8
BLACK
6
CONTINUOUS
10
126.361
20
-132.742
11
126.075
21
-132.599
0
LINE
8
BLACK
6
CONTINUOUS
10
126.075
20
-132.599
11
125.932
21
-132.314
0
LINE
8
BLACK
6
CONTINUOUS
10
125.932
20
-132.314
11
125.932
21
-131.171
0
LINE
8
BLACK
6
CONTINUOUS
10
125.932
20
-131.171
11
126.075
21
-130.885
0
LINE
8
BLACK
6
CONTINUOUS
10
126.075
20
-130.885
11
126.361
21
-130.742
0
LINE
8
BLACK
6
CONTINUOUS
10
126.361
20
-130.742
11
126.932
21
-130.742
0
LINE
8
BLACK
6
CONTINUOUS
10
126.932
20
-130.742
11
127.218
21
-130.885
0
LINE
8
BLACK
6
CONTINUOUS
10
127.218
20
-130.885
11
127.361
21
-131.171
0
LINE
8
BLACK
6
CONTINUOUS
10
127.361
20
-131.171
11
127.361
21
-131.456
0
LINE
8
BLACK
6
CONTINUOUS
10
127.361
20
-131.456
11
125.932
21
-131.742
0
LINE
8
BLACK
6
CONTINUOUS
10
128.504
20
-132.599
11
128.789
21
-132.742
0
LINE
8
BLACK
6
CONTINUOUS
10
128.789
20
-132.742
11
129.361
21
-132.742
0
LINE
8
BLACK
6
CONTINUOUS
10
129.361
20
-132.742
11
129.646
21
-132.599
0
LINE
8
BLACK
6
CONTINUOUS
10
129.646
20
-132.599
11
129.789
21
-132.314
0
LINE
8
BLACK
6
CONTINUOUS
10
129.789
20
-132.314
11
129.789
21
-132.171
0
LINE
8
BLACK
6
CONTINUOUS
10
129.789
20
-132.171
11
129.646
21
-131.885
0
LINE
8
BLACK
6
CONTINUOUS
10
129.646
20
-131.885
11
129.361
21
-131.742
0
LINE
8
BLACK
6
CONTINUOUS
10
129.361
20
-131.742
11
128.932
21
-131.742
0
LINE
8
BLACK
6
CONTINUOUS
10
128.932
20
-131.742
11
128.646
21
-131.599
0
LINE
8
BLACK
6
CONTINUOUS
10
128.646
20
-131.599
11
128.504
21
-131.314
0
LINE
8
BLACK
6
CONTINUOUS
10
128.504
20
-131.314
11
128.504
21
-131.171
0
LINE
8
BLACK
6
CONTINUOUS
10
128.504
20
-131.171
11
128.646
21
-130.885
0
LINE
8
BLACK
6
CONTINUOUS
10
128.646
20
-130.885
11
128.932
21
-130.742
0
LINE
8
BLACK
6
CONTINUOUS
10
128.932
20
-130.742
11
129.361
21
-130.742
0
LINE
8
BLACK
6
CONTINUOUS
10
129.361
20
-130.742
11
129.646
21
-130.885
0
LINE
8
BLACK
6
CONTINUOUS
10
133.361
20
-131.599
11
135.646
21
-131.599
0
LINE
8
BLACK
6
CONTINUOUS
10
134.504
20
-132.742
11
134.504
21
-130.456
0
LINE
8
BLACK
6
CONTINUOUS
10
139.218
20
-130.028
11
139.361
21
-129.885
0
LINE
8
BLACK
6
CONTINUOUS
10
139.361
20
-129.885
11
139.646
21
-129.742
0
LINE
8
BLACK
6
CONTINUOUS
10
139.646
20
-129.742
11
140.361
21
-129.742
0
LINE
8
BLACK
6
CONTINUOUS
10
140.361
20
-129.742
11
140.646
21
-129.885
0
LINE
8
BLACK
6
CONTINUOUS
10
140.646
20
-129.885
11
140.789
21
-130.028
0
LINE
8
BLACK
6
CONTINUOUS
10
140.789
20
-130.028
11
140.932
21
-130.314
0
LINE
8
BLACK
6
CONTINUOUS
10
140.932
20
-130.314
11
140.932
21
-130.599
0
LINE
8
BLACK
6
CONTINUOUS
10
140.932
20
-130.599
11
140.789
21
-131.028
0
LINE
8
BLACK
6
CONTINUOUS
10
140.789
20
-131.028
11
139.075
21
-132.742
0
LINE
8
BLACK
6
CONTINUOUS
10
139.075
20
-132.742
11
140.932
21
-132.742
0
LINE
8
BLACK
6
CONTINUOUS
10
144.361
20
-132.599
11
144.646
21
-132.742
0
LINE
8
BLACK
6
CONTINUOUS
10
144.646
20
-132.742
11
145.218
21
-132.742
0
LINE
8
BLACK
6
CONTINUOUS
10
145.218
20
-132.742
11
145.504
21
-132.599
0
LINE
8
BLACK
6
CONTINUOUS
10
145.504
20
-132.599
11
145.646
21
-132.314
0
LINE
8
BLACK
6
CONTINUOUS
10
145.646
20
-132.314
11
145.646
21
-132.171
0
LINE
8
BLACK
6
CONTINUOUS
10
145.646
20
-132.171
11
145.504
21
-131.885
0
LINE
8
BLACK
6
CONTINUOUS
10
145.504
20
-131.885
11
145.218
21
-131.742
0
LINE
8
BLACK
6
CONTINUOUS
10
145.218
20
-131.742
11
144.789
21
-131.742
0
LINE
8
BLACK
6
CONTINUOUS
10
144.789
20
-131.742
11
144.504
21
-131.599
0
LINE
8
BLACK
6
CONTINUOUS
10
144.504
20
-131.599
11
144.361
21
-131.314
0
LINE
8
BLACK
6
CONTINUOUS
10
144.361
20
-131.314
11
144.361
21
-131.171
0
LINE
8
BLACK
6
CONTINUOUS
10
144.361
20
-131.171
11
144.504
21
-130.885
0
LINE
8
BLACK
6
CONTINUOUS
10
144.504
20
-130.885
11
144.789
21
-130.742
0
LINE
8
BLACK
6
CONTINUOUS
10
144.789
20
-130.742
11
145.218
21
-130.742
0
LINE
8
BLACK
6
CONTINUOUS
10
145.218
20
-130.742
11
145.504
21
-130.885
0
LINE
8
BLACK
6
CONTINUOUS
10
147.361
20
-132.742
11
147.075
21
-132.599
0
LINE
8
BLACK
6
CONTINUOUS
10
147.075
20
-132.599
11
146.932
21
-132.314
0
LINE
8
BLACK
6
CONTINUOUS
10
146.932
20
-132.314
11
146.932
21
-129.742
0
LINE
8
BLACK
6
CONTINUOUS
10
148.932
20
-132.742
11
148.646
21
-132.599
0
LINE
8
BLACK
6
CONTINUOUS
10
148.646
20
-132.599
11
148.504
21
-132.456
0
LINE
8
BLACK
6
CONTINUOUS
10
148.504
20
-132.456
11
148.361
21
-132.171
0
LINE
8
BLACK
6
CONTINUOUS
10
148.361
20
-132.171
11
148.361
21
-131.314
0
LINE
8
BLACK
6
CONTINUOUS
10
148.361
20
-131.314
11
148.504
21
-131.028
0
LINE
8
BLACK
6
CONTINUOUS
10
148.504
20
-131.028
11
148.646
21
-130.885
0
LINE
8
BLACK
6
CONTINUOUS
10
148.646
20
-130.885
11
148.932
21
-130.742
0
LINE
8
BLACK
6
CONTINUOUS
10
148.932
20
-130.742
11
149.361
21
-130.742
0
LINE
8
BLACK
6
CONTINUOUS
10
149.361
20
-130.742
11
149.646
21
-130.885
0
LINE
8
BLACK
6
CONTINUOUS
10
149.646
20
-130.885
11
149.789
21
-131.028
0
LINE
8
BLACK
6
CONTINUOUS
10
149.789
20
-131.028
11
149.932
21
-131.314
0
LINE
8
BLACK
6
CONTINUOUS
10
149.932
20
-131.314
11
149.932
21
-132.171
0
LINE
8
BLACK
6
CONTINUOUS
10
149.932
20
-132.171
11
149.789
21
-132.456
0
LINE
8
BLACK
6
CONTINUOUS
10
149.789
20
-132.456
11
149.646
21
-132.599
0
LINE
8
BLACK
6
CONTINUOUS
10
149.646
20
-132.599
11
149.361
21
-132.742
0
LINE
8
BLACK
6
CONTINUOUS
10
149.361
20
-132.742
11
148.932
21
-132.742
0
LINE
8
BLACK
6
CONTINUOUS
10
150.789
20
-130.742
11
151.932
21
-130.742
0
LINE
8
BLACK
6
CONTINUOUS
10
151.218
20
-129.742
11
151.218
21
-132.314
0
LINE
8
BLACK
6
CONTINUOUS
10
151.218
20
-132.314
11
151.361
21
-132.599
0
LINE
8
BLACK
6
CONTINUOUS
10
151.361
20
-132.599
11
151.646
21
-132.742
0
LINE
8
BLACK
6
CONTINUOUS
10
151.646
20
-132.742
11
151.932
21
-132.742
0
LINE
8
BLACK
6
CONTINUOUS
10
152.789
20
-132.599
11
153.075
21
-132.742
0
LINE
8
BLACK
6
CONTINUOUS
10
153.075
20
-132.742
11
153.646
21
-132.742
0
LINE
8
BLACK
6
CONTINUOUS
10
153.646
20
-132.742
11
153.932
21
-132.599
0
LINE
8
BLACK
6
CONTINUOUS
10
153.932
20
-132.599
11
154.075
21
-132.314
0
LINE
8
BLACK
6
CONTINUOUS
10
154.075
20
-132.314
11
154.075
21
-132.171
0
LINE
8
BLACK
6
CONTINUOUS
10
154.075
20
-132.171
11
153.932
21
-131.885
0
LINE
8
BLACK
6
CONTINUOUS
10
153.932
20
-131.885
11
153.646
21
-131.742
0
LINE
8
BLACK
6
CONTINUOUS
10
153.646
20
-131.742
11
153.218
21
-131.742
0
LINE
8
BLACK
6
CONTINUOUS
10
153.218
20
-131.742
11
152.932
21
-131.599
0
LINE
8
BLACK
6
CONTINUOUS
10
152.932
20
-131.599
11
152.789
21
-131.314
0
LINE
8
BLACK
6
CONTINUOUS
10
152.789
20
-131.314
11
152.789
21
-131.171
0
LINE
8
BLACK
6
CONTINUOUS
10
152.789
20
-131.171
11
152.932
21
-130.885
0
LINE
8
BLACK
6
CONTINUOUS
10
152.932
20
-130.885
11
153.218
21
-130.742
0
LINE
8
BLACK
6
CONTINUOUS
10
153.218
20
-130.742
11
153.646
21
-130.742
0
LINE
8
BLACK
6
CONTINUOUS
10
153.646
20
-130.742
11
153.932
21
-130.885
0
LINE
8
BLACK
6
CONTINUOUS
10
155.075
20
-133.885
11
155.218
21
-133.742
0
LINE
8
BLACK
6
CONTINUOUS
10
155.218
20
-133.742
11
155.504
21
-133.314
0
LINE
8
BLACK
6
CONTINUOUS
10
155.504
20
-133.314
11
155.646
21
-133.028
0
LINE
8
BLACK
6
CONTINUOUS
10
155.646
20
-133.028
11
155.789
21
-132.599
0
LINE
8
BLACK
6
CONTINUOUS
10
155.789
20
-132.599
11
155.932
21
-131.885
0
LINE
8
BLACK
6
CONTINUOUS
10
155.932
20
-131.885
11
155.932
21
-131.314
0
LINE
8
BLACK
6
CONTINUOUS
10
155.932
20
-131.314
11
155.789
21
-130.599
0
LINE
8
BLACK
6
CONTINUOUS
10
155.789
20
-130.599
11
155.646
21
-130.171
0
LINE
8
BLACK
6
CONTINUOUS
10
155.646
20
-130.171
11
155.504
21
-129.885
0
LINE
8
BLACK
6
CONTINUOUS
10
155.504
20
-129.885
11
155.218
21
-129.456
0
LINE
8
BLACK
6
CONTINUOUS
10
155.218
20
-129.456
11
155.075
21
-129.314
0
LINE
8
BLACK
6
CONTINUOUS
10
65.575
20
-134.995
11
65.575
21
-135.695
0
LINE
8
BLACK
6
CONTINUOUS
10
65.225
20
-135.345
11
65.925
21
-135.345
0
LINE
8
BLACK
6
CONTINUOUS
10
69.3607
20
-133.702
11
69.6464
21
-133.702
0
LINE
8
BLACK
6
CONTINUOUS
10
69.6464
20
-133.702
11
69.9321
21
-133.845
0
LINE
8
BLACK
6
CONTINUOUS
10
69.9321
20
-133.845
11
70.075
21
-133.988
0
LINE
8
BLACK
6
CONTINUOUS
10
70.075
20
-133.988
11
70.2179
21
-134.274
0
LINE
8
BLACK
6
CONTINUOUS
10
70.2179
20
-134.274
11
70.3607
21
-134.845
0
LINE
8
BLACK
6
CONTINUOUS
10
70.3607
20
-134.845
11
70.3607
21
-135.559
0
LINE
8
BLACK
6
CONTINUOUS
10
70.3607
20
-135.559
11
70.2179
21
-136.131
0
LINE
8
BLACK
6
CONTINUOUS
10
70.2179
20
-136.131
11
70.075
21
-136.416
0
LINE
8
BLACK
6
CONTINUOUS
10
70.075
20
-136.416
11
69.9321
21
-136.559
0
LINE
8
BLACK
6
CONTINUOUS
10
69.9321
20
-136.559
11
69.6464
21
-136.702
0
LINE
8
BLACK
6
CONTINUOUS
10
69.6464
20
-136.702
11
69.3607
21
-136.702
0
LINE
8
BLACK
6
CONTINUOUS
10
69.3607
20
-136.702
11
69.075
21
-136.559
0
LINE
8
BLACK
6
CONTINUOUS
10
69.075
20
-136.559
11
68.9321
21
-136.416
0
LINE
8
BLACK
6
CONTINUOUS
10
68.9321
20
-136.416
11
68.7893
21
-136.131
0
LINE
8
BLACK
6
CONTINUOUS
10
68.7893
20
-136.131
11
68.6464
21
-135.559
0
LINE
8
BLACK
6
CONTINUOUS
10
68.6464
20
-135.559
11
68.6464
21
-134.845
0
LINE
8
BLACK
6
CONTINUOUS
10
68.6464
20
-134.845
11
68.7893
21
-134.274
0
LINE
8
BLACK
6
CONTINUOUS
10
68.7893
20
-134.274
11
68.9321
21
-133.988
0
LINE
8
BLACK
6
CONTINUOUS
10
68.9321
20
-133.988
11
69.075
21
-133.845
0
LINE
8
BLACK
6
CONTINUOUS
10
69.075
20
-133.845
11
69.3607
21
-133.702
0
LINE
8
BLACK
6
CONTINUOUS
10
71.6464
20
-136.416
11
71.7893
21
-136.559
0
LINE
8
BLACK
6
CONTINUOUS
10
71.7893
20
-136.559
11
71.6464
21
-136.702
0
LINE
8
BLACK
6
CONTINUOUS
10
71.6464
20
-136.702
11
71.5036
21
-136.559
0
LINE
8
BLACK
6
CONTINUOUS
10
71.5036
20
-136.559
11
71.6464
21
-136.416
0
LINE
8
BLACK
6
CONTINUOUS
10
71.6464
20
-136.416
11
71.6464
21
-136.702
0
LINE
8
BLACK
6
CONTINUOUS
10
72.7893
20
-133.702
11
74.7893
21
-133.702
0
LINE
8
BLACK
6
CONTINUOUS
10
74.7893
20
-133.702
11
73.5036
21
-136.702
0
LINE
8
BLACK
6
CONTINUOUS
10
76.5036
20
-133.702
11
76.7893
21
-133.702
0
LINE
8
BLACK
6
CONTINUOUS
10
76.7893
20
-133.702
11
77.075
21
-133.845
0
LINE
8
BLACK
6
CONTINUOUS
10
77.075
20
-133.845
11
77.2179
21
-133.988
0
LINE
8
BLACK
6
CONTINUOUS
10
77.2179
20
-133.988
11
77.3607
21
-134.274
0
LINE
8
BLACK
6
CONTINUOUS
10
77.3607
20
-134.274
11
77.5036
21
-134.845
0
LINE
8
BLACK
6
CONTINUOUS
10
77.5036
20
-134.845
11
77.5036
21
-135.559
0
LINE
8
BLACK
6
CONTINUOUS
10
77.5036
20
-135.559
11
77.3607
21
-136.131
0
LINE
8
BLACK
6
CONTINUOUS
10
77.3607
20
-136.131
11
77.2179
21
-136.416
0
LINE
8
BLACK
6
CONTINUOUS
10
77.2179
20
-136.416
11
77.075
21
-136.559
0
LINE
8
BLACK
6
CONTINUOUS
10
77.075
20
-136.559
11
76.7893
21
-136.702
0
LINE
8
BLACK
6
CONTINUOUS
10
76.7893
20
-136.702
11
76.5036
21
-136.702
0
LINE
8
BLACK
6
CONTINUOUS
10
76.5036
20
-136.702
11
76.2179
21
-136.559
0
LINE
8
BLACK
6
CONTINUOUS
10
76.2179
20
-136.559
11
76.075
21
-136.416
0
LINE
8
BLACK
6
CONTINUOUS
10
76.075
20
-136.416
11
75.9321
21
-136.131
0
LINE
8
BLACK
6
CONTINUOUS
10
75.9321
20
-136.131
11
75.7893
21
-135.559
0
LINE
8
BLACK
6
CONTINUOUS
10
75.7893
20
-135.559
11
75.7893
21
-134.845
0
LINE
8
BLACK
6
CONTINUOUS
10
75.7893
20
-134.845
11
75.9321
21
-134.274
0
LINE
8
BLACK
6
CONTINUOUS
10
75.9321
20
-134.274
11
76.075
21
-133.988
0
LINE
8
BLACK
6
CONTINUOUS
10
76.075
20
-133.988
11
76.2179
21
-133.845
0
LINE
8
BLACK
6
CONTINUOUS
10
76.2179
20
-133.845
11
76.5036
21
-133.702
0
LINE
8
BLACK
6
CONTINUOUS
10
78.7893
20
-136.702
11
78.7893
21
-134.702
0
LINE
8
BLACK
6
CONTINUOUS
10
78.7893
20
-134.988
11
78.9321
21
-134.845
0
LINE
8
BLACK
6
CONTINUOUS
10
78.9321
20
-134.845
11
79.2179
21
-134.702
0
LINE
8
BLACK
6
CONTINUOUS
10
79.2179
20
-134.702
11
79.6464
21
-134.702
0
LINE
8
BLACK
6
CONTINUOUS
10
79.6464
20
-134.702
11
79.9321
21
-134.845
0
LINE
8
BLACK
6
CONTINUOUS
10
79.9321
20
-134.845
11
80.075
21
-135.131
0
LINE
8
BLACK
6
CONTINUOUS
10
80.075
20
-135.131
11
80.075
21
-136.702
0
LINE
8
BLACK
6
CONTINUOUS
10
80.075
20
-135.131
11
80.2179
21
-134.845
0
LINE
8
BLACK
6
CONTINUOUS
10
80.2179
20
-134.845
11
80.5036
21
-134.702
0
LINE
8
BLACK
6
CONTINUOUS
10
80.5036
20
-134.702
11
80.9321
21
-134.702
0
LINE
8
BLACK
6
CONTINUOUS
10
80.9321
20
-134.702
11
81.2179
21
-134.845
0
LINE
8
BLACK
6
CONTINUOUS
10
81.2179
20
-134.845
11
81.3607
21
-135.131
0
LINE
8
BLACK
6
CONTINUOUS
10
81.3607
20
-135.131
11
81.3607
21
-136.702
0
LINE
8
BLACK
6
CONTINUOUS
10
82.7893
20
-136.702
11
82.7893
21
-134.702
0
LINE
8
BLACK
6
CONTINUOUS
10
82.7893
20
-134.988
11
82.9321
21
-134.845
0
LINE
8
BLACK
6
CONTINUOUS
10
82.9321
20
-134.845
11
83.2179
21
-134.702
0
LINE
8
BLACK
6
CONTINUOUS
10
83.2179
20
-134.702
11
83.6464
21
-134.702
0
LINE
8
BLACK
6
CONTINUOUS
10
83.6464
20
-134.702
11
83.9321
21
-134.845
0
LINE
8
BLACK
6
CONTINUOUS
10
83.9321
20
-134.845
11
84.075
21
-135.131
0
LINE
8
BLACK
6
CONTINUOUS
10
84.075
20
-135.131
11
84.075
21
-136.702
0
LINE
8
BLACK
6
CONTINUOUS
10
84.075
20
-135.131
11
84.2179
21
-134.845
0
LINE
8
BLACK
6
CONTINUOUS
10
84.2179
20
-134.845
11
84.5036
21
-134.702
0
LINE
8
BLACK
6
CONTINUOUS
10
84.5036
20
-134.702
11
84.9321
21
-134.702
0
LINE
8
BLACK
6
CONTINUOUS
10
84.9321
20
-134.702
11
85.2179
21
-134.845
0
LINE
8
BLACK
6
CONTINUOUS
10
85.2179
20
-134.845
11
85.3607
21
-135.131
0
LINE
8
BLACK
6
CONTINUOUS
10
85.3607
20
-135.131
11
85.3607
21
-136.702
0
LINE
8
BLACK
6
CONTINUOUS
10
91.2179
20
-133.559
11
88.6464
21
-137.416
0
LINE
8
BLACK
6
CONTINUOUS
10
95.075
20
-133.702
11
95.3607
21
-133.702
0
LINE
8
BLACK
6
CONTINUOUS
10
95.3607
20
-133.702
11
95.6464
21
-133.845
0
LINE
8
BLACK
6
CONTINUOUS
10
95.6464
20
-133.845
11
95.7893
21
-133.988
0
LINE
8
BLACK
6
CONTINUOUS
10
95.7893
20
-133.988
11
95.9321
21
-134.274
0
LINE
8
BLACK
6
CONTINUOUS
10
95.9321
20
-134.274
11
96.075
21
-134.845
0
LINE
8
BLACK
6
CONTINUOUS
10
96.075
20
-134.845
11
96.075
21
-135.559
0
LINE
8
BLACK
6
CONTINUOUS
10
96.075
20
-135.559
11
95.9321
21
-136.131
0
LINE
8
BLACK
6
CONTINUOUS
10
95.9321
20
-136.131
11
95.7893
21
-136.416
0
LINE
8
BLACK
6
CONTINUOUS
10
95.7893
20
-136.416
11
95.6464
21
-136.559
0
LINE
8
BLACK
6
CONTINUOUS
10
95.6464
20
-136.559
11
95.3607
21
-136.702
0
LINE
8
BLACK
6
CONTINUOUS
10
95.3607
20
-136.702
11
95.075
21
-136.702
0
LINE
8
BLACK
6
CONTINUOUS
10
95.075
20
-136.702
11
94.7893
21
-136.559
0
LINE
8
BLACK
6
CONTINUOUS
10
94.7893
20
-136.559
11
94.6464
21
-136.416
0
LINE
8
BLACK
6
CONTINUOUS
10
94.6464
20
-136.416
11
94.5036
21
-136.131
0
LINE
8
BLACK
6
CONTINUOUS
10
94.5036
20
-136.131
11
94.3607
21
-135.559
0
LINE
8
BLACK
6
CONTINUOUS
10
94.3607
20
-135.559
11
94.3607
21
-134.845
0
LINE
8
BLACK
6
CONTINUOUS
10
94.3607
20
-134.845
11
94.5036
21
-134.274
0
LINE
8
BLACK
6
CONTINUOUS
10
94.5036
20
-134.274
11
94.6464
21
-133.988
0
LINE
8
BLACK
6
CONTINUOUS
10
94.6464
20
-133.988
11
94.7893
21
-133.845
0
LINE
8
BLACK
6
CONTINUOUS
10
94.7893
20
-133.845
11
95.075
21
-133.702
0
LINE
8
BLACK
6
CONTINUOUS
10
97.3607
20
-136.416
11
97.5036
21
-136.559
0
LINE
8
BLACK
6
CONTINUOUS
10
97.5036
20
-136.559
11
97.3607
21
-136.702
0
LINE
8
BLACK
6
CONTINUOUS
10
97.3607
20
-136.702
11
97.2179
21
-136.559
0
LINE
8
BLACK
6
CONTINUOUS
10
97.2179
20
-136.559
11
97.3607
21
-136.416
0
LINE
8
BLACK
6
CONTINUOUS
10
97.3607
20
-136.416
11
97.3607
21
-136.702
0
LINE
8
BLACK
6
CONTINUOUS
10
99.3607
20
-133.702
11
99.6464
21
-133.702
0
LINE
8
BLACK
6
CONTINUOUS
10
99.6464
20
-133.702
11
99.9321
21
-133.845
0
LINE
8
BLACK
6
CONTINUOUS
10
99.9321
20
-133.845
11
100.075
21
-133.988
0
LINE
8
BLACK
6
CONTINUOUS
10
100.075
20
-133.988
11
100.218
21
-134.274
0
LINE
8
BLACK
6
CONTINUOUS
10
100.218
20
-134.274
11
100.361
21
-134.845
0
LINE
8
BLACK
6
CONTINUOUS
10
100.361
20
-134.845
11
100.361
21
-135.559
0
LINE
8
BLACK
6
CONTINUOUS
10
100.361
20
-135.559
11
100.218
21
-136.131
0
LINE
8
BLACK
6
CONTINUOUS
10
100.218
20
-136.131
11
100.075
21
-136.416
0
LINE
8
BLACK
6
CONTINUOUS
10
100.075
20
-136.416
11
99.9321
21
-136.559
0
LINE
8
BLACK
6
CONTINUOUS
10
99.9321
20
-136.559
11
99.6464
21
-136.702
0
LINE
8
BLACK
6
CONTINUOUS
10
99.6464
20
-136.702
11
99.3607
21
-136.702
0
LINE
8
BLACK
6
CONTINUOUS
10
99.3607
20
-136.702
11
99.075
21
-136.559
0
LINE
8
BLACK
6
CONTINUOUS
10
99.075
20
-136.559
11
98.9321
21
-136.416
0
LINE
8
BLACK
6
CONTINUOUS
10
98.9321
20
-136.416
11
98.7893
21
-136.131
0
LINE
8
BLACK
6
CONTINUOUS
10
98.7893
20
-136.131
11
98.6464
21
-135.559
0
LINE
8
BLACK
6
CONTINUOUS
10
98.6464
20
-135.559
11
98.6464
21
-134.845
0
LINE
8
BLACK
6
CONTINUOUS
10
98.6464
20
-134.845
11
98.7893
21
-134.274
0
LINE
8
BLACK
6
CONTINUOUS
10
98.7893
20
-134.274
11
98.9321
21
-133.988
0
LINE
8
BLACK
6
CONTINUOUS
10
98.9321
20
-133.988
11
99.075
21
-133.845
0
LINE
8
BLACK
6
CONTINUOUS
10
99.075
20
-133.845
11
99.3607
21
-133.702
0
LINE
8
BLACK
6
CONTINUOUS
10
101.504
20
-133.988
11
101.646
21
-133.845
0
LINE
8
BLACK
6
CONTINUOUS
10
101.646
20
-133.845
11
101.932
21
-133.702
0
LINE
8
BLACK
6
CONTINUOUS
10
101.932
20
-133.702
11
102.646
21
-133.702
0
LINE
8
BLACK
6
CONTINUOUS
10
102.646
20
-133.702
11
102.932
21
-133.845
0
LINE
8
BLACK
6
CONTINUOUS
10
102.932
20
-133.845
11
103.075
21
-133.988
0
LINE
8
BLACK
6
CONTINUOUS
10
103.075
20
-133.988
11
103.218
21
-134.274
0
LINE
8
BLACK
6
CONTINUOUS
10
103.218
20
-134.274
11
103.218
21
-134.559
0
LINE
8
BLACK
6
CONTINUOUS
10
103.218
20
-134.559
11
103.075
21
-134.988
0
LINE
8
BLACK
6
CONTINUOUS
10
103.075
20
-134.988
11
101.361
21
-136.702
0
LINE
8
BLACK
6
CONTINUOUS
10
101.361
20
-136.702
11
103.218
21
-136.702
0
LINE
8
BLACK
6
CONTINUOUS
10
104.932
20
-134.988
11
104.646
21
-134.845
0
LINE
8
BLACK
6
CONTINUOUS
10
104.646
20
-134.845
11
104.504
21
-134.702
0
LINE
8
BLACK
6
CONTINUOUS
10
104.504
20
-134.702
11
104.361
21
-134.416
0
LINE
8
BLACK
6
CONTINUOUS
10
104.361
20
-134.416
11
104.361
21
-134.274
0
LINE
8
BLACK
6
CONTINUOUS
10
104.361
20
-134.274
11
104.504
21
-133.988
0
LINE
8
BLACK
6
CONTINUOUS
10
104.504
20
-133.988
11
104.646
21
-133.845
0
LINE
8
BLACK
6
CONTINUOUS
10
104.646
20
-133.845
11
104.932
21
-133.702
0
LINE
8
BLACK
6
CONTINUOUS
10
104.932
20
-133.702
11
105.504
21
-133.702
0
LINE
8
BLACK
6
CONTINUOUS
10
105.504
20
-133.702
11
105.789
21
-133.845
0
LINE
8
BLACK
6
CONTINUOUS
10
105.789
20
-133.845
11
105.932
21
-133.988
0
LINE
8
BLACK
6
CONTINUOUS
10
105.932
20
-133.988
11
106.075
21
-134.274
0
LINE
8
BLACK
6
CONTINUOUS
10
106.075
20
-134.274
11
106.075
21
-134.416
0
LINE
8
BLACK
6
CONTINUOUS
10
106.075
20
-134.416
11
105.932
21
-134.702
0
LINE
8
BLACK
6
CONTINUOUS
10
105.932
20
-134.702
11
105.789
21
-134.845
0
LINE
8
BLACK
6
CONTINUOUS
10
105.789
20
-134.845
11
105.504
21
-134.988
0
LINE
8
BLACK
6
CONTINUOUS
10
105.504
20
-134.988
11
104.932
21
-134.988
0
LINE
8
BLACK
6
CONTINUOUS
10
104.932
20
-134.988
11
104.646
21
-135.131
0
LINE
8
BLACK
6
CONTINUOUS
10
104.646
20
-135.131
11
104.504
21
-135.274
0
LINE
8
BLACK
6
CONTINUOUS
10
104.504
20
-135.274
11
104.361
21
-135.559
0
LINE
8
BLACK
6
CONTINUOUS
10
104.361
20
-135.559
11
104.361
21
-136.131
0
LINE
8
BLACK
6
CONTINUOUS
10
104.361
20
-136.131
11
104.504
21
-136.416
0
LINE
8
BLACK
6
CONTINUOUS
10
104.504
20
-136.416
11
104.646
21
-136.559
0
LINE
8
BLACK
6
CONTINUOUS
10
104.646
20
-136.559
11
104.932
21
-136.702
0
LINE
8
BLACK
6
CONTINUOUS
10
104.932
20
-136.702
11
105.504
21
-136.702
0
LINE
8
BLACK
6
CONTINUOUS
10
105.504
20
-136.702
11
105.789
21
-136.559
0
LINE
8
BLACK
6
CONTINUOUS
10
105.789
20
-136.559
11
105.932
21
-136.416
0
LINE
8
BLACK
6
CONTINUOUS
10
105.932
20
-136.416
11
106.075
21
-136.131
0
LINE
8
BLACK
6
CONTINUOUS
10
106.075
20
-136.131
11
106.075
21
-135.559
0
LINE
8
BLACK
6
CONTINUOUS
10
106.075
20
-135.559
11
105.932
21
-135.274
0
LINE
8
BLACK
6
CONTINUOUS
10
105.932
20
-135.274
11
105.789
21
-135.131
0
LINE
8
BLACK
6
CONTINUOUS
10
105.789
20
-135.131
11
105.504
21
-134.988
0
LINE
8
BLACK
6
CONTINUOUS
10
107.218
20
-133.702
11
107.218
21
-134.274
0
LINE
8
BLACK
6
CONTINUOUS
10
108.361
20
-133.702
11
108.361
21
-134.274
0
LINE
8
BLACK
6
CONTINUOUS
10
112.789
20
-137.845
11
112.646
21
-137.702
0
LINE
8
BLACK
6
CONTINUOUS
10
112.646
20
-137.702
11
112.361
21
-137.274
0
LINE
8
BLACK
6
CONTINUOUS
10
112.361
20
-137.274
11
112.218
21
-136.988
0
LINE
8
BLACK
6
CONTINUOUS
10
112.218
20
-136.988
11
112.075
21
-136.559
0
LINE
8
BLACK
6
CONTINUOUS
10
112.075
20
-136.559
11
111.932
21
-135.845
0
LINE
8
BLACK
6
CONTINUOUS
10
111.932
20
-135.845
11
111.932
21
-135.274
0
LINE
8
BLACK
6
CONTINUOUS
10
111.932
20
-135.274
11
112.075
21
-134.559
0
LINE
8
BLACK
6
CONTINUOUS
10
112.075
20
-134.559
11
112.218
21
-134.131
0
LINE
8
BLACK
6
CONTINUOUS
10
112.218
20
-134.131
11
112.361
21
-133.845
0
LINE
8
BLACK
6
CONTINUOUS
10
112.361
20
-133.845
11
112.646
21
-133.416
0
LINE
8
BLACK
6
CONTINUOUS
10
112.646
20
-133.416
11
112.789
21
-133.274
0
LINE
8
BLACK
6
CONTINUOUS
10
114.504
20
-133.702
11
114.789
21
-133.702
0
LINE
8
BLACK
6
CONTINUOUS
10
114.789
20
-133.702
11
115.075
21
-133.845
0
LINE
8
BLACK
6
CONTINUOUS
10
115.075
20
-133.845
11
115.218
21
-133.988
0
LINE
8
BLACK
6
CONTINUOUS
10
115.218
20
-133.988
11
115.361
21
-134.274
0
LINE
8
BLACK
6
CONTINUOUS
10
115.361
20
-134.274
11
115.504
21
-134.845
0
LINE
8
BLACK
6
CONTINUOUS
10
115.504
20
-134.845
11
115.504
21
-135.559
0
LINE
8
BLACK
6
CONTINUOUS
10
115.504
20
-135.559
11
115.361
21
-136.131
0
LINE
8
BLACK
6
CONTINUOUS
10
115.361
20
-136.131
11
115.218
21
-136.416
0
LINE
8
BLACK
6
CONTINUOUS
10
115.218
20
-136.416
11
115.075
21
-136.559
0
LINE
8
BLACK
6
CONTINUOUS
10
115.075
20
-136.559
11
114.789
21
-136.702
0
LINE
8
BLACK
6
CONTINUOUS
10
114.789
20
-136.702
11
114.504
21
-136.702
0
LINE
8
BLACK
6
CONTINUOUS
10
114.504
20
-136.702
11
114.218
21
-136.559
0
LINE
8
BLACK
6
CONTINUOUS
10
114.218
20
-136.559
11
114.075
21
-136.416
0
LINE
8
BLACK
6
CONTINUOUS
10
114.075
20
-136.416
11
113.932
21
-136.131
0
LINE
8
BLACK
6
CONTINUOUS
10
113.932
20
-136.131
11
113.789
21
-135.559
0
LINE
8
BLACK
6
CONTINUOUS
10
113.789
20
-135.559
11
113.789
21
-134.845
0
LINE
8
BLACK
6
CONTINUOUS
10
113.789
20
-134.845
11
113.932
21
-134.274
0
LINE
8
BLACK
6
CONTINUOUS
10
113.932
20
-134.274
11
114.075
21
-133.988
0
LINE
8
BLACK
6
CONTINUOUS
10
114.075
20
-133.988
11
114.218
21
-133.845
0
LINE
8
BLACK
6
CONTINUOUS
10
114.218
20
-133.845
11
114.504
21
-133.702
0
LINE
8
BLACK
6
CONTINUOUS
10
119.075
20
-136.702
11
119.075
21
-133.702
0
LINE
8
BLACK
6
CONTINUOUS
10
120.361
20
-136.702
11
120.361
21
-135.131
0
LINE
8
BLACK
6
CONTINUOUS
10
120.361
20
-135.131
11
120.218
21
-134.845
0
LINE
8
BLACK
6
CONTINUOUS
10
120.218
20
-134.845
11
119.932
21
-134.702
0
LINE
8
BLACK
6
CONTINUOUS
10
119.932
20
-134.702
11
119.504
21
-134.702
0
LINE
8
BLACK
6
CONTINUOUS
10
119.504
20
-134.702
11
119.218
21
-134.845
0
LINE
8
BLACK
6
CONTINUOUS
10
119.218
20
-134.845
11
119.075
21
-134.988
0
LINE
8
BLACK
6
CONTINUOUS
10
122.218
20
-136.702
11
121.932
21
-136.559
0
LINE
8
BLACK
6
CONTINUOUS
10
121.932
20
-136.559
11
121.789
21
-136.416
0
LINE
8
BLACK
6
CONTINUOUS
10
121.789
20
-136.416
11
121.646
21
-136.131
0
LINE
8
BLACK
6
CONTINUOUS
10
121.646
20
-136.131
11
121.646
21
-135.274
0
LINE
8
BLACK
6
CONTINUOUS
10
121.646
20
-135.274
11
121.789
21
-134.988
0
LINE
8
BLACK
6
CONTINUOUS
10
121.789
20
-134.988
11
121.932
21
-134.845
0
LINE
8
BLACK
6
CONTINUOUS
10
121.932
20
-134.845
11
122.218
21
-134.702
0
LINE
8
BLACK
6
CONTINUOUS
10
122.218
20
-134.702
11
122.646
21
-134.702
0
LINE
8
BLACK
6
CONTINUOUS
10
122.646
20
-134.702
11
122.932
21
-134.845
0
LINE
8
BLACK
6
CONTINUOUS
10
122.932
20
-134.845
11
123.075
21
-134.988
0
LINE
8
BLACK
6
CONTINUOUS
10
123.075
20
-134.988
11
123.218
21
-135.274
0
LINE
8
BLACK
6
CONTINUOUS
10
123.218
20
-135.274
11
123.218
21
-136.131
0
LINE
8
BLACK
6
CONTINUOUS
10
123.218
20
-136.131
11
123.075
21
-136.416
0
LINE
8
BLACK
6
CONTINUOUS
10
123.075
20
-136.416
11
122.932
21
-136.559
0
LINE
8
BLACK
6
CONTINUOUS
10
122.932
20
-136.559
11
122.646
21
-136.702
0
LINE
8
BLACK
6
CONTINUOUS
10
122.646
20
-136.702
11
122.218
21
-136.702
0
LINE
8
BLACK
6
CONTINUOUS
10
124.932
20
-136.702
11
124.646
21
-136.559
0
LINE
8
BLACK
6
CONTINUOUS
10
124.646
20
-136.559
11
124.504
21
-136.274
0
LINE
8
BLACK
6
CONTINUOUS
10
124.504
20
-136.274
11
124.504
21
-133.702
0
LINE
8
BLACK
6
CONTINUOUS
10
127.218
20
-136.559
11
126.932
21
-136.702
0
LINE
8
BLACK
6
CONTINUOUS
10
126.932
20
-136.702
11
126.361
21
-136.702
0
LINE
8
BLACK
6
CONTINUOUS
10
126.361
20
-136.702
11
126.075
21
-136.559
0
LINE
8
BLACK
6
CONTINUOUS
10
126.075
20
-136.559
11
125.932
21
-136.274
0
LINE
8
BLACK
6
CONTINUOUS
10
125.932
20
-136.274
11
125.932
21
-135.131
0
LINE
8
BLACK
6
CONTINUOUS
10
125.932
20
-135.131
11
126.075
21
-134.845
0
LINE
8
BLACK
6
CONTINUOUS
10
126.075
20
-134.845
11
126.361
21
-134.702
0
LINE
8
BLACK
6
CONTINUOUS
10
126.361
20
-134.702
11
126.932
21
-134.702
0
LINE
8
BLACK
6
CONTINUOUS
10
126.932
20
-134.702
11
127.218
21
-134.845
0
LINE
8
BLACK
6
CONTINUOUS
10
127.218
20
-134.845
11
127.361
21
-135.131
0
LINE
8
BLACK
6
CONTINUOUS
10
127.361
20
-135.131
11
127.361
21
-135.416
0
LINE
8
BLACK
6
CONTINUOUS
10
127.361
20
-135.416
11
125.932
21
-135.702
0
LINE
8
BLACK
6
CONTINUOUS
10
128.504
20
-136.559
11
128.789
21
-136.702
0
LINE
8
BLACK
6
CONTINUOUS
10
128.789
20
-136.702
11
129.361
21
-136.702
0
LINE
8
BLACK
6
CONTINUOUS
10
129.361
20
-136.702
11
129.646
21
-136.559
0
LINE
8
BLACK
6
CONTINUOUS
10
129.646
20
-136.559
11
129.789
21
-136.274
0
LINE
8
BLACK
6
CONTINUOUS
10
129.789
20
-136.274
11
129.789
21
-136.131
0
LINE
8
BLACK
6
CONTINUOUS
10
129.789
20
-136.131
11
129.646
21
-135.845
0
LINE
8
BLACK
6
CONTINUOUS
10
129.646
20
-135.845
11
129.361
21
-135.702
0
LINE
8
BLACK
6
CONTINUOUS
10
129.361
20
-135.702
11
128.932
21
-135.702
0
LINE
8
BLACK
6
CONTINUOUS
10
128.932
20
-135.702
11
128.646
21
-135.559
0
LINE
8
BLACK
6
CONTINUOUS
10
128.646
20
-135.559
11
128.504
21
-135.274
0
LINE
8
BLACK
6
CONTINUOUS
10
128.504
20
-135.274
11
128.504
21
-135.131
0
LINE
8
BLACK
6
CONTINUOUS
10
128.504
20
-135.131
11
128.646
21
-134.845
0
LINE
8
BLACK
6
CONTINUOUS
10
128.646
20
-134.845
11
128.932
21
-134.702
0
LINE
8
BLACK
6
CONTINUOUS
10
128.932
20
-134.702
11
129.361
21
-134.702
0
LINE
8
BLACK
6
CONTINUOUS
10
129.361
20
-134.702
11
129.646
21
-134.845
0
LINE
8
BLACK
6
CONTINUOUS
10
133.361
20
-135.559
11
135.646
21
-135.559
0
LINE
8
BLACK
6
CONTINUOUS
10
134.504
20
-136.702
11
134.504
21
-134.416
0
LINE
8
BLACK
6
CONTINUOUS
10
139.218
20
-133.988
11
139.361
21
-133.845
0
LINE
8
BLACK
6
CONTINUOUS
10
139.361
20
-133.845
11
139.646
21
-133.702
0
LINE
8
BLACK
6
CONTINUOUS
10
139.646
20
-133.702
11
140.361
21
-133.702
0
LINE
8
BLACK
6
CONTINUOUS
10
140.361
20
-133.702
11
140.646
21
-133.845
0
LINE
8
BLACK
6
CONTINUOUS
10
140.646
20
-133.845
11
140.789
21
-133.988
0
LINE
8
BLACK
6
CONTINUOUS
10
140.789
20
-133.988
11
140.932
21
-134.274
0
LINE
8
BLACK
6
CONTINUOUS
10
140.932
20
-134.274
11
140.932
21
-134.559
0
LINE
8
BLACK
6
CONTINUOUS
10
140.932
20
-134.559
11
140.789
21
-134.988
0
LINE
8
BLACK
6
CONTINUOUS
10
140.789
20
-134.988
11
139.075
21
-136.702
0
LINE
8
BLACK
6
CONTINUOUS
10
139.075
20
-136.702
11
140.932
21
-136.702
0
LINE
8
BLACK
6
CONTINUOUS
10
144.361
20
-136.559
11
144.646
21
-136.702
0
LINE
8
BLACK
6
CONTINUOUS
10
144.646
20
-136.702
11
145.218
21
-136.702
0
LINE
8
BLACK
6
CONTINUOUS
10
145.218
20
-136.702
11
145.504
21
-136.559
0
LINE
8
BLACK
6
CONTINUOUS
10
145.504
20
-136.559
11
145.646
21
-136.274
0
LINE
8
BLACK
6
CONTINUOUS
10
145.646
20
-136.274
11
145.646
21
-136.131
0
LINE
8
BLACK
6
CONTINUOUS
10
145.646
20
-136.131
11
145.504
21
-135.845
0
LINE
8
BLACK
6
CONTINUOUS
10
145.504
20
-135.845
11
145.218
21
-135.702
0
LINE
8
BLACK
6
CONTINUOUS
10
145.218
20
-135.702
11
144.789
21
-135.702
0
LINE
8
BLACK
6
CONTINUOUS
10
144.789
20
-135.702
11
144.504
21
-135.559
0
LINE
8
BLACK
6
CONTINUOUS
10
144.504
20
-135.559
11
144.361
21
-135.274
0
LINE
8
BLACK
6
CONTINUOUS
10
144.361
20
-135.274
11
144.361
21
-135.131
0
LINE
8
BLACK
6
CONTINUOUS
10
144.361
20
-135.131
11
144.504
21
-134.845
0
LINE
8
BLACK
6
CONTINUOUS
10
144.504
20
-134.845
11
144.789
21
-134.702
0
LINE
8
BLACK
6
CONTINUOUS
10
144.789
20
-134.702
11
145.218
21
-134.702
0
LINE
8
BLACK
6
CONTINUOUS
10
145.218
20
-134.702
11
145.504
21
-134.845
0
LINE
8
BLACK
6
CONTINUOUS
10
147.361
20
-136.702
11
147.075
21
-136.559
0
LINE
8
BLACK
6
CONTINUOUS
10
147.075
20
-136.559
11
146.932
21
-136.274
0
LINE
8
BLACK
6
CONTINUOUS
10
146.932
20
-136.274
11
146.932
21
-133.702
0
LINE
8
BLACK
6
CONTINUOUS
10
148.932
20
-136.702
11
148.646
21
-136.559
0
LINE
8
BLACK
6
CONTINUOUS
10
148.646
20
-136.559
11
148.504
21
-136.416
0
LINE
8
BLACK
6
CONTINUOUS
10
148.504
20
-136.416
11
148.361
21
-136.131
0
LINE
8
BLACK
6
CONTINUOUS
10
148.361
20
-136.131
11
148.361
21
-135.274
0
LINE
8
BLACK
6
CONTINUOUS
10
148.361
20
-135.274
11
148.504
21
-134.988
0
LINE
8
BLACK
6
CONTINUOUS
10
148.504
20
-134.988
11
148.646
21
-134.845
0
LINE
8
BLACK
6
CONTINUOUS
10
148.646
20
-134.845
11
148.932
21
-134.702
0
LINE
8
BLACK
6
CONTINUOUS
10
148.932
20
-134.702
11
149.361
21
-134.702
0
LINE
8
BLACK
6
CONTINUOUS
10
149.361
20
-134.702
11
149.646
21
-134.845
0
LINE
8
BLACK
6
CONTINUOUS
10
149.646
20
-134.845
11
149.789
21
-134.988
0
LINE
8
BLACK
6
CONTINUOUS
10
149.789
20
-134.988
11
149.932
21
-135.274
0
LINE
8
BLACK
6
CONTINUOUS
10
149.932
20
-135.274
11
149.932
21
-136.131
0
LINE
8
BLACK
6
CONTINUOUS
10
149.932
20
-136.131
11
149.789
21
-136.416
0
LINE
8
BLACK
6
CONTINUOUS
10
149.789
20
-136.416
11
149.646
21
-136.559
0
LINE
8
BLACK
6
CONTINUOUS
10
149.646
20
-136.559
11
149.361
21
-136.702
0
LINE
8
BLACK
6
CONTINUOUS
10
149.361
20
-136.702
11
148.932
21
-136.702
0
LINE
8
BLACK
6
CONTINUOUS
10
150.789
20
-134.702
11
151.932
21
-134.702
0
LINE
8
BLACK
6
CONTINUOUS
10
151.218
20
-133.702
11
151.218
21
-136.274
0
LINE
8
BLACK
6
CONTINUOUS
10
151.218
20
-136.274
11
151.361
21
-136.559
0
LINE
8
BLACK
6
CONTINUOUS
10
151.361
20
-136.559
11
151.646
21
-136.702
0
LINE
8
BLACK
6
CONTINUOUS
10
151.646
20
-136.702
11
151.932
21
-136.702
0
LINE
8
BLACK
6
CONTINUOUS
10
152.789
20
-136.559
11
153.075
21
-136.702
0
LINE
8
BLACK
6
CONTINUOUS
10
153.075
20
-136.702
11
153.646
21
-136.702
0
LINE
8
BLACK
6
CONTINUOUS
10
153.646
20
-136.702
11
153.932
21
-136.559
0
LINE
8
BLACK
6
CONTINUOUS
10
153.932
20
-136.559
11
154.075
21
-136.274
0
LINE
8
BLACK
6
CONTINUOUS
10
154.075
20
-136.274
11
154.075
21
-136.131
0
LINE
8
BLACK
6
CONTINUOUS
10
154.075
20
-136.131
11
153.932
21
-135.845
0
LINE
8
BLACK
6
CONTINUOUS
10
153.932
20
-135.845
11
153.646
21
-135.702
0
LINE
8
BLACK
6
CONTINUOUS
10
153.646
20
-135.702
11
153.218
21
-135.702
0
LINE
8
BLACK
6
CONTINUOUS
10
153.218
20
-135.702
11
152.932
21
-135.559
0
LINE
8
BLACK
6
CONTINUOUS
10
152.932
20
-135.559
11
152.789
21
-135.274
0
LINE
8
BLACK
6
CONTINUOUS
10
152.789
20
-135.274
11
152.789
21
-135.131
0
LINE
8
BLACK
6
CONTINUOUS
10
152.789
20
-135.131
11
152.932
21
-134.845
0
LINE
8
BLACK
6
CONTINUOUS
10
152.932
20
-134.845
11
153.218
21
-134.702
0
LINE
8
BLACK
6
CONTINUOUS
10
153.218
20
-134.702
11
153.646
21
-134.702
0
LINE
8
BLACK
6
CONTINUOUS
10
153.646
20
-134.702
11
153.932
21
-134.845
0
LINE
8
BLACK
6
CONTINUOUS
10
155.075
20
-137.845
11
155.218
21
-137.702
0
LINE
8
BLACK
6
CONTINUOUS
10
155.218
20
-137.702
11
155.504
21
-137.274
0
LINE
8
BLACK
6
CONTINUOUS
10
155.504
20
-137.274
11
155.646
21
-136.988
0
LINE
8
BLACK
6
CONTINUOUS
10
155.646
20
-136.988
11
155.789
21
-136.559
0
LINE
8
BLACK
6
CONTINUOUS
10
155.789
20
-136.559
11
155.932
21
-135.845
0
LINE
8
BLACK
6
CONTINUOUS
10
155.932
20
-135.845
11
155.932
21
-135.274
0
LINE
8
BLACK
6
CONTINUOUS
10
155.932
20
-135.274
11
155.789
21
-134.559
0
LINE
8
BLACK
6
CONTINUOUS
10
155.789
20
-134.559
11
155.646
21
-134.131
0
LINE
8
BLACK
6
CONTINUOUS
10
155.646
20
-134.131
11
155.504
21
-133.845
0
LINE
8
BLACK
6
CONTINUOUS
10
155.504
20
-133.845
11
155.218
21
-133.416
0
LINE
8
BLACK
6
CONTINUOUS
10
155.218
20
-133.416
11
155.075
21
-133.274
0
LINE
8
BLACK
6
CONTINUOUS
10
65.8134
20
-139.574
11
65.8134
21
-139.036
0
LINE
8
BLACK
6
CONTINUOUS
10
65.8134
20
-139.036
11
65.2746
21
-139.036
0
LINE
8
BLACK
6
CONTINUOUS
10
65.2746
20
-139.036
11
65.2746
21
-139.574
0
LINE
8
BLACK
6
CONTINUOUS
10
65.2746
20
-139.574
11
65.8134
21
-139.574
0
LINE
8
BLACK
6
CONTINUOUS
10
69.3607
20
-137.662
11
69.6464
21
-137.662
0
LINE
8
BLACK
6
CONTINUOUS
10
69.6464
20
-137.662
11
69.9321
21
-137.805
0
LINE
8
BLACK
6
CONTINUOUS
10
69.9321
20
-137.805
11
70.075
21
-137.948
0
LINE
8
BLACK
6
CONTINUOUS
10
70.075
20
-137.948
11
70.2179
21
-138.234
0
LINE
8
BLACK
6
CONTINUOUS
10
70.2179
20
-138.234
11
70.3607
21
-138.805
0
LINE
8
BLACK
6
CONTINUOUS
10
70.3607
20
-138.805
11
70.3607
21
-139.519
0
LINE
8
BLACK
6
CONTINUOUS
10
70.3607
20
-139.519
11
70.2179
21
-140.091
0
LINE
8
BLACK
6
CONTINUOUS
10
70.2179
20
-140.091
11
70.075
21
-140.376
0
LINE
8
BLACK
6
CONTINUOUS
10
70.075
20
-140.376
11
69.9321
21
-140.519
0
LINE
8
BLACK
6
CONTINUOUS
10
69.9321
20
-140.519
11
69.6464
21
-140.662
0
LINE
8
BLACK
6
CONTINUOUS
10
69.6464
20
-140.662
11
69.3607
21
-140.662
0
LINE
8
BLACK
6
CONTINUOUS
10
69.3607
20
-140.662
11
69.075
21
-140.519
0
LINE
8
BLACK
6
CONTINUOUS
10
69.075
20
-140.519
11
68.9321
21
-140.376
0
LINE
8
BLACK
6
CONTINUOUS
10
68.9321
20
-140.376
11
68.7893
21
-140.091
0
LINE
8
BLACK
6
CONTINUOUS
10
68.7893
20
-140.091
11
68.6464
21
-139.519
0
LINE
8
BLACK
6
CONTINUOUS
10
68.6464
20
-139.519
11
68.6464
21
-138.805
0
LINE
8
BLACK
6
CONTINUOUS
10
68.6464
20
-138.805
11
68.7893
21
-138.234
0
LINE
8
BLACK
6
CONTINUOUS
10
68.7893
20
-138.234
11
68.9321
21
-137.948
0
LINE
8
BLACK
6
CONTINUOUS
10
68.9321
20
-137.948
11
69.075
21
-137.805
0
LINE
8
BLACK
6
CONTINUOUS
10
69.075
20
-137.805
11
69.3607
21
-137.662
0
LINE
8
BLACK
6
CONTINUOUS
10
71.6464
20
-140.376
11
71.7893
21
-140.519
0
LINE
8
BLACK
6
CONTINUOUS
10
71.7893
20
-140.519
11
71.6464
21
-140.662
0
LINE
8
BLACK
6
CONTINUOUS
10
71.6464
20
-140.662
11
71.5036
21
-140.519
0
LINE
8
BLACK
6
CONTINUOUS
10
71.5036
20
-140.519
11
71.6464
21
-140.376
0
LINE
8
BLACK
6
CONTINUOUS
10
71.6464
20
-140.376
11
71.6464
21
-140.662
0
LINE
8
BLACK
6
CONTINUOUS
10
72.7893
20
-137.662
11
74.7893
21
-137.662
0
LINE
8
BLACK
6
CONTINUOUS
10
74.7893
20
-137.662
11
73.5036
21
-140.662
0
LINE
8
BLACK
6
CONTINUOUS
10
77.2179
20
-137.662
11
76.6464
21
-137.662
0
LINE
8
BLACK
6
CONTINUOUS
10
76.6464
20
-137.662
11
76.3607
21
-137.805
0
LINE
8
BLACK
6
CONTINUOUS
10
76.3607
20
-137.805
11
76.2179
21
-137.948
0
LINE
8
BLACK
6
CONTINUOUS
10
76.2179
20
-137.948
11
75.9321
21
-138.376
0
LINE
8
BLACK
6
CONTINUOUS
10
75.9321
20
-138.376
11
75.7893
21
-138.948
0
LINE
8
BLACK
6
CONTINUOUS
10
75.7893
20
-138.948
11
75.7893
21
-140.091
0
LINE
8
BLACK
6
CONTINUOUS
10
75.7893
20
-140.091
11
75.9321
21
-140.376
0
LINE
8
BLACK
6
CONTINUOUS
10
75.9321
20
-140.376
11
76.075
21
-140.519
0
LINE
8
BLACK
6
CONTINUOUS
10
76.075
20
-140.519
11
76.3607
21
-140.662
0
LINE
8
BLACK
6
CONTINUOUS
10
76.3607
20
-140.662
11
76.9321
21
-140.662
0
LINE
8
BLACK
6
CONTINUOUS
10
76.9321
20
-140.662
11
77.2179
21
-140.519
0
LINE
8
BLACK
6
CONTINUOUS
10
77.2179
20
-140.519
11
77.3607
21
-140.376
0
LINE
8
BLACK
6
CONTINUOUS
10
77.3607
20
-140.376
11
77.5036
21
-140.091
0
LINE
8
BLACK
6
CONTINUOUS
10
77.5036
20
-140.091
11
77.5036
21
-139.376
0
LINE
8
BLACK
6
CONTINUOUS
10
77.5036
20
-139.376
11
77.3607
21
-139.091
0
LINE
8
BLACK
6
CONTINUOUS
10
77.3607
20
-139.091
11
77.2179
21
-138.948
0
LINE
8
BLACK
6
CONTINUOUS
10
77.2179
20
-138.948
11
76.9321
21
-138.805
0
LINE
8
BLACK
6
CONTINUOUS
10
76.9321
20
-138.805
11
76.3607
21
-138.805
0
LINE
8
BLACK
6
CONTINUOUS
10
76.3607
20
-138.805
11
76.075
21
-138.948
0
LINE
8
BLACK
6
CONTINUOUS
10
76.075
20
-138.948
11
75.9321
21
-139.091
0
LINE
8
BLACK
6
CONTINUOUS
10
75.9321
20
-139.091
11
75.7893
21
-139.376
0
LINE
8
BLACK
6
CONTINUOUS
10
78.7893
20
-140.662
11
78.7893
21
-138.662
0
LINE
8
BLACK
6
CONTINUOUS
10
78.7893
20
-138.948
11
78.9321
21
-138.805
0
LINE
8
BLACK
6
CONTINUOUS
10
78.9321
20
-138.805
11
79.2179
21
-138.662
0
LINE
8
BLACK
6
CONTINUOUS
10
79.2179
20
-138.662
11
79.6464
21
-138.662
0
LINE
8
BLACK
6
CONTINUOUS
10
79.6464
20
-138.662
11
79.9321
21
-138.805
0
LINE
8
BLACK
6
CONTINUOUS
10
79.9321
20
-138.805
11
80.075
21
-139.091
0
LINE
8
BLACK
6
CONTINUOUS
10
80.075
20
-139.091
11
80.075
21
-140.662
0
LINE
8
BLACK
6
CONTINUOUS
10
80.075
20
-139.091
11
80.2179
21
-138.805
0
LINE
8
BLACK
6
CONTINUOUS
10
80.2179
20
-138.805
11
80.5036
21
-138.662
0
LINE
8
BLACK
6
CONTINUOUS
10
80.5036
20
-138.662
11
80.9321
21
-138.662
0
LINE
8
BLACK
6
CONTINUOUS
10
80.9321
20
-138.662
11
81.2179
21
-138.805
0
LINE
8
BLACK
6
CONTINUOUS
10
81.2179
20
-138.805
11
81.3607
21
-139.091
0
LINE
8
BLACK
6
CONTINUOUS
10
81.3607
20
-139.091
11
81.3607
21
-140.662
0
LINE
8
BLACK
6
CONTINUOUS
10
82.7893
20
-140.662
11
82.7893
21
-138.662
0
LINE
8
BLACK
6
CONTINUOUS
10
82.7893
20
-138.948
11
82.9321
21
-138.805
0
LINE
8
BLACK
6
CONTINUOUS
10
82.9321
20
-138.805
11
83.2179
21
-138.662
0
LINE
8
BLACK
6
CONTINUOUS
10
83.2179
20
-138.662
11
83.6464
21
-138.662
0
LINE
8
BLACK
6
CONTINUOUS
10
83.6464
20
-138.662
11
83.9321
21
-138.805
0
LINE
8
BLACK
6
CONTINUOUS
10
83.9321
20
-138.805
11
84.075
21
-139.091
0
LINE
8
BLACK
6
CONTINUOUS
10
84.075
20
-139.091
11
84.075
21
-140.662
0
LINE
8
BLACK
6
CONTINUOUS
10
84.075
20
-139.091
11
84.2179
21
-138.805
0
LINE
8
BLACK
6
CONTINUOUS
10
84.2179
20
-138.805
11
84.5036
21
-138.662
0
LINE
8
BLACK
6
CONTINUOUS
10
84.5036
20
-138.662
11
84.9321
21
-138.662
0
LINE
8
BLACK
6
CONTINUOUS
10
84.9321
20
-138.662
11
85.2179
21
-138.805
0
LINE
8
BLACK
6
CONTINUOUS
10
85.2179
20
-138.805
11
85.3607
21
-139.091
0
LINE
8
BLACK
6
CONTINUOUS
10
85.3607
20
-139.091
11
85.3607
21
-140.662
0
LINE
8
BLACK
6
CONTINUOUS
10
91.2179
20
-137.519
11
88.6464
21
-141.376
0
LINE
8
BLACK
6
CONTINUOUS
10
95.075
20
-137.662
11
95.3607
21
-137.662
0
LINE
8
BLACK
6
CONTINUOUS
10
95.3607
20
-137.662
11
95.6464
21
-137.805
0
LINE
8
BLACK
6
CONTINUOUS
10
95.6464
20
-137.805
11
95.7893
21
-137.948
0
LINE
8
BLACK
6
CONTINUOUS
10
95.7893
20
-137.948
11
95.9321
21
-138.234
0
LINE
8
BLACK
6
CONTINUOUS
10
95.9321
20
-138.234
11
96.075
21
-138.805
0
LINE
8
BLACK
6
CONTINUOUS
10
96.075
20
-138.805
11
96.075
21
-139.519
0
LINE
8
BLACK
6
CONTINUOUS
10
96.075
20
-139.519
11
95.9321
21
-140.091
0
LINE
8
BLACK
6
CONTINUOUS
10
95.9321
20
-140.091
11
95.7893
21
-140.376
0
LINE
8
BLACK
6
CONTINUOUS
10
95.7893
20
-140.376
11
95.6464
21
-140.519
0
LINE
8
BLACK
6
CONTINUOUS
10
95.6464
20
-140.519
11
95.3607
21
-140.662
0
LINE
8
BLACK
6
CONTINUOUS
10
95.3607
20
-140.662
11
95.075
21
-140.662
0
LINE
8
BLACK
6
CONTINUOUS
10
95.075
20
-140.662
11
94.7893
21
-140.519
0
LINE
8
BLACK
6
CONTINUOUS
10
94.7893
20
-140.519
11
94.6464
21
-140.376
0
LINE
8
BLACK
6
CONTINUOUS
10
94.6464
20
-140.376
11
94.5036
21
-140.091
0
LINE
8
BLACK
6
CONTINUOUS
10
94.5036
20
-140.091
11
94.3607
21
-139.519
0
LINE
8
BLACK
6
CONTINUOUS
10
94.3607
20
-139.519
11
94.3607
21
-138.805
0
LINE
8
BLACK
6
CONTINUOUS
10
94.3607
20
-138.805
11
94.5036
21
-138.234
0
LINE
8
BLACK
6
CONTINUOUS
10
94.5036
20
-138.234
11
94.6464
21
-137.948
0
LINE
8
BLACK
6
CONTINUOUS
10
94.6464
20
-137.948
11
94.7893
21
-137.805
0
LINE
8
BLACK
6
CONTINUOUS
10
94.7893
20
-137.805
11
95.075
21
-137.662
0
LINE
8
BLACK
6
CONTINUOUS
10
97.3607
20
-140.376
11
97.5036
21
-140.519
0
LINE
8
BLACK
6
CONTINUOUS
10
97.5036
20
-140.519
11
97.3607
21
-140.662
0
LINE
8
BLACK
6
CONTINUOUS
10
97.3607
20
-140.662
11
97.2179
21
-140.519
0
LINE
8
BLACK
6
CONTINUOUS
10
97.2179
20
-140.519
11
97.3607
21
-140.376
0
LINE
8
BLACK
6
CONTINUOUS
10
97.3607
20
-140.376
11
97.3607
21
-140.662
0
LINE
8
BLACK
6
CONTINUOUS
10
99.3607
20
-137.662
11
99.6464
21
-137.662
0
LINE
8
BLACK
6
CONTINUOUS
10
99.6464
20
-137.662
11
99.9321
21
-137.805
0
LINE
8
BLACK
6
CONTINUOUS
10
99.9321
20
-137.805
11
100.075
21
-137.948
0
LINE
8
BLACK
6
CONTINUOUS
10
100.075
20
-137.948
11
100.218
21
-138.234
0
LINE
8
BLACK
6
CONTINUOUS
10
100.218
20
-138.234
11
100.361
21
-138.805
0
LINE
8
BLACK
6
CONTINUOUS
10
100.361
20
-138.805
11
100.361
21
-139.519
0
LINE
8
BLACK
6
CONTINUOUS
10
100.361
20
-139.519
11
100.218
21
-140.091
0
LINE
8
BLACK
6
CONTINUOUS
10
100.218
20
-140.091
11
100.075
21
-140.376
0
LINE
8
BLACK
6
CONTINUOUS
10
100.075
20
-140.376
11
99.9321
21
-140.519
0
LINE
8
BLACK
6
CONTINUOUS
10
99.9321
20
-140.519
11
99.6464
21
-140.662
0
LINE
8
BLACK
6
CONTINUOUS
10
99.6464
20
-140.662
11
99.3607
21
-140.662
0
LINE
8
BLACK
6
CONTINUOUS
10
99.3607
20
-140.662
11
99.075
21
-140.519
0
LINE
8
BLACK
6
CONTINUOUS
10
99.075
20
-140.519
11
98.9321
21
-140.376
0
LINE
8
BLACK
6
CONTINUOUS
10
98.9321
20
-140.376
11
98.7893
21
-140.091
0
LINE
8
BLACK
6
CONTINUOUS
10
98.7893
20
-140.091
11
98.6464
21
-139.519
0
LINE
8
BLACK
6
CONTINUOUS
10
98.6464
20
-139.519
11
98.6464
21
-138.805
0
LINE
8
BLACK
6
CONTINUOUS
10
98.6464
20
-138.805
11
98.7893
21
-138.234
0
LINE
8
BLACK
6
CONTINUOUS
10
98.7893
20
-138.234
11
98.9321
21
-137.948
0
LINE
8
BLACK
6
CONTINUOUS
10
98.9321
20
-137.948
11
99.075
21
-137.805
0
LINE
8
BLACK
6
CONTINUOUS
10
99.075
20
-137.805
11
99.3607
21
-137.662
0
LINE
8
BLACK
6
CONTINUOUS
10
101.361
20
-137.662
11
103.218
21
-137.662
0
LINE
8
BLACK
6
CONTINUOUS
10
103.218
20
-137.662
11
102.218
21
-138.805
0
LINE
8
BLACK
6
CONTINUOUS
10
102.218
20
-138.805
11
102.646
21
-138.805
0
LINE
8
BLACK
6
CONTINUOUS
10
102.646
20
-138.805
11
102.932
21
-138.948
0
LINE
8
BLACK
6
CONTINUOUS
10
102.932
20
-138.948
11
103.075
21
-139.091
0
LINE
8
BLACK
6
CONTINUOUS
10
103.075
20
-139.091
11
103.218
21
-139.376
0
LINE
8
BLACK
6
CONTINUOUS
10
103.218
20
-139.376
11
103.218
21
-140.091
0
LINE
8
BLACK
6
CONTINUOUS
10
103.218
20
-140.091
11
103.075
21
-140.376
0
LINE
8
BLACK
6
CONTINUOUS
10
103.075
20
-140.376
11
102.932
21
-140.519
0
LINE
8
BLACK
6
CONTINUOUS
10
102.932
20
-140.519
11
102.646
21
-140.662
0
LINE
8
BLACK
6
CONTINUOUS
10
102.646
20
-140.662
11
101.789
21
-140.662
0
LINE
8
BLACK
6
CONTINUOUS
10
101.789
20
-140.662
11
101.504
21
-140.519
0
LINE
8
BLACK
6
CONTINUOUS
10
101.504
20
-140.519
11
101.361
21
-140.376
0
LINE
8
BLACK
6
CONTINUOUS
10
105.075
20
-137.662
11
105.361
21
-137.662
0
LINE
8
BLACK
6
CONTINUOUS
10
105.361
20
-137.662
11
105.646
21
-137.805
0
LINE
8
BLACK
6
CONTINUOUS
10
105.646
20
-137.805
11
105.789
21
-137.948
0
LINE
8
BLACK
6
CONTINUOUS
10
105.789
20
-137.948
11
105.932
21
-138.234
0
LINE
8
BLACK
6
CONTINUOUS
10
105.932
20
-138.234
11
106.075
21
-138.805
0
LINE
8
BLACK
6
CONTINUOUS
10
106.075
20
-138.805
11
106.075
21
-139.519
0
LINE
8
BLACK
6
CONTINUOUS
10
106.075
20
-139.519
11
105.932
21
-140.091
0
LINE
8
BLACK
6
CONTINUOUS
10
105.932
20
-140.091
11
105.789
21
-140.376
0
LINE
8
BLACK
6
CONTINUOUS
10
105.789
20
-140.376
11
105.646
21
-140.519
0
LINE
8
BLACK
6
CONTINUOUS
10
105.646
20
-140.519
11
105.361
21
-140.662
0
LINE
8
BLACK
6
CONTINUOUS
10
105.361
20
-140.662
11
105.075
21
-140.662
0
LINE
8
BLACK
6
CONTINUOUS
10
105.075
20
-140.662
11
104.789
21
-140.519
0
LINE
8
BLACK
6
CONTINUOUS
10
104.789
20
-140.519
11
104.646
21
-140.376
0
LINE
8
BLACK
6
CONTINUOUS
10
104.646
20
-140.376
11
104.504
21
-140.091
0
LINE
8
BLACK
6
CONTINUOUS
10
104.504
20
-140.091
11
104.361
21
-139.519
0
LINE
8
BLACK
6
CONTINUOUS
10
104.361
20
-139.519
11
104.361
21
-138.805
0
LINE
8
BLACK
6
CONTINUOUS
10
104.361
20
-138.805
11
104.504
21
-138.234
0
LINE
8
BLACK
6
CONTINUOUS
10
104.504
20
-138.234
11
104.646
21
-137.948
0
LINE
8
BLACK
6
CONTINUOUS
10
104.646
20
-137.948
11
104.789
21
-137.805
0
LINE
8
BLACK
6
CONTINUOUS
10
104.789
20
-137.805
11
105.075
21
-137.662
0
LINE
8
BLACK
6
CONTINUOUS
10
107.218
20
-137.662
11
107.218
21
-138.234
0
LINE
8
BLACK
6
CONTINUOUS
10
108.361
20
-137.662
11
108.361
21
-138.234
0
LINE
8
BLACK
6
CONTINUOUS
10
112.789
20
-141.805
11
112.646
21
-141.662
0
LINE
8
BLACK
6
CONTINUOUS
10
112.646
20
-141.662
11
112.361
21
-141.234
0
LINE
8
BLACK
6
CONTINUOUS
10
112.361
20
-141.234
11
112.218
21
-140.948
0
LINE
8
BLACK
6
CONTINUOUS
10
112.218
20
-140.948
11
112.075
21
-140.519
0
LINE
8
BLACK
6
CONTINUOUS
10
112.075
20
-140.519
11
111.932
21
-139.805
0
LINE
8
BLACK
6
CONTINUOUS
10
111.932
20
-139.805
11
111.932
21
-139.234
0
LINE
8
BLACK
6
CONTINUOUS
10
111.932
20
-139.234
11
112.075
21
-138.519
0
LINE
8
BLACK
6
CONTINUOUS
10
112.075
20
-138.519
11
112.218
21
-138.091
0
LINE
8
BLACK
6
CONTINUOUS
10
112.218
20
-138.091
11
112.361
21
-137.805
0
LINE
8
BLACK
6
CONTINUOUS
10
112.361
20
-137.805
11
112.646
21
-137.376
0
LINE
8
BLACK
6
CONTINUOUS
10
112.646
20
-137.376
11
112.789
21
-137.234
0
LINE
8
BLACK
6
CONTINUOUS
10
115.504
20
-140.662
11
113.789
21
-140.662
0
LINE
8
BLACK
6
CONTINUOUS
10
114.646
20
-140.662
11
114.646
21
-137.662
0
LINE
8
BLACK
6
CONTINUOUS
10
114.646
20
-137.662
11
114.361
21
-138.091
0
LINE
8
BLACK
6
CONTINUOUS
10
114.361
20
-138.091
11
114.075
21
-138.376
0
LINE
8
BLACK
6
CONTINUOUS
10
114.075
20
-138.376
11
113.789
21
-138.519
0
LINE
8
BLACK
6
CONTINUOUS
10
117.361
20
-137.662
11
117.646
21
-137.662
0
LINE
8
BLACK
6
CONTINUOUS
10
117.646
20
-137.662
11
117.932
21
-137.805
0
LINE
8
BLACK
6
CONTINUOUS
10
117.932
20
-137.805
11
118.075
21
-137.948
0
LINE
8
BLACK
6
CONTINUOUS
10
118.075
20
-137.948
11
118.218
21
-138.234
0
LINE
8
BLACK
6
CONTINUOUS
10
118.218
20
-138.234
11
118.361
21
-138.805
0
LINE
8
BLACK
6
CONTINUOUS
10
118.361
20
-138.805
11
118.361
21
-139.519
0
LINE
8
BLACK
6
CONTINUOUS
10
118.361
20
-139.519
11
118.218
21
-140.091
0
LINE
8
BLACK
6
CONTINUOUS
10
118.218
20
-140.091
11
118.075
21
-140.376
0
LINE
8
BLACK
6
CONTINUOUS
10
118.075
20
-140.376
11
117.932
21
-140.519
0
LINE
8
BLACK
6
CONTINUOUS
10
117.932
20
-140.519
11
117.646
21
-140.662
0
LINE
8
BLACK
6
CONTINUOUS
10
117.646
20
-140.662
11
117.361
21
-140.662
0
LINE
8
BLACK
6
CONTINUOUS
10
117.361
20
-140.662
11
117.075
21
-140.519
0
LINE
8
BLACK
6
CONTINUOUS
10
117.075
20
-140.519
11
116.932
21
-140.376
0
LINE
8
BLACK
6
CONTINUOUS
10
116.932
20
-140.376
11
116.789
21
-140.091
0
LINE
8
BLACK
6
CONTINUOUS
10
116.789
20
-140.091
11
116.646
21
-139.519
0
LINE
8
BLACK
6
CONTINUOUS
10
116.646
20
-139.519
11
116.646
21
-138.805
0
LINE
8
BLACK
6
CONTINUOUS
10
116.646
20
-138.805
11
116.789
21
-138.234
0
LINE
8
BLACK
6
CONTINUOUS
10
116.789
20
-138.234
11
116.932
21
-137.948
0
LINE
8
BLACK
6
CONTINUOUS
10
116.932
20
-137.948
11
117.075
21
-137.805
0
LINE
8
BLACK
6
CONTINUOUS
10
117.075
20
-137.805
11
117.361
21
-137.662
0
LINE
8
BLACK
6
CONTINUOUS
10
121.932
20
-140.662
11
121.932
21
-137.662
0
LINE
8
BLACK
6
CONTINUOUS
10
123.218
20
-140.662
11
123.218
21
-139.091
0
LINE
8
BLACK
6
CONTINUOUS
10
123.218
20
-139.091
11
123.075
21
-138.805
0
LINE
8
BLACK
6
CONTINUOUS
10
123.075
20
-138.805
11
122.789
21
-138.662
0
LINE
8
BLACK
6
CONTINUOUS
10
122.789
20
-138.662
11
122.361
21
-138.662
0
LINE
8
BLACK
6
CONTINUOUS
10
122.361
20
-138.662
11
122.075
21
-138.805
0
LINE
8
BLACK
6
CONTINUOUS
10
122.075
20
-138.805
11
121.932
21
-138.948
0
LINE
8
BLACK
6
CONTINUOUS
10
125.075
20
-140.662
11
124.789
21
-140.519
0
LINE
8
BLACK
6
CONTINUOUS
10
124.789
20
-140.519
11
124.646
21
-140.376
0
LINE
8
BLACK
6
CONTINUOUS
10
124.646
20
-140.376
11
124.504
21
-140.091
0
LINE
8
BLACK
6
CONTINUOUS
10
124.504
20
-140.091
11
124.504
21
-139.234
0
LINE
8
BLACK
6
CONTINUOUS
10
124.504
20
-139.234
11
124.646
21
-138.948
0
LINE
8
BLACK
6
CONTINUOUS
10
124.646
20
-138.948
11
124.789
21
-138.805
0
LINE
8
BLACK
6
CONTINUOUS
10
124.789
20
-138.805
11
125.075
21
-138.662
0
LINE
8
BLACK
6
CONTINUOUS
10
125.075
20
-138.662
11
125.504
21
-138.662
0
LINE
8
BLACK
6
CONTINUOUS
10
125.504
20
-138.662
11
125.789
21
-138.805
0
LINE
8
BLACK
6
CONTINUOUS
10
125.789
20
-138.805
11
125.932
21
-138.948
0
LINE
8
BLACK
6
CONTINUOUS
10
125.932
20
-138.948
11
126.075
21
-139.234
0
LINE
8
BLACK
6
CONTINUOUS
10
126.075
20
-139.234
11
126.075
21
-140.091
0
LINE
8
BLACK
6
CONTINUOUS
10
126.075
20
-140.091
11
125.932
21
-140.376
0
LINE
8
BLACK
6
CONTINUOUS
10
125.932
20
-140.376
11
125.789
21
-140.519
0
LINE
8
BLACK
6
CONTINUOUS
10
125.789
20
-140.519
11
125.504
21
-140.662
0
LINE
8
BLACK
6
CONTINUOUS
10
125.504
20
-140.662
11
125.075
21
-140.662
0
LINE
8
BLACK
6
CONTINUOUS
10
127.789
20
-140.662
11
127.504
21
-140.519
0
LINE
8
BLACK
6
CONTINUOUS
10
127.504
20
-140.519
11
127.361
21
-140.234
0
LINE
8
BLACK
6
CONTINUOUS
10
127.361
20
-140.234
11
127.361
21
-137.662
0
LINE
8
BLACK
6
CONTINUOUS
10
130.075
20
-140.519
11
129.789
21
-140.662
0
LINE
8
BLACK
6
CONTINUOUS
10
129.789
20
-140.662
11
129.218
21
-140.662
0
LINE
8
BLACK
6
CONTINUOUS
10
129.218
20
-140.662
11
128.932
21
-140.519
0
LINE
8
BLACK
6
CONTINUOUS
10
128.932
20
-140.519
11
128.789
21
-140.234
0
LINE
8
BLACK
6
CONTINUOUS
10
128.789
20
-140.234
11
128.789
21
-139.091
0
LINE
8
BLACK
6
CONTINUOUS
10
128.789
20
-139.091
11
128.932
21
-138.805
0
LINE
8
BLACK
6
CONTINUOUS
10
128.932
20
-138.805
11
129.218
21
-138.662
0
LINE
8
BLACK
6
CONTINUOUS
10
129.218
20
-138.662
11
129.789
21
-138.662
0
LINE
8
BLACK
6
CONTINUOUS
10
129.789
20
-138.662
11
130.075
21
-138.805
0
LINE
8
BLACK
6
CONTINUOUS
10
130.075
20
-138.805
11
130.218
21
-139.091
0
LINE
8
BLACK
6
CONTINUOUS
10
130.218
20
-139.091
11
130.218
21
-139.376
0
LINE
8
BLACK
6
CONTINUOUS
10
130.218
20
-139.376
11
128.789
21
-139.662
0
LINE
8
BLACK
6
CONTINUOUS
10
131.361
20
-140.519
11
131.646
21
-140.662
0
LINE
8
BLACK
6
CONTINUOUS
10
131.646
20
-140.662
11
132.218
21
-140.662
0
LINE
8
BLACK
6
CONTINUOUS
10
132.218
20
-140.662
11
132.504
21
-140.519
0
LINE
8
BLACK
6
CONTINUOUS
10
132.504
20
-140.519
11
132.646
21
-140.234
0
LINE
8
BLACK
6
CONTINUOUS
10
132.646
20
-140.234
11
132.646
21
-140.091
0
LINE
8
BLACK
6
CONTINUOUS
10
132.646
20
-140.091
11
132.504
21
-139.805
0
LINE
8
BLACK
6
CONTINUOUS
10
132.504
20
-139.805
11
132.218
21
-139.662
0
LINE
8
BLACK
6
CONTINUOUS
10
132.218
20
-139.662
11
131.789
21
-139.662
0
LINE
8
BLACK
6
CONTINUOUS
10
131.789
20
-139.662
11
131.504
21
-139.519
0
LINE
8
BLACK
6
CONTINUOUS
10
131.504
20
-139.519
11
131.361
21
-139.234
0
LINE
8
BLACK
6
CONTINUOUS
10
131.361
20
-139.234
11
131.361
21
-139.091
0
LINE
8
BLACK
6
CONTINUOUS
10
131.361
20
-139.091
11
131.504
21
-138.805
0
LINE
8
BLACK
6
CONTINUOUS
10
131.504
20
-138.805
11
131.789
21
-138.662
0
LINE
8
BLACK
6
CONTINUOUS
10
131.789
20
-138.662
11
132.218
21
-138.662
0
LINE
8
BLACK
6
CONTINUOUS
10
132.218
20
-138.662
11
132.504
21
-138.805
0
LINE
8
BLACK
6
CONTINUOUS
10
133.646
20
-141.805
11
133.789
21
-141.662
0
LINE
8
BLACK
6
CONTINUOUS
10
133.789
20
-141.662
11
134.075
21
-141.234
0
LINE
8
BLACK
6
CONTINUOUS
10
134.075
20
-141.234
11
134.218
21
-140.948
0
LINE
8
BLACK
6
CONTINUOUS
10
134.218
20
-140.948
11
134.361
21
-140.519
0
LINE
8
BLACK
6
CONTINUOUS
10
134.361
20
-140.519
11
134.504
21
-139.805
0
LINE
8
BLACK
6
CONTINUOUS
10
134.504
20
-139.805
11
134.504
21
-139.234
0
LINE
8
BLACK
6
CONTINUOUS
10
134.504
20
-139.234
11
134.361
21
-138.519
0
LINE
8
BLACK
6
CONTINUOUS
10
134.361
20
-138.519
11
134.218
21
-138.091
0
LINE
8
BLACK
6
CONTINUOUS
10
134.218
20
-138.091
11
134.075
21
-137.805
0
LINE
8
BLACK
6
CONTINUOUS
10
134.075
20
-137.805
11
133.789
21
-137.376
0
LINE
8
BLACK
6
CONTINUOUS
10
133.789
20
-137.376
11
133.646
21
-137.234
0
LINE
8
BLACK
6
CONTINUOUS
10
65.525
20
-143.665
11
65.925
21
-143.265
0
LINE
8
BLACK
6
CONTINUOUS
10
65.925
20
-143.265
11
65.525
21
-142.865
0
LINE
8
BLACK
6
CONTINUOUS
10
65.525
20
-142.865
11
65.125
21
-143.265
0
LINE
8
BLACK
6
CONTINUOUS
10
65.125
20
-143.265
11
65.525
21
-143.665
0
LINE
8
BLACK
6
CONTINUOUS
10
69.3607
20
-141.622
11
69.6464
21
-141.622
0
LINE
8
BLACK
6
CONTINUOUS
10
69.6464
20
-141.622
11
69.9321
21
-141.765
0
LINE
8
BLACK
6
CONTINUOUS
10
69.9321
20
-141.765
11
70.075
21
-141.908
0
LINE
8
BLACK
6
CONTINUOUS
10
70.075
20
-141.908
11
70.2179
21
-142.194
0
LINE
8
BLACK
6
CONTINUOUS
10
70.2179
20
-142.194
11
70.3607
21
-142.765
0
LINE
8
BLACK
6
CONTINUOUS
10
70.3607
20
-142.765
11
70.3607
21
-143.479
0
LINE
8
BLACK
6
CONTINUOUS
10
70.3607
20
-143.479
11
70.2179
21
-144.051
0
LINE
8
BLACK
6
CONTINUOUS
10
70.2179
20
-144.051
11
70.075
21
-144.336
0
LINE
8
BLACK
6
CONTINUOUS
10
70.075
20
-144.336
11
69.9321
21
-144.479
0
LINE
8
BLACK
6
CONTINUOUS
10
69.9321
20
-144.479
11
69.6464
21
-144.622
0
LINE
8
BLACK
6
CONTINUOUS
10
69.6464
20
-144.622
11
69.3607
21
-144.622
0
LINE
8
BLACK
6
CONTINUOUS
10
69.3607
20
-144.622
11
69.075
21
-144.479
0
LINE
8
BLACK
6
CONTINUOUS
10
69.075
20
-144.479
11
68.9321
21
-144.336
0
LINE
8
BLACK
6
CONTINUOUS
10
68.9321
20
-144.336
11
68.7893
21
-144.051
0
LINE
8
BLACK
6
CONTINUOUS
10
68.7893
20
-144.051
11
68.6464
21
-143.479
0
LINE
8
BLACK
6
CONTINUOUS
10
68.6464
20
-143.479
11
68.6464
21
-142.765
0
LINE
8
BLACK
6
CONTINUOUS
10
68.6464
20
-142.765
11
68.7893
21
-142.194
0
LINE
8
BLACK
6
CONTINUOUS
10
68.7893
20
-142.194
11
68.9321
21
-141.908
0
LINE
8
BLACK
6
CONTINUOUS
10
68.9321
20
-141.908
11
69.075
21
-141.765
0
LINE
8
BLACK
6
CONTINUOUS
10
69.075
20
-141.765
11
69.3607
21
-141.622
0
LINE
8
BLACK
6
CONTINUOUS
10
71.6464
20
-144.336
11
71.7893
21
-144.479
0
LINE
8
BLACK
6
CONTINUOUS
10
71.7893
20
-144.479
11
71.6464
21
-144.622
0
LINE
8
BLACK
6
CONTINUOUS
10
71.6464
20
-144.622
11
71.5036
21
-144.479
0
LINE
8
BLACK
6
CONTINUOUS
10
71.5036
20
-144.479
11
71.6464
21
-144.336
0
LINE
8
BLACK
6
CONTINUOUS
10
71.6464
20
-144.336
11
71.6464
21
-144.622
0
LINE
8
BLACK
6
CONTINUOUS
10
73.5036
20
-142.908
11
73.2179
21
-142.765
0
LINE
8
BLACK
6
CONTINUOUS
10
73.2179
20
-142.765
11
73.075
21
-142.622
0
LINE
8
BLACK
6
CONTINUOUS
10
73.075
20
-142.622
11
72.9321
21
-142.336
0
LINE
8
BLACK
6
CONTINUOUS
10
72.9321
20
-142.336
11
72.9321
21
-142.194
0
LINE
8
BLACK
6
CONTINUOUS
10
72.9321
20
-142.194
11
73.075
21
-141.908
0
LINE
8
BLACK
6
CONTINUOUS
10
73.075
20
-141.908
11
73.2179
21
-141.765
0
LINE
8
BLACK
6
CONTINUOUS
10
73.2179
20
-141.765
11
73.5036
21
-141.622
0
LINE
8
BLACK
6
CONTINUOUS
10
73.5036
20
-141.622
11
74.075
21
-141.622
0
LINE
8
BLACK
6
CONTINUOUS
10
74.075
20
-141.622
11
74.3607
21
-141.765
0
LINE
8
BLACK
6
CONTINUOUS
10
74.3607
20
-141.765
11
74.5036
21
-141.908
0
LINE
8
BLACK
6
CONTINUOUS
10
74.5036
20
-141.908
11
74.6464
21
-142.194
0
LINE
8
BLACK
6
CONTINUOUS
10
74.6464
20
-142.194
11
74.6464
21
-142.336
0
LINE
8
BLACK
6
CONTINUOUS
10
74.6464
20
-142.336
11
74.5036
21
-142.622
0
LINE
8
BLACK
6
CONTINUOUS
10
74.5036
20
-142.622
11
74.3607
21
-142.765
0
LINE
8
BLACK
6
CONTINUOUS
10
74.3607
20
-142.765
11
74.075
21
-142.908
0
LINE
8
BLACK
6
CONTINUOUS
10
74.075
20
-142.908
11
73.5036
21
-142.908
0
LINE
8
BLACK
6
CONTINUOUS
10
73.5036
20
-142.908
11
73.2179
21
-143.051
0
LINE
8
BLACK
6
CONTINUOUS
10
73.2179
20
-143.051
11
73.075
21
-143.194
0
LINE
8
BLACK
6
CONTINUOUS
10
73.075
20
-143.194
11
72.9321
21
-143.479
0
LINE
8
BLACK
6
CONTINUOUS
10
72.9321
20
-143.479
11
72.9321
21
-144.051
0
LINE
8
BLACK
6
CONTINUOUS
10
72.9321
20
-144.051
11
73.075
21
-144.336
0
LINE
8
BLACK
6
CONTINUOUS
10
73.075
20
-144.336
11
73.2179
21
-144.479
0
LINE
8
BLACK
6
CONTINUOUS
10
73.2179
20
-144.479
11
73.5036
21
-144.622
0
LINE
8
BLACK
6
CONTINUOUS
10
73.5036
20
-144.622
11
74.075
21
-144.622
0
LINE
8
BLACK
6
CONTINUOUS
10
74.075
20
-144.622
11
74.3607
21
-144.479
0
LINE
8
BLACK
6
CONTINUOUS
10
74.3607
20
-144.479
11
74.5036
21
-144.336
0
LINE
8
BLACK
6
CONTINUOUS
10
74.5036
20
-144.336
11
74.6464
21
-144.051
0
LINE
8
BLACK
6
CONTINUOUS
10
74.6464
20
-144.051
11
74.6464
21
-143.479
0
LINE
8
BLACK
6
CONTINUOUS
10
74.6464
20
-143.479
11
74.5036
21
-143.194
0
LINE
8
BLACK
6
CONTINUOUS
10
74.5036
20
-143.194
11
74.3607
21
-143.051
0
LINE
8
BLACK
6
CONTINUOUS
10
74.3607
20
-143.051
11
74.075
21
-142.908
0
LINE
8
BLACK
6
CONTINUOUS
10
76.5036
20
-141.622
11
76.7893
21
-141.622
0
LINE
8
BLACK
6
CONTINUOUS
10
76.7893
20
-141.622
11
77.075
21
-141.765
0
LINE
8
BLACK
6
CONTINUOUS
10
77.075
20
-141.765
11
77.2179
21
-141.908
0
LINE
8
BLACK
6
CONTINUOUS
10
77.2179
20
-141.908
11
77.3607
21
-142.194
0
LINE
8
BLACK
6
CONTINUOUS
10
77.3607
20
-142.194
11
77.5036
21
-142.765
0
LINE
8
BLACK
6
CONTINUOUS
10
77.5036
20
-142.765
11
77.5036
21
-143.479
0
LINE
8
BLACK
6
CONTINUOUS
10
77.5036
20
-143.479
11
77.3607
21
-144.051
0
LINE
8
BLACK
6
CONTINUOUS
10
77.3607
20
-144.051
11
77.2179
21
-144.336
0
LINE
8
BLACK
6
CONTINUOUS
10
77.2179
20
-144.336
11
77.075
21
-144.479
0
LINE
8
BLACK
6
CONTINUOUS
10
77.075
20
-144.479
11
76.7893
21
-144.622
0
LINE
8
BLACK
6
CONTINUOUS
10
76.7893
20
-144.622
11
76.5036
21
-144.622
0
LINE
8
BLACK
6
CONTINUOUS
10
76.5036
20
-144.622
11
76.2179
21
-144.479
0
LINE
8
BLACK
6
CONTINUOUS
10
76.2179
20
-144.479
11
76.075
21
-144.336
0
LINE
8
BLACK
6
CONTINUOUS
10
76.075
20
-144.336
11
75.9321
21
-144.051
0
LINE
8
BLACK
6
CONTINUOUS
10
75.9321
20
-144.051
11
75.7893
21
-143.479
0
LINE
8
BLACK
6
CONTINUOUS
10
75.7893
20
-143.479
11
75.7893
21
-142.765
0
LINE
8
BLACK
6
CONTINUOUS
10
75.7893
20
-142.765
11
75.9321
21
-142.194
0
LINE
8
BLACK
6
CONTINUOUS
10
75.9321
20
-142.194
11
76.075
21
-141.908
0
LINE
8
BLACK
6
CONTINUOUS
10
76.075
20
-141.908
11
76.2179
21
-141.765
0
LINE
8
BLACK
6
CONTINUOUS
10
76.2179
20
-141.765
11
76.5036
21
-141.622
0
LINE
8
BLACK
6
CONTINUOUS
10
78.7893
20
-144.622
11
78.7893
21
-142.622
0
LINE
8
BLACK
6
CONTINUOUS
10
78.7893
20
-142.908
11
78.9321
21
-142.765
0
LINE
8
BLACK
6
CONTINUOUS
10
78.9321
20
-142.765
11
79.2179
21
-142.622
0
LINE
8
BLACK
6
CONTINUOUS
10
79.2179
20
-142.622
11
79.6464
21
-142.622
0
LINE
8
BLACK
6
CONTINUOUS
10
79.6464
20
-142.622
11
79.9321
21
-142.765
0
LINE
8
BLACK
6
CONTINUOUS
10
79.9321
20
-142.765
11
80.075
21
-143.051
0
LINE
8
BLACK
6
CONTINUOUS
10
80.075
20
-143.051
11
80.075
21
-144.622
0
LINE
8
BLACK
6
CONTINUOUS
10
80.075
20
-143.051
11
80.2179
21
-142.765
0
LINE
8
BLACK
6
CONTINUOUS
10
80.2179
20
-142.765
11
80.5036
21
-142.622
0
LINE
8
BLACK
6
CONTINUOUS
10
80.5036
20
-142.622
11
80.9321
21
-142.622
0
LINE
8
BLACK
6
CONTINUOUS
10
80.9321
20
-142.622
11
81.2179
21
-142.765
0
LINE
8
BLACK
6
CONTINUOUS
10
81.2179
20
-142.765
11
81.3607
21
-143.051
0
LINE
8
BLACK
6
CONTINUOUS
10
81.3607
20
-143.051
11
81.3607
21
-144.622
0
LINE
8
BLACK
6
CONTINUOUS
10
82.7893
20
-144.622
11
82.7893
21
-142.622
0
LINE
8
BLACK
6
CONTINUOUS
10
82.7893
20
-142.908
11
82.9321
21
-142.765
0
LINE
8
BLACK
6
CONTINUOUS
10
82.9321
20
-142.765
11
83.2179
21
-142.622
0
LINE
8
BLACK
6
CONTINUOUS
10
83.2179
20
-142.622
11
83.6464
21
-142.622
0
LINE
8
BLACK
6
CONTINUOUS
10
83.6464
20
-142.622
11
83.9321
21
-142.765
0
LINE
8
BLACK
6
CONTINUOUS
10
83.9321
20
-142.765
11
84.075
21
-143.051
0
LINE
8
BLACK
6
CONTINUOUS
10
84.075
20
-143.051
11
84.075
21
-144.622
0
LINE
8
BLACK
6
CONTINUOUS
10
84.075
20
-143.051
11
84.2179
21
-142.765
0
LINE
8
BLACK
6
CONTINUOUS
10
84.2179
20
-142.765
11
84.5036
21
-142.622
0
LINE
8
BLACK
6
CONTINUOUS
10
84.5036
20
-142.622
11
84.9321
21
-142.622
0
LINE
8
BLACK
6
CONTINUOUS
10
84.9321
20
-142.622
11
85.2179
21
-142.765
0
LINE
8
BLACK
6
CONTINUOUS
10
85.2179
20
-142.765
11
85.3607
21
-143.051
0
LINE
8
BLACK
6
CONTINUOUS
10
85.3607
20
-143.051
11
85.3607
21
-144.622
0
LINE
8
BLACK
6
CONTINUOUS
10
91.2179
20
-141.479
11
88.6464
21
-145.336
0
LINE
8
BLACK
6
CONTINUOUS
10
95.075
20
-141.622
11
95.3607
21
-141.622
0
LINE
8
BLACK
6
CONTINUOUS
10
95.3607
20
-141.622
11
95.6464
21
-141.765
0
LINE
8
BLACK
6
CONTINUOUS
10
95.6464
20
-141.765
11
95.7893
21
-141.908
0
LINE
8
BLACK
6
CONTINUOUS
10
95.7893
20
-141.908
11
95.9321
21
-142.194
0
LINE
8
BLACK
6
CONTINUOUS
10
95.9321
20
-142.194
11
96.075
21
-142.765
0
LINE
8
BLACK
6
CONTINUOUS
10
96.075
20
-142.765
11
96.075
21
-143.479
0
LINE
8
BLACK
6
CONTINUOUS
10
96.075
20
-143.479
11
95.9321
21
-144.051
0
LINE
8
BLACK
6
CONTINUOUS
10
95.9321
20
-144.051
11
95.7893
21
-144.336
0
LINE
8
BLACK
6
CONTINUOUS
10
95.7893
20
-144.336
11
95.6464
21
-144.479
0
LINE
8
BLACK
6
CONTINUOUS
10
95.6464
20
-144.479
11
95.3607
21
-144.622
0
LINE
8
BLACK
6
CONTINUOUS
10
95.3607
20
-144.622
11
95.075
21
-144.622
0
LINE
8
BLACK
6
CONTINUOUS
10
95.075
20
-144.622
11
94.7893
21
-144.479
0
LINE
8
BLACK
6
CONTINUOUS
10
94.7893
20
-144.479
11
94.6464
21
-144.336
0
LINE
8
BLACK
6
CONTINUOUS
10
94.6464
20
-144.336
11
94.5036
21
-144.051
0
LINE
8
BLACK
6
CONTINUOUS
10
94.5036
20
-144.051
11
94.3607
21
-143.479
0
LINE
8
BLACK
6
CONTINUOUS
10
94.3607
20
-143.479
11
94.3607
21
-142.765
0
LINE
8
BLACK
6
CONTINUOUS
10
94.3607
20
-142.765
11
94.5036
21
-142.194
0
LINE
8
BLACK
6
CONTINUOUS
10
94.5036
20
-142.194
11
94.6464
21
-141.908
0
LINE
8
BLACK
6
CONTINUOUS
10
94.6464
20
-141.908
11
94.7893
21
-141.765
0
LINE
8
BLACK
6
CONTINUOUS
10
94.7893
20
-141.765
11
95.075
21
-141.622
0
LINE
8
BLACK
6
CONTINUOUS
10
97.3607
20
-144.336
11
97.5036
21
-144.479
0
LINE
8
BLACK
6
CONTINUOUS
10
97.5036
20
-144.479
11
97.3607
21
-144.622
0
LINE
8
BLACK
6
CONTINUOUS
10
97.3607
20
-144.622
11
97.2179
21
-144.479
0
LINE
8
BLACK
6
CONTINUOUS
10
97.2179
20
-144.479
11
97.3607
21
-144.336
0
LINE
8
BLACK
6
CONTINUOUS
10
97.3607
20
-144.336
11
97.3607
21
-144.622
0
LINE
8
BLACK
6
CONTINUOUS
10
99.3607
20
-141.622
11
99.6464
21
-141.622
0
LINE
8
BLACK
6
CONTINUOUS
10
99.6464
20
-141.622
11
99.9321
21
-141.765
0
LINE
8
BLACK
6
CONTINUOUS
10
99.9321
20
-141.765
11
100.075
21
-141.908
0
LINE
8
BLACK
6
CONTINUOUS
10
100.075
20
-141.908
11
100.218
21
-142.194
0
LINE
8
BLACK
6
CONTINUOUS
10
100.218
20
-142.194
11
100.361
21
-142.765
0
LINE
8
BLACK
6
CONTINUOUS
10
100.361
20
-142.765
11
100.361
21
-143.479
0
LINE
8
BLACK
6
CONTINUOUS
10
100.361
20
-143.479
11
100.218
21
-144.051
0
LINE
8
BLACK
6
CONTINUOUS
10
100.218
20
-144.051
11
100.075
21
-144.336
0
LINE
8
BLACK
6
CONTINUOUS
10
100.075
20
-144.336
11
99.9321
21
-144.479
0
LINE
8
BLACK
6
CONTINUOUS
10
99.9321
20
-144.479
11
99.6464
21
-144.622
0
LINE
8
BLACK
6
CONTINUOUS
10
99.6464
20
-144.622
11
99.3607
21
-144.622
0
LINE
8
BLACK
6
CONTINUOUS
10
99.3607
20
-144.622
11
99.075
21
-144.479
0
LINE
8
BLACK
6
CONTINUOUS
10
99.075
20
-144.479
11
98.9321
21
-144.336
0
LINE
8
BLACK
6
CONTINUOUS
10
98.9321
20
-144.336
11
98.7893
21
-144.051
0
LINE
8
BLACK
6
CONTINUOUS
10
98.7893
20
-144.051
11
98.6464
21
-143.479
0
LINE
8
BLACK
6
CONTINUOUS
10
98.6464
20
-143.479
11
98.6464
21
-142.765
0
LINE
8
BLACK
6
CONTINUOUS
10
98.6464
20
-142.765
11
98.7893
21
-142.194
0
LINE
8
BLACK
6
CONTINUOUS
10
98.7893
20
-142.194
11
98.9321
21
-141.908
0
LINE
8
BLACK
6
CONTINUOUS
10
98.9321
20
-141.908
11
99.075
21
-141.765
0
LINE
8
BLACK
6
CONTINUOUS
10
99.075
20
-141.765
11
99.3607
21
-141.622
0
LINE
8
BLACK
6
CONTINUOUS
10
101.361
20
-141.622
11
103.218
21
-141.622
0
LINE
8
BLACK
6
CONTINUOUS
10
103.218
20
-141.622
11
102.218
21
-142.765
0
LINE
8
BLACK
6
CONTINUOUS
10
102.218
20
-142.765
11
102.646
21
-142.765
0
LINE
8
BLACK
6
CONTINUOUS
10
102.646
20
-142.765
11
102.932
21
-142.908
0
LINE
8
BLACK
6
CONTINUOUS
10
102.932
20
-142.908
11
103.075
21
-143.051
0
LINE
8
BLACK
6
CONTINUOUS
10
103.075
20
-143.051
11
103.218
21
-143.336
0
LINE
8
BLACK
6
CONTINUOUS
10
103.218
20
-143.336
11
103.218
21
-144.051
0
LINE
8
BLACK
6
CONTINUOUS
10
103.218
20
-144.051
11
103.075
21
-144.336
0
LINE
8
BLACK
6
CONTINUOUS
10
103.075
20
-144.336
11
102.932
21
-144.479
0
LINE
8
BLACK
6
CONTINUOUS
10
102.932
20
-144.479
11
102.646
21
-144.622
0
LINE
8
BLACK
6
CONTINUOUS
10
102.646
20
-144.622
11
101.789
21
-144.622
0
LINE
8
BLACK
6
CONTINUOUS
10
101.789
20
-144.622
11
101.504
21
-144.479
0
LINE
8
BLACK
6
CONTINUOUS
10
101.504
20
-144.479
11
101.361
21
-144.336
0
LINE
8
BLACK
6
CONTINUOUS
10
106.075
20
-144.622
11
104.361
21
-144.622
0
LINE
8
BLACK
6
CONTINUOUS
10
105.218
20
-144.622
11
105.218
21
-141.622
0
LINE
8
BLACK
6
CONTINUOUS
10
105.218
20
-141.622
11
104.932
21
-142.051
0
LINE
8
BLACK
6
CONTINUOUS
10
104.932
20
-142.051
11
104.646
21
-142.336
0
LINE
8
BLACK
6
CONTINUOUS
10
104.646
20
-142.336
11
104.361
21
-142.479
0
LINE
8
BLACK
6
CONTINUOUS
10
107.218
20
-141.622
11
107.218
21
-142.194
0
LINE
8
BLACK
6
CONTINUOUS
10
108.361
20
-141.622
11
108.361
21
-142.194
0
LINE
8
BLACK
6
CONTINUOUS
10
112.789
20
-145.765
11
112.646
21
-145.622
0
LINE
8
BLACK
6
CONTINUOUS
10
112.646
20
-145.622
11
112.361
21
-145.194
0
LINE
8
BLACK
6
CONTINUOUS
10
112.361
20
-145.194
11
112.218
21
-144.908
0
LINE
8
BLACK
6
CONTINUOUS
10
112.218
20
-144.908
11
112.075
21
-144.479
0
LINE
8
BLACK
6
CONTINUOUS
10
112.075
20
-144.479
11
111.932
21
-143.765
0
LINE
8
BLACK
6
CONTINUOUS
10
111.932
20
-143.765
11
111.932
21
-143.194
0
LINE
8
BLACK
6
CONTINUOUS
10
111.932
20
-143.194
11
112.075
21
-142.479
0
LINE
8
BLACK
6
CONTINUOUS
10
112.075
20
-142.479
11
112.218
21
-142.051
0
LINE
8
BLACK
6
CONTINUOUS
10
112.218
20
-142.051
11
112.361
21
-141.765
0
LINE
8
BLACK
6
CONTINUOUS
10
112.361
20
-141.765
11
112.646
21
-141.336
0
LINE
8
BLACK
6
CONTINUOUS
10
112.646
20
-141.336
11
112.789
21
-141.194
0
LINE
8
BLACK
6
CONTINUOUS
10
113.789
20
-141.908
11
113.932
21
-141.765
0
LINE
8
BLACK
6
CONTINUOUS
10
113.932
20
-141.765
11
114.218
21
-141.622
0
LINE
8
BLACK
6
CONTINUOUS
10
114.218
20
-141.622
11
114.932
21
-141.622
0
LINE
8
BLACK
6
CONTINUOUS
10
114.932
20
-141.622
11
115.218
21
-141.765
0
LINE
8
BLACK
6
CONTINUOUS
10
115.218
20
-141.765
11
115.361
21
-141.908
0
LINE
8
BLACK
6
CONTINUOUS
10
115.361
20
-141.908
11
115.504
21
-142.194
0
LINE
8
BLACK
6
CONTINUOUS
10
115.504
20
-142.194
11
115.504
21
-142.479
0
LINE
8
BLACK
6
CONTINUOUS
10
115.504
20
-142.479
11
115.361
21
-142.908
0
LINE
8
BLACK
6
CONTINUOUS
10
115.361
20
-142.908
11
113.646
21
-144.622
0
LINE
8
BLACK
6
CONTINUOUS
10
113.646
20
-144.622
11
115.504
21
-144.622
0
LINE
8
BLACK
6
CONTINUOUS
10
119.075
20
-144.622
11
119.075
21
-141.622
0
LINE
8
BLACK
6
CONTINUOUS
10
120.361
20
-144.622
11
120.361
21
-143.051
0
LINE
8
BLACK
6
CONTINUOUS
10
120.361
20
-143.051
11
120.218
21
-142.765
0
LINE
8
BLACK
6
CONTINUOUS
10
120.218
20
-142.765
11
119.932
21
-142.622
0
LINE
8
BLACK
6
CONTINUOUS
10
119.932
20
-142.622
11
119.504
21
-142.622
0
LINE
8
BLACK
6
CONTINUOUS
10
119.504
20
-142.622
11
119.218
21
-142.765
0
LINE
8
BLACK
6
CONTINUOUS
10
119.218
20
-142.765
11
119.075
21
-142.908
0
LINE
8
BLACK
6
CONTINUOUS
10
122.218
20
-144.622
11
121.932
21
-144.479
0
LINE
8
BLACK
6
CONTINUOUS
10
121.932
20
-144.479
11
121.789
21
-144.336
0
LINE
8
BLACK
6
CONTINUOUS
10
121.789
20
-144.336
11
121.646
21
-144.051
0
LINE
8
BLACK
6
CONTINUOUS
10
121.646
20
-144.051
11
121.646
21
-143.194
0
LINE
8
BLACK
6
CONTINUOUS
10
121.646
20
-143.194
11
121.789
21
-142.908
0
LINE
8
BLACK
6
CONTINUOUS
10
121.789
20
-142.908
11
121.932
21
-142.765
0
LINE
8
BLACK
6
CONTINUOUS
10
121.932
20
-142.765
11
122.218
21
-142.622
0
LINE
8
BLACK
6
CONTINUOUS
10
122.218
20
-142.622
11
122.646
21
-142.622
0
LINE
8
BLACK
6
CONTINUOUS
10
122.646
20
-142.622
11
122.932
21
-142.765
0
LINE
8
BLACK
6
CONTINUOUS
10
122.932
20
-142.765
11
123.075
21
-142.908
0
LINE
8
BLACK
6
CONTINUOUS
10
123.075
20
-142.908
11
123.218
21
-143.194
0
LINE
8
BLACK
6
CONTINUOUS
10
123.218
20
-143.194
11
123.218
21
-144.051
0
LINE
8
BLACK
6
CONTINUOUS
10
123.218
20
-144.051
11
123.075
21
-144.336
0
LINE
8
BLACK
6
CONTINUOUS
10
123.075
20
-144.336
11
122.932
21
-144.479
0
LINE
8
BLACK
6
CONTINUOUS
10
122.932
20
-144.479
11
122.646
21
-144.622
0
LINE
8
BLACK
6
CONTINUOUS
10
122.646
20
-144.622
11
122.218
21
-144.622
0
LINE
8
BLACK
6
CONTINUOUS
10
124.932
20
-144.622
11
124.646
21
-144.479
0
LINE
8
BLACK
6
CONTINUOUS
10
124.646
20
-144.479
11
124.504
21
-144.194
0
LINE
8
BLACK
6
CONTINUOUS
10
124.504
20
-144.194
11
124.504
21
-141.622
0
LINE
8
BLACK
6
CONTINUOUS
10
127.218
20
-144.479
11
126.932
21
-144.622
0
LINE
8
BLACK
6
CONTINUOUS
10
126.932
20
-144.622
11
126.361
21
-144.622
0
LINE
8
BLACK
6
CONTINUOUS
10
126.361
20
-144.622
11
126.075
21
-144.479
0
LINE
8
BLACK
6
CONTINUOUS
10
126.075
20
-144.479
11
125.932
21
-144.194
0
LINE
8
BLACK
6
CONTINUOUS
10
125.932
20
-144.194
11
125.932
21
-143.051
0
LINE
8
BLACK
6
CONTINUOUS
10
125.932
20
-143.051
11
126.075
21
-142.765
0
LINE
8
BLACK
6
CONTINUOUS
10
126.075
20
-142.765
11
126.361
21
-142.622
0
LINE
8
BLACK
6
CONTINUOUS
10
126.361
20
-142.622
11
126.932
21
-142.622
0
LINE
8
BLACK
6
CONTINUOUS
10
126.932
20
-142.622
11
127.218
21
-142.765
0
LINE
8
BLACK
6
CONTINUOUS
10
127.218
20
-142.765
11
127.361
21
-143.051
0
LINE
8
BLACK
6
CONTINUOUS
10
127.361
20
-143.051
11
127.361
21
-143.336
0
LINE
8
BLACK
6
CONTINUOUS
10
127.361
20
-143.336
11
125.932
21
-143.622
0
LINE
8
BLACK
6
CONTINUOUS
10
128.504
20
-144.479
11
128.789
21
-144.622
0
LINE
8
BLACK
6
CONTINUOUS
10
128.789
20
-144.622
11
129.361
21
-144.622
0
LINE
8
BLACK
6
CONTINUOUS
10
129.361
20
-144.622
11
129.646
21
-144.479
0
LINE
8
BLACK
6
CONTINUOUS
10
129.646
20
-144.479
11
129.789
21
-144.194
0
LINE
8
BLACK
6
CONTINUOUS
10
129.789
20
-144.194
11
129.789
21
-144.051
0
LINE
8
BLACK
6
CONTINUOUS
10
129.789
20
-144.051
11
129.646
21
-143.765
0
LINE
8
BLACK
6
CONTINUOUS
10
129.646
20
-143.765
11
129.361
21
-143.622
0
LINE
8
BLACK
6
CONTINUOUS
10
129.361
20
-143.622
11
128.932
21
-143.622
0
LINE
8
BLACK
6
CONTINUOUS
10
128.932
20
-143.622
11
128.646
21
-143.479
0
LINE
8
BLACK
6
CONTINUOUS
10
128.646
20
-143.479
11
128.504
21
-143.194
0
LINE
8
BLACK
6
CONTINUOUS
10
128.504
20
-143.194
11
128.504
21
-143.051
0
LINE
8
BLACK
6
CONTINUOUS
10
128.504
20
-143.051
11
128.646
21
-142.765
0
LINE
8
BLACK
6
CONTINUOUS
10
128.646
20
-142.765
11
128.932
21
-142.622
0
LINE
8
BLACK
6
CONTINUOUS
10
128.932
20
-142.622
11
129.361
21
-142.622
0
LINE
8
BLACK
6
CONTINUOUS
10
129.361
20
-142.622
11
129.646
21
-142.765
0
LINE
8
BLACK
6
CONTINUOUS
10
130.789
20
-145.765
11
130.932
21
-145.622
0
LINE
8
BLACK
6
CONTINUOUS
10
130.932
20
-145.622
11
131.218
21
-145.194
0
LINE
8
BLACK
6
CONTINUOUS
10
131.218
20
-145.194
11
131.361
21
-144.908
0
LINE
8
BLACK
6
CONTINUOUS
10
131.361
20
-144.908
11
131.504
21
-144.479
0
LINE
8
BLACK
6
CONTINUOUS
10
131.504
20
-144.479
11
131.646
21
-143.765
0
LINE
8
BLACK
6
CONTINUOUS
10
131.646
20
-143.765
11
131.646
21
-143.194
0
LINE
8
BLACK
6
CONTINUOUS
10
131.646
20
-143.194
11
131.504
21
-142.479
0
LINE
8
BLACK
6
CONTINUOUS
10
131.504
20
-142.479
11
131.361
21
-142.051
0
LINE
8
BLACK
6
CONTINUOUS
10
131.361
20
-142.051
11
131.218
21
-141.765
0
LINE
8
BLACK
6
CONTINUOUS
10
131.218
20
-141.765
11
130.932
21
-141.336
0
LINE
8
BLACK
6
CONTINUOUS
10
130.932
20
-141.336
11
130.789
21
-141.194
0
LINE
8
BLACK
6
CONTINUOUS
10
64.975
20
-146.75
11
65.925
21
-147.7
0
LINE
8
BLACK
6
CONTINUOUS
10
65.925
20
-146.75
11
64.975
21
-147.7
0
CIRCLE
8
BLACK
10
65.45
20
-147.225
40
0.475
0
LINE
8
BLACK
6
CONTINUOUS
10
69.3607
20
-145.582
11
69.6464
21
-145.582
0
LINE
8
BLACK
6
CONTINUOUS
10
69.6464
20
-145.582
11
69.9321
21
-145.725
0
LINE
8
BLACK
6
CONTINUOUS
10
69.9321
20
-145.725
11
70.075
21
-145.868
0
LINE
8
BLACK
6
CONTINUOUS
10
70.075
20
-145.868
11
70.2179
21
-146.154
0
LINE
8
BLACK
6
CONTINUOUS
10
70.2179
20
-146.154
11
70.3607
21
-146.725
0
LINE
8
BLACK
6
CONTINUOUS
10
70.3607
20
-146.725
11
70.3607
21
-147.439
0
LINE
8
BLACK
6
CONTINUOUS
10
70.3607
20
-147.439
11
70.2179
21
-148.011
0
LINE
8
BLACK
6
CONTINUOUS
10
70.2179
20
-148.011
11
70.075
21
-148.296
0
LINE
8
BLACK
6
CONTINUOUS
10
70.075
20
-148.296
11
69.9321
21
-148.439
0
LINE
8
BLACK
6
CONTINUOUS
10
69.9321
20
-148.439
11
69.6464
21
-148.582
0
LINE
8
BLACK
6
CONTINUOUS
10
69.6464
20
-148.582
11
69.3607
21
-148.582
0
LINE
8
BLACK
6
CONTINUOUS
10
69.3607
20
-148.582
11
69.075
21
-148.439
0
LINE
8
BLACK
6
CONTINUOUS
10
69.075
20
-148.439
11
68.9321
21
-148.296
0
LINE
8
BLACK
6
CONTINUOUS
10
68.9321
20
-148.296
11
68.7893
21
-148.011
0
LINE
8
BLACK
6
CONTINUOUS
10
68.7893
20
-148.011
11
68.6464
21
-147.439
0
LINE
8
BLACK
6
CONTINUOUS
10
68.6464
20
-147.439
11
68.6464
21
-146.725
0
LINE
8
BLACK
6
CONTINUOUS
10
68.6464
20
-146.725
11
68.7893
21
-146.154
0
LINE
8
BLACK
6
CONTINUOUS
10
68.7893
20
-146.154
11
68.9321
21
-145.868
0
LINE
8
BLACK
6
CONTINUOUS
10
68.9321
20
-145.868
11
69.075
21
-145.725
0
LINE
8
BLACK
6
CONTINUOUS
10
69.075
20
-145.725
11
69.3607
21
-145.582
0
LINE
8
BLACK
6
CONTINUOUS
10
71.6464
20
-148.296
11
71.7893
21
-148.439
0
LINE
8
BLACK
6
CONTINUOUS
10
71.7893
20
-148.439
11
71.6464
21
-148.582
0
LINE
8
BLACK
6
CONTINUOUS
10
71.6464
20
-148.582
11
71.5036
21
-148.439
0
LINE
8
BLACK
6
CONTINUOUS
10
71.5036
20
-148.439
11
71.6464
21
-148.296
0
LINE
8
BLACK
6
CONTINUOUS
10
71.6464
20
-148.296
11
71.6464
21
-148.582
0
LINE
8
BLACK
6
CONTINUOUS
10
73.2179
20
-148.582
11
73.7893
21
-148.582
0
LINE
8
BLACK
6
CONTINUOUS
10
73.7893
20
-148.582
11
74.075
21
-148.439
0
LINE
8
BLACK
6
CONTINUOUS
10
74.075
20
-148.439
11
74.2179
21
-148.296
0
LINE
8
BLACK
6
CONTINUOUS
10
74.2179
20
-148.296
11
74.5036
21
-147.868
0
LINE
8
BLACK
6
CONTINUOUS
10
74.5036
20
-147.868
11
74.6464
21
-147.296
0
LINE
8
BLACK
6
CONTINUOUS
10
74.6464
20
-147.296
11
74.6464
21
-146.154
0
LINE
8
BLACK
6
CONTINUOUS
10
74.6464
20
-146.154
11
74.5036
21
-145.868
0
LINE
8
BLACK
6
CONTINUOUS
10
74.5036
20
-145.868
11
74.3607
21
-145.725
0
LINE
8
BLACK
6
CONTINUOUS
10
74.3607
20
-145.725
11
74.075
21
-145.582
0
LINE
8
BLACK
6
CONTINUOUS
10
74.075
20
-145.582
11
73.5036
21
-145.582
0
LINE
8
BLACK
6
CONTINUOUS
10
73.5036
20
-145.582
11
73.2179
21
-145.725
0
LINE
8
BLACK
6
CONTINUOUS
10
73.2179
20
-145.725
11
73.075
21
-145.868
0
LINE
8
BLACK
6
CONTINUOUS
10
73.075
20
-145.868
11
72.9321
21
-146.154
0
LINE
8
BLACK
6
CONTINUOUS
10
72.9321
20
-146.154
11
72.9321
21
-146.868
0
LINE
8
BLACK
6
CONTINUOUS
10
72.9321
20
-146.868
11
73.075
21
-147.154
0
LINE
8
BLACK
6
CONTINUOUS
10
73.075
20
-147.154
11
73.2179
21
-147.296
0
LINE
8
BLACK
6
CONTINUOUS
10
73.2179
20
-147.296
11
73.5036
21
-147.439
0
LINE
8
BLACK
6
CONTINUOUS
10
73.5036
20
-147.439
11
74.075
21
-147.439
0
LINE
8
BLACK
6
CONTINUOUS
10
74.075
20
-147.439
11
74.3607
21
-147.296
0
LINE
8
BLACK
6
CONTINUOUS
10
74.3607
20
-147.296
11
74.5036
21
-147.154
0
LINE
8
BLACK
6
CONTINUOUS
10
74.5036
20
-147.154
11
74.6464
21
-146.868
0
LINE
8
BLACK
6
CONTINUOUS
10
77.3607
20
-145.582
11
75.9321
21
-145.582
0
LINE
8
BLACK
6
CONTINUOUS
10
75.9321
20
-145.582
11
75.7893
21
-147.011
0
LINE
8
BLACK
6
CONTINUOUS
10
75.7893
20
-147.011
11
75.9321
21
-146.868
0
LINE
8
BLACK
6
CONTINUOUS
10
75.9321
20
-146.868
11
76.2179
21
-146.725
0
LINE
8
BLACK
6
CONTINUOUS
10
76.2179
20
-146.725
11
76.9321
21
-146.725
0
LINE
8
BLACK
6
CONTINUOUS
10
76.9321
20
-146.725
11
77.2179
21
-146.868
0
LINE
8
BLACK
6
CONTINUOUS
10
77.2179
20
-146.868
11
77.3607
21
-147.011
0
LINE
8
BLACK
6
CONTINUOUS
10
77.3607
20
-147.011
11
77.5036
21
-147.296
0
LINE
8
BLACK
6
CONTINUOUS
10
77.5036
20
-147.296
11
77.5036
21
-148.011
0
LINE
8
BLACK
6
CONTINUOUS
10
77.5036
20
-148.011
11
77.3607
21
-148.296
0
LINE
8
BLACK
6
CONTINUOUS
10
77.3607
20
-148.296
11
77.2179
21
-148.439
0
LINE
8
BLACK
6
CONTINUOUS
10
77.2179
20
-148.439
11
76.9321
21
-148.582
0
LINE
8
BLACK
6
CONTINUOUS
10
76.9321
20
-148.582
11
76.2179
21
-148.582
0
LINE
8
BLACK
6
CONTINUOUS
10
76.2179
20
-148.582
11
75.9321
21
-148.439
0
LINE
8
BLACK
6
CONTINUOUS
10
75.9321
20
-148.439
11
75.7893
21
-148.296
0
LINE
8
BLACK
6
CONTINUOUS
10
78.7893
20
-148.582
11
78.7893
21
-146.582
0
LINE
8
BLACK
6
CONTINUOUS
10
78.7893
20
-146.868
11
78.9321
21
-146.725
0
LINE
8
BLACK
6
CONTINUOUS
10
78.9321
20
-146.725
11
79.2179
21
-146.582
0
LINE
8
BLACK
6
CONTINUOUS
10
79.2179
20
-146.582
11
79.6464
21
-146.582
0
LINE
8
BLACK
6
CONTINUOUS
10
79.6464
20
-146.582
11
79.9321
21
-146.725
0
LINE
8
BLACK
6
CONTINUOUS
10
79.9321
20
-146.725
11
80.075
21
-147.011
0
LINE
8
BLACK
6
CONTINUOUS
10
80.075
20
-147.011
11
80.075
21
-148.582
0
LINE
8
BLACK
6
CONTINUOUS
10
80.075
20
-147.011
11
80.2179
21
-146.725
0
LINE
8
BLACK
6
CONTINUOUS
10
80.2179
20
-146.725
11
80.5036
21
-146.582
0
LINE
8
BLACK
6
CONTINUOUS
10
80.5036
20
-146.582
11
80.9321
21
-146.582
0
LINE
8
BLACK
6
CONTINUOUS
10
80.9321
20
-146.582
11
81.2179
21
-146.725
0
LINE
8
BLACK
6
CONTINUOUS
10
81.2179
20
-146.725
11
81.3607
21
-147.011
0
LINE
8
BLACK
6
CONTINUOUS
10
81.3607
20
-147.011
11
81.3607
21
-148.582
0
LINE
8
BLACK
6
CONTINUOUS
10
82.7893
20
-148.582
11
82.7893
21
-146.582
0
LINE
8
BLACK
6
CONTINUOUS
10
82.7893
20
-146.868
11
82.9321
21
-146.725
0
LINE
8
BLACK
6
CONTINUOUS
10
82.9321
20
-146.725
11
83.2179
21
-146.582
0
LINE
8
BLACK
6
CONTINUOUS
10
83.2179
20
-146.582
11
83.6464
21
-146.582
0
LINE
8
BLACK
6
CONTINUOUS
10
83.6464
20
-146.582
11
83.9321
21
-146.725
0
LINE
8
BLACK
6
CONTINUOUS
10
83.9321
20
-146.725
11
84.075
21
-147.011
0
LINE
8
BLACK
6
CONTINUOUS
10
84.075
20
-147.011
11
84.075
21
-148.582
0
LINE
8
BLACK
6
CONTINUOUS
10
84.075
20
-147.011
11
84.2179
21
-146.725
0
LINE
8
BLACK
6
CONTINUOUS
10
84.2179
20
-146.725
11
84.5036
21
-146.582
0
LINE
8
BLACK
6
CONTINUOUS
10
84.5036
20
-146.582
11
84.9321
21
-146.582
0
LINE
8
BLACK
6
CONTINUOUS
10
84.9321
20
-146.582
11
85.2179
21
-146.725
0
LINE
8
BLACK
6
CONTINUOUS
10
85.2179
20
-146.725
11
85.3607
21
-147.011
0
LINE
8
BLACK
6
CONTINUOUS
10
85.3607
20
-147.011
11
85.3607
21
-148.582
0
LINE
8
BLACK
6
CONTINUOUS
10
91.2179
20
-145.439
11
88.6464
21
-149.296
0
LINE
8
BLACK
6
CONTINUOUS
10
95.075
20
-145.582
11
95.3607
21
-145.582
0
LINE
8
BLACK
6
CONTINUOUS
10
95.3607
20
-145.582
11
95.6464
21
-145.725
0
LINE
8
BLACK
6
CONTINUOUS
10
95.6464
20
-145.725
11
95.7893
21
-145.868
0
LINE
8
BLACK
6
CONTINUOUS
10
95.7893
20
-145.868
11
95.9321
21
-146.154
0
LINE
8
BLACK
6
CONTINUOUS
10
95.9321
20
-146.154
11
96.075
21
-146.725
0
LINE
8
BLACK
6
CONTINUOUS
10
96.075
20
-146.725
11
96.075
21
-147.439
0
LINE
8
BLACK
6
CONTINUOUS
10
96.075
20
-147.439
11
95.9321
21
-148.011
0
LINE
8
BLACK
6
CONTINUOUS
10
95.9321
20
-148.011
11
95.7893
21
-148.296
0
LINE
8
BLACK
6
CONTINUOUS
10
95.7893
20
-148.296
11
95.6464
21
-148.439
0
LINE
8
BLACK
6
CONTINUOUS
10
95.6464
20
-148.439
11
95.3607
21
-148.582
0
LINE
8
BLACK
6
CONTINUOUS
10
95.3607
20
-148.582
11
95.075
21
-148.582
0
LINE
8
BLACK
6
CONTINUOUS
10
95.075
20
-148.582
11
94.7893
21
-148.439
0
LINE
8
BLACK
6
CONTINUOUS
10
94.7893
20
-148.439
11
94.6464
21
-148.296
0
LINE
8
BLACK
6
CONTINUOUS
10
94.6464
20
-148.296
11
94.5036
21
-148.011
0
LINE
8
BLACK
6
CONTINUOUS
10
94.5036
20
-148.011
11
94.3607
21
-147.439
0
LINE
8
BLACK
6
CONTINUOUS
10
94.3607
20
-147.439
11
94.3607
21
-146.725
0
LINE
8
BLACK
6
CONTINUOUS
10
94.3607
20
-146.725
11
94.5036
21
-146.154
0
LINE
8
BLACK
6
CONTINUOUS
10
94.5036
20
-146.154
11
94.6464
21
-145.868
0
LINE
8
BLACK
6
CONTINUOUS
10
94.6464
20
-145.868
11
94.7893
21
-145.725
0
LINE
8
BLACK
6
CONTINUOUS
10
94.7893
20
-145.725
11
95.075
21
-145.582
0
LINE
8
BLACK
6
CONTINUOUS
10
97.3607
20
-148.296
11
97.5036
21
-148.439
0
LINE
8
BLACK
6
CONTINUOUS
10
97.5036
20
-148.439
11
97.3607
21
-148.582
0
LINE
8
BLACK
6
CONTINUOUS
10
97.3607
20
-148.582
11
97.2179
21
-148.439
0
LINE
8
BLACK
6
CONTINUOUS
10
97.2179
20
-148.439
11
97.3607
21
-148.296
0
LINE
8
BLACK
6
CONTINUOUS
10
97.3607
20
-148.296
11
97.3607
21
-148.582
0
LINE
8
BLACK
6
CONTINUOUS
10
99.3607
20
-145.582
11
99.6464
21
-145.582
0
LINE
8
BLACK
6
CONTINUOUS
10
99.6464
20
-145.582
11
99.9321
21
-145.725
0
LINE
8
BLACK
6
CONTINUOUS
10
99.9321
20
-145.725
11
100.075
21
-145.868
0
LINE
8
BLACK
6
CONTINUOUS
10
100.075
20
-145.868
11
100.218
21
-146.154
0
LINE
8
BLACK
6
CONTINUOUS
10
100.218
20
-146.154
11
100.361
21
-146.725
0
LINE
8
BLACK
6
CONTINUOUS
10
100.361
20
-146.725
11
100.361
21
-147.439
0
LINE
8
BLACK
6
CONTINUOUS
10
100.361
20
-147.439
11
100.218
21
-148.011
0
LINE
8
BLACK
6
CONTINUOUS
10
100.218
20
-148.011
11
100.075
21
-148.296
0
LINE
8
BLACK
6
CONTINUOUS
10
100.075
20
-148.296
11
99.9321
21
-148.439
0
LINE
8
BLACK
6
CONTINUOUS
10
99.9321
20
-148.439
11
99.6464
21
-148.582
0
LINE
8
BLACK
6
CONTINUOUS
10
99.6464
20
-148.582
11
99.3607
21
-148.582
0
LINE
8
BLACK
6
CONTINUOUS
10
99.3607
20
-148.582
11
99.075
21
-148.439
0
LINE
8
BLACK
6
CONTINUOUS
10
99.075
20
-148.439
11
98.9321
21
-148.296
0
LINE
8
BLACK
6
CONTINUOUS
10
98.9321
20
-148.296
11
98.7893
21
-148.011
0
LINE
8
BLACK
6
CONTINUOUS
10
98.7893
20
-148.011
11
98.6464
21
-147.439
0
LINE
8
BLACK
6
CONTINUOUS
10
98.6464
20
-147.439
11
98.6464
21
-146.725
0
LINE
8
BLACK
6
CONTINUOUS
10
98.6464
20
-146.725
11
98.7893
21
-146.154
0
LINE
8
BLACK
6
CONTINUOUS
10
98.7893
20
-146.154
11
98.9321
21
-145.868
0
LINE
8
BLACK
6
CONTINUOUS
10
98.9321
20
-145.868
11
99.075
21
-145.725
0
LINE
8
BLACK
6
CONTINUOUS
10
99.075
20
-145.725
11
99.3607
21
-145.582
0
LINE
8
BLACK
6
CONTINUOUS
10
101.361
20
-145.582
11
103.218
21
-145.582
0
LINE
8
BLACK
6
CONTINUOUS
10
103.218
20
-145.582
11
102.218
21
-146.725
0
LINE
8
BLACK
6
CONTINUOUS
10
102.218
20
-146.725
11
102.646
21
-146.725
0
LINE
8
BLACK
6
CONTINUOUS
10
102.646
20
-146.725
11
102.932
21
-146.868
0
LINE
8
BLACK
6
CONTINUOUS
10
102.932
20
-146.868
11
103.075
21
-147.011
0
LINE
8
BLACK
6
CONTINUOUS
10
103.075
20
-147.011
11
103.218
21
-147.296
0
LINE
8
BLACK
6
CONTINUOUS
10
103.218
20
-147.296
11
103.218
21
-148.011
0
LINE
8
BLACK
6
CONTINUOUS
10
103.218
20
-148.011
11
103.075
21
-148.296
0
LINE
8
BLACK
6
CONTINUOUS
10
103.075
20
-148.296
11
102.932
21
-148.439
0
LINE
8
BLACK
6
CONTINUOUS
10
102.932
20
-148.439
11
102.646
21
-148.582
0
LINE
8
BLACK
6
CONTINUOUS
10
102.646
20
-148.582
11
101.789
21
-148.582
0
LINE
8
BLACK
6
CONTINUOUS
10
101.789
20
-148.582
11
101.504
21
-148.439
0
LINE
8
BLACK
6
CONTINUOUS
10
101.504
20
-148.439
11
101.361
21
-148.296
0
LINE
8
BLACK
6
CONTINUOUS
10
104.218
20
-145.582
11
106.218
21
-145.582
0
LINE
8
BLACK
6
CONTINUOUS
10
106.218
20
-145.582
11
104.932
21
-148.582
0
LINE
8
BLACK
6
CONTINUOUS
10
107.218
20
-145.582
11
107.218
21
-146.154
0
LINE
8
BLACK
6
CONTINUOUS
10
108.361
20
-145.582
11
108.361
21
-146.154
0
LINE
8
BLACK
6
CONTINUOUS
10
112.789
20
-149.725
11
112.646
21
-149.582
0
LINE
8
BLACK
6
CONTINUOUS
10
112.646
20
-149.582
11
112.361
21
-149.154
0
LINE
8
BLACK
6
CONTINUOUS
10
112.361
20
-149.154
11
112.218
21
-148.868
0
LINE
8
BLACK
6
CONTINUOUS
10
112.218
20
-148.868
11
112.075
21
-148.439
0
LINE
8
BLACK
6
CONTINUOUS
10
112.075
20
-148.439
11
111.932
21
-147.725
0
LINE
8
BLACK
6
CONTINUOUS
10
111.932
20
-147.725
11
111.932
21
-147.154
0
LINE
8
BLACK
6
CONTINUOUS
10
111.932
20
-147.154
11
112.075
21
-146.439
0
LINE
8
BLACK
6
CONTINUOUS
10
112.075
20
-146.439
11
112.218
21
-146.011
0
LINE
8
BLACK
6
CONTINUOUS
10
112.218
20
-146.011
11
112.361
21
-145.725
0
LINE
8
BLACK
6
CONTINUOUS
10
112.361
20
-145.725
11
112.646
21
-145.296
0
LINE
8
BLACK
6
CONTINUOUS
10
112.646
20
-145.296
11
112.789
21
-145.154
0
LINE
8
BLACK
6
CONTINUOUS
10
115.218
20
-146.582
11
115.218
21
-148.582
0
LINE
8
BLACK
6
CONTINUOUS
10
114.504
20
-145.439
11
113.789
21
-147.582
0
LINE
8
BLACK
6
CONTINUOUS
10
113.789
20
-147.582
11
115.646
21
-147.582
0
LINE
8
BLACK
6
CONTINUOUS
10
119.075
20
-148.582
11
119.075
21
-145.582
0
LINE
8
BLACK
6
CONTINUOUS
10
120.361
20
-148.582
11
120.361
21
-147.011
0
LINE
8
BLACK
6
CONTINUOUS
10
120.361
20
-147.011
11
120.218
21
-146.725
0
LINE
8
BLACK
6
CONTINUOUS
10
120.218
20
-146.725
11
119.932
21
-146.582
0
LINE
8
BLACK
6
CONTINUOUS
10
119.932
20
-146.582
11
119.504
21
-146.582
0
LINE
8
BLACK
6
CONTINUOUS
10
119.504
20
-146.582
11
119.218
21
-146.725
0
LINE
8
BLACK
6
CONTINUOUS
10
119.218
20
-146.725
11
119.075
21
-146.868
0
LINE
8
BLACK
6
CONTINUOUS
10
122.218
20
-148.582
11
121.932
21
-148.439
0
LINE
8
BLACK
6
CONTINUOUS
10
121.932
20
-148.439
11
121.789
21
-148.296
0
LINE
8
BLACK
6
CONTINUOUS
10
121.789
20
-148.296
11
121.646
21
-148.011
0
LINE
8
BLACK
6
CONTINUOUS
10
121.646
20
-148.011
11
121.646
21
-147.154
0
LINE
8
BLACK
6
CONTINUOUS
10
121.646
20
-147.154
11
121.789
21
-146.868
0
LINE
8
BLACK
6
CONTINUOUS
10
121.789
20
-146.868
11
121.932
21
-146.725
0
LINE
8
BLACK
6
CONTINUOUS
10
121.932
20
-146.725
11
122.218
21
-146.582
0
LINE
8
BLACK
6
CONTINUOUS
10
122.218
20
-146.582
11
122.646
21
-146.582
0
LINE
8
BLACK
6
CONTINUOUS
10
122.646
20
-146.582
11
122.932
21
-146.725
0
LINE
8
BLACK
6
CONTINUOUS
10
122.932
20
-146.725
11
123.075
21
-146.868
0
LINE
8
BLACK
6
CONTINUOUS
10
123.075
20
-146.868
11
123.218
21
-147.154
0
LINE
8
BLACK
6
CONTINUOUS
10
123.218
20
-147.154
11
123.218
21
-148.011
0
LINE
8
BLACK
6
CONTINUOUS
10
123.218
20
-148.011
11
123.075
21
-148.296
0
LINE
8
BLACK
6
CONTINUOUS
10
123.075
20
-148.296
11
122.932
21
-148.439
0
LINE
8
BLACK
6
CONTINUOUS
10
122.932
20
-148.439
11
122.646
21
-148.582
0
LINE
8
BLACK
6
CONTINUOUS
10
122.646
20
-148.582
11
122.218
21
-148.582
0
LINE
8
BLACK
6
CONTINUOUS
10
124.932
20
-148.582
11
124.646
21
-148.439
0
LINE
8
BLACK
6
CONTINUOUS
10
124.646
20
-148.439
11
124.504
21
-148.154
0
LINE
8
BLACK
6
CONTINUOUS
10
124.504
20
-148.154
11
124.504
21
-145.582
0
LINE
8
BLACK
6
CONTINUOUS
10
127.218
20
-148.439
11
126.932
21
-148.582
0
LINE
8
BLACK
6
CONTINUOUS
10
126.932
20
-148.582
11
126.361
21
-148.582
0
LINE
8
BLACK
6
CONTINUOUS
10
126.361
20
-148.582
11
126.075
21
-148.439
0
LINE
8
BLACK
6
CONTINUOUS
10
126.075
20
-148.439
11
125.932
21
-148.154
0
LINE
8
BLACK
6
CONTINUOUS
10
125.932
20
-148.154
11
125.932
21
-147.011
0
LINE
8
BLACK
6
CONTINUOUS
10
125.932
20
-147.011
11
126.075
21
-146.725
0
LINE
8
BLACK
6
CONTINUOUS
10
126.075
20
-146.725
11
126.361
21
-146.582
0
LINE
8
BLACK
6
CONTINUOUS
10
126.361
20
-146.582
11
126.932
21
-146.582
0
LINE
8
BLACK
6
CONTINUOUS
10
126.932
20
-146.582
11
127.218
21
-146.725
0
LINE
8
BLACK
6
CONTINUOUS
10
127.218
20
-146.725
11
127.361
21
-147.011
0
LINE
8
BLACK
6
CONTINUOUS
10
127.361
20
-147.011
11
127.361
21
-147.296
0
LINE
8
BLACK
6
CONTINUOUS
10
127.361
20
-147.296
11
125.932
21
-147.582
0
LINE
8
BLACK
6
CONTINUOUS
10
128.504
20
-148.439
11
128.789
21
-148.582
0
LINE
8
BLACK
6
CONTINUOUS
10
128.789
20
-148.582
11
129.361
21
-148.582
0
LINE
8
BLACK
6
CONTINUOUS
10
129.361
20
-148.582
11
129.646
21
-148.439
0
LINE
8
BLACK
6
CONTINUOUS
10
129.646
20
-148.439
11
129.789
21
-148.154
0
LINE
8
BLACK
6
CONTINUOUS
10
129.789
20
-148.154
11
129.789
21
-148.011
0
LINE
8
BLACK
6
CONTINUOUS
10
129.789
20
-148.011
11
129.646
21
-147.725
0
LINE
8
BLACK
6
CONTINUOUS
10
129.646
20
-147.725
11
129.361
21
-147.582
0
LINE
8
BLACK
6
CONTINUOUS
10
129.361
20
-147.582
11
128.932
21
-147.582
0
LINE
8
BLACK
6
CONTINUOUS
10
128.932
20
-147.582
11
128.646
21
-147.439
0
LINE
8
BLACK
6
CONTINUOUS
10
128.646
20
-147.439
11
128.504
21
-147.154
0
LINE
8
BLACK
6
CONTINUOUS
10
128.504
20
-147.154
11
128.504
21
-147.011
0
LINE
8
BLACK
6
CONTINUOUS
10
128.504
20
-147.011
11
128.646
21
-146.725
0
LINE
8
BLACK
6
CONTINUOUS
10
128.646
20
-146.725
11
128.932
21
-146.582
0
LINE
8
BLACK
6
CONTINUOUS
10
128.932
20
-146.582
11
129.361
21
-146.582
0
LINE
8
BLACK
6
CONTINUOUS
10
129.361
20
-146.582
11
129.646
21
-146.725
0
LINE
8
BLACK
6
CONTINUOUS
10
130.789
20
-149.725
11
130.932
21
-149.582
0
LINE
8
BLACK
6
CONTINUOUS
10
130.932
20
-149.582
11
131.218
21
-149.154
0
LINE
8
BLACK
6
CONTINUOUS
10
131.218
20
-149.154
11
131.361
21
-148.868
0
LINE
8
BLACK
6
CONTINUOUS
10
131.361
20
-148.868
11
131.504
21
-148.439
0
LINE
8
BLACK
6
CONTINUOUS
10
131.504
20
-148.439
11
131.646
21
-147.725
0
LINE
8
BLACK
6
CONTINUOUS
10
131.646
20
-147.725
11
131.646
21
-147.154
0
LINE
8
BLACK
6
CONTINUOUS
10
131.646
20
-147.154
11
131.504
21
-146.439
0
LINE
8
BLACK
6
CONTINUOUS
10
131.504
20
-146.439
11
131.361
21
-146.011
0
LINE
8
BLACK
6
CONTINUOUS
10
131.361
20
-146.011
11
131.218
21
-145.725
0
LINE
8
BLACK
6
CONTINUOUS
10
131.218
20
-145.725
11
130.932
21
-145.296
0
LINE
8
BLACK
6
CONTINUOUS
10
130.932
20
-145.296
11
130.789
21
-145.154
0
LINE
8
BLACK
6
CONTINUOUS
10
64.925
20
-150.685
11
65.925
21
-151.685
0
LINE
8
BLACK
6
CONTINUOUS
10
65.925
20
-150.685
11
64.925
21
-151.685
0
LINE
8
BLACK
6
CONTINUOUS
10
65.425
20
-150.685
11
65.425
21
-151.685
0
LINE
8
BLACK
6
CONTINUOUS
10
64.925
20
-151.185
11
65.925
21
-151.185
0
LINE
8
BLACK
6
CONTINUOUS
10
70.3607
20
-152.542
11
68.6464
21
-152.542
0
LINE
8
BLACK
6
CONTINUOUS
10
69.5036
20
-152.542
11
69.5036
21
-149.542
0
LINE
8
BLACK
6
CONTINUOUS
10
69.5036
20
-149.542
11
69.2179
21
-149.971
0
LINE
8
BLACK
6
CONTINUOUS
10
69.2179
20
-149.971
11
68.9321
21
-150.256
0
LINE
8
BLACK
6
CONTINUOUS
10
68.9321
20
-150.256
11
68.6464
21
-150.399
0
LINE
8
BLACK
6
CONTINUOUS
10
71.6464
20
-152.256
11
71.7893
21
-152.399
0
LINE
8
BLACK
6
CONTINUOUS
10
71.7893
20
-152.399
11
71.6464
21
-152.542
0
LINE
8
BLACK
6
CONTINUOUS
10
71.6464
20
-152.542
11
71.5036
21
-152.399
0
LINE
8
BLACK
6
CONTINUOUS
10
71.5036
20
-152.399
11
71.6464
21
-152.256
0
LINE
8
BLACK
6
CONTINUOUS
10
71.6464
20
-152.256
11
71.6464
21
-152.542
0
LINE
8
BLACK
6
CONTINUOUS
10
73.6464
20
-149.542
11
73.9321
21
-149.542
0
LINE
8
BLACK
6
CONTINUOUS
10
73.9321
20
-149.542
11
74.2179
21
-149.685
0
LINE
8
BLACK
6
CONTINUOUS
10
74.2179
20
-149.685
11
74.3607
21
-149.828
0
LINE
8
BLACK
6
CONTINUOUS
10
74.3607
20
-149.828
11
74.5036
21
-150.114
0
LINE
8
BLACK
6
CONTINUOUS
10
74.5036
20
-150.114
11
74.6464
21
-150.685
0
LINE
8
BLACK
6
CONTINUOUS
10
74.6464
20
-150.685
11
74.6464
21
-151.399
0
LINE
8
BLACK
6
CONTINUOUS
10
74.6464
20
-151.399
11
74.5036
21
-151.971
0
LINE
8
BLACK
6
CONTINUOUS
10
74.5036
20
-151.971
11
74.3607
21
-152.256
0
LINE
8
BLACK
6
CONTINUOUS
10
74.3607
20
-152.256
11
74.2179
21
-152.399
0
LINE
8
BLACK
6
CONTINUOUS
10
74.2179
20
-152.399
11
73.9321
21
-152.542
0
LINE
8
BLACK
6
CONTINUOUS
10
73.9321
20
-152.542
11
73.6464
21
-152.542
0
LINE
8
BLACK
6
CONTINUOUS
10
73.6464
20
-152.542
11
73.3607
21
-152.399
0
LINE
8
BLACK
6
CONTINUOUS
10
73.3607
20
-152.399
11
73.2179
21
-152.256
0
LINE
8
BLACK
6
CONTINUOUS
10
73.2179
20
-152.256
11
73.075
21
-151.971
0
LINE
8
BLACK
6
CONTINUOUS
10
73.075
20
-151.971
11
72.9321
21
-151.399
0
LINE
8
BLACK
6
CONTINUOUS
10
72.9321
20
-151.399
11
72.9321
21
-150.685
0
LINE
8
BLACK
6
CONTINUOUS
10
72.9321
20
-150.685
11
73.075
21
-150.114
0
LINE
8
BLACK
6
CONTINUOUS
10
73.075
20
-150.114
11
73.2179
21
-149.828
0
LINE
8
BLACK
6
CONTINUOUS
10
73.2179
20
-149.828
11
73.3607
21
-149.685
0
LINE
8
BLACK
6
CONTINUOUS
10
73.3607
20
-149.685
11
73.6464
21
-149.542
0
LINE
8
BLACK
6
CONTINUOUS
10
76.5036
20
-149.542
11
76.7893
21
-149.542
0
LINE
8
BLACK
6
CONTINUOUS
10
76.7893
20
-149.542
11
77.075
21
-149.685
0
LINE
8
BLACK
6
CONTINUOUS
10
77.075
20
-149.685
11
77.2179
21
-149.828
0
LINE
8
BLACK
6
CONTINUOUS
10
77.2179
20
-149.828
11
77.3607
21
-150.114
0
LINE
8
BLACK
6
CONTINUOUS
10
77.3607
20
-150.114
11
77.5036
21
-150.685
0
LINE
8
BLACK
6
CONTINUOUS
10
77.5036
20
-150.685
11
77.5036
21
-151.399
0
LINE
8
BLACK
6
CONTINUOUS
10
77.5036
20
-151.399
11
77.3607
21
-151.971
0
LINE
8
BLACK
6
CONTINUOUS
10
77.3607
20
-151.971
11
77.2179
21
-152.256
0
LINE
8
BLACK
6
CONTINUOUS
10
77.2179
20
-152.256
11
77.075
21
-152.399
0
LINE
8
BLACK
6
CONTINUOUS
10
77.075
20
-152.399
11
76.7893
21
-152.542
0
LINE
8
BLACK
6
CONTINUOUS
10
76.7893
20
-152.542
11
76.5036
21
-152.542
0
LINE
8
BLACK
6
CONTINUOUS
10
76.5036
20
-152.542
11
76.2179
21
-152.399
0
LINE
8
BLACK
6
CONTINUOUS
10
76.2179
20
-152.399
11
76.075
21
-152.256
0
LINE
8
BLACK
6
CONTINUOUS
10
76.075
20
-152.256
11
75.9321
21
-151.971
0
LINE
8
BLACK
6
CONTINUOUS
10
75.9321
20
-151.971
11
75.7893
21
-151.399
0
LINE
8
BLACK
6
CONTINUOUS
10
75.7893
20
-151.399
11
75.7893
21
-150.685
0
LINE
8
BLACK
6
CONTINUOUS
10
75.7893
20
-150.685
11
75.9321
21
-150.114
0
LINE
8
BLACK
6
CONTINUOUS
10
75.9321
20
-150.114
11
76.075
21
-149.828
0
LINE
8
BLACK
6
CONTINUOUS
10
76.075
20
-149.828
11
76.2179
21
-149.685
0
LINE
8
BLACK
6
CONTINUOUS
10
76.2179
20
-149.685
11
76.5036
21
-149.542
0
LINE
8
BLACK
6
CONTINUOUS
10
78.7893
20
-152.542
11
78.7893
21
-150.542
0
LINE
8
BLACK
6
CONTINUOUS
10
78.7893
20
-150.828
11
78.9321
21
-150.685
0
LINE
8
BLACK
6
CONTINUOUS
10
78.9321
20
-150.685
11
79.2179
21
-150.542
0
LINE
8
BLACK
6
CONTINUOUS
10
79.2179
20
-150.542
11
79.6464
21
-150.542
0
LINE
8
BLACK
6
CONTINUOUS
10
79.6464
20
-150.542
11
79.9321
21
-150.685
0
LINE
8
BLACK
6
CONTINUOUS
10
79.9321
20
-150.685
11
80.075
21
-150.971
0
LINE
8
BLACK
6
CONTINUOUS
10
80.075
20
-150.971
11
80.075
21
-152.542
0
LINE
8
BLACK
6
CONTINUOUS
10
80.075
20
-150.971
11
80.2179
21
-150.685
0
LINE
8
BLACK
6
CONTINUOUS
10
80.2179
20
-150.685
11
80.5036
21
-150.542
0
LINE
8
BLACK
6
CONTINUOUS
10
80.5036
20
-150.542
11
80.9321
21
-150.542
0
LINE
8
BLACK
6
CONTINUOUS
10
80.9321
20
-150.542
11
81.2179
21
-150.685
0
LINE
8
BLACK
6
CONTINUOUS
10
81.2179
20
-150.685
11
81.3607
21
-150.971
0
LINE
8
BLACK
6
CONTINUOUS
10
81.3607
20
-150.971
11
81.3607
21
-152.542
0
LINE
8
BLACK
6
CONTINUOUS
10
82.7893
20
-152.542
11
82.7893
21
-150.542
0
LINE
8
BLACK
6
CONTINUOUS
10
82.7893
20
-150.828
11
82.9321
21
-150.685
0
LINE
8
BLACK
6
CONTINUOUS
10
82.9321
20
-150.685
11
83.2179
21
-150.542
0
LINE
8
BLACK
6
CONTINUOUS
10
83.2179
20
-150.542
11
83.6464
21
-150.542
0
LINE
8
BLACK
6
CONTINUOUS
10
83.6464
20
-150.542
11
83.9321
21
-150.685
0
LINE
8
BLACK
6
CONTINUOUS
10
83.9321
20
-150.685
11
84.075
21
-150.971
0
LINE
8
BLACK
6
CONTINUOUS
10
84.075
20
-150.971
11
84.075
21
-152.542
0
LINE
8
BLACK
6
CONTINUOUS
10
84.075
20
-150.971
11
84.2179
21
-150.685
0
LINE
8
BLACK
6
CONTINUOUS
10
84.2179
20
-150.685
11
84.5036
21
-150.542
0
LINE
8
BLACK
6
CONTINUOUS
10
84.5036
20
-150.542
11
84.9321
21
-150.542
0
LINE
8
BLACK
6
CONTINUOUS
10
84.9321
20
-150.542
11
85.2179
21
-150.685
0
LINE
8
BLACK
6
CONTINUOUS
10
85.2179
20
-150.685
11
85.3607
21
-150.971
0
LINE
8
BLACK
6
CONTINUOUS
10
85.3607
20
-150.971
11
85.3607
21
-152.542
0
LINE
8
BLACK
6
CONTINUOUS
10
91.2179
20
-149.399
11
88.6464
21
-153.256
0
LINE
8
BLACK
6
CONTINUOUS
10
95.075
20
-149.542
11
95.3607
21
-149.542
0
LINE
8
BLACK
6
CONTINUOUS
10
95.3607
20
-149.542
11
95.6464
21
-149.685
0
LINE
8
BLACK
6
CONTINUOUS
10
95.6464
20
-149.685
11
95.7893
21
-149.828
0
LINE
8
BLACK
6
CONTINUOUS
10
95.7893
20
-149.828
11
95.9321
21
-150.114
0
LINE
8
BLACK
6
CONTINUOUS
10
95.9321
20
-150.114
11
96.075
21
-150.685
0
LINE
8
BLACK
6
CONTINUOUS
10
96.075
20
-150.685
11
96.075
21
-151.399
0
LINE
8
BLACK
6
CONTINUOUS
10
96.075
20
-151.399
11
95.9321
21
-151.971
0
LINE
8
BLACK
6
CONTINUOUS
10
95.9321
20
-151.971
11
95.7893
21
-152.256
0
LINE
8
BLACK
6
CONTINUOUS
10
95.7893
20
-152.256
11
95.6464
21
-152.399
0
LINE
8
BLACK
6
CONTINUOUS
10
95.6464
20
-152.399
11
95.3607
21
-152.542
0
LINE
8
BLACK
6
CONTINUOUS
10
95.3607
20
-152.542
11
95.075
21
-152.542
0
LINE
8
BLACK
6
CONTINUOUS
10
95.075
20
-152.542
11
94.7893
21
-152.399
0
LINE
8
BLACK
6
CONTINUOUS
10
94.7893
20
-152.399
11
94.6464
21
-152.256
0
LINE
8
BLACK
6
CONTINUOUS
10
94.6464
20
-152.256
11
94.5036
21
-151.971
0
LINE
8
BLACK
6
CONTINUOUS
10
94.5036
20
-151.971
11
94.3607
21
-151.399
0
LINE
8
BLACK
6
CONTINUOUS
10
94.3607
20
-151.399
11
94.3607
21
-150.685
0
LINE
8
BLACK
6
CONTINUOUS
10
94.3607
20
-150.685
11
94.5036
21
-150.114
0
LINE
8
BLACK
6
CONTINUOUS
10
94.5036
20
-150.114
11
94.6464
21
-149.828
0
LINE
8
BLACK
6
CONTINUOUS
10
94.6464
20
-149.828
11
94.7893
21
-149.685
0
LINE
8
BLACK
6
CONTINUOUS
10
94.7893
20
-149.685
11
95.075
21
-149.542
0
LINE
8
BLACK
6
CONTINUOUS
10
97.3607
20
-152.256
11
97.5036
21
-152.399
0
LINE
8
BLACK
6
CONTINUOUS
10
97.5036
20
-152.399
11
97.3607
21
-152.542
0
LINE
8
BLACK
6
CONTINUOUS
10
97.3607
20
-152.542
11
97.2179
21
-152.399
0
LINE
8
BLACK
6
CONTINUOUS
10
97.2179
20
-152.399
11
97.3607
21
-152.256
0
LINE
8
BLACK
6
CONTINUOUS
10
97.3607
20
-152.256
11
97.3607
21
-152.542
0
LINE
8
BLACK
6
CONTINUOUS
10
99.3607
20
-149.542
11
99.6464
21
-149.542
0
LINE
8
BLACK
6
CONTINUOUS
10
99.6464
20
-149.542
11
99.9321
21
-149.685
0
LINE
8
BLACK
6
CONTINUOUS
10
99.9321
20
-149.685
11
100.075
21
-149.828
0
LINE
8
BLACK
6
CONTINUOUS
10
100.075
20
-149.828
11
100.218
21
-150.114
0
LINE
8
BLACK
6
CONTINUOUS
10
100.218
20
-150.114
11
100.361
21
-150.685
0
LINE
8
BLACK
6
CONTINUOUS
10
100.361
20
-150.685
11
100.361
21
-151.399
0
LINE
8
BLACK
6
CONTINUOUS
10
100.361
20
-151.399
11
100.218
21
-151.971
0
LINE
8
BLACK
6
CONTINUOUS
10
100.218
20
-151.971
11
100.075
21
-152.256
0
LINE
8
BLACK
6
CONTINUOUS
10
100.075
20
-152.256
11
99.9321
21
-152.399
0
LINE
8
BLACK
6
CONTINUOUS
10
99.9321
20
-152.399
11
99.6464
21
-152.542
0
LINE
8
BLACK
6
CONTINUOUS
10
99.6464
20
-152.542
11
99.3607
21
-152.542
0
LINE
8
BLACK
6
CONTINUOUS
10
99.3607
20
-152.542
11
99.075
21
-152.399
0
LINE
8
BLACK
6
CONTINUOUS
10
99.075
20
-152.399
11
98.9321
21
-152.256
0
LINE
8
BLACK
6
CONTINUOUS
10
98.9321
20
-152.256
11
98.7893
21
-151.971
0
LINE
8
BLACK
6
CONTINUOUS
10
98.7893
20
-151.971
11
98.6464
21
-151.399
0
LINE
8
BLACK
6
CONTINUOUS
10
98.6464
20
-151.399
11
98.6464
21
-150.685
0
LINE
8
BLACK
6
CONTINUOUS
10
98.6464
20
-150.685
11
98.7893
21
-150.114
0
LINE
8
BLACK
6
CONTINUOUS
10
98.7893
20
-150.114
11
98.9321
21
-149.828
0
LINE
8
BLACK
6
CONTINUOUS
10
98.9321
20
-149.828
11
99.075
21
-149.685
0
LINE
8
BLACK
6
CONTINUOUS
10
99.075
20
-149.685
11
99.3607
21
-149.542
0
LINE
8
BLACK
6
CONTINUOUS
10
101.361
20
-149.542
11
103.218
21
-149.542
0
LINE
8
BLACK
6
CONTINUOUS
10
103.218
20
-149.542
11
102.218
21
-150.685
0
LINE
8
BLACK
6
CONTINUOUS
10
102.218
20
-150.685
11
102.646
21
-150.685
0
LINE
8
BLACK
6
CONTINUOUS
10
102.646
20
-150.685
11
102.932
21
-150.828
0
LINE
8
BLACK
6
CONTINUOUS
10
102.932
20
-150.828
11
103.075
21
-150.971
0
LINE
8
BLACK
6
CONTINUOUS
10
103.075
20
-150.971
11
103.218
21
-151.256
0
LINE
8
BLACK
6
CONTINUOUS
10
103.218
20
-151.256
11
103.218
21
-151.971
0
LINE
8
BLACK
6
CONTINUOUS
10
103.218
20
-151.971
11
103.075
21
-152.256
0
LINE
8
BLACK
6
CONTINUOUS
10
103.075
20
-152.256
11
102.932
21
-152.399
0
LINE
8
BLACK
6
CONTINUOUS
10
102.932
20
-152.399
11
102.646
21
-152.542
0
LINE
8
BLACK
6
CONTINUOUS
10
102.646
20
-152.542
11
101.789
21
-152.542
0
LINE
8
BLACK
6
CONTINUOUS
10
101.789
20
-152.542
11
101.504
21
-152.399
0
LINE
8
BLACK
6
CONTINUOUS
10
101.504
20
-152.399
11
101.361
21
-152.256
0
LINE
8
BLACK
6
CONTINUOUS
10
104.646
20
-152.542
11
105.218
21
-152.542
0
LINE
8
BLACK
6
CONTINUOUS
10
105.218
20
-152.542
11
105.504
21
-152.399
0
LINE
8
BLACK
6
CONTINUOUS
10
105.504
20
-152.399
11
105.646
21
-152.256
0
LINE
8
BLACK
6
CONTINUOUS
10
105.646
20
-152.256
11
105.932
21
-151.828
0
LINE
8
BLACK
6
CONTINUOUS
10
105.932
20
-151.828
11
106.075
21
-151.256
0
LINE
8
BLACK
6
CONTINUOUS
10
106.075
20
-151.256
11
106.075
21
-150.114
0
LINE
8
BLACK
6
CONTINUOUS
10
106.075
20
-150.114
11
105.932
21
-149.828
0
LINE
8
BLACK
6
CONTINUOUS
10
105.932
20
-149.828
11
105.789
21
-149.685
0
LINE
8
BLACK
6
CONTINUOUS
10
105.789
20
-149.685
11
105.504
21
-149.542
0
LINE
8
BLACK
6
CONTINUOUS
10
105.504
20
-149.542
11
104.932
21
-149.542
0
LINE
8
BLACK
6
CONTINUOUS
10
104.932
20
-149.542
11
104.646
21
-149.685
0
LINE
8
BLACK
6
CONTINUOUS
10
104.646
20
-149.685
11
104.504
21
-149.828
0
LINE
8
BLACK
6
CONTINUOUS
10
104.504
20
-149.828
11
104.361
21
-150.114
0
LINE
8
BLACK
6
CONTINUOUS
10
104.361
20
-150.114
11
104.361
21
-150.828
0
LINE
8
BLACK
6
CONTINUOUS
10
104.361
20
-150.828
11
104.504
21
-151.114
0
LINE
8
BLACK
6
CONTINUOUS
10
104.504
20
-151.114
11
104.646
21
-151.256
0
LINE
8
BLACK
6
CONTINUOUS
10
104.646
20
-151.256
11
104.932
21
-151.399
0
LINE
8
BLACK
6
CONTINUOUS
10
104.932
20
-151.399
11
105.504
21
-151.399
0
LINE
8
BLACK
6
CONTINUOUS
10
105.504
20
-151.399
11
105.789
21
-151.256
0
LINE
8
BLACK
6
CONTINUOUS
10
105.789
20
-151.256
11
105.932
21
-151.114
0
LINE
8
BLACK
6
CONTINUOUS
10
105.932
20
-151.114
11
106.075
21
-150.828
0
LINE
8
BLACK
6
CONTINUOUS
10
107.218
20
-149.542
11
107.218
21
-150.114
0
LINE
8
BLACK
6
CONTINUOUS
10
108.361
20
-149.542
11
108.361
21
-150.114
0
LINE
8
BLACK
6
CONTINUOUS
10
112.789
20
-153.685
11
112.646
21
-153.542
0
LINE
8
BLACK
6
CONTINUOUS
10
112.646
20
-153.542
11
112.361
21
-153.114
0
LINE
8
BLACK
6
CONTINUOUS
10
112.361
20
-153.114
11
112.218
21
-152.828
0
LINE
8
BLACK
6
CONTINUOUS
10
112.218
20
-152.828
11
112.075
21
-152.399
0
LINE
8
BLACK
6
CONTINUOUS
10
112.075
20
-152.399
11
111.932
21
-151.685
0
LINE
8
BLACK
6
CONTINUOUS
10
111.932
20
-151.685
11
111.932
21
-151.114
0
LINE
8
BLACK
6
CONTINUOUS
10
111.932
20
-151.114
11
112.075
21
-150.399
0
LINE
8
BLACK
6
CONTINUOUS
10
112.075
20
-150.399
11
112.218
21
-149.971
0
LINE
8
BLACK
6
CONTINUOUS
10
112.218
20
-149.971
11
112.361
21
-149.685
0
LINE
8
BLACK
6
CONTINUOUS
10
112.361
20
-149.685
11
112.646
21
-149.256
0
LINE
8
BLACK
6
CONTINUOUS
10
112.646
20
-149.256
11
112.789
21
-149.114
0
LINE
8
BLACK
6
CONTINUOUS
10
113.646
20
-149.542
11
115.504
21
-149.542
0
LINE
8
BLACK
6
CONTINUOUS
10
115.504
20
-149.542
11
114.504
21
-150.685
0
LINE
8
BLACK
6
CONTINUOUS
10
114.504
20
-150.685
11
114.932
21
-150.685
0
LINE
8
BLACK
6
CONTINUOUS
10
114.932
20
-150.685
11
115.218
21
-150.828
0
LINE
8
BLACK
6
CONTINUOUS
10
115.218
20
-150.828
11
115.361
21
-150.971
0
LINE
8
BLACK
6
CONTINUOUS
10
115.361
20
-150.971
11
115.504
21
-151.256
0
LINE
8
BLACK
6
CONTINUOUS
10
115.504
20
-151.256
11
115.504
21
-151.971
0
LINE
8
BLACK
6
CONTINUOUS
10
115.504
20
-151.971
11
115.361
21
-152.256
0
LINE
8
BLACK
6
CONTINUOUS
10
115.361
20
-152.256
11
115.218
21
-152.399
0
LINE
8
BLACK
6
CONTINUOUS
10
115.218
20
-152.399
11
114.932
21
-152.542
0
LINE
8
BLACK
6
CONTINUOUS
10
114.932
20
-152.542
11
114.075
21
-152.542
0
LINE
8
BLACK
6
CONTINUOUS
10
114.075
20
-152.542
11
113.789
21
-152.399
0
LINE
8
BLACK
6
CONTINUOUS
10
113.789
20
-152.399
11
113.646
21
-152.256
0
LINE
8
BLACK
6
CONTINUOUS
10
117.361
20
-149.542
11
117.646
21
-149.542
0
LINE
8
BLACK
6
CONTINUOUS
10
117.646
20
-149.542
11
117.932
21
-149.685
0
LINE
8
BLACK
6
CONTINUOUS
10
117.932
20
-149.685
11
118.075
21
-149.828
0
LINE
8
BLACK
6
CONTINUOUS
10
118.075
20
-149.828
11
118.218
21
-150.114
0
LINE
8
BLACK
6
CONTINUOUS
10
118.218
20
-150.114
11
118.361
21
-150.685
0
LINE
8
BLACK
6
CONTINUOUS
10
118.361
20
-150.685
11
118.361
21
-151.399
0
LINE
8
BLACK
6
CONTINUOUS
10
118.361
20
-151.399
11
118.218
21
-151.971
0
LINE
8
BLACK
6
CONTINUOUS
10
118.218
20
-151.971
11
118.075
21
-152.256
0
LINE
8
BLACK
6
CONTINUOUS
10
118.075
20
-152.256
11
117.932
21
-152.399
0
LINE
8
BLACK
6
CONTINUOUS
10
117.932
20
-152.399
11
117.646
21
-152.542
0
LINE
8
BLACK
6
CONTINUOUS
10
117.646
20
-152.542
11
117.361
21
-152.542
0
LINE
8
BLACK
6
CONTINUOUS
10
117.361
20
-152.542
11
117.075
21
-152.399
0
LINE
8
BLACK
6
CONTINUOUS
10
117.075
20
-152.399
11
116.932
21
-152.256
0
LINE
8
BLACK
6
CONTINUOUS
10
116.932
20
-152.256
11
116.789
21
-151.971
0
LINE
8
BLACK
6
CONTINUOUS
10
116.789
20
-151.971
11
116.646
21
-151.399
0
LINE
8
BLACK
6
CONTINUOUS
10
116.646
20
-151.399
11
116.646
21
-150.685
0
LINE
8
BLACK
6
CONTINUOUS
10
116.646
20
-150.685
11
116.789
21
-150.114
0
LINE
8
BLACK
6
CONTINUOUS
10
116.789
20
-150.114
11
116.932
21
-149.828
0
LINE
8
BLACK
6
CONTINUOUS
10
116.932
20
-149.828
11
117.075
21
-149.685
0
LINE
8
BLACK
6
CONTINUOUS
10
117.075
20
-149.685
11
117.361
21
-149.542
0
LINE
8
BLACK
6
CONTINUOUS
10
121.932
20
-152.542
11
121.932
21
-149.542
0
LINE
8
BLACK
6
CONTINUOUS
10
123.218
20
-152.542
11
123.218
21
-150.971
0
LINE
8
BLACK
6
CONTINUOUS
10
123.218
20
-150.971
11
123.075
21
-150.685
0
LINE
8
BLACK
6
CONTINUOUS
10
123.075
20
-150.685
11
122.789
21
-150.542
0
LINE
8
BLACK
6
CONTINUOUS
10
122.789
20
-150.542
11
122.361
21
-150.542
0
LINE
8
BLACK
6
CONTINUOUS
10
122.361
20
-150.542
11
122.075
21
-150.685
0
LINE
8
BLACK
6
CONTINUOUS
10
122.075
20
-150.685
11
121.932
21
-150.828
0
LINE
8
BLACK
6
CONTINUOUS
10
125.075
20
-152.542
11
124.789
21
-152.399
0
LINE
8
BLACK
6
CONTINUOUS
10
124.789
20
-152.399
11
124.646
21
-152.256
0
LINE
8
BLACK
6
CONTINUOUS
10
124.646
20
-152.256
11
124.504
21
-151.971
0
LINE
8
BLACK
6
CONTINUOUS
10
124.504
20
-151.971
11
124.504
21
-151.114
0
LINE
8
BLACK
6
CONTINUOUS
10
124.504
20
-151.114
11
124.646
21
-150.828
0
LINE
8
BLACK
6
CONTINUOUS
10
124.646
20
-150.828
11
124.789
21
-150.685
0
LINE
8
BLACK
6
CONTINUOUS
10
124.789
20
-150.685
11
125.075
21
-150.542
0
LINE
8
BLACK
6
CONTINUOUS
10
125.075
20
-150.542
11
125.504
21
-150.542
0
LINE
8
BLACK
6
CONTINUOUS
10
125.504
20
-150.542
11
125.789
21
-150.685
0
LINE
8
BLACK
6
CONTINUOUS
10
125.789
20
-150.685
11
125.932
21
-150.828
0
LINE
8
BLACK
6
CONTINUOUS
10
125.932
20
-150.828
11
126.075
21
-151.114
0
LINE
8
BLACK
6
CONTINUOUS
10
126.075
20
-151.114
11
126.075
21
-151.971
0
LINE
8
BLACK
6
CONTINUOUS
10
126.075
20
-151.971
11
125.932
21
-152.256
0
LINE
8
BLACK
6
CONTINUOUS
10
125.932
20
-152.256
11
125.789
21
-152.399
0
LINE
8
BLACK
6
CONTINUOUS
10
125.789
20
-152.399
11
125.504
21
-152.542
0
LINE
8
BLACK
6
CONTINUOUS
10
125.504
20
-152.542
11
125.075
21
-152.542
0
LINE
8
BLACK
6
CONTINUOUS
10
127.789
20
-152.542
11
127.504
21
-152.399
0
LINE
8
BLACK
6
CONTINUOUS
10
127.504
20
-152.399
11
127.361
21
-152.114
0
LINE
8
BLACK
6
CONTINUOUS
10
127.361
20
-152.114
11
127.361
21
-149.542
0
LINE
8
BLACK
6
CONTINUOUS
10
130.075
20
-152.399
11
129.789
21
-152.542
0
LINE
8
BLACK
6
CONTINUOUS
10
129.789
20
-152.542
11
129.218
21
-152.542
0
LINE
8
BLACK
6
CONTINUOUS
10
129.218
20
-152.542
11
128.932
21
-152.399
0
LINE
8
BLACK
6
CONTINUOUS
10
128.932
20
-152.399
11
128.789
21
-152.114
0
LINE
8
BLACK
6
CONTINUOUS
10
128.789
20
-152.114
11
128.789
21
-150.971
0
LINE
8
BLACK
6
CONTINUOUS
10
128.789
20
-150.971
11
128.932
21
-150.685
0
LINE
8
BLACK
6
CONTINUOUS
10
128.932
20
-150.685
11
129.218
21
-150.542
0
LINE
8
BLACK
6
CONTINUOUS
10
129.218
20
-150.542
11
129.789
21
-150.542
0
LINE
8
BLACK
6
CONTINUOUS
10
129.789
20
-150.542
11
130.075
21
-150.685
0
LINE
8
BLACK
6
CONTINUOUS
10
130.075
20
-150.685
11
130.218
21
-150.971
0
LINE
8
BLACK
6
CONTINUOUS
10
130.218
20
-150.971
11
130.218
21
-151.256
0
LINE
8
BLACK
6
CONTINUOUS
10
130.218
20
-151.256
11
128.789
21
-151.542
0
LINE
8
BLACK
6
CONTINUOUS
10
131.361
20
-152.399
11
131.646
21
-152.542
0
LINE
8
BLACK
6
CONTINUOUS
10
131.646
20
-152.542
11
132.218
21
-152.542
0
LINE
8
BLACK
6
CONTINUOUS
10
132.218
20
-152.542
11
132.504
21
-152.399
0
LINE
8
BLACK
6
CONTINUOUS
10
132.504
20
-152.399
11
132.646
21
-152.114
0
LINE
8
BLACK
6
CONTINUOUS
10
132.646
20
-152.114
11
132.646
21
-151.971
0
LINE
8
BLACK
6
CONTINUOUS
10
132.646
20
-151.971
11
132.504
21
-151.685
0
LINE
8
BLACK
6
CONTINUOUS
10
132.504
20
-151.685
11
132.218
21
-151.542
0
LINE
8
BLACK
6
CONTINUOUS
10
132.218
20
-151.542
11
131.789
21
-151.542
0
LINE
8
BLACK
6
CONTINUOUS
10
131.789
20
-151.542
11
131.504
21
-151.399
0
LINE
8
BLACK
6
CONTINUOUS
10
131.504
20
-151.399
11
131.361
21
-151.114
0
LINE
8
BLACK
6
CONTINUOUS
10
131.361
20
-151.114
11
131.361
21
-150.971
0
LINE
8
BLACK
6
CONTINUOUS
10
131.361
20
-150.971
11
131.504
21
-150.685
0
LINE
8
BLACK
6
CONTINUOUS
10
131.504
20
-150.685
11
131.789
21
-150.542
0
LINE
8
BLACK
6
CONTINUOUS
10
131.789
20
-150.542
11
132.218
21
-150.542
0
LINE
8
BLACK
6
CONTINUOUS
10
132.218
20
-150.542
11
132.504
21
-150.685
0
LINE
8
BLACK
6
CONTINUOUS
10
133.646
20
-153.685
11
133.789
21
-153.542
0
LINE
8
BLACK
6
CONTINUOUS
10
133.789
20
-153.542
11
134.075
21
-153.114
0
LINE
8
BLACK
6
CONTINUOUS
10
134.075
20
-153.114
11
134.218
21
-152.828
0
LINE
8
BLACK
6
CONTINUOUS
10
134.218
20
-152.828
11
134.361
21
-152.399
0
LINE
8
BLACK
6
CONTINUOUS
10
134.361
20
-152.399
11
134.504
21
-151.685
0
LINE
8
BLACK
6
CONTINUOUS
10
134.504
20
-151.685
11
134.504
21
-151.114
0
LINE
8
BLACK
6
CONTINUOUS
10
134.504
20
-151.114
11
134.361
21
-150.399
0
LINE
8
BLACK
6
CONTINUOUS
10
134.361
20
-150.399
11
134.218
21
-149.971
0
LINE
8
BLACK
6
CONTINUOUS
10
134.218
20
-149.971
11
134.075
21
-149.685
0
LINE
8
BLACK
6
CONTINUOUS
10
134.075
20
-149.685
11
133.789
21
-149.256
0
LINE
8
BLACK
6
CONTINUOUS
10
133.789
20
-149.256
11
133.646
21
-149.114
0
LINE
8
BLACK
6
CONTINUOUS
10
64.405
20
-154.385
11
65.925
21
-155.905
0
LINE
8
BLACK
6
CONTINUOUS
10
65.925
20
-154.385
11
64.405
21
-155.905
0
LINE
8
BLACK
6
CONTINUOUS
10
65.7024
20
-155.682
11
65.7024
21
-154.608
0
LINE
8
BLACK
6
CONTINUOUS
10
65.7024
20
-154.608
11
64.6276
21
-154.608
0
LINE
8
BLACK
6
CONTINUOUS
10
64.6276
20
-154.608
11
64.6276
21
-155.682
0
LINE
8
BLACK
6
CONTINUOUS
10
64.6276
20
-155.682
11
65.7024
21
-155.682
0
LINE
8
BLACK
6
CONTINUOUS
10
70.3607
20
-156.502
11
68.6464
21
-156.502
0
LINE
8
BLACK
6
CONTINUOUS
10
69.5036
20
-156.502
11
69.5036
21
-153.502
0
LINE
8
BLACK
6
CONTINUOUS
10
69.5036
20
-153.502
11
69.2179
21
-153.931
0
LINE
8
BLACK
6
CONTINUOUS
10
69.2179
20
-153.931
11
68.9321
21
-154.216
0
LINE
8
BLACK
6
CONTINUOUS
10
68.9321
20
-154.216
11
68.6464
21
-154.359
0
LINE
8
BLACK
6
CONTINUOUS
10
71.6464
20
-156.216
11
71.7893
21
-156.359
0
LINE
8
BLACK
6
CONTINUOUS
10
71.7893
20
-156.359
11
71.6464
21
-156.502
0
LINE
8
BLACK
6
CONTINUOUS
10
71.6464
20
-156.502
11
71.5036
21
-156.359
0
LINE
8
BLACK
6
CONTINUOUS
10
71.5036
20
-156.359
11
71.6464
21
-156.216
0
LINE
8
BLACK
6
CONTINUOUS
10
71.6464
20
-156.216
11
71.6464
21
-156.502
0
LINE
8
BLACK
6
CONTINUOUS
10
74.5036
20
-153.502
11
73.075
21
-153.502
0
LINE
8
BLACK
6
CONTINUOUS
10
73.075
20
-153.502
11
72.9321
21
-154.931
0
LINE
8
BLACK
6
CONTINUOUS
10
72.9321
20
-154.931
11
73.075
21
-154.788
0
LINE
8
BLACK
6
CONTINUOUS
10
73.075
20
-154.788
11
73.3607
21
-154.645
0
LINE
8
BLACK
6
CONTINUOUS
10
73.3607
20
-154.645
11
74.075
21
-154.645
0
LINE
8
BLACK
6
CONTINUOUS
10
74.075
20
-154.645
11
74.3607
21
-154.788
0
LINE
8
BLACK
6
CONTINUOUS
10
74.3607
20
-154.788
11
74.5036
21
-154.931
0
LINE
8
BLACK
6
CONTINUOUS
10
74.5036
20
-154.931
11
74.6464
21
-155.216
0
LINE
8
BLACK
6
CONTINUOUS
10
74.6464
20
-155.216
11
74.6464
21
-155.931
0
LINE
8
BLACK
6
CONTINUOUS
10
74.6464
20
-155.931
11
74.5036
21
-156.216
0
LINE
8
BLACK
6
CONTINUOUS
10
74.5036
20
-156.216
11
74.3607
21
-156.359
0
LINE
8
BLACK
6
CONTINUOUS
10
74.3607
20
-156.359
11
74.075
21
-156.502
0
LINE
8
BLACK
6
CONTINUOUS
10
74.075
20
-156.502
11
73.3607
21
-156.502
0
LINE
8
BLACK
6
CONTINUOUS
10
73.3607
20
-156.502
11
73.075
21
-156.359
0
LINE
8
BLACK
6
CONTINUOUS
10
73.075
20
-156.359
11
72.9321
21
-156.216
0
LINE
8
BLACK
6
CONTINUOUS
10
75.7893
20
-153.788
11
75.9321
21
-153.645
0
LINE
8
BLACK
6
CONTINUOUS
10
75.9321
20
-153.645
11
76.2179
21
-153.502
0
LINE
8
BLACK
6
CONTINUOUS
10
76.2179
20
-153.502
11
76.9321
21
-153.502
0
LINE
8
BLACK
6
CONTINUOUS
10
76.9321
20
-153.502
11
77.2179
21
-153.645
0
LINE
8
BLACK
6
CONTINUOUS
10
77.2179
20
-153.645
11
77.3607
21
-153.788
0
LINE
8
BLACK
6
CONTINUOUS
10
77.3607
20
-153.788
11
77.5036
21
-154.074
0
LINE
8
BLACK
6
CONTINUOUS
10
77.5036
20
-154.074
11
77.5036
21
-154.359
0
LINE
8
BLACK
6
CONTINUOUS
10
77.5036
20
-154.359
11
77.3607
21
-154.788
0
LINE
8
BLACK
6
CONTINUOUS
10
77.3607
20
-154.788
11
75.6464
21
-156.502
0
LINE
8
BLACK
6
CONTINUOUS
10
75.6464
20
-156.502
11
77.5036
21
-156.502
0
LINE
8
BLACK
6
CONTINUOUS
10
78.7893
20
-156.502
11
78.7893
21
-154.502
0
LINE
8
BLACK
6
CONTINUOUS
10
78.7893
20
-154.788
11
78.9321
21
-154.645
0
LINE
8
BLACK
6
CONTINUOUS
10
78.9321
20
-154.645
11
79.2179
21
-154.502
0
LINE
8
BLACK
6
CONTINUOUS
10
79.2179
20
-154.502
11
79.6464
21
-154.502
0
LINE
8
BLACK
6
CONTINUOUS
10
79.6464
20
-154.502
11
79.9321
21
-154.645
0
LINE
8
BLACK
6
CONTINUOUS
10
79.9321
20
-154.645
11
80.075
21
-154.931
0
LINE
8
BLACK
6
CONTINUOUS
10
80.075
20
-154.931
11
80.075
21
-156.502
0
LINE
8
BLACK
6
CONTINUOUS
10
80.075
20
-154.931
11
80.2179
21
-154.645
0
LINE
8
BLACK
6
CONTINUOUS
10
80.2179
20
-154.645
11
80.5036
21
-154.502
0
LINE
8
BLACK
6
CONTINUOUS
10
80.5036
20
-154.502
11
80.9321
21
-154.502
0
LINE
8
BLACK
6
CONTINUOUS
10
80.9321
20
-154.502
11
81.2179
21
-154.645
0
LINE
8
BLACK
6
CONTINUOUS
10
81.2179
20
-154.645
11
81.3607
21
-154.931
0
LINE
8
BLACK
6
CONTINUOUS
10
81.3607
20
-154.931
11
81.3607
21
-156.502
0
LINE
8
BLACK
6
CONTINUOUS
10
82.7893
20
-156.502
11
82.7893
21
-154.502
0
LINE
8
BLACK
6
CONTINUOUS
10
82.7893
20
-154.788
11
82.9321
21
-154.645
0
LINE
8
BLACK
6
CONTINUOUS
10
82.9321
20
-154.645
11
83.2179
21
-154.502
0
LINE
8
BLACK
6
CONTINUOUS
10
83.2179
20
-154.502
11
83.6464
21
-154.502
0
LINE
8
BLACK
6
CONTINUOUS
10
83.6464
20
-154.502
11
83.9321
21
-154.645
0
LINE
8
BLACK
6
CONTINUOUS
10
83.9321
20
-154.645
11
84.075
21
-154.931
0
LINE
8
BLACK
6
CONTINUOUS
10
84.075
20
-154.931
11
84.075
21
-156.502
0
LINE
8
BLACK
6
CONTINUOUS
10
84.075
20
-154.931
11
84.2179
21
-154.645
0
LINE
8
BLACK
6
CONTINUOUS
10
84.2179
20
-154.645
11
84.5036
21
-154.502
0
LINE
8
BLACK
6
CONTINUOUS
10
84.5036
20
-154.502
11
84.9321
21
-154.502
0
LINE
8
BLACK
6
CONTINUOUS
10
84.9321
20
-154.502
11
85.2179
21
-154.645
0
LINE
8
BLACK
6
CONTINUOUS
10
85.2179
20
-154.645
11
85.3607
21
-154.931
0
LINE
8
BLACK
6
CONTINUOUS
10
85.3607
20
-154.931
11
85.3607
21
-156.502
0
LINE
8
BLACK
6
CONTINUOUS
10
91.2179
20
-153.359
11
88.6464
21
-157.216
0
LINE
8
BLACK
6
CONTINUOUS
10
95.075
20
-153.502
11
95.3607
21
-153.502
0
LINE
8
BLACK
6
CONTINUOUS
10
95.3607
20
-153.502
11
95.6464
21
-153.645
0
LINE
8
BLACK
6
CONTINUOUS
10
95.6464
20
-153.645
11
95.7893
21
-153.788
0
LINE
8
BLACK
6
CONTINUOUS
10
95.7893
20
-153.788
11
95.9321
21
-154.074
0
LINE
8
BLACK
6
CONTINUOUS
10
95.9321
20
-154.074
11
96.075
21
-154.645
0
LINE
8
BLACK
6
CONTINUOUS
10
96.075
20
-154.645
11
96.075
21
-155.359
0
LINE
8
BLACK
6
CONTINUOUS
10
96.075
20
-155.359
11
95.9321
21
-155.931
0
LINE
8
BLACK
6
CONTINUOUS
10
95.9321
20
-155.931
11
95.7893
21
-156.216
0
LINE
8
BLACK
6
CONTINUOUS
10
95.7893
20
-156.216
11
95.6464
21
-156.359
0
LINE
8
BLACK
6
CONTINUOUS
10
95.6464
20
-156.359
11
95.3607
21
-156.502
0
LINE
8
BLACK
6
CONTINUOUS
10
95.3607
20
-156.502
11
95.075
21
-156.502
0
LINE
8
BLACK
6
CONTINUOUS
10
95.075
20
-156.502
11
94.7893
21
-156.359
0
LINE
8
BLACK
6
CONTINUOUS
10
94.7893
20
-156.359
11
94.6464
21
-156.216
0
LINE
8
BLACK
6
CONTINUOUS
10
94.6464
20
-156.216
11
94.5036
21
-155.931
0
LINE
8
BLACK
6
CONTINUOUS
10
94.5036
20
-155.931
11
94.3607
21
-155.359
0
LINE
8
BLACK
6
CONTINUOUS
10
94.3607
20
-155.359
11
94.3607
21
-154.645
0
LINE
8
BLACK
6
CONTINUOUS
10
94.3607
20
-154.645
11
94.5036
21
-154.074
0
LINE
8
BLACK
6
CONTINUOUS
10
94.5036
20
-154.074
11
94.6464
21
-153.788
0
LINE
8
BLACK
6
CONTINUOUS
10
94.6464
20
-153.788
11
94.7893
21
-153.645
0
LINE
8
BLACK
6
CONTINUOUS
10
94.7893
20
-153.645
11
95.075
21
-153.502
0
LINE
8
BLACK
6
CONTINUOUS
10
97.3607
20
-156.216
11
97.5036
21
-156.359
0
LINE
8
BLACK
6
CONTINUOUS
10
97.5036
20
-156.359
11
97.3607
21
-156.502
0
LINE
8
BLACK
6
CONTINUOUS
10
97.3607
20
-156.502
11
97.2179
21
-156.359
0
LINE
8
BLACK
6
CONTINUOUS
10
97.2179
20
-156.359
11
97.3607
21
-156.216
0
LINE
8
BLACK
6
CONTINUOUS
10
97.3607
20
-156.216
11
97.3607
21
-156.502
0
LINE
8
BLACK
6
CONTINUOUS
10
99.3607
20
-153.502
11
99.6464
21
-153.502
0
LINE
8
BLACK
6
CONTINUOUS
10
99.6464
20
-153.502
11
99.9321
21
-153.645
0
LINE
8
BLACK
6
CONTINUOUS
10
99.9321
20
-153.645
11
100.075
21
-153.788
0
LINE
8
BLACK
6
CONTINUOUS
10
100.075
20
-153.788
11
100.218
21
-154.074
0
LINE
8
BLACK
6
CONTINUOUS
10
100.218
20
-154.074
11
100.361
21
-154.645
0
LINE
8
BLACK
6
CONTINUOUS
10
100.361
20
-154.645
11
100.361
21
-155.359
0
LINE
8
BLACK
6
CONTINUOUS
10
100.361
20
-155.359
11
100.218
21
-155.931
0
LINE
8
BLACK
6
CONTINUOUS
10
100.218
20
-155.931
11
100.075
21
-156.216
0
LINE
8
BLACK
6
CONTINUOUS
10
100.075
20
-156.216
11
99.9321
21
-156.359
0
LINE
8
BLACK
6
CONTINUOUS
10
99.9321
20
-156.359
11
99.6464
21
-156.502
0
LINE
8
BLACK
6
CONTINUOUS
10
99.6464
20
-156.502
11
99.3607
21
-156.502
0
LINE
8
BLACK
6
CONTINUOUS
10
99.3607
20
-156.502
11
99.075
21
-156.359
0
LINE
8
BLACK
6
CONTINUOUS
10
99.075
20
-156.359
11
98.9321
21
-156.216
0
LINE
8
BLACK
6
CONTINUOUS
10
98.9321
20
-156.216
11
98.7893
21
-155.931
0
LINE
8
BLACK
6
CONTINUOUS
10
98.7893
20
-155.931
11
98.6464
21
-155.359
0
LINE
8
BLACK
6
CONTINUOUS
10
98.6464
20
-155.359
11
98.6464
21
-154.645
0
LINE
8
BLACK
6
CONTINUOUS
10
98.6464
20
-154.645
11
98.7893
21
-154.074
0
LINE
8
BLACK
6
CONTINUOUS
10
98.7893
20
-154.074
11
98.9321
21
-153.788
0
LINE
8
BLACK
6
CONTINUOUS
10
98.9321
20
-153.788
11
99.075
21
-153.645
0
LINE
8
BLACK
6
CONTINUOUS
10
99.075
20
-153.645
11
99.3607
21
-153.502
0
LINE
8
BLACK
6
CONTINUOUS
10
102.932
20
-153.502
11
102.361
21
-153.502
0
LINE
8
BLACK
6
CONTINUOUS
10
102.361
20
-153.502
11
102.075
21
-153.645
0
LINE
8
BLACK
6
CONTINUOUS
10
102.075
20
-153.645
11
101.932
21
-153.788
0
LINE
8
BLACK
6
CONTINUOUS
10
101.932
20
-153.788
11
101.646
21
-154.216
0
LINE
8
BLACK
6
CONTINUOUS
10
101.646
20
-154.216
11
101.504
21
-154.788
0
LINE
8
BLACK
6
CONTINUOUS
10
101.504
20
-154.788
11
101.504
21
-155.931
0
LINE
8
BLACK
6
CONTINUOUS
10
101.504
20
-155.931
11
101.646
21
-156.216
0
LINE
8
BLACK
6
CONTINUOUS
10
101.646
20
-156.216
11
101.789
21
-156.359
0
LINE
8
BLACK
6
CONTINUOUS
10
101.789
20
-156.359
11
102.075
21
-156.502
0
LINE
8
BLACK
6
CONTINUOUS
10
102.075
20
-156.502
11
102.646
21
-156.502
0
LINE
8
BLACK
6
CONTINUOUS
10
102.646
20
-156.502
11
102.932
21
-156.359
0
LINE
8
BLACK
6
CONTINUOUS
10
102.932
20
-156.359
11
103.075
21
-156.216
0
LINE
8
BLACK
6
CONTINUOUS
10
103.075
20
-156.216
11
103.218
21
-155.931
0
LINE
8
BLACK
6
CONTINUOUS
10
103.218
20
-155.931
11
103.218
21
-155.216
0
LINE
8
BLACK
6
CONTINUOUS
10
103.218
20
-155.216
11
103.075
21
-154.931
0
LINE
8
BLACK
6
CONTINUOUS
10
103.075
20
-154.931
11
102.932
21
-154.788
0
LINE
8
BLACK
6
CONTINUOUS
10
102.932
20
-154.788
11
102.646
21
-154.645
0
LINE
8
BLACK
6
CONTINUOUS
10
102.646
20
-154.645
11
102.075
21
-154.645
0
LINE
8
BLACK
6
CONTINUOUS
10
102.075
20
-154.645
11
101.789
21
-154.788
0
LINE
8
BLACK
6
CONTINUOUS
10
101.789
20
-154.788
11
101.646
21
-154.931
0
LINE
8
BLACK
6
CONTINUOUS
10
101.646
20
-154.931
11
101.504
21
-155.216
0
LINE
8
BLACK
6
CONTINUOUS
10
105.075
20
-153.502
11
105.361
21
-153.502
0
LINE
8
BLACK
6
CONTINUOUS
10
105.361
20
-153.502
11
105.646
21
-153.645
0
LINE
8
BLACK
6
CONTINUOUS
10
105.646
20
-153.645
11
105.789
21
-153.788
0
LINE
8
BLACK
6
CONTINUOUS
10
105.789
20
-153.788
11
105.932
21
-154.074
0
LINE
8
BLACK
6
CONTINUOUS
10
105.932
20
-154.074
11
106.075
21
-154.645
0
LINE
8
BLACK
6
CONTINUOUS
10
106.075
20
-154.645
11
106.075
21
-155.359
0
LINE
8
BLACK
6
CONTINUOUS
10
106.075
20
-155.359
11
105.932
21
-155.931
0
LINE
8
BLACK
6
CONTINUOUS
10
105.932
20
-155.931
11
105.789
21
-156.216
0
LINE
8
BLACK
6
CONTINUOUS
10
105.789
20
-156.216
11
105.646
21
-156.359
0
LINE
8
BLACK
6
CONTINUOUS
10
105.646
20
-156.359
11
105.361
21
-156.502
0
LINE
8
BLACK
6
CONTINUOUS
10
105.361
20
-156.502
11
105.075
21
-156.502
0
LINE
8
BLACK
6
CONTINUOUS
10
105.075
20
-156.502
11
104.789
21
-156.359
0
LINE
8
BLACK
6
CONTINUOUS
10
104.789
20
-156.359
11
104.646
21
-156.216
0
LINE
8
BLACK
6
CONTINUOUS
10
104.646
20
-156.216
11
104.504
21
-155.931
0
LINE
8
BLACK
6
CONTINUOUS
10
104.504
20
-155.931
11
104.361
21
-155.359
0
LINE
8
BLACK
6
CONTINUOUS
10
104.361
20
-155.359
11
104.361
21
-154.645
0
LINE
8
BLACK
6
CONTINUOUS
10
104.361
20
-154.645
11
104.504
21
-154.074
0
LINE
8
BLACK
6
CONTINUOUS
10
104.504
20
-154.074
11
104.646
21
-153.788
0
LINE
8
BLACK
6
CONTINUOUS
10
104.646
20
-153.788
11
104.789
21
-153.645
0
LINE
8
BLACK
6
CONTINUOUS
10
104.789
20
-153.645
11
105.075
21
-153.502
0
LINE
8
BLACK
6
CONTINUOUS
10
107.218
20
-153.502
11
107.218
21
-154.074
0
LINE
8
BLACK
6
CONTINUOUS
10
108.361
20
-153.502
11
108.361
21
-154.074
0
LINE
8
BLACK
6
CONTINUOUS
10
112.789
20
-157.645
11
112.646
21
-157.502
0
LINE
8
BLACK
6
CONTINUOUS
10
112.646
20
-157.502
11
112.361
21
-157.074
0
LINE
8
BLACK
6
CONTINUOUS
10
112.361
20
-157.074
11
112.218
21
-156.788
0
LINE
8
BLACK
6
CONTINUOUS
10
112.218
20
-156.788
11
112.075
21
-156.359
0
LINE
8
BLACK
6
CONTINUOUS
10
112.075
20
-156.359
11
111.932
21
-155.645
0
LINE
8
BLACK
6
CONTINUOUS
10
111.932
20
-155.645
11
111.932
21
-155.074
0
LINE
8
BLACK
6
CONTINUOUS
10
111.932
20
-155.074
11
112.075
21
-154.359
0
LINE
8
BLACK
6
CONTINUOUS
10
112.075
20
-154.359
11
112.218
21
-153.931
0
LINE
8
BLACK
6
CONTINUOUS
10
112.218
20
-153.931
11
112.361
21
-153.645
0
LINE
8
BLACK
6
CONTINUOUS
10
112.361
20
-153.645
11
112.646
21
-153.216
0
LINE
8
BLACK
6
CONTINUOUS
10
112.646
20
-153.216
11
112.789
21
-153.074
0
LINE
8
BLACK
6
CONTINUOUS
10
113.646
20
-153.502
11
115.504
21
-153.502
0
LINE
8
BLACK
6
CONTINUOUS
10
115.504
20
-153.502
11
114.504
21
-154.645
0
LINE
8
BLACK
6
CONTINUOUS
10
114.504
20
-154.645
11
114.932
21
-154.645
0
LINE
8
BLACK
6
CONTINUOUS
10
114.932
20
-154.645
11
115.218
21
-154.788
0
LINE
8
BLACK
6
CONTINUOUS
10
115.218
20
-154.788
11
115.361
21
-154.931
0
LINE
8
BLACK
6
CONTINUOUS
10
115.361
20
-154.931
11
115.504
21
-155.216
0
LINE
8
BLACK
6
CONTINUOUS
10
115.504
20
-155.216
11
115.504
21
-155.931
0
LINE
8
BLACK
6
CONTINUOUS
10
115.504
20
-155.931
11
115.361
21
-156.216
0
LINE
8
BLACK
6
CONTINUOUS
10
115.361
20
-156.216
11
115.218
21
-156.359
0
LINE
8
BLACK
6
CONTINUOUS
10
115.218
20
-156.359
11
114.932
21
-156.502
0
LINE
8
BLACK
6
CONTINUOUS
10
114.932
20
-156.502
11
114.075
21
-156.502
0
LINE
8
BLACK
6
CONTINUOUS
10
114.075
20
-156.502
11
113.789
21
-156.359
0
LINE
8
BLACK
6
CONTINUOUS
10
113.789
20
-156.359
11
113.646
21
-156.216
0
LINE
8
BLACK
6
CONTINUOUS
10
119.075
20
-156.502
11
119.075
21
-153.502
0
LINE
8
BLACK
6
CONTINUOUS
10
120.361
20
-156.502
11
120.361
21
-154.931
0
LINE
8
BLACK
6
CONTINUOUS
10
120.361
20
-154.931
11
120.218
21
-154.645
0
LINE
8
BLACK
6
CONTINUOUS
10
120.218
20
-154.645
11
119.932
21
-154.502
0
LINE
8
BLACK
6
CONTINUOUS
10
119.932
20
-154.502
11
119.504
21
-154.502
0
LINE
8
BLACK
6
CONTINUOUS
10
119.504
20
-154.502
11
119.218
21
-154.645
0
LINE
8
BLACK
6
CONTINUOUS
10
119.218
20
-154.645
11
119.075
21
-154.788
0
LINE
8
BLACK
6
CONTINUOUS
10
122.218
20
-156.502
11
121.932
21
-156.359
0
LINE
8
BLACK
6
CONTINUOUS
10
121.932
20
-156.359
11
121.789
21
-156.216
0
LINE
8
BLACK
6
CONTINUOUS
10
121.789
20
-156.216
11
121.646
21
-155.931
0
LINE
8
BLACK
6
CONTINUOUS
10
121.646
20
-155.931
11
121.646
21
-155.074
0
LINE
8
BLACK
6
CONTINUOUS
10
121.646
20
-155.074
11
121.789
21
-154.788
0
LINE
8
BLACK
6
CONTINUOUS
10
121.789
20
-154.788
11
121.932
21
-154.645
0
LINE
8
BLACK
6
CONTINUOUS
10
121.932
20
-154.645
11
122.218
21
-154.502
0
LINE
8
BLACK
6
CONTINUOUS
10
122.218
20
-154.502
11
122.646
21
-154.502
0
LINE
8
BLACK
6
CONTINUOUS
10
122.646
20
-154.502
11
122.932
21
-154.645
0
LINE
8
BLACK
6
CONTINUOUS
10
122.932
20
-154.645
11
123.075
21
-154.788
0
LINE
8
BLACK
6
CONTINUOUS
10
123.075
20
-154.788
11
123.218
21
-155.074
0
LINE
8
BLACK
6
CONTINUOUS
10
123.218
20
-155.074
11
123.218
21
-155.931
0
LINE
8
BLACK
6
CONTINUOUS
10
123.218
20
-155.931
11
123.075
21
-156.216
0
LINE
8
BLACK
6
CONTINUOUS
10
123.075
20
-156.216
11
122.932
21
-156.359
0
LINE
8
BLACK
6
CONTINUOUS
10
122.932
20
-156.359
11
122.646
21
-156.502
0
LINE
8
BLACK
6
CONTINUOUS
10
122.646
20
-156.502
11
122.218
21
-156.502
0
LINE
8
BLACK
6
CONTINUOUS
10
124.932
20
-156.502
11
124.646
21
-156.359
0
LINE
8
BLACK
6
CONTINUOUS
10
124.646
20
-156.359
11
124.504
21
-156.074
0
LINE
8
BLACK
6
CONTINUOUS
10
124.504
20
-156.074
11
124.504
21
-153.502
0
LINE
8
BLACK
6
CONTINUOUS
10
127.218
20
-156.359
11
126.932
21
-156.502
0
LINE
8
BLACK
6
CONTINUOUS
10
126.932
20
-156.502
11
126.361
21
-156.502
0
LINE
8
BLACK
6
CONTINUOUS
10
126.361
20
-156.502
11
126.075
21
-156.359
0
LINE
8
BLACK
6
CONTINUOUS
10
126.075
20
-156.359
11
125.932
21
-156.074
0
LINE
8
BLACK
6
CONTINUOUS
10
125.932
20
-156.074
11
125.932
21
-154.931
0
LINE
8
BLACK
6
CONTINUOUS
10
125.932
20
-154.931
11
126.075
21
-154.645
0
LINE
8
BLACK
6
CONTINUOUS
10
126.075
20
-154.645
11
126.361
21
-154.502
0
LINE
8
BLACK
6
CONTINUOUS
10
126.361
20
-154.502
11
126.932
21
-154.502
0
LINE
8
BLACK
6
CONTINUOUS
10
126.932
20
-154.502
11
127.218
21
-154.645
0
LINE
8
BLACK
6
CONTINUOUS
10
127.218
20
-154.645
11
127.361
21
-154.931
0
LINE
8
BLACK
6
CONTINUOUS
10
127.361
20
-154.931
11
127.361
21
-155.216
0
LINE
8
BLACK
6
CONTINUOUS
10
127.361
20
-155.216
11
125.932
21
-155.502
0
LINE
8
BLACK
6
CONTINUOUS
10
128.504
20
-156.359
11
128.789
21
-156.502
0
LINE
8
BLACK
6
CONTINUOUS
10
128.789
20
-156.502
11
129.361
21
-156.502
0
LINE
8
BLACK
6
CONTINUOUS
10
129.361
20
-156.502
11
129.646
21
-156.359
0
LINE
8
BLACK
6
CONTINUOUS
10
129.646
20
-156.359
11
129.789
21
-156.074
0
LINE
8
BLACK
6
CONTINUOUS
10
129.789
20
-156.074
11
129.789
21
-155.931
0
LINE
8
BLACK
6
CONTINUOUS
10
129.789
20
-155.931
11
129.646
21
-155.645
0
LINE
8
BLACK
6
CONTINUOUS
10
129.646
20
-155.645
11
129.361
21
-155.502
0
LINE
8
BLACK
6
CONTINUOUS
10
129.361
20
-155.502
11
128.932
21
-155.502
0
LINE
8
BLACK
6
CONTINUOUS
10
128.932
20
-155.502
11
128.646
21
-155.359
0
LINE
8
BLACK
6
CONTINUOUS
10
128.646
20
-155.359
11
128.504
21
-155.074
0
LINE
8
BLACK
6
CONTINUOUS
10
128.504
20
-155.074
11
128.504
21
-154.931
0
LINE
8
BLACK
6
CONTINUOUS
10
128.504
20
-154.931
11
128.646
21
-154.645
0
LINE
8
BLACK
6
CONTINUOUS
10
128.646
20
-154.645
11
128.932
21
-154.502
0
LINE
8
BLACK
6
CONTINUOUS
10
128.932
20
-154.502
11
129.361
21
-154.502
0
LINE
8
BLACK
6
CONTINUOUS
10
129.361
20
-154.502
11
129.646
21
-154.645
0
LINE
8
BLACK
6
CONTINUOUS
10
130.789
20
-157.645
11
130.932
21
-157.502
0
LINE
8
BLACK
6
CONTINUOUS
10
130.932
20
-157.502
11
131.218
21
-157.074
0
LINE
8
BLACK
6
CONTINUOUS
10
131.218
20
-157.074
11
131.361
21
-156.788
0
LINE
8
BLACK
6
CONTINUOUS
10
131.361
20
-156.788
11
131.504
21
-156.359
0
LINE
8
BLACK
6
CONTINUOUS
10
131.504
20
-156.359
11
131.646
21
-155.645
0
LINE
8
BLACK
6
CONTINUOUS
10
131.646
20
-155.645
11
131.646
21
-155.074
0
LINE
8
BLACK
6
CONTINUOUS
10
131.646
20
-155.074
11
131.504
21
-154.359
0
LINE
8
BLACK
6
CONTINUOUS
10
131.504
20
-154.359
11
131.361
21
-153.931
0
LINE
8
BLACK
6
CONTINUOUS
10
131.361
20
-153.931
11
131.218
21
-153.645
0
LINE
8
BLACK
6
CONTINUOUS
10
131.218
20
-153.645
11
130.932
21
-153.216
0
LINE
8
BLACK
6
CONTINUOUS
10
130.932
20
-153.216
11
130.789
21
-153.074
  0
ENDSEC
  0
EOF
