G04 #@! TF.GenerationSoftware,KiCad,Pcbnew,5.0.2+dfsg1-1~bpo9+1*
G04 #@! TF.CreationDate,2020-03-04T21:18:40+01:00*
G04 #@! TF.ProjectId,things_02,7468696e-6773-45f3-9032-2e6b69636164,rev?*
G04 #@! TF.SameCoordinates,Original*
G04 #@! TF.FileFunction,Drawing*
%FSLAX46Y46*%
G04 Gerber Fmt 4.6, Leading zero omitted, Abs format (unit mm)*
G04 Created by KiCad (PCBNEW 5.0.2+dfsg1-1~bpo9+1) date Wed Mar  4 21:18:40 2020*
%MOMM*%
%LPD*%
G01*
G04 APERTURE LIST*
%ADD10C,0.300000*%
%ADD11C,0.200000*%
%ADD12C,0.100000*%
%ADD13C,0.075000*%
G04 APERTURE END LIST*
D10*
X56721428Y-113964285D02*
X56650000Y-113892857D01*
X56578571Y-113750000D01*
X56578571Y-113392857D01*
X56650000Y-113250000D01*
X56721428Y-113178571D01*
X56864285Y-113107142D01*
X57007142Y-113107142D01*
X57221428Y-113178571D01*
X58078571Y-114035714D01*
X58078571Y-113107142D01*
X56578571Y-112178571D02*
X56578571Y-112035714D01*
X56650000Y-111892857D01*
X56721428Y-111821428D01*
X56864285Y-111750000D01*
X57150000Y-111678571D01*
X57507142Y-111678571D01*
X57792857Y-111750000D01*
X57935714Y-111821428D01*
X58007142Y-111892857D01*
X58078571Y-112035714D01*
X58078571Y-112178571D01*
X58007142Y-112321428D01*
X57935714Y-112392857D01*
X57792857Y-112464285D01*
X57507142Y-112535714D01*
X57150000Y-112535714D01*
X56864285Y-112464285D01*
X56721428Y-112392857D01*
X56650000Y-112321428D01*
X56578571Y-112178571D01*
X57935714Y-111035714D02*
X58007142Y-110964285D01*
X58078571Y-111035714D01*
X58007142Y-111107142D01*
X57935714Y-111035714D01*
X58078571Y-111035714D01*
X56578571Y-110035714D02*
X56578571Y-109892857D01*
X56650000Y-109750000D01*
X56721428Y-109678571D01*
X56864285Y-109607142D01*
X57150000Y-109535714D01*
X57507142Y-109535714D01*
X57792857Y-109607142D01*
X57935714Y-109678571D01*
X58007142Y-109750000D01*
X58078571Y-109892857D01*
X58078571Y-110035714D01*
X58007142Y-110178571D01*
X57935714Y-110250000D01*
X57792857Y-110321428D01*
X57507142Y-110392857D01*
X57150000Y-110392857D01*
X56864285Y-110321428D01*
X56721428Y-110250000D01*
X56650000Y-110178571D01*
X56578571Y-110035714D01*
X56578571Y-108607142D02*
X56578571Y-108464285D01*
X56650000Y-108321428D01*
X56721428Y-108250000D01*
X56864285Y-108178571D01*
X57150000Y-108107142D01*
X57507142Y-108107142D01*
X57792857Y-108178571D01*
X57935714Y-108250000D01*
X58007142Y-108321428D01*
X58078571Y-108464285D01*
X58078571Y-108607142D01*
X58007142Y-108750000D01*
X57935714Y-108821428D01*
X57792857Y-108892857D01*
X57507142Y-108964285D01*
X57150000Y-108964285D01*
X56864285Y-108892857D01*
X56721428Y-108821428D01*
X56650000Y-108750000D01*
X56578571Y-108607142D01*
X56578571Y-107178571D02*
X56578571Y-107035714D01*
X56650000Y-106892857D01*
X56721428Y-106821428D01*
X56864285Y-106750000D01*
X57150000Y-106678571D01*
X57507142Y-106678571D01*
X57792857Y-106750000D01*
X57935714Y-106821428D01*
X58007142Y-106892857D01*
X58078571Y-107035714D01*
X58078571Y-107178571D01*
X58007142Y-107321428D01*
X57935714Y-107392857D01*
X57792857Y-107464285D01*
X57507142Y-107535714D01*
X57150000Y-107535714D01*
X56864285Y-107464285D01*
X56721428Y-107392857D01*
X56650000Y-107321428D01*
X56578571Y-107178571D01*
X58078571Y-104892857D02*
X57078571Y-104892857D01*
X57221428Y-104892857D02*
X57150000Y-104821428D01*
X57078571Y-104678571D01*
X57078571Y-104464285D01*
X57150000Y-104321428D01*
X57292857Y-104250000D01*
X58078571Y-104250000D01*
X57292857Y-104250000D02*
X57150000Y-104178571D01*
X57078571Y-104035714D01*
X57078571Y-103821428D01*
X57150000Y-103678571D01*
X57292857Y-103607142D01*
X58078571Y-103607142D01*
X58078571Y-102892857D02*
X57078571Y-102892857D01*
X57221428Y-102892857D02*
X57150000Y-102821428D01*
X57078571Y-102678571D01*
X57078571Y-102464285D01*
X57150000Y-102321428D01*
X57292857Y-102250000D01*
X58078571Y-102250000D01*
X57292857Y-102250000D02*
X57150000Y-102178571D01*
X57078571Y-102035714D01*
X57078571Y-101821428D01*
X57150000Y-101678571D01*
X57292857Y-101607142D01*
X58078571Y-101607142D01*
X59500000Y-117750000D02*
X59500000Y-97750000D01*
X74500000Y-117750000D02*
X58913579Y-117750000D01*
X74500000Y-97750000D02*
X58913579Y-97750000D01*
X59500000Y-97750000D02*
X60086421Y-98876504D01*
X59500000Y-97750000D02*
X58913579Y-98876504D01*
X59500000Y-117750000D02*
X60086421Y-116623496D01*
X59500000Y-117750000D02*
X58913579Y-116623496D01*
X102571428Y-126921428D02*
X102428571Y-126850000D01*
X102357142Y-126778571D01*
X102285714Y-126635714D01*
X102285714Y-126564285D01*
X102357142Y-126421428D01*
X102428571Y-126350000D01*
X102571428Y-126278571D01*
X102857142Y-126278571D01*
X103000000Y-126350000D01*
X103071428Y-126421428D01*
X103142857Y-126564285D01*
X103142857Y-126635714D01*
X103071428Y-126778571D01*
X103000000Y-126850000D01*
X102857142Y-126921428D01*
X102571428Y-126921428D01*
X102428571Y-126992857D01*
X102357142Y-127064285D01*
X102285714Y-127207142D01*
X102285714Y-127492857D01*
X102357142Y-127635714D01*
X102428571Y-127707142D01*
X102571428Y-127778571D01*
X102857142Y-127778571D01*
X103000000Y-127707142D01*
X103071428Y-127635714D01*
X103142857Y-127492857D01*
X103142857Y-127207142D01*
X103071428Y-127064285D01*
X103000000Y-126992857D01*
X102857142Y-126921428D01*
X104500000Y-126278571D02*
X103785714Y-126278571D01*
X103714285Y-126992857D01*
X103785714Y-126921428D01*
X103928571Y-126850000D01*
X104285714Y-126850000D01*
X104428571Y-126921428D01*
X104500000Y-126992857D01*
X104571428Y-127135714D01*
X104571428Y-127492857D01*
X104500000Y-127635714D01*
X104428571Y-127707142D01*
X104285714Y-127778571D01*
X103928571Y-127778571D01*
X103785714Y-127707142D01*
X103714285Y-127635714D01*
X105214285Y-127635714D02*
X105285714Y-127707142D01*
X105214285Y-127778571D01*
X105142857Y-127707142D01*
X105214285Y-127635714D01*
X105214285Y-127778571D01*
X106214285Y-126278571D02*
X106357142Y-126278571D01*
X106500000Y-126350000D01*
X106571428Y-126421428D01*
X106642857Y-126564285D01*
X106714285Y-126850000D01*
X106714285Y-127207142D01*
X106642857Y-127492857D01*
X106571428Y-127635714D01*
X106500000Y-127707142D01*
X106357142Y-127778571D01*
X106214285Y-127778571D01*
X106071428Y-127707142D01*
X106000000Y-127635714D01*
X105928571Y-127492857D01*
X105857142Y-127207142D01*
X105857142Y-126850000D01*
X105928571Y-126564285D01*
X106000000Y-126421428D01*
X106071428Y-126350000D01*
X106214285Y-126278571D01*
X107642857Y-126278571D02*
X107785714Y-126278571D01*
X107928571Y-126350000D01*
X108000000Y-126421428D01*
X108071428Y-126564285D01*
X108142857Y-126850000D01*
X108142857Y-127207142D01*
X108071428Y-127492857D01*
X108000000Y-127635714D01*
X107928571Y-127707142D01*
X107785714Y-127778571D01*
X107642857Y-127778571D01*
X107500000Y-127707142D01*
X107428571Y-127635714D01*
X107357142Y-127492857D01*
X107285714Y-127207142D01*
X107285714Y-126850000D01*
X107357142Y-126564285D01*
X107428571Y-126421428D01*
X107500000Y-126350000D01*
X107642857Y-126278571D01*
X109071428Y-126278571D02*
X109214285Y-126278571D01*
X109357142Y-126350000D01*
X109428571Y-126421428D01*
X109500000Y-126564285D01*
X109571428Y-126850000D01*
X109571428Y-127207142D01*
X109500000Y-127492857D01*
X109428571Y-127635714D01*
X109357142Y-127707142D01*
X109214285Y-127778571D01*
X109071428Y-127778571D01*
X108928571Y-127707142D01*
X108857142Y-127635714D01*
X108785714Y-127492857D01*
X108714285Y-127207142D01*
X108714285Y-126850000D01*
X108785714Y-126564285D01*
X108857142Y-126421428D01*
X108928571Y-126350000D01*
X109071428Y-126278571D01*
X111357142Y-127778571D02*
X111357142Y-126778571D01*
X111357142Y-126921428D02*
X111428571Y-126850000D01*
X111571428Y-126778571D01*
X111785714Y-126778571D01*
X111928571Y-126850000D01*
X112000000Y-126992857D01*
X112000000Y-127778571D01*
X112000000Y-126992857D02*
X112071428Y-126850000D01*
X112214285Y-126778571D01*
X112428571Y-126778571D01*
X112571428Y-126850000D01*
X112642857Y-126992857D01*
X112642857Y-127778571D01*
X113357142Y-127778571D02*
X113357142Y-126778571D01*
X113357142Y-126921428D02*
X113428571Y-126850000D01*
X113571428Y-126778571D01*
X113785714Y-126778571D01*
X113928571Y-126850000D01*
X114000000Y-126992857D01*
X114000000Y-127778571D01*
X114000000Y-126992857D02*
X114071428Y-126850000D01*
X114214285Y-126778571D01*
X114428571Y-126778571D01*
X114571428Y-126850000D01*
X114642857Y-126992857D01*
X114642857Y-127778571D01*
X66000000Y-125000000D02*
X151000000Y-125000000D01*
X66000000Y-117750000D02*
X66000000Y-125586421D01*
X151000000Y-117750000D02*
X151000000Y-125586421D01*
X151000000Y-125000000D02*
X149873496Y-125586421D01*
X151000000Y-125000000D02*
X149873496Y-124413579D01*
X66000000Y-125000000D02*
X67126504Y-125586421D01*
X66000000Y-125000000D02*
X67126504Y-124413579D01*
X49078571Y-103250000D02*
X50078571Y-103250000D01*
X48507142Y-103607142D02*
X49578571Y-103964285D01*
X49578571Y-103035714D01*
X48578571Y-102178571D02*
X48578571Y-102035714D01*
X48650000Y-101892857D01*
X48721428Y-101821428D01*
X48864285Y-101750000D01*
X49150000Y-101678571D01*
X49507142Y-101678571D01*
X49792857Y-101750000D01*
X49935714Y-101821428D01*
X50007142Y-101892857D01*
X50078571Y-102035714D01*
X50078571Y-102178571D01*
X50007142Y-102321428D01*
X49935714Y-102392857D01*
X49792857Y-102464285D01*
X49507142Y-102535714D01*
X49150000Y-102535714D01*
X48864285Y-102464285D01*
X48721428Y-102392857D01*
X48650000Y-102321428D01*
X48578571Y-102178571D01*
X49935714Y-101035714D02*
X50007142Y-100964285D01*
X50078571Y-101035714D01*
X50007142Y-101107142D01*
X49935714Y-101035714D01*
X50078571Y-101035714D01*
X48578571Y-100035714D02*
X48578571Y-99892857D01*
X48650000Y-99750000D01*
X48721428Y-99678571D01*
X48864285Y-99607142D01*
X49150000Y-99535714D01*
X49507142Y-99535714D01*
X49792857Y-99607142D01*
X49935714Y-99678571D01*
X50007142Y-99750000D01*
X50078571Y-99892857D01*
X50078571Y-100035714D01*
X50007142Y-100178571D01*
X49935714Y-100250000D01*
X49792857Y-100321428D01*
X49507142Y-100392857D01*
X49150000Y-100392857D01*
X48864285Y-100321428D01*
X48721428Y-100250000D01*
X48650000Y-100178571D01*
X48578571Y-100035714D01*
X48578571Y-98607142D02*
X48578571Y-98464285D01*
X48650000Y-98321428D01*
X48721428Y-98250000D01*
X48864285Y-98178571D01*
X49150000Y-98107142D01*
X49507142Y-98107142D01*
X49792857Y-98178571D01*
X49935714Y-98250000D01*
X50007142Y-98321428D01*
X50078571Y-98464285D01*
X50078571Y-98607142D01*
X50007142Y-98750000D01*
X49935714Y-98821428D01*
X49792857Y-98892857D01*
X49507142Y-98964285D01*
X49150000Y-98964285D01*
X48864285Y-98892857D01*
X48721428Y-98821428D01*
X48650000Y-98750000D01*
X48578571Y-98607142D01*
X48578571Y-97178571D02*
X48578571Y-97035714D01*
X48650000Y-96892857D01*
X48721428Y-96821428D01*
X48864285Y-96750000D01*
X49150000Y-96678571D01*
X49507142Y-96678571D01*
X49792857Y-96750000D01*
X49935714Y-96821428D01*
X50007142Y-96892857D01*
X50078571Y-97035714D01*
X50078571Y-97178571D01*
X50007142Y-97321428D01*
X49935714Y-97392857D01*
X49792857Y-97464285D01*
X49507142Y-97535714D01*
X49150000Y-97535714D01*
X48864285Y-97464285D01*
X48721428Y-97392857D01*
X48650000Y-97321428D01*
X48578571Y-97178571D01*
X50078571Y-94892857D02*
X49078571Y-94892857D01*
X49221428Y-94892857D02*
X49150000Y-94821428D01*
X49078571Y-94678571D01*
X49078571Y-94464285D01*
X49150000Y-94321428D01*
X49292857Y-94250000D01*
X50078571Y-94250000D01*
X49292857Y-94250000D02*
X49150000Y-94178571D01*
X49078571Y-94035714D01*
X49078571Y-93821428D01*
X49150000Y-93678571D01*
X49292857Y-93607142D01*
X50078571Y-93607142D01*
X50078571Y-92892857D02*
X49078571Y-92892857D01*
X49221428Y-92892857D02*
X49150000Y-92821428D01*
X49078571Y-92678571D01*
X49078571Y-92464285D01*
X49150000Y-92321428D01*
X49292857Y-92250000D01*
X50078571Y-92250000D01*
X49292857Y-92250000D02*
X49150000Y-92178571D01*
X49078571Y-92035714D01*
X49078571Y-91821428D01*
X49150000Y-91678571D01*
X49292857Y-91607142D01*
X50078571Y-91607142D01*
X51500000Y-117750000D02*
X51500000Y-77750000D01*
X66000000Y-117750000D02*
X50913579Y-117750000D01*
X66000000Y-77750000D02*
X50913579Y-77750000D01*
X51500000Y-77750000D02*
X52086421Y-78876504D01*
X51500000Y-77750000D02*
X50913579Y-78876504D01*
X51500000Y-117750000D02*
X52086421Y-116623496D01*
X51500000Y-117750000D02*
X50913579Y-116623496D01*
D11*
X72000000Y-114750000D02*
G75*
G03X72000000Y-114750000I-3000000J0D01*
G01*
X72000000Y-80750000D02*
G75*
G03X72000000Y-80750000I-3000000J0D01*
G01*
X151000000Y-80750000D02*
G75*
G03X151000000Y-80750000I-3000000J0D01*
G01*
X151000000Y-114750000D02*
G75*
G03X151000000Y-114750000I-3000000J0D01*
G01*
D12*
G04 #@! TO.C,U4*
X99125000Y-84855000D02*
X99125000Y-74075000D01*
X127125000Y-84855000D02*
X99125000Y-84855000D01*
X127125000Y-84855000D02*
X127125000Y-74075000D01*
X127125000Y-74075000D02*
X99125000Y-74075000D01*
X100600000Y-74075000D02*
X99125000Y-75165000D01*
X102600000Y-74075000D02*
X99125000Y-76780000D01*
X104600000Y-74075000D02*
X99125000Y-78395000D01*
X106600000Y-74075000D02*
X99125000Y-80010000D01*
X108600000Y-74075000D02*
X99125000Y-81625000D01*
X110600000Y-74075000D02*
X99125000Y-83240000D01*
X112600000Y-74075000D02*
X99125000Y-84855000D01*
X114600000Y-74075000D02*
X101125000Y-84855000D01*
X116600000Y-74075000D02*
X103125000Y-84855000D01*
X105125000Y-84855000D02*
X118600000Y-74075000D01*
X120600000Y-74075000D02*
X107125000Y-84855000D01*
X122600000Y-74075000D02*
X109125000Y-84855000D01*
X124600000Y-74075000D02*
X111125000Y-84855000D01*
X126600000Y-74075000D02*
X113125000Y-84855000D01*
X127125000Y-75165000D02*
X115125000Y-84855000D01*
X127125000Y-76780000D02*
X117125000Y-84855000D01*
X127125000Y-78395000D02*
X119125000Y-84855000D01*
X127125000Y-80010000D02*
X121125000Y-84855000D01*
X127125000Y-81625000D02*
X123125000Y-84855000D01*
X127125000Y-83240000D02*
X125125000Y-84855000D01*
G04 #@! TO.C,J8*
X151085000Y-95775000D02*
X151085000Y-87775000D01*
G04 #@! TD*
G04 #@! TO.C,J8*
D13*
X150711190Y-93477380D02*
X150211190Y-93477380D01*
X150211190Y-93286904D01*
X150235000Y-93239285D01*
X150258809Y-93215476D01*
X150306428Y-93191666D01*
X150377857Y-93191666D01*
X150425476Y-93215476D01*
X150449285Y-93239285D01*
X150473095Y-93286904D01*
X150473095Y-93477380D01*
X150663571Y-92691666D02*
X150687380Y-92715476D01*
X150711190Y-92786904D01*
X150711190Y-92834523D01*
X150687380Y-92905952D01*
X150639761Y-92953571D01*
X150592142Y-92977380D01*
X150496904Y-93001190D01*
X150425476Y-93001190D01*
X150330238Y-92977380D01*
X150282619Y-92953571D01*
X150235000Y-92905952D01*
X150211190Y-92834523D01*
X150211190Y-92786904D01*
X150235000Y-92715476D01*
X150258809Y-92691666D01*
X150449285Y-92310714D02*
X150473095Y-92239285D01*
X150496904Y-92215476D01*
X150544523Y-92191666D01*
X150615952Y-92191666D01*
X150663571Y-92215476D01*
X150687380Y-92239285D01*
X150711190Y-92286904D01*
X150711190Y-92477380D01*
X150211190Y-92477380D01*
X150211190Y-92310714D01*
X150235000Y-92263095D01*
X150258809Y-92239285D01*
X150306428Y-92215476D01*
X150354047Y-92215476D01*
X150401666Y-92239285D01*
X150425476Y-92263095D01*
X150449285Y-92310714D01*
X150449285Y-92477380D01*
X150687380Y-91405952D02*
X150711190Y-91453571D01*
X150711190Y-91548809D01*
X150687380Y-91596428D01*
X150639761Y-91620238D01*
X150449285Y-91620238D01*
X150401666Y-91596428D01*
X150377857Y-91548809D01*
X150377857Y-91453571D01*
X150401666Y-91405952D01*
X150449285Y-91382142D01*
X150496904Y-91382142D01*
X150544523Y-91620238D01*
X150711190Y-90953571D02*
X150211190Y-90953571D01*
X150687380Y-90953571D02*
X150711190Y-91001190D01*
X150711190Y-91096428D01*
X150687380Y-91144047D01*
X150663571Y-91167857D01*
X150615952Y-91191666D01*
X150473095Y-91191666D01*
X150425476Y-91167857D01*
X150401666Y-91144047D01*
X150377857Y-91096428D01*
X150377857Y-91001190D01*
X150401666Y-90953571D01*
X150377857Y-90501190D02*
X150782619Y-90501190D01*
X150830238Y-90525000D01*
X150854047Y-90548809D01*
X150877857Y-90596428D01*
X150877857Y-90667857D01*
X150854047Y-90715476D01*
X150687380Y-90501190D02*
X150711190Y-90548809D01*
X150711190Y-90644047D01*
X150687380Y-90691666D01*
X150663571Y-90715476D01*
X150615952Y-90739285D01*
X150473095Y-90739285D01*
X150425476Y-90715476D01*
X150401666Y-90691666D01*
X150377857Y-90644047D01*
X150377857Y-90548809D01*
X150401666Y-90501190D01*
X150687380Y-90072619D02*
X150711190Y-90120238D01*
X150711190Y-90215476D01*
X150687380Y-90263095D01*
X150639761Y-90286904D01*
X150449285Y-90286904D01*
X150401666Y-90263095D01*
X150377857Y-90215476D01*
X150377857Y-90120238D01*
X150401666Y-90072619D01*
X150449285Y-90048809D01*
X150496904Y-90048809D01*
X150544523Y-90286904D01*
G04 #@! TD*
M02*
