G04 #@! TF.GenerationSoftware,KiCad,Pcbnew,5.0.2+dfsg1-1~bpo9+1*
G04 #@! TF.CreationDate,2020-03-04T21:18:40+01:00*
G04 #@! TF.ProjectId,things_02,7468696e-6773-45f3-9032-2e6b69636164,rev?*
G04 #@! TF.SameCoordinates,Original*
G04 #@! TF.FileFunction,Legend,Top*
G04 #@! TF.FilePolarity,Positive*
%FSLAX46Y46*%
G04 Gerber Fmt 4.6, Leading zero omitted, Abs format (unit mm)*
G04 Created by KiCad (PCBNEW 5.0.2+dfsg1-1~bpo9+1) date Wed Mar  4 21:18:40 2020*
%MOMM*%
%LPD*%
G01*
G04 APERTURE LIST*
%ADD10C,0.300000*%
%ADD11C,0.500000*%
%ADD12C,0.250000*%
%ADD13C,0.150000*%
%ADD14C,0.200000*%
%ADD15C,0.400000*%
%ADD16C,0.120000*%
%ADD17C,0.010000*%
G04 APERTURE END LIST*
D10*
X135446428Y-110378571D02*
X135375000Y-110307142D01*
X135303571Y-110164285D01*
X135303571Y-109807142D01*
X135375000Y-109664285D01*
X135446428Y-109592857D01*
X135589285Y-109521428D01*
X135732142Y-109521428D01*
X135946428Y-109592857D01*
X136803571Y-110450000D01*
X136803571Y-109521428D01*
X136660714Y-106878571D02*
X136732142Y-106950000D01*
X136803571Y-107164285D01*
X136803571Y-107307142D01*
X136732142Y-107521428D01*
X136589285Y-107664285D01*
X136446428Y-107735714D01*
X136160714Y-107807142D01*
X135946428Y-107807142D01*
X135660714Y-107735714D01*
X135517857Y-107664285D01*
X135375000Y-107521428D01*
X135303571Y-107307142D01*
X135303571Y-107164285D01*
X135375000Y-106950000D01*
X135446428Y-106878571D01*
X136803571Y-106021428D02*
X136732142Y-106164285D01*
X136660714Y-106235714D01*
X136517857Y-106307142D01*
X136089285Y-106307142D01*
X135946428Y-106235714D01*
X135875000Y-106164285D01*
X135803571Y-106021428D01*
X135803571Y-105807142D01*
X135875000Y-105664285D01*
X135946428Y-105592857D01*
X136089285Y-105521428D01*
X136517857Y-105521428D01*
X136660714Y-105592857D01*
X136732142Y-105664285D01*
X136803571Y-105807142D01*
X136803571Y-106021428D01*
X136803571Y-104878571D02*
X135803571Y-104878571D01*
X135303571Y-104878571D02*
X135375000Y-104950000D01*
X135446428Y-104878571D01*
X135375000Y-104807142D01*
X135303571Y-104878571D01*
X135446428Y-104878571D01*
X136803571Y-103950000D02*
X136732142Y-104092857D01*
X136589285Y-104164285D01*
X135303571Y-104164285D01*
X139353571Y-114485714D02*
X139353571Y-115200000D01*
X137853571Y-115200000D01*
X139353571Y-113342857D02*
X138567857Y-113342857D01*
X138425000Y-113414285D01*
X138353571Y-113557142D01*
X138353571Y-113842857D01*
X138425000Y-113985714D01*
X139282142Y-113342857D02*
X139353571Y-113485714D01*
X139353571Y-113842857D01*
X139282142Y-113985714D01*
X139139285Y-114057142D01*
X138996428Y-114057142D01*
X138853571Y-113985714D01*
X138782142Y-113842857D01*
X138782142Y-113485714D01*
X138710714Y-113342857D01*
X138353571Y-112842857D02*
X138353571Y-112271428D01*
X137853571Y-112628571D02*
X139139285Y-112628571D01*
X139282142Y-112557142D01*
X139353571Y-112414285D01*
X139353571Y-112271428D01*
X139282142Y-111128571D02*
X139353571Y-111271428D01*
X139353571Y-111557142D01*
X139282142Y-111700000D01*
X139210714Y-111771428D01*
X139067857Y-111842857D01*
X138639285Y-111842857D01*
X138496428Y-111771428D01*
X138425000Y-111700000D01*
X138353571Y-111557142D01*
X138353571Y-111271428D01*
X138425000Y-111128571D01*
X139353571Y-110485714D02*
X137853571Y-110485714D01*
X139353571Y-109842857D02*
X138567857Y-109842857D01*
X138425000Y-109914285D01*
X138353571Y-110057142D01*
X138353571Y-110271428D01*
X138425000Y-110414285D01*
X138496428Y-110485714D01*
X139353571Y-109128571D02*
X138353571Y-109128571D01*
X137853571Y-109128571D02*
X137925000Y-109200000D01*
X137996428Y-109128571D01*
X137925000Y-109057142D01*
X137853571Y-109128571D01*
X137996428Y-109128571D01*
X138353571Y-108414285D02*
X139353571Y-108414285D01*
X138496428Y-108414285D02*
X138425000Y-108342857D01*
X138353571Y-108200000D01*
X138353571Y-107985714D01*
X138425000Y-107842857D01*
X138567857Y-107771428D01*
X139353571Y-107771428D01*
X138353571Y-106414285D02*
X139567857Y-106414285D01*
X139710714Y-106485714D01*
X139782142Y-106557142D01*
X139853571Y-106700000D01*
X139853571Y-106914285D01*
X139782142Y-107057142D01*
X139282142Y-106414285D02*
X139353571Y-106557142D01*
X139353571Y-106842857D01*
X139282142Y-106985714D01*
X139210714Y-107057142D01*
X139067857Y-107128571D01*
X138639285Y-107128571D01*
X138496428Y-107057142D01*
X138425000Y-106985714D01*
X138353571Y-106842857D01*
X138353571Y-106557142D01*
X138425000Y-106414285D01*
X139353571Y-103700000D02*
X138639285Y-104200000D01*
X139353571Y-104557142D02*
X137853571Y-104557142D01*
X137853571Y-103985714D01*
X137925000Y-103842857D01*
X137996428Y-103771428D01*
X138139285Y-103700000D01*
X138353571Y-103700000D01*
X138496428Y-103771428D01*
X138567857Y-103842857D01*
X138639285Y-103985714D01*
X138639285Y-104557142D01*
X139282142Y-102485714D02*
X139353571Y-102628571D01*
X139353571Y-102914285D01*
X139282142Y-103057142D01*
X139139285Y-103128571D01*
X138567857Y-103128571D01*
X138425000Y-103057142D01*
X138353571Y-102914285D01*
X138353571Y-102628571D01*
X138425000Y-102485714D01*
X138567857Y-102414285D01*
X138710714Y-102414285D01*
X138853571Y-103128571D01*
X139353571Y-101557142D02*
X139282142Y-101700000D01*
X139139285Y-101771428D01*
X137853571Y-101771428D01*
X139353571Y-100342857D02*
X138567857Y-100342857D01*
X138425000Y-100414285D01*
X138353571Y-100557142D01*
X138353571Y-100842857D01*
X138425000Y-100985714D01*
X139282142Y-100342857D02*
X139353571Y-100485714D01*
X139353571Y-100842857D01*
X139282142Y-100985714D01*
X139139285Y-101057142D01*
X138996428Y-101057142D01*
X138853571Y-100985714D01*
X138782142Y-100842857D01*
X138782142Y-100485714D01*
X138710714Y-100342857D01*
X138353571Y-99771428D02*
X139353571Y-99414285D01*
X138353571Y-99057142D02*
X139353571Y-99414285D01*
X139710714Y-99557142D01*
X139782142Y-99628571D01*
X139853571Y-99771428D01*
D11*
X126321428Y-93192857D02*
X123621428Y-93192857D01*
X126321428Y-91521428D02*
X126192857Y-91778571D01*
X126064285Y-91907142D01*
X125807142Y-92035714D01*
X125035714Y-92035714D01*
X124778571Y-91907142D01*
X124650000Y-91778571D01*
X124521428Y-91521428D01*
X124521428Y-91135714D01*
X124650000Y-90878571D01*
X124778571Y-90750000D01*
X125035714Y-90621428D01*
X125807142Y-90621428D01*
X126064285Y-90750000D01*
X126192857Y-90878571D01*
X126321428Y-91135714D01*
X126321428Y-91521428D01*
X123621428Y-89850000D02*
X123621428Y-88307142D01*
X126321428Y-89078571D02*
X123621428Y-89078571D01*
X125292857Y-87407142D02*
X125292857Y-85350000D01*
X123621428Y-83550000D02*
X123621428Y-83292857D01*
X123750000Y-83035714D01*
X123878571Y-82907142D01*
X124135714Y-82778571D01*
X124650000Y-82650000D01*
X125292857Y-82650000D01*
X125807142Y-82778571D01*
X126064285Y-82907142D01*
X126192857Y-83035714D01*
X126321428Y-83292857D01*
X126321428Y-83550000D01*
X126192857Y-83807142D01*
X126064285Y-83935714D01*
X125807142Y-84064285D01*
X125292857Y-84192857D01*
X124650000Y-84192857D01*
X124135714Y-84064285D01*
X123878571Y-83935714D01*
X123750000Y-83807142D01*
X123621428Y-83550000D01*
X123878571Y-81621428D02*
X123750000Y-81492857D01*
X123621428Y-81235714D01*
X123621428Y-80592857D01*
X123750000Y-80335714D01*
X123878571Y-80207142D01*
X124135714Y-80078571D01*
X124392857Y-80078571D01*
X124778571Y-80207142D01*
X126321428Y-81750000D01*
X126321428Y-80078571D01*
D12*
X73866666Y-91366666D02*
X75266666Y-91366666D01*
X74266666Y-91833333D01*
X75266666Y-92300000D01*
X73866666Y-92300000D01*
X73866666Y-93166666D02*
X73933333Y-93033333D01*
X74000000Y-92966666D01*
X74133333Y-92900000D01*
X74533333Y-92900000D01*
X74666666Y-92966666D01*
X74733333Y-93033333D01*
X74800000Y-93166666D01*
X74800000Y-93366666D01*
X74733333Y-93500000D01*
X74666666Y-93566666D01*
X74533333Y-93633333D01*
X74133333Y-93633333D01*
X74000000Y-93566666D01*
X73933333Y-93500000D01*
X73866666Y-93366666D01*
X73866666Y-93166666D01*
X73866666Y-94833333D02*
X75266666Y-94833333D01*
X73933333Y-94833333D02*
X73866666Y-94700000D01*
X73866666Y-94433333D01*
X73933333Y-94300000D01*
X74000000Y-94233333D01*
X74133333Y-94166666D01*
X74533333Y-94166666D01*
X74666666Y-94233333D01*
X74733333Y-94300000D01*
X74800000Y-94433333D01*
X74800000Y-94700000D01*
X74733333Y-94833333D01*
X74600000Y-95966666D02*
X74533333Y-96166666D01*
X74466666Y-96233333D01*
X74333333Y-96300000D01*
X74133333Y-96300000D01*
X74000000Y-96233333D01*
X73933333Y-96166666D01*
X73866666Y-96033333D01*
X73866666Y-95500000D01*
X75266666Y-95500000D01*
X75266666Y-95966666D01*
X75200000Y-96100000D01*
X75133333Y-96166666D01*
X75000000Y-96233333D01*
X74866666Y-96233333D01*
X74733333Y-96166666D01*
X74666666Y-96100000D01*
X74600000Y-95966666D01*
X74600000Y-95500000D01*
X75266666Y-96900000D02*
X74133333Y-96900000D01*
X74000000Y-96966666D01*
X73933333Y-97033333D01*
X73866666Y-97166666D01*
X73866666Y-97433333D01*
X73933333Y-97566666D01*
X74000000Y-97633333D01*
X74133333Y-97700000D01*
X75266666Y-97700000D01*
X73933333Y-98300000D02*
X73866666Y-98500000D01*
X73866666Y-98833333D01*
X73933333Y-98966666D01*
X74000000Y-99033333D01*
X74133333Y-99100000D01*
X74266666Y-99100000D01*
X74400000Y-99033333D01*
X74466666Y-98966666D01*
X74533333Y-98833333D01*
X74600000Y-98566666D01*
X74666666Y-98433333D01*
X74733333Y-98366666D01*
X74866666Y-98300000D01*
X75000000Y-98300000D01*
X75133333Y-98366666D01*
X75200000Y-98433333D01*
X75266666Y-98566666D01*
X75266666Y-98900000D01*
X75200000Y-99100000D01*
X73866666Y-101566666D02*
X74533333Y-101100000D01*
X73866666Y-100766666D02*
X75266666Y-100766666D01*
X75266666Y-101300000D01*
X75200000Y-101433333D01*
X75133333Y-101500000D01*
X75000000Y-101566666D01*
X74800000Y-101566666D01*
X74666666Y-101500000D01*
X74600000Y-101433333D01*
X74533333Y-101300000D01*
X74533333Y-100766666D01*
X75266666Y-101966666D02*
X75266666Y-102766666D01*
X73866666Y-102366666D02*
X75266666Y-102366666D01*
X75266666Y-103233333D02*
X74133333Y-103233333D01*
X74000000Y-103300000D01*
X73933333Y-103366666D01*
X73866666Y-103500000D01*
X73866666Y-103766666D01*
X73933333Y-103900000D01*
X74000000Y-103966666D01*
X74133333Y-104033333D01*
X75266666Y-104033333D01*
D13*
X89550000Y-84860714D02*
X89550000Y-85610714D01*
X89050000Y-85610714D02*
X88907142Y-85610714D01*
X88835714Y-85575000D01*
X88764285Y-85503571D01*
X88728571Y-85360714D01*
X88728571Y-85110714D01*
X88764285Y-84967857D01*
X88835714Y-84896428D01*
X88907142Y-84860714D01*
X89050000Y-84860714D01*
X89121428Y-84896428D01*
X89192857Y-84967857D01*
X89228571Y-85110714D01*
X89228571Y-85360714D01*
X89192857Y-85503571D01*
X89121428Y-85575000D01*
X89050000Y-85610714D01*
X88264285Y-85610714D02*
X88192857Y-85610714D01*
X88121428Y-85575000D01*
X88085714Y-85539285D01*
X88050000Y-85467857D01*
X88014285Y-85325000D01*
X88014285Y-85146428D01*
X88050000Y-85003571D01*
X88085714Y-84932142D01*
X88121428Y-84896428D01*
X88192857Y-84860714D01*
X88264285Y-84860714D01*
X88335714Y-84896428D01*
X88371428Y-84932142D01*
X88407142Y-85003571D01*
X88442857Y-85146428D01*
X88442857Y-85325000D01*
X88407142Y-85467857D01*
X88371428Y-85539285D01*
X88335714Y-85575000D01*
X88264285Y-85610714D01*
X84414285Y-84860714D02*
X84414285Y-85610714D01*
X84128571Y-85610714D02*
X83664285Y-85610714D01*
X83914285Y-85325000D01*
X83807142Y-85325000D01*
X83735714Y-85289285D01*
X83700000Y-85253571D01*
X83664285Y-85182142D01*
X83664285Y-85003571D01*
X83700000Y-84932142D01*
X83735714Y-84896428D01*
X83807142Y-84860714D01*
X84021428Y-84860714D01*
X84092857Y-84896428D01*
X84128571Y-84932142D01*
X82985714Y-85610714D02*
X83342857Y-85610714D01*
X83378571Y-85253571D01*
X83342857Y-85289285D01*
X83271428Y-85325000D01*
X83092857Y-85325000D01*
X83021428Y-85289285D01*
X82985714Y-85253571D01*
X82950000Y-85182142D01*
X82950000Y-85003571D01*
X82985714Y-84932142D01*
X83021428Y-84896428D01*
X83092857Y-84860714D01*
X83271428Y-84860714D01*
X83342857Y-84896428D01*
X83378571Y-84932142D01*
X87014285Y-84860714D02*
X87014285Y-85610714D01*
X86728571Y-85610714D02*
X86264285Y-85610714D01*
X86514285Y-85325000D01*
X86407142Y-85325000D01*
X86335714Y-85289285D01*
X86300000Y-85253571D01*
X86264285Y-85182142D01*
X86264285Y-85003571D01*
X86300000Y-84932142D01*
X86335714Y-84896428D01*
X86407142Y-84860714D01*
X86621428Y-84860714D01*
X86692857Y-84896428D01*
X86728571Y-84932142D01*
X85621428Y-85360714D02*
X85621428Y-84860714D01*
X85800000Y-85646428D02*
X85978571Y-85110714D01*
X85514285Y-85110714D01*
D10*
X95421428Y-89321428D02*
X95921428Y-90035714D01*
X96278571Y-89321428D02*
X96278571Y-90821428D01*
X95707142Y-90821428D01*
X95564285Y-90750000D01*
X95492857Y-90678571D01*
X95421428Y-90535714D01*
X95421428Y-90321428D01*
X95492857Y-90178571D01*
X95564285Y-90107142D01*
X95707142Y-90035714D01*
X96278571Y-90035714D01*
X94850000Y-89392857D02*
X94635714Y-89321428D01*
X94278571Y-89321428D01*
X94135714Y-89392857D01*
X94064285Y-89464285D01*
X93992857Y-89607142D01*
X93992857Y-89750000D01*
X94064285Y-89892857D01*
X94135714Y-89964285D01*
X94278571Y-90035714D01*
X94564285Y-90107142D01*
X94707142Y-90178571D01*
X94778571Y-90250000D01*
X94850000Y-90392857D01*
X94850000Y-90535714D01*
X94778571Y-90678571D01*
X94707142Y-90750000D01*
X94564285Y-90821428D01*
X94207142Y-90821428D01*
X93992857Y-90750000D01*
X93564285Y-90821428D02*
X92707142Y-90821428D01*
X93135714Y-89321428D02*
X93135714Y-90821428D01*
X95900000Y-78321428D02*
X95900000Y-79821428D01*
X94900000Y-79821428D02*
X94614285Y-79821428D01*
X94471428Y-79750000D01*
X94328571Y-79607142D01*
X94257142Y-79321428D01*
X94257142Y-78821428D01*
X94328571Y-78535714D01*
X94471428Y-78392857D01*
X94614285Y-78321428D01*
X94900000Y-78321428D01*
X95042857Y-78392857D01*
X95185714Y-78535714D01*
X95257142Y-78821428D01*
X95257142Y-79321428D01*
X95185714Y-79607142D01*
X95042857Y-79750000D01*
X94900000Y-79821428D01*
X93328571Y-79821428D02*
X93185714Y-79821428D01*
X93042857Y-79750000D01*
X92971428Y-79678571D01*
X92900000Y-79535714D01*
X92828571Y-79250000D01*
X92828571Y-78892857D01*
X92900000Y-78607142D01*
X92971428Y-78464285D01*
X93042857Y-78392857D01*
X93185714Y-78321428D01*
X93328571Y-78321428D01*
X93471428Y-78392857D01*
X93542857Y-78464285D01*
X93614285Y-78607142D01*
X93685714Y-78892857D01*
X93685714Y-79250000D01*
X93614285Y-79535714D01*
X93542857Y-79678571D01*
X93471428Y-79750000D01*
X93328571Y-79821428D01*
X87528571Y-78321428D02*
X87528571Y-79821428D01*
X86957142Y-79821428D02*
X86028571Y-79821428D01*
X86528571Y-79250000D01*
X86314285Y-79250000D01*
X86171428Y-79178571D01*
X86100000Y-79107142D01*
X86028571Y-78964285D01*
X86028571Y-78607142D01*
X86100000Y-78464285D01*
X86171428Y-78392857D01*
X86314285Y-78321428D01*
X86742857Y-78321428D01*
X86885714Y-78392857D01*
X86957142Y-78464285D01*
X84742857Y-79321428D02*
X84742857Y-78321428D01*
X85100000Y-79892857D02*
X85457142Y-78821428D01*
X84528571Y-78821428D01*
X79028571Y-78221428D02*
X79028571Y-79721428D01*
X78457142Y-79721428D02*
X77528571Y-79721428D01*
X78028571Y-79150000D01*
X77814285Y-79150000D01*
X77671428Y-79078571D01*
X77600000Y-79007142D01*
X77528571Y-78864285D01*
X77528571Y-78507142D01*
X77600000Y-78364285D01*
X77671428Y-78292857D01*
X77814285Y-78221428D01*
X78242857Y-78221428D01*
X78385714Y-78292857D01*
X78457142Y-78364285D01*
X76171428Y-79721428D02*
X76885714Y-79721428D01*
X76957142Y-79007142D01*
X76885714Y-79078571D01*
X76742857Y-79150000D01*
X76385714Y-79150000D01*
X76242857Y-79078571D01*
X76171428Y-79007142D01*
X76100000Y-78864285D01*
X76100000Y-78507142D01*
X76171428Y-78364285D01*
X76242857Y-78292857D01*
X76385714Y-78221428D01*
X76742857Y-78221428D01*
X76885714Y-78292857D01*
X76957142Y-78364285D01*
D13*
X88514285Y-91453571D02*
X89085714Y-91453571D01*
X86014285Y-91453571D02*
X86585714Y-91453571D01*
X83414285Y-91453571D02*
X83985714Y-91453571D01*
X84114285Y-103953571D02*
X84685714Y-103953571D01*
X81514285Y-103953571D02*
X82085714Y-103953571D01*
X79014285Y-103953571D02*
X79585714Y-103953571D01*
X76514285Y-103953571D02*
X77085714Y-103953571D01*
X83692857Y-110639285D02*
X83692857Y-109889285D01*
X84192857Y-109889285D02*
X84335714Y-109889285D01*
X84407142Y-109925000D01*
X84478571Y-109996428D01*
X84514285Y-110139285D01*
X84514285Y-110389285D01*
X84478571Y-110532142D01*
X84407142Y-110603571D01*
X84335714Y-110639285D01*
X84192857Y-110639285D01*
X84121428Y-110603571D01*
X84050000Y-110532142D01*
X84014285Y-110389285D01*
X84014285Y-110139285D01*
X84050000Y-109996428D01*
X84121428Y-109925000D01*
X84192857Y-109889285D01*
X84800000Y-109960714D02*
X84835714Y-109925000D01*
X84907142Y-109889285D01*
X85085714Y-109889285D01*
X85157142Y-109925000D01*
X85192857Y-109960714D01*
X85228571Y-110032142D01*
X85228571Y-110103571D01*
X85192857Y-110210714D01*
X84764285Y-110639285D01*
X85228571Y-110639285D01*
X85585714Y-110639285D02*
X85728571Y-110639285D01*
X85800000Y-110603571D01*
X85835714Y-110567857D01*
X85907142Y-110460714D01*
X85942857Y-110317857D01*
X85942857Y-110032142D01*
X85907142Y-109960714D01*
X85871428Y-109925000D01*
X85800000Y-109889285D01*
X85657142Y-109889285D01*
X85585714Y-109925000D01*
X85550000Y-109960714D01*
X85514285Y-110032142D01*
X85514285Y-110210714D01*
X85550000Y-110282142D01*
X85585714Y-110317857D01*
X85657142Y-110353571D01*
X85800000Y-110353571D01*
X85871428Y-110317857D01*
X85907142Y-110282142D01*
X85942857Y-110210714D01*
X80892857Y-110639285D02*
X80892857Y-109889285D01*
X81392857Y-109889285D02*
X81535714Y-109889285D01*
X81607142Y-109925000D01*
X81678571Y-109996428D01*
X81714285Y-110139285D01*
X81714285Y-110389285D01*
X81678571Y-110532142D01*
X81607142Y-110603571D01*
X81535714Y-110639285D01*
X81392857Y-110639285D01*
X81321428Y-110603571D01*
X81250000Y-110532142D01*
X81214285Y-110389285D01*
X81214285Y-110139285D01*
X81250000Y-109996428D01*
X81321428Y-109925000D01*
X81392857Y-109889285D01*
X82000000Y-109960714D02*
X82035714Y-109925000D01*
X82107142Y-109889285D01*
X82285714Y-109889285D01*
X82357142Y-109925000D01*
X82392857Y-109960714D01*
X82428571Y-110032142D01*
X82428571Y-110103571D01*
X82392857Y-110210714D01*
X81964285Y-110639285D01*
X82428571Y-110639285D01*
X82678571Y-109889285D02*
X83142857Y-109889285D01*
X82892857Y-110175000D01*
X83000000Y-110175000D01*
X83071428Y-110210714D01*
X83107142Y-110246428D01*
X83142857Y-110317857D01*
X83142857Y-110496428D01*
X83107142Y-110567857D01*
X83071428Y-110603571D01*
X83000000Y-110639285D01*
X82785714Y-110639285D01*
X82714285Y-110603571D01*
X82678571Y-110567857D01*
X78192857Y-110639285D02*
X78192857Y-109889285D01*
X78692857Y-109889285D02*
X78835714Y-109889285D01*
X78907142Y-109925000D01*
X78978571Y-109996428D01*
X79014285Y-110139285D01*
X79014285Y-110389285D01*
X78978571Y-110532142D01*
X78907142Y-110603571D01*
X78835714Y-110639285D01*
X78692857Y-110639285D01*
X78621428Y-110603571D01*
X78550000Y-110532142D01*
X78514285Y-110389285D01*
X78514285Y-110139285D01*
X78550000Y-109996428D01*
X78621428Y-109925000D01*
X78692857Y-109889285D01*
X79300000Y-109960714D02*
X79335714Y-109925000D01*
X79407142Y-109889285D01*
X79585714Y-109889285D01*
X79657142Y-109925000D01*
X79692857Y-109960714D01*
X79728571Y-110032142D01*
X79728571Y-110103571D01*
X79692857Y-110210714D01*
X79264285Y-110639285D01*
X79728571Y-110639285D01*
X79978571Y-109889285D02*
X80478571Y-109889285D01*
X80157142Y-110639285D01*
X75392857Y-110639285D02*
X75392857Y-109889285D01*
X75892857Y-109889285D02*
X76035714Y-109889285D01*
X76107142Y-109925000D01*
X76178571Y-109996428D01*
X76214285Y-110139285D01*
X76214285Y-110389285D01*
X76178571Y-110532142D01*
X76107142Y-110603571D01*
X76035714Y-110639285D01*
X75892857Y-110639285D01*
X75821428Y-110603571D01*
X75750000Y-110532142D01*
X75714285Y-110389285D01*
X75714285Y-110139285D01*
X75750000Y-109996428D01*
X75821428Y-109925000D01*
X75892857Y-109889285D01*
X76464285Y-109889285D02*
X76928571Y-109889285D01*
X76678571Y-110175000D01*
X76785714Y-110175000D01*
X76857142Y-110210714D01*
X76892857Y-110246428D01*
X76928571Y-110317857D01*
X76928571Y-110496428D01*
X76892857Y-110567857D01*
X76857142Y-110603571D01*
X76785714Y-110639285D01*
X76571428Y-110639285D01*
X76500000Y-110603571D01*
X76464285Y-110567857D01*
X77214285Y-109960714D02*
X77250000Y-109925000D01*
X77321428Y-109889285D01*
X77500000Y-109889285D01*
X77571428Y-109925000D01*
X77607142Y-109960714D01*
X77642857Y-110032142D01*
X77642857Y-110103571D01*
X77607142Y-110210714D01*
X77178571Y-110639285D01*
X77642857Y-110639285D01*
X75592857Y-117539285D02*
X75592857Y-116789285D01*
X76092857Y-116789285D02*
X76235714Y-116789285D01*
X76307142Y-116825000D01*
X76378571Y-116896428D01*
X76414285Y-117039285D01*
X76414285Y-117289285D01*
X76378571Y-117432142D01*
X76307142Y-117503571D01*
X76235714Y-117539285D01*
X76092857Y-117539285D01*
X76021428Y-117503571D01*
X75950000Y-117432142D01*
X75914285Y-117289285D01*
X75914285Y-117039285D01*
X75950000Y-116896428D01*
X76021428Y-116825000D01*
X76092857Y-116789285D01*
X76664285Y-116789285D02*
X77128571Y-116789285D01*
X76878571Y-117075000D01*
X76985714Y-117075000D01*
X77057142Y-117110714D01*
X77092857Y-117146428D01*
X77128571Y-117217857D01*
X77128571Y-117396428D01*
X77092857Y-117467857D01*
X77057142Y-117503571D01*
X76985714Y-117539285D01*
X76771428Y-117539285D01*
X76700000Y-117503571D01*
X76664285Y-117467857D01*
X77414285Y-116860714D02*
X77450000Y-116825000D01*
X77521428Y-116789285D01*
X77700000Y-116789285D01*
X77771428Y-116825000D01*
X77807142Y-116860714D01*
X77842857Y-116932142D01*
X77842857Y-117003571D01*
X77807142Y-117110714D01*
X77378571Y-117539285D01*
X77842857Y-117539285D01*
X82392857Y-117539285D02*
X82392857Y-116789285D01*
X82892857Y-116789285D02*
X83035714Y-116789285D01*
X83107142Y-116825000D01*
X83178571Y-116896428D01*
X83214285Y-117039285D01*
X83214285Y-117289285D01*
X83178571Y-117432142D01*
X83107142Y-117503571D01*
X83035714Y-117539285D01*
X82892857Y-117539285D01*
X82821428Y-117503571D01*
X82750000Y-117432142D01*
X82714285Y-117289285D01*
X82714285Y-117039285D01*
X82750000Y-116896428D01*
X82821428Y-116825000D01*
X82892857Y-116789285D01*
X83500000Y-116860714D02*
X83535714Y-116825000D01*
X83607142Y-116789285D01*
X83785714Y-116789285D01*
X83857142Y-116825000D01*
X83892857Y-116860714D01*
X83928571Y-116932142D01*
X83928571Y-117003571D01*
X83892857Y-117110714D01*
X83464285Y-117539285D01*
X83928571Y-117539285D01*
X84178571Y-116789285D02*
X84678571Y-116789285D01*
X84357142Y-117539285D01*
X88492857Y-117539285D02*
X88492857Y-116789285D01*
X88992857Y-116789285D02*
X89135714Y-116789285D01*
X89207142Y-116825000D01*
X89278571Y-116896428D01*
X89314285Y-117039285D01*
X89314285Y-117289285D01*
X89278571Y-117432142D01*
X89207142Y-117503571D01*
X89135714Y-117539285D01*
X88992857Y-117539285D01*
X88921428Y-117503571D01*
X88850000Y-117432142D01*
X88814285Y-117289285D01*
X88814285Y-117039285D01*
X88850000Y-116896428D01*
X88921428Y-116825000D01*
X88992857Y-116789285D01*
X89600000Y-116860714D02*
X89635714Y-116825000D01*
X89707142Y-116789285D01*
X89885714Y-116789285D01*
X89957142Y-116825000D01*
X89992857Y-116860714D01*
X90028571Y-116932142D01*
X90028571Y-117003571D01*
X89992857Y-117110714D01*
X89564285Y-117539285D01*
X90028571Y-117539285D01*
X90278571Y-116789285D02*
X90742857Y-116789285D01*
X90492857Y-117075000D01*
X90600000Y-117075000D01*
X90671428Y-117110714D01*
X90707142Y-117146428D01*
X90742857Y-117217857D01*
X90742857Y-117396428D01*
X90707142Y-117467857D01*
X90671428Y-117503571D01*
X90600000Y-117539285D01*
X90385714Y-117539285D01*
X90314285Y-117503571D01*
X90278571Y-117467857D01*
X95192857Y-117539285D02*
X95192857Y-116789285D01*
X95692857Y-116789285D02*
X95835714Y-116789285D01*
X95907142Y-116825000D01*
X95978571Y-116896428D01*
X96014285Y-117039285D01*
X96014285Y-117289285D01*
X95978571Y-117432142D01*
X95907142Y-117503571D01*
X95835714Y-117539285D01*
X95692857Y-117539285D01*
X95621428Y-117503571D01*
X95550000Y-117432142D01*
X95514285Y-117289285D01*
X95514285Y-117039285D01*
X95550000Y-116896428D01*
X95621428Y-116825000D01*
X95692857Y-116789285D01*
X96300000Y-116860714D02*
X96335714Y-116825000D01*
X96407142Y-116789285D01*
X96585714Y-116789285D01*
X96657142Y-116825000D01*
X96692857Y-116860714D01*
X96728571Y-116932142D01*
X96728571Y-117003571D01*
X96692857Y-117110714D01*
X96264285Y-117539285D01*
X96728571Y-117539285D01*
X97085714Y-117539285D02*
X97228571Y-117539285D01*
X97300000Y-117503571D01*
X97335714Y-117467857D01*
X97407142Y-117360714D01*
X97442857Y-117217857D01*
X97442857Y-116932142D01*
X97407142Y-116860714D01*
X97371428Y-116825000D01*
X97300000Y-116789285D01*
X97157142Y-116789285D01*
X97085714Y-116825000D01*
X97050000Y-116860714D01*
X97014285Y-116932142D01*
X97014285Y-117110714D01*
X97050000Y-117182142D01*
X97085714Y-117217857D01*
X97157142Y-117253571D01*
X97300000Y-117253571D01*
X97371428Y-117217857D01*
X97407142Y-117182142D01*
X97442857Y-117110714D01*
D14*
X126052380Y-105361904D02*
X125052380Y-105361904D01*
X125052380Y-105123809D01*
X125100000Y-104980952D01*
X125195238Y-104885714D01*
X125290476Y-104838095D01*
X125480952Y-104790476D01*
X125623809Y-104790476D01*
X125814285Y-104838095D01*
X125909523Y-104885714D01*
X126004761Y-104980952D01*
X126052380Y-105123809D01*
X126052380Y-105361904D01*
X125957142Y-102290476D02*
X126004761Y-102338095D01*
X126052380Y-102480952D01*
X126052380Y-102576190D01*
X126004761Y-102719047D01*
X125909523Y-102814285D01*
X125814285Y-102861904D01*
X125623809Y-102909523D01*
X125480952Y-102909523D01*
X125290476Y-102861904D01*
X125195238Y-102814285D01*
X125100000Y-102719047D01*
X125052380Y-102576190D01*
X125052380Y-102480952D01*
X125100000Y-102338095D01*
X125147619Y-102290476D01*
X125628571Y-97119047D02*
X125628571Y-97880952D01*
X124952380Y-101238095D02*
X124952380Y-100619047D01*
X125333333Y-100952380D01*
X125333333Y-100809523D01*
X125380952Y-100714285D01*
X125428571Y-100666666D01*
X125523809Y-100619047D01*
X125761904Y-100619047D01*
X125857142Y-100666666D01*
X125904761Y-100714285D01*
X125952380Y-100809523D01*
X125952380Y-101095238D01*
X125904761Y-101190476D01*
X125857142Y-101238095D01*
X124952380Y-100333333D02*
X125952380Y-100000000D01*
X124952380Y-99666666D01*
X124952380Y-99428571D02*
X124952380Y-98809523D01*
X125333333Y-99142857D01*
X125333333Y-99000000D01*
X125380952Y-98904761D01*
X125428571Y-98857142D01*
X125523809Y-98809523D01*
X125761904Y-98809523D01*
X125857142Y-98857142D01*
X125904761Y-98904761D01*
X125952380Y-99000000D01*
X125952380Y-99285714D01*
X125904761Y-99380952D01*
X125857142Y-99428571D01*
X132047619Y-96638095D02*
X133047619Y-96638095D01*
X133047619Y-96876190D01*
X133000000Y-97019047D01*
X132904761Y-97114285D01*
X132809523Y-97161904D01*
X132619047Y-97209523D01*
X132476190Y-97209523D01*
X132285714Y-97161904D01*
X132190476Y-97114285D01*
X132095238Y-97019047D01*
X132047619Y-96876190D01*
X132047619Y-96638095D01*
X132142857Y-95109523D02*
X132095238Y-95061904D01*
X132047619Y-94919047D01*
X132047619Y-94823809D01*
X132095238Y-94680952D01*
X132190476Y-94585714D01*
X132285714Y-94538095D01*
X132476190Y-94490476D01*
X132619047Y-94490476D01*
X132809523Y-94538095D01*
X132904761Y-94585714D01*
X133000000Y-94680952D01*
X133047619Y-94823809D01*
X133047619Y-94919047D01*
X133000000Y-95061904D01*
X132952380Y-95109523D01*
X132428571Y-91919047D02*
X132428571Y-92680952D01*
X132947619Y-88461904D02*
X132947619Y-89080952D01*
X132566666Y-88747619D01*
X132566666Y-88890476D01*
X132519047Y-88985714D01*
X132471428Y-89033333D01*
X132376190Y-89080952D01*
X132138095Y-89080952D01*
X132042857Y-89033333D01*
X131995238Y-88985714D01*
X131947619Y-88890476D01*
X131947619Y-88604761D01*
X131995238Y-88509523D01*
X132042857Y-88461904D01*
X132947619Y-89366666D02*
X131947619Y-89700000D01*
X132947619Y-90033333D01*
X132947619Y-90271428D02*
X132947619Y-90890476D01*
X132566666Y-90557142D01*
X132566666Y-90700000D01*
X132519047Y-90795238D01*
X132471428Y-90842857D01*
X132376190Y-90890476D01*
X132138095Y-90890476D01*
X132042857Y-90842857D01*
X131995238Y-90795238D01*
X131947619Y-90700000D01*
X131947619Y-90414285D01*
X131995238Y-90319047D01*
X132042857Y-90271428D01*
D10*
X66821428Y-86764285D02*
X66821428Y-86050000D01*
X68321428Y-86050000D01*
X66821428Y-87264285D02*
X68321428Y-87264285D01*
X68321428Y-87621428D01*
X68250000Y-87835714D01*
X68107142Y-87978571D01*
X67964285Y-88050000D01*
X67678571Y-88121428D01*
X67464285Y-88121428D01*
X67178571Y-88050000D01*
X67035714Y-87978571D01*
X66892857Y-87835714D01*
X66821428Y-87621428D01*
X66821428Y-87264285D01*
X66821428Y-89621428D02*
X67535714Y-89121428D01*
X66821428Y-88764285D02*
X68321428Y-88764285D01*
X68321428Y-89335714D01*
X68250000Y-89478571D01*
X68178571Y-89550000D01*
X68035714Y-89621428D01*
X67821428Y-89621428D01*
X67678571Y-89550000D01*
X67607142Y-89478571D01*
X67535714Y-89335714D01*
X67535714Y-88764285D01*
D15*
X143323809Y-79595238D02*
X143323809Y-81595238D01*
X142561904Y-81595238D01*
X142371428Y-81500000D01*
X142276190Y-81404761D01*
X142180952Y-81214285D01*
X142180952Y-80928571D01*
X142276190Y-80738095D01*
X142371428Y-80642857D01*
X142561904Y-80547619D01*
X143323809Y-80547619D01*
X140180952Y-79595238D02*
X140847619Y-80547619D01*
X141323809Y-79595238D02*
X141323809Y-81595238D01*
X140561904Y-81595238D01*
X140371428Y-81500000D01*
X140276190Y-81404761D01*
X140180952Y-81214285D01*
X140180952Y-80928571D01*
X140276190Y-80738095D01*
X140371428Y-80642857D01*
X140561904Y-80547619D01*
X141323809Y-80547619D01*
X138276190Y-81500000D02*
X138466666Y-81595238D01*
X138752380Y-81595238D01*
X139038095Y-81500000D01*
X139228571Y-81309523D01*
X139323809Y-81119047D01*
X139419047Y-80738095D01*
X139419047Y-80452380D01*
X139323809Y-80071428D01*
X139228571Y-79880952D01*
X139038095Y-79690476D01*
X138752380Y-79595238D01*
X138561904Y-79595238D01*
X138276190Y-79690476D01*
X138180952Y-79785714D01*
X138180952Y-80452380D01*
X138561904Y-80452380D01*
D14*
X138290476Y-83847619D02*
X137719047Y-83847619D01*
X138004761Y-82847619D02*
X138004761Y-83847619D01*
X137480952Y-82847619D02*
X136957142Y-83514285D01*
X137480952Y-83514285D02*
X136957142Y-82847619D01*
X140195238Y-82847619D02*
X140528571Y-83323809D01*
X140766666Y-82847619D02*
X140766666Y-83847619D01*
X140385714Y-83847619D01*
X140290476Y-83800000D01*
X140242857Y-83752380D01*
X140195238Y-83657142D01*
X140195238Y-83514285D01*
X140242857Y-83419047D01*
X140290476Y-83371428D01*
X140385714Y-83323809D01*
X140766666Y-83323809D01*
X139861904Y-82847619D02*
X139338095Y-83514285D01*
X139861904Y-83514285D02*
X139338095Y-82847619D01*
X143938095Y-83847619D02*
X143319047Y-83847619D01*
X143652380Y-83466666D01*
X143509523Y-83466666D01*
X143414285Y-83419047D01*
X143366666Y-83371428D01*
X143319047Y-83276190D01*
X143319047Y-83038095D01*
X143366666Y-82942857D01*
X143414285Y-82895238D01*
X143509523Y-82847619D01*
X143795238Y-82847619D01*
X143890476Y-82895238D01*
X143938095Y-82942857D01*
X143033333Y-83847619D02*
X142700000Y-82847619D01*
X142366666Y-83847619D01*
X142128571Y-83847619D02*
X141509523Y-83847619D01*
X141842857Y-83466666D01*
X141700000Y-83466666D01*
X141604761Y-83419047D01*
X141557142Y-83371428D01*
X141509523Y-83276190D01*
X141509523Y-83038095D01*
X141557142Y-82942857D01*
X141604761Y-82895238D01*
X141700000Y-82847619D01*
X141985714Y-82847619D01*
X142080952Y-82895238D01*
X142128571Y-82942857D01*
X148180952Y-83428571D02*
X147419047Y-83428571D01*
D10*
X68107142Y-99207142D02*
X68035714Y-99421428D01*
X67964285Y-99492857D01*
X67821428Y-99564285D01*
X67607142Y-99564285D01*
X67464285Y-99492857D01*
X67392857Y-99421428D01*
X67321428Y-99278571D01*
X67321428Y-98707142D01*
X68821428Y-98707142D01*
X68821428Y-99207142D01*
X68750000Y-99350000D01*
X68678571Y-99421428D01*
X68535714Y-99492857D01*
X68392857Y-99492857D01*
X68250000Y-99421428D01*
X68178571Y-99350000D01*
X68107142Y-99207142D01*
X68107142Y-98707142D01*
X67750000Y-96242857D02*
X67750000Y-96957142D01*
X67321428Y-96100000D02*
X68821428Y-96600000D01*
X67321428Y-97100000D01*
X67892857Y-100914285D02*
X67892857Y-102057142D01*
X67321428Y-101485714D02*
X68464285Y-101485714D01*
X68821428Y-103485714D02*
X68821428Y-102771428D01*
X68107142Y-102700000D01*
X68178571Y-102771428D01*
X68250000Y-102914285D01*
X68250000Y-103271428D01*
X68178571Y-103414285D01*
X68107142Y-103485714D01*
X67964285Y-103557142D01*
X67607142Y-103557142D01*
X67464285Y-103485714D01*
X67392857Y-103414285D01*
X67321428Y-103271428D01*
X67321428Y-102914285D01*
X67392857Y-102771428D01*
X67464285Y-102700000D01*
X67807142Y-94571428D02*
X67807142Y-93428571D01*
D16*
G04 #@! TO.C,AE1*
X130800000Y-82950000D02*
X130800000Y-83450000D01*
X129400000Y-82950000D02*
X129400000Y-83450000D01*
X129400000Y-82950000D02*
X128800000Y-82950000D01*
X128800000Y-82950000D02*
X128600000Y-82750000D01*
X131600000Y-82750000D02*
X131600000Y-82950000D01*
X131600000Y-82950000D02*
X130800000Y-82950000D01*
X130800000Y-79950000D02*
X131600000Y-79950000D01*
X131600000Y-79950000D02*
X131600000Y-80150000D01*
X128600000Y-80150000D02*
X128600000Y-79950000D01*
X128600000Y-79950000D02*
X129400000Y-79950000D01*
G04 #@! TO.C,C1*
X135660000Y-92852064D02*
X135660000Y-91647936D01*
X133840000Y-92852064D02*
X133840000Y-91647936D01*
G04 #@! TO.C,C5*
X138752500Y-95312500D02*
X139377500Y-95312500D01*
X139065000Y-95625000D02*
X139065000Y-95000000D01*
X142445563Y-94760000D02*
X143510000Y-93695563D01*
X139054437Y-94760000D02*
X137990000Y-93695563D01*
X139054437Y-94760000D02*
X139690000Y-94760000D01*
X142445563Y-94760000D02*
X141810000Y-94760000D01*
X143510000Y-93695563D02*
X143510000Y-89240000D01*
X137990000Y-93695563D02*
X137990000Y-89240000D01*
X137990000Y-89240000D02*
X139690000Y-89240000D01*
X143510000Y-89240000D02*
X141810000Y-89240000D01*
G04 #@! TO.C,C6*
X82297936Y-102960000D02*
X83502064Y-102960000D01*
X82297936Y-101140000D02*
X83502064Y-101140000D01*
G04 #@! TO.C,C7*
X99590000Y-108102064D02*
X99590000Y-106897936D01*
X101410000Y-108102064D02*
X101410000Y-106897936D01*
G04 #@! TO.C,C8*
X107760000Y-108490000D02*
X106060000Y-108490000D01*
X102240000Y-108490000D02*
X103940000Y-108490000D01*
X102240000Y-112945563D02*
X102240000Y-108490000D01*
X107760000Y-112945563D02*
X107760000Y-108490000D01*
X106695563Y-114010000D02*
X106060000Y-114010000D01*
X103304437Y-114010000D02*
X103940000Y-114010000D01*
X103304437Y-114010000D02*
X102240000Y-112945563D01*
X106695563Y-114010000D02*
X107760000Y-112945563D01*
X103315000Y-114875000D02*
X103315000Y-114250000D01*
X103002500Y-114562500D02*
X103627500Y-114562500D01*
G04 #@! TO.C,C9*
X99897936Y-85590000D02*
X101102064Y-85590000D01*
X99897936Y-87410000D02*
X101102064Y-87410000D01*
G04 #@! TO.C,C10*
X99490000Y-98102064D02*
X99490000Y-96897936D01*
X101310000Y-98102064D02*
X101310000Y-96897936D01*
G04 #@! TO.C,D1*
X127165000Y-113400000D02*
X127165000Y-117460000D01*
X127165000Y-117460000D02*
X129435000Y-117460000D01*
X129435000Y-117460000D02*
X129435000Y-113400000D01*
G04 #@! TO.C,D2*
X129485000Y-111960000D02*
X129485000Y-107900000D01*
X127215000Y-111960000D02*
X129485000Y-111960000D01*
X127215000Y-107900000D02*
X127215000Y-111960000D01*
G04 #@! TO.C,D3*
X94600000Y-116585000D02*
X98660000Y-116585000D01*
X98660000Y-116585000D02*
X98660000Y-114315000D01*
X98660000Y-114315000D02*
X94600000Y-114315000D01*
G04 #@! TO.C,D4*
X92110000Y-114315000D02*
X88050000Y-114315000D01*
X92110000Y-116585000D02*
X92110000Y-114315000D01*
X88050000Y-116585000D02*
X92110000Y-116585000D01*
G04 #@! TO.C,J1*
X73410000Y-91390000D02*
X69390000Y-91390000D01*
X69390000Y-91390000D02*
X69390000Y-104110000D01*
X69390000Y-104110000D02*
X73410000Y-104110000D01*
X73410000Y-104110000D02*
X73410000Y-91390000D01*
X71700000Y-91390000D02*
X71700000Y-91890000D01*
X71700000Y-91890000D02*
X72910000Y-91890000D01*
X72910000Y-91890000D02*
X72910000Y-103610000D01*
X72910000Y-103610000D02*
X71700000Y-103610000D01*
X71700000Y-103610000D02*
X71700000Y-104110000D01*
X70890000Y-91390000D02*
X70890000Y-92390000D01*
X70890000Y-92390000D02*
X69390000Y-92390000D01*
X70890000Y-104110000D02*
X70890000Y-103110000D01*
X70890000Y-103110000D02*
X69390000Y-103110000D01*
X71590000Y-91090000D02*
X69090000Y-91090000D01*
X69090000Y-91090000D02*
X69090000Y-93590000D01*
G04 #@! TO.C,J2*
X149080000Y-85750000D02*
X149080000Y-87080000D01*
X149080000Y-87080000D02*
X147750000Y-87080000D01*
X146480000Y-87080000D02*
X133720000Y-87080000D01*
X133720000Y-84420000D02*
X133720000Y-87080000D01*
X146480000Y-84420000D02*
X133720000Y-84420000D01*
X146480000Y-84420000D02*
X146480000Y-87080000D01*
G04 #@! TO.C,J4*
X126420000Y-98770000D02*
X129080000Y-98770000D01*
X126420000Y-98770000D02*
X126420000Y-106450000D01*
X126420000Y-106450000D02*
X129080000Y-106450000D01*
X129080000Y-98770000D02*
X129080000Y-106450000D01*
X129080000Y-96170000D02*
X129080000Y-97500000D01*
X127750000Y-96170000D02*
X129080000Y-96170000D01*
G04 #@! TO.C,J6*
X129070000Y-91070000D02*
X131730000Y-91070000D01*
X129070000Y-91070000D02*
X129070000Y-103830000D01*
X129070000Y-103830000D02*
X131730000Y-103830000D01*
X131730000Y-91070000D02*
X131730000Y-103830000D01*
X131730000Y-88470000D02*
X131730000Y-89800000D01*
X130400000Y-88470000D02*
X131730000Y-88470000D01*
G04 #@! TO.C,J9*
X150810000Y-111540000D02*
X143190000Y-111540000D01*
X150810000Y-96300000D02*
X143190000Y-96300000D01*
X149540000Y-111540000D02*
X149540000Y-96300000D01*
X143190000Y-111540000D02*
X143190000Y-96300000D01*
X150810000Y-111540000D02*
X150810000Y-96300000D01*
G04 #@! TO.C,Q3*
X91190000Y-105170000D02*
X91190000Y-106100000D01*
X91190000Y-108330000D02*
X91190000Y-107400000D01*
X91190000Y-108330000D02*
X93350000Y-108330000D01*
X91190000Y-105170000D02*
X92650000Y-105170000D01*
G04 #@! TO.C,Q4*
X91240000Y-96820000D02*
X91240000Y-97750000D01*
X91240000Y-99980000D02*
X91240000Y-99050000D01*
X91240000Y-99980000D02*
X93400000Y-99980000D01*
X91240000Y-96820000D02*
X92700000Y-96820000D01*
G04 #@! TO.C,Q5*
X91190000Y-101270000D02*
X91190000Y-102200000D01*
X91190000Y-104430000D02*
X91190000Y-103500000D01*
X91190000Y-104430000D02*
X93350000Y-104430000D01*
X91190000Y-101270000D02*
X92650000Y-101270000D01*
G04 #@! TO.C,Q10*
X125680000Y-114790000D02*
X124750000Y-114790000D01*
X122520000Y-114790000D02*
X123450000Y-114790000D01*
X122520000Y-114790000D02*
X122520000Y-116950000D01*
X125680000Y-114790000D02*
X125680000Y-116250000D01*
G04 #@! TO.C,Q11*
X125730000Y-108590000D02*
X125730000Y-110050000D01*
X122570000Y-108590000D02*
X122570000Y-110750000D01*
X122570000Y-108590000D02*
X123500000Y-108590000D01*
X125730000Y-108590000D02*
X124800000Y-108590000D01*
G04 #@! TO.C,R1*
X75990000Y-93038748D02*
X75990000Y-93561252D01*
X77410000Y-93038748D02*
X77410000Y-93561252D01*
G04 #@! TO.C,R2*
X77410000Y-97138748D02*
X77410000Y-97661252D01*
X75990000Y-97138748D02*
X75990000Y-97661252D01*
G04 #@! TO.C,R3*
X75990000Y-101761252D02*
X75990000Y-101238748D01*
X77410000Y-101761252D02*
X77410000Y-101238748D01*
G04 #@! TO.C,R6*
X95861252Y-105140000D02*
X95338748Y-105140000D01*
X95861252Y-106560000D02*
X95338748Y-106560000D01*
G04 #@! TO.C,R7*
X96011252Y-96890000D02*
X95488748Y-96890000D01*
X96011252Y-98310000D02*
X95488748Y-98310000D01*
G04 #@! TO.C,R8*
X96061252Y-102710000D02*
X95538748Y-102710000D01*
X96061252Y-101290000D02*
X95538748Y-101290000D01*
G04 #@! TO.C,R9*
X131710000Y-108963748D02*
X131710000Y-109486252D01*
X130290000Y-108963748D02*
X130290000Y-109486252D01*
G04 #@! TO.C,R15*
X89210000Y-106911252D02*
X89210000Y-106388748D01*
X87790000Y-106911252D02*
X87790000Y-106388748D01*
G04 #@! TO.C,R16*
X89360000Y-98561252D02*
X89360000Y-98038748D01*
X87940000Y-98561252D02*
X87940000Y-98038748D01*
G04 #@! TO.C,R17*
X89260000Y-103111252D02*
X89260000Y-102588748D01*
X87840000Y-103111252D02*
X87840000Y-102588748D01*
G04 #@! TO.C,R22*
X73100000Y-85600000D02*
X70050000Y-85600000D01*
X73100000Y-89900000D02*
X70050000Y-89900000D01*
X73078234Y-89915526D02*
G75*
G03X73100000Y-85600000I-1528234J2165526D01*
G01*
X70005487Y-85631751D02*
G75*
G03X70050000Y-89900000I1544513J-2118249D01*
G01*
G04 #@! TO.C,R23*
X99690000Y-92338748D02*
X99690000Y-92861252D01*
X101110000Y-92338748D02*
X101110000Y-92861252D01*
G04 #@! TO.C,R24*
X100638748Y-90060000D02*
X101161252Y-90060000D01*
X100638748Y-88640000D02*
X101161252Y-88640000D01*
G04 #@! TO.C,R25*
X94488748Y-87540000D02*
X95011252Y-87540000D01*
X94488748Y-88960000D02*
X95011252Y-88960000D01*
G04 #@! TO.C,R26*
X118990000Y-115836252D02*
X118990000Y-115313748D01*
X120410000Y-115836252D02*
X120410000Y-115313748D01*
G04 #@! TO.C,R27*
X120410000Y-109511252D02*
X120410000Y-108988748D01*
X118990000Y-109511252D02*
X118990000Y-108988748D01*
G04 #@! TO.C,R28*
X97061252Y-112960000D02*
X96538748Y-112960000D01*
X97061252Y-111540000D02*
X96538748Y-111540000D01*
G04 #@! TO.C,R29*
X90511252Y-112960000D02*
X89988748Y-112960000D01*
X90511252Y-111540000D02*
X89988748Y-111540000D01*
G04 #@! TO.C,SW1*
X97600000Y-91150000D02*
X97600000Y-91800000D01*
X97600000Y-94850000D02*
X97600000Y-94200000D01*
X91400000Y-94200000D02*
X91400000Y-94850000D01*
X91400000Y-91150000D02*
X91400000Y-91800000D01*
X97600000Y-91150000D02*
X91400000Y-91150000D01*
X91400000Y-94850000D02*
X97600000Y-94850000D01*
G04 #@! TO.C,SW2*
X97600000Y-80400000D02*
X97600000Y-81050000D01*
X97600000Y-84100000D02*
X97600000Y-83450000D01*
X91400000Y-83450000D02*
X91400000Y-84100000D01*
X91400000Y-80400000D02*
X91400000Y-81050000D01*
X97600000Y-80400000D02*
X91400000Y-80400000D01*
X91400000Y-84100000D02*
X97600000Y-84100000D01*
G04 #@! TO.C,SW3*
X89100000Y-80400000D02*
X82900000Y-80400000D01*
X82900000Y-84100000D02*
X89100000Y-84100000D01*
X89100000Y-84100000D02*
X89100000Y-83450000D01*
X89100000Y-81050000D02*
X89100000Y-80400000D01*
X82900000Y-80400000D02*
X82900000Y-81050000D01*
X82900000Y-84100000D02*
X82900000Y-83450000D01*
G04 #@! TO.C,SW4*
X80600000Y-80400000D02*
X74400000Y-80400000D01*
X74400000Y-84100000D02*
X80600000Y-84100000D01*
X80600000Y-84100000D02*
X80600000Y-83450000D01*
X80600000Y-81050000D02*
X80600000Y-80400000D01*
X74400000Y-80400000D02*
X74400000Y-81050000D01*
X74400000Y-84100000D02*
X74400000Y-83450000D01*
D13*
G04 #@! TO.C,U1*
X84675000Y-99325000D02*
X84675000Y-99275000D01*
X80525000Y-99325000D02*
X80525000Y-99180000D01*
X80525000Y-94175000D02*
X80525000Y-94320000D01*
X84675000Y-94175000D02*
X84675000Y-94320000D01*
X84675000Y-99325000D02*
X80525000Y-99325000D01*
X84675000Y-94175000D02*
X80525000Y-94175000D01*
X84675000Y-99275000D02*
X86075000Y-99275000D01*
D16*
G04 #@! TO.C,U2*
X109840000Y-113910000D02*
X111100000Y-113910000D01*
X116660000Y-113910000D02*
X115400000Y-113910000D01*
X109840000Y-110150000D02*
X109840000Y-113910000D01*
X116660000Y-107900000D02*
X116660000Y-113910000D01*
G04 #@! TO.C,U4*
X104005000Y-103925000D02*
X104005000Y-104705000D01*
X104005000Y-104705000D02*
X105005000Y-104705000D01*
X122245000Y-103925000D02*
X122245000Y-104705000D01*
X122245000Y-104705000D02*
X121245000Y-104705000D01*
X104005000Y-78960000D02*
X122245000Y-78960000D01*
X122245000Y-78960000D02*
X122245000Y-85380000D01*
X104005000Y-78960000D02*
X104005000Y-85380000D01*
X104005000Y-85380000D02*
X103625000Y-85380000D01*
D13*
G04 #@! TO.C,K1*
X132420000Y-117410000D02*
X132420000Y-97090000D01*
X132420000Y-97090000D02*
X142580000Y-97090000D01*
X142580000Y-97090000D02*
X142580000Y-117410000D01*
X142580000Y-117410000D02*
X132420000Y-117410000D01*
D16*
G04 #@! TO.C,J8*
X148185000Y-95925000D02*
X146635000Y-95925000D01*
X148185000Y-95925000D02*
X148185000Y-95625000D01*
X150985000Y-95625000D02*
X148185000Y-95625000D01*
X148185000Y-87625000D02*
X146635000Y-87625000D01*
X148185000Y-87925000D02*
X148185000Y-87625000D01*
X150985000Y-87925000D02*
X148185000Y-87925000D01*
X144935000Y-92675000D02*
X145385000Y-93075000D01*
X144935000Y-93475000D02*
X144935000Y-92675000D01*
X145385000Y-93075000D02*
X144935000Y-93475000D01*
G04 #@! TO.C,D5*
X81040000Y-116635000D02*
X85100000Y-116635000D01*
X81040000Y-114365000D02*
X81040000Y-116635000D01*
X85100000Y-114365000D02*
X81040000Y-114365000D01*
G04 #@! TO.C,D6*
X78350000Y-114365000D02*
X74290000Y-114365000D01*
X74290000Y-114365000D02*
X74290000Y-116635000D01*
X74290000Y-116635000D02*
X78350000Y-116635000D01*
G04 #@! TO.C,R4*
X77761252Y-87540000D02*
X77238748Y-87540000D01*
X77761252Y-88960000D02*
X77238748Y-88960000D01*
G04 #@! TO.C,R5*
X81710000Y-87213748D02*
X81710000Y-87736252D01*
X80290000Y-87213748D02*
X80290000Y-87736252D01*
G04 #@! TO.C,R30*
X83488748Y-112960000D02*
X84011252Y-112960000D01*
X83488748Y-111540000D02*
X84011252Y-111540000D01*
G04 #@! TO.C,R31*
X76488748Y-111540000D02*
X77011252Y-111540000D01*
X76488748Y-112960000D02*
X77011252Y-112960000D01*
G04 #@! TO.C,J3*
X85700000Y-109580000D02*
X85700000Y-104380000D01*
X78020000Y-109580000D02*
X85700000Y-109580000D01*
X75420000Y-104380000D02*
X85700000Y-104380000D01*
X78020000Y-109580000D02*
X78020000Y-106980000D01*
X78020000Y-106980000D02*
X75420000Y-106980000D01*
X75420000Y-106980000D02*
X75420000Y-104380000D01*
X76750000Y-109580000D02*
X75420000Y-109580000D01*
X75420000Y-109580000D02*
X75420000Y-108250000D01*
G04 #@! TO.C,J5*
X82380000Y-91120000D02*
X82380000Y-88520000D01*
X82380000Y-91120000D02*
X90120000Y-91120000D01*
X90120000Y-91120000D02*
X90120000Y-85920000D01*
X84980000Y-85920000D02*
X90120000Y-85920000D01*
X84980000Y-88520000D02*
X84980000Y-85920000D01*
X82380000Y-88520000D02*
X84980000Y-88520000D01*
X82380000Y-85920000D02*
X83710000Y-85920000D01*
X82380000Y-87250000D02*
X82380000Y-85920000D01*
D17*
G04 #@! TO.C,G\002A\002A\002A*
G36*
X67996625Y-110041437D02*
X67988687Y-110049375D01*
X67980750Y-110041437D01*
X67988687Y-110033500D01*
X67996625Y-110041437D01*
X67996625Y-110041437D01*
G37*
X67996625Y-110041437D02*
X67988687Y-110049375D01*
X67980750Y-110041437D01*
X67988687Y-110033500D01*
X67996625Y-110041437D01*
G36*
X71600250Y-110311312D02*
X71592312Y-110319250D01*
X71584375Y-110311312D01*
X71592312Y-110303375D01*
X71600250Y-110311312D01*
X71600250Y-110311312D01*
G37*
X71600250Y-110311312D02*
X71592312Y-110319250D01*
X71584375Y-110311312D01*
X71592312Y-110303375D01*
X71600250Y-110311312D01*
G36*
X69868052Y-106445904D02*
X69940146Y-106446795D01*
X69990793Y-106449064D01*
X70025146Y-106453354D01*
X70048356Y-106460305D01*
X70065576Y-106470560D01*
X70081869Y-106484679D01*
X70110877Y-106518510D01*
X70125900Y-106549397D01*
X70126292Y-106552148D01*
X70130334Y-106585446D01*
X70132399Y-106596562D01*
X70139521Y-106627324D01*
X70139750Y-106628312D01*
X70146871Y-106659074D01*
X70147100Y-106660062D01*
X70150965Y-106687245D01*
X70153450Y-106715625D01*
X70157704Y-106741062D01*
X70166997Y-106737652D01*
X70170825Y-106732047D01*
X70179728Y-106728219D01*
X70183344Y-106754160D01*
X70183068Y-106784577D01*
X70184920Y-106831353D01*
X70192430Y-106863966D01*
X70197718Y-106871343D01*
X70208653Y-106893341D01*
X70211723Y-106931629D01*
X70211597Y-106933906D01*
X70212962Y-106968956D01*
X70220628Y-106985337D01*
X70221677Y-106985500D01*
X70233507Y-106998394D01*
X70235000Y-107009312D01*
X70248850Y-107028433D01*
X70275624Y-107033125D01*
X70302633Y-107038164D01*
X70306437Y-107049000D01*
X70308222Y-107063605D01*
X70314375Y-107064874D01*
X70326211Y-107072594D01*
X70324762Y-107076781D01*
X70334795Y-107083086D01*
X70368409Y-107086815D01*
X70402548Y-107087289D01*
X70452571Y-107089038D01*
X70476945Y-107095832D01*
X70477927Y-107101696D01*
X70481821Y-107111056D01*
X70502392Y-107108549D01*
X70529032Y-107106287D01*
X70536625Y-107112184D01*
X70549778Y-107126832D01*
X70581181Y-107132306D01*
X70618743Y-107128798D01*
X70650376Y-107116499D01*
X70657710Y-107110264D01*
X70684432Y-107091117D01*
X70714404Y-107098316D01*
X70715163Y-107098719D01*
X70736924Y-107107989D01*
X70736281Y-107098725D01*
X70734374Y-107095511D01*
X70731740Y-107081902D01*
X70746536Y-107084801D01*
X70763854Y-107085361D01*
X70763338Y-107072812D01*
X70790625Y-107072812D01*
X70798562Y-107080750D01*
X70806500Y-107072812D01*
X70798562Y-107064875D01*
X70790625Y-107072812D01*
X70763338Y-107072812D01*
X70762925Y-107062801D01*
X70762515Y-107061204D01*
X70761327Y-107041062D01*
X70838250Y-107041062D01*
X70846187Y-107049000D01*
X70854125Y-107041062D01*
X70846187Y-107033125D01*
X70838250Y-107041062D01*
X70761327Y-107041062D01*
X70761159Y-107038228D01*
X70770969Y-107038726D01*
X70794391Y-107037500D01*
X70812023Y-107025333D01*
X70833110Y-107009312D01*
X70885875Y-107009312D01*
X70893812Y-107017250D01*
X70901750Y-107009312D01*
X70893812Y-107001375D01*
X70885875Y-107009312D01*
X70833110Y-107009312D01*
X70837720Y-107005810D01*
X70850609Y-107001374D01*
X70870943Y-106992717D01*
X70906759Y-106970606D01*
X70930980Y-106953750D01*
X70971631Y-106926417D01*
X71002864Y-106909191D01*
X71012737Y-106906125D01*
X71028286Y-106896609D01*
X71028750Y-106893628D01*
X71042132Y-106882482D01*
X71060843Y-106878714D01*
X71082661Y-106883009D01*
X71082739Y-106892794D01*
X71085291Y-106899810D01*
X71106653Y-106891037D01*
X71127462Y-106871194D01*
X71130012Y-106851063D01*
X71129073Y-106850562D01*
X71155750Y-106850562D01*
X71163687Y-106858500D01*
X71171625Y-106850562D01*
X71163687Y-106842625D01*
X71155750Y-106850562D01*
X71129073Y-106850562D01*
X71114188Y-106842625D01*
X71113105Y-106852879D01*
X71116062Y-106858500D01*
X71114061Y-106873095D01*
X71107738Y-106874375D01*
X71094463Y-106863409D01*
X71095292Y-106857309D01*
X71109002Y-106842060D01*
X71112656Y-106841756D01*
X71133888Y-106836415D01*
X71146905Y-106830775D01*
X71190913Y-106830775D01*
X71204062Y-106839427D01*
X71211312Y-106842625D01*
X71241293Y-106854916D01*
X71249270Y-106854534D01*
X71243062Y-106842625D01*
X71220495Y-106829289D01*
X71206406Y-106827865D01*
X71190913Y-106830775D01*
X71146905Y-106830775D01*
X71167822Y-106821713D01*
X71207797Y-106808544D01*
X71242632Y-106816663D01*
X71246937Y-106818839D01*
X71270017Y-106836052D01*
X71272446Y-106847637D01*
X71275820Y-106860590D01*
X71288651Y-106867853D01*
X71317853Y-106885338D01*
X71353421Y-106914433D01*
X71386146Y-106946511D01*
X71406814Y-106972947D01*
X71409750Y-106981249D01*
X71422252Y-106998755D01*
X71448678Y-107016843D01*
X71476097Y-107034998D01*
X71484903Y-107047307D01*
X71494086Y-107062194D01*
X71520882Y-107093246D01*
X71560089Y-107134545D01*
X71572974Y-107147529D01*
X71623913Y-107202774D01*
X71655063Y-107246260D01*
X71664931Y-107275248D01*
X71652024Y-107287001D01*
X71649136Y-107287124D01*
X71635903Y-107300810D01*
X71624268Y-107333823D01*
X71624062Y-107334749D01*
X71612543Y-107368077D01*
X71599274Y-107382366D01*
X71598988Y-107382374D01*
X71586017Y-107395251D01*
X71584375Y-107406187D01*
X71572776Y-107427258D01*
X71562719Y-107429999D01*
X71544862Y-107443587D01*
X71523873Y-107478128D01*
X71513781Y-107501437D01*
X71494927Y-107543125D01*
X71477639Y-107568864D01*
X71471000Y-107572874D01*
X71461744Y-107581936D01*
X71463328Y-107585539D01*
X71462766Y-107608146D01*
X71456570Y-107621257D01*
X71444615Y-107636096D01*
X71441188Y-107622533D01*
X71441105Y-107620500D01*
X71435201Y-107620732D01*
X71420692Y-107645010D01*
X71403171Y-107682563D01*
X71373144Y-107739881D01*
X71335543Y-107794609D01*
X71296244Y-107839727D01*
X71261123Y-107868213D01*
X71242531Y-107874499D01*
X71220034Y-107887262D01*
X71213509Y-107898312D01*
X71192293Y-107919430D01*
X71180060Y-107922124D01*
X71158589Y-107928513D01*
X71155750Y-107934124D01*
X71142900Y-107948465D01*
X71112093Y-107966030D01*
X71074195Y-107988695D01*
X71028104Y-108023352D01*
X71007153Y-108041343D01*
X70965994Y-108073279D01*
X70928966Y-108093302D01*
X70914173Y-108096749D01*
X70890981Y-108104639D01*
X70890926Y-108118765D01*
X70889140Y-108134155D01*
X70868136Y-108132612D01*
X70843944Y-108133137D01*
X70841542Y-108146315D01*
X70832822Y-108163438D01*
X70810468Y-108166286D01*
X70782016Y-108172941D01*
X70774750Y-108186130D01*
X70761699Y-108206848D01*
X70725989Y-108209994D01*
X70721976Y-108209361D01*
X70716461Y-108217364D01*
X70720041Y-108225131D01*
X70719205Y-108246770D01*
X70694147Y-108263757D01*
X70652391Y-108271109D01*
X70650584Y-108271131D01*
X70617599Y-108263988D01*
X70589643Y-108247022D01*
X70579241Y-108231687D01*
X70631875Y-108231687D01*
X70639812Y-108239625D01*
X70647750Y-108231687D01*
X70639812Y-108223750D01*
X70631875Y-108231687D01*
X70579241Y-108231687D01*
X70576447Y-108227569D01*
X70579714Y-108217702D01*
X70575971Y-108209336D01*
X70564153Y-108207875D01*
X70539343Y-108194621D01*
X70528687Y-108176125D01*
X70513985Y-108150456D01*
X70502746Y-108144374D01*
X70481052Y-108135451D01*
X70457853Y-108120562D01*
X70489000Y-108120562D01*
X70496937Y-108128500D01*
X70504875Y-108120562D01*
X70496937Y-108112625D01*
X70489000Y-108120562D01*
X70457853Y-108120562D01*
X70446373Y-108113195D01*
X70434848Y-108104687D01*
X70397826Y-108079615D01*
X70384040Y-108072937D01*
X70917625Y-108072937D01*
X70925562Y-108080875D01*
X70933500Y-108072937D01*
X70925562Y-108065000D01*
X70917625Y-108072937D01*
X70384040Y-108072937D01*
X70369478Y-108065884D01*
X70364470Y-108064999D01*
X70347116Y-108054986D01*
X70346125Y-108050194D01*
X70333011Y-108035217D01*
X70303631Y-108020848D01*
X70272927Y-108013534D01*
X70262781Y-108014229D01*
X70251283Y-108005510D01*
X70250875Y-108001500D01*
X70237578Y-107988601D01*
X70219125Y-107985625D01*
X70193315Y-107979884D01*
X70187375Y-107971937D01*
X70172502Y-107967142D01*
X70131848Y-107963820D01*
X70071359Y-107962236D01*
X69996979Y-107962654D01*
X69984968Y-107962906D01*
X69871325Y-107965931D01*
X69786435Y-107969228D01*
X69727304Y-107973046D01*
X69690935Y-107977628D01*
X69674333Y-107983220D01*
X69673183Y-107988450D01*
X69667961Y-108001220D01*
X69643016Y-108009763D01*
X69610338Y-108011356D01*
X69590330Y-108007268D01*
X69571275Y-108003725D01*
X69572081Y-108009416D01*
X69573626Y-108030736D01*
X69566168Y-108043695D01*
X69544225Y-108059966D01*
X69522102Y-108064677D01*
X69510991Y-108057188D01*
X69514203Y-108046672D01*
X69516153Y-108035877D01*
X69506120Y-108040340D01*
X69493677Y-108063320D01*
X69495548Y-108075367D01*
X69495891Y-108090492D01*
X69489250Y-108089044D01*
X69470910Y-108094356D01*
X69439334Y-108117831D01*
X69411915Y-108143782D01*
X69374598Y-108179040D01*
X69344018Y-108202319D01*
X69331045Y-108207875D01*
X69319461Y-108216934D01*
X69321554Y-108222724D01*
X69317590Y-108242556D01*
X69295969Y-108272124D01*
X69290740Y-108277565D01*
X69263288Y-108316110D01*
X69250818Y-108355519D01*
X69250750Y-108357965D01*
X69245505Y-108388145D01*
X69235177Y-108398375D01*
X69220227Y-108411866D01*
X69209406Y-108439009D01*
X69196173Y-108466594D01*
X69181322Y-108472779D01*
X69174830Y-108484748D01*
X69169995Y-108521993D01*
X69166788Y-108578088D01*
X69165180Y-108646603D01*
X69165144Y-108721111D01*
X69166652Y-108795183D01*
X69169674Y-108862392D01*
X69174182Y-108916309D01*
X69180148Y-108950506D01*
X69183464Y-108957957D01*
X69197887Y-108986836D01*
X69210349Y-109028749D01*
X69210490Y-109029406D01*
X69221872Y-109064399D01*
X69234892Y-109080824D01*
X69236136Y-109081000D01*
X69249083Y-109093887D01*
X69250750Y-109104967D01*
X69261953Y-109132796D01*
X69282500Y-109156120D01*
X69306761Y-109185394D01*
X69314493Y-109207559D01*
X69316883Y-109223644D01*
X69327632Y-109211817D01*
X69330125Y-109208000D01*
X69342301Y-109193867D01*
X69345692Y-109209283D01*
X69345756Y-109213537D01*
X69356916Y-109242327D01*
X69384443Y-109278130D01*
X69394833Y-109288503D01*
X69422720Y-109320190D01*
X69434368Y-109345213D01*
X69433340Y-109350828D01*
X69431622Y-109364029D01*
X69436101Y-109364119D01*
X69463543Y-109364640D01*
X69500645Y-109373106D01*
X69534437Y-109385542D01*
X69551949Y-109397971D01*
X69552375Y-109399761D01*
X69565995Y-109410655D01*
X69592999Y-109414375D01*
X69620008Y-109419414D01*
X69623812Y-109430250D01*
X69630652Y-109440783D01*
X69658083Y-109447886D01*
X69694980Y-109449586D01*
X69718182Y-109446975D01*
X69745656Y-109451710D01*
X69776354Y-109468652D01*
X69797252Y-109489378D01*
X69799771Y-109499723D01*
X69800058Y-109508905D01*
X69802362Y-109505656D01*
X69815038Y-109501687D01*
X71409750Y-109501687D01*
X71417687Y-109509625D01*
X71425625Y-109501687D01*
X71417687Y-109493750D01*
X71409750Y-109501687D01*
X69815038Y-109501687D01*
X69820273Y-109500048D01*
X69861791Y-109495861D01*
X69918781Y-109493833D01*
X69933563Y-109493750D01*
X70007589Y-109491415D01*
X70042964Y-109485812D01*
X70171500Y-109485812D01*
X70179437Y-109493750D01*
X70187375Y-109485812D01*
X70179437Y-109477875D01*
X70171500Y-109485812D01*
X70042964Y-109485812D01*
X70055232Y-109483869D01*
X70081552Y-109470299D01*
X70081919Y-109469937D01*
X70106362Y-109453783D01*
X70132403Y-109446415D01*
X70149250Y-109449336D01*
X70148513Y-109460662D01*
X70155356Y-109465400D01*
X70182565Y-109460639D01*
X70203954Y-109454062D01*
X70282625Y-109454062D01*
X70290562Y-109462000D01*
X70298500Y-109454062D01*
X70290562Y-109446125D01*
X70282625Y-109454062D01*
X70203954Y-109454062D01*
X70221078Y-109448797D01*
X70261831Y-109432291D01*
X70270503Y-109428122D01*
X70288035Y-109422312D01*
X70362000Y-109422312D01*
X70369937Y-109430250D01*
X70377875Y-109422312D01*
X70369937Y-109414375D01*
X70362000Y-109422312D01*
X70288035Y-109422312D01*
X70306437Y-109416214D01*
X70322097Y-109414375D01*
X70343360Y-109405869D01*
X70346125Y-109398500D01*
X70353372Y-109390562D01*
X70409625Y-109390562D01*
X70417562Y-109398500D01*
X70425500Y-109390562D01*
X70417562Y-109382625D01*
X70409625Y-109390562D01*
X70353372Y-109390562D01*
X70358983Y-109384416D01*
X70369937Y-109382625D01*
X70391215Y-109374687D01*
X70441375Y-109374687D01*
X70449312Y-109382625D01*
X70457250Y-109374687D01*
X70449312Y-109366750D01*
X70441375Y-109374687D01*
X70391215Y-109374687D01*
X70398107Y-109372116D01*
X70425500Y-109350875D01*
X70434265Y-109342937D01*
X71346250Y-109342937D01*
X71354187Y-109350875D01*
X71362125Y-109342937D01*
X71354187Y-109335000D01*
X71346250Y-109342937D01*
X70434265Y-109342937D01*
X70451794Y-109327062D01*
X70504875Y-109327062D01*
X70512812Y-109335000D01*
X70520750Y-109327062D01*
X71314500Y-109327062D01*
X71322437Y-109335000D01*
X71330375Y-109327062D01*
X71322437Y-109319125D01*
X71314500Y-109327062D01*
X70520750Y-109327062D01*
X70512812Y-109319125D01*
X70504875Y-109327062D01*
X70451794Y-109327062D01*
X70452666Y-109326273D01*
X70469156Y-109315156D01*
X70477306Y-109300086D01*
X70476983Y-109298950D01*
X70487060Y-109292389D01*
X70513963Y-109294159D01*
X70541307Y-109296737D01*
X70541513Y-109295312D01*
X71251000Y-109295312D01*
X71258937Y-109303250D01*
X71266875Y-109295312D01*
X71258937Y-109287375D01*
X71251000Y-109295312D01*
X70541513Y-109295312D01*
X70542655Y-109287444D01*
X70536861Y-109279722D01*
X70530588Y-109263562D01*
X70568375Y-109263562D01*
X70576312Y-109271500D01*
X70584250Y-109263562D01*
X71187500Y-109263562D01*
X71195437Y-109271500D01*
X71203375Y-109263562D01*
X71195437Y-109255625D01*
X71187500Y-109263562D01*
X70584250Y-109263562D01*
X70576312Y-109255625D01*
X70568375Y-109263562D01*
X70530588Y-109263562D01*
X70528985Y-109259434D01*
X70548522Y-109241908D01*
X70551287Y-109240398D01*
X70560126Y-109231812D01*
X70600125Y-109231812D01*
X70608062Y-109239750D01*
X70616000Y-109231812D01*
X70608062Y-109223875D01*
X70600125Y-109231812D01*
X70560126Y-109231812D01*
X70580983Y-109211555D01*
X70586379Y-109200062D01*
X70616000Y-109200062D01*
X70623937Y-109208000D01*
X70631875Y-109200062D01*
X70623937Y-109192125D01*
X70616000Y-109200062D01*
X70586379Y-109200062D01*
X70593343Y-109185234D01*
X70601551Y-109168312D01*
X70616000Y-109168312D01*
X70623937Y-109176250D01*
X70631875Y-109168312D01*
X70623937Y-109160375D01*
X70616000Y-109168312D01*
X70601551Y-109168312D01*
X70609251Y-109152437D01*
X70647750Y-109152437D01*
X70655687Y-109160375D01*
X70663625Y-109152437D01*
X70655687Y-109144500D01*
X70647750Y-109152437D01*
X70609251Y-109152437D01*
X70611708Y-109147373D01*
X70633606Y-109120687D01*
X70663625Y-109120687D01*
X70671562Y-109128625D01*
X70679500Y-109120687D01*
X70671562Y-109112750D01*
X70663625Y-109120687D01*
X70633606Y-109120687D01*
X70641155Y-109111488D01*
X70667616Y-109081568D01*
X70671920Y-109073062D01*
X70822375Y-109073062D01*
X70830312Y-109081000D01*
X70838250Y-109073062D01*
X70830312Y-109065125D01*
X70822375Y-109073062D01*
X70671920Y-109073062D01*
X70677973Y-109061104D01*
X70724795Y-109061104D01*
X70727132Y-109069078D01*
X70755941Y-109068002D01*
X70762344Y-109067011D01*
X70793790Y-109060805D01*
X70795808Y-109056328D01*
X70776887Y-109052468D01*
X70741939Y-109053372D01*
X70724795Y-109061104D01*
X70677973Y-109061104D01*
X70679455Y-109058176D01*
X70679500Y-109057257D01*
X70693427Y-109045941D01*
X70727735Y-109038390D01*
X70771214Y-109035193D01*
X70812655Y-109036938D01*
X70840848Y-109044214D01*
X70845741Y-109048528D01*
X70867382Y-109060435D01*
X70905431Y-109066209D01*
X70906655Y-109066240D01*
X70937643Y-109068231D01*
X70939601Y-109073457D01*
X70925562Y-109079918D01*
X70888677Y-109087131D01*
X70870000Y-109085243D01*
X70855068Y-109082449D01*
X70867788Y-109093431D01*
X70900071Y-109102916D01*
X70923351Y-109101489D01*
X70945618Y-109098456D01*
X70939998Y-109107251D01*
X70933500Y-109112412D01*
X70920969Y-109124436D01*
X70934777Y-109123472D01*
X70946168Y-109120415D01*
X70982801Y-109118844D01*
X71003039Y-109127049D01*
X71035850Y-109148984D01*
X71083840Y-109174991D01*
X71138900Y-109201438D01*
X71192921Y-109224692D01*
X71237793Y-109241121D01*
X71265407Y-109247093D01*
X71269183Y-109246260D01*
X71280342Y-109244233D01*
X71277440Y-109251373D01*
X71279351Y-109273609D01*
X71290862Y-109287520D01*
X71309953Y-109298821D01*
X71314500Y-109288184D01*
X71322590Y-109281151D01*
X71339446Y-109294178D01*
X71369226Y-109314453D01*
X71387071Y-109319125D01*
X71407376Y-109331769D01*
X71409750Y-109341867D01*
X71422990Y-109364377D01*
X71442163Y-109374898D01*
X71466479Y-109393741D01*
X71467161Y-109411686D01*
X71458817Y-109445804D01*
X71449382Y-109489686D01*
X71435014Y-109529592D01*
X71414632Y-109554816D01*
X71413952Y-109555213D01*
X71400429Y-109567126D01*
X71401860Y-109585680D01*
X71419679Y-109619554D01*
X71426422Y-109630714D01*
X71451632Y-109668877D01*
X71471465Y-109693482D01*
X71476542Y-109697479D01*
X71488231Y-109715747D01*
X71489125Y-109723937D01*
X71498809Y-109746902D01*
X71504540Y-109750395D01*
X71518572Y-109768443D01*
X71525703Y-109793650D01*
X71540857Y-109831677D01*
X71557912Y-109850962D01*
X71579927Y-109878691D01*
X71584375Y-109896343D01*
X71591777Y-109918864D01*
X71599180Y-109922375D01*
X71614928Y-109935567D01*
X71625087Y-109957353D01*
X71647131Y-110000536D01*
X71677038Y-110028311D01*
X71694924Y-110033500D01*
X71704521Y-110041823D01*
X71695500Y-110065250D01*
X71686871Y-110091374D01*
X71694941Y-110097000D01*
X71705304Y-110111066D01*
X71710998Y-110146136D01*
X71711375Y-110159419D01*
X71706478Y-110205561D01*
X71686247Y-110237305D01*
X71659781Y-110258613D01*
X71624228Y-110282009D01*
X71599671Y-110294675D01*
X71596281Y-110295412D01*
X71583635Y-110307738D01*
X71583025Y-110311312D01*
X71571776Y-110338729D01*
X71550716Y-110357109D01*
X71534557Y-110357582D01*
X71523843Y-110357914D01*
X71524450Y-110362032D01*
X71517701Y-110381664D01*
X71495404Y-110411308D01*
X71493093Y-110413831D01*
X71468596Y-110443117D01*
X71457440Y-110462271D01*
X71457375Y-110462994D01*
X71445831Y-110477738D01*
X71415907Y-110504955D01*
X71383332Y-110531438D01*
X71318485Y-110572989D01*
X71263288Y-110586969D01*
X71212841Y-110574026D01*
X71187500Y-110557375D01*
X71154072Y-110535369D01*
X71129332Y-110525978D01*
X71129291Y-110525977D01*
X71107780Y-110516161D01*
X71105479Y-110512330D01*
X71087195Y-110491619D01*
X71050798Y-110463224D01*
X71037171Y-110454187D01*
X71076375Y-110454187D01*
X71084312Y-110462125D01*
X71092250Y-110454187D01*
X71084312Y-110446250D01*
X71076375Y-110454187D01*
X71037171Y-110454187D01*
X71006481Y-110433836D01*
X70964440Y-110410144D01*
X70934872Y-110398839D01*
X70932187Y-110398625D01*
X70904567Y-110385394D01*
X70894356Y-110368589D01*
X70872290Y-110340157D01*
X70852001Y-110329970D01*
X70829892Y-110317323D01*
X70828737Y-110305923D01*
X70824635Y-110296734D01*
X70806521Y-110298769D01*
X70781254Y-110298526D01*
X70774750Y-110289759D01*
X70762511Y-110270510D01*
X70733911Y-110251260D01*
X70701123Y-110237883D01*
X70676320Y-110236256D01*
X70671526Y-110239933D01*
X70649483Y-110252567D01*
X70626175Y-110255750D01*
X70590911Y-110262215D01*
X70575005Y-110271344D01*
X70550438Y-110282385D01*
X70507785Y-110291192D01*
X70491408Y-110293063D01*
X70435529Y-110304284D01*
X70372773Y-110325582D01*
X70347312Y-110337000D01*
X70271218Y-110374812D01*
X70250642Y-110505193D01*
X70238776Y-110568298D01*
X70226882Y-110610224D01*
X70216371Y-110626285D01*
X70214356Y-110625865D01*
X70205007Y-110630915D01*
X70206756Y-110658581D01*
X70207899Y-110692857D01*
X70200042Y-110710169D01*
X70190802Y-110730841D01*
X70189004Y-110768079D01*
X70189095Y-110769321D01*
X70187881Y-110819192D01*
X70178322Y-110861894D01*
X70163210Y-110887473D01*
X70155053Y-110890750D01*
X70146747Y-110902212D01*
X70148868Y-110911916D01*
X70151681Y-110921835D01*
X70148844Y-110929324D01*
X70136439Y-110934833D01*
X70110543Y-110938812D01*
X70067237Y-110941709D01*
X70002599Y-110943975D01*
X69912709Y-110946059D01*
X69838125Y-110947544D01*
X69733393Y-110949138D01*
X69655236Y-110949035D01*
X69598505Y-110946911D01*
X69558054Y-110942445D01*
X69528737Y-110935315D01*
X69511745Y-110928184D01*
X69654122Y-110928184D01*
X69654483Y-110929610D01*
X69682255Y-110930750D01*
X69735270Y-110931522D01*
X69811359Y-110931841D01*
X69822250Y-110931846D01*
X69901038Y-110931587D01*
X69957020Y-110930867D01*
X69988026Y-110929768D01*
X69991889Y-110928373D01*
X69966439Y-110926764D01*
X69961156Y-110926554D01*
X69873244Y-110924625D01*
X69774533Y-110924593D01*
X69685915Y-110926458D01*
X69683343Y-110926554D01*
X69654122Y-110928184D01*
X69511745Y-110928184D01*
X69508718Y-110926914D01*
X69474632Y-110903415D01*
X69457711Y-110879413D01*
X69457298Y-110875963D01*
X69453695Y-110849903D01*
X69452348Y-110843125D01*
X69488875Y-110843125D01*
X69494683Y-110856191D01*
X69499458Y-110853708D01*
X69501358Y-110834868D01*
X69499458Y-110832541D01*
X69490020Y-110834720D01*
X69488875Y-110843125D01*
X69452348Y-110843125D01*
X69444195Y-110802114D01*
X70141003Y-110802114D01*
X70143922Y-110822704D01*
X70149341Y-110822950D01*
X70149989Y-110819312D01*
X70171500Y-110819312D01*
X70179437Y-110827250D01*
X70187375Y-110819312D01*
X70179437Y-110811375D01*
X70171500Y-110819312D01*
X70149989Y-110819312D01*
X70153130Y-110801703D01*
X70150594Y-110792523D01*
X70143545Y-110786510D01*
X70141003Y-110802114D01*
X69444195Y-110802114D01*
X69443863Y-110800444D01*
X69429517Y-110734929D01*
X69412372Y-110660701D01*
X69410425Y-110652625D01*
X70171500Y-110652625D01*
X70177308Y-110665691D01*
X70182083Y-110663208D01*
X70183983Y-110644368D01*
X70182083Y-110642041D01*
X70172645Y-110644220D01*
X70171500Y-110652625D01*
X69410425Y-110652625D01*
X69394142Y-110585100D01*
X69376769Y-110516364D01*
X70204503Y-110516364D01*
X70207422Y-110536954D01*
X70212841Y-110537200D01*
X70216630Y-110515953D01*
X70214094Y-110506773D01*
X70207045Y-110500760D01*
X70204503Y-110516364D01*
X69376769Y-110516364D01*
X69376543Y-110515470D01*
X69361288Y-110459151D01*
X69355086Y-110438312D01*
X69354436Y-110434925D01*
X69380308Y-110434925D01*
X69384171Y-110443797D01*
X69400156Y-110460839D01*
X69409345Y-110457343D01*
X69409500Y-110455124D01*
X69398224Y-110441697D01*
X69391172Y-110436796D01*
X69380308Y-110434925D01*
X69354436Y-110434925D01*
X69348986Y-110406562D01*
X69377750Y-110406562D01*
X69385687Y-110414500D01*
X69393625Y-110406562D01*
X69385687Y-110398625D01*
X69377750Y-110406562D01*
X69348986Y-110406562D01*
X69344296Y-110382152D01*
X69346062Y-110343062D01*
X69361875Y-110343062D01*
X69369812Y-110351000D01*
X69377750Y-110343062D01*
X69369812Y-110335125D01*
X69361875Y-110343062D01*
X69346062Y-110343062D01*
X69346482Y-110333790D01*
X69347030Y-110331658D01*
X69352340Y-110301258D01*
X69348461Y-110289882D01*
X69317440Y-110289260D01*
X69302840Y-110280328D01*
X69302999Y-110279562D01*
X70457250Y-110279562D01*
X70465187Y-110287500D01*
X70473125Y-110279562D01*
X70465187Y-110271625D01*
X70457250Y-110279562D01*
X69302999Y-110279562D01*
X69303828Y-110275593D01*
X69295348Y-110266506D01*
X69264861Y-110260354D01*
X69261137Y-110260048D01*
X69220932Y-110251257D01*
X69195215Y-110235496D01*
X69190690Y-110231937D01*
X69234875Y-110231937D01*
X69242812Y-110239875D01*
X69250750Y-110231937D01*
X70616000Y-110231937D01*
X70623937Y-110239875D01*
X70631875Y-110231937D01*
X71647875Y-110231937D01*
X71655812Y-110239875D01*
X71663750Y-110231937D01*
X71655812Y-110224000D01*
X71647875Y-110231937D01*
X70631875Y-110231937D01*
X70623937Y-110224000D01*
X70616000Y-110231937D01*
X69250750Y-110231937D01*
X69242812Y-110224000D01*
X69234875Y-110231937D01*
X69190690Y-110231937D01*
X69170465Y-110216031D01*
X69130485Y-110195561D01*
X69123750Y-110192818D01*
X69082961Y-110175434D01*
X69054805Y-110160949D01*
X69052312Y-110159257D01*
X69029264Y-110152562D01*
X71679625Y-110152562D01*
X71687562Y-110160500D01*
X71695500Y-110152562D01*
X71687562Y-110144625D01*
X71679625Y-110152562D01*
X69029264Y-110152562D01*
X69027015Y-110151909D01*
X68985268Y-110149059D01*
X68977083Y-110149184D01*
X68943810Y-110152714D01*
X68933061Y-110159430D01*
X68935524Y-110161905D01*
X68939036Y-110174122D01*
X68921358Y-110183048D01*
X68885678Y-110200980D01*
X68852939Y-110224811D01*
X68824345Y-110244627D01*
X68807367Y-110241109D01*
X68803671Y-110236246D01*
X68792905Y-110224451D01*
X68790618Y-110237040D01*
X68776496Y-110271136D01*
X68743521Y-110293165D01*
X68712291Y-110295686D01*
X68688923Y-110295246D01*
X68686140Y-110301680D01*
X68680835Y-110319018D01*
X68656409Y-110341711D01*
X68623072Y-110362959D01*
X68591031Y-110375963D01*
X68574148Y-110376274D01*
X68558248Y-110375141D01*
X68559188Y-110381133D01*
X68556707Y-110400892D01*
X68536752Y-110419010D01*
X68512437Y-110425326D01*
X68505320Y-110422867D01*
X68491152Y-110426064D01*
X68488750Y-110437375D01*
X68475932Y-110458822D01*
X68463239Y-110462125D01*
X68445229Y-110452410D01*
X68446941Y-110438116D01*
X68447432Y-110421822D01*
X68425735Y-110421885D01*
X68417568Y-110423791D01*
X68382945Y-110423625D01*
X68349010Y-110400589D01*
X68338616Y-110389919D01*
X68312276Y-110358613D01*
X68298733Y-110336877D01*
X68298249Y-110334527D01*
X68284823Y-110322302D01*
X68258562Y-110312731D01*
X68228823Y-110299735D01*
X68218874Y-110286482D01*
X68208199Y-110268822D01*
X68179617Y-110235228D01*
X68176502Y-110231937D01*
X68203000Y-110231937D01*
X68210937Y-110239875D01*
X68218875Y-110231937D01*
X68210937Y-110224000D01*
X68203000Y-110231937D01*
X68176502Y-110231937D01*
X68138290Y-110191578D01*
X68115687Y-110169019D01*
X68069842Y-110120812D01*
X68980875Y-110120812D01*
X68988812Y-110128750D01*
X68996750Y-110120812D01*
X68988812Y-110112875D01*
X68980875Y-110120812D01*
X68069842Y-110120812D01*
X68067569Y-110118422D01*
X68036981Y-110080456D01*
X68044250Y-110073187D01*
X68036312Y-110065250D01*
X68030279Y-110071283D01*
X68013862Y-110042858D01*
X68012500Y-110036120D01*
X68007120Y-110017625D01*
X68028375Y-110017625D01*
X68034183Y-110030691D01*
X68038958Y-110028208D01*
X68039224Y-110025562D01*
X71632000Y-110025562D01*
X71639937Y-110033500D01*
X71647875Y-110025562D01*
X71639937Y-110017625D01*
X71632000Y-110025562D01*
X68039224Y-110025562D01*
X68040858Y-110009368D01*
X68038958Y-110007041D01*
X68029520Y-110009220D01*
X68028375Y-110017625D01*
X68007120Y-110017625D01*
X68004077Y-110007164D01*
X67993158Y-109997948D01*
X67987540Y-109984984D01*
X67993807Y-109977937D01*
X68028375Y-109977937D01*
X68036312Y-109985875D01*
X68044250Y-109977937D01*
X68036312Y-109970000D01*
X68028375Y-109977937D01*
X67993807Y-109977937D01*
X68007064Y-109963032D01*
X68030196Y-109930312D01*
X68060125Y-109930312D01*
X68068062Y-109938250D01*
X68076000Y-109930312D01*
X68068062Y-109922375D01*
X68060125Y-109930312D01*
X68030196Y-109930312D01*
X68031025Y-109929140D01*
X68032492Y-109904657D01*
X68033068Y-109898562D01*
X68076000Y-109898562D01*
X68083937Y-109906500D01*
X68091875Y-109898562D01*
X68083937Y-109890625D01*
X68076000Y-109898562D01*
X68033068Y-109898562D01*
X68034866Y-109879564D01*
X68049399Y-109874750D01*
X68078200Y-109864275D01*
X68085453Y-109856422D01*
X68086384Y-109850937D01*
X68107750Y-109850937D01*
X68115687Y-109858875D01*
X68123625Y-109850937D01*
X68115687Y-109843000D01*
X68107750Y-109850937D01*
X68086384Y-109850937D01*
X68087289Y-109845613D01*
X68074484Y-109851044D01*
X68068371Y-109850122D01*
X68081835Y-109831270D01*
X68086729Y-109825716D01*
X68115413Y-109783859D01*
X68132079Y-109743890D01*
X68143365Y-109715064D01*
X68154814Y-109707715D01*
X68169009Y-109700033D01*
X68189693Y-109671825D01*
X68196026Y-109660708D01*
X68217270Y-109626656D01*
X68234038Y-109617446D01*
X68249874Y-109625445D01*
X68266037Y-109636731D01*
X68260058Y-109626243D01*
X68254319Y-109618793D01*
X68242616Y-109586940D01*
X68243931Y-109581062D01*
X68282375Y-109581062D01*
X68290312Y-109589000D01*
X68298250Y-109581062D01*
X68290312Y-109573125D01*
X68282375Y-109581062D01*
X68243931Y-109581062D01*
X68249368Y-109556780D01*
X68271134Y-109541567D01*
X68274437Y-109541375D01*
X68297243Y-109528568D01*
X68303814Y-109517562D01*
X70076250Y-109517562D01*
X70084187Y-109525500D01*
X70092125Y-109517562D01*
X70084187Y-109509625D01*
X70076250Y-109517562D01*
X68303814Y-109517562D01*
X68304307Y-109516737D01*
X68306582Y-109499574D01*
X68301385Y-109499749D01*
X68294597Y-109491602D01*
X68294416Y-109462000D01*
X68332506Y-109462000D01*
X68335001Y-109484536D01*
X68340513Y-109481843D01*
X68341499Y-109466550D01*
X69650183Y-109466550D01*
X69654046Y-109475422D01*
X69670031Y-109492464D01*
X69679220Y-109488968D01*
X69679375Y-109486749D01*
X69668099Y-109473322D01*
X69661047Y-109468421D01*
X69650183Y-109466550D01*
X68341499Y-109466550D01*
X68342610Y-109449342D01*
X68340513Y-109442156D01*
X68334719Y-109440161D01*
X68332506Y-109462000D01*
X68294416Y-109462000D01*
X68294413Y-109461554D01*
X68294917Y-109456801D01*
X68293011Y-109422312D01*
X69520625Y-109422312D01*
X69528562Y-109430250D01*
X69536500Y-109422312D01*
X69528562Y-109414375D01*
X69520625Y-109422312D01*
X68293011Y-109422312D01*
X68292458Y-109412313D01*
X68287179Y-109389239D01*
X68315378Y-109389239D01*
X68318297Y-109409829D01*
X68323716Y-109410075D01*
X68327195Y-109390562D01*
X69473000Y-109390562D01*
X69480937Y-109398500D01*
X69488875Y-109390562D01*
X69480937Y-109382625D01*
X69473000Y-109390562D01*
X68327195Y-109390562D01*
X68327505Y-109388828D01*
X68324969Y-109379648D01*
X68317920Y-109373635D01*
X68315378Y-109389239D01*
X68287179Y-109389239D01*
X68279569Y-109355980D01*
X68275083Y-109342937D01*
X68298250Y-109342937D01*
X68306187Y-109350875D01*
X68314125Y-109342937D01*
X68306187Y-109335000D01*
X68298250Y-109342937D01*
X68275083Y-109342937D01*
X68269583Y-109326946D01*
X68251674Y-109280419D01*
X68245100Y-109262239D01*
X68283628Y-109262239D01*
X68286547Y-109282829D01*
X68291966Y-109283075D01*
X68295755Y-109261828D01*
X68293219Y-109252648D01*
X68286170Y-109246635D01*
X68283628Y-109262239D01*
X68245100Y-109262239D01*
X68239370Y-109246396D01*
X68236164Y-109235857D01*
X68219787Y-109167806D01*
X68202491Y-109135239D01*
X68251878Y-109135239D01*
X68254797Y-109155829D01*
X68260216Y-109156075D01*
X68264005Y-109134828D01*
X68261469Y-109125648D01*
X68254420Y-109119635D01*
X68251878Y-109135239D01*
X68202491Y-109135239D01*
X68197473Y-109125792D01*
X68163621Y-109104106D01*
X68112635Y-109097037D01*
X68099912Y-109096874D01*
X68067914Y-109088937D01*
X68171250Y-109088937D01*
X68179187Y-109096875D01*
X68187125Y-109088937D01*
X68179187Y-109081000D01*
X68171250Y-109088937D01*
X68067914Y-109088937D01*
X68059637Y-109086884D01*
X68038818Y-109073062D01*
X69187250Y-109073062D01*
X69195187Y-109081000D01*
X69203125Y-109073062D01*
X69195187Y-109065125D01*
X69187250Y-109073062D01*
X68038818Y-109073062D01*
X68038111Y-109072593D01*
X68000019Y-109055731D01*
X67973477Y-109058439D01*
X67943099Y-109059111D01*
X67938896Y-109054541D01*
X68065416Y-109054541D01*
X68067595Y-109063979D01*
X68076000Y-109065125D01*
X68089066Y-109059316D01*
X68086583Y-109054541D01*
X68067743Y-109052641D01*
X68065416Y-109054541D01*
X67938896Y-109054541D01*
X67932187Y-109047248D01*
X67946073Y-109030895D01*
X67952968Y-109027501D01*
X67953801Y-109023665D01*
X67929490Y-109025606D01*
X67925187Y-109026239D01*
X67885574Y-109026562D01*
X67832241Y-109019778D01*
X67781580Y-109009562D01*
X67869625Y-109009562D01*
X67877562Y-109017500D01*
X67885500Y-109009562D01*
X67877562Y-109001625D01*
X67869625Y-109009562D01*
X67781580Y-109009562D01*
X67773585Y-109007950D01*
X67720053Y-108993687D01*
X67806125Y-108993687D01*
X67814062Y-109001625D01*
X67822000Y-108993687D01*
X67814062Y-108985750D01*
X67806125Y-108993687D01*
X67720053Y-108993687D01*
X67718003Y-108993141D01*
X67673891Y-108977415D01*
X67649648Y-108962837D01*
X67649231Y-108961937D01*
X67695000Y-108961937D01*
X67702937Y-108969875D01*
X67710875Y-108961937D01*
X67702937Y-108954000D01*
X67695000Y-108961937D01*
X67649231Y-108961937D01*
X67647391Y-108957968D01*
X67634013Y-108938822D01*
X67598201Y-108935724D01*
X67596748Y-108935922D01*
X67590328Y-108930187D01*
X69139625Y-108930187D01*
X69147562Y-108938125D01*
X69155500Y-108930187D01*
X69147562Y-108922250D01*
X69139625Y-108930187D01*
X67590328Y-108930187D01*
X67583759Y-108924320D01*
X67576103Y-108906899D01*
X67572076Y-108879721D01*
X67571207Y-108866687D01*
X69123750Y-108866687D01*
X69131687Y-108874625D01*
X69139625Y-108866687D01*
X69131687Y-108858750D01*
X69123750Y-108866687D01*
X67571207Y-108866687D01*
X67568746Y-108829778D01*
X67566159Y-108763241D01*
X67564360Y-108686281D01*
X67563396Y-108605069D01*
X67563355Y-108565062D01*
X69123750Y-108565062D01*
X69131687Y-108573000D01*
X69139625Y-108565062D01*
X69131687Y-108557125D01*
X69123750Y-108565062D01*
X67563355Y-108565062D01*
X67563313Y-108525775D01*
X67563411Y-108517437D01*
X69139625Y-108517437D01*
X69147562Y-108525375D01*
X69155500Y-108517437D01*
X69147562Y-108509500D01*
X69139625Y-108517437D01*
X67563411Y-108517437D01*
X67564156Y-108454571D01*
X67565972Y-108397628D01*
X67567762Y-108374562D01*
X69187250Y-108374562D01*
X69195187Y-108382500D01*
X69203125Y-108374562D01*
X69195187Y-108366625D01*
X69187250Y-108374562D01*
X67567762Y-108374562D01*
X67568806Y-108361116D01*
X67571968Y-108350748D01*
X67578290Y-108342812D01*
X67615625Y-108342812D01*
X67623562Y-108350750D01*
X67631500Y-108342812D01*
X67623562Y-108334875D01*
X67615625Y-108342812D01*
X67578290Y-108342812D01*
X67582339Y-108337731D01*
X67583875Y-108325239D01*
X67589860Y-108314280D01*
X67673161Y-108314280D01*
X67695000Y-108316493D01*
X67717536Y-108313998D01*
X67714843Y-108308486D01*
X67682342Y-108306389D01*
X67675156Y-108308486D01*
X67673161Y-108314280D01*
X67589860Y-108314280D01*
X67593751Y-108307157D01*
X67606526Y-108308420D01*
X67634506Y-108305146D01*
X67648013Y-108294418D01*
X67669424Y-108278925D01*
X67679302Y-108279422D01*
X67700536Y-108279723D01*
X67702684Y-108279312D01*
X67837875Y-108279312D01*
X67845812Y-108287250D01*
X67853750Y-108279312D01*
X67845812Y-108271375D01*
X67837875Y-108279312D01*
X67702684Y-108279312D01*
X67740977Y-108271987D01*
X67768784Y-108264571D01*
X67829871Y-108248240D01*
X67832726Y-108247562D01*
X69282500Y-108247562D01*
X69290437Y-108255500D01*
X69298375Y-108247562D01*
X69290437Y-108239625D01*
X69282500Y-108247562D01*
X67832726Y-108247562D01*
X67901580Y-108231213D01*
X67941062Y-108222757D01*
X67991663Y-108211114D01*
X68013501Y-108201956D01*
X68009330Y-108193947D01*
X68004562Y-108191973D01*
X68001110Y-108185957D01*
X68025973Y-108181876D01*
X68075744Y-108180277D01*
X68077087Y-108180274D01*
X68153470Y-108177496D01*
X68208909Y-108169976D01*
X68239712Y-108158488D01*
X68241411Y-108152312D01*
X68266500Y-108152312D01*
X68274437Y-108160250D01*
X68282375Y-108152312D01*
X68274437Y-108144375D01*
X68266500Y-108152312D01*
X68241411Y-108152312D01*
X68243315Y-108145391D01*
X68244973Y-108124751D01*
X68246445Y-108120562D01*
X68282375Y-108120562D01*
X68290312Y-108128500D01*
X68298250Y-108120562D01*
X68290312Y-108112625D01*
X68282375Y-108120562D01*
X68246445Y-108120562D01*
X68258175Y-108087204D01*
X68264629Y-108072937D01*
X68298250Y-108072937D01*
X68306187Y-108080875D01*
X68314125Y-108072937D01*
X68306187Y-108065000D01*
X68298250Y-108072937D01*
X68264629Y-108072937D01*
X68266897Y-108067925D01*
X68282306Y-108033250D01*
X68314125Y-108033250D01*
X68319933Y-108046316D01*
X68324708Y-108043833D01*
X68326575Y-108025312D01*
X69536500Y-108025312D01*
X69544437Y-108033250D01*
X69552375Y-108025312D01*
X69544437Y-108017375D01*
X69536500Y-108025312D01*
X68326575Y-108025312D01*
X68326608Y-108024993D01*
X68324708Y-108022666D01*
X68315270Y-108024845D01*
X68314125Y-108033250D01*
X68282306Y-108033250D01*
X68285906Y-108025151D01*
X68297005Y-107993562D01*
X68330000Y-107993562D01*
X68337937Y-108001500D01*
X68345875Y-107993562D01*
X68343229Y-107990916D01*
X69621166Y-107990916D01*
X69623345Y-108000354D01*
X69631750Y-108001500D01*
X69644816Y-107995691D01*
X69642333Y-107990916D01*
X69623493Y-107989016D01*
X69621166Y-107990916D01*
X68343229Y-107990916D01*
X68337937Y-107985625D01*
X68330000Y-107993562D01*
X68297005Y-107993562D01*
X68297041Y-107993461D01*
X68298250Y-107986391D01*
X68309086Y-107970352D01*
X68313016Y-107969750D01*
X68319607Y-107959166D01*
X69716416Y-107959166D01*
X69718595Y-107968604D01*
X69727000Y-107969750D01*
X69740066Y-107963941D01*
X69737583Y-107959166D01*
X69718743Y-107957266D01*
X69716416Y-107959166D01*
X68319607Y-107959166D01*
X68320645Y-107957500D01*
X68318516Y-107945937D01*
X68345875Y-107945937D01*
X68353812Y-107953875D01*
X68361750Y-107945937D01*
X69758750Y-107945937D01*
X69766687Y-107953875D01*
X69774625Y-107945937D01*
X69766687Y-107938000D01*
X69758750Y-107945937D01*
X68361750Y-107945937D01*
X68353812Y-107938000D01*
X68345875Y-107945937D01*
X68318516Y-107945937D01*
X68314788Y-107925698D01*
X68310574Y-107914187D01*
X69917500Y-107914187D01*
X69925437Y-107922125D01*
X69933375Y-107914187D01*
X69925437Y-107906250D01*
X69917500Y-107914187D01*
X68310574Y-107914187D01*
X68298705Y-107881769D01*
X68276452Y-107834812D01*
X68314125Y-107834812D01*
X68322062Y-107842750D01*
X68330000Y-107834812D01*
X68322062Y-107826875D01*
X68314125Y-107834812D01*
X68276452Y-107834812D01*
X68275657Y-107833135D01*
X68248906Y-107787219D01*
X68248882Y-107787187D01*
X68282375Y-107787187D01*
X68290312Y-107795125D01*
X68298250Y-107787187D01*
X68290312Y-107779250D01*
X68282375Y-107787187D01*
X68248882Y-107787187D01*
X68224746Y-107755437D01*
X71346250Y-107755437D01*
X71354187Y-107763375D01*
X71362125Y-107755437D01*
X71354187Y-107747500D01*
X71346250Y-107755437D01*
X68224746Y-107755437D01*
X68221710Y-107751444D01*
X68213650Y-107743531D01*
X68196916Y-107723601D01*
X68201213Y-107715749D01*
X68204056Y-107705908D01*
X68187870Y-107681383D01*
X68179829Y-107672255D01*
X68153421Y-107640202D01*
X68139944Y-107616857D01*
X68139500Y-107614223D01*
X68130606Y-107593417D01*
X68108417Y-107559279D01*
X68099812Y-107547651D01*
X68089930Y-107533187D01*
X68123625Y-107533187D01*
X68131562Y-107541125D01*
X68139500Y-107533187D01*
X68131562Y-107525250D01*
X68123625Y-107533187D01*
X68089930Y-107533187D01*
X68074780Y-107511014D01*
X68061032Y-107483470D01*
X68060125Y-107478684D01*
X68049551Y-107462412D01*
X68045511Y-107461750D01*
X68034572Y-107450425D01*
X68078558Y-107450425D01*
X68082421Y-107459297D01*
X68098406Y-107476339D01*
X68107595Y-107472843D01*
X68107750Y-107470624D01*
X68096474Y-107457197D01*
X68089422Y-107452296D01*
X68078558Y-107450425D01*
X68034572Y-107450425D01*
X68032289Y-107448062D01*
X68023120Y-107422062D01*
X68060125Y-107422062D01*
X68068062Y-107430000D01*
X68076000Y-107422062D01*
X68068062Y-107414125D01*
X68060125Y-107422062D01*
X68023120Y-107422062D01*
X68020639Y-107415028D01*
X68020407Y-107413986D01*
X68017520Y-107406187D01*
X71552625Y-107406187D01*
X71560562Y-107414125D01*
X71568500Y-107406187D01*
X71560562Y-107398250D01*
X71552625Y-107406187D01*
X68017520Y-107406187D01*
X68009161Y-107383606D01*
X67996135Y-107374818D01*
X67995333Y-107375235D01*
X67982706Y-107371029D01*
X67980749Y-107360288D01*
X67984626Y-107350625D01*
X68028375Y-107350625D01*
X68034183Y-107363691D01*
X68038958Y-107361208D01*
X68040858Y-107342368D01*
X68038958Y-107340041D01*
X68029520Y-107342220D01*
X68028375Y-107350625D01*
X67984626Y-107350625D01*
X67992561Y-107330851D01*
X68000619Y-107323632D01*
X68012590Y-107310937D01*
X68044250Y-107310937D01*
X68052187Y-107318875D01*
X68060125Y-107310937D01*
X68052187Y-107303000D01*
X68044250Y-107310937D01*
X68012590Y-107310937D01*
X68022051Y-107300904D01*
X68042274Y-107268618D01*
X68046306Y-107263312D01*
X68076000Y-107263312D01*
X68083937Y-107271250D01*
X68091875Y-107263312D01*
X68083937Y-107255375D01*
X68076000Y-107263312D01*
X68046306Y-107263312D01*
X68067586Y-107235313D01*
X68093841Y-107218510D01*
X68118585Y-107200779D01*
X68118902Y-107199812D01*
X68901500Y-107199812D01*
X68909437Y-107207750D01*
X68917375Y-107199812D01*
X68909437Y-107191875D01*
X68901500Y-107199812D01*
X68118902Y-107199812D01*
X68123625Y-107185423D01*
X68129965Y-107163336D01*
X68135962Y-107160125D01*
X68150481Y-107152187D01*
X68822125Y-107152187D01*
X68830062Y-107160125D01*
X68838000Y-107152187D01*
X68830062Y-107144250D01*
X68822125Y-107152187D01*
X68150481Y-107152187D01*
X68153823Y-107150360D01*
X68171658Y-107136312D01*
X68790375Y-107136312D01*
X68798312Y-107144250D01*
X68806250Y-107136312D01*
X68798312Y-107128375D01*
X68790375Y-107136312D01*
X68171658Y-107136312D01*
X68183811Y-107126740D01*
X68208700Y-107104562D01*
X68742750Y-107104562D01*
X68750687Y-107112500D01*
X68758625Y-107104562D01*
X68750687Y-107096625D01*
X68742750Y-107104562D01*
X68208700Y-107104562D01*
X68216320Y-107097773D01*
X68225271Y-107088687D01*
X68711000Y-107088687D01*
X68718937Y-107096625D01*
X68726875Y-107088687D01*
X68718937Y-107080750D01*
X68711000Y-107088687D01*
X68225271Y-107088687D01*
X68240911Y-107072812D01*
X68679250Y-107072812D01*
X68687187Y-107080750D01*
X68695125Y-107072812D01*
X68687187Y-107064875D01*
X68679250Y-107072812D01*
X68240911Y-107072812D01*
X68241742Y-107071969D01*
X68250625Y-107058553D01*
X68261374Y-107041062D01*
X68631625Y-107041062D01*
X68639562Y-107049000D01*
X68647500Y-107041062D01*
X68639562Y-107033125D01*
X68631625Y-107041062D01*
X68261374Y-107041062D01*
X68261586Y-107040718D01*
X68287437Y-107013665D01*
X68292397Y-107009312D01*
X68584000Y-107009312D01*
X68591937Y-107017250D01*
X68599875Y-107009312D01*
X68591937Y-107001375D01*
X68584000Y-107009312D01*
X68292397Y-107009312D01*
X68317623Y-106987175D01*
X68341592Y-106971025D01*
X68346596Y-106969624D01*
X68360044Y-106956756D01*
X68361750Y-106945812D01*
X68375512Y-106927432D01*
X68410069Y-106916586D01*
X68455322Y-106913477D01*
X68501175Y-106918302D01*
X68537531Y-106931264D01*
X68549928Y-106942081D01*
X68575464Y-106961959D01*
X68594409Y-106962935D01*
X68609614Y-106962452D01*
X68608268Y-106968887D01*
X68615083Y-106984239D01*
X68643312Y-107004223D01*
X68654338Y-107009855D01*
X68695606Y-107032861D01*
X68725300Y-107055363D01*
X68728088Y-107058399D01*
X68753724Y-107077679D01*
X68766077Y-107080749D01*
X68789475Y-107089983D01*
X68820104Y-107111641D01*
X68847024Y-107136657D01*
X68859292Y-107155965D01*
X68859173Y-107157884D01*
X68870753Y-107166169D01*
X68898373Y-107170568D01*
X68931560Y-107178276D01*
X68945991Y-107190412D01*
X68964786Y-107203356D01*
X69000440Y-107206945D01*
X69039416Y-107201008D01*
X69042144Y-107199812D01*
X69107875Y-107199812D01*
X69115812Y-107207750D01*
X69123750Y-107199812D01*
X69115812Y-107191875D01*
X69107875Y-107199812D01*
X69042144Y-107199812D01*
X69060250Y-107191875D01*
X69075197Y-107179478D01*
X69062325Y-107176252D01*
X69061572Y-107176243D01*
X69046925Y-107170878D01*
X69048856Y-107166227D01*
X69069008Y-107164204D01*
X69104706Y-107172539D01*
X69107608Y-107173528D01*
X69138962Y-107181474D01*
X69147908Y-107176826D01*
X69147150Y-107175333D01*
X69150301Y-107165416D01*
X69176666Y-107165416D01*
X69178845Y-107174854D01*
X69187250Y-107176000D01*
X69200316Y-107170191D01*
X69197833Y-107165416D01*
X69178993Y-107163516D01*
X69176666Y-107165416D01*
X69150301Y-107165416D01*
X69152082Y-107159812D01*
X69165683Y-107152187D01*
X69219000Y-107152187D01*
X69226937Y-107160125D01*
X69232826Y-107154236D01*
X70563749Y-107154236D01*
X70576312Y-107160577D01*
X70624609Y-107174187D01*
X70651476Y-107166415D01*
X70653146Y-107164093D01*
X70644158Y-107155868D01*
X70612757Y-107150410D01*
X70602489Y-107149787D01*
X70568529Y-107149714D01*
X70563749Y-107154236D01*
X69232826Y-107154236D01*
X69234875Y-107152187D01*
X69226937Y-107144250D01*
X69219000Y-107152187D01*
X69165683Y-107152187D01*
X69178004Y-107145280D01*
X69196039Y-107140454D01*
X70480010Y-107140454D01*
X70495614Y-107142996D01*
X70516204Y-107140077D01*
X70516374Y-107136312D01*
X70679500Y-107136312D01*
X70687437Y-107144250D01*
X70695375Y-107136312D01*
X70687437Y-107128375D01*
X70679500Y-107136312D01*
X70516374Y-107136312D01*
X70516450Y-107134658D01*
X70495203Y-107130869D01*
X70486023Y-107133405D01*
X70480010Y-107140454D01*
X69196039Y-107140454D01*
X69214285Y-107135572D01*
X69250294Y-107134524D01*
X69256815Y-107135761D01*
X69275332Y-107138795D01*
X69270593Y-107134843D01*
X69257516Y-107120437D01*
X69298375Y-107120437D01*
X69306312Y-107128375D01*
X69310108Y-107124579D01*
X70416510Y-107124579D01*
X70432114Y-107127121D01*
X70452704Y-107124202D01*
X70452950Y-107118783D01*
X70431703Y-107114994D01*
X70422523Y-107117530D01*
X70416510Y-107124579D01*
X69310108Y-107124579D01*
X69314250Y-107120437D01*
X69306312Y-107112500D01*
X69298375Y-107120437D01*
X69257516Y-107120437D01*
X69252939Y-107115396D01*
X69253340Y-107108704D01*
X70353010Y-107108704D01*
X70368614Y-107111246D01*
X70389204Y-107108327D01*
X70389450Y-107102908D01*
X70368203Y-107099119D01*
X70359023Y-107101655D01*
X70353010Y-107108704D01*
X69253340Y-107108704D01*
X69254320Y-107092364D01*
X69273635Y-107080764D01*
X69274562Y-107080750D01*
X69314250Y-107080750D01*
X69320058Y-107093816D01*
X69324833Y-107091333D01*
X69326514Y-107074663D01*
X70203250Y-107074663D01*
X70215728Y-107080851D01*
X70242345Y-107079500D01*
X70266877Y-107072345D01*
X70273270Y-107067168D01*
X70266760Y-107059613D01*
X70242457Y-107061081D01*
X70212941Y-107068815D01*
X70203250Y-107074663D01*
X69326514Y-107074663D01*
X69326733Y-107072493D01*
X69324833Y-107070166D01*
X69315395Y-107072345D01*
X69314250Y-107080750D01*
X69274562Y-107080750D01*
X69292662Y-107067917D01*
X69297687Y-107033125D01*
X69330125Y-107033125D01*
X69335933Y-107046191D01*
X69340708Y-107043708D01*
X69342608Y-107024868D01*
X69340708Y-107022541D01*
X69331270Y-107024720D01*
X69330125Y-107033125D01*
X69297687Y-107033125D01*
X69298375Y-107028362D01*
X69302436Y-106987731D01*
X69312262Y-106961462D01*
X69312774Y-106960893D01*
X69316914Y-106953750D01*
X69346000Y-106953750D01*
X69351808Y-106966816D01*
X69356583Y-106964333D01*
X69357650Y-106953750D01*
X70171500Y-106953750D01*
X70177308Y-106966816D01*
X70182083Y-106964333D01*
X70183983Y-106945493D01*
X70182083Y-106943166D01*
X70172645Y-106945345D01*
X70171500Y-106953750D01*
X69357650Y-106953750D01*
X69358483Y-106945493D01*
X69356583Y-106943166D01*
X69347145Y-106945345D01*
X69346000Y-106953750D01*
X69316914Y-106953750D01*
X69325589Y-106938786D01*
X69337859Y-106904892D01*
X69339583Y-106898187D01*
X69361875Y-106898187D01*
X69369812Y-106906125D01*
X69377750Y-106898187D01*
X69369812Y-106890250D01*
X69361875Y-106898187D01*
X69339583Y-106898187D01*
X69346966Y-106869482D01*
X69350291Y-106842826D01*
X69345213Y-106835194D01*
X69344768Y-106835448D01*
X69331014Y-106833763D01*
X69330125Y-106829009D01*
X69341848Y-106810875D01*
X70139750Y-106810875D01*
X70145558Y-106823941D01*
X70150333Y-106821458D01*
X70152233Y-106802618D01*
X70150333Y-106800291D01*
X70140895Y-106802470D01*
X70139750Y-106810875D01*
X69341848Y-106810875D01*
X69342454Y-106809938D01*
X69346747Y-106807980D01*
X69357005Y-106790671D01*
X69368638Y-106750161D01*
X69379317Y-106694782D01*
X69380415Y-106687594D01*
X69386799Y-106652125D01*
X70108000Y-106652125D01*
X70113808Y-106665191D01*
X70118583Y-106662708D01*
X70120483Y-106643868D01*
X70118583Y-106641541D01*
X70109145Y-106643720D01*
X70108000Y-106652125D01*
X69386799Y-106652125D01*
X69390425Y-106631984D01*
X69401117Y-106591194D01*
X69410380Y-106573040D01*
X69411417Y-106572749D01*
X69423104Y-106559564D01*
X69425375Y-106543767D01*
X69436339Y-106512862D01*
X69462116Y-106480267D01*
X69475916Y-106468770D01*
X69621933Y-106468770D01*
X69649057Y-106469923D01*
X69701596Y-106470696D01*
X69777436Y-106471002D01*
X69782562Y-106471004D01*
X69860414Y-106470745D01*
X69915770Y-106470006D01*
X69946341Y-106468873D01*
X69949835Y-106467433D01*
X69923963Y-106465773D01*
X69922248Y-106465701D01*
X69839724Y-106463764D01*
X69745061Y-106463686D01*
X69657816Y-106465469D01*
X69652373Y-106465668D01*
X69622334Y-106467323D01*
X69621933Y-106468770D01*
X69475916Y-106468770D01*
X69477265Y-106467647D01*
X69495084Y-106458542D01*
X69520654Y-106452380D01*
X69559054Y-106448592D01*
X69615365Y-106446605D01*
X69694664Y-106445851D01*
X69769361Y-106445750D01*
X69868052Y-106445904D01*
X69868052Y-106445904D01*
G37*
X69868052Y-106445904D02*
X69940146Y-106446795D01*
X69990793Y-106449064D01*
X70025146Y-106453354D01*
X70048356Y-106460305D01*
X70065576Y-106470560D01*
X70081869Y-106484679D01*
X70110877Y-106518510D01*
X70125900Y-106549397D01*
X70126292Y-106552148D01*
X70130334Y-106585446D01*
X70132399Y-106596562D01*
X70139521Y-106627324D01*
X70139750Y-106628312D01*
X70146871Y-106659074D01*
X70147100Y-106660062D01*
X70150965Y-106687245D01*
X70153450Y-106715625D01*
X70157704Y-106741062D01*
X70166997Y-106737652D01*
X70170825Y-106732047D01*
X70179728Y-106728219D01*
X70183344Y-106754160D01*
X70183068Y-106784577D01*
X70184920Y-106831353D01*
X70192430Y-106863966D01*
X70197718Y-106871343D01*
X70208653Y-106893341D01*
X70211723Y-106931629D01*
X70211597Y-106933906D01*
X70212962Y-106968956D01*
X70220628Y-106985337D01*
X70221677Y-106985500D01*
X70233507Y-106998394D01*
X70235000Y-107009312D01*
X70248850Y-107028433D01*
X70275624Y-107033125D01*
X70302633Y-107038164D01*
X70306437Y-107049000D01*
X70308222Y-107063605D01*
X70314375Y-107064874D01*
X70326211Y-107072594D01*
X70324762Y-107076781D01*
X70334795Y-107083086D01*
X70368409Y-107086815D01*
X70402548Y-107087289D01*
X70452571Y-107089038D01*
X70476945Y-107095832D01*
X70477927Y-107101696D01*
X70481821Y-107111056D01*
X70502392Y-107108549D01*
X70529032Y-107106287D01*
X70536625Y-107112184D01*
X70549778Y-107126832D01*
X70581181Y-107132306D01*
X70618743Y-107128798D01*
X70650376Y-107116499D01*
X70657710Y-107110264D01*
X70684432Y-107091117D01*
X70714404Y-107098316D01*
X70715163Y-107098719D01*
X70736924Y-107107989D01*
X70736281Y-107098725D01*
X70734374Y-107095511D01*
X70731740Y-107081902D01*
X70746536Y-107084801D01*
X70763854Y-107085361D01*
X70763338Y-107072812D01*
X70790625Y-107072812D01*
X70798562Y-107080750D01*
X70806500Y-107072812D01*
X70798562Y-107064875D01*
X70790625Y-107072812D01*
X70763338Y-107072812D01*
X70762925Y-107062801D01*
X70762515Y-107061204D01*
X70761327Y-107041062D01*
X70838250Y-107041062D01*
X70846187Y-107049000D01*
X70854125Y-107041062D01*
X70846187Y-107033125D01*
X70838250Y-107041062D01*
X70761327Y-107041062D01*
X70761159Y-107038228D01*
X70770969Y-107038726D01*
X70794391Y-107037500D01*
X70812023Y-107025333D01*
X70833110Y-107009312D01*
X70885875Y-107009312D01*
X70893812Y-107017250D01*
X70901750Y-107009312D01*
X70893812Y-107001375D01*
X70885875Y-107009312D01*
X70833110Y-107009312D01*
X70837720Y-107005810D01*
X70850609Y-107001374D01*
X70870943Y-106992717D01*
X70906759Y-106970606D01*
X70930980Y-106953750D01*
X70971631Y-106926417D01*
X71002864Y-106909191D01*
X71012737Y-106906125D01*
X71028286Y-106896609D01*
X71028750Y-106893628D01*
X71042132Y-106882482D01*
X71060843Y-106878714D01*
X71082661Y-106883009D01*
X71082739Y-106892794D01*
X71085291Y-106899810D01*
X71106653Y-106891037D01*
X71127462Y-106871194D01*
X71130012Y-106851063D01*
X71129073Y-106850562D01*
X71155750Y-106850562D01*
X71163687Y-106858500D01*
X71171625Y-106850562D01*
X71163687Y-106842625D01*
X71155750Y-106850562D01*
X71129073Y-106850562D01*
X71114188Y-106842625D01*
X71113105Y-106852879D01*
X71116062Y-106858500D01*
X71114061Y-106873095D01*
X71107738Y-106874375D01*
X71094463Y-106863409D01*
X71095292Y-106857309D01*
X71109002Y-106842060D01*
X71112656Y-106841756D01*
X71133888Y-106836415D01*
X71146905Y-106830775D01*
X71190913Y-106830775D01*
X71204062Y-106839427D01*
X71211312Y-106842625D01*
X71241293Y-106854916D01*
X71249270Y-106854534D01*
X71243062Y-106842625D01*
X71220495Y-106829289D01*
X71206406Y-106827865D01*
X71190913Y-106830775D01*
X71146905Y-106830775D01*
X71167822Y-106821713D01*
X71207797Y-106808544D01*
X71242632Y-106816663D01*
X71246937Y-106818839D01*
X71270017Y-106836052D01*
X71272446Y-106847637D01*
X71275820Y-106860590D01*
X71288651Y-106867853D01*
X71317853Y-106885338D01*
X71353421Y-106914433D01*
X71386146Y-106946511D01*
X71406814Y-106972947D01*
X71409750Y-106981249D01*
X71422252Y-106998755D01*
X71448678Y-107016843D01*
X71476097Y-107034998D01*
X71484903Y-107047307D01*
X71494086Y-107062194D01*
X71520882Y-107093246D01*
X71560089Y-107134545D01*
X71572974Y-107147529D01*
X71623913Y-107202774D01*
X71655063Y-107246260D01*
X71664931Y-107275248D01*
X71652024Y-107287001D01*
X71649136Y-107287124D01*
X71635903Y-107300810D01*
X71624268Y-107333823D01*
X71624062Y-107334749D01*
X71612543Y-107368077D01*
X71599274Y-107382366D01*
X71598988Y-107382374D01*
X71586017Y-107395251D01*
X71584375Y-107406187D01*
X71572776Y-107427258D01*
X71562719Y-107429999D01*
X71544862Y-107443587D01*
X71523873Y-107478128D01*
X71513781Y-107501437D01*
X71494927Y-107543125D01*
X71477639Y-107568864D01*
X71471000Y-107572874D01*
X71461744Y-107581936D01*
X71463328Y-107585539D01*
X71462766Y-107608146D01*
X71456570Y-107621257D01*
X71444615Y-107636096D01*
X71441188Y-107622533D01*
X71441105Y-107620500D01*
X71435201Y-107620732D01*
X71420692Y-107645010D01*
X71403171Y-107682563D01*
X71373144Y-107739881D01*
X71335543Y-107794609D01*
X71296244Y-107839727D01*
X71261123Y-107868213D01*
X71242531Y-107874499D01*
X71220034Y-107887262D01*
X71213509Y-107898312D01*
X71192293Y-107919430D01*
X71180060Y-107922124D01*
X71158589Y-107928513D01*
X71155750Y-107934124D01*
X71142900Y-107948465D01*
X71112093Y-107966030D01*
X71074195Y-107988695D01*
X71028104Y-108023352D01*
X71007153Y-108041343D01*
X70965994Y-108073279D01*
X70928966Y-108093302D01*
X70914173Y-108096749D01*
X70890981Y-108104639D01*
X70890926Y-108118765D01*
X70889140Y-108134155D01*
X70868136Y-108132612D01*
X70843944Y-108133137D01*
X70841542Y-108146315D01*
X70832822Y-108163438D01*
X70810468Y-108166286D01*
X70782016Y-108172941D01*
X70774750Y-108186130D01*
X70761699Y-108206848D01*
X70725989Y-108209994D01*
X70721976Y-108209361D01*
X70716461Y-108217364D01*
X70720041Y-108225131D01*
X70719205Y-108246770D01*
X70694147Y-108263757D01*
X70652391Y-108271109D01*
X70650584Y-108271131D01*
X70617599Y-108263988D01*
X70589643Y-108247022D01*
X70579241Y-108231687D01*
X70631875Y-108231687D01*
X70639812Y-108239625D01*
X70647750Y-108231687D01*
X70639812Y-108223750D01*
X70631875Y-108231687D01*
X70579241Y-108231687D01*
X70576447Y-108227569D01*
X70579714Y-108217702D01*
X70575971Y-108209336D01*
X70564153Y-108207875D01*
X70539343Y-108194621D01*
X70528687Y-108176125D01*
X70513985Y-108150456D01*
X70502746Y-108144374D01*
X70481052Y-108135451D01*
X70457853Y-108120562D01*
X70489000Y-108120562D01*
X70496937Y-108128500D01*
X70504875Y-108120562D01*
X70496937Y-108112625D01*
X70489000Y-108120562D01*
X70457853Y-108120562D01*
X70446373Y-108113195D01*
X70434848Y-108104687D01*
X70397826Y-108079615D01*
X70384040Y-108072937D01*
X70917625Y-108072937D01*
X70925562Y-108080875D01*
X70933500Y-108072937D01*
X70925562Y-108065000D01*
X70917625Y-108072937D01*
X70384040Y-108072937D01*
X70369478Y-108065884D01*
X70364470Y-108064999D01*
X70347116Y-108054986D01*
X70346125Y-108050194D01*
X70333011Y-108035217D01*
X70303631Y-108020848D01*
X70272927Y-108013534D01*
X70262781Y-108014229D01*
X70251283Y-108005510D01*
X70250875Y-108001500D01*
X70237578Y-107988601D01*
X70219125Y-107985625D01*
X70193315Y-107979884D01*
X70187375Y-107971937D01*
X70172502Y-107967142D01*
X70131848Y-107963820D01*
X70071359Y-107962236D01*
X69996979Y-107962654D01*
X69984968Y-107962906D01*
X69871325Y-107965931D01*
X69786435Y-107969228D01*
X69727304Y-107973046D01*
X69690935Y-107977628D01*
X69674333Y-107983220D01*
X69673183Y-107988450D01*
X69667961Y-108001220D01*
X69643016Y-108009763D01*
X69610338Y-108011356D01*
X69590330Y-108007268D01*
X69571275Y-108003725D01*
X69572081Y-108009416D01*
X69573626Y-108030736D01*
X69566168Y-108043695D01*
X69544225Y-108059966D01*
X69522102Y-108064677D01*
X69510991Y-108057188D01*
X69514203Y-108046672D01*
X69516153Y-108035877D01*
X69506120Y-108040340D01*
X69493677Y-108063320D01*
X69495548Y-108075367D01*
X69495891Y-108090492D01*
X69489250Y-108089044D01*
X69470910Y-108094356D01*
X69439334Y-108117831D01*
X69411915Y-108143782D01*
X69374598Y-108179040D01*
X69344018Y-108202319D01*
X69331045Y-108207875D01*
X69319461Y-108216934D01*
X69321554Y-108222724D01*
X69317590Y-108242556D01*
X69295969Y-108272124D01*
X69290740Y-108277565D01*
X69263288Y-108316110D01*
X69250818Y-108355519D01*
X69250750Y-108357965D01*
X69245505Y-108388145D01*
X69235177Y-108398375D01*
X69220227Y-108411866D01*
X69209406Y-108439009D01*
X69196173Y-108466594D01*
X69181322Y-108472779D01*
X69174830Y-108484748D01*
X69169995Y-108521993D01*
X69166788Y-108578088D01*
X69165180Y-108646603D01*
X69165144Y-108721111D01*
X69166652Y-108795183D01*
X69169674Y-108862392D01*
X69174182Y-108916309D01*
X69180148Y-108950506D01*
X69183464Y-108957957D01*
X69197887Y-108986836D01*
X69210349Y-109028749D01*
X69210490Y-109029406D01*
X69221872Y-109064399D01*
X69234892Y-109080824D01*
X69236136Y-109081000D01*
X69249083Y-109093887D01*
X69250750Y-109104967D01*
X69261953Y-109132796D01*
X69282500Y-109156120D01*
X69306761Y-109185394D01*
X69314493Y-109207559D01*
X69316883Y-109223644D01*
X69327632Y-109211817D01*
X69330125Y-109208000D01*
X69342301Y-109193867D01*
X69345692Y-109209283D01*
X69345756Y-109213537D01*
X69356916Y-109242327D01*
X69384443Y-109278130D01*
X69394833Y-109288503D01*
X69422720Y-109320190D01*
X69434368Y-109345213D01*
X69433340Y-109350828D01*
X69431622Y-109364029D01*
X69436101Y-109364119D01*
X69463543Y-109364640D01*
X69500645Y-109373106D01*
X69534437Y-109385542D01*
X69551949Y-109397971D01*
X69552375Y-109399761D01*
X69565995Y-109410655D01*
X69592999Y-109414375D01*
X69620008Y-109419414D01*
X69623812Y-109430250D01*
X69630652Y-109440783D01*
X69658083Y-109447886D01*
X69694980Y-109449586D01*
X69718182Y-109446975D01*
X69745656Y-109451710D01*
X69776354Y-109468652D01*
X69797252Y-109489378D01*
X69799771Y-109499723D01*
X69800058Y-109508905D01*
X69802362Y-109505656D01*
X69815038Y-109501687D01*
X71409750Y-109501687D01*
X71417687Y-109509625D01*
X71425625Y-109501687D01*
X71417687Y-109493750D01*
X71409750Y-109501687D01*
X69815038Y-109501687D01*
X69820273Y-109500048D01*
X69861791Y-109495861D01*
X69918781Y-109493833D01*
X69933563Y-109493750D01*
X70007589Y-109491415D01*
X70042964Y-109485812D01*
X70171500Y-109485812D01*
X70179437Y-109493750D01*
X70187375Y-109485812D01*
X70179437Y-109477875D01*
X70171500Y-109485812D01*
X70042964Y-109485812D01*
X70055232Y-109483869D01*
X70081552Y-109470299D01*
X70081919Y-109469937D01*
X70106362Y-109453783D01*
X70132403Y-109446415D01*
X70149250Y-109449336D01*
X70148513Y-109460662D01*
X70155356Y-109465400D01*
X70182565Y-109460639D01*
X70203954Y-109454062D01*
X70282625Y-109454062D01*
X70290562Y-109462000D01*
X70298500Y-109454062D01*
X70290562Y-109446125D01*
X70282625Y-109454062D01*
X70203954Y-109454062D01*
X70221078Y-109448797D01*
X70261831Y-109432291D01*
X70270503Y-109428122D01*
X70288035Y-109422312D01*
X70362000Y-109422312D01*
X70369937Y-109430250D01*
X70377875Y-109422312D01*
X70369937Y-109414375D01*
X70362000Y-109422312D01*
X70288035Y-109422312D01*
X70306437Y-109416214D01*
X70322097Y-109414375D01*
X70343360Y-109405869D01*
X70346125Y-109398500D01*
X70353372Y-109390562D01*
X70409625Y-109390562D01*
X70417562Y-109398500D01*
X70425500Y-109390562D01*
X70417562Y-109382625D01*
X70409625Y-109390562D01*
X70353372Y-109390562D01*
X70358983Y-109384416D01*
X70369937Y-109382625D01*
X70391215Y-109374687D01*
X70441375Y-109374687D01*
X70449312Y-109382625D01*
X70457250Y-109374687D01*
X70449312Y-109366750D01*
X70441375Y-109374687D01*
X70391215Y-109374687D01*
X70398107Y-109372116D01*
X70425500Y-109350875D01*
X70434265Y-109342937D01*
X71346250Y-109342937D01*
X71354187Y-109350875D01*
X71362125Y-109342937D01*
X71354187Y-109335000D01*
X71346250Y-109342937D01*
X70434265Y-109342937D01*
X70451794Y-109327062D01*
X70504875Y-109327062D01*
X70512812Y-109335000D01*
X70520750Y-109327062D01*
X71314500Y-109327062D01*
X71322437Y-109335000D01*
X71330375Y-109327062D01*
X71322437Y-109319125D01*
X71314500Y-109327062D01*
X70520750Y-109327062D01*
X70512812Y-109319125D01*
X70504875Y-109327062D01*
X70451794Y-109327062D01*
X70452666Y-109326273D01*
X70469156Y-109315156D01*
X70477306Y-109300086D01*
X70476983Y-109298950D01*
X70487060Y-109292389D01*
X70513963Y-109294159D01*
X70541307Y-109296737D01*
X70541513Y-109295312D01*
X71251000Y-109295312D01*
X71258937Y-109303250D01*
X71266875Y-109295312D01*
X71258937Y-109287375D01*
X71251000Y-109295312D01*
X70541513Y-109295312D01*
X70542655Y-109287444D01*
X70536861Y-109279722D01*
X70530588Y-109263562D01*
X70568375Y-109263562D01*
X70576312Y-109271500D01*
X70584250Y-109263562D01*
X71187500Y-109263562D01*
X71195437Y-109271500D01*
X71203375Y-109263562D01*
X71195437Y-109255625D01*
X71187500Y-109263562D01*
X70584250Y-109263562D01*
X70576312Y-109255625D01*
X70568375Y-109263562D01*
X70530588Y-109263562D01*
X70528985Y-109259434D01*
X70548522Y-109241908D01*
X70551287Y-109240398D01*
X70560126Y-109231812D01*
X70600125Y-109231812D01*
X70608062Y-109239750D01*
X70616000Y-109231812D01*
X70608062Y-109223875D01*
X70600125Y-109231812D01*
X70560126Y-109231812D01*
X70580983Y-109211555D01*
X70586379Y-109200062D01*
X70616000Y-109200062D01*
X70623937Y-109208000D01*
X70631875Y-109200062D01*
X70623937Y-109192125D01*
X70616000Y-109200062D01*
X70586379Y-109200062D01*
X70593343Y-109185234D01*
X70601551Y-109168312D01*
X70616000Y-109168312D01*
X70623937Y-109176250D01*
X70631875Y-109168312D01*
X70623937Y-109160375D01*
X70616000Y-109168312D01*
X70601551Y-109168312D01*
X70609251Y-109152437D01*
X70647750Y-109152437D01*
X70655687Y-109160375D01*
X70663625Y-109152437D01*
X70655687Y-109144500D01*
X70647750Y-109152437D01*
X70609251Y-109152437D01*
X70611708Y-109147373D01*
X70633606Y-109120687D01*
X70663625Y-109120687D01*
X70671562Y-109128625D01*
X70679500Y-109120687D01*
X70671562Y-109112750D01*
X70663625Y-109120687D01*
X70633606Y-109120687D01*
X70641155Y-109111488D01*
X70667616Y-109081568D01*
X70671920Y-109073062D01*
X70822375Y-109073062D01*
X70830312Y-109081000D01*
X70838250Y-109073062D01*
X70830312Y-109065125D01*
X70822375Y-109073062D01*
X70671920Y-109073062D01*
X70677973Y-109061104D01*
X70724795Y-109061104D01*
X70727132Y-109069078D01*
X70755941Y-109068002D01*
X70762344Y-109067011D01*
X70793790Y-109060805D01*
X70795808Y-109056328D01*
X70776887Y-109052468D01*
X70741939Y-109053372D01*
X70724795Y-109061104D01*
X70677973Y-109061104D01*
X70679455Y-109058176D01*
X70679500Y-109057257D01*
X70693427Y-109045941D01*
X70727735Y-109038390D01*
X70771214Y-109035193D01*
X70812655Y-109036938D01*
X70840848Y-109044214D01*
X70845741Y-109048528D01*
X70867382Y-109060435D01*
X70905431Y-109066209D01*
X70906655Y-109066240D01*
X70937643Y-109068231D01*
X70939601Y-109073457D01*
X70925562Y-109079918D01*
X70888677Y-109087131D01*
X70870000Y-109085243D01*
X70855068Y-109082449D01*
X70867788Y-109093431D01*
X70900071Y-109102916D01*
X70923351Y-109101489D01*
X70945618Y-109098456D01*
X70939998Y-109107251D01*
X70933500Y-109112412D01*
X70920969Y-109124436D01*
X70934777Y-109123472D01*
X70946168Y-109120415D01*
X70982801Y-109118844D01*
X71003039Y-109127049D01*
X71035850Y-109148984D01*
X71083840Y-109174991D01*
X71138900Y-109201438D01*
X71192921Y-109224692D01*
X71237793Y-109241121D01*
X71265407Y-109247093D01*
X71269183Y-109246260D01*
X71280342Y-109244233D01*
X71277440Y-109251373D01*
X71279351Y-109273609D01*
X71290862Y-109287520D01*
X71309953Y-109298821D01*
X71314500Y-109288184D01*
X71322590Y-109281151D01*
X71339446Y-109294178D01*
X71369226Y-109314453D01*
X71387071Y-109319125D01*
X71407376Y-109331769D01*
X71409750Y-109341867D01*
X71422990Y-109364377D01*
X71442163Y-109374898D01*
X71466479Y-109393741D01*
X71467161Y-109411686D01*
X71458817Y-109445804D01*
X71449382Y-109489686D01*
X71435014Y-109529592D01*
X71414632Y-109554816D01*
X71413952Y-109555213D01*
X71400429Y-109567126D01*
X71401860Y-109585680D01*
X71419679Y-109619554D01*
X71426422Y-109630714D01*
X71451632Y-109668877D01*
X71471465Y-109693482D01*
X71476542Y-109697479D01*
X71488231Y-109715747D01*
X71489125Y-109723937D01*
X71498809Y-109746902D01*
X71504540Y-109750395D01*
X71518572Y-109768443D01*
X71525703Y-109793650D01*
X71540857Y-109831677D01*
X71557912Y-109850962D01*
X71579927Y-109878691D01*
X71584375Y-109896343D01*
X71591777Y-109918864D01*
X71599180Y-109922375D01*
X71614928Y-109935567D01*
X71625087Y-109957353D01*
X71647131Y-110000536D01*
X71677038Y-110028311D01*
X71694924Y-110033500D01*
X71704521Y-110041823D01*
X71695500Y-110065250D01*
X71686871Y-110091374D01*
X71694941Y-110097000D01*
X71705304Y-110111066D01*
X71710998Y-110146136D01*
X71711375Y-110159419D01*
X71706478Y-110205561D01*
X71686247Y-110237305D01*
X71659781Y-110258613D01*
X71624228Y-110282009D01*
X71599671Y-110294675D01*
X71596281Y-110295412D01*
X71583635Y-110307738D01*
X71583025Y-110311312D01*
X71571776Y-110338729D01*
X71550716Y-110357109D01*
X71534557Y-110357582D01*
X71523843Y-110357914D01*
X71524450Y-110362032D01*
X71517701Y-110381664D01*
X71495404Y-110411308D01*
X71493093Y-110413831D01*
X71468596Y-110443117D01*
X71457440Y-110462271D01*
X71457375Y-110462994D01*
X71445831Y-110477738D01*
X71415907Y-110504955D01*
X71383332Y-110531438D01*
X71318485Y-110572989D01*
X71263288Y-110586969D01*
X71212841Y-110574026D01*
X71187500Y-110557375D01*
X71154072Y-110535369D01*
X71129332Y-110525978D01*
X71129291Y-110525977D01*
X71107780Y-110516161D01*
X71105479Y-110512330D01*
X71087195Y-110491619D01*
X71050798Y-110463224D01*
X71037171Y-110454187D01*
X71076375Y-110454187D01*
X71084312Y-110462125D01*
X71092250Y-110454187D01*
X71084312Y-110446250D01*
X71076375Y-110454187D01*
X71037171Y-110454187D01*
X71006481Y-110433836D01*
X70964440Y-110410144D01*
X70934872Y-110398839D01*
X70932187Y-110398625D01*
X70904567Y-110385394D01*
X70894356Y-110368589D01*
X70872290Y-110340157D01*
X70852001Y-110329970D01*
X70829892Y-110317323D01*
X70828737Y-110305923D01*
X70824635Y-110296734D01*
X70806521Y-110298769D01*
X70781254Y-110298526D01*
X70774750Y-110289759D01*
X70762511Y-110270510D01*
X70733911Y-110251260D01*
X70701123Y-110237883D01*
X70676320Y-110236256D01*
X70671526Y-110239933D01*
X70649483Y-110252567D01*
X70626175Y-110255750D01*
X70590911Y-110262215D01*
X70575005Y-110271344D01*
X70550438Y-110282385D01*
X70507785Y-110291192D01*
X70491408Y-110293063D01*
X70435529Y-110304284D01*
X70372773Y-110325582D01*
X70347312Y-110337000D01*
X70271218Y-110374812D01*
X70250642Y-110505193D01*
X70238776Y-110568298D01*
X70226882Y-110610224D01*
X70216371Y-110626285D01*
X70214356Y-110625865D01*
X70205007Y-110630915D01*
X70206756Y-110658581D01*
X70207899Y-110692857D01*
X70200042Y-110710169D01*
X70190802Y-110730841D01*
X70189004Y-110768079D01*
X70189095Y-110769321D01*
X70187881Y-110819192D01*
X70178322Y-110861894D01*
X70163210Y-110887473D01*
X70155053Y-110890750D01*
X70146747Y-110902212D01*
X70148868Y-110911916D01*
X70151681Y-110921835D01*
X70148844Y-110929324D01*
X70136439Y-110934833D01*
X70110543Y-110938812D01*
X70067237Y-110941709D01*
X70002599Y-110943975D01*
X69912709Y-110946059D01*
X69838125Y-110947544D01*
X69733393Y-110949138D01*
X69655236Y-110949035D01*
X69598505Y-110946911D01*
X69558054Y-110942445D01*
X69528737Y-110935315D01*
X69511745Y-110928184D01*
X69654122Y-110928184D01*
X69654483Y-110929610D01*
X69682255Y-110930750D01*
X69735270Y-110931522D01*
X69811359Y-110931841D01*
X69822250Y-110931846D01*
X69901038Y-110931587D01*
X69957020Y-110930867D01*
X69988026Y-110929768D01*
X69991889Y-110928373D01*
X69966439Y-110926764D01*
X69961156Y-110926554D01*
X69873244Y-110924625D01*
X69774533Y-110924593D01*
X69685915Y-110926458D01*
X69683343Y-110926554D01*
X69654122Y-110928184D01*
X69511745Y-110928184D01*
X69508718Y-110926914D01*
X69474632Y-110903415D01*
X69457711Y-110879413D01*
X69457298Y-110875963D01*
X69453695Y-110849903D01*
X69452348Y-110843125D01*
X69488875Y-110843125D01*
X69494683Y-110856191D01*
X69499458Y-110853708D01*
X69501358Y-110834868D01*
X69499458Y-110832541D01*
X69490020Y-110834720D01*
X69488875Y-110843125D01*
X69452348Y-110843125D01*
X69444195Y-110802114D01*
X70141003Y-110802114D01*
X70143922Y-110822704D01*
X70149341Y-110822950D01*
X70149989Y-110819312D01*
X70171500Y-110819312D01*
X70179437Y-110827250D01*
X70187375Y-110819312D01*
X70179437Y-110811375D01*
X70171500Y-110819312D01*
X70149989Y-110819312D01*
X70153130Y-110801703D01*
X70150594Y-110792523D01*
X70143545Y-110786510D01*
X70141003Y-110802114D01*
X69444195Y-110802114D01*
X69443863Y-110800444D01*
X69429517Y-110734929D01*
X69412372Y-110660701D01*
X69410425Y-110652625D01*
X70171500Y-110652625D01*
X70177308Y-110665691D01*
X70182083Y-110663208D01*
X70183983Y-110644368D01*
X70182083Y-110642041D01*
X70172645Y-110644220D01*
X70171500Y-110652625D01*
X69410425Y-110652625D01*
X69394142Y-110585100D01*
X69376769Y-110516364D01*
X70204503Y-110516364D01*
X70207422Y-110536954D01*
X70212841Y-110537200D01*
X70216630Y-110515953D01*
X70214094Y-110506773D01*
X70207045Y-110500760D01*
X70204503Y-110516364D01*
X69376769Y-110516364D01*
X69376543Y-110515470D01*
X69361288Y-110459151D01*
X69355086Y-110438312D01*
X69354436Y-110434925D01*
X69380308Y-110434925D01*
X69384171Y-110443797D01*
X69400156Y-110460839D01*
X69409345Y-110457343D01*
X69409500Y-110455124D01*
X69398224Y-110441697D01*
X69391172Y-110436796D01*
X69380308Y-110434925D01*
X69354436Y-110434925D01*
X69348986Y-110406562D01*
X69377750Y-110406562D01*
X69385687Y-110414500D01*
X69393625Y-110406562D01*
X69385687Y-110398625D01*
X69377750Y-110406562D01*
X69348986Y-110406562D01*
X69344296Y-110382152D01*
X69346062Y-110343062D01*
X69361875Y-110343062D01*
X69369812Y-110351000D01*
X69377750Y-110343062D01*
X69369812Y-110335125D01*
X69361875Y-110343062D01*
X69346062Y-110343062D01*
X69346482Y-110333790D01*
X69347030Y-110331658D01*
X69352340Y-110301258D01*
X69348461Y-110289882D01*
X69317440Y-110289260D01*
X69302840Y-110280328D01*
X69302999Y-110279562D01*
X70457250Y-110279562D01*
X70465187Y-110287500D01*
X70473125Y-110279562D01*
X70465187Y-110271625D01*
X70457250Y-110279562D01*
X69302999Y-110279562D01*
X69303828Y-110275593D01*
X69295348Y-110266506D01*
X69264861Y-110260354D01*
X69261137Y-110260048D01*
X69220932Y-110251257D01*
X69195215Y-110235496D01*
X69190690Y-110231937D01*
X69234875Y-110231937D01*
X69242812Y-110239875D01*
X69250750Y-110231937D01*
X70616000Y-110231937D01*
X70623937Y-110239875D01*
X70631875Y-110231937D01*
X71647875Y-110231937D01*
X71655812Y-110239875D01*
X71663750Y-110231937D01*
X71655812Y-110224000D01*
X71647875Y-110231937D01*
X70631875Y-110231937D01*
X70623937Y-110224000D01*
X70616000Y-110231937D01*
X69250750Y-110231937D01*
X69242812Y-110224000D01*
X69234875Y-110231937D01*
X69190690Y-110231937D01*
X69170465Y-110216031D01*
X69130485Y-110195561D01*
X69123750Y-110192818D01*
X69082961Y-110175434D01*
X69054805Y-110160949D01*
X69052312Y-110159257D01*
X69029264Y-110152562D01*
X71679625Y-110152562D01*
X71687562Y-110160500D01*
X71695500Y-110152562D01*
X71687562Y-110144625D01*
X71679625Y-110152562D01*
X69029264Y-110152562D01*
X69027015Y-110151909D01*
X68985268Y-110149059D01*
X68977083Y-110149184D01*
X68943810Y-110152714D01*
X68933061Y-110159430D01*
X68935524Y-110161905D01*
X68939036Y-110174122D01*
X68921358Y-110183048D01*
X68885678Y-110200980D01*
X68852939Y-110224811D01*
X68824345Y-110244627D01*
X68807367Y-110241109D01*
X68803671Y-110236246D01*
X68792905Y-110224451D01*
X68790618Y-110237040D01*
X68776496Y-110271136D01*
X68743521Y-110293165D01*
X68712291Y-110295686D01*
X68688923Y-110295246D01*
X68686140Y-110301680D01*
X68680835Y-110319018D01*
X68656409Y-110341711D01*
X68623072Y-110362959D01*
X68591031Y-110375963D01*
X68574148Y-110376274D01*
X68558248Y-110375141D01*
X68559188Y-110381133D01*
X68556707Y-110400892D01*
X68536752Y-110419010D01*
X68512437Y-110425326D01*
X68505320Y-110422867D01*
X68491152Y-110426064D01*
X68488750Y-110437375D01*
X68475932Y-110458822D01*
X68463239Y-110462125D01*
X68445229Y-110452410D01*
X68446941Y-110438116D01*
X68447432Y-110421822D01*
X68425735Y-110421885D01*
X68417568Y-110423791D01*
X68382945Y-110423625D01*
X68349010Y-110400589D01*
X68338616Y-110389919D01*
X68312276Y-110358613D01*
X68298733Y-110336877D01*
X68298249Y-110334527D01*
X68284823Y-110322302D01*
X68258562Y-110312731D01*
X68228823Y-110299735D01*
X68218874Y-110286482D01*
X68208199Y-110268822D01*
X68179617Y-110235228D01*
X68176502Y-110231937D01*
X68203000Y-110231937D01*
X68210937Y-110239875D01*
X68218875Y-110231937D01*
X68210937Y-110224000D01*
X68203000Y-110231937D01*
X68176502Y-110231937D01*
X68138290Y-110191578D01*
X68115687Y-110169019D01*
X68069842Y-110120812D01*
X68980875Y-110120812D01*
X68988812Y-110128750D01*
X68996750Y-110120812D01*
X68988812Y-110112875D01*
X68980875Y-110120812D01*
X68069842Y-110120812D01*
X68067569Y-110118422D01*
X68036981Y-110080456D01*
X68044250Y-110073187D01*
X68036312Y-110065250D01*
X68030279Y-110071283D01*
X68013862Y-110042858D01*
X68012500Y-110036120D01*
X68007120Y-110017625D01*
X68028375Y-110017625D01*
X68034183Y-110030691D01*
X68038958Y-110028208D01*
X68039224Y-110025562D01*
X71632000Y-110025562D01*
X71639937Y-110033500D01*
X71647875Y-110025562D01*
X71639937Y-110017625D01*
X71632000Y-110025562D01*
X68039224Y-110025562D01*
X68040858Y-110009368D01*
X68038958Y-110007041D01*
X68029520Y-110009220D01*
X68028375Y-110017625D01*
X68007120Y-110017625D01*
X68004077Y-110007164D01*
X67993158Y-109997948D01*
X67987540Y-109984984D01*
X67993807Y-109977937D01*
X68028375Y-109977937D01*
X68036312Y-109985875D01*
X68044250Y-109977937D01*
X68036312Y-109970000D01*
X68028375Y-109977937D01*
X67993807Y-109977937D01*
X68007064Y-109963032D01*
X68030196Y-109930312D01*
X68060125Y-109930312D01*
X68068062Y-109938250D01*
X68076000Y-109930312D01*
X68068062Y-109922375D01*
X68060125Y-109930312D01*
X68030196Y-109930312D01*
X68031025Y-109929140D01*
X68032492Y-109904657D01*
X68033068Y-109898562D01*
X68076000Y-109898562D01*
X68083937Y-109906500D01*
X68091875Y-109898562D01*
X68083937Y-109890625D01*
X68076000Y-109898562D01*
X68033068Y-109898562D01*
X68034866Y-109879564D01*
X68049399Y-109874750D01*
X68078200Y-109864275D01*
X68085453Y-109856422D01*
X68086384Y-109850937D01*
X68107750Y-109850937D01*
X68115687Y-109858875D01*
X68123625Y-109850937D01*
X68115687Y-109843000D01*
X68107750Y-109850937D01*
X68086384Y-109850937D01*
X68087289Y-109845613D01*
X68074484Y-109851044D01*
X68068371Y-109850122D01*
X68081835Y-109831270D01*
X68086729Y-109825716D01*
X68115413Y-109783859D01*
X68132079Y-109743890D01*
X68143365Y-109715064D01*
X68154814Y-109707715D01*
X68169009Y-109700033D01*
X68189693Y-109671825D01*
X68196026Y-109660708D01*
X68217270Y-109626656D01*
X68234038Y-109617446D01*
X68249874Y-109625445D01*
X68266037Y-109636731D01*
X68260058Y-109626243D01*
X68254319Y-109618793D01*
X68242616Y-109586940D01*
X68243931Y-109581062D01*
X68282375Y-109581062D01*
X68290312Y-109589000D01*
X68298250Y-109581062D01*
X68290312Y-109573125D01*
X68282375Y-109581062D01*
X68243931Y-109581062D01*
X68249368Y-109556780D01*
X68271134Y-109541567D01*
X68274437Y-109541375D01*
X68297243Y-109528568D01*
X68303814Y-109517562D01*
X70076250Y-109517562D01*
X70084187Y-109525500D01*
X70092125Y-109517562D01*
X70084187Y-109509625D01*
X70076250Y-109517562D01*
X68303814Y-109517562D01*
X68304307Y-109516737D01*
X68306582Y-109499574D01*
X68301385Y-109499749D01*
X68294597Y-109491602D01*
X68294416Y-109462000D01*
X68332506Y-109462000D01*
X68335001Y-109484536D01*
X68340513Y-109481843D01*
X68341499Y-109466550D01*
X69650183Y-109466550D01*
X69654046Y-109475422D01*
X69670031Y-109492464D01*
X69679220Y-109488968D01*
X69679375Y-109486749D01*
X69668099Y-109473322D01*
X69661047Y-109468421D01*
X69650183Y-109466550D01*
X68341499Y-109466550D01*
X68342610Y-109449342D01*
X68340513Y-109442156D01*
X68334719Y-109440161D01*
X68332506Y-109462000D01*
X68294416Y-109462000D01*
X68294413Y-109461554D01*
X68294917Y-109456801D01*
X68293011Y-109422312D01*
X69520625Y-109422312D01*
X69528562Y-109430250D01*
X69536500Y-109422312D01*
X69528562Y-109414375D01*
X69520625Y-109422312D01*
X68293011Y-109422312D01*
X68292458Y-109412313D01*
X68287179Y-109389239D01*
X68315378Y-109389239D01*
X68318297Y-109409829D01*
X68323716Y-109410075D01*
X68327195Y-109390562D01*
X69473000Y-109390562D01*
X69480937Y-109398500D01*
X69488875Y-109390562D01*
X69480937Y-109382625D01*
X69473000Y-109390562D01*
X68327195Y-109390562D01*
X68327505Y-109388828D01*
X68324969Y-109379648D01*
X68317920Y-109373635D01*
X68315378Y-109389239D01*
X68287179Y-109389239D01*
X68279569Y-109355980D01*
X68275083Y-109342937D01*
X68298250Y-109342937D01*
X68306187Y-109350875D01*
X68314125Y-109342937D01*
X68306187Y-109335000D01*
X68298250Y-109342937D01*
X68275083Y-109342937D01*
X68269583Y-109326946D01*
X68251674Y-109280419D01*
X68245100Y-109262239D01*
X68283628Y-109262239D01*
X68286547Y-109282829D01*
X68291966Y-109283075D01*
X68295755Y-109261828D01*
X68293219Y-109252648D01*
X68286170Y-109246635D01*
X68283628Y-109262239D01*
X68245100Y-109262239D01*
X68239370Y-109246396D01*
X68236164Y-109235857D01*
X68219787Y-109167806D01*
X68202491Y-109135239D01*
X68251878Y-109135239D01*
X68254797Y-109155829D01*
X68260216Y-109156075D01*
X68264005Y-109134828D01*
X68261469Y-109125648D01*
X68254420Y-109119635D01*
X68251878Y-109135239D01*
X68202491Y-109135239D01*
X68197473Y-109125792D01*
X68163621Y-109104106D01*
X68112635Y-109097037D01*
X68099912Y-109096874D01*
X68067914Y-109088937D01*
X68171250Y-109088937D01*
X68179187Y-109096875D01*
X68187125Y-109088937D01*
X68179187Y-109081000D01*
X68171250Y-109088937D01*
X68067914Y-109088937D01*
X68059637Y-109086884D01*
X68038818Y-109073062D01*
X69187250Y-109073062D01*
X69195187Y-109081000D01*
X69203125Y-109073062D01*
X69195187Y-109065125D01*
X69187250Y-109073062D01*
X68038818Y-109073062D01*
X68038111Y-109072593D01*
X68000019Y-109055731D01*
X67973477Y-109058439D01*
X67943099Y-109059111D01*
X67938896Y-109054541D01*
X68065416Y-109054541D01*
X68067595Y-109063979D01*
X68076000Y-109065125D01*
X68089066Y-109059316D01*
X68086583Y-109054541D01*
X68067743Y-109052641D01*
X68065416Y-109054541D01*
X67938896Y-109054541D01*
X67932187Y-109047248D01*
X67946073Y-109030895D01*
X67952968Y-109027501D01*
X67953801Y-109023665D01*
X67929490Y-109025606D01*
X67925187Y-109026239D01*
X67885574Y-109026562D01*
X67832241Y-109019778D01*
X67781580Y-109009562D01*
X67869625Y-109009562D01*
X67877562Y-109017500D01*
X67885500Y-109009562D01*
X67877562Y-109001625D01*
X67869625Y-109009562D01*
X67781580Y-109009562D01*
X67773585Y-109007950D01*
X67720053Y-108993687D01*
X67806125Y-108993687D01*
X67814062Y-109001625D01*
X67822000Y-108993687D01*
X67814062Y-108985750D01*
X67806125Y-108993687D01*
X67720053Y-108993687D01*
X67718003Y-108993141D01*
X67673891Y-108977415D01*
X67649648Y-108962837D01*
X67649231Y-108961937D01*
X67695000Y-108961937D01*
X67702937Y-108969875D01*
X67710875Y-108961937D01*
X67702937Y-108954000D01*
X67695000Y-108961937D01*
X67649231Y-108961937D01*
X67647391Y-108957968D01*
X67634013Y-108938822D01*
X67598201Y-108935724D01*
X67596748Y-108935922D01*
X67590328Y-108930187D01*
X69139625Y-108930187D01*
X69147562Y-108938125D01*
X69155500Y-108930187D01*
X69147562Y-108922250D01*
X69139625Y-108930187D01*
X67590328Y-108930187D01*
X67583759Y-108924320D01*
X67576103Y-108906899D01*
X67572076Y-108879721D01*
X67571207Y-108866687D01*
X69123750Y-108866687D01*
X69131687Y-108874625D01*
X69139625Y-108866687D01*
X69131687Y-108858750D01*
X69123750Y-108866687D01*
X67571207Y-108866687D01*
X67568746Y-108829778D01*
X67566159Y-108763241D01*
X67564360Y-108686281D01*
X67563396Y-108605069D01*
X67563355Y-108565062D01*
X69123750Y-108565062D01*
X69131687Y-108573000D01*
X69139625Y-108565062D01*
X69131687Y-108557125D01*
X69123750Y-108565062D01*
X67563355Y-108565062D01*
X67563313Y-108525775D01*
X67563411Y-108517437D01*
X69139625Y-108517437D01*
X69147562Y-108525375D01*
X69155500Y-108517437D01*
X69147562Y-108509500D01*
X69139625Y-108517437D01*
X67563411Y-108517437D01*
X67564156Y-108454571D01*
X67565972Y-108397628D01*
X67567762Y-108374562D01*
X69187250Y-108374562D01*
X69195187Y-108382500D01*
X69203125Y-108374562D01*
X69195187Y-108366625D01*
X69187250Y-108374562D01*
X67567762Y-108374562D01*
X67568806Y-108361116D01*
X67571968Y-108350748D01*
X67578290Y-108342812D01*
X67615625Y-108342812D01*
X67623562Y-108350750D01*
X67631500Y-108342812D01*
X67623562Y-108334875D01*
X67615625Y-108342812D01*
X67578290Y-108342812D01*
X67582339Y-108337731D01*
X67583875Y-108325239D01*
X67589860Y-108314280D01*
X67673161Y-108314280D01*
X67695000Y-108316493D01*
X67717536Y-108313998D01*
X67714843Y-108308486D01*
X67682342Y-108306389D01*
X67675156Y-108308486D01*
X67673161Y-108314280D01*
X67589860Y-108314280D01*
X67593751Y-108307157D01*
X67606526Y-108308420D01*
X67634506Y-108305146D01*
X67648013Y-108294418D01*
X67669424Y-108278925D01*
X67679302Y-108279422D01*
X67700536Y-108279723D01*
X67702684Y-108279312D01*
X67837875Y-108279312D01*
X67845812Y-108287250D01*
X67853750Y-108279312D01*
X67845812Y-108271375D01*
X67837875Y-108279312D01*
X67702684Y-108279312D01*
X67740977Y-108271987D01*
X67768784Y-108264571D01*
X67829871Y-108248240D01*
X67832726Y-108247562D01*
X69282500Y-108247562D01*
X69290437Y-108255500D01*
X69298375Y-108247562D01*
X69290437Y-108239625D01*
X69282500Y-108247562D01*
X67832726Y-108247562D01*
X67901580Y-108231213D01*
X67941062Y-108222757D01*
X67991663Y-108211114D01*
X68013501Y-108201956D01*
X68009330Y-108193947D01*
X68004562Y-108191973D01*
X68001110Y-108185957D01*
X68025973Y-108181876D01*
X68075744Y-108180277D01*
X68077087Y-108180274D01*
X68153470Y-108177496D01*
X68208909Y-108169976D01*
X68239712Y-108158488D01*
X68241411Y-108152312D01*
X68266500Y-108152312D01*
X68274437Y-108160250D01*
X68282375Y-108152312D01*
X68274437Y-108144375D01*
X68266500Y-108152312D01*
X68241411Y-108152312D01*
X68243315Y-108145391D01*
X68244973Y-108124751D01*
X68246445Y-108120562D01*
X68282375Y-108120562D01*
X68290312Y-108128500D01*
X68298250Y-108120562D01*
X68290312Y-108112625D01*
X68282375Y-108120562D01*
X68246445Y-108120562D01*
X68258175Y-108087204D01*
X68264629Y-108072937D01*
X68298250Y-108072937D01*
X68306187Y-108080875D01*
X68314125Y-108072937D01*
X68306187Y-108065000D01*
X68298250Y-108072937D01*
X68264629Y-108072937D01*
X68266897Y-108067925D01*
X68282306Y-108033250D01*
X68314125Y-108033250D01*
X68319933Y-108046316D01*
X68324708Y-108043833D01*
X68326575Y-108025312D01*
X69536500Y-108025312D01*
X69544437Y-108033250D01*
X69552375Y-108025312D01*
X69544437Y-108017375D01*
X69536500Y-108025312D01*
X68326575Y-108025312D01*
X68326608Y-108024993D01*
X68324708Y-108022666D01*
X68315270Y-108024845D01*
X68314125Y-108033250D01*
X68282306Y-108033250D01*
X68285906Y-108025151D01*
X68297005Y-107993562D01*
X68330000Y-107993562D01*
X68337937Y-108001500D01*
X68345875Y-107993562D01*
X68343229Y-107990916D01*
X69621166Y-107990916D01*
X69623345Y-108000354D01*
X69631750Y-108001500D01*
X69644816Y-107995691D01*
X69642333Y-107990916D01*
X69623493Y-107989016D01*
X69621166Y-107990916D01*
X68343229Y-107990916D01*
X68337937Y-107985625D01*
X68330000Y-107993562D01*
X68297005Y-107993562D01*
X68297041Y-107993461D01*
X68298250Y-107986391D01*
X68309086Y-107970352D01*
X68313016Y-107969750D01*
X68319607Y-107959166D01*
X69716416Y-107959166D01*
X69718595Y-107968604D01*
X69727000Y-107969750D01*
X69740066Y-107963941D01*
X69737583Y-107959166D01*
X69718743Y-107957266D01*
X69716416Y-107959166D01*
X68319607Y-107959166D01*
X68320645Y-107957500D01*
X68318516Y-107945937D01*
X68345875Y-107945937D01*
X68353812Y-107953875D01*
X68361750Y-107945937D01*
X69758750Y-107945937D01*
X69766687Y-107953875D01*
X69774625Y-107945937D01*
X69766687Y-107938000D01*
X69758750Y-107945937D01*
X68361750Y-107945937D01*
X68353812Y-107938000D01*
X68345875Y-107945937D01*
X68318516Y-107945937D01*
X68314788Y-107925698D01*
X68310574Y-107914187D01*
X69917500Y-107914187D01*
X69925437Y-107922125D01*
X69933375Y-107914187D01*
X69925437Y-107906250D01*
X69917500Y-107914187D01*
X68310574Y-107914187D01*
X68298705Y-107881769D01*
X68276452Y-107834812D01*
X68314125Y-107834812D01*
X68322062Y-107842750D01*
X68330000Y-107834812D01*
X68322062Y-107826875D01*
X68314125Y-107834812D01*
X68276452Y-107834812D01*
X68275657Y-107833135D01*
X68248906Y-107787219D01*
X68248882Y-107787187D01*
X68282375Y-107787187D01*
X68290312Y-107795125D01*
X68298250Y-107787187D01*
X68290312Y-107779250D01*
X68282375Y-107787187D01*
X68248882Y-107787187D01*
X68224746Y-107755437D01*
X71346250Y-107755437D01*
X71354187Y-107763375D01*
X71362125Y-107755437D01*
X71354187Y-107747500D01*
X71346250Y-107755437D01*
X68224746Y-107755437D01*
X68221710Y-107751444D01*
X68213650Y-107743531D01*
X68196916Y-107723601D01*
X68201213Y-107715749D01*
X68204056Y-107705908D01*
X68187870Y-107681383D01*
X68179829Y-107672255D01*
X68153421Y-107640202D01*
X68139944Y-107616857D01*
X68139500Y-107614223D01*
X68130606Y-107593417D01*
X68108417Y-107559279D01*
X68099812Y-107547651D01*
X68089930Y-107533187D01*
X68123625Y-107533187D01*
X68131562Y-107541125D01*
X68139500Y-107533187D01*
X68131562Y-107525250D01*
X68123625Y-107533187D01*
X68089930Y-107533187D01*
X68074780Y-107511014D01*
X68061032Y-107483470D01*
X68060125Y-107478684D01*
X68049551Y-107462412D01*
X68045511Y-107461750D01*
X68034572Y-107450425D01*
X68078558Y-107450425D01*
X68082421Y-107459297D01*
X68098406Y-107476339D01*
X68107595Y-107472843D01*
X68107750Y-107470624D01*
X68096474Y-107457197D01*
X68089422Y-107452296D01*
X68078558Y-107450425D01*
X68034572Y-107450425D01*
X68032289Y-107448062D01*
X68023120Y-107422062D01*
X68060125Y-107422062D01*
X68068062Y-107430000D01*
X68076000Y-107422062D01*
X68068062Y-107414125D01*
X68060125Y-107422062D01*
X68023120Y-107422062D01*
X68020639Y-107415028D01*
X68020407Y-107413986D01*
X68017520Y-107406187D01*
X71552625Y-107406187D01*
X71560562Y-107414125D01*
X71568500Y-107406187D01*
X71560562Y-107398250D01*
X71552625Y-107406187D01*
X68017520Y-107406187D01*
X68009161Y-107383606D01*
X67996135Y-107374818D01*
X67995333Y-107375235D01*
X67982706Y-107371029D01*
X67980749Y-107360288D01*
X67984626Y-107350625D01*
X68028375Y-107350625D01*
X68034183Y-107363691D01*
X68038958Y-107361208D01*
X68040858Y-107342368D01*
X68038958Y-107340041D01*
X68029520Y-107342220D01*
X68028375Y-107350625D01*
X67984626Y-107350625D01*
X67992561Y-107330851D01*
X68000619Y-107323632D01*
X68012590Y-107310937D01*
X68044250Y-107310937D01*
X68052187Y-107318875D01*
X68060125Y-107310937D01*
X68052187Y-107303000D01*
X68044250Y-107310937D01*
X68012590Y-107310937D01*
X68022051Y-107300904D01*
X68042274Y-107268618D01*
X68046306Y-107263312D01*
X68076000Y-107263312D01*
X68083937Y-107271250D01*
X68091875Y-107263312D01*
X68083937Y-107255375D01*
X68076000Y-107263312D01*
X68046306Y-107263312D01*
X68067586Y-107235313D01*
X68093841Y-107218510D01*
X68118585Y-107200779D01*
X68118902Y-107199812D01*
X68901500Y-107199812D01*
X68909437Y-107207750D01*
X68917375Y-107199812D01*
X68909437Y-107191875D01*
X68901500Y-107199812D01*
X68118902Y-107199812D01*
X68123625Y-107185423D01*
X68129965Y-107163336D01*
X68135962Y-107160125D01*
X68150481Y-107152187D01*
X68822125Y-107152187D01*
X68830062Y-107160125D01*
X68838000Y-107152187D01*
X68830062Y-107144250D01*
X68822125Y-107152187D01*
X68150481Y-107152187D01*
X68153823Y-107150360D01*
X68171658Y-107136312D01*
X68790375Y-107136312D01*
X68798312Y-107144250D01*
X68806250Y-107136312D01*
X68798312Y-107128375D01*
X68790375Y-107136312D01*
X68171658Y-107136312D01*
X68183811Y-107126740D01*
X68208700Y-107104562D01*
X68742750Y-107104562D01*
X68750687Y-107112500D01*
X68758625Y-107104562D01*
X68750687Y-107096625D01*
X68742750Y-107104562D01*
X68208700Y-107104562D01*
X68216320Y-107097773D01*
X68225271Y-107088687D01*
X68711000Y-107088687D01*
X68718937Y-107096625D01*
X68726875Y-107088687D01*
X68718937Y-107080750D01*
X68711000Y-107088687D01*
X68225271Y-107088687D01*
X68240911Y-107072812D01*
X68679250Y-107072812D01*
X68687187Y-107080750D01*
X68695125Y-107072812D01*
X68687187Y-107064875D01*
X68679250Y-107072812D01*
X68240911Y-107072812D01*
X68241742Y-107071969D01*
X68250625Y-107058553D01*
X68261374Y-107041062D01*
X68631625Y-107041062D01*
X68639562Y-107049000D01*
X68647500Y-107041062D01*
X68639562Y-107033125D01*
X68631625Y-107041062D01*
X68261374Y-107041062D01*
X68261586Y-107040718D01*
X68287437Y-107013665D01*
X68292397Y-107009312D01*
X68584000Y-107009312D01*
X68591937Y-107017250D01*
X68599875Y-107009312D01*
X68591937Y-107001375D01*
X68584000Y-107009312D01*
X68292397Y-107009312D01*
X68317623Y-106987175D01*
X68341592Y-106971025D01*
X68346596Y-106969624D01*
X68360044Y-106956756D01*
X68361750Y-106945812D01*
X68375512Y-106927432D01*
X68410069Y-106916586D01*
X68455322Y-106913477D01*
X68501175Y-106918302D01*
X68537531Y-106931264D01*
X68549928Y-106942081D01*
X68575464Y-106961959D01*
X68594409Y-106962935D01*
X68609614Y-106962452D01*
X68608268Y-106968887D01*
X68615083Y-106984239D01*
X68643312Y-107004223D01*
X68654338Y-107009855D01*
X68695606Y-107032861D01*
X68725300Y-107055363D01*
X68728088Y-107058399D01*
X68753724Y-107077679D01*
X68766077Y-107080749D01*
X68789475Y-107089983D01*
X68820104Y-107111641D01*
X68847024Y-107136657D01*
X68859292Y-107155965D01*
X68859173Y-107157884D01*
X68870753Y-107166169D01*
X68898373Y-107170568D01*
X68931560Y-107178276D01*
X68945991Y-107190412D01*
X68964786Y-107203356D01*
X69000440Y-107206945D01*
X69039416Y-107201008D01*
X69042144Y-107199812D01*
X69107875Y-107199812D01*
X69115812Y-107207750D01*
X69123750Y-107199812D01*
X69115812Y-107191875D01*
X69107875Y-107199812D01*
X69042144Y-107199812D01*
X69060250Y-107191875D01*
X69075197Y-107179478D01*
X69062325Y-107176252D01*
X69061572Y-107176243D01*
X69046925Y-107170878D01*
X69048856Y-107166227D01*
X69069008Y-107164204D01*
X69104706Y-107172539D01*
X69107608Y-107173528D01*
X69138962Y-107181474D01*
X69147908Y-107176826D01*
X69147150Y-107175333D01*
X69150301Y-107165416D01*
X69176666Y-107165416D01*
X69178845Y-107174854D01*
X69187250Y-107176000D01*
X69200316Y-107170191D01*
X69197833Y-107165416D01*
X69178993Y-107163516D01*
X69176666Y-107165416D01*
X69150301Y-107165416D01*
X69152082Y-107159812D01*
X69165683Y-107152187D01*
X69219000Y-107152187D01*
X69226937Y-107160125D01*
X69232826Y-107154236D01*
X70563749Y-107154236D01*
X70576312Y-107160577D01*
X70624609Y-107174187D01*
X70651476Y-107166415D01*
X70653146Y-107164093D01*
X70644158Y-107155868D01*
X70612757Y-107150410D01*
X70602489Y-107149787D01*
X70568529Y-107149714D01*
X70563749Y-107154236D01*
X69232826Y-107154236D01*
X69234875Y-107152187D01*
X69226937Y-107144250D01*
X69219000Y-107152187D01*
X69165683Y-107152187D01*
X69178004Y-107145280D01*
X69196039Y-107140454D01*
X70480010Y-107140454D01*
X70495614Y-107142996D01*
X70516204Y-107140077D01*
X70516374Y-107136312D01*
X70679500Y-107136312D01*
X70687437Y-107144250D01*
X70695375Y-107136312D01*
X70687437Y-107128375D01*
X70679500Y-107136312D01*
X70516374Y-107136312D01*
X70516450Y-107134658D01*
X70495203Y-107130869D01*
X70486023Y-107133405D01*
X70480010Y-107140454D01*
X69196039Y-107140454D01*
X69214285Y-107135572D01*
X69250294Y-107134524D01*
X69256815Y-107135761D01*
X69275332Y-107138795D01*
X69270593Y-107134843D01*
X69257516Y-107120437D01*
X69298375Y-107120437D01*
X69306312Y-107128375D01*
X69310108Y-107124579D01*
X70416510Y-107124579D01*
X70432114Y-107127121D01*
X70452704Y-107124202D01*
X70452950Y-107118783D01*
X70431703Y-107114994D01*
X70422523Y-107117530D01*
X70416510Y-107124579D01*
X69310108Y-107124579D01*
X69314250Y-107120437D01*
X69306312Y-107112500D01*
X69298375Y-107120437D01*
X69257516Y-107120437D01*
X69252939Y-107115396D01*
X69253340Y-107108704D01*
X70353010Y-107108704D01*
X70368614Y-107111246D01*
X70389204Y-107108327D01*
X70389450Y-107102908D01*
X70368203Y-107099119D01*
X70359023Y-107101655D01*
X70353010Y-107108704D01*
X69253340Y-107108704D01*
X69254320Y-107092364D01*
X69273635Y-107080764D01*
X69274562Y-107080750D01*
X69314250Y-107080750D01*
X69320058Y-107093816D01*
X69324833Y-107091333D01*
X69326514Y-107074663D01*
X70203250Y-107074663D01*
X70215728Y-107080851D01*
X70242345Y-107079500D01*
X70266877Y-107072345D01*
X70273270Y-107067168D01*
X70266760Y-107059613D01*
X70242457Y-107061081D01*
X70212941Y-107068815D01*
X70203250Y-107074663D01*
X69326514Y-107074663D01*
X69326733Y-107072493D01*
X69324833Y-107070166D01*
X69315395Y-107072345D01*
X69314250Y-107080750D01*
X69274562Y-107080750D01*
X69292662Y-107067917D01*
X69297687Y-107033125D01*
X69330125Y-107033125D01*
X69335933Y-107046191D01*
X69340708Y-107043708D01*
X69342608Y-107024868D01*
X69340708Y-107022541D01*
X69331270Y-107024720D01*
X69330125Y-107033125D01*
X69297687Y-107033125D01*
X69298375Y-107028362D01*
X69302436Y-106987731D01*
X69312262Y-106961462D01*
X69312774Y-106960893D01*
X69316914Y-106953750D01*
X69346000Y-106953750D01*
X69351808Y-106966816D01*
X69356583Y-106964333D01*
X69357650Y-106953750D01*
X70171500Y-106953750D01*
X70177308Y-106966816D01*
X70182083Y-106964333D01*
X70183983Y-106945493D01*
X70182083Y-106943166D01*
X70172645Y-106945345D01*
X70171500Y-106953750D01*
X69357650Y-106953750D01*
X69358483Y-106945493D01*
X69356583Y-106943166D01*
X69347145Y-106945345D01*
X69346000Y-106953750D01*
X69316914Y-106953750D01*
X69325589Y-106938786D01*
X69337859Y-106904892D01*
X69339583Y-106898187D01*
X69361875Y-106898187D01*
X69369812Y-106906125D01*
X69377750Y-106898187D01*
X69369812Y-106890250D01*
X69361875Y-106898187D01*
X69339583Y-106898187D01*
X69346966Y-106869482D01*
X69350291Y-106842826D01*
X69345213Y-106835194D01*
X69344768Y-106835448D01*
X69331014Y-106833763D01*
X69330125Y-106829009D01*
X69341848Y-106810875D01*
X70139750Y-106810875D01*
X70145558Y-106823941D01*
X70150333Y-106821458D01*
X70152233Y-106802618D01*
X70150333Y-106800291D01*
X70140895Y-106802470D01*
X70139750Y-106810875D01*
X69341848Y-106810875D01*
X69342454Y-106809938D01*
X69346747Y-106807980D01*
X69357005Y-106790671D01*
X69368638Y-106750161D01*
X69379317Y-106694782D01*
X69380415Y-106687594D01*
X69386799Y-106652125D01*
X70108000Y-106652125D01*
X70113808Y-106665191D01*
X70118583Y-106662708D01*
X70120483Y-106643868D01*
X70118583Y-106641541D01*
X70109145Y-106643720D01*
X70108000Y-106652125D01*
X69386799Y-106652125D01*
X69390425Y-106631984D01*
X69401117Y-106591194D01*
X69410380Y-106573040D01*
X69411417Y-106572749D01*
X69423104Y-106559564D01*
X69425375Y-106543767D01*
X69436339Y-106512862D01*
X69462116Y-106480267D01*
X69475916Y-106468770D01*
X69621933Y-106468770D01*
X69649057Y-106469923D01*
X69701596Y-106470696D01*
X69777436Y-106471002D01*
X69782562Y-106471004D01*
X69860414Y-106470745D01*
X69915770Y-106470006D01*
X69946341Y-106468873D01*
X69949835Y-106467433D01*
X69923963Y-106465773D01*
X69922248Y-106465701D01*
X69839724Y-106463764D01*
X69745061Y-106463686D01*
X69657816Y-106465469D01*
X69652373Y-106465668D01*
X69622334Y-106467323D01*
X69621933Y-106468770D01*
X69475916Y-106468770D01*
X69477265Y-106467647D01*
X69495084Y-106458542D01*
X69520654Y-106452380D01*
X69559054Y-106448592D01*
X69615365Y-106446605D01*
X69694664Y-106445851D01*
X69769361Y-106445750D01*
X69868052Y-106445904D01*
G04 #@! TO.C,C1*
D13*
X134633333Y-95657142D02*
X134585714Y-95704761D01*
X134442857Y-95752380D01*
X134347619Y-95752380D01*
X134204761Y-95704761D01*
X134109523Y-95609523D01*
X134061904Y-95514285D01*
X134014285Y-95323809D01*
X134014285Y-95180952D01*
X134061904Y-94990476D01*
X134109523Y-94895238D01*
X134204761Y-94800000D01*
X134347619Y-94752380D01*
X134442857Y-94752380D01*
X134585714Y-94800000D01*
X134633333Y-94847619D01*
X135585714Y-95752380D02*
X135014285Y-95752380D01*
X135300000Y-95752380D02*
X135300000Y-94752380D01*
X135204761Y-94895238D01*
X135109523Y-94990476D01*
X135014285Y-95038095D01*
G04 #@! TO.C,C5*
X143533333Y-95557142D02*
X143485714Y-95604761D01*
X143342857Y-95652380D01*
X143247619Y-95652380D01*
X143104761Y-95604761D01*
X143009523Y-95509523D01*
X142961904Y-95414285D01*
X142914285Y-95223809D01*
X142914285Y-95080952D01*
X142961904Y-94890476D01*
X143009523Y-94795238D01*
X143104761Y-94700000D01*
X143247619Y-94652380D01*
X143342857Y-94652380D01*
X143485714Y-94700000D01*
X143533333Y-94747619D01*
X144438095Y-94652380D02*
X143961904Y-94652380D01*
X143914285Y-95128571D01*
X143961904Y-95080952D01*
X144057142Y-95033333D01*
X144295238Y-95033333D01*
X144390476Y-95080952D01*
X144438095Y-95128571D01*
X144485714Y-95223809D01*
X144485714Y-95461904D01*
X144438095Y-95557142D01*
X144390476Y-95604761D01*
X144295238Y-95652380D01*
X144057142Y-95652380D01*
X143961904Y-95604761D01*
X143914285Y-95557142D01*
G04 #@! TO.C,C6*
X80257142Y-102166666D02*
X80304761Y-102214285D01*
X80352380Y-102357142D01*
X80352380Y-102452380D01*
X80304761Y-102595238D01*
X80209523Y-102690476D01*
X80114285Y-102738095D01*
X79923809Y-102785714D01*
X79780952Y-102785714D01*
X79590476Y-102738095D01*
X79495238Y-102690476D01*
X79400000Y-102595238D01*
X79352380Y-102452380D01*
X79352380Y-102357142D01*
X79400000Y-102214285D01*
X79447619Y-102166666D01*
X79352380Y-101309523D02*
X79352380Y-101500000D01*
X79400000Y-101595238D01*
X79447619Y-101642857D01*
X79590476Y-101738095D01*
X79780952Y-101785714D01*
X80161904Y-101785714D01*
X80257142Y-101738095D01*
X80304761Y-101690476D01*
X80352380Y-101595238D01*
X80352380Y-101404761D01*
X80304761Y-101309523D01*
X80257142Y-101261904D01*
X80161904Y-101214285D01*
X79923809Y-101214285D01*
X79828571Y-101261904D01*
X79780952Y-101309523D01*
X79733333Y-101404761D01*
X79733333Y-101595238D01*
X79780952Y-101690476D01*
X79828571Y-101738095D01*
X79923809Y-101785714D01*
G04 #@! TO.C,C7*
X99037142Y-107666666D02*
X99084761Y-107714285D01*
X99132380Y-107857142D01*
X99132380Y-107952380D01*
X99084761Y-108095238D01*
X98989523Y-108190476D01*
X98894285Y-108238095D01*
X98703809Y-108285714D01*
X98560952Y-108285714D01*
X98370476Y-108238095D01*
X98275238Y-108190476D01*
X98180000Y-108095238D01*
X98132380Y-107952380D01*
X98132380Y-107857142D01*
X98180000Y-107714285D01*
X98227619Y-107666666D01*
X98132380Y-107333333D02*
X98132380Y-106666666D01*
X99132380Y-107095238D01*
G04 #@! TO.C,C8*
X108257142Y-114766666D02*
X108304761Y-114814285D01*
X108352380Y-114957142D01*
X108352380Y-115052380D01*
X108304761Y-115195238D01*
X108209523Y-115290476D01*
X108114285Y-115338095D01*
X107923809Y-115385714D01*
X107780952Y-115385714D01*
X107590476Y-115338095D01*
X107495238Y-115290476D01*
X107400000Y-115195238D01*
X107352380Y-115052380D01*
X107352380Y-114957142D01*
X107400000Y-114814285D01*
X107447619Y-114766666D01*
X107780952Y-114195238D02*
X107733333Y-114290476D01*
X107685714Y-114338095D01*
X107590476Y-114385714D01*
X107542857Y-114385714D01*
X107447619Y-114338095D01*
X107400000Y-114290476D01*
X107352380Y-114195238D01*
X107352380Y-114004761D01*
X107400000Y-113909523D01*
X107447619Y-113861904D01*
X107542857Y-113814285D01*
X107590476Y-113814285D01*
X107685714Y-113861904D01*
X107733333Y-113909523D01*
X107780952Y-114004761D01*
X107780952Y-114195238D01*
X107828571Y-114290476D01*
X107876190Y-114338095D01*
X107971428Y-114385714D01*
X108161904Y-114385714D01*
X108257142Y-114338095D01*
X108304761Y-114290476D01*
X108352380Y-114195238D01*
X108352380Y-114004761D01*
X108304761Y-113909523D01*
X108257142Y-113861904D01*
X108161904Y-113814285D01*
X107971428Y-113814285D01*
X107876190Y-113861904D01*
X107828571Y-113909523D01*
X107780952Y-114004761D01*
G04 #@! TO.C,C9*
X97857142Y-86666666D02*
X97904761Y-86714285D01*
X97952380Y-86857142D01*
X97952380Y-86952380D01*
X97904761Y-87095238D01*
X97809523Y-87190476D01*
X97714285Y-87238095D01*
X97523809Y-87285714D01*
X97380952Y-87285714D01*
X97190476Y-87238095D01*
X97095238Y-87190476D01*
X97000000Y-87095238D01*
X96952380Y-86952380D01*
X96952380Y-86857142D01*
X97000000Y-86714285D01*
X97047619Y-86666666D01*
X97952380Y-86190476D02*
X97952380Y-86000000D01*
X97904761Y-85904761D01*
X97857142Y-85857142D01*
X97714285Y-85761904D01*
X97523809Y-85714285D01*
X97142857Y-85714285D01*
X97047619Y-85761904D01*
X97000000Y-85809523D01*
X96952380Y-85904761D01*
X96952380Y-86095238D01*
X97000000Y-86190476D01*
X97047619Y-86238095D01*
X97142857Y-86285714D01*
X97380952Y-86285714D01*
X97476190Y-86238095D01*
X97523809Y-86190476D01*
X97571428Y-86095238D01*
X97571428Y-85904761D01*
X97523809Y-85809523D01*
X97476190Y-85761904D01*
X97380952Y-85714285D01*
G04 #@! TO.C,C10*
X98937142Y-98142857D02*
X98984761Y-98190476D01*
X99032380Y-98333333D01*
X99032380Y-98428571D01*
X98984761Y-98571428D01*
X98889523Y-98666666D01*
X98794285Y-98714285D01*
X98603809Y-98761904D01*
X98460952Y-98761904D01*
X98270476Y-98714285D01*
X98175238Y-98666666D01*
X98080000Y-98571428D01*
X98032380Y-98428571D01*
X98032380Y-98333333D01*
X98080000Y-98190476D01*
X98127619Y-98142857D01*
X99032380Y-97190476D02*
X99032380Y-97761904D01*
X99032380Y-97476190D02*
X98032380Y-97476190D01*
X98175238Y-97571428D01*
X98270476Y-97666666D01*
X98318095Y-97761904D01*
X98032380Y-96571428D02*
X98032380Y-96476190D01*
X98080000Y-96380952D01*
X98127619Y-96333333D01*
X98222857Y-96285714D01*
X98413333Y-96238095D01*
X98651428Y-96238095D01*
X98841904Y-96285714D01*
X98937142Y-96333333D01*
X98984761Y-96380952D01*
X99032380Y-96476190D01*
X99032380Y-96571428D01*
X98984761Y-96666666D01*
X98937142Y-96714285D01*
X98841904Y-96761904D01*
X98651428Y-96809523D01*
X98413333Y-96809523D01*
X98222857Y-96761904D01*
X98127619Y-96714285D01*
X98080000Y-96666666D01*
X98032380Y-96571428D01*
G04 #@! TO.C,D1*
X126932380Y-115738095D02*
X125932380Y-115738095D01*
X125932380Y-115500000D01*
X125980000Y-115357142D01*
X126075238Y-115261904D01*
X126170476Y-115214285D01*
X126360952Y-115166666D01*
X126503809Y-115166666D01*
X126694285Y-115214285D01*
X126789523Y-115261904D01*
X126884761Y-115357142D01*
X126932380Y-115500000D01*
X126932380Y-115738095D01*
X126932380Y-114214285D02*
X126932380Y-114785714D01*
X126932380Y-114500000D02*
X125932380Y-114500000D01*
X126075238Y-114595238D01*
X126170476Y-114690476D01*
X126218095Y-114785714D01*
G04 #@! TO.C,D2*
X126982380Y-110238095D02*
X125982380Y-110238095D01*
X125982380Y-110000000D01*
X126030000Y-109857142D01*
X126125238Y-109761904D01*
X126220476Y-109714285D01*
X126410952Y-109666666D01*
X126553809Y-109666666D01*
X126744285Y-109714285D01*
X126839523Y-109761904D01*
X126934761Y-109857142D01*
X126982380Y-110000000D01*
X126982380Y-110238095D01*
X126077619Y-109285714D02*
X126030000Y-109238095D01*
X125982380Y-109142857D01*
X125982380Y-108904761D01*
X126030000Y-108809523D01*
X126077619Y-108761904D01*
X126172857Y-108714285D01*
X126268095Y-108714285D01*
X126410952Y-108761904D01*
X126982380Y-109333333D01*
X126982380Y-108714285D01*
G04 #@! TO.C,D3*
X99952380Y-116238095D02*
X98952380Y-116238095D01*
X98952380Y-116000000D01*
X99000000Y-115857142D01*
X99095238Y-115761904D01*
X99190476Y-115714285D01*
X99380952Y-115666666D01*
X99523809Y-115666666D01*
X99714285Y-115714285D01*
X99809523Y-115761904D01*
X99904761Y-115857142D01*
X99952380Y-116000000D01*
X99952380Y-116238095D01*
X98952380Y-115333333D02*
X98952380Y-114714285D01*
X99333333Y-115047619D01*
X99333333Y-114904761D01*
X99380952Y-114809523D01*
X99428571Y-114761904D01*
X99523809Y-114714285D01*
X99761904Y-114714285D01*
X99857142Y-114761904D01*
X99904761Y-114809523D01*
X99952380Y-114904761D01*
X99952380Y-115190476D01*
X99904761Y-115285714D01*
X99857142Y-115333333D01*
G04 #@! TO.C,D4*
X93352380Y-116238095D02*
X92352380Y-116238095D01*
X92352380Y-116000000D01*
X92400000Y-115857142D01*
X92495238Y-115761904D01*
X92590476Y-115714285D01*
X92780952Y-115666666D01*
X92923809Y-115666666D01*
X93114285Y-115714285D01*
X93209523Y-115761904D01*
X93304761Y-115857142D01*
X93352380Y-116000000D01*
X93352380Y-116238095D01*
X92685714Y-114809523D02*
X93352380Y-114809523D01*
X92304761Y-115047619D02*
X93019047Y-115285714D01*
X93019047Y-114666666D01*
G04 #@! TO.C,J1*
X69866666Y-104652380D02*
X69866666Y-105366666D01*
X69819047Y-105509523D01*
X69723809Y-105604761D01*
X69580952Y-105652380D01*
X69485714Y-105652380D01*
X70866666Y-105652380D02*
X70295238Y-105652380D01*
X70580952Y-105652380D02*
X70580952Y-104652380D01*
X70485714Y-104795238D01*
X70390476Y-104890476D01*
X70295238Y-104938095D01*
G04 #@! TO.C,J2*
X149752380Y-86233333D02*
X150466666Y-86233333D01*
X150609523Y-86280952D01*
X150704761Y-86376190D01*
X150752380Y-86519047D01*
X150752380Y-86614285D01*
X149847619Y-85804761D02*
X149800000Y-85757142D01*
X149752380Y-85661904D01*
X149752380Y-85423809D01*
X149800000Y-85328571D01*
X149847619Y-85280952D01*
X149942857Y-85233333D01*
X150038095Y-85233333D01*
X150180952Y-85280952D01*
X150752380Y-85852380D01*
X150752380Y-85233333D01*
G04 #@! TO.C,J4*
X127416666Y-94182380D02*
X127416666Y-94896666D01*
X127369047Y-95039523D01*
X127273809Y-95134761D01*
X127130952Y-95182380D01*
X127035714Y-95182380D01*
X128321428Y-94515714D02*
X128321428Y-95182380D01*
X128083333Y-94134761D02*
X127845238Y-94849047D01*
X128464285Y-94849047D01*
G04 #@! TO.C,J6*
X130066666Y-86482380D02*
X130066666Y-87196666D01*
X130019047Y-87339523D01*
X129923809Y-87434761D01*
X129780952Y-87482380D01*
X129685714Y-87482380D01*
X130971428Y-86482380D02*
X130780952Y-86482380D01*
X130685714Y-86530000D01*
X130638095Y-86577619D01*
X130542857Y-86720476D01*
X130495238Y-86910952D01*
X130495238Y-87291904D01*
X130542857Y-87387142D01*
X130590476Y-87434761D01*
X130685714Y-87482380D01*
X130876190Y-87482380D01*
X130971428Y-87434761D01*
X131019047Y-87387142D01*
X131066666Y-87291904D01*
X131066666Y-87053809D01*
X131019047Y-86958571D01*
X130971428Y-86910952D01*
X130876190Y-86863333D01*
X130685714Y-86863333D01*
X130590476Y-86910952D01*
X130542857Y-86958571D01*
X130495238Y-87053809D01*
G04 #@! TO.C,J9*
X143252380Y-112833333D02*
X143966666Y-112833333D01*
X144109523Y-112880952D01*
X144204761Y-112976190D01*
X144252380Y-113119047D01*
X144252380Y-113214285D01*
X144252380Y-112309523D02*
X144252380Y-112119047D01*
X144204761Y-112023809D01*
X144157142Y-111976190D01*
X144014285Y-111880952D01*
X143823809Y-111833333D01*
X143442857Y-111833333D01*
X143347619Y-111880952D01*
X143300000Y-111928571D01*
X143252380Y-112023809D01*
X143252380Y-112214285D01*
X143300000Y-112309523D01*
X143347619Y-112357142D01*
X143442857Y-112404761D01*
X143680952Y-112404761D01*
X143776190Y-112357142D01*
X143823809Y-112309523D01*
X143871428Y-112214285D01*
X143871428Y-112023809D01*
X143823809Y-111928571D01*
X143776190Y-111880952D01*
X143680952Y-111833333D01*
G04 #@! TO.C,Q3*
X90304761Y-109647619D02*
X90209523Y-109600000D01*
X90114285Y-109504761D01*
X89971428Y-109361904D01*
X89876190Y-109314285D01*
X89780952Y-109314285D01*
X89828571Y-109552380D02*
X89733333Y-109504761D01*
X89638095Y-109409523D01*
X89590476Y-109219047D01*
X89590476Y-108885714D01*
X89638095Y-108695238D01*
X89733333Y-108600000D01*
X89828571Y-108552380D01*
X90019047Y-108552380D01*
X90114285Y-108600000D01*
X90209523Y-108695238D01*
X90257142Y-108885714D01*
X90257142Y-109219047D01*
X90209523Y-109409523D01*
X90114285Y-109504761D01*
X90019047Y-109552380D01*
X89828571Y-109552380D01*
X90590476Y-108552380D02*
X91209523Y-108552380D01*
X90876190Y-108933333D01*
X91019047Y-108933333D01*
X91114285Y-108980952D01*
X91161904Y-109028571D01*
X91209523Y-109123809D01*
X91209523Y-109361904D01*
X91161904Y-109457142D01*
X91114285Y-109504761D01*
X91019047Y-109552380D01*
X90733333Y-109552380D01*
X90638095Y-109504761D01*
X90590476Y-109457142D01*
G04 #@! TO.C,Q4*
X90504761Y-100947619D02*
X90409523Y-100900000D01*
X90314285Y-100804761D01*
X90171428Y-100661904D01*
X90076190Y-100614285D01*
X89980952Y-100614285D01*
X90028571Y-100852380D02*
X89933333Y-100804761D01*
X89838095Y-100709523D01*
X89790476Y-100519047D01*
X89790476Y-100185714D01*
X89838095Y-99995238D01*
X89933333Y-99900000D01*
X90028571Y-99852380D01*
X90219047Y-99852380D01*
X90314285Y-99900000D01*
X90409523Y-99995238D01*
X90457142Y-100185714D01*
X90457142Y-100519047D01*
X90409523Y-100709523D01*
X90314285Y-100804761D01*
X90219047Y-100852380D01*
X90028571Y-100852380D01*
X91314285Y-100185714D02*
X91314285Y-100852380D01*
X91076190Y-99804761D02*
X90838095Y-100519047D01*
X91457142Y-100519047D01*
G04 #@! TO.C,Q5*
X90204761Y-105147619D02*
X90109523Y-105100000D01*
X90014285Y-105004761D01*
X89871428Y-104861904D01*
X89776190Y-104814285D01*
X89680952Y-104814285D01*
X89728571Y-105052380D02*
X89633333Y-105004761D01*
X89538095Y-104909523D01*
X89490476Y-104719047D01*
X89490476Y-104385714D01*
X89538095Y-104195238D01*
X89633333Y-104100000D01*
X89728571Y-104052380D01*
X89919047Y-104052380D01*
X90014285Y-104100000D01*
X90109523Y-104195238D01*
X90157142Y-104385714D01*
X90157142Y-104719047D01*
X90109523Y-104909523D01*
X90014285Y-105004761D01*
X89919047Y-105052380D01*
X89728571Y-105052380D01*
X91061904Y-104052380D02*
X90585714Y-104052380D01*
X90538095Y-104528571D01*
X90585714Y-104480952D01*
X90680952Y-104433333D01*
X90919047Y-104433333D01*
X91014285Y-104480952D01*
X91061904Y-104528571D01*
X91109523Y-104623809D01*
X91109523Y-104861904D01*
X91061904Y-104957142D01*
X91014285Y-105004761D01*
X90919047Y-105052380D01*
X90680952Y-105052380D01*
X90585714Y-105004761D01*
X90538095Y-104957142D01*
G04 #@! TO.C,Q10*
X122147619Y-116121428D02*
X122100000Y-116216666D01*
X122004761Y-116311904D01*
X121861904Y-116454761D01*
X121814285Y-116550000D01*
X121814285Y-116645238D01*
X122052380Y-116597619D02*
X122004761Y-116692857D01*
X121909523Y-116788095D01*
X121719047Y-116835714D01*
X121385714Y-116835714D01*
X121195238Y-116788095D01*
X121100000Y-116692857D01*
X121052380Y-116597619D01*
X121052380Y-116407142D01*
X121100000Y-116311904D01*
X121195238Y-116216666D01*
X121385714Y-116169047D01*
X121719047Y-116169047D01*
X121909523Y-116216666D01*
X122004761Y-116311904D01*
X122052380Y-116407142D01*
X122052380Y-116597619D01*
X122052380Y-115216666D02*
X122052380Y-115788095D01*
X122052380Y-115502380D02*
X121052380Y-115502380D01*
X121195238Y-115597619D01*
X121290476Y-115692857D01*
X121338095Y-115788095D01*
X121052380Y-114597619D02*
X121052380Y-114502380D01*
X121100000Y-114407142D01*
X121147619Y-114359523D01*
X121242857Y-114311904D01*
X121433333Y-114264285D01*
X121671428Y-114264285D01*
X121861904Y-114311904D01*
X121957142Y-114359523D01*
X122004761Y-114407142D01*
X122052380Y-114502380D01*
X122052380Y-114597619D01*
X122004761Y-114692857D01*
X121957142Y-114740476D01*
X121861904Y-114788095D01*
X121671428Y-114835714D01*
X121433333Y-114835714D01*
X121242857Y-114788095D01*
X121147619Y-114740476D01*
X121100000Y-114692857D01*
X121052380Y-114597619D01*
G04 #@! TO.C,Q11*
X122197619Y-109921428D02*
X122150000Y-110016666D01*
X122054761Y-110111904D01*
X121911904Y-110254761D01*
X121864285Y-110350000D01*
X121864285Y-110445238D01*
X122102380Y-110397619D02*
X122054761Y-110492857D01*
X121959523Y-110588095D01*
X121769047Y-110635714D01*
X121435714Y-110635714D01*
X121245238Y-110588095D01*
X121150000Y-110492857D01*
X121102380Y-110397619D01*
X121102380Y-110207142D01*
X121150000Y-110111904D01*
X121245238Y-110016666D01*
X121435714Y-109969047D01*
X121769047Y-109969047D01*
X121959523Y-110016666D01*
X122054761Y-110111904D01*
X122102380Y-110207142D01*
X122102380Y-110397619D01*
X122102380Y-109016666D02*
X122102380Y-109588095D01*
X122102380Y-109302380D02*
X121102380Y-109302380D01*
X121245238Y-109397619D01*
X121340476Y-109492857D01*
X121388095Y-109588095D01*
X122102380Y-108064285D02*
X122102380Y-108635714D01*
X122102380Y-108350000D02*
X121102380Y-108350000D01*
X121245238Y-108445238D01*
X121340476Y-108540476D01*
X121388095Y-108635714D01*
G04 #@! TO.C,R1*
X78802380Y-93466666D02*
X78326190Y-93800000D01*
X78802380Y-94038095D02*
X77802380Y-94038095D01*
X77802380Y-93657142D01*
X77850000Y-93561904D01*
X77897619Y-93514285D01*
X77992857Y-93466666D01*
X78135714Y-93466666D01*
X78230952Y-93514285D01*
X78278571Y-93561904D01*
X78326190Y-93657142D01*
X78326190Y-94038095D01*
X78802380Y-92514285D02*
X78802380Y-93085714D01*
X78802380Y-92800000D02*
X77802380Y-92800000D01*
X77945238Y-92895238D01*
X78040476Y-92990476D01*
X78088095Y-93085714D01*
G04 #@! TO.C,R2*
X78802380Y-97566666D02*
X78326190Y-97900000D01*
X78802380Y-98138095D02*
X77802380Y-98138095D01*
X77802380Y-97757142D01*
X77850000Y-97661904D01*
X77897619Y-97614285D01*
X77992857Y-97566666D01*
X78135714Y-97566666D01*
X78230952Y-97614285D01*
X78278571Y-97661904D01*
X78326190Y-97757142D01*
X78326190Y-98138095D01*
X77897619Y-97185714D02*
X77850000Y-97138095D01*
X77802380Y-97042857D01*
X77802380Y-96804761D01*
X77850000Y-96709523D01*
X77897619Y-96661904D01*
X77992857Y-96614285D01*
X78088095Y-96614285D01*
X78230952Y-96661904D01*
X78802380Y-97233333D01*
X78802380Y-96614285D01*
G04 #@! TO.C,R3*
X78952380Y-101666666D02*
X78476190Y-102000000D01*
X78952380Y-102238095D02*
X77952380Y-102238095D01*
X77952380Y-101857142D01*
X78000000Y-101761904D01*
X78047619Y-101714285D01*
X78142857Y-101666666D01*
X78285714Y-101666666D01*
X78380952Y-101714285D01*
X78428571Y-101761904D01*
X78476190Y-101857142D01*
X78476190Y-102238095D01*
X77952380Y-101333333D02*
X77952380Y-100714285D01*
X78333333Y-101047619D01*
X78333333Y-100904761D01*
X78380952Y-100809523D01*
X78428571Y-100761904D01*
X78523809Y-100714285D01*
X78761904Y-100714285D01*
X78857142Y-100761904D01*
X78904761Y-100809523D01*
X78952380Y-100904761D01*
X78952380Y-101190476D01*
X78904761Y-101285714D01*
X78857142Y-101333333D01*
G04 #@! TO.C,R6*
X95433333Y-107952380D02*
X95100000Y-107476190D01*
X94861904Y-107952380D02*
X94861904Y-106952380D01*
X95242857Y-106952380D01*
X95338095Y-107000000D01*
X95385714Y-107047619D01*
X95433333Y-107142857D01*
X95433333Y-107285714D01*
X95385714Y-107380952D01*
X95338095Y-107428571D01*
X95242857Y-107476190D01*
X94861904Y-107476190D01*
X96290476Y-106952380D02*
X96100000Y-106952380D01*
X96004761Y-107000000D01*
X95957142Y-107047619D01*
X95861904Y-107190476D01*
X95814285Y-107380952D01*
X95814285Y-107761904D01*
X95861904Y-107857142D01*
X95909523Y-107904761D01*
X96004761Y-107952380D01*
X96195238Y-107952380D01*
X96290476Y-107904761D01*
X96338095Y-107857142D01*
X96385714Y-107761904D01*
X96385714Y-107523809D01*
X96338095Y-107428571D01*
X96290476Y-107380952D01*
X96195238Y-107333333D01*
X96004761Y-107333333D01*
X95909523Y-107380952D01*
X95861904Y-107428571D01*
X95814285Y-107523809D01*
G04 #@! TO.C,R7*
X95583333Y-99702380D02*
X95250000Y-99226190D01*
X95011904Y-99702380D02*
X95011904Y-98702380D01*
X95392857Y-98702380D01*
X95488095Y-98750000D01*
X95535714Y-98797619D01*
X95583333Y-98892857D01*
X95583333Y-99035714D01*
X95535714Y-99130952D01*
X95488095Y-99178571D01*
X95392857Y-99226190D01*
X95011904Y-99226190D01*
X95916666Y-98702380D02*
X96583333Y-98702380D01*
X96154761Y-99702380D01*
G04 #@! TO.C,R8*
X95633333Y-104102380D02*
X95300000Y-103626190D01*
X95061904Y-104102380D02*
X95061904Y-103102380D01*
X95442857Y-103102380D01*
X95538095Y-103150000D01*
X95585714Y-103197619D01*
X95633333Y-103292857D01*
X95633333Y-103435714D01*
X95585714Y-103530952D01*
X95538095Y-103578571D01*
X95442857Y-103626190D01*
X95061904Y-103626190D01*
X96204761Y-103530952D02*
X96109523Y-103483333D01*
X96061904Y-103435714D01*
X96014285Y-103340476D01*
X96014285Y-103292857D01*
X96061904Y-103197619D01*
X96109523Y-103150000D01*
X96204761Y-103102380D01*
X96395238Y-103102380D01*
X96490476Y-103150000D01*
X96538095Y-103197619D01*
X96585714Y-103292857D01*
X96585714Y-103340476D01*
X96538095Y-103435714D01*
X96490476Y-103483333D01*
X96395238Y-103530952D01*
X96204761Y-103530952D01*
X96109523Y-103578571D01*
X96061904Y-103626190D01*
X96014285Y-103721428D01*
X96014285Y-103911904D01*
X96061904Y-104007142D01*
X96109523Y-104054761D01*
X96204761Y-104102380D01*
X96395238Y-104102380D01*
X96490476Y-104054761D01*
X96538095Y-104007142D01*
X96585714Y-103911904D01*
X96585714Y-103721428D01*
X96538095Y-103626190D01*
X96490476Y-103578571D01*
X96395238Y-103530952D01*
G04 #@! TO.C,R9*
X131452380Y-112266666D02*
X130976190Y-112600000D01*
X131452380Y-112838095D02*
X130452380Y-112838095D01*
X130452380Y-112457142D01*
X130500000Y-112361904D01*
X130547619Y-112314285D01*
X130642857Y-112266666D01*
X130785714Y-112266666D01*
X130880952Y-112314285D01*
X130928571Y-112361904D01*
X130976190Y-112457142D01*
X130976190Y-112838095D01*
X131452380Y-111790476D02*
X131452380Y-111600000D01*
X131404761Y-111504761D01*
X131357142Y-111457142D01*
X131214285Y-111361904D01*
X131023809Y-111314285D01*
X130642857Y-111314285D01*
X130547619Y-111361904D01*
X130500000Y-111409523D01*
X130452380Y-111504761D01*
X130452380Y-111695238D01*
X130500000Y-111790476D01*
X130547619Y-111838095D01*
X130642857Y-111885714D01*
X130880952Y-111885714D01*
X130976190Y-111838095D01*
X131023809Y-111790476D01*
X131071428Y-111695238D01*
X131071428Y-111504761D01*
X131023809Y-111409523D01*
X130976190Y-111361904D01*
X130880952Y-111314285D01*
G04 #@! TO.C,R15*
X87302380Y-107292857D02*
X86826190Y-107626190D01*
X87302380Y-107864285D02*
X86302380Y-107864285D01*
X86302380Y-107483333D01*
X86350000Y-107388095D01*
X86397619Y-107340476D01*
X86492857Y-107292857D01*
X86635714Y-107292857D01*
X86730952Y-107340476D01*
X86778571Y-107388095D01*
X86826190Y-107483333D01*
X86826190Y-107864285D01*
X87302380Y-106340476D02*
X87302380Y-106911904D01*
X87302380Y-106626190D02*
X86302380Y-106626190D01*
X86445238Y-106721428D01*
X86540476Y-106816666D01*
X86588095Y-106911904D01*
X86302380Y-105435714D02*
X86302380Y-105911904D01*
X86778571Y-105959523D01*
X86730952Y-105911904D01*
X86683333Y-105816666D01*
X86683333Y-105578571D01*
X86730952Y-105483333D01*
X86778571Y-105435714D01*
X86873809Y-105388095D01*
X87111904Y-105388095D01*
X87207142Y-105435714D01*
X87254761Y-105483333D01*
X87302380Y-105578571D01*
X87302380Y-105816666D01*
X87254761Y-105911904D01*
X87207142Y-105959523D01*
G04 #@! TO.C,R16*
X87452380Y-98942857D02*
X86976190Y-99276190D01*
X87452380Y-99514285D02*
X86452380Y-99514285D01*
X86452380Y-99133333D01*
X86500000Y-99038095D01*
X86547619Y-98990476D01*
X86642857Y-98942857D01*
X86785714Y-98942857D01*
X86880952Y-98990476D01*
X86928571Y-99038095D01*
X86976190Y-99133333D01*
X86976190Y-99514285D01*
X87452380Y-97990476D02*
X87452380Y-98561904D01*
X87452380Y-98276190D02*
X86452380Y-98276190D01*
X86595238Y-98371428D01*
X86690476Y-98466666D01*
X86738095Y-98561904D01*
X86452380Y-97133333D02*
X86452380Y-97323809D01*
X86500000Y-97419047D01*
X86547619Y-97466666D01*
X86690476Y-97561904D01*
X86880952Y-97609523D01*
X87261904Y-97609523D01*
X87357142Y-97561904D01*
X87404761Y-97514285D01*
X87452380Y-97419047D01*
X87452380Y-97228571D01*
X87404761Y-97133333D01*
X87357142Y-97085714D01*
X87261904Y-97038095D01*
X87023809Y-97038095D01*
X86928571Y-97085714D01*
X86880952Y-97133333D01*
X86833333Y-97228571D01*
X86833333Y-97419047D01*
X86880952Y-97514285D01*
X86928571Y-97561904D01*
X87023809Y-97609523D01*
G04 #@! TO.C,R17*
X87352380Y-103492857D02*
X86876190Y-103826190D01*
X87352380Y-104064285D02*
X86352380Y-104064285D01*
X86352380Y-103683333D01*
X86400000Y-103588095D01*
X86447619Y-103540476D01*
X86542857Y-103492857D01*
X86685714Y-103492857D01*
X86780952Y-103540476D01*
X86828571Y-103588095D01*
X86876190Y-103683333D01*
X86876190Y-104064285D01*
X87352380Y-102540476D02*
X87352380Y-103111904D01*
X87352380Y-102826190D02*
X86352380Y-102826190D01*
X86495238Y-102921428D01*
X86590476Y-103016666D01*
X86638095Y-103111904D01*
X86352380Y-102207142D02*
X86352380Y-101540476D01*
X87352380Y-101969047D01*
G04 #@! TO.C,R22*
X72052380Y-88442857D02*
X71576190Y-88776190D01*
X72052380Y-89014285D02*
X71052380Y-89014285D01*
X71052380Y-88633333D01*
X71100000Y-88538095D01*
X71147619Y-88490476D01*
X71242857Y-88442857D01*
X71385714Y-88442857D01*
X71480952Y-88490476D01*
X71528571Y-88538095D01*
X71576190Y-88633333D01*
X71576190Y-89014285D01*
X71147619Y-88061904D02*
X71100000Y-88014285D01*
X71052380Y-87919047D01*
X71052380Y-87680952D01*
X71100000Y-87585714D01*
X71147619Y-87538095D01*
X71242857Y-87490476D01*
X71338095Y-87490476D01*
X71480952Y-87538095D01*
X72052380Y-88109523D01*
X72052380Y-87490476D01*
X71147619Y-87109523D02*
X71100000Y-87061904D01*
X71052380Y-86966666D01*
X71052380Y-86728571D01*
X71100000Y-86633333D01*
X71147619Y-86585714D01*
X71242857Y-86538095D01*
X71338095Y-86538095D01*
X71480952Y-86585714D01*
X72052380Y-87157142D01*
X72052380Y-86538095D01*
G04 #@! TO.C,R23*
X102502380Y-93242857D02*
X102026190Y-93576190D01*
X102502380Y-93814285D02*
X101502380Y-93814285D01*
X101502380Y-93433333D01*
X101550000Y-93338095D01*
X101597619Y-93290476D01*
X101692857Y-93242857D01*
X101835714Y-93242857D01*
X101930952Y-93290476D01*
X101978571Y-93338095D01*
X102026190Y-93433333D01*
X102026190Y-93814285D01*
X101597619Y-92861904D02*
X101550000Y-92814285D01*
X101502380Y-92719047D01*
X101502380Y-92480952D01*
X101550000Y-92385714D01*
X101597619Y-92338095D01*
X101692857Y-92290476D01*
X101788095Y-92290476D01*
X101930952Y-92338095D01*
X102502380Y-92909523D01*
X102502380Y-92290476D01*
X101502380Y-91957142D02*
X101502380Y-91338095D01*
X101883333Y-91671428D01*
X101883333Y-91528571D01*
X101930952Y-91433333D01*
X101978571Y-91385714D01*
X102073809Y-91338095D01*
X102311904Y-91338095D01*
X102407142Y-91385714D01*
X102454761Y-91433333D01*
X102502380Y-91528571D01*
X102502380Y-91814285D01*
X102454761Y-91909523D01*
X102407142Y-91957142D01*
G04 #@! TO.C,R24*
X98852380Y-89942857D02*
X98376190Y-90276190D01*
X98852380Y-90514285D02*
X97852380Y-90514285D01*
X97852380Y-90133333D01*
X97900000Y-90038095D01*
X97947619Y-89990476D01*
X98042857Y-89942857D01*
X98185714Y-89942857D01*
X98280952Y-89990476D01*
X98328571Y-90038095D01*
X98376190Y-90133333D01*
X98376190Y-90514285D01*
X97947619Y-89561904D02*
X97900000Y-89514285D01*
X97852380Y-89419047D01*
X97852380Y-89180952D01*
X97900000Y-89085714D01*
X97947619Y-89038095D01*
X98042857Y-88990476D01*
X98138095Y-88990476D01*
X98280952Y-89038095D01*
X98852380Y-89609523D01*
X98852380Y-88990476D01*
X98185714Y-88133333D02*
X98852380Y-88133333D01*
X97804761Y-88371428D02*
X98519047Y-88609523D01*
X98519047Y-87990476D01*
G04 #@! TO.C,R25*
X94157142Y-87052380D02*
X93823809Y-86576190D01*
X93585714Y-87052380D02*
X93585714Y-86052380D01*
X93966666Y-86052380D01*
X94061904Y-86100000D01*
X94109523Y-86147619D01*
X94157142Y-86242857D01*
X94157142Y-86385714D01*
X94109523Y-86480952D01*
X94061904Y-86528571D01*
X93966666Y-86576190D01*
X93585714Y-86576190D01*
X94538095Y-86147619D02*
X94585714Y-86100000D01*
X94680952Y-86052380D01*
X94919047Y-86052380D01*
X95014285Y-86100000D01*
X95061904Y-86147619D01*
X95109523Y-86242857D01*
X95109523Y-86338095D01*
X95061904Y-86480952D01*
X94490476Y-87052380D01*
X95109523Y-87052380D01*
X96014285Y-86052380D02*
X95538095Y-86052380D01*
X95490476Y-86528571D01*
X95538095Y-86480952D01*
X95633333Y-86433333D01*
X95871428Y-86433333D01*
X95966666Y-86480952D01*
X96014285Y-86528571D01*
X96061904Y-86623809D01*
X96061904Y-86861904D01*
X96014285Y-86957142D01*
X95966666Y-87004761D01*
X95871428Y-87052380D01*
X95633333Y-87052380D01*
X95538095Y-87004761D01*
X95490476Y-86957142D01*
G04 #@! TO.C,R26*
X118502380Y-116217857D02*
X118026190Y-116551190D01*
X118502380Y-116789285D02*
X117502380Y-116789285D01*
X117502380Y-116408333D01*
X117550000Y-116313095D01*
X117597619Y-116265476D01*
X117692857Y-116217857D01*
X117835714Y-116217857D01*
X117930952Y-116265476D01*
X117978571Y-116313095D01*
X118026190Y-116408333D01*
X118026190Y-116789285D01*
X117597619Y-115836904D02*
X117550000Y-115789285D01*
X117502380Y-115694047D01*
X117502380Y-115455952D01*
X117550000Y-115360714D01*
X117597619Y-115313095D01*
X117692857Y-115265476D01*
X117788095Y-115265476D01*
X117930952Y-115313095D01*
X118502380Y-115884523D01*
X118502380Y-115265476D01*
X117502380Y-114408333D02*
X117502380Y-114598809D01*
X117550000Y-114694047D01*
X117597619Y-114741666D01*
X117740476Y-114836904D01*
X117930952Y-114884523D01*
X118311904Y-114884523D01*
X118407142Y-114836904D01*
X118454761Y-114789285D01*
X118502380Y-114694047D01*
X118502380Y-114503571D01*
X118454761Y-114408333D01*
X118407142Y-114360714D01*
X118311904Y-114313095D01*
X118073809Y-114313095D01*
X117978571Y-114360714D01*
X117930952Y-114408333D01*
X117883333Y-114503571D01*
X117883333Y-114694047D01*
X117930952Y-114789285D01*
X117978571Y-114836904D01*
X118073809Y-114884523D01*
G04 #@! TO.C,R27*
X118502380Y-109892857D02*
X118026190Y-110226190D01*
X118502380Y-110464285D02*
X117502380Y-110464285D01*
X117502380Y-110083333D01*
X117550000Y-109988095D01*
X117597619Y-109940476D01*
X117692857Y-109892857D01*
X117835714Y-109892857D01*
X117930952Y-109940476D01*
X117978571Y-109988095D01*
X118026190Y-110083333D01*
X118026190Y-110464285D01*
X117597619Y-109511904D02*
X117550000Y-109464285D01*
X117502380Y-109369047D01*
X117502380Y-109130952D01*
X117550000Y-109035714D01*
X117597619Y-108988095D01*
X117692857Y-108940476D01*
X117788095Y-108940476D01*
X117930952Y-108988095D01*
X118502380Y-109559523D01*
X118502380Y-108940476D01*
X117502380Y-108607142D02*
X117502380Y-107940476D01*
X118502380Y-108369047D01*
G04 #@! TO.C,R28*
X99852380Y-112842857D02*
X99376190Y-113176190D01*
X99852380Y-113414285D02*
X98852380Y-113414285D01*
X98852380Y-113033333D01*
X98900000Y-112938095D01*
X98947619Y-112890476D01*
X99042857Y-112842857D01*
X99185714Y-112842857D01*
X99280952Y-112890476D01*
X99328571Y-112938095D01*
X99376190Y-113033333D01*
X99376190Y-113414285D01*
X98947619Y-112461904D02*
X98900000Y-112414285D01*
X98852380Y-112319047D01*
X98852380Y-112080952D01*
X98900000Y-111985714D01*
X98947619Y-111938095D01*
X99042857Y-111890476D01*
X99138095Y-111890476D01*
X99280952Y-111938095D01*
X99852380Y-112509523D01*
X99852380Y-111890476D01*
X99280952Y-111319047D02*
X99233333Y-111414285D01*
X99185714Y-111461904D01*
X99090476Y-111509523D01*
X99042857Y-111509523D01*
X98947619Y-111461904D01*
X98900000Y-111414285D01*
X98852380Y-111319047D01*
X98852380Y-111128571D01*
X98900000Y-111033333D01*
X98947619Y-110985714D01*
X99042857Y-110938095D01*
X99090476Y-110938095D01*
X99185714Y-110985714D01*
X99233333Y-111033333D01*
X99280952Y-111128571D01*
X99280952Y-111319047D01*
X99328571Y-111414285D01*
X99376190Y-111461904D01*
X99471428Y-111509523D01*
X99661904Y-111509523D01*
X99757142Y-111461904D01*
X99804761Y-111414285D01*
X99852380Y-111319047D01*
X99852380Y-111128571D01*
X99804761Y-111033333D01*
X99757142Y-110985714D01*
X99661904Y-110938095D01*
X99471428Y-110938095D01*
X99376190Y-110985714D01*
X99328571Y-111033333D01*
X99280952Y-111128571D01*
G04 #@! TO.C,R29*
X93352380Y-112842857D02*
X92876190Y-113176190D01*
X93352380Y-113414285D02*
X92352380Y-113414285D01*
X92352380Y-113033333D01*
X92400000Y-112938095D01*
X92447619Y-112890476D01*
X92542857Y-112842857D01*
X92685714Y-112842857D01*
X92780952Y-112890476D01*
X92828571Y-112938095D01*
X92876190Y-113033333D01*
X92876190Y-113414285D01*
X92447619Y-112461904D02*
X92400000Y-112414285D01*
X92352380Y-112319047D01*
X92352380Y-112080952D01*
X92400000Y-111985714D01*
X92447619Y-111938095D01*
X92542857Y-111890476D01*
X92638095Y-111890476D01*
X92780952Y-111938095D01*
X93352380Y-112509523D01*
X93352380Y-111890476D01*
X93352380Y-111414285D02*
X93352380Y-111223809D01*
X93304761Y-111128571D01*
X93257142Y-111080952D01*
X93114285Y-110985714D01*
X92923809Y-110938095D01*
X92542857Y-110938095D01*
X92447619Y-110985714D01*
X92400000Y-111033333D01*
X92352380Y-111128571D01*
X92352380Y-111319047D01*
X92400000Y-111414285D01*
X92447619Y-111461904D01*
X92542857Y-111509523D01*
X92780952Y-111509523D01*
X92876190Y-111461904D01*
X92923809Y-111414285D01*
X92971428Y-111319047D01*
X92971428Y-111128571D01*
X92923809Y-111033333D01*
X92876190Y-110985714D01*
X92780952Y-110938095D01*
G04 #@! TO.C,U1*
X80238095Y-92852380D02*
X80238095Y-93661904D01*
X80285714Y-93757142D01*
X80333333Y-93804761D01*
X80428571Y-93852380D01*
X80619047Y-93852380D01*
X80714285Y-93804761D01*
X80761904Y-93757142D01*
X80809523Y-93661904D01*
X80809523Y-92852380D01*
X81809523Y-93852380D02*
X81238095Y-93852380D01*
X81523809Y-93852380D02*
X81523809Y-92852380D01*
X81428571Y-92995238D01*
X81333333Y-93090476D01*
X81238095Y-93138095D01*
G04 #@! TO.C,U2*
X109952380Y-115961904D02*
X110761904Y-115961904D01*
X110857142Y-115914285D01*
X110904761Y-115866666D01*
X110952380Y-115771428D01*
X110952380Y-115580952D01*
X110904761Y-115485714D01*
X110857142Y-115438095D01*
X110761904Y-115390476D01*
X109952380Y-115390476D01*
X110047619Y-114961904D02*
X110000000Y-114914285D01*
X109952380Y-114819047D01*
X109952380Y-114580952D01*
X110000000Y-114485714D01*
X110047619Y-114438095D01*
X110142857Y-114390476D01*
X110238095Y-114390476D01*
X110380952Y-114438095D01*
X110952380Y-115009523D01*
X110952380Y-114390476D01*
G04 #@! TO.C,U4*
X101967380Y-104016904D02*
X102776904Y-104016904D01*
X102872142Y-103969285D01*
X102919761Y-103921666D01*
X102967380Y-103826428D01*
X102967380Y-103635952D01*
X102919761Y-103540714D01*
X102872142Y-103493095D01*
X102776904Y-103445476D01*
X101967380Y-103445476D01*
X102300714Y-102540714D02*
X102967380Y-102540714D01*
X101919761Y-102778809D02*
X102634047Y-103016904D01*
X102634047Y-102397857D01*
G04 #@! TO.C,K1*
X143852380Y-117338095D02*
X142852380Y-117338095D01*
X143852380Y-116766666D02*
X143280952Y-117195238D01*
X142852380Y-116766666D02*
X143423809Y-117338095D01*
X143852380Y-115814285D02*
X143852380Y-116385714D01*
X143852380Y-116100000D02*
X142852380Y-116100000D01*
X142995238Y-116195238D01*
X143090476Y-116290476D01*
X143138095Y-116385714D01*
G04 #@! TO.C,J8*
X144152380Y-88533333D02*
X144866666Y-88533333D01*
X145009523Y-88580952D01*
X145104761Y-88676190D01*
X145152380Y-88819047D01*
X145152380Y-88914285D01*
X144580952Y-87914285D02*
X144533333Y-88009523D01*
X144485714Y-88057142D01*
X144390476Y-88104761D01*
X144342857Y-88104761D01*
X144247619Y-88057142D01*
X144200000Y-88009523D01*
X144152380Y-87914285D01*
X144152380Y-87723809D01*
X144200000Y-87628571D01*
X144247619Y-87580952D01*
X144342857Y-87533333D01*
X144390476Y-87533333D01*
X144485714Y-87580952D01*
X144533333Y-87628571D01*
X144580952Y-87723809D01*
X144580952Y-87914285D01*
X144628571Y-88009523D01*
X144676190Y-88057142D01*
X144771428Y-88104761D01*
X144961904Y-88104761D01*
X145057142Y-88057142D01*
X145104761Y-88009523D01*
X145152380Y-87914285D01*
X145152380Y-87723809D01*
X145104761Y-87628571D01*
X145057142Y-87580952D01*
X144961904Y-87533333D01*
X144771428Y-87533333D01*
X144676190Y-87580952D01*
X144628571Y-87628571D01*
X144580952Y-87723809D01*
G04 #@! TO.C,D5*
X87052380Y-116238095D02*
X86052380Y-116238095D01*
X86052380Y-116000000D01*
X86100000Y-115857142D01*
X86195238Y-115761904D01*
X86290476Y-115714285D01*
X86480952Y-115666666D01*
X86623809Y-115666666D01*
X86814285Y-115714285D01*
X86909523Y-115761904D01*
X87004761Y-115857142D01*
X87052380Y-116000000D01*
X87052380Y-116238095D01*
X86052380Y-114761904D02*
X86052380Y-115238095D01*
X86528571Y-115285714D01*
X86480952Y-115238095D01*
X86433333Y-115142857D01*
X86433333Y-114904761D01*
X86480952Y-114809523D01*
X86528571Y-114761904D01*
X86623809Y-114714285D01*
X86861904Y-114714285D01*
X86957142Y-114761904D01*
X87004761Y-114809523D01*
X87052380Y-114904761D01*
X87052380Y-115142857D01*
X87004761Y-115238095D01*
X86957142Y-115285714D01*
G04 #@! TO.C,D6*
X80352380Y-116238095D02*
X79352380Y-116238095D01*
X79352380Y-116000000D01*
X79400000Y-115857142D01*
X79495238Y-115761904D01*
X79590476Y-115714285D01*
X79780952Y-115666666D01*
X79923809Y-115666666D01*
X80114285Y-115714285D01*
X80209523Y-115761904D01*
X80304761Y-115857142D01*
X80352380Y-116000000D01*
X80352380Y-116238095D01*
X79352380Y-114809523D02*
X79352380Y-115000000D01*
X79400000Y-115095238D01*
X79447619Y-115142857D01*
X79590476Y-115238095D01*
X79780952Y-115285714D01*
X80161904Y-115285714D01*
X80257142Y-115238095D01*
X80304761Y-115190476D01*
X80352380Y-115095238D01*
X80352380Y-114904761D01*
X80304761Y-114809523D01*
X80257142Y-114761904D01*
X80161904Y-114714285D01*
X79923809Y-114714285D01*
X79828571Y-114761904D01*
X79780952Y-114809523D01*
X79733333Y-114904761D01*
X79733333Y-115095238D01*
X79780952Y-115190476D01*
X79828571Y-115238095D01*
X79923809Y-115285714D01*
G04 #@! TO.C,R4*
X77333333Y-90352380D02*
X77000000Y-89876190D01*
X76761904Y-90352380D02*
X76761904Y-89352380D01*
X77142857Y-89352380D01*
X77238095Y-89400000D01*
X77285714Y-89447619D01*
X77333333Y-89542857D01*
X77333333Y-89685714D01*
X77285714Y-89780952D01*
X77238095Y-89828571D01*
X77142857Y-89876190D01*
X76761904Y-89876190D01*
X78190476Y-89685714D02*
X78190476Y-90352380D01*
X77952380Y-89304761D02*
X77714285Y-90019047D01*
X78333333Y-90019047D01*
G04 #@! TO.C,R5*
X80733333Y-90452380D02*
X80400000Y-89976190D01*
X80161904Y-90452380D02*
X80161904Y-89452380D01*
X80542857Y-89452380D01*
X80638095Y-89500000D01*
X80685714Y-89547619D01*
X80733333Y-89642857D01*
X80733333Y-89785714D01*
X80685714Y-89880952D01*
X80638095Y-89928571D01*
X80542857Y-89976190D01*
X80161904Y-89976190D01*
X81638095Y-89452380D02*
X81161904Y-89452380D01*
X81114285Y-89928571D01*
X81161904Y-89880952D01*
X81257142Y-89833333D01*
X81495238Y-89833333D01*
X81590476Y-89880952D01*
X81638095Y-89928571D01*
X81685714Y-90023809D01*
X81685714Y-90261904D01*
X81638095Y-90357142D01*
X81590476Y-90404761D01*
X81495238Y-90452380D01*
X81257142Y-90452380D01*
X81161904Y-90404761D01*
X81114285Y-90357142D01*
G04 #@! TO.C,R30*
X86852380Y-112942857D02*
X86376190Y-113276190D01*
X86852380Y-113514285D02*
X85852380Y-113514285D01*
X85852380Y-113133333D01*
X85900000Y-113038095D01*
X85947619Y-112990476D01*
X86042857Y-112942857D01*
X86185714Y-112942857D01*
X86280952Y-112990476D01*
X86328571Y-113038095D01*
X86376190Y-113133333D01*
X86376190Y-113514285D01*
X85852380Y-112609523D02*
X85852380Y-111990476D01*
X86233333Y-112323809D01*
X86233333Y-112180952D01*
X86280952Y-112085714D01*
X86328571Y-112038095D01*
X86423809Y-111990476D01*
X86661904Y-111990476D01*
X86757142Y-112038095D01*
X86804761Y-112085714D01*
X86852380Y-112180952D01*
X86852380Y-112466666D01*
X86804761Y-112561904D01*
X86757142Y-112609523D01*
X85852380Y-111371428D02*
X85852380Y-111276190D01*
X85900000Y-111180952D01*
X85947619Y-111133333D01*
X86042857Y-111085714D01*
X86233333Y-111038095D01*
X86471428Y-111038095D01*
X86661904Y-111085714D01*
X86757142Y-111133333D01*
X86804761Y-111180952D01*
X86852380Y-111276190D01*
X86852380Y-111371428D01*
X86804761Y-111466666D01*
X86757142Y-111514285D01*
X86661904Y-111561904D01*
X86471428Y-111609523D01*
X86233333Y-111609523D01*
X86042857Y-111561904D01*
X85947619Y-111514285D01*
X85900000Y-111466666D01*
X85852380Y-111371428D01*
G04 #@! TO.C,R31*
X79852380Y-112842857D02*
X79376190Y-113176190D01*
X79852380Y-113414285D02*
X78852380Y-113414285D01*
X78852380Y-113033333D01*
X78900000Y-112938095D01*
X78947619Y-112890476D01*
X79042857Y-112842857D01*
X79185714Y-112842857D01*
X79280952Y-112890476D01*
X79328571Y-112938095D01*
X79376190Y-113033333D01*
X79376190Y-113414285D01*
X78852380Y-112509523D02*
X78852380Y-111890476D01*
X79233333Y-112223809D01*
X79233333Y-112080952D01*
X79280952Y-111985714D01*
X79328571Y-111938095D01*
X79423809Y-111890476D01*
X79661904Y-111890476D01*
X79757142Y-111938095D01*
X79804761Y-111985714D01*
X79852380Y-112080952D01*
X79852380Y-112366666D01*
X79804761Y-112461904D01*
X79757142Y-112509523D01*
X79852380Y-110938095D02*
X79852380Y-111509523D01*
X79852380Y-111223809D02*
X78852380Y-111223809D01*
X78995238Y-111319047D01*
X79090476Y-111414285D01*
X79138095Y-111509523D01*
G04 #@! TO.C,J3*
X73666666Y-108752380D02*
X73666666Y-109466666D01*
X73619047Y-109609523D01*
X73523809Y-109704761D01*
X73380952Y-109752380D01*
X73285714Y-109752380D01*
X74047619Y-108752380D02*
X74666666Y-108752380D01*
X74333333Y-109133333D01*
X74476190Y-109133333D01*
X74571428Y-109180952D01*
X74619047Y-109228571D01*
X74666666Y-109323809D01*
X74666666Y-109561904D01*
X74619047Y-109657142D01*
X74571428Y-109704761D01*
X74476190Y-109752380D01*
X74190476Y-109752380D01*
X74095238Y-109704761D01*
X74047619Y-109657142D01*
G04 #@! TO.C,J5*
X90666666Y-85952380D02*
X90666666Y-86666666D01*
X90619047Y-86809523D01*
X90523809Y-86904761D01*
X90380952Y-86952380D01*
X90285714Y-86952380D01*
X91619047Y-85952380D02*
X91142857Y-85952380D01*
X91095238Y-86428571D01*
X91142857Y-86380952D01*
X91238095Y-86333333D01*
X91476190Y-86333333D01*
X91571428Y-86380952D01*
X91619047Y-86428571D01*
X91666666Y-86523809D01*
X91666666Y-86761904D01*
X91619047Y-86857142D01*
X91571428Y-86904761D01*
X91476190Y-86952380D01*
X91238095Y-86952380D01*
X91142857Y-86904761D01*
X91095238Y-86857142D01*
G04 #@! TD*
M02*
