%FSLAX45Y45*%
G04 Gerber Fmt 4.5, Leading zero omitted, Abs format (unit mm)*
G04 Created by KiCad (PCBNEW 5.0.2+dfsg1-1~bpo9+1) date Wed Mar  4 21:18:35 2020*
%MOMM*%
%LPD*%
G01*
G04 APERTURE LIST*
%ADD10C,0.150000*%
%ADD11C,0.200000*%
%ADD12C,0.300000*%
G04 APERTURE END LIST*
D10*
X14975000Y-8075000D02*
G75*
G03X14975000Y-8075000I-175000J0D01*
G01*
X14975000Y-11475000D02*
G75*
G03X14975000Y-11475000I-175000J0D01*
G01*
X7075000Y-11475000D02*
G75*
G03X7075000Y-11475000I-175000J0D01*
G01*
X7075000Y-8075000D02*
G75*
G03X7075000Y-8075000I-175000J0D01*
G01*
X6600000Y-11775000D02*
X6600000Y-7775000D01*
X15100000Y-11775000D02*
X6600000Y-11775000D01*
X15100000Y-7775000D02*
X15100000Y-11775000D01*
X6600000Y-7775000D02*
X15100000Y-7775000D01*
D11*
X9032010Y-9515030D02*
X9072010Y-9555030D01*
X9072010Y-9515030D02*
X9032010Y-9555030D01*
X9549430Y-9626640D02*
X9589430Y-9666640D01*
X9589430Y-9626640D02*
X9549430Y-9666640D01*
X9579690Y-10703060D02*
X9619690Y-10743060D01*
X9619690Y-10703060D02*
X9579690Y-10743060D01*
X10209300Y-9731770D02*
X10249300Y-9771770D01*
X10249300Y-9731770D02*
X10209300Y-9771770D01*
X10209420Y-9414420D02*
X10249420Y-9454420D01*
X10249420Y-9414420D02*
X10209420Y-9454420D01*
X10238820Y-9248970D02*
X10278820Y-9288970D01*
X10278820Y-9248970D02*
X10238820Y-9288970D01*
X10281390Y-10072620D02*
X10321390Y-10112620D01*
X10321390Y-10072620D02*
X10281390Y-10112620D01*
X10606240Y-9145000D02*
X10646240Y-9185000D01*
X10646240Y-9145000D02*
X10606240Y-9185000D01*
X10646030Y-9725129D02*
X10686030Y-9765129D01*
X10686030Y-9725129D02*
X10646030Y-9765129D01*
X10650000Y-9960000D02*
X10690000Y-10000000D01*
X10690000Y-9960000D02*
X10650000Y-10000000D01*
X10668735Y-9461265D02*
X10708735Y-9501265D01*
X10708735Y-9461265D02*
X10668735Y-9501265D01*
X10690000Y-9610000D02*
X10730000Y-9650000D01*
X10730000Y-9610000D02*
X10690000Y-9650000D01*
X10738250Y-9850400D02*
X10778250Y-9890400D01*
X10778250Y-9850400D02*
X10738250Y-9890400D01*
X10760000Y-10210000D02*
X10800000Y-10250000D01*
X10800000Y-10210000D02*
X10760000Y-10250000D01*
X10892640Y-9849100D02*
X10932640Y-9889100D01*
X10932640Y-9849100D02*
X10892640Y-9889100D01*
X10918320Y-8764000D02*
X10958320Y-8804000D01*
X10958320Y-8764000D02*
X10918320Y-8804000D01*
X10950000Y-11260000D02*
X10990000Y-11300000D01*
X10990000Y-11260000D02*
X10950000Y-11300000D01*
X11064630Y-9928940D02*
X11104630Y-9968940D01*
X11104630Y-9928940D02*
X11064630Y-9968940D01*
X11080000Y-11260000D02*
X11120000Y-11300000D01*
X11120000Y-11260000D02*
X11080000Y-11300000D01*
X11272150Y-10132280D02*
X11312150Y-10172280D01*
X11312150Y-10132280D02*
X11272150Y-10172280D01*
X11305000Y-11130000D02*
X11345000Y-11170000D01*
X11345000Y-11130000D02*
X11305000Y-11170000D01*
X11430000Y-11130000D02*
X11470000Y-11170000D01*
X11470000Y-11130000D02*
X11430000Y-11170000D01*
X11883970Y-9634390D02*
X11923970Y-9674390D01*
X11923970Y-9634390D02*
X11883970Y-9674390D01*
X11895620Y-10034000D02*
X11935620Y-10074000D01*
X11935620Y-10034000D02*
X11895620Y-10074000D01*
X12980000Y-8430000D02*
X13020000Y-8470000D01*
X13020000Y-8430000D02*
X12980000Y-8470000D01*
X14669000Y-8935500D02*
G75*
G03X14669000Y-8935500I-32500J0D01*
G01*
X14656500Y-8913000D02*
X14616500Y-8913000D01*
X14656500Y-8958000D02*
X14616500Y-8958000D01*
X14616500Y-8913000D02*
G75*
G03X14616500Y-8958000I0J-22500D01*
G01*
X14656500Y-8958000D02*
G75*
G03X14656500Y-8913000I0J22500D01*
G01*
X14669000Y-9419500D02*
G75*
G03X14669000Y-9419500I-32500J0D01*
G01*
X14656500Y-9397000D02*
X14616500Y-9397000D01*
X14656500Y-9442000D02*
X14616500Y-9442000D01*
X14616500Y-9397000D02*
G75*
G03X14616500Y-9442000I0J-22500D01*
G01*
X14656500Y-9442000D02*
G75*
G03X14656500Y-9397000I0J22500D01*
G01*
X14936500Y-8869500D02*
X14936500Y-8939500D01*
X14901500Y-8904500D02*
X14971500Y-8904500D01*
X14961500Y-8879500D02*
X14911500Y-8879500D01*
X14961500Y-8929500D02*
X14911500Y-8929500D01*
X14911500Y-8879500D02*
G75*
G03X14911500Y-8929500I0J-25000D01*
G01*
X14961500Y-8929500D02*
G75*
G03X14961500Y-8879500I0J25000D01*
G01*
X14936500Y-9415500D02*
X14936500Y-9485500D01*
X14901500Y-9450500D02*
X14971500Y-9450500D01*
X14961500Y-9425500D02*
X14911500Y-9425500D01*
X14961500Y-9475500D02*
X14911500Y-9475500D01*
X14911500Y-9425500D02*
G75*
G03X14911500Y-9475500I0J-25000D01*
G01*
X14961500Y-9475500D02*
G75*
G03X14961500Y-9425500I0J25000D01*
G01*
X13395941Y-9862941D02*
X13395941Y-9809059D01*
X13342059Y-9809059D01*
X13342059Y-9862941D01*
X13395941Y-9862941D01*
X13395941Y-10370941D02*
X13395941Y-10317059D01*
X13342059Y-10317059D01*
X13342059Y-10370941D01*
X13395941Y-10370941D01*
X13395941Y-10878941D02*
X13395941Y-10825059D01*
X13342059Y-10825059D01*
X13342059Y-10878941D01*
X13395941Y-10878941D01*
X13395941Y-11386941D02*
X13395941Y-11333059D01*
X13342059Y-11333059D01*
X13342059Y-11386941D01*
X13395941Y-11386941D01*
X13395941Y-11640941D02*
X13395941Y-11587059D01*
X13342059Y-11587059D01*
X13342059Y-11640941D01*
X13395941Y-11640941D01*
X14157941Y-9862941D02*
X14157941Y-9809059D01*
X14104059Y-9809059D01*
X14104059Y-9862941D01*
X14157941Y-9862941D01*
X14157941Y-10370941D02*
X14157941Y-10317059D01*
X14104059Y-10317059D01*
X14104059Y-10370941D01*
X14157941Y-10370941D01*
X14157941Y-10878941D02*
X14157941Y-10825059D01*
X14104059Y-10825059D01*
X14104059Y-10878941D01*
X14157941Y-10878941D01*
X14157941Y-11386941D02*
X14157941Y-11333059D01*
X14104059Y-11333059D01*
X14104059Y-11386941D01*
X14157941Y-11386941D01*
X14157941Y-11640941D02*
X14157941Y-11587059D01*
X14104059Y-11587059D01*
X14104059Y-11640941D01*
X14157941Y-11640941D01*
X6985000Y-8815000D02*
X7025000Y-8775000D01*
X6985000Y-8735000D01*
X6945000Y-8775000D01*
X6985000Y-8815000D01*
X7325000Y-8815000D02*
X7365000Y-8775000D01*
X7325000Y-8735000D01*
X7285000Y-8775000D01*
X7325000Y-8815000D01*
X7122500Y-9352500D02*
X7217500Y-9447500D01*
X7217500Y-9352500D02*
X7122500Y-9447500D01*
X7217500Y-9400000D02*
G75*
G03X7217500Y-9400000I-47500J0D01*
G01*
X7122500Y-9602500D02*
X7217500Y-9697500D01*
X7217500Y-9602500D02*
X7122500Y-9697500D01*
X7217500Y-9650000D02*
G75*
G03X7217500Y-9650000I-47500J0D01*
G01*
X7122500Y-9852500D02*
X7217500Y-9947500D01*
X7217500Y-9852500D02*
X7122500Y-9947500D01*
X7217500Y-9900000D02*
G75*
G03X7217500Y-9900000I-47500J0D01*
G01*
X7122500Y-10102500D02*
X7217500Y-10197500D01*
X7217500Y-10102500D02*
X7122500Y-10197500D01*
X7217500Y-10150000D02*
G75*
G03X7217500Y-10150000I-47500J0D01*
G01*
X12725000Y-9700000D02*
X12825000Y-9800000D01*
X12825000Y-9700000D02*
X12725000Y-9800000D01*
X12775000Y-9700000D02*
X12775000Y-9800000D01*
X12725000Y-9750000D02*
X12825000Y-9750000D01*
X12725000Y-9954000D02*
X12825000Y-10054000D01*
X12825000Y-9954000D02*
X12725000Y-10054000D01*
X12775000Y-9954000D02*
X12775000Y-10054000D01*
X12725000Y-10004000D02*
X12825000Y-10004000D01*
X12725000Y-10208000D02*
X12825000Y-10308000D01*
X12825000Y-10208000D02*
X12725000Y-10308000D01*
X12775000Y-10208000D02*
X12775000Y-10308000D01*
X12725000Y-10258000D02*
X12825000Y-10258000D01*
X12725000Y-10462000D02*
X12825000Y-10562000D01*
X12825000Y-10462000D02*
X12725000Y-10562000D01*
X12775000Y-10462000D02*
X12775000Y-10562000D01*
X12725000Y-10512000D02*
X12825000Y-10512000D01*
X13455000Y-8525000D02*
X13555000Y-8625000D01*
X13555000Y-8525000D02*
X13455000Y-8625000D01*
X13505000Y-8525000D02*
X13505000Y-8625000D01*
X13455000Y-8575000D02*
X13555000Y-8575000D01*
X13709000Y-8525000D02*
X13809000Y-8625000D01*
X13809000Y-8525000D02*
X13709000Y-8625000D01*
X13759000Y-8525000D02*
X13759000Y-8625000D01*
X13709000Y-8575000D02*
X13809000Y-8575000D01*
X13963000Y-8525000D02*
X14063000Y-8625000D01*
X14063000Y-8525000D02*
X13963000Y-8625000D01*
X14013000Y-8525000D02*
X14013000Y-8625000D01*
X13963000Y-8575000D02*
X14063000Y-8575000D01*
X14217000Y-8525000D02*
X14317000Y-8625000D01*
X14317000Y-8525000D02*
X14217000Y-8625000D01*
X14267000Y-8525000D02*
X14267000Y-8625000D01*
X14217000Y-8575000D02*
X14317000Y-8575000D01*
X14471000Y-8525000D02*
X14571000Y-8625000D01*
X14571000Y-8525000D02*
X14471000Y-8625000D01*
X14521000Y-8525000D02*
X14521000Y-8625000D01*
X14471000Y-8575000D02*
X14571000Y-8575000D01*
X14725000Y-8525000D02*
X14825000Y-8625000D01*
X14825000Y-8525000D02*
X14725000Y-8625000D01*
X14775000Y-8525000D02*
X14775000Y-8625000D01*
X14725000Y-8575000D02*
X14825000Y-8575000D01*
X7625000Y-10521000D02*
X7725000Y-10621000D01*
X7725000Y-10521000D02*
X7625000Y-10621000D01*
X7675000Y-10521000D02*
X7675000Y-10621000D01*
X7625000Y-10571000D02*
X7725000Y-10571000D01*
X7625000Y-10775000D02*
X7725000Y-10875000D01*
X7725000Y-10775000D02*
X7625000Y-10875000D01*
X7675000Y-10775000D02*
X7675000Y-10875000D01*
X7625000Y-10825000D02*
X7725000Y-10825000D01*
X7879000Y-10521000D02*
X7979000Y-10621000D01*
X7979000Y-10521000D02*
X7879000Y-10621000D01*
X7929000Y-10521000D02*
X7929000Y-10621000D01*
X7879000Y-10571000D02*
X7979000Y-10571000D01*
X7879000Y-10775000D02*
X7979000Y-10875000D01*
X7979000Y-10775000D02*
X7879000Y-10875000D01*
X7929000Y-10775000D02*
X7929000Y-10875000D01*
X7879000Y-10825000D02*
X7979000Y-10825000D01*
X8133000Y-10521000D02*
X8233000Y-10621000D01*
X8233000Y-10521000D02*
X8133000Y-10621000D01*
X8183000Y-10521000D02*
X8183000Y-10621000D01*
X8133000Y-10571000D02*
X8233000Y-10571000D01*
X8133000Y-10775000D02*
X8233000Y-10875000D01*
X8233000Y-10775000D02*
X8133000Y-10875000D01*
X8183000Y-10775000D02*
X8183000Y-10875000D01*
X8133000Y-10825000D02*
X8233000Y-10825000D01*
X8387000Y-10521000D02*
X8487000Y-10621000D01*
X8487000Y-10521000D02*
X8387000Y-10621000D01*
X8437000Y-10521000D02*
X8437000Y-10621000D01*
X8387000Y-10571000D02*
X8487000Y-10571000D01*
X8387000Y-10775000D02*
X8487000Y-10875000D01*
X8487000Y-10775000D02*
X8387000Y-10875000D01*
X8437000Y-10775000D02*
X8437000Y-10875000D01*
X8387000Y-10825000D02*
X8487000Y-10825000D01*
X8321000Y-8675000D02*
X8421000Y-8775000D01*
X8421000Y-8675000D02*
X8321000Y-8775000D01*
X8371000Y-8675000D02*
X8371000Y-8775000D01*
X8321000Y-8725000D02*
X8421000Y-8725000D01*
X8321000Y-8929000D02*
X8421000Y-9029000D01*
X8421000Y-8929000D02*
X8321000Y-9029000D01*
X8371000Y-8929000D02*
X8371000Y-9029000D01*
X8321000Y-8979000D02*
X8421000Y-8979000D01*
X8575000Y-8675000D02*
X8675000Y-8775000D01*
X8675000Y-8675000D02*
X8575000Y-8775000D01*
X8625000Y-8675000D02*
X8625000Y-8775000D01*
X8575000Y-8725000D02*
X8675000Y-8725000D01*
X8575000Y-8929000D02*
X8675000Y-9029000D01*
X8675000Y-8929000D02*
X8575000Y-9029000D01*
X8625000Y-8929000D02*
X8625000Y-9029000D01*
X8575000Y-8979000D02*
X8675000Y-8979000D01*
X8829000Y-8675000D02*
X8929000Y-8775000D01*
X8929000Y-8675000D02*
X8829000Y-8775000D01*
X8879000Y-8675000D02*
X8879000Y-8775000D01*
X8829000Y-8725000D02*
X8929000Y-8725000D01*
X8829000Y-8929000D02*
X8929000Y-9029000D01*
X8929000Y-8929000D02*
X8829000Y-9029000D01*
X8879000Y-8929000D02*
X8879000Y-9029000D01*
X8829000Y-8979000D02*
X8929000Y-8979000D01*
X12990000Y-8930000D02*
X13090000Y-9030000D01*
X13090000Y-8930000D02*
X12990000Y-9030000D01*
X13040000Y-8930000D02*
X13040000Y-9030000D01*
X12990000Y-8980000D02*
X13090000Y-8980000D01*
X12990000Y-9184000D02*
X13090000Y-9284000D01*
X13090000Y-9184000D02*
X12990000Y-9284000D01*
X13040000Y-9184000D02*
X13040000Y-9284000D01*
X12990000Y-9234000D02*
X13090000Y-9234000D01*
X12990000Y-9438000D02*
X13090000Y-9538000D01*
X13090000Y-9438000D02*
X12990000Y-9538000D01*
X13040000Y-9438000D02*
X13040000Y-9538000D01*
X12990000Y-9488000D02*
X13090000Y-9488000D01*
X12990000Y-9692000D02*
X13090000Y-9792000D01*
X13090000Y-9692000D02*
X12990000Y-9792000D01*
X13040000Y-9692000D02*
X13040000Y-9792000D01*
X12990000Y-9742000D02*
X13090000Y-9742000D01*
X12990000Y-9946000D02*
X13090000Y-10046000D01*
X13090000Y-9946000D02*
X12990000Y-10046000D01*
X13040000Y-9946000D02*
X13040000Y-10046000D01*
X12990000Y-9996000D02*
X13090000Y-9996000D01*
X12990000Y-10200000D02*
X13090000Y-10300000D01*
X13090000Y-10200000D02*
X12990000Y-10300000D01*
X13040000Y-10200000D02*
X13040000Y-10300000D01*
X12990000Y-10250000D02*
X13090000Y-10250000D01*
X14624000Y-9808000D02*
X14776000Y-9960000D01*
X14776000Y-9808000D02*
X14624000Y-9960000D01*
X14753741Y-9937741D02*
X14753741Y-9830259D01*
X14646259Y-9830259D01*
X14646259Y-9937741D01*
X14753741Y-9937741D01*
X14624000Y-10316000D02*
X14776000Y-10468000D01*
X14776000Y-10316000D02*
X14624000Y-10468000D01*
X14753741Y-10445741D02*
X14753741Y-10338259D01*
X14646259Y-10338259D01*
X14646259Y-10445741D01*
X14753741Y-10445741D01*
X14624000Y-10824000D02*
X14776000Y-10976000D01*
X14776000Y-10824000D02*
X14624000Y-10976000D01*
X14753741Y-10953741D02*
X14753741Y-10846259D01*
X14646259Y-10846259D01*
X14646259Y-10953741D01*
X14753741Y-10953741D01*
D12*
X6878928Y-12248214D02*
X6878928Y-11948214D01*
X6950357Y-11948214D01*
X6993214Y-11962500D01*
X7021786Y-11991071D01*
X7036071Y-12019643D01*
X7050357Y-12076786D01*
X7050357Y-12119643D01*
X7036071Y-12176786D01*
X7021786Y-12205357D01*
X6993214Y-12233929D01*
X6950357Y-12248214D01*
X6878928Y-12248214D01*
X7178928Y-12248214D02*
X7178928Y-12048214D01*
X7178928Y-12105357D02*
X7193214Y-12076786D01*
X7207500Y-12062500D01*
X7236071Y-12048214D01*
X7264643Y-12048214D01*
X7364643Y-12248214D02*
X7364643Y-12048214D01*
X7364643Y-11948214D02*
X7350357Y-11962500D01*
X7364643Y-11976786D01*
X7378928Y-11962500D01*
X7364643Y-11948214D01*
X7364643Y-11976786D01*
X7550357Y-12248214D02*
X7521786Y-12233929D01*
X7507500Y-12205357D01*
X7507500Y-11948214D01*
X7707500Y-12248214D02*
X7678928Y-12233929D01*
X7664643Y-12205357D01*
X7664643Y-11948214D01*
X8050357Y-12248214D02*
X8050357Y-11948214D01*
X8150357Y-12162500D01*
X8250357Y-11948214D01*
X8250357Y-12248214D01*
X8521786Y-12248214D02*
X8521786Y-12091071D01*
X8507500Y-12062500D01*
X8478928Y-12048214D01*
X8421786Y-12048214D01*
X8393214Y-12062500D01*
X8521786Y-12233929D02*
X8493214Y-12248214D01*
X8421786Y-12248214D01*
X8393214Y-12233929D01*
X8378928Y-12205357D01*
X8378928Y-12176786D01*
X8393214Y-12148214D01*
X8421786Y-12133929D01*
X8493214Y-12133929D01*
X8521786Y-12119643D01*
X8664643Y-12048214D02*
X8664643Y-12348214D01*
X8664643Y-12062500D02*
X8693214Y-12048214D01*
X8750357Y-12048214D01*
X8778928Y-12062500D01*
X8793214Y-12076786D01*
X8807500Y-12105357D01*
X8807500Y-12191071D01*
X8793214Y-12219643D01*
X8778928Y-12233929D01*
X8750357Y-12248214D01*
X8693214Y-12248214D01*
X8664643Y-12233929D01*
X8936071Y-12219643D02*
X8950357Y-12233929D01*
X8936071Y-12248214D01*
X8921786Y-12233929D01*
X8936071Y-12219643D01*
X8936071Y-12248214D01*
X8936071Y-12062500D02*
X8950357Y-12076786D01*
X8936071Y-12091071D01*
X8921786Y-12076786D01*
X8936071Y-12062500D01*
X8936071Y-12091071D01*
X6552500Y-12722500D02*
X6592500Y-12762500D01*
X6592500Y-12722500D02*
X6552500Y-12762500D01*
X6936071Y-12578214D02*
X6964643Y-12578214D01*
X6993214Y-12592500D01*
X7007500Y-12606786D01*
X7021786Y-12635357D01*
X7036071Y-12692500D01*
X7036071Y-12763929D01*
X7021786Y-12821071D01*
X7007500Y-12849643D01*
X6993214Y-12863929D01*
X6964643Y-12878214D01*
X6936071Y-12878214D01*
X6907500Y-12863929D01*
X6893214Y-12849643D01*
X6878928Y-12821071D01*
X6864643Y-12763929D01*
X6864643Y-12692500D01*
X6878928Y-12635357D01*
X6893214Y-12606786D01*
X6907500Y-12592500D01*
X6936071Y-12578214D01*
X7164643Y-12849643D02*
X7178928Y-12863929D01*
X7164643Y-12878214D01*
X7150357Y-12863929D01*
X7164643Y-12849643D01*
X7164643Y-12878214D01*
X7436071Y-12678214D02*
X7436071Y-12878214D01*
X7364643Y-12563929D02*
X7293214Y-12778214D01*
X7478928Y-12778214D01*
X7650357Y-12578214D02*
X7678928Y-12578214D01*
X7707500Y-12592500D01*
X7721786Y-12606786D01*
X7736071Y-12635357D01*
X7750357Y-12692500D01*
X7750357Y-12763929D01*
X7736071Y-12821071D01*
X7721786Y-12849643D01*
X7707500Y-12863929D01*
X7678928Y-12878214D01*
X7650357Y-12878214D01*
X7621786Y-12863929D01*
X7607500Y-12849643D01*
X7593214Y-12821071D01*
X7578928Y-12763929D01*
X7578928Y-12692500D01*
X7593214Y-12635357D01*
X7607500Y-12606786D01*
X7621786Y-12592500D01*
X7650357Y-12578214D01*
X7878928Y-12878214D02*
X7878928Y-12678214D01*
X7878928Y-12706786D02*
X7893214Y-12692500D01*
X7921786Y-12678214D01*
X7964643Y-12678214D01*
X7993214Y-12692500D01*
X8007500Y-12721071D01*
X8007500Y-12878214D01*
X8007500Y-12721071D02*
X8021786Y-12692500D01*
X8050357Y-12678214D01*
X8093214Y-12678214D01*
X8121786Y-12692500D01*
X8136071Y-12721071D01*
X8136071Y-12878214D01*
X8278928Y-12878214D02*
X8278928Y-12678214D01*
X8278928Y-12706786D02*
X8293214Y-12692500D01*
X8321786Y-12678214D01*
X8364643Y-12678214D01*
X8393214Y-12692500D01*
X8407500Y-12721071D01*
X8407500Y-12878214D01*
X8407500Y-12721071D02*
X8421786Y-12692500D01*
X8450357Y-12678214D01*
X8493214Y-12678214D01*
X8521786Y-12692500D01*
X8536071Y-12721071D01*
X8536071Y-12878214D01*
X9121786Y-12563929D02*
X8864643Y-12949643D01*
X9507500Y-12578214D02*
X9536071Y-12578214D01*
X9564643Y-12592500D01*
X9578928Y-12606786D01*
X9593214Y-12635357D01*
X9607500Y-12692500D01*
X9607500Y-12763929D01*
X9593214Y-12821071D01*
X9578928Y-12849643D01*
X9564643Y-12863929D01*
X9536071Y-12878214D01*
X9507500Y-12878214D01*
X9478928Y-12863929D01*
X9464643Y-12849643D01*
X9450357Y-12821071D01*
X9436071Y-12763929D01*
X9436071Y-12692500D01*
X9450357Y-12635357D01*
X9464643Y-12606786D01*
X9478928Y-12592500D01*
X9507500Y-12578214D01*
X9736071Y-12849643D02*
X9750357Y-12863929D01*
X9736071Y-12878214D01*
X9721786Y-12863929D01*
X9736071Y-12849643D01*
X9736071Y-12878214D01*
X9936071Y-12578214D02*
X9964643Y-12578214D01*
X9993214Y-12592500D01*
X10007500Y-12606786D01*
X10021786Y-12635357D01*
X10036071Y-12692500D01*
X10036071Y-12763929D01*
X10021786Y-12821071D01*
X10007500Y-12849643D01*
X9993214Y-12863929D01*
X9964643Y-12878214D01*
X9936071Y-12878214D01*
X9907500Y-12863929D01*
X9893214Y-12849643D01*
X9878928Y-12821071D01*
X9864643Y-12763929D01*
X9864643Y-12692500D01*
X9878928Y-12635357D01*
X9893214Y-12606786D01*
X9907500Y-12592500D01*
X9936071Y-12578214D01*
X10321786Y-12878214D02*
X10150357Y-12878214D01*
X10236071Y-12878214D02*
X10236071Y-12578214D01*
X10207500Y-12621071D01*
X10178928Y-12649643D01*
X10150357Y-12663929D01*
X10578928Y-12578214D02*
X10521786Y-12578214D01*
X10493214Y-12592500D01*
X10478928Y-12606786D01*
X10450357Y-12649643D01*
X10436071Y-12706786D01*
X10436071Y-12821071D01*
X10450357Y-12849643D01*
X10464643Y-12863929D01*
X10493214Y-12878214D01*
X10550357Y-12878214D01*
X10578928Y-12863929D01*
X10593214Y-12849643D01*
X10607500Y-12821071D01*
X10607500Y-12749643D01*
X10593214Y-12721071D01*
X10578928Y-12706786D01*
X10550357Y-12692500D01*
X10493214Y-12692500D01*
X10464643Y-12706786D01*
X10450357Y-12721071D01*
X10436071Y-12749643D01*
X10721786Y-12578214D02*
X10721786Y-12635357D01*
X10836071Y-12578214D02*
X10836071Y-12635357D01*
X11278928Y-12992500D02*
X11264643Y-12978214D01*
X11236071Y-12935357D01*
X11221786Y-12906786D01*
X11207500Y-12863929D01*
X11193214Y-12792500D01*
X11193214Y-12735357D01*
X11207500Y-12663929D01*
X11221786Y-12621071D01*
X11236071Y-12592500D01*
X11264643Y-12549643D01*
X11278928Y-12535357D01*
X11378928Y-12606786D02*
X11393214Y-12592500D01*
X11421786Y-12578214D01*
X11493214Y-12578214D01*
X11521786Y-12592500D01*
X11536071Y-12606786D01*
X11550357Y-12635357D01*
X11550357Y-12663929D01*
X11536071Y-12706786D01*
X11364643Y-12878214D01*
X11550357Y-12878214D01*
X11821786Y-12578214D02*
X11678928Y-12578214D01*
X11664643Y-12721071D01*
X11678928Y-12706786D01*
X11707500Y-12692500D01*
X11778928Y-12692500D01*
X11807500Y-12706786D01*
X11821786Y-12721071D01*
X11836071Y-12749643D01*
X11836071Y-12821071D01*
X11821786Y-12849643D01*
X11807500Y-12863929D01*
X11778928Y-12878214D01*
X11707500Y-12878214D01*
X11678928Y-12863929D01*
X11664643Y-12849643D01*
X12193214Y-12878214D02*
X12193214Y-12578214D01*
X12321786Y-12878214D02*
X12321786Y-12721071D01*
X12307500Y-12692500D01*
X12278928Y-12678214D01*
X12236071Y-12678214D01*
X12207500Y-12692500D01*
X12193214Y-12706786D01*
X12507500Y-12878214D02*
X12478928Y-12863929D01*
X12464643Y-12849643D01*
X12450357Y-12821071D01*
X12450357Y-12735357D01*
X12464643Y-12706786D01*
X12478928Y-12692500D01*
X12507500Y-12678214D01*
X12550357Y-12678214D01*
X12578928Y-12692500D01*
X12593214Y-12706786D01*
X12607500Y-12735357D01*
X12607500Y-12821071D01*
X12593214Y-12849643D01*
X12578928Y-12863929D01*
X12550357Y-12878214D01*
X12507500Y-12878214D01*
X12778928Y-12878214D02*
X12750357Y-12863929D01*
X12736071Y-12835357D01*
X12736071Y-12578214D01*
X13007500Y-12863929D02*
X12978928Y-12878214D01*
X12921786Y-12878214D01*
X12893214Y-12863929D01*
X12878928Y-12835357D01*
X12878928Y-12721071D01*
X12893214Y-12692500D01*
X12921786Y-12678214D01*
X12978928Y-12678214D01*
X13007500Y-12692500D01*
X13021786Y-12721071D01*
X13021786Y-12749643D01*
X12878928Y-12778214D01*
X13136071Y-12863929D02*
X13164643Y-12878214D01*
X13221786Y-12878214D01*
X13250357Y-12863929D01*
X13264643Y-12835357D01*
X13264643Y-12821071D01*
X13250357Y-12792500D01*
X13221786Y-12778214D01*
X13178928Y-12778214D01*
X13150357Y-12763929D01*
X13136071Y-12735357D01*
X13136071Y-12721071D01*
X13150357Y-12692500D01*
X13178928Y-12678214D01*
X13221786Y-12678214D01*
X13250357Y-12692500D01*
X13364643Y-12992500D02*
X13378928Y-12978214D01*
X13407500Y-12935357D01*
X13421786Y-12906786D01*
X13436071Y-12863929D01*
X13450357Y-12792500D01*
X13450357Y-12735357D01*
X13436071Y-12663929D01*
X13421786Y-12621071D01*
X13407500Y-12592500D01*
X13378928Y-12549643D01*
X13364643Y-12535357D01*
X6592500Y-13138500D02*
G75*
G03X6592500Y-13138500I-32500J0D01*
G01*
X6936071Y-12974214D02*
X6964643Y-12974214D01*
X6993214Y-12988500D01*
X7007500Y-13002786D01*
X7021786Y-13031357D01*
X7036071Y-13088500D01*
X7036071Y-13159929D01*
X7021786Y-13217071D01*
X7007500Y-13245643D01*
X6993214Y-13259929D01*
X6964643Y-13274214D01*
X6936071Y-13274214D01*
X6907500Y-13259929D01*
X6893214Y-13245643D01*
X6878928Y-13217071D01*
X6864643Y-13159929D01*
X6864643Y-13088500D01*
X6878928Y-13031357D01*
X6893214Y-13002786D01*
X6907500Y-12988500D01*
X6936071Y-12974214D01*
X7164643Y-13245643D02*
X7178928Y-13259929D01*
X7164643Y-13274214D01*
X7150357Y-13259929D01*
X7164643Y-13245643D01*
X7164643Y-13274214D01*
X7436071Y-12974214D02*
X7378928Y-12974214D01*
X7350357Y-12988500D01*
X7336071Y-13002786D01*
X7307500Y-13045643D01*
X7293214Y-13102786D01*
X7293214Y-13217071D01*
X7307500Y-13245643D01*
X7321786Y-13259929D01*
X7350357Y-13274214D01*
X7407500Y-13274214D01*
X7436071Y-13259929D01*
X7450357Y-13245643D01*
X7464643Y-13217071D01*
X7464643Y-13145643D01*
X7450357Y-13117071D01*
X7436071Y-13102786D01*
X7407500Y-13088500D01*
X7350357Y-13088500D01*
X7321786Y-13102786D01*
X7307500Y-13117071D01*
X7293214Y-13145643D01*
X7736071Y-12974214D02*
X7593214Y-12974214D01*
X7578928Y-13117071D01*
X7593214Y-13102786D01*
X7621786Y-13088500D01*
X7693214Y-13088500D01*
X7721786Y-13102786D01*
X7736071Y-13117071D01*
X7750357Y-13145643D01*
X7750357Y-13217071D01*
X7736071Y-13245643D01*
X7721786Y-13259929D01*
X7693214Y-13274214D01*
X7621786Y-13274214D01*
X7593214Y-13259929D01*
X7578928Y-13245643D01*
X7878928Y-13274214D02*
X7878928Y-13074214D01*
X7878928Y-13102786D02*
X7893214Y-13088500D01*
X7921786Y-13074214D01*
X7964643Y-13074214D01*
X7993214Y-13088500D01*
X8007500Y-13117071D01*
X8007500Y-13274214D01*
X8007500Y-13117071D02*
X8021786Y-13088500D01*
X8050357Y-13074214D01*
X8093214Y-13074214D01*
X8121786Y-13088500D01*
X8136071Y-13117071D01*
X8136071Y-13274214D01*
X8278928Y-13274214D02*
X8278928Y-13074214D01*
X8278928Y-13102786D02*
X8293214Y-13088500D01*
X8321786Y-13074214D01*
X8364643Y-13074214D01*
X8393214Y-13088500D01*
X8407500Y-13117071D01*
X8407500Y-13274214D01*
X8407500Y-13117071D02*
X8421786Y-13088500D01*
X8450357Y-13074214D01*
X8493214Y-13074214D01*
X8521786Y-13088500D01*
X8536071Y-13117071D01*
X8536071Y-13274214D01*
X9121786Y-12959929D02*
X8864643Y-13345643D01*
X9507500Y-12974214D02*
X9536071Y-12974214D01*
X9564643Y-12988500D01*
X9578928Y-13002786D01*
X9593214Y-13031357D01*
X9607500Y-13088500D01*
X9607500Y-13159929D01*
X9593214Y-13217071D01*
X9578928Y-13245643D01*
X9564643Y-13259929D01*
X9536071Y-13274214D01*
X9507500Y-13274214D01*
X9478928Y-13259929D01*
X9464643Y-13245643D01*
X9450357Y-13217071D01*
X9436071Y-13159929D01*
X9436071Y-13088500D01*
X9450357Y-13031357D01*
X9464643Y-13002786D01*
X9478928Y-12988500D01*
X9507500Y-12974214D01*
X9736071Y-13245643D02*
X9750357Y-13259929D01*
X9736071Y-13274214D01*
X9721786Y-13259929D01*
X9736071Y-13245643D01*
X9736071Y-13274214D01*
X9936071Y-12974214D02*
X9964643Y-12974214D01*
X9993214Y-12988500D01*
X10007500Y-13002786D01*
X10021786Y-13031357D01*
X10036071Y-13088500D01*
X10036071Y-13159929D01*
X10021786Y-13217071D01*
X10007500Y-13245643D01*
X9993214Y-13259929D01*
X9964643Y-13274214D01*
X9936071Y-13274214D01*
X9907500Y-13259929D01*
X9893214Y-13245643D01*
X9878928Y-13217071D01*
X9864643Y-13159929D01*
X9864643Y-13088500D01*
X9878928Y-13031357D01*
X9893214Y-13002786D01*
X9907500Y-12988500D01*
X9936071Y-12974214D01*
X10150357Y-13002786D02*
X10164643Y-12988500D01*
X10193214Y-12974214D01*
X10264643Y-12974214D01*
X10293214Y-12988500D01*
X10307500Y-13002786D01*
X10321786Y-13031357D01*
X10321786Y-13059929D01*
X10307500Y-13102786D01*
X10136071Y-13274214D01*
X10321786Y-13274214D01*
X10578928Y-12974214D02*
X10521786Y-12974214D01*
X10493214Y-12988500D01*
X10478928Y-13002786D01*
X10450357Y-13045643D01*
X10436071Y-13102786D01*
X10436071Y-13217071D01*
X10450357Y-13245643D01*
X10464643Y-13259929D01*
X10493214Y-13274214D01*
X10550357Y-13274214D01*
X10578928Y-13259929D01*
X10593214Y-13245643D01*
X10607500Y-13217071D01*
X10607500Y-13145643D01*
X10593214Y-13117071D01*
X10578928Y-13102786D01*
X10550357Y-13088500D01*
X10493214Y-13088500D01*
X10464643Y-13102786D01*
X10450357Y-13117071D01*
X10436071Y-13145643D01*
X10721786Y-12974214D02*
X10721786Y-13031357D01*
X10836071Y-12974214D02*
X10836071Y-13031357D01*
X11278928Y-13388500D02*
X11264643Y-13374214D01*
X11236071Y-13331357D01*
X11221786Y-13302786D01*
X11207500Y-13259929D01*
X11193214Y-13188500D01*
X11193214Y-13131357D01*
X11207500Y-13059929D01*
X11221786Y-13017071D01*
X11236071Y-12988500D01*
X11264643Y-12945643D01*
X11278928Y-12931357D01*
X11450357Y-12974214D02*
X11478928Y-12974214D01*
X11507500Y-12988500D01*
X11521786Y-13002786D01*
X11536071Y-13031357D01*
X11550357Y-13088500D01*
X11550357Y-13159929D01*
X11536071Y-13217071D01*
X11521786Y-13245643D01*
X11507500Y-13259929D01*
X11478928Y-13274214D01*
X11450357Y-13274214D01*
X11421786Y-13259929D01*
X11407500Y-13245643D01*
X11393214Y-13217071D01*
X11378928Y-13159929D01*
X11378928Y-13088500D01*
X11393214Y-13031357D01*
X11407500Y-13002786D01*
X11421786Y-12988500D01*
X11450357Y-12974214D01*
X11907500Y-13274214D02*
X11907500Y-12974214D01*
X12036071Y-13274214D02*
X12036071Y-13117071D01*
X12021786Y-13088500D01*
X11993214Y-13074214D01*
X11950357Y-13074214D01*
X11921786Y-13088500D01*
X11907500Y-13102786D01*
X12221786Y-13274214D02*
X12193214Y-13259929D01*
X12178928Y-13245643D01*
X12164643Y-13217071D01*
X12164643Y-13131357D01*
X12178928Y-13102786D01*
X12193214Y-13088500D01*
X12221786Y-13074214D01*
X12264643Y-13074214D01*
X12293214Y-13088500D01*
X12307500Y-13102786D01*
X12321786Y-13131357D01*
X12321786Y-13217071D01*
X12307500Y-13245643D01*
X12293214Y-13259929D01*
X12264643Y-13274214D01*
X12221786Y-13274214D01*
X12493214Y-13274214D02*
X12464643Y-13259929D01*
X12450357Y-13231357D01*
X12450357Y-12974214D01*
X12721786Y-13259929D02*
X12693214Y-13274214D01*
X12636071Y-13274214D01*
X12607500Y-13259929D01*
X12593214Y-13231357D01*
X12593214Y-13117071D01*
X12607500Y-13088500D01*
X12636071Y-13074214D01*
X12693214Y-13074214D01*
X12721786Y-13088500D01*
X12736071Y-13117071D01*
X12736071Y-13145643D01*
X12593214Y-13174214D01*
X12850357Y-13259929D02*
X12878928Y-13274214D01*
X12936071Y-13274214D01*
X12964643Y-13259929D01*
X12978928Y-13231357D01*
X12978928Y-13217071D01*
X12964643Y-13188500D01*
X12936071Y-13174214D01*
X12893214Y-13174214D01*
X12864643Y-13159929D01*
X12850357Y-13131357D01*
X12850357Y-13117071D01*
X12864643Y-13088500D01*
X12893214Y-13074214D01*
X12936071Y-13074214D01*
X12964643Y-13088500D01*
X13336071Y-13159929D02*
X13564643Y-13159929D01*
X13450357Y-13274214D02*
X13450357Y-13045643D01*
X13921786Y-13002786D02*
X13936071Y-12988500D01*
X13964643Y-12974214D01*
X14036071Y-12974214D01*
X14064643Y-12988500D01*
X14078928Y-13002786D01*
X14093214Y-13031357D01*
X14093214Y-13059929D01*
X14078928Y-13102786D01*
X13907500Y-13274214D01*
X14093214Y-13274214D01*
X14436071Y-13259929D02*
X14464643Y-13274214D01*
X14521786Y-13274214D01*
X14550357Y-13259929D01*
X14564643Y-13231357D01*
X14564643Y-13217071D01*
X14550357Y-13188500D01*
X14521786Y-13174214D01*
X14478928Y-13174214D01*
X14450357Y-13159929D01*
X14436071Y-13131357D01*
X14436071Y-13117071D01*
X14450357Y-13088500D01*
X14478928Y-13074214D01*
X14521786Y-13074214D01*
X14550357Y-13088500D01*
X14736071Y-13274214D02*
X14707500Y-13259929D01*
X14693214Y-13231357D01*
X14693214Y-12974214D01*
X14893214Y-13274214D02*
X14864643Y-13259929D01*
X14850357Y-13245643D01*
X14836071Y-13217071D01*
X14836071Y-13131357D01*
X14850357Y-13102786D01*
X14864643Y-13088500D01*
X14893214Y-13074214D01*
X14936071Y-13074214D01*
X14964643Y-13088500D01*
X14978928Y-13102786D01*
X14993214Y-13131357D01*
X14993214Y-13217071D01*
X14978928Y-13245643D01*
X14964643Y-13259929D01*
X14936071Y-13274214D01*
X14893214Y-13274214D01*
X15078928Y-13074214D02*
X15193214Y-13074214D01*
X15121786Y-12974214D02*
X15121786Y-13231357D01*
X15136071Y-13259929D01*
X15164643Y-13274214D01*
X15193214Y-13274214D01*
X15278928Y-13259929D02*
X15307500Y-13274214D01*
X15364643Y-13274214D01*
X15393214Y-13259929D01*
X15407500Y-13231357D01*
X15407500Y-13217071D01*
X15393214Y-13188500D01*
X15364643Y-13174214D01*
X15321786Y-13174214D01*
X15293214Y-13159929D01*
X15278928Y-13131357D01*
X15278928Y-13117071D01*
X15293214Y-13088500D01*
X15321786Y-13074214D01*
X15364643Y-13074214D01*
X15393214Y-13088500D01*
X15507500Y-13388500D02*
X15521786Y-13374214D01*
X15550357Y-13331357D01*
X15564643Y-13302786D01*
X15578928Y-13259929D01*
X15593214Y-13188500D01*
X15593214Y-13131357D01*
X15578928Y-13059929D01*
X15564643Y-13017071D01*
X15550357Y-12988500D01*
X15521786Y-12945643D01*
X15507500Y-12931357D01*
X6557500Y-13499500D02*
X6557500Y-13569500D01*
X6522500Y-13534500D02*
X6592500Y-13534500D01*
X6936071Y-13370214D02*
X6964643Y-13370214D01*
X6993214Y-13384500D01*
X7007500Y-13398786D01*
X7021786Y-13427357D01*
X7036071Y-13484500D01*
X7036071Y-13555929D01*
X7021786Y-13613071D01*
X7007500Y-13641643D01*
X6993214Y-13655929D01*
X6964643Y-13670214D01*
X6936071Y-13670214D01*
X6907500Y-13655929D01*
X6893214Y-13641643D01*
X6878928Y-13613071D01*
X6864643Y-13555929D01*
X6864643Y-13484500D01*
X6878928Y-13427357D01*
X6893214Y-13398786D01*
X6907500Y-13384500D01*
X6936071Y-13370214D01*
X7164643Y-13641643D02*
X7178928Y-13655929D01*
X7164643Y-13670214D01*
X7150357Y-13655929D01*
X7164643Y-13641643D01*
X7164643Y-13670214D01*
X7278928Y-13370214D02*
X7478928Y-13370214D01*
X7350357Y-13670214D01*
X7650357Y-13370214D02*
X7678928Y-13370214D01*
X7707500Y-13384500D01*
X7721786Y-13398786D01*
X7736071Y-13427357D01*
X7750357Y-13484500D01*
X7750357Y-13555929D01*
X7736071Y-13613071D01*
X7721786Y-13641643D01*
X7707500Y-13655929D01*
X7678928Y-13670214D01*
X7650357Y-13670214D01*
X7621786Y-13655929D01*
X7607500Y-13641643D01*
X7593214Y-13613071D01*
X7578928Y-13555929D01*
X7578928Y-13484500D01*
X7593214Y-13427357D01*
X7607500Y-13398786D01*
X7621786Y-13384500D01*
X7650357Y-13370214D01*
X7878928Y-13670214D02*
X7878928Y-13470214D01*
X7878928Y-13498786D02*
X7893214Y-13484500D01*
X7921786Y-13470214D01*
X7964643Y-13470214D01*
X7993214Y-13484500D01*
X8007500Y-13513071D01*
X8007500Y-13670214D01*
X8007500Y-13513071D02*
X8021786Y-13484500D01*
X8050357Y-13470214D01*
X8093214Y-13470214D01*
X8121786Y-13484500D01*
X8136071Y-13513071D01*
X8136071Y-13670214D01*
X8278928Y-13670214D02*
X8278928Y-13470214D01*
X8278928Y-13498786D02*
X8293214Y-13484500D01*
X8321786Y-13470214D01*
X8364643Y-13470214D01*
X8393214Y-13484500D01*
X8407500Y-13513071D01*
X8407500Y-13670214D01*
X8407500Y-13513071D02*
X8421786Y-13484500D01*
X8450357Y-13470214D01*
X8493214Y-13470214D01*
X8521786Y-13484500D01*
X8536071Y-13513071D01*
X8536071Y-13670214D01*
X9121786Y-13355929D02*
X8864643Y-13741643D01*
X9507500Y-13370214D02*
X9536071Y-13370214D01*
X9564643Y-13384500D01*
X9578928Y-13398786D01*
X9593214Y-13427357D01*
X9607500Y-13484500D01*
X9607500Y-13555929D01*
X9593214Y-13613071D01*
X9578928Y-13641643D01*
X9564643Y-13655929D01*
X9536071Y-13670214D01*
X9507500Y-13670214D01*
X9478928Y-13655929D01*
X9464643Y-13641643D01*
X9450357Y-13613071D01*
X9436071Y-13555929D01*
X9436071Y-13484500D01*
X9450357Y-13427357D01*
X9464643Y-13398786D01*
X9478928Y-13384500D01*
X9507500Y-13370214D01*
X9736071Y-13641643D02*
X9750357Y-13655929D01*
X9736071Y-13670214D01*
X9721786Y-13655929D01*
X9736071Y-13641643D01*
X9736071Y-13670214D01*
X9936071Y-13370214D02*
X9964643Y-13370214D01*
X9993214Y-13384500D01*
X10007500Y-13398786D01*
X10021786Y-13427357D01*
X10036071Y-13484500D01*
X10036071Y-13555929D01*
X10021786Y-13613071D01*
X10007500Y-13641643D01*
X9993214Y-13655929D01*
X9964643Y-13670214D01*
X9936071Y-13670214D01*
X9907500Y-13655929D01*
X9893214Y-13641643D01*
X9878928Y-13613071D01*
X9864643Y-13555929D01*
X9864643Y-13484500D01*
X9878928Y-13427357D01*
X9893214Y-13398786D01*
X9907500Y-13384500D01*
X9936071Y-13370214D01*
X10150357Y-13398786D02*
X10164643Y-13384500D01*
X10193214Y-13370214D01*
X10264643Y-13370214D01*
X10293214Y-13384500D01*
X10307500Y-13398786D01*
X10321786Y-13427357D01*
X10321786Y-13455929D01*
X10307500Y-13498786D01*
X10136071Y-13670214D01*
X10321786Y-13670214D01*
X10493214Y-13498786D02*
X10464643Y-13484500D01*
X10450357Y-13470214D01*
X10436071Y-13441643D01*
X10436071Y-13427357D01*
X10450357Y-13398786D01*
X10464643Y-13384500D01*
X10493214Y-13370214D01*
X10550357Y-13370214D01*
X10578928Y-13384500D01*
X10593214Y-13398786D01*
X10607500Y-13427357D01*
X10607500Y-13441643D01*
X10593214Y-13470214D01*
X10578928Y-13484500D01*
X10550357Y-13498786D01*
X10493214Y-13498786D01*
X10464643Y-13513071D01*
X10450357Y-13527357D01*
X10436071Y-13555929D01*
X10436071Y-13613071D01*
X10450357Y-13641643D01*
X10464643Y-13655929D01*
X10493214Y-13670214D01*
X10550357Y-13670214D01*
X10578928Y-13655929D01*
X10593214Y-13641643D01*
X10607500Y-13613071D01*
X10607500Y-13555929D01*
X10593214Y-13527357D01*
X10578928Y-13513071D01*
X10550357Y-13498786D01*
X10721786Y-13370214D02*
X10721786Y-13427357D01*
X10836071Y-13370214D02*
X10836071Y-13427357D01*
X11278928Y-13784500D02*
X11264643Y-13770214D01*
X11236071Y-13727357D01*
X11221786Y-13698786D01*
X11207500Y-13655929D01*
X11193214Y-13584500D01*
X11193214Y-13527357D01*
X11207500Y-13455929D01*
X11221786Y-13413071D01*
X11236071Y-13384500D01*
X11264643Y-13341643D01*
X11278928Y-13327357D01*
X11450357Y-13370214D02*
X11478928Y-13370214D01*
X11507500Y-13384500D01*
X11521786Y-13398786D01*
X11536071Y-13427357D01*
X11550357Y-13484500D01*
X11550357Y-13555929D01*
X11536071Y-13613071D01*
X11521786Y-13641643D01*
X11507500Y-13655929D01*
X11478928Y-13670214D01*
X11450357Y-13670214D01*
X11421786Y-13655929D01*
X11407500Y-13641643D01*
X11393214Y-13613071D01*
X11378928Y-13555929D01*
X11378928Y-13484500D01*
X11393214Y-13427357D01*
X11407500Y-13398786D01*
X11421786Y-13384500D01*
X11450357Y-13370214D01*
X11907500Y-13670214D02*
X11907500Y-13370214D01*
X12036071Y-13670214D02*
X12036071Y-13513071D01*
X12021786Y-13484500D01*
X11993214Y-13470214D01*
X11950357Y-13470214D01*
X11921786Y-13484500D01*
X11907500Y-13498786D01*
X12221786Y-13670214D02*
X12193214Y-13655929D01*
X12178928Y-13641643D01*
X12164643Y-13613071D01*
X12164643Y-13527357D01*
X12178928Y-13498786D01*
X12193214Y-13484500D01*
X12221786Y-13470214D01*
X12264643Y-13470214D01*
X12293214Y-13484500D01*
X12307500Y-13498786D01*
X12321786Y-13527357D01*
X12321786Y-13613071D01*
X12307500Y-13641643D01*
X12293214Y-13655929D01*
X12264643Y-13670214D01*
X12221786Y-13670214D01*
X12493214Y-13670214D02*
X12464643Y-13655929D01*
X12450357Y-13627357D01*
X12450357Y-13370214D01*
X12721786Y-13655929D02*
X12693214Y-13670214D01*
X12636071Y-13670214D01*
X12607500Y-13655929D01*
X12593214Y-13627357D01*
X12593214Y-13513071D01*
X12607500Y-13484500D01*
X12636071Y-13470214D01*
X12693214Y-13470214D01*
X12721786Y-13484500D01*
X12736071Y-13513071D01*
X12736071Y-13541643D01*
X12593214Y-13570214D01*
X12850357Y-13655929D02*
X12878928Y-13670214D01*
X12936071Y-13670214D01*
X12964643Y-13655929D01*
X12978928Y-13627357D01*
X12978928Y-13613071D01*
X12964643Y-13584500D01*
X12936071Y-13570214D01*
X12893214Y-13570214D01*
X12864643Y-13555929D01*
X12850357Y-13527357D01*
X12850357Y-13513071D01*
X12864643Y-13484500D01*
X12893214Y-13470214D01*
X12936071Y-13470214D01*
X12964643Y-13484500D01*
X13336071Y-13555929D02*
X13564643Y-13555929D01*
X13450357Y-13670214D02*
X13450357Y-13441643D01*
X13921786Y-13398786D02*
X13936071Y-13384500D01*
X13964643Y-13370214D01*
X14036071Y-13370214D01*
X14064643Y-13384500D01*
X14078928Y-13398786D01*
X14093214Y-13427357D01*
X14093214Y-13455929D01*
X14078928Y-13498786D01*
X13907500Y-13670214D01*
X14093214Y-13670214D01*
X14436071Y-13655929D02*
X14464643Y-13670214D01*
X14521786Y-13670214D01*
X14550357Y-13655929D01*
X14564643Y-13627357D01*
X14564643Y-13613071D01*
X14550357Y-13584500D01*
X14521786Y-13570214D01*
X14478928Y-13570214D01*
X14450357Y-13555929D01*
X14436071Y-13527357D01*
X14436071Y-13513071D01*
X14450357Y-13484500D01*
X14478928Y-13470214D01*
X14521786Y-13470214D01*
X14550357Y-13484500D01*
X14736071Y-13670214D02*
X14707500Y-13655929D01*
X14693214Y-13627357D01*
X14693214Y-13370214D01*
X14893214Y-13670214D02*
X14864643Y-13655929D01*
X14850357Y-13641643D01*
X14836071Y-13613071D01*
X14836071Y-13527357D01*
X14850357Y-13498786D01*
X14864643Y-13484500D01*
X14893214Y-13470214D01*
X14936071Y-13470214D01*
X14964643Y-13484500D01*
X14978928Y-13498786D01*
X14993214Y-13527357D01*
X14993214Y-13613071D01*
X14978928Y-13641643D01*
X14964643Y-13655929D01*
X14936071Y-13670214D01*
X14893214Y-13670214D01*
X15078928Y-13470214D02*
X15193214Y-13470214D01*
X15121786Y-13370214D02*
X15121786Y-13627357D01*
X15136071Y-13655929D01*
X15164643Y-13670214D01*
X15193214Y-13670214D01*
X15278928Y-13655929D02*
X15307500Y-13670214D01*
X15364643Y-13670214D01*
X15393214Y-13655929D01*
X15407500Y-13627357D01*
X15407500Y-13613071D01*
X15393214Y-13584500D01*
X15364643Y-13570214D01*
X15321786Y-13570214D01*
X15293214Y-13555929D01*
X15278928Y-13527357D01*
X15278928Y-13513071D01*
X15293214Y-13484500D01*
X15321786Y-13470214D01*
X15364643Y-13470214D01*
X15393214Y-13484500D01*
X15507500Y-13784500D02*
X15521786Y-13770214D01*
X15550357Y-13727357D01*
X15564643Y-13698786D01*
X15578928Y-13655929D01*
X15593214Y-13584500D01*
X15593214Y-13527357D01*
X15578928Y-13455929D01*
X15564643Y-13413071D01*
X15550357Y-13384500D01*
X15521786Y-13341643D01*
X15507500Y-13327357D01*
X6581341Y-13957441D02*
X6581341Y-13903559D01*
X6527459Y-13903559D01*
X6527459Y-13957441D01*
X6581341Y-13957441D01*
X6936071Y-13766214D02*
X6964643Y-13766214D01*
X6993214Y-13780500D01*
X7007500Y-13794786D01*
X7021786Y-13823357D01*
X7036071Y-13880500D01*
X7036071Y-13951929D01*
X7021786Y-14009071D01*
X7007500Y-14037643D01*
X6993214Y-14051929D01*
X6964643Y-14066214D01*
X6936071Y-14066214D01*
X6907500Y-14051929D01*
X6893214Y-14037643D01*
X6878928Y-14009071D01*
X6864643Y-13951929D01*
X6864643Y-13880500D01*
X6878928Y-13823357D01*
X6893214Y-13794786D01*
X6907500Y-13780500D01*
X6936071Y-13766214D01*
X7164643Y-14037643D02*
X7178928Y-14051929D01*
X7164643Y-14066214D01*
X7150357Y-14051929D01*
X7164643Y-14037643D01*
X7164643Y-14066214D01*
X7278928Y-13766214D02*
X7478928Y-13766214D01*
X7350357Y-14066214D01*
X7721786Y-13766214D02*
X7664643Y-13766214D01*
X7636071Y-13780500D01*
X7621786Y-13794786D01*
X7593214Y-13837643D01*
X7578928Y-13894786D01*
X7578928Y-14009071D01*
X7593214Y-14037643D01*
X7607500Y-14051929D01*
X7636071Y-14066214D01*
X7693214Y-14066214D01*
X7721786Y-14051929D01*
X7736071Y-14037643D01*
X7750357Y-14009071D01*
X7750357Y-13937643D01*
X7736071Y-13909071D01*
X7721786Y-13894786D01*
X7693214Y-13880500D01*
X7636071Y-13880500D01*
X7607500Y-13894786D01*
X7593214Y-13909071D01*
X7578928Y-13937643D01*
X7878928Y-14066214D02*
X7878928Y-13866214D01*
X7878928Y-13894786D02*
X7893214Y-13880500D01*
X7921786Y-13866214D01*
X7964643Y-13866214D01*
X7993214Y-13880500D01*
X8007500Y-13909071D01*
X8007500Y-14066214D01*
X8007500Y-13909071D02*
X8021786Y-13880500D01*
X8050357Y-13866214D01*
X8093214Y-13866214D01*
X8121786Y-13880500D01*
X8136071Y-13909071D01*
X8136071Y-14066214D01*
X8278928Y-14066214D02*
X8278928Y-13866214D01*
X8278928Y-13894786D02*
X8293214Y-13880500D01*
X8321786Y-13866214D01*
X8364643Y-13866214D01*
X8393214Y-13880500D01*
X8407500Y-13909071D01*
X8407500Y-14066214D01*
X8407500Y-13909071D02*
X8421786Y-13880500D01*
X8450357Y-13866214D01*
X8493214Y-13866214D01*
X8521786Y-13880500D01*
X8536071Y-13909071D01*
X8536071Y-14066214D01*
X9121786Y-13751929D02*
X8864643Y-14137643D01*
X9507500Y-13766214D02*
X9536071Y-13766214D01*
X9564643Y-13780500D01*
X9578928Y-13794786D01*
X9593214Y-13823357D01*
X9607500Y-13880500D01*
X9607500Y-13951929D01*
X9593214Y-14009071D01*
X9578928Y-14037643D01*
X9564643Y-14051929D01*
X9536071Y-14066214D01*
X9507500Y-14066214D01*
X9478928Y-14051929D01*
X9464643Y-14037643D01*
X9450357Y-14009071D01*
X9436071Y-13951929D01*
X9436071Y-13880500D01*
X9450357Y-13823357D01*
X9464643Y-13794786D01*
X9478928Y-13780500D01*
X9507500Y-13766214D01*
X9736071Y-14037643D02*
X9750357Y-14051929D01*
X9736071Y-14066214D01*
X9721786Y-14051929D01*
X9736071Y-14037643D01*
X9736071Y-14066214D01*
X9936071Y-13766214D02*
X9964643Y-13766214D01*
X9993214Y-13780500D01*
X10007500Y-13794786D01*
X10021786Y-13823357D01*
X10036071Y-13880500D01*
X10036071Y-13951929D01*
X10021786Y-14009071D01*
X10007500Y-14037643D01*
X9993214Y-14051929D01*
X9964643Y-14066214D01*
X9936071Y-14066214D01*
X9907500Y-14051929D01*
X9893214Y-14037643D01*
X9878928Y-14009071D01*
X9864643Y-13951929D01*
X9864643Y-13880500D01*
X9878928Y-13823357D01*
X9893214Y-13794786D01*
X9907500Y-13780500D01*
X9936071Y-13766214D01*
X10136071Y-13766214D02*
X10321786Y-13766214D01*
X10221786Y-13880500D01*
X10264643Y-13880500D01*
X10293214Y-13894786D01*
X10307500Y-13909071D01*
X10321786Y-13937643D01*
X10321786Y-14009071D01*
X10307500Y-14037643D01*
X10293214Y-14051929D01*
X10264643Y-14066214D01*
X10178928Y-14066214D01*
X10150357Y-14051929D01*
X10136071Y-14037643D01*
X10507500Y-13766214D02*
X10536071Y-13766214D01*
X10564643Y-13780500D01*
X10578928Y-13794786D01*
X10593214Y-13823357D01*
X10607500Y-13880500D01*
X10607500Y-13951929D01*
X10593214Y-14009071D01*
X10578928Y-14037643D01*
X10564643Y-14051929D01*
X10536071Y-14066214D01*
X10507500Y-14066214D01*
X10478928Y-14051929D01*
X10464643Y-14037643D01*
X10450357Y-14009071D01*
X10436071Y-13951929D01*
X10436071Y-13880500D01*
X10450357Y-13823357D01*
X10464643Y-13794786D01*
X10478928Y-13780500D01*
X10507500Y-13766214D01*
X10721786Y-13766214D02*
X10721786Y-13823357D01*
X10836071Y-13766214D02*
X10836071Y-13823357D01*
X11278928Y-14180500D02*
X11264643Y-14166214D01*
X11236071Y-14123357D01*
X11221786Y-14094786D01*
X11207500Y-14051929D01*
X11193214Y-13980500D01*
X11193214Y-13923357D01*
X11207500Y-13851929D01*
X11221786Y-13809071D01*
X11236071Y-13780500D01*
X11264643Y-13737643D01*
X11278928Y-13723357D01*
X11550357Y-14066214D02*
X11378928Y-14066214D01*
X11464643Y-14066214D02*
X11464643Y-13766214D01*
X11436071Y-13809071D01*
X11407500Y-13837643D01*
X11378928Y-13851929D01*
X11736071Y-13766214D02*
X11764643Y-13766214D01*
X11793214Y-13780500D01*
X11807500Y-13794786D01*
X11821786Y-13823357D01*
X11836071Y-13880500D01*
X11836071Y-13951929D01*
X11821786Y-14009071D01*
X11807500Y-14037643D01*
X11793214Y-14051929D01*
X11764643Y-14066214D01*
X11736071Y-14066214D01*
X11707500Y-14051929D01*
X11693214Y-14037643D01*
X11678928Y-14009071D01*
X11664643Y-13951929D01*
X11664643Y-13880500D01*
X11678928Y-13823357D01*
X11693214Y-13794786D01*
X11707500Y-13780500D01*
X11736071Y-13766214D01*
X12193214Y-14066214D02*
X12193214Y-13766214D01*
X12321786Y-14066214D02*
X12321786Y-13909071D01*
X12307500Y-13880500D01*
X12278928Y-13866214D01*
X12236071Y-13866214D01*
X12207500Y-13880500D01*
X12193214Y-13894786D01*
X12507500Y-14066214D02*
X12478928Y-14051929D01*
X12464643Y-14037643D01*
X12450357Y-14009071D01*
X12450357Y-13923357D01*
X12464643Y-13894786D01*
X12478928Y-13880500D01*
X12507500Y-13866214D01*
X12550357Y-13866214D01*
X12578928Y-13880500D01*
X12593214Y-13894786D01*
X12607500Y-13923357D01*
X12607500Y-14009071D01*
X12593214Y-14037643D01*
X12578928Y-14051929D01*
X12550357Y-14066214D01*
X12507500Y-14066214D01*
X12778928Y-14066214D02*
X12750357Y-14051929D01*
X12736071Y-14023357D01*
X12736071Y-13766214D01*
X13007500Y-14051929D02*
X12978928Y-14066214D01*
X12921786Y-14066214D01*
X12893214Y-14051929D01*
X12878928Y-14023357D01*
X12878928Y-13909071D01*
X12893214Y-13880500D01*
X12921786Y-13866214D01*
X12978928Y-13866214D01*
X13007500Y-13880500D01*
X13021786Y-13909071D01*
X13021786Y-13937643D01*
X12878928Y-13966214D01*
X13136071Y-14051929D02*
X13164643Y-14066214D01*
X13221786Y-14066214D01*
X13250357Y-14051929D01*
X13264643Y-14023357D01*
X13264643Y-14009071D01*
X13250357Y-13980500D01*
X13221786Y-13966214D01*
X13178928Y-13966214D01*
X13150357Y-13951929D01*
X13136071Y-13923357D01*
X13136071Y-13909071D01*
X13150357Y-13880500D01*
X13178928Y-13866214D01*
X13221786Y-13866214D01*
X13250357Y-13880500D01*
X13364643Y-14180500D02*
X13378928Y-14166214D01*
X13407500Y-14123357D01*
X13421786Y-14094786D01*
X13436071Y-14051929D01*
X13450357Y-13980500D01*
X13450357Y-13923357D01*
X13436071Y-13851929D01*
X13421786Y-13809071D01*
X13407500Y-13780500D01*
X13378928Y-13737643D01*
X13364643Y-13723357D01*
X6552500Y-14366500D02*
X6592500Y-14326500D01*
X6552500Y-14286500D01*
X6512500Y-14326500D01*
X6552500Y-14366500D01*
X6936071Y-14162214D02*
X6964643Y-14162214D01*
X6993214Y-14176500D01*
X7007500Y-14190786D01*
X7021786Y-14219357D01*
X7036071Y-14276500D01*
X7036071Y-14347929D01*
X7021786Y-14405071D01*
X7007500Y-14433643D01*
X6993214Y-14447929D01*
X6964643Y-14462214D01*
X6936071Y-14462214D01*
X6907500Y-14447929D01*
X6893214Y-14433643D01*
X6878928Y-14405071D01*
X6864643Y-14347929D01*
X6864643Y-14276500D01*
X6878928Y-14219357D01*
X6893214Y-14190786D01*
X6907500Y-14176500D01*
X6936071Y-14162214D01*
X7164643Y-14433643D02*
X7178928Y-14447929D01*
X7164643Y-14462214D01*
X7150357Y-14447929D01*
X7164643Y-14433643D01*
X7164643Y-14462214D01*
X7350357Y-14290786D02*
X7321786Y-14276500D01*
X7307500Y-14262214D01*
X7293214Y-14233643D01*
X7293214Y-14219357D01*
X7307500Y-14190786D01*
X7321786Y-14176500D01*
X7350357Y-14162214D01*
X7407500Y-14162214D01*
X7436071Y-14176500D01*
X7450357Y-14190786D01*
X7464643Y-14219357D01*
X7464643Y-14233643D01*
X7450357Y-14262214D01*
X7436071Y-14276500D01*
X7407500Y-14290786D01*
X7350357Y-14290786D01*
X7321786Y-14305071D01*
X7307500Y-14319357D01*
X7293214Y-14347929D01*
X7293214Y-14405071D01*
X7307500Y-14433643D01*
X7321786Y-14447929D01*
X7350357Y-14462214D01*
X7407500Y-14462214D01*
X7436071Y-14447929D01*
X7450357Y-14433643D01*
X7464643Y-14405071D01*
X7464643Y-14347929D01*
X7450357Y-14319357D01*
X7436071Y-14305071D01*
X7407500Y-14290786D01*
X7650357Y-14162214D02*
X7678928Y-14162214D01*
X7707500Y-14176500D01*
X7721786Y-14190786D01*
X7736071Y-14219357D01*
X7750357Y-14276500D01*
X7750357Y-14347929D01*
X7736071Y-14405071D01*
X7721786Y-14433643D01*
X7707500Y-14447929D01*
X7678928Y-14462214D01*
X7650357Y-14462214D01*
X7621786Y-14447929D01*
X7607500Y-14433643D01*
X7593214Y-14405071D01*
X7578928Y-14347929D01*
X7578928Y-14276500D01*
X7593214Y-14219357D01*
X7607500Y-14190786D01*
X7621786Y-14176500D01*
X7650357Y-14162214D01*
X7878928Y-14462214D02*
X7878928Y-14262214D01*
X7878928Y-14290786D02*
X7893214Y-14276500D01*
X7921786Y-14262214D01*
X7964643Y-14262214D01*
X7993214Y-14276500D01*
X8007500Y-14305071D01*
X8007500Y-14462214D01*
X8007500Y-14305071D02*
X8021786Y-14276500D01*
X8050357Y-14262214D01*
X8093214Y-14262214D01*
X8121786Y-14276500D01*
X8136071Y-14305071D01*
X8136071Y-14462214D01*
X8278928Y-14462214D02*
X8278928Y-14262214D01*
X8278928Y-14290786D02*
X8293214Y-14276500D01*
X8321786Y-14262214D01*
X8364643Y-14262214D01*
X8393214Y-14276500D01*
X8407500Y-14305071D01*
X8407500Y-14462214D01*
X8407500Y-14305071D02*
X8421786Y-14276500D01*
X8450357Y-14262214D01*
X8493214Y-14262214D01*
X8521786Y-14276500D01*
X8536071Y-14305071D01*
X8536071Y-14462214D01*
X9121786Y-14147929D02*
X8864643Y-14533643D01*
X9507500Y-14162214D02*
X9536071Y-14162214D01*
X9564643Y-14176500D01*
X9578928Y-14190786D01*
X9593214Y-14219357D01*
X9607500Y-14276500D01*
X9607500Y-14347929D01*
X9593214Y-14405071D01*
X9578928Y-14433643D01*
X9564643Y-14447929D01*
X9536071Y-14462214D01*
X9507500Y-14462214D01*
X9478928Y-14447929D01*
X9464643Y-14433643D01*
X9450357Y-14405071D01*
X9436071Y-14347929D01*
X9436071Y-14276500D01*
X9450357Y-14219357D01*
X9464643Y-14190786D01*
X9478928Y-14176500D01*
X9507500Y-14162214D01*
X9736071Y-14433643D02*
X9750357Y-14447929D01*
X9736071Y-14462214D01*
X9721786Y-14447929D01*
X9736071Y-14433643D01*
X9736071Y-14462214D01*
X9936071Y-14162214D02*
X9964643Y-14162214D01*
X9993214Y-14176500D01*
X10007500Y-14190786D01*
X10021786Y-14219357D01*
X10036071Y-14276500D01*
X10036071Y-14347929D01*
X10021786Y-14405071D01*
X10007500Y-14433643D01*
X9993214Y-14447929D01*
X9964643Y-14462214D01*
X9936071Y-14462214D01*
X9907500Y-14447929D01*
X9893214Y-14433643D01*
X9878928Y-14405071D01*
X9864643Y-14347929D01*
X9864643Y-14276500D01*
X9878928Y-14219357D01*
X9893214Y-14190786D01*
X9907500Y-14176500D01*
X9936071Y-14162214D01*
X10136071Y-14162214D02*
X10321786Y-14162214D01*
X10221786Y-14276500D01*
X10264643Y-14276500D01*
X10293214Y-14290786D01*
X10307500Y-14305071D01*
X10321786Y-14333643D01*
X10321786Y-14405071D01*
X10307500Y-14433643D01*
X10293214Y-14447929D01*
X10264643Y-14462214D01*
X10178928Y-14462214D01*
X10150357Y-14447929D01*
X10136071Y-14433643D01*
X10607500Y-14462214D02*
X10436071Y-14462214D01*
X10521786Y-14462214D02*
X10521786Y-14162214D01*
X10493214Y-14205071D01*
X10464643Y-14233643D01*
X10436071Y-14247929D01*
X10721786Y-14162214D02*
X10721786Y-14219357D01*
X10836071Y-14162214D02*
X10836071Y-14219357D01*
X11278928Y-14576500D02*
X11264643Y-14562214D01*
X11236071Y-14519357D01*
X11221786Y-14490786D01*
X11207500Y-14447929D01*
X11193214Y-14376500D01*
X11193214Y-14319357D01*
X11207500Y-14247929D01*
X11221786Y-14205071D01*
X11236071Y-14176500D01*
X11264643Y-14133643D01*
X11278928Y-14119357D01*
X11378928Y-14190786D02*
X11393214Y-14176500D01*
X11421786Y-14162214D01*
X11493214Y-14162214D01*
X11521786Y-14176500D01*
X11536071Y-14190786D01*
X11550357Y-14219357D01*
X11550357Y-14247929D01*
X11536071Y-14290786D01*
X11364643Y-14462214D01*
X11550357Y-14462214D01*
X11907500Y-14462214D02*
X11907500Y-14162214D01*
X12036071Y-14462214D02*
X12036071Y-14305071D01*
X12021786Y-14276500D01*
X11993214Y-14262214D01*
X11950357Y-14262214D01*
X11921786Y-14276500D01*
X11907500Y-14290786D01*
X12221786Y-14462214D02*
X12193214Y-14447929D01*
X12178928Y-14433643D01*
X12164643Y-14405071D01*
X12164643Y-14319357D01*
X12178928Y-14290786D01*
X12193214Y-14276500D01*
X12221786Y-14262214D01*
X12264643Y-14262214D01*
X12293214Y-14276500D01*
X12307500Y-14290786D01*
X12321786Y-14319357D01*
X12321786Y-14405071D01*
X12307500Y-14433643D01*
X12293214Y-14447929D01*
X12264643Y-14462214D01*
X12221786Y-14462214D01*
X12493214Y-14462214D02*
X12464643Y-14447929D01*
X12450357Y-14419357D01*
X12450357Y-14162214D01*
X12721786Y-14447929D02*
X12693214Y-14462214D01*
X12636071Y-14462214D01*
X12607500Y-14447929D01*
X12593214Y-14419357D01*
X12593214Y-14305071D01*
X12607500Y-14276500D01*
X12636071Y-14262214D01*
X12693214Y-14262214D01*
X12721786Y-14276500D01*
X12736071Y-14305071D01*
X12736071Y-14333643D01*
X12593214Y-14362214D01*
X12850357Y-14447929D02*
X12878928Y-14462214D01*
X12936071Y-14462214D01*
X12964643Y-14447929D01*
X12978928Y-14419357D01*
X12978928Y-14405071D01*
X12964643Y-14376500D01*
X12936071Y-14362214D01*
X12893214Y-14362214D01*
X12864643Y-14347929D01*
X12850357Y-14319357D01*
X12850357Y-14305071D01*
X12864643Y-14276500D01*
X12893214Y-14262214D01*
X12936071Y-14262214D01*
X12964643Y-14276500D01*
X13078928Y-14576500D02*
X13093214Y-14562214D01*
X13121786Y-14519357D01*
X13136071Y-14490786D01*
X13150357Y-14447929D01*
X13164643Y-14376500D01*
X13164643Y-14319357D01*
X13150357Y-14247929D01*
X13136071Y-14205071D01*
X13121786Y-14176500D01*
X13093214Y-14133643D01*
X13078928Y-14119357D01*
X6497500Y-14675000D02*
X6592500Y-14770000D01*
X6592500Y-14675000D02*
X6497500Y-14770000D01*
X6592500Y-14722500D02*
G75*
G03X6592500Y-14722500I-47500J0D01*
G01*
X6936071Y-14558214D02*
X6964643Y-14558214D01*
X6993214Y-14572500D01*
X7007500Y-14586786D01*
X7021786Y-14615357D01*
X7036071Y-14672500D01*
X7036071Y-14743929D01*
X7021786Y-14801071D01*
X7007500Y-14829643D01*
X6993214Y-14843929D01*
X6964643Y-14858214D01*
X6936071Y-14858214D01*
X6907500Y-14843929D01*
X6893214Y-14829643D01*
X6878928Y-14801071D01*
X6864643Y-14743929D01*
X6864643Y-14672500D01*
X6878928Y-14615357D01*
X6893214Y-14586786D01*
X6907500Y-14572500D01*
X6936071Y-14558214D01*
X7164643Y-14829643D02*
X7178928Y-14843929D01*
X7164643Y-14858214D01*
X7150357Y-14843929D01*
X7164643Y-14829643D01*
X7164643Y-14858214D01*
X7321786Y-14858214D02*
X7378928Y-14858214D01*
X7407500Y-14843929D01*
X7421786Y-14829643D01*
X7450357Y-14786786D01*
X7464643Y-14729643D01*
X7464643Y-14615357D01*
X7450357Y-14586786D01*
X7436071Y-14572500D01*
X7407500Y-14558214D01*
X7350357Y-14558214D01*
X7321786Y-14572500D01*
X7307500Y-14586786D01*
X7293214Y-14615357D01*
X7293214Y-14686786D01*
X7307500Y-14715357D01*
X7321786Y-14729643D01*
X7350357Y-14743929D01*
X7407500Y-14743929D01*
X7436071Y-14729643D01*
X7450357Y-14715357D01*
X7464643Y-14686786D01*
X7736071Y-14558214D02*
X7593214Y-14558214D01*
X7578928Y-14701071D01*
X7593214Y-14686786D01*
X7621786Y-14672500D01*
X7693214Y-14672500D01*
X7721786Y-14686786D01*
X7736071Y-14701071D01*
X7750357Y-14729643D01*
X7750357Y-14801071D01*
X7736071Y-14829643D01*
X7721786Y-14843929D01*
X7693214Y-14858214D01*
X7621786Y-14858214D01*
X7593214Y-14843929D01*
X7578928Y-14829643D01*
X7878928Y-14858214D02*
X7878928Y-14658214D01*
X7878928Y-14686786D02*
X7893214Y-14672500D01*
X7921786Y-14658214D01*
X7964643Y-14658214D01*
X7993214Y-14672500D01*
X8007500Y-14701071D01*
X8007500Y-14858214D01*
X8007500Y-14701071D02*
X8021786Y-14672500D01*
X8050357Y-14658214D01*
X8093214Y-14658214D01*
X8121786Y-14672500D01*
X8136071Y-14701071D01*
X8136071Y-14858214D01*
X8278928Y-14858214D02*
X8278928Y-14658214D01*
X8278928Y-14686786D02*
X8293214Y-14672500D01*
X8321786Y-14658214D01*
X8364643Y-14658214D01*
X8393214Y-14672500D01*
X8407500Y-14701071D01*
X8407500Y-14858214D01*
X8407500Y-14701071D02*
X8421786Y-14672500D01*
X8450357Y-14658214D01*
X8493214Y-14658214D01*
X8521786Y-14672500D01*
X8536071Y-14701071D01*
X8536071Y-14858214D01*
X9121786Y-14543929D02*
X8864643Y-14929643D01*
X9507500Y-14558214D02*
X9536071Y-14558214D01*
X9564643Y-14572500D01*
X9578928Y-14586786D01*
X9593214Y-14615357D01*
X9607500Y-14672500D01*
X9607500Y-14743929D01*
X9593214Y-14801071D01*
X9578928Y-14829643D01*
X9564643Y-14843929D01*
X9536071Y-14858214D01*
X9507500Y-14858214D01*
X9478928Y-14843929D01*
X9464643Y-14829643D01*
X9450357Y-14801071D01*
X9436071Y-14743929D01*
X9436071Y-14672500D01*
X9450357Y-14615357D01*
X9464643Y-14586786D01*
X9478928Y-14572500D01*
X9507500Y-14558214D01*
X9736071Y-14829643D02*
X9750357Y-14843929D01*
X9736071Y-14858214D01*
X9721786Y-14843929D01*
X9736071Y-14829643D01*
X9736071Y-14858214D01*
X9936071Y-14558214D02*
X9964643Y-14558214D01*
X9993214Y-14572500D01*
X10007500Y-14586786D01*
X10021786Y-14615357D01*
X10036071Y-14672500D01*
X10036071Y-14743929D01*
X10021786Y-14801071D01*
X10007500Y-14829643D01*
X9993214Y-14843929D01*
X9964643Y-14858214D01*
X9936071Y-14858214D01*
X9907500Y-14843929D01*
X9893214Y-14829643D01*
X9878928Y-14801071D01*
X9864643Y-14743929D01*
X9864643Y-14672500D01*
X9878928Y-14615357D01*
X9893214Y-14586786D01*
X9907500Y-14572500D01*
X9936071Y-14558214D01*
X10136071Y-14558214D02*
X10321786Y-14558214D01*
X10221786Y-14672500D01*
X10264643Y-14672500D01*
X10293214Y-14686786D01*
X10307500Y-14701071D01*
X10321786Y-14729643D01*
X10321786Y-14801071D01*
X10307500Y-14829643D01*
X10293214Y-14843929D01*
X10264643Y-14858214D01*
X10178928Y-14858214D01*
X10150357Y-14843929D01*
X10136071Y-14829643D01*
X10421786Y-14558214D02*
X10621786Y-14558214D01*
X10493214Y-14858214D01*
X10721786Y-14558214D02*
X10721786Y-14615357D01*
X10836071Y-14558214D02*
X10836071Y-14615357D01*
X11278928Y-14972500D02*
X11264643Y-14958214D01*
X11236071Y-14915357D01*
X11221786Y-14886786D01*
X11207500Y-14843929D01*
X11193214Y-14772500D01*
X11193214Y-14715357D01*
X11207500Y-14643929D01*
X11221786Y-14601071D01*
X11236071Y-14572500D01*
X11264643Y-14529643D01*
X11278928Y-14515357D01*
X11521786Y-14658214D02*
X11521786Y-14858214D01*
X11450357Y-14543929D02*
X11378928Y-14758214D01*
X11564643Y-14758214D01*
X11907500Y-14858214D02*
X11907500Y-14558214D01*
X12036071Y-14858214D02*
X12036071Y-14701071D01*
X12021786Y-14672500D01*
X11993214Y-14658214D01*
X11950357Y-14658214D01*
X11921786Y-14672500D01*
X11907500Y-14686786D01*
X12221786Y-14858214D02*
X12193214Y-14843929D01*
X12178928Y-14829643D01*
X12164643Y-14801071D01*
X12164643Y-14715357D01*
X12178928Y-14686786D01*
X12193214Y-14672500D01*
X12221786Y-14658214D01*
X12264643Y-14658214D01*
X12293214Y-14672500D01*
X12307500Y-14686786D01*
X12321786Y-14715357D01*
X12321786Y-14801071D01*
X12307500Y-14829643D01*
X12293214Y-14843929D01*
X12264643Y-14858214D01*
X12221786Y-14858214D01*
X12493214Y-14858214D02*
X12464643Y-14843929D01*
X12450357Y-14815357D01*
X12450357Y-14558214D01*
X12721786Y-14843929D02*
X12693214Y-14858214D01*
X12636071Y-14858214D01*
X12607500Y-14843929D01*
X12593214Y-14815357D01*
X12593214Y-14701071D01*
X12607500Y-14672500D01*
X12636071Y-14658214D01*
X12693214Y-14658214D01*
X12721786Y-14672500D01*
X12736071Y-14701071D01*
X12736071Y-14729643D01*
X12593214Y-14758214D01*
X12850357Y-14843929D02*
X12878928Y-14858214D01*
X12936071Y-14858214D01*
X12964643Y-14843929D01*
X12978928Y-14815357D01*
X12978928Y-14801071D01*
X12964643Y-14772500D01*
X12936071Y-14758214D01*
X12893214Y-14758214D01*
X12864643Y-14743929D01*
X12850357Y-14715357D01*
X12850357Y-14701071D01*
X12864643Y-14672500D01*
X12893214Y-14658214D01*
X12936071Y-14658214D01*
X12964643Y-14672500D01*
X13078928Y-14972500D02*
X13093214Y-14958214D01*
X13121786Y-14915357D01*
X13136071Y-14886786D01*
X13150357Y-14843929D01*
X13164643Y-14772500D01*
X13164643Y-14715357D01*
X13150357Y-14643929D01*
X13136071Y-14601071D01*
X13121786Y-14572500D01*
X13093214Y-14529643D01*
X13078928Y-14515357D01*
X6492500Y-15068500D02*
X6592500Y-15168500D01*
X6592500Y-15068500D02*
X6492500Y-15168500D01*
X6542500Y-15068500D02*
X6542500Y-15168500D01*
X6492500Y-15118500D02*
X6592500Y-15118500D01*
X7036071Y-15254214D02*
X6864643Y-15254214D01*
X6950357Y-15254214D02*
X6950357Y-14954214D01*
X6921786Y-14997071D01*
X6893214Y-15025643D01*
X6864643Y-15039929D01*
X7164643Y-15225643D02*
X7178928Y-15239929D01*
X7164643Y-15254214D01*
X7150357Y-15239929D01*
X7164643Y-15225643D01*
X7164643Y-15254214D01*
X7364643Y-14954214D02*
X7393214Y-14954214D01*
X7421786Y-14968500D01*
X7436071Y-14982786D01*
X7450357Y-15011357D01*
X7464643Y-15068500D01*
X7464643Y-15139929D01*
X7450357Y-15197071D01*
X7436071Y-15225643D01*
X7421786Y-15239929D01*
X7393214Y-15254214D01*
X7364643Y-15254214D01*
X7336071Y-15239929D01*
X7321786Y-15225643D01*
X7307500Y-15197071D01*
X7293214Y-15139929D01*
X7293214Y-15068500D01*
X7307500Y-15011357D01*
X7321786Y-14982786D01*
X7336071Y-14968500D01*
X7364643Y-14954214D01*
X7650357Y-14954214D02*
X7678928Y-14954214D01*
X7707500Y-14968500D01*
X7721786Y-14982786D01*
X7736071Y-15011357D01*
X7750357Y-15068500D01*
X7750357Y-15139929D01*
X7736071Y-15197071D01*
X7721786Y-15225643D01*
X7707500Y-15239929D01*
X7678928Y-15254214D01*
X7650357Y-15254214D01*
X7621786Y-15239929D01*
X7607500Y-15225643D01*
X7593214Y-15197071D01*
X7578928Y-15139929D01*
X7578928Y-15068500D01*
X7593214Y-15011357D01*
X7607500Y-14982786D01*
X7621786Y-14968500D01*
X7650357Y-14954214D01*
X7878928Y-15254214D02*
X7878928Y-15054214D01*
X7878928Y-15082786D02*
X7893214Y-15068500D01*
X7921786Y-15054214D01*
X7964643Y-15054214D01*
X7993214Y-15068500D01*
X8007500Y-15097071D01*
X8007500Y-15254214D01*
X8007500Y-15097071D02*
X8021786Y-15068500D01*
X8050357Y-15054214D01*
X8093214Y-15054214D01*
X8121786Y-15068500D01*
X8136071Y-15097071D01*
X8136071Y-15254214D01*
X8278928Y-15254214D02*
X8278928Y-15054214D01*
X8278928Y-15082786D02*
X8293214Y-15068500D01*
X8321786Y-15054214D01*
X8364643Y-15054214D01*
X8393214Y-15068500D01*
X8407500Y-15097071D01*
X8407500Y-15254214D01*
X8407500Y-15097071D02*
X8421786Y-15068500D01*
X8450357Y-15054214D01*
X8493214Y-15054214D01*
X8521786Y-15068500D01*
X8536071Y-15097071D01*
X8536071Y-15254214D01*
X9121786Y-14939929D02*
X8864643Y-15325643D01*
X9507500Y-14954214D02*
X9536071Y-14954214D01*
X9564643Y-14968500D01*
X9578928Y-14982786D01*
X9593214Y-15011357D01*
X9607500Y-15068500D01*
X9607500Y-15139929D01*
X9593214Y-15197071D01*
X9578928Y-15225643D01*
X9564643Y-15239929D01*
X9536071Y-15254214D01*
X9507500Y-15254214D01*
X9478928Y-15239929D01*
X9464643Y-15225643D01*
X9450357Y-15197071D01*
X9436071Y-15139929D01*
X9436071Y-15068500D01*
X9450357Y-15011357D01*
X9464643Y-14982786D01*
X9478928Y-14968500D01*
X9507500Y-14954214D01*
X9736071Y-15225643D02*
X9750357Y-15239929D01*
X9736071Y-15254214D01*
X9721786Y-15239929D01*
X9736071Y-15225643D01*
X9736071Y-15254214D01*
X9936071Y-14954214D02*
X9964643Y-14954214D01*
X9993214Y-14968500D01*
X10007500Y-14982786D01*
X10021786Y-15011357D01*
X10036071Y-15068500D01*
X10036071Y-15139929D01*
X10021786Y-15197071D01*
X10007500Y-15225643D01*
X9993214Y-15239929D01*
X9964643Y-15254214D01*
X9936071Y-15254214D01*
X9907500Y-15239929D01*
X9893214Y-15225643D01*
X9878928Y-15197071D01*
X9864643Y-15139929D01*
X9864643Y-15068500D01*
X9878928Y-15011357D01*
X9893214Y-14982786D01*
X9907500Y-14968500D01*
X9936071Y-14954214D01*
X10136071Y-14954214D02*
X10321786Y-14954214D01*
X10221786Y-15068500D01*
X10264643Y-15068500D01*
X10293214Y-15082786D01*
X10307500Y-15097071D01*
X10321786Y-15125643D01*
X10321786Y-15197071D01*
X10307500Y-15225643D01*
X10293214Y-15239929D01*
X10264643Y-15254214D01*
X10178928Y-15254214D01*
X10150357Y-15239929D01*
X10136071Y-15225643D01*
X10464643Y-15254214D02*
X10521786Y-15254214D01*
X10550357Y-15239929D01*
X10564643Y-15225643D01*
X10593214Y-15182786D01*
X10607500Y-15125643D01*
X10607500Y-15011357D01*
X10593214Y-14982786D01*
X10578928Y-14968500D01*
X10550357Y-14954214D01*
X10493214Y-14954214D01*
X10464643Y-14968500D01*
X10450357Y-14982786D01*
X10436071Y-15011357D01*
X10436071Y-15082786D01*
X10450357Y-15111357D01*
X10464643Y-15125643D01*
X10493214Y-15139929D01*
X10550357Y-15139929D01*
X10578928Y-15125643D01*
X10593214Y-15111357D01*
X10607500Y-15082786D01*
X10721786Y-14954214D02*
X10721786Y-15011357D01*
X10836071Y-14954214D02*
X10836071Y-15011357D01*
X11278928Y-15368500D02*
X11264643Y-15354214D01*
X11236071Y-15311357D01*
X11221786Y-15282786D01*
X11207500Y-15239929D01*
X11193214Y-15168500D01*
X11193214Y-15111357D01*
X11207500Y-15039929D01*
X11221786Y-14997071D01*
X11236071Y-14968500D01*
X11264643Y-14925643D01*
X11278928Y-14911357D01*
X11364643Y-14954214D02*
X11550357Y-14954214D01*
X11450357Y-15068500D01*
X11493214Y-15068500D01*
X11521786Y-15082786D01*
X11536071Y-15097071D01*
X11550357Y-15125643D01*
X11550357Y-15197071D01*
X11536071Y-15225643D01*
X11521786Y-15239929D01*
X11493214Y-15254214D01*
X11407500Y-15254214D01*
X11378928Y-15239929D01*
X11364643Y-15225643D01*
X11736071Y-14954214D02*
X11764643Y-14954214D01*
X11793214Y-14968500D01*
X11807500Y-14982786D01*
X11821786Y-15011357D01*
X11836071Y-15068500D01*
X11836071Y-15139929D01*
X11821786Y-15197071D01*
X11807500Y-15225643D01*
X11793214Y-15239929D01*
X11764643Y-15254214D01*
X11736071Y-15254214D01*
X11707500Y-15239929D01*
X11693214Y-15225643D01*
X11678928Y-15197071D01*
X11664643Y-15139929D01*
X11664643Y-15068500D01*
X11678928Y-15011357D01*
X11693214Y-14982786D01*
X11707500Y-14968500D01*
X11736071Y-14954214D01*
X12193214Y-15254214D02*
X12193214Y-14954214D01*
X12321786Y-15254214D02*
X12321786Y-15097071D01*
X12307500Y-15068500D01*
X12278928Y-15054214D01*
X12236071Y-15054214D01*
X12207500Y-15068500D01*
X12193214Y-15082786D01*
X12507500Y-15254214D02*
X12478928Y-15239929D01*
X12464643Y-15225643D01*
X12450357Y-15197071D01*
X12450357Y-15111357D01*
X12464643Y-15082786D01*
X12478928Y-15068500D01*
X12507500Y-15054214D01*
X12550357Y-15054214D01*
X12578928Y-15068500D01*
X12593214Y-15082786D01*
X12607500Y-15111357D01*
X12607500Y-15197071D01*
X12593214Y-15225643D01*
X12578928Y-15239929D01*
X12550357Y-15254214D01*
X12507500Y-15254214D01*
X12778928Y-15254214D02*
X12750357Y-15239929D01*
X12736071Y-15211357D01*
X12736071Y-14954214D01*
X13007500Y-15239929D02*
X12978928Y-15254214D01*
X12921786Y-15254214D01*
X12893214Y-15239929D01*
X12878928Y-15211357D01*
X12878928Y-15097071D01*
X12893214Y-15068500D01*
X12921786Y-15054214D01*
X12978928Y-15054214D01*
X13007500Y-15068500D01*
X13021786Y-15097071D01*
X13021786Y-15125643D01*
X12878928Y-15154214D01*
X13136071Y-15239929D02*
X13164643Y-15254214D01*
X13221786Y-15254214D01*
X13250357Y-15239929D01*
X13264643Y-15211357D01*
X13264643Y-15197071D01*
X13250357Y-15168500D01*
X13221786Y-15154214D01*
X13178928Y-15154214D01*
X13150357Y-15139929D01*
X13136071Y-15111357D01*
X13136071Y-15097071D01*
X13150357Y-15068500D01*
X13178928Y-15054214D01*
X13221786Y-15054214D01*
X13250357Y-15068500D01*
X13364643Y-15368500D02*
X13378928Y-15354214D01*
X13407500Y-15311357D01*
X13421786Y-15282786D01*
X13436071Y-15239929D01*
X13450357Y-15168500D01*
X13450357Y-15111357D01*
X13436071Y-15039929D01*
X13421786Y-14997071D01*
X13407500Y-14968500D01*
X13378928Y-14925643D01*
X13364643Y-14911357D01*
X6440500Y-15438500D02*
X6592500Y-15590500D01*
X6592500Y-15438500D02*
X6440500Y-15590500D01*
X6570240Y-15568241D02*
X6570240Y-15460759D01*
X6462759Y-15460759D01*
X6462759Y-15568241D01*
X6570240Y-15568241D01*
X7036071Y-15650214D02*
X6864643Y-15650214D01*
X6950357Y-15650214D02*
X6950357Y-15350214D01*
X6921786Y-15393071D01*
X6893214Y-15421643D01*
X6864643Y-15435929D01*
X7164643Y-15621643D02*
X7178928Y-15635929D01*
X7164643Y-15650214D01*
X7150357Y-15635929D01*
X7164643Y-15621643D01*
X7164643Y-15650214D01*
X7450357Y-15350214D02*
X7307500Y-15350214D01*
X7293214Y-15493071D01*
X7307500Y-15478786D01*
X7336071Y-15464500D01*
X7407500Y-15464500D01*
X7436071Y-15478786D01*
X7450357Y-15493071D01*
X7464643Y-15521643D01*
X7464643Y-15593071D01*
X7450357Y-15621643D01*
X7436071Y-15635929D01*
X7407500Y-15650214D01*
X7336071Y-15650214D01*
X7307500Y-15635929D01*
X7293214Y-15621643D01*
X7578928Y-15378786D02*
X7593214Y-15364500D01*
X7621786Y-15350214D01*
X7693214Y-15350214D01*
X7721786Y-15364500D01*
X7736071Y-15378786D01*
X7750357Y-15407357D01*
X7750357Y-15435929D01*
X7736071Y-15478786D01*
X7564643Y-15650214D01*
X7750357Y-15650214D01*
X7878928Y-15650214D02*
X7878928Y-15450214D01*
X7878928Y-15478786D02*
X7893214Y-15464500D01*
X7921786Y-15450214D01*
X7964643Y-15450214D01*
X7993214Y-15464500D01*
X8007500Y-15493071D01*
X8007500Y-15650214D01*
X8007500Y-15493071D02*
X8021786Y-15464500D01*
X8050357Y-15450214D01*
X8093214Y-15450214D01*
X8121786Y-15464500D01*
X8136071Y-15493071D01*
X8136071Y-15650214D01*
X8278928Y-15650214D02*
X8278928Y-15450214D01*
X8278928Y-15478786D02*
X8293214Y-15464500D01*
X8321786Y-15450214D01*
X8364643Y-15450214D01*
X8393214Y-15464500D01*
X8407500Y-15493071D01*
X8407500Y-15650214D01*
X8407500Y-15493071D02*
X8421786Y-15464500D01*
X8450357Y-15450214D01*
X8493214Y-15450214D01*
X8521786Y-15464500D01*
X8536071Y-15493071D01*
X8536071Y-15650214D01*
X9121786Y-15335929D02*
X8864643Y-15721643D01*
X9507500Y-15350214D02*
X9536071Y-15350214D01*
X9564643Y-15364500D01*
X9578928Y-15378786D01*
X9593214Y-15407357D01*
X9607500Y-15464500D01*
X9607500Y-15535929D01*
X9593214Y-15593071D01*
X9578928Y-15621643D01*
X9564643Y-15635929D01*
X9536071Y-15650214D01*
X9507500Y-15650214D01*
X9478928Y-15635929D01*
X9464643Y-15621643D01*
X9450357Y-15593071D01*
X9436071Y-15535929D01*
X9436071Y-15464500D01*
X9450357Y-15407357D01*
X9464643Y-15378786D01*
X9478928Y-15364500D01*
X9507500Y-15350214D01*
X9736071Y-15621643D02*
X9750357Y-15635929D01*
X9736071Y-15650214D01*
X9721786Y-15635929D01*
X9736071Y-15621643D01*
X9736071Y-15650214D01*
X9936071Y-15350214D02*
X9964643Y-15350214D01*
X9993214Y-15364500D01*
X10007500Y-15378786D01*
X10021786Y-15407357D01*
X10036071Y-15464500D01*
X10036071Y-15535929D01*
X10021786Y-15593071D01*
X10007500Y-15621643D01*
X9993214Y-15635929D01*
X9964643Y-15650214D01*
X9936071Y-15650214D01*
X9907500Y-15635929D01*
X9893214Y-15621643D01*
X9878928Y-15593071D01*
X9864643Y-15535929D01*
X9864643Y-15464500D01*
X9878928Y-15407357D01*
X9893214Y-15378786D01*
X9907500Y-15364500D01*
X9936071Y-15350214D01*
X10293214Y-15350214D02*
X10236071Y-15350214D01*
X10207500Y-15364500D01*
X10193214Y-15378786D01*
X10164643Y-15421643D01*
X10150357Y-15478786D01*
X10150357Y-15593071D01*
X10164643Y-15621643D01*
X10178928Y-15635929D01*
X10207500Y-15650214D01*
X10264643Y-15650214D01*
X10293214Y-15635929D01*
X10307500Y-15621643D01*
X10321786Y-15593071D01*
X10321786Y-15521643D01*
X10307500Y-15493071D01*
X10293214Y-15478786D01*
X10264643Y-15464500D01*
X10207500Y-15464500D01*
X10178928Y-15478786D01*
X10164643Y-15493071D01*
X10150357Y-15521643D01*
X10507500Y-15350214D02*
X10536071Y-15350214D01*
X10564643Y-15364500D01*
X10578928Y-15378786D01*
X10593214Y-15407357D01*
X10607500Y-15464500D01*
X10607500Y-15535929D01*
X10593214Y-15593071D01*
X10578928Y-15621643D01*
X10564643Y-15635929D01*
X10536071Y-15650214D01*
X10507500Y-15650214D01*
X10478928Y-15635929D01*
X10464643Y-15621643D01*
X10450357Y-15593071D01*
X10436071Y-15535929D01*
X10436071Y-15464500D01*
X10450357Y-15407357D01*
X10464643Y-15378786D01*
X10478928Y-15364500D01*
X10507500Y-15350214D01*
X10721786Y-15350214D02*
X10721786Y-15407357D01*
X10836071Y-15350214D02*
X10836071Y-15407357D01*
X11278928Y-15764500D02*
X11264643Y-15750214D01*
X11236071Y-15707357D01*
X11221786Y-15678786D01*
X11207500Y-15635929D01*
X11193214Y-15564500D01*
X11193214Y-15507357D01*
X11207500Y-15435929D01*
X11221786Y-15393071D01*
X11236071Y-15364500D01*
X11264643Y-15321643D01*
X11278928Y-15307357D01*
X11364643Y-15350214D02*
X11550357Y-15350214D01*
X11450357Y-15464500D01*
X11493214Y-15464500D01*
X11521786Y-15478786D01*
X11536071Y-15493071D01*
X11550357Y-15521643D01*
X11550357Y-15593071D01*
X11536071Y-15621643D01*
X11521786Y-15635929D01*
X11493214Y-15650214D01*
X11407500Y-15650214D01*
X11378928Y-15635929D01*
X11364643Y-15621643D01*
X11907500Y-15650214D02*
X11907500Y-15350214D01*
X12036071Y-15650214D02*
X12036071Y-15493071D01*
X12021786Y-15464500D01*
X11993214Y-15450214D01*
X11950357Y-15450214D01*
X11921786Y-15464500D01*
X11907500Y-15478786D01*
X12221786Y-15650214D02*
X12193214Y-15635929D01*
X12178928Y-15621643D01*
X12164643Y-15593071D01*
X12164643Y-15507357D01*
X12178928Y-15478786D01*
X12193214Y-15464500D01*
X12221786Y-15450214D01*
X12264643Y-15450214D01*
X12293214Y-15464500D01*
X12307500Y-15478786D01*
X12321786Y-15507357D01*
X12321786Y-15593071D01*
X12307500Y-15621643D01*
X12293214Y-15635929D01*
X12264643Y-15650214D01*
X12221786Y-15650214D01*
X12493214Y-15650214D02*
X12464643Y-15635929D01*
X12450357Y-15607357D01*
X12450357Y-15350214D01*
X12721786Y-15635929D02*
X12693214Y-15650214D01*
X12636071Y-15650214D01*
X12607500Y-15635929D01*
X12593214Y-15607357D01*
X12593214Y-15493071D01*
X12607500Y-15464500D01*
X12636071Y-15450214D01*
X12693214Y-15450214D01*
X12721786Y-15464500D01*
X12736071Y-15493071D01*
X12736071Y-15521643D01*
X12593214Y-15550214D01*
X12850357Y-15635929D02*
X12878928Y-15650214D01*
X12936071Y-15650214D01*
X12964643Y-15635929D01*
X12978928Y-15607357D01*
X12978928Y-15593071D01*
X12964643Y-15564500D01*
X12936071Y-15550214D01*
X12893214Y-15550214D01*
X12864643Y-15535929D01*
X12850357Y-15507357D01*
X12850357Y-15493071D01*
X12864643Y-15464500D01*
X12893214Y-15450214D01*
X12936071Y-15450214D01*
X12964643Y-15464500D01*
X13078928Y-15764500D02*
X13093214Y-15750214D01*
X13121786Y-15707357D01*
X13136071Y-15678786D01*
X13150357Y-15635929D01*
X13164643Y-15564500D01*
X13164643Y-15507357D01*
X13150357Y-15435929D01*
X13136071Y-15393071D01*
X13121786Y-15364500D01*
X13093214Y-15321643D01*
X13078928Y-15307357D01*
M02*
