%FSLAX45Y45*%
G04 Gerber Fmt 4.5, Leading zero omitted, Abs format (unit mm)*
G04 Created by KiCad (PCBNEW 5.0.2+dfsg1-1~bpo9+1) date Wed Mar  4 21:18:35 2020*
%MOMM*%
%LPD*%
G01*
G04 APERTURE LIST*
%ADD10C,0.150000*%
%ADD11C,0.200000*%
%ADD12C,0.300000*%
G04 APERTURE END LIST*
D10*
X14975000Y-8075000D02*
G75*
G03X14975000Y-8075000I-175000J0D01*
G01*
X14975000Y-11475000D02*
G75*
G03X14975000Y-11475000I-175000J0D01*
G01*
X7075000Y-11475000D02*
G75*
G03X7075000Y-11475000I-175000J0D01*
G01*
X7075000Y-8075000D02*
G75*
G03X7075000Y-8075000I-175000J0D01*
G01*
X6600000Y-11775000D02*
X6600000Y-7775000D01*
X15100000Y-11775000D02*
X6600000Y-11775000D01*
X15100000Y-7775000D02*
X15100000Y-11775000D01*
X6600000Y-7775000D02*
X15100000Y-7775000D01*
D11*
D12*
X6878928Y-12248214D02*
X6878928Y-11948214D01*
X6950357Y-11948214D01*
X6993214Y-11962500D01*
X7021786Y-11991071D01*
X7036071Y-12019643D01*
X7050357Y-12076786D01*
X7050357Y-12119643D01*
X7036071Y-12176786D01*
X7021786Y-12205357D01*
X6993214Y-12233929D01*
X6950357Y-12248214D01*
X6878928Y-12248214D01*
X7178928Y-12248214D02*
X7178928Y-12048214D01*
X7178928Y-12105357D02*
X7193214Y-12076786D01*
X7207500Y-12062500D01*
X7236071Y-12048214D01*
X7264643Y-12048214D01*
X7364643Y-12248214D02*
X7364643Y-12048214D01*
X7364643Y-11948214D02*
X7350357Y-11962500D01*
X7364643Y-11976786D01*
X7378928Y-11962500D01*
X7364643Y-11948214D01*
X7364643Y-11976786D01*
X7550357Y-12248214D02*
X7521786Y-12233929D01*
X7507500Y-12205357D01*
X7507500Y-11948214D01*
X7707500Y-12248214D02*
X7678928Y-12233929D01*
X7664643Y-12205357D01*
X7664643Y-11948214D01*
X8050357Y-12248214D02*
X8050357Y-11948214D01*
X8150357Y-12162500D01*
X8250357Y-11948214D01*
X8250357Y-12248214D01*
X8521786Y-12248214D02*
X8521786Y-12091071D01*
X8507500Y-12062500D01*
X8478928Y-12048214D01*
X8421786Y-12048214D01*
X8393214Y-12062500D01*
X8521786Y-12233929D02*
X8493214Y-12248214D01*
X8421786Y-12248214D01*
X8393214Y-12233929D01*
X8378928Y-12205357D01*
X8378928Y-12176786D01*
X8393214Y-12148214D01*
X8421786Y-12133929D01*
X8493214Y-12133929D01*
X8521786Y-12119643D01*
X8664643Y-12048214D02*
X8664643Y-12348214D01*
X8664643Y-12062500D02*
X8693214Y-12048214D01*
X8750357Y-12048214D01*
X8778928Y-12062500D01*
X8793214Y-12076786D01*
X8807500Y-12105357D01*
X8807500Y-12191071D01*
X8793214Y-12219643D01*
X8778928Y-12233929D01*
X8750357Y-12248214D01*
X8693214Y-12248214D01*
X8664643Y-12233929D01*
X8936071Y-12219643D02*
X8950357Y-12233929D01*
X8936071Y-12248214D01*
X8921786Y-12233929D01*
X8936071Y-12219643D01*
X8936071Y-12248214D01*
X8936071Y-12062500D02*
X8950357Y-12076786D01*
X8936071Y-12091071D01*
X8921786Y-12076786D01*
X8936071Y-12062500D01*
X8936071Y-12091071D01*
M02*
