G04 #@! TF.GenerationSoftware,KiCad,Pcbnew,5.0.2+dfsg1-1~bpo9+1*
G04 #@! TF.CreationDate,2020-03-04T21:18:40+01:00*
G04 #@! TF.ProjectId,things_02,7468696e-6773-45f3-9032-2e6b69636164,rev?*
G04 #@! TF.SameCoordinates,Original*
G04 #@! TF.FileFunction,Copper,L2,Bot*
G04 #@! TF.FilePolarity,Positive*
%FSLAX46Y46*%
G04 Gerber Fmt 4.6, Leading zero omitted, Abs format (unit mm)*
G04 Created by KiCad (PCBNEW 5.0.2+dfsg1-1~bpo9+1) date Wed Mar  4 21:18:40 2020*
%MOMM*%
%LPD*%
G01*
G04 APERTURE LIST*
G04 #@! TA.AperFunction,Conductor*
%ADD10C,0.100000*%
G04 #@! TD*
G04 #@! TA.AperFunction,ComponentPad*
%ADD11C,1.700000*%
G04 #@! TD*
G04 #@! TA.AperFunction,ComponentPad*
%ADD12O,1.950000X1.700000*%
G04 #@! TD*
G04 #@! TA.AperFunction,ComponentPad*
%ADD13O,1.700000X1.700000*%
G04 #@! TD*
G04 #@! TA.AperFunction,ComponentPad*
%ADD14R,1.700000X1.700000*%
G04 #@! TD*
G04 #@! TA.AperFunction,ComponentPad*
%ADD15R,3.000000X3.000000*%
G04 #@! TD*
G04 #@! TA.AperFunction,ComponentPad*
%ADD16C,3.000000*%
G04 #@! TD*
G04 #@! TA.AperFunction,ComponentPad*
%ADD17C,1.500000*%
G04 #@! TD*
G04 #@! TA.AperFunction,SMDPad,CuDef*
%ADD18R,2.000000X1.000000*%
G04 #@! TD*
G04 #@! TA.AperFunction,ComponentPad*
%ADD19C,1.524000*%
G04 #@! TD*
G04 #@! TA.AperFunction,ComponentPad*
%ADD20O,1.500000X1.100000*%
G04 #@! TD*
G04 #@! TA.AperFunction,ComponentPad*
%ADD21O,1.700000X1.350000*%
G04 #@! TD*
G04 #@! TA.AperFunction,ViaPad*
%ADD22C,0.800000*%
G04 #@! TD*
G04 #@! TA.AperFunction,Conductor*
%ADD23C,0.250000*%
G04 #@! TD*
G04 #@! TA.AperFunction,Conductor*
%ADD24C,0.500000*%
G04 #@! TD*
G04 APERTURE END LIST*
D10*
G04 #@! TO.N,GND*
G04 #@! TO.C,J1*
G36*
X72449504Y-93151204D02*
X72473773Y-93154804D01*
X72497571Y-93160765D01*
X72520671Y-93169030D01*
X72542849Y-93179520D01*
X72563893Y-93192133D01*
X72583598Y-93206747D01*
X72601777Y-93223223D01*
X72618253Y-93241402D01*
X72632867Y-93261107D01*
X72645480Y-93282151D01*
X72655970Y-93304329D01*
X72664235Y-93327429D01*
X72670196Y-93351227D01*
X72673796Y-93375496D01*
X72675000Y-93400000D01*
X72675000Y-94600000D01*
X72673796Y-94624504D01*
X72670196Y-94648773D01*
X72664235Y-94672571D01*
X72655970Y-94695671D01*
X72645480Y-94717849D01*
X72632867Y-94738893D01*
X72618253Y-94758598D01*
X72601777Y-94776777D01*
X72583598Y-94793253D01*
X72563893Y-94807867D01*
X72542849Y-94820480D01*
X72520671Y-94830970D01*
X72497571Y-94839235D01*
X72473773Y-94845196D01*
X72449504Y-94848796D01*
X72425000Y-94850000D01*
X70975000Y-94850000D01*
X70950496Y-94848796D01*
X70926227Y-94845196D01*
X70902429Y-94839235D01*
X70879329Y-94830970D01*
X70857151Y-94820480D01*
X70836107Y-94807867D01*
X70816402Y-94793253D01*
X70798223Y-94776777D01*
X70781747Y-94758598D01*
X70767133Y-94738893D01*
X70754520Y-94717849D01*
X70744030Y-94695671D01*
X70735765Y-94672571D01*
X70729804Y-94648773D01*
X70726204Y-94624504D01*
X70725000Y-94600000D01*
X70725000Y-93400000D01*
X70726204Y-93375496D01*
X70729804Y-93351227D01*
X70735765Y-93327429D01*
X70744030Y-93304329D01*
X70754520Y-93282151D01*
X70767133Y-93261107D01*
X70781747Y-93241402D01*
X70798223Y-93223223D01*
X70816402Y-93206747D01*
X70836107Y-93192133D01*
X70857151Y-93179520D01*
X70879329Y-93169030D01*
X70902429Y-93160765D01*
X70926227Y-93154804D01*
X70950496Y-93151204D01*
X70975000Y-93150000D01*
X72425000Y-93150000D01*
X72449504Y-93151204D01*
X72449504Y-93151204D01*
G37*
D11*
G04 #@! TD*
G04 #@! TO.P,J1,1*
G04 #@! TO.N,GND*
X71700000Y-94000000D03*
D12*
G04 #@! TO.P,J1,2*
G04 #@! TO.N,Net-(J1-Pad2)*
X71700000Y-96500000D03*
G04 #@! TO.P,J1,3*
G04 #@! TO.N,Net-(J1-Pad3)*
X71700000Y-99000000D03*
G04 #@! TO.P,J1,4*
G04 #@! TO.N,+5V*
X71700000Y-101500000D03*
G04 #@! TD*
D13*
G04 #@! TO.P,J2,6*
G04 #@! TO.N,N/C*
X135050000Y-85750000D03*
G04 #@! TO.P,J2,5*
G04 #@! TO.N,/TX_3*
X137590000Y-85750000D03*
G04 #@! TO.P,J2,4*
G04 #@! TO.N,/RX_3*
X140130000Y-85750000D03*
G04 #@! TO.P,J2,3*
G04 #@! TO.N,+3V3*
X142670000Y-85750000D03*
G04 #@! TO.P,J2,2*
G04 #@! TO.N,N/C*
X145210000Y-85750000D03*
D14*
G04 #@! TO.P,J2,1*
G04 #@! TO.N,GND*
X147750000Y-85750000D03*
G04 #@! TD*
G04 #@! TO.P,J4,1*
G04 #@! TO.N,GND*
X127750000Y-97500000D03*
D13*
G04 #@! TO.P,J4,2*
G04 #@! TO.N,+3V3*
X127750000Y-100040000D03*
G04 #@! TO.P,J4,3*
G04 #@! TO.N,/SCL_3*
X127750000Y-102580000D03*
G04 #@! TO.P,J4,4*
G04 #@! TO.N,/SDA_3*
X127750000Y-105120000D03*
G04 #@! TD*
D14*
G04 #@! TO.P,J6,1*
G04 #@! TO.N,+3V3*
X130400000Y-89800000D03*
D13*
G04 #@! TO.P,J6,2*
G04 #@! TO.N,GND*
X130400000Y-92340000D03*
G04 #@! TO.P,J6,3*
G04 #@! TO.N,/SCL_3*
X130400000Y-94880000D03*
G04 #@! TO.P,J6,4*
G04 #@! TO.N,/SDA_3*
X130400000Y-97420000D03*
G04 #@! TO.P,J6,5*
G04 #@! TO.N,N/C*
X130400000Y-99960000D03*
G04 #@! TO.P,J6,6*
X130400000Y-102500000D03*
G04 #@! TD*
D15*
G04 #@! TO.P,J9,1*
G04 #@! TO.N,/R_RST*
X147000000Y-109000000D03*
D16*
G04 #@! TO.P,J9,2*
G04 #@! TO.N,/R_C*
X147000000Y-103920000D03*
G04 #@! TO.P,J9,3*
G04 #@! TO.N,/R_SET*
X147000000Y-98840000D03*
G04 #@! TD*
D17*
G04 #@! TO.P,R22,1*
G04 #@! TO.N,Net-(R22-Pad1)*
X73250000Y-87750000D03*
G04 #@! TO.P,R22,2*
G04 #@! TO.N,+3V3*
X69850000Y-87750000D03*
G04 #@! TD*
D18*
G04 #@! TO.P,U5,1*
G04 #@! TO.N,GND*
X100450000Y-101000000D03*
G04 #@! TO.P,U5,2*
G04 #@! TO.N,/MISO*
X100450000Y-99000000D03*
G04 #@! TO.P,U5,3*
G04 #@! TO.N,/MOSI*
X100450000Y-97000000D03*
G04 #@! TO.P,U5,4*
G04 #@! TO.N,/SCK*
X100450000Y-95000000D03*
G04 #@! TO.P,U5,5*
G04 #@! TO.N,/NSS*
X100450000Y-93000000D03*
G04 #@! TO.P,U5,6*
G04 #@! TO.N,/RST_RFM95*
X100450000Y-91000000D03*
G04 #@! TO.P,U5,7*
G04 #@! TO.N,N/C*
X100450000Y-89000000D03*
G04 #@! TO.P,U5,8*
G04 #@! TO.N,GND*
X100450000Y-87000000D03*
G04 #@! TO.P,U5,9*
G04 #@! TO.N,Net-(AE1-Pad1)*
X116450000Y-87000000D03*
G04 #@! TO.P,U5,10*
G04 #@! TO.N,GND*
X116450000Y-89000000D03*
G04 #@! TO.P,U5,11*
G04 #@! TO.N,N/C*
X116450000Y-91000000D03*
G04 #@! TO.P,U5,12*
X116450000Y-93000000D03*
G04 #@! TO.P,U5,13*
G04 #@! TO.N,+3V3*
X116450000Y-95000000D03*
G04 #@! TO.P,U5,14*
G04 #@! TO.N,/DIO0*
X116450000Y-97000000D03*
G04 #@! TO.P,U5,15*
G04 #@! TO.N,/DIO1*
X116450000Y-99000000D03*
G04 #@! TO.P,U5,16*
G04 #@! TO.N,/DIO2*
X116450000Y-101000000D03*
G04 #@! TD*
D19*
G04 #@! TO.P,K1,1*
G04 #@! TO.N,+5V*
X141310000Y-116140000D03*
G04 #@! TO.P,K1,2*
X141310000Y-113600000D03*
G04 #@! TO.P,K1,4*
G04 #@! TO.N,/R_C*
X141310000Y-108520000D03*
G04 #@! TO.P,K1,6*
G04 #@! TO.N,/R_RST*
X141310000Y-103440000D03*
G04 #@! TO.P,K1,8*
G04 #@! TO.N,/R_SET*
X141310000Y-98360000D03*
G04 #@! TO.P,K1,9*
G04 #@! TO.N,+3V3*
X133690000Y-98360000D03*
G04 #@! TO.P,K1,11*
G04 #@! TO.N,GND*
X133690000Y-103440000D03*
G04 #@! TO.P,K1,13*
G04 #@! TO.N,/GPI39*
X133690000Y-108520000D03*
G04 #@! TO.P,K1,15*
G04 #@! TO.N,Net-(D2-Pad2)*
X133690000Y-113600000D03*
G04 #@! TO.P,K1,16*
G04 #@! TO.N,Net-(D1-Pad2)*
X133690000Y-116140000D03*
G04 #@! TD*
D20*
G04 #@! TO.P,J8,6*
G04 #@! TO.N,GND*
X146365000Y-94195000D03*
X146365000Y-89355000D03*
D21*
X149365000Y-94505000D03*
X149365000Y-89045000D03*
G04 #@! TD*
D14*
G04 #@! TO.P,J3,1*
G04 #@! TO.N,/LED_32*
X76750000Y-108250000D03*
D13*
G04 #@! TO.P,J3,2*
G04 #@! TO.N,GND*
X76750000Y-105710000D03*
G04 #@! TO.P,J3,3*
G04 #@! TO.N,/LED_27*
X79290000Y-108250000D03*
G04 #@! TO.P,J3,4*
G04 #@! TO.N,GND*
X79290000Y-105710000D03*
G04 #@! TO.P,J3,5*
G04 #@! TO.N,/LED_23*
X81830000Y-108250000D03*
G04 #@! TO.P,J3,6*
G04 #@! TO.N,GND*
X81830000Y-105710000D03*
G04 #@! TO.P,J3,7*
G04 #@! TO.N,/LED_19*
X84370000Y-108250000D03*
G04 #@! TO.P,J3,8*
G04 #@! TO.N,GND*
X84370000Y-105710000D03*
G04 #@! TD*
D14*
G04 #@! TO.P,J5,1*
G04 #@! TO.N,/GPI35*
X83710000Y-87250000D03*
D13*
G04 #@! TO.P,J5,2*
G04 #@! TO.N,GND*
X83710000Y-89790000D03*
G04 #@! TO.P,J5,3*
G04 #@! TO.N,/GPI34*
X86250000Y-87250000D03*
G04 #@! TO.P,J5,4*
G04 #@! TO.N,GND*
X86250000Y-89790000D03*
G04 #@! TO.P,J5,5*
G04 #@! TO.N,/GPIO0*
X88790000Y-87250000D03*
G04 #@! TO.P,J5,6*
G04 #@! TO.N,GND*
X88790000Y-89790000D03*
G04 #@! TD*
D22*
G04 #@! TO.N,+3V3*
X109383200Y-87840000D03*
X113250000Y-111500000D03*
X114500000Y-111500000D03*
G04 #@! TO.N,/RO_3*
X95996900Y-107230600D03*
X119156200Y-100540000D03*
G04 #@! TO.N,/DI_3*
X95694300Y-96466400D03*
X106660295Y-97451286D03*
G04 #@! TO.N,+5V*
X111000000Y-112800000D03*
X109700000Y-112800000D03*
G04 #@! TO.N,Net-(AE1-Pad1)*
X130000000Y-84500000D03*
G04 #@! TO.N,/MOSI*
X102293000Y-97517700D03*
G04 #@! TO.N,/DIO0*
X106700000Y-99800000D03*
G04 #@! TO.N,/RST_RFM95*
X107582500Y-98704000D03*
G04 #@! TO.N,/DIO2*
X107800000Y-102300000D03*
G04 #@! TO.N,/DIO1*
X112921500Y-101522800D03*
G04 #@! TO.N,/MISO*
X110846300Y-99489400D03*
G04 #@! TO.N,/SCK*
X107100000Y-96300000D03*
G04 #@! TO.N,/NSS*
X106887347Y-94812653D03*
G04 #@! TO.N,/GPIO0*
X109126400Y-98691000D03*
G04 #@! TO.N,/LED_19*
X119039700Y-96543900D03*
G04 #@! TO.N,/LED_32*
X90520100Y-95350300D03*
G04 #@! TO.N,/GPI39*
X106262400Y-91650000D03*
G04 #@! TO.N,/LED_27*
X103013900Y-100926200D03*
G04 #@! TO.N,/GPI34*
X102588200Y-92689700D03*
G04 #@! TO.N,/GPI35*
X102294200Y-94344200D03*
G04 #@! TD*
D23*
G04 #@! TO.N,+3V3*
X117112700Y-95000000D02*
X116450000Y-95000000D01*
D24*
X114950000Y-95000000D02*
X110500000Y-90550000D01*
X116450000Y-95000000D02*
X114950000Y-95000000D01*
X110500000Y-88391115D02*
X110500000Y-89250000D01*
X109948885Y-87840000D02*
X110500000Y-88391115D01*
X109383200Y-87840000D02*
X109948885Y-87840000D01*
X110500000Y-90550000D02*
X110500000Y-89250000D01*
X110500000Y-89250000D02*
X110500000Y-88956800D01*
X133690000Y-98360000D02*
X133690000Y-96560000D01*
X142670000Y-87580000D02*
X142670000Y-85750000D01*
X142000000Y-88250000D02*
X142670000Y-87580000D01*
X140450000Y-89800000D02*
X142000000Y-88250000D01*
X133690000Y-89990000D02*
X133500000Y-89800000D01*
X133690000Y-90110000D02*
X134000000Y-89800000D01*
X133690000Y-90500000D02*
X133690000Y-89990000D01*
X133690000Y-98360000D02*
X133690000Y-90500000D01*
X133690000Y-90500000D02*
X133690000Y-90110000D01*
X133500000Y-89800000D02*
X134000000Y-89800000D01*
X134000000Y-89800000D02*
X140450000Y-89800000D01*
X133690000Y-90240000D02*
X133250000Y-89800000D01*
X133690000Y-90500000D02*
X133690000Y-90240000D01*
X133250000Y-89800000D02*
X133500000Y-89800000D01*
X130400000Y-89800000D02*
X133250000Y-89800000D01*
X118650000Y-94300000D02*
X120807919Y-94300000D01*
X126547919Y-100040000D02*
X127750000Y-100040000D01*
X117950000Y-95000000D02*
X118650000Y-94300000D01*
X116450000Y-95000000D02*
X117950000Y-95000000D01*
X125200000Y-101387919D02*
X125200000Y-106000000D01*
X125200000Y-106000000D02*
X126200000Y-107000000D01*
X126200000Y-107000000D02*
X131900000Y-107000000D01*
X131900000Y-107000000D02*
X132800000Y-106100000D01*
X132800000Y-106100000D02*
X135500000Y-106100000D01*
X135500000Y-106100000D02*
X136300000Y-106900000D01*
X136300000Y-106900000D02*
X136300000Y-109200000D01*
X136300000Y-109200000D02*
X135000000Y-110500000D01*
X113250000Y-111500000D02*
X113815685Y-111500000D01*
X128700000Y-111500000D02*
X129700000Y-110500000D01*
X135000000Y-110500000D02*
X129700000Y-110500000D01*
X114500000Y-111500000D02*
X128700000Y-111500000D01*
X114500000Y-111500000D02*
X113250000Y-111500000D01*
D23*
X126200000Y-99692081D02*
X126200000Y-100387919D01*
D24*
X126200000Y-99692081D02*
X126547919Y-100040000D01*
D23*
X126200000Y-100387919D02*
X126187919Y-100400000D01*
D24*
X126547919Y-100040000D02*
X126187919Y-100400000D01*
X120807919Y-94300000D02*
X126200000Y-99692081D01*
X126187919Y-100400000D02*
X125200000Y-101387919D01*
D23*
G04 #@! TO.N,/RO_3*
X119156200Y-100540000D02*
X119156200Y-102093800D01*
X119156200Y-102093800D02*
X116000000Y-105250000D01*
X97977500Y-105250000D02*
X95996900Y-107230600D01*
X116000000Y-105250000D02*
X97977500Y-105250000D01*
G04 #@! TO.N,/DI_3*
X95986100Y-96174600D02*
X102874600Y-96174600D01*
X95694300Y-96466400D02*
X95986100Y-96174600D01*
X103751287Y-97051287D02*
X102874600Y-96174600D01*
X106260296Y-97051287D02*
X103751287Y-97051287D01*
X106660295Y-97451286D02*
X106260296Y-97051287D01*
G04 #@! TO.N,/SCL_3*
X129100000Y-101230000D02*
X127750000Y-102580000D01*
X129550001Y-95849999D02*
X129100000Y-96300000D01*
X130400000Y-94880000D02*
X129550001Y-95729999D01*
X129550001Y-95729999D02*
X129550001Y-95849999D01*
X129100000Y-96300000D02*
X129100000Y-101230000D01*
G04 #@! TO.N,GND*
X127750000Y-97500000D02*
X127162400Y-97500000D01*
X118074700Y-89000000D02*
X117775300Y-89000000D01*
X116450000Y-89000000D02*
X117775300Y-89000000D01*
D24*
X81830000Y-105710000D02*
X84370000Y-105710000D01*
X71700000Y-94000000D02*
X72775000Y-94000000D01*
X82210000Y-89790000D02*
X83710000Y-89790000D01*
X76750000Y-105710000D02*
X76750000Y-95500000D01*
X75250000Y-94000000D02*
X74500000Y-94000000D01*
X78000000Y-94000000D02*
X80500000Y-91500000D01*
X80250000Y-91750000D02*
X80500000Y-91500000D01*
X74500000Y-94000000D02*
X71700000Y-94000000D01*
X80500000Y-91500000D02*
X82210000Y-89790000D01*
X76000000Y-94000000D02*
X76250000Y-94000000D01*
X76000000Y-94000000D02*
X76750000Y-94000000D01*
X74500000Y-94000000D02*
X76000000Y-94000000D01*
X76250000Y-94000000D02*
X76750000Y-94500000D01*
X76750000Y-94500000D02*
X76750000Y-94000000D01*
X76750000Y-94500000D02*
X77250000Y-94000000D01*
X77250000Y-94000000D02*
X78000000Y-94000000D01*
X76750000Y-95500000D02*
X76750000Y-95250000D01*
X76750000Y-95250000D02*
X76750000Y-94500000D01*
X76750000Y-94000000D02*
X77250000Y-94000000D01*
X98950000Y-101000000D02*
X100450000Y-101000000D01*
X87877919Y-101000000D02*
X98950000Y-101000000D01*
X84370000Y-104507919D02*
X87877919Y-101000000D01*
X84370000Y-105710000D02*
X84370000Y-104507919D01*
X76750000Y-105710000D02*
X79290000Y-105710000D01*
X116450000Y-89000000D02*
X123500000Y-89000000D01*
X127750000Y-93000000D02*
X127750000Y-92750000D01*
X127750000Y-97500000D02*
X127750000Y-93000000D01*
X127750000Y-93000000D02*
X127750000Y-92500000D01*
X124250000Y-89000000D02*
X123500000Y-89000000D01*
X127590000Y-92340000D02*
X127500000Y-92250000D01*
X127500000Y-92250000D02*
X124250000Y-89000000D01*
X127750000Y-92500000D02*
X127500000Y-92250000D01*
X127750000Y-93000000D02*
X127750000Y-92840000D01*
X128250000Y-92340000D02*
X127590000Y-92340000D01*
X127750000Y-92840000D02*
X128250000Y-92340000D01*
X130400000Y-92340000D02*
X128250000Y-92340000D01*
X133690000Y-102362370D02*
X133690000Y-103440000D01*
X130400000Y-92340000D02*
X131340000Y-92340000D01*
X131340000Y-92340000D02*
X132000000Y-93000000D01*
X132000000Y-93000000D02*
X132000000Y-100672370D01*
X132000000Y-100672370D02*
X133690000Y-102362370D01*
X100450000Y-87000000D02*
X96400000Y-87000000D01*
X93610000Y-89790000D02*
X88790000Y-89790000D01*
X96400000Y-87000000D02*
X93610000Y-89790000D01*
G04 #@! TO.N,+5V*
X141310000Y-113600000D02*
X141310000Y-116140000D01*
X139460000Y-111750000D02*
X141310000Y-113600000D01*
X139460000Y-111750000D02*
X131250000Y-111750000D01*
X131250000Y-111750000D02*
X130200000Y-112800000D01*
X130200000Y-112800000D02*
X111000000Y-112800000D01*
X109700000Y-112800000D02*
X111000000Y-112800000D01*
D23*
G04 #@! TO.N,Net-(AE1-Pad1)*
X130000000Y-85500000D02*
X130000000Y-84500000D01*
X128500000Y-87000000D02*
X130000000Y-85500000D01*
X116450000Y-87000000D02*
X128500000Y-87000000D01*
G04 #@! TO.N,/MOSI*
X101775300Y-97000000D02*
X102293000Y-97517700D01*
X100450000Y-97000000D02*
X101775300Y-97000000D01*
G04 #@! TO.N,/DIO0*
X112170500Y-97000000D02*
X116450000Y-97000000D01*
X109370500Y-99800000D02*
X112170500Y-97000000D01*
X106700000Y-99800000D02*
X109370500Y-99800000D01*
G04 #@! TO.N,/RST_RFM95*
X102288700Y-91000000D02*
X100450000Y-91000000D01*
X105088700Y-93800000D02*
X102288700Y-91000000D01*
X107582500Y-98704000D02*
X107982499Y-98304001D01*
X107982499Y-98304001D02*
X107982499Y-94882499D01*
X107982499Y-94882499D02*
X106900000Y-93800000D01*
X106900000Y-93800000D02*
X105088700Y-93800000D01*
G04 #@! TO.N,/DIO2*
X116450000Y-101000000D02*
X115124700Y-101000000D01*
X115124700Y-101000000D02*
X113500000Y-102624700D01*
X111675300Y-102300000D02*
X112000000Y-102624700D01*
X107800000Y-102300000D02*
X111675300Y-102300000D01*
X113500000Y-102624700D02*
X112000000Y-102624700D01*
G04 #@! TO.N,/DIO1*
X113321499Y-101122801D02*
X112921500Y-101522800D01*
X115444300Y-99000000D02*
X113321499Y-101122801D01*
X116450000Y-99000000D02*
X115444300Y-99000000D01*
G04 #@! TO.N,/MISO*
X100450000Y-99000000D02*
X101775300Y-99000000D01*
X101775300Y-99000000D02*
X102825600Y-100050300D01*
X110846300Y-99489400D02*
X109735700Y-100600000D01*
X104449700Y-100600000D02*
X103900000Y-100050300D01*
X109735700Y-100600000D02*
X104449700Y-100600000D01*
X102825600Y-100050300D02*
X103900000Y-100050300D01*
G04 #@! TO.N,/SCK*
X102274810Y-95500000D02*
X101774810Y-95000000D01*
X103943315Y-95500000D02*
X102274810Y-95500000D01*
X101774810Y-95000000D02*
X100450000Y-95000000D01*
X101700000Y-95000000D02*
X102200000Y-95500000D01*
X100450000Y-95000000D02*
X101700000Y-95000000D01*
X102200000Y-95500000D02*
X106300000Y-95500000D01*
X106300000Y-95500000D02*
X107100000Y-96300000D01*
G04 #@! TO.N,/NSS*
X101775300Y-93000000D02*
X102381500Y-93606200D01*
X102381500Y-93606200D02*
X103806000Y-93606200D01*
X100450000Y-93000000D02*
X101775300Y-93000000D01*
X103806000Y-93606200D02*
X103906200Y-93606200D01*
X103906200Y-93606200D02*
X105100000Y-94800000D01*
X106874694Y-94800000D02*
X106887347Y-94812653D01*
X105100000Y-94800000D02*
X106874694Y-94800000D01*
D24*
G04 #@! TO.N,/R_RST*
X145000000Y-109000000D02*
X144250000Y-108250000D01*
X147000000Y-109000000D02*
X145000000Y-109000000D01*
X144250000Y-106380000D02*
X141310000Y-103440000D01*
X144250000Y-108250000D02*
X144250000Y-106380000D01*
D23*
G04 #@! TO.N,/GPIO0*
X103600000Y-90700000D02*
X103600000Y-87200000D01*
X103600000Y-87200000D02*
X102000000Y-85600000D01*
X90440000Y-85600000D02*
X88790000Y-87250000D01*
X102000000Y-85600000D02*
X90440000Y-85600000D01*
X109126400Y-98125315D02*
X109100000Y-98098915D01*
X109126400Y-98691000D02*
X109126400Y-98125315D01*
X109100000Y-98098915D02*
X109100000Y-94400000D01*
X107600000Y-92900000D02*
X105800000Y-92900000D01*
X109100000Y-94400000D02*
X107600000Y-92900000D01*
X105800000Y-92900000D02*
X103600000Y-90700000D01*
G04 #@! TO.N,/LED_19*
X119039700Y-97109585D02*
X119039700Y-96543900D01*
X90122081Y-103700000D02*
X102400000Y-103700000D01*
X84370000Y-108250000D02*
X85572081Y-108250000D01*
X85572081Y-108250000D02*
X90122081Y-103700000D01*
X118149285Y-98000000D02*
X119039700Y-97109585D01*
X104000000Y-102100000D02*
X104020200Y-102100000D01*
X104020200Y-102100000D02*
X104910100Y-101210100D01*
X104910100Y-101210100D02*
X110964500Y-101210100D01*
X110964500Y-101210100D02*
X114174600Y-98000000D01*
X102400000Y-103700000D02*
X104000000Y-102100000D01*
X114174600Y-98000000D02*
X118149285Y-98000000D01*
G04 #@! TO.N,/LED_32*
X77925300Y-108250000D02*
X77925300Y-107882600D01*
X77925300Y-107882600D02*
X78733200Y-107074700D01*
X78733200Y-107074700D02*
X79626300Y-107074700D01*
X79626300Y-107074700D02*
X80560000Y-106141000D01*
X80560000Y-106141000D02*
X80560000Y-105310400D01*
X80560000Y-105310400D02*
X90520100Y-95350300D01*
X76750000Y-108250000D02*
X77925300Y-108250000D01*
G04 #@! TO.N,/GPI39*
X109624699Y-92049999D02*
X106662399Y-92049999D01*
X123500000Y-99200000D02*
X120031600Y-95731600D01*
X120031600Y-95731600D02*
X118408100Y-95731600D01*
X106662399Y-92049999D02*
X106262400Y-91650000D01*
X112800000Y-95200000D02*
X112774700Y-95200000D01*
X118408100Y-95731600D02*
X118139700Y-96000000D01*
X112774700Y-95200000D02*
X109624699Y-92049999D01*
X118139700Y-96000000D02*
X113600000Y-96000000D01*
X113600000Y-96000000D02*
X112800000Y-95200000D01*
X124620000Y-108520000D02*
X123500000Y-107400000D01*
X133690000Y-108520000D02*
X124620000Y-108520000D01*
X123500000Y-107400000D02*
X123500000Y-99200000D01*
G04 #@! TO.N,/LED_27*
X80465300Y-108250000D02*
X80465300Y-107882600D01*
X80465300Y-107882600D02*
X81273200Y-107074700D01*
X81273200Y-107074700D02*
X84817500Y-107074700D01*
X79290000Y-108250000D02*
X80465300Y-108250000D01*
X89500000Y-102392200D02*
X102407800Y-102392200D01*
X84817500Y-107074700D02*
X89500000Y-102392200D01*
X103013900Y-101786100D02*
X103013900Y-100926200D01*
X102407800Y-102392200D02*
X103013900Y-101786100D01*
G04 #@! TO.N,/GPI34*
X87518700Y-88518700D02*
X86250000Y-87250000D01*
X102588200Y-92689700D02*
X101811400Y-91912900D01*
X101811400Y-91912900D02*
X88212900Y-91912900D01*
X88212900Y-91912900D02*
X87518700Y-91218700D01*
X87518700Y-91218700D02*
X87518700Y-88518700D01*
G04 #@! TO.N,/GPI35*
X101775400Y-93825400D02*
X102294200Y-94344200D01*
X88025400Y-93825400D02*
X101775400Y-93825400D01*
X83750000Y-87250000D02*
X85000000Y-88500000D01*
X83710000Y-87250000D02*
X83750000Y-87250000D01*
X85000000Y-88500000D02*
X85000000Y-90800000D01*
X85000000Y-90800000D02*
X88025400Y-93825400D01*
G04 #@! TD*
M02*
