G04 #@! TF.GenerationSoftware,KiCad,Pcbnew,5.0.2+dfsg1-1~bpo9+1*
G04 #@! TF.CreationDate,2020-03-04T21:18:40+01:00*
G04 #@! TF.ProjectId,things_02,7468696e-6773-45f3-9032-2e6b69636164,rev?*
G04 #@! TF.SameCoordinates,Original*
G04 #@! TF.FileFunction,Paste,Top*
G04 #@! TF.FilePolarity,Positive*
%FSLAX46Y46*%
G04 Gerber Fmt 4.6, Leading zero omitted, Abs format (unit mm)*
G04 Created by KiCad (PCBNEW 5.0.2+dfsg1-1~bpo9+1) date Wed Mar  4 21:18:40 2020*
%MOMM*%
%LPD*%
G01*
G04 APERTURE LIST*
%ADD10R,1.050000X2.200000*%
%ADD11R,1.000000X1.000000*%
%ADD12C,0.100000*%
%ADD13C,1.250000*%
%ADD14C,1.600000*%
%ADD15C,1.425000*%
%ADD16R,0.900000X0.800000*%
%ADD17R,0.800000X0.900000*%
%ADD18C,1.150000*%
%ADD19R,2.000000X1.600000*%
%ADD20R,1.550000X0.600000*%
%ADD21R,3.800000X2.000000*%
%ADD22R,1.500000X2.000000*%
%ADD23R,5.000000X5.000000*%
%ADD24R,2.000000X0.900000*%
%ADD25R,0.900000X2.000000*%
%ADD26R,2.000000X1.350000*%
%ADD27R,0.700000X1.825000*%
%ADD28R,1.650000X0.400000*%
%ADD29R,2.500000X1.430000*%
G04 APERTURE END LIST*
D10*
G04 #@! TO.C,AE1*
X128625000Y-81450000D03*
X131575000Y-81450000D03*
D11*
X130100000Y-79950000D03*
X130100000Y-82950000D03*
G04 #@! TD*
D12*
G04 #@! TO.C,C1*
G36*
X135399504Y-90226204D02*
X135423773Y-90229804D01*
X135447571Y-90235765D01*
X135470671Y-90244030D01*
X135492849Y-90254520D01*
X135513893Y-90267133D01*
X135533598Y-90281747D01*
X135551777Y-90298223D01*
X135568253Y-90316402D01*
X135582867Y-90336107D01*
X135595480Y-90357151D01*
X135605970Y-90379329D01*
X135614235Y-90402429D01*
X135620196Y-90426227D01*
X135623796Y-90450496D01*
X135625000Y-90475000D01*
X135625000Y-91225000D01*
X135623796Y-91249504D01*
X135620196Y-91273773D01*
X135614235Y-91297571D01*
X135605970Y-91320671D01*
X135595480Y-91342849D01*
X135582867Y-91363893D01*
X135568253Y-91383598D01*
X135551777Y-91401777D01*
X135533598Y-91418253D01*
X135513893Y-91432867D01*
X135492849Y-91445480D01*
X135470671Y-91455970D01*
X135447571Y-91464235D01*
X135423773Y-91470196D01*
X135399504Y-91473796D01*
X135375000Y-91475000D01*
X134125000Y-91475000D01*
X134100496Y-91473796D01*
X134076227Y-91470196D01*
X134052429Y-91464235D01*
X134029329Y-91455970D01*
X134007151Y-91445480D01*
X133986107Y-91432867D01*
X133966402Y-91418253D01*
X133948223Y-91401777D01*
X133931747Y-91383598D01*
X133917133Y-91363893D01*
X133904520Y-91342849D01*
X133894030Y-91320671D01*
X133885765Y-91297571D01*
X133879804Y-91273773D01*
X133876204Y-91249504D01*
X133875000Y-91225000D01*
X133875000Y-90475000D01*
X133876204Y-90450496D01*
X133879804Y-90426227D01*
X133885765Y-90402429D01*
X133894030Y-90379329D01*
X133904520Y-90357151D01*
X133917133Y-90336107D01*
X133931747Y-90316402D01*
X133948223Y-90298223D01*
X133966402Y-90281747D01*
X133986107Y-90267133D01*
X134007151Y-90254520D01*
X134029329Y-90244030D01*
X134052429Y-90235765D01*
X134076227Y-90229804D01*
X134100496Y-90226204D01*
X134125000Y-90225000D01*
X135375000Y-90225000D01*
X135399504Y-90226204D01*
X135399504Y-90226204D01*
G37*
D13*
X134750000Y-90850000D03*
D12*
G36*
X135399504Y-93026204D02*
X135423773Y-93029804D01*
X135447571Y-93035765D01*
X135470671Y-93044030D01*
X135492849Y-93054520D01*
X135513893Y-93067133D01*
X135533598Y-93081747D01*
X135551777Y-93098223D01*
X135568253Y-93116402D01*
X135582867Y-93136107D01*
X135595480Y-93157151D01*
X135605970Y-93179329D01*
X135614235Y-93202429D01*
X135620196Y-93226227D01*
X135623796Y-93250496D01*
X135625000Y-93275000D01*
X135625000Y-94025000D01*
X135623796Y-94049504D01*
X135620196Y-94073773D01*
X135614235Y-94097571D01*
X135605970Y-94120671D01*
X135595480Y-94142849D01*
X135582867Y-94163893D01*
X135568253Y-94183598D01*
X135551777Y-94201777D01*
X135533598Y-94218253D01*
X135513893Y-94232867D01*
X135492849Y-94245480D01*
X135470671Y-94255970D01*
X135447571Y-94264235D01*
X135423773Y-94270196D01*
X135399504Y-94273796D01*
X135375000Y-94275000D01*
X134125000Y-94275000D01*
X134100496Y-94273796D01*
X134076227Y-94270196D01*
X134052429Y-94264235D01*
X134029329Y-94255970D01*
X134007151Y-94245480D01*
X133986107Y-94232867D01*
X133966402Y-94218253D01*
X133948223Y-94201777D01*
X133931747Y-94183598D01*
X133917133Y-94163893D01*
X133904520Y-94142849D01*
X133894030Y-94120671D01*
X133885765Y-94097571D01*
X133879804Y-94073773D01*
X133876204Y-94049504D01*
X133875000Y-94025000D01*
X133875000Y-93275000D01*
X133876204Y-93250496D01*
X133879804Y-93226227D01*
X133885765Y-93202429D01*
X133894030Y-93179329D01*
X133904520Y-93157151D01*
X133917133Y-93136107D01*
X133931747Y-93116402D01*
X133948223Y-93098223D01*
X133966402Y-93081747D01*
X133986107Y-93067133D01*
X134007151Y-93054520D01*
X134029329Y-93044030D01*
X134052429Y-93035765D01*
X134076227Y-93029804D01*
X134100496Y-93026204D01*
X134125000Y-93025000D01*
X135375000Y-93025000D01*
X135399504Y-93026204D01*
X135399504Y-93026204D01*
G37*
D13*
X134750000Y-93650000D03*
G04 #@! TD*
D12*
G04 #@! TO.C,C5*
G36*
X141324504Y-88301204D02*
X141348773Y-88304804D01*
X141372571Y-88310765D01*
X141395671Y-88319030D01*
X141417849Y-88329520D01*
X141438893Y-88342133D01*
X141458598Y-88356747D01*
X141476777Y-88373223D01*
X141493253Y-88391402D01*
X141507867Y-88411107D01*
X141520480Y-88432151D01*
X141530970Y-88454329D01*
X141539235Y-88477429D01*
X141545196Y-88501227D01*
X141548796Y-88525496D01*
X141550000Y-88550000D01*
X141550000Y-91050000D01*
X141548796Y-91074504D01*
X141545196Y-91098773D01*
X141539235Y-91122571D01*
X141530970Y-91145671D01*
X141520480Y-91167849D01*
X141507867Y-91188893D01*
X141493253Y-91208598D01*
X141476777Y-91226777D01*
X141458598Y-91243253D01*
X141438893Y-91257867D01*
X141417849Y-91270480D01*
X141395671Y-91280970D01*
X141372571Y-91289235D01*
X141348773Y-91295196D01*
X141324504Y-91298796D01*
X141300000Y-91300000D01*
X140200000Y-91300000D01*
X140175496Y-91298796D01*
X140151227Y-91295196D01*
X140127429Y-91289235D01*
X140104329Y-91280970D01*
X140082151Y-91270480D01*
X140061107Y-91257867D01*
X140041402Y-91243253D01*
X140023223Y-91226777D01*
X140006747Y-91208598D01*
X139992133Y-91188893D01*
X139979520Y-91167849D01*
X139969030Y-91145671D01*
X139960765Y-91122571D01*
X139954804Y-91098773D01*
X139951204Y-91074504D01*
X139950000Y-91050000D01*
X139950000Y-88550000D01*
X139951204Y-88525496D01*
X139954804Y-88501227D01*
X139960765Y-88477429D01*
X139969030Y-88454329D01*
X139979520Y-88432151D01*
X139992133Y-88411107D01*
X140006747Y-88391402D01*
X140023223Y-88373223D01*
X140041402Y-88356747D01*
X140061107Y-88342133D01*
X140082151Y-88329520D01*
X140104329Y-88319030D01*
X140127429Y-88310765D01*
X140151227Y-88304804D01*
X140175496Y-88301204D01*
X140200000Y-88300000D01*
X141300000Y-88300000D01*
X141324504Y-88301204D01*
X141324504Y-88301204D01*
G37*
D14*
X140750000Y-89800000D03*
D12*
G36*
X141324504Y-92701204D02*
X141348773Y-92704804D01*
X141372571Y-92710765D01*
X141395671Y-92719030D01*
X141417849Y-92729520D01*
X141438893Y-92742133D01*
X141458598Y-92756747D01*
X141476777Y-92773223D01*
X141493253Y-92791402D01*
X141507867Y-92811107D01*
X141520480Y-92832151D01*
X141530970Y-92854329D01*
X141539235Y-92877429D01*
X141545196Y-92901227D01*
X141548796Y-92925496D01*
X141550000Y-92950000D01*
X141550000Y-95450000D01*
X141548796Y-95474504D01*
X141545196Y-95498773D01*
X141539235Y-95522571D01*
X141530970Y-95545671D01*
X141520480Y-95567849D01*
X141507867Y-95588893D01*
X141493253Y-95608598D01*
X141476777Y-95626777D01*
X141458598Y-95643253D01*
X141438893Y-95657867D01*
X141417849Y-95670480D01*
X141395671Y-95680970D01*
X141372571Y-95689235D01*
X141348773Y-95695196D01*
X141324504Y-95698796D01*
X141300000Y-95700000D01*
X140200000Y-95700000D01*
X140175496Y-95698796D01*
X140151227Y-95695196D01*
X140127429Y-95689235D01*
X140104329Y-95680970D01*
X140082151Y-95670480D01*
X140061107Y-95657867D01*
X140041402Y-95643253D01*
X140023223Y-95626777D01*
X140006747Y-95608598D01*
X139992133Y-95588893D01*
X139979520Y-95567849D01*
X139969030Y-95545671D01*
X139960765Y-95522571D01*
X139954804Y-95498773D01*
X139951204Y-95474504D01*
X139950000Y-95450000D01*
X139950000Y-92950000D01*
X139951204Y-92925496D01*
X139954804Y-92901227D01*
X139960765Y-92877429D01*
X139969030Y-92854329D01*
X139979520Y-92832151D01*
X139992133Y-92811107D01*
X140006747Y-92791402D01*
X140023223Y-92773223D01*
X140041402Y-92756747D01*
X140061107Y-92742133D01*
X140082151Y-92729520D01*
X140104329Y-92719030D01*
X140127429Y-92710765D01*
X140151227Y-92704804D01*
X140175496Y-92701204D01*
X140200000Y-92700000D01*
X141300000Y-92700000D01*
X141324504Y-92701204D01*
X141324504Y-92701204D01*
G37*
D14*
X140750000Y-94200000D03*
G04 #@! TD*
D12*
G04 #@! TO.C,C6*
G36*
X84699504Y-101176204D02*
X84723773Y-101179804D01*
X84747571Y-101185765D01*
X84770671Y-101194030D01*
X84792849Y-101204520D01*
X84813893Y-101217133D01*
X84833598Y-101231747D01*
X84851777Y-101248223D01*
X84868253Y-101266402D01*
X84882867Y-101286107D01*
X84895480Y-101307151D01*
X84905970Y-101329329D01*
X84914235Y-101352429D01*
X84920196Y-101376227D01*
X84923796Y-101400496D01*
X84925000Y-101425000D01*
X84925000Y-102675000D01*
X84923796Y-102699504D01*
X84920196Y-102723773D01*
X84914235Y-102747571D01*
X84905970Y-102770671D01*
X84895480Y-102792849D01*
X84882867Y-102813893D01*
X84868253Y-102833598D01*
X84851777Y-102851777D01*
X84833598Y-102868253D01*
X84813893Y-102882867D01*
X84792849Y-102895480D01*
X84770671Y-102905970D01*
X84747571Y-102914235D01*
X84723773Y-102920196D01*
X84699504Y-102923796D01*
X84675000Y-102925000D01*
X83925000Y-102925000D01*
X83900496Y-102923796D01*
X83876227Y-102920196D01*
X83852429Y-102914235D01*
X83829329Y-102905970D01*
X83807151Y-102895480D01*
X83786107Y-102882867D01*
X83766402Y-102868253D01*
X83748223Y-102851777D01*
X83731747Y-102833598D01*
X83717133Y-102813893D01*
X83704520Y-102792849D01*
X83694030Y-102770671D01*
X83685765Y-102747571D01*
X83679804Y-102723773D01*
X83676204Y-102699504D01*
X83675000Y-102675000D01*
X83675000Y-101425000D01*
X83676204Y-101400496D01*
X83679804Y-101376227D01*
X83685765Y-101352429D01*
X83694030Y-101329329D01*
X83704520Y-101307151D01*
X83717133Y-101286107D01*
X83731747Y-101266402D01*
X83748223Y-101248223D01*
X83766402Y-101231747D01*
X83786107Y-101217133D01*
X83807151Y-101204520D01*
X83829329Y-101194030D01*
X83852429Y-101185765D01*
X83876227Y-101179804D01*
X83900496Y-101176204D01*
X83925000Y-101175000D01*
X84675000Y-101175000D01*
X84699504Y-101176204D01*
X84699504Y-101176204D01*
G37*
D13*
X84300000Y-102050000D03*
D12*
G36*
X81899504Y-101176204D02*
X81923773Y-101179804D01*
X81947571Y-101185765D01*
X81970671Y-101194030D01*
X81992849Y-101204520D01*
X82013893Y-101217133D01*
X82033598Y-101231747D01*
X82051777Y-101248223D01*
X82068253Y-101266402D01*
X82082867Y-101286107D01*
X82095480Y-101307151D01*
X82105970Y-101329329D01*
X82114235Y-101352429D01*
X82120196Y-101376227D01*
X82123796Y-101400496D01*
X82125000Y-101425000D01*
X82125000Y-102675000D01*
X82123796Y-102699504D01*
X82120196Y-102723773D01*
X82114235Y-102747571D01*
X82105970Y-102770671D01*
X82095480Y-102792849D01*
X82082867Y-102813893D01*
X82068253Y-102833598D01*
X82051777Y-102851777D01*
X82033598Y-102868253D01*
X82013893Y-102882867D01*
X81992849Y-102895480D01*
X81970671Y-102905970D01*
X81947571Y-102914235D01*
X81923773Y-102920196D01*
X81899504Y-102923796D01*
X81875000Y-102925000D01*
X81125000Y-102925000D01*
X81100496Y-102923796D01*
X81076227Y-102920196D01*
X81052429Y-102914235D01*
X81029329Y-102905970D01*
X81007151Y-102895480D01*
X80986107Y-102882867D01*
X80966402Y-102868253D01*
X80948223Y-102851777D01*
X80931747Y-102833598D01*
X80917133Y-102813893D01*
X80904520Y-102792849D01*
X80894030Y-102770671D01*
X80885765Y-102747571D01*
X80879804Y-102723773D01*
X80876204Y-102699504D01*
X80875000Y-102675000D01*
X80875000Y-101425000D01*
X80876204Y-101400496D01*
X80879804Y-101376227D01*
X80885765Y-101352429D01*
X80894030Y-101329329D01*
X80904520Y-101307151D01*
X80917133Y-101286107D01*
X80931747Y-101266402D01*
X80948223Y-101248223D01*
X80966402Y-101231747D01*
X80986107Y-101217133D01*
X81007151Y-101204520D01*
X81029329Y-101194030D01*
X81052429Y-101185765D01*
X81076227Y-101179804D01*
X81100496Y-101176204D01*
X81125000Y-101175000D01*
X81875000Y-101175000D01*
X81899504Y-101176204D01*
X81899504Y-101176204D01*
G37*
D13*
X81500000Y-102050000D03*
G04 #@! TD*
D12*
G04 #@! TO.C,C7*
G36*
X101149504Y-108276204D02*
X101173773Y-108279804D01*
X101197571Y-108285765D01*
X101220671Y-108294030D01*
X101242849Y-108304520D01*
X101263893Y-108317133D01*
X101283598Y-108331747D01*
X101301777Y-108348223D01*
X101318253Y-108366402D01*
X101332867Y-108386107D01*
X101345480Y-108407151D01*
X101355970Y-108429329D01*
X101364235Y-108452429D01*
X101370196Y-108476227D01*
X101373796Y-108500496D01*
X101375000Y-108525000D01*
X101375000Y-109275000D01*
X101373796Y-109299504D01*
X101370196Y-109323773D01*
X101364235Y-109347571D01*
X101355970Y-109370671D01*
X101345480Y-109392849D01*
X101332867Y-109413893D01*
X101318253Y-109433598D01*
X101301777Y-109451777D01*
X101283598Y-109468253D01*
X101263893Y-109482867D01*
X101242849Y-109495480D01*
X101220671Y-109505970D01*
X101197571Y-109514235D01*
X101173773Y-109520196D01*
X101149504Y-109523796D01*
X101125000Y-109525000D01*
X99875000Y-109525000D01*
X99850496Y-109523796D01*
X99826227Y-109520196D01*
X99802429Y-109514235D01*
X99779329Y-109505970D01*
X99757151Y-109495480D01*
X99736107Y-109482867D01*
X99716402Y-109468253D01*
X99698223Y-109451777D01*
X99681747Y-109433598D01*
X99667133Y-109413893D01*
X99654520Y-109392849D01*
X99644030Y-109370671D01*
X99635765Y-109347571D01*
X99629804Y-109323773D01*
X99626204Y-109299504D01*
X99625000Y-109275000D01*
X99625000Y-108525000D01*
X99626204Y-108500496D01*
X99629804Y-108476227D01*
X99635765Y-108452429D01*
X99644030Y-108429329D01*
X99654520Y-108407151D01*
X99667133Y-108386107D01*
X99681747Y-108366402D01*
X99698223Y-108348223D01*
X99716402Y-108331747D01*
X99736107Y-108317133D01*
X99757151Y-108304520D01*
X99779329Y-108294030D01*
X99802429Y-108285765D01*
X99826227Y-108279804D01*
X99850496Y-108276204D01*
X99875000Y-108275000D01*
X101125000Y-108275000D01*
X101149504Y-108276204D01*
X101149504Y-108276204D01*
G37*
D13*
X100500000Y-108900000D03*
D12*
G36*
X101149504Y-105476204D02*
X101173773Y-105479804D01*
X101197571Y-105485765D01*
X101220671Y-105494030D01*
X101242849Y-105504520D01*
X101263893Y-105517133D01*
X101283598Y-105531747D01*
X101301777Y-105548223D01*
X101318253Y-105566402D01*
X101332867Y-105586107D01*
X101345480Y-105607151D01*
X101355970Y-105629329D01*
X101364235Y-105652429D01*
X101370196Y-105676227D01*
X101373796Y-105700496D01*
X101375000Y-105725000D01*
X101375000Y-106475000D01*
X101373796Y-106499504D01*
X101370196Y-106523773D01*
X101364235Y-106547571D01*
X101355970Y-106570671D01*
X101345480Y-106592849D01*
X101332867Y-106613893D01*
X101318253Y-106633598D01*
X101301777Y-106651777D01*
X101283598Y-106668253D01*
X101263893Y-106682867D01*
X101242849Y-106695480D01*
X101220671Y-106705970D01*
X101197571Y-106714235D01*
X101173773Y-106720196D01*
X101149504Y-106723796D01*
X101125000Y-106725000D01*
X99875000Y-106725000D01*
X99850496Y-106723796D01*
X99826227Y-106720196D01*
X99802429Y-106714235D01*
X99779329Y-106705970D01*
X99757151Y-106695480D01*
X99736107Y-106682867D01*
X99716402Y-106668253D01*
X99698223Y-106651777D01*
X99681747Y-106633598D01*
X99667133Y-106613893D01*
X99654520Y-106592849D01*
X99644030Y-106570671D01*
X99635765Y-106547571D01*
X99629804Y-106523773D01*
X99626204Y-106499504D01*
X99625000Y-106475000D01*
X99625000Y-105725000D01*
X99626204Y-105700496D01*
X99629804Y-105676227D01*
X99635765Y-105652429D01*
X99644030Y-105629329D01*
X99654520Y-105607151D01*
X99667133Y-105586107D01*
X99681747Y-105566402D01*
X99698223Y-105548223D01*
X99716402Y-105531747D01*
X99736107Y-105517133D01*
X99757151Y-105504520D01*
X99779329Y-105494030D01*
X99802429Y-105485765D01*
X99826227Y-105479804D01*
X99850496Y-105476204D01*
X99875000Y-105475000D01*
X101125000Y-105475000D01*
X101149504Y-105476204D01*
X101149504Y-105476204D01*
G37*
D13*
X100500000Y-106100000D03*
G04 #@! TD*
D12*
G04 #@! TO.C,C8*
G36*
X105574504Y-111951204D02*
X105598773Y-111954804D01*
X105622571Y-111960765D01*
X105645671Y-111969030D01*
X105667849Y-111979520D01*
X105688893Y-111992133D01*
X105708598Y-112006747D01*
X105726777Y-112023223D01*
X105743253Y-112041402D01*
X105757867Y-112061107D01*
X105770480Y-112082151D01*
X105780970Y-112104329D01*
X105789235Y-112127429D01*
X105795196Y-112151227D01*
X105798796Y-112175496D01*
X105800000Y-112200000D01*
X105800000Y-114700000D01*
X105798796Y-114724504D01*
X105795196Y-114748773D01*
X105789235Y-114772571D01*
X105780970Y-114795671D01*
X105770480Y-114817849D01*
X105757867Y-114838893D01*
X105743253Y-114858598D01*
X105726777Y-114876777D01*
X105708598Y-114893253D01*
X105688893Y-114907867D01*
X105667849Y-114920480D01*
X105645671Y-114930970D01*
X105622571Y-114939235D01*
X105598773Y-114945196D01*
X105574504Y-114948796D01*
X105550000Y-114950000D01*
X104450000Y-114950000D01*
X104425496Y-114948796D01*
X104401227Y-114945196D01*
X104377429Y-114939235D01*
X104354329Y-114930970D01*
X104332151Y-114920480D01*
X104311107Y-114907867D01*
X104291402Y-114893253D01*
X104273223Y-114876777D01*
X104256747Y-114858598D01*
X104242133Y-114838893D01*
X104229520Y-114817849D01*
X104219030Y-114795671D01*
X104210765Y-114772571D01*
X104204804Y-114748773D01*
X104201204Y-114724504D01*
X104200000Y-114700000D01*
X104200000Y-112200000D01*
X104201204Y-112175496D01*
X104204804Y-112151227D01*
X104210765Y-112127429D01*
X104219030Y-112104329D01*
X104229520Y-112082151D01*
X104242133Y-112061107D01*
X104256747Y-112041402D01*
X104273223Y-112023223D01*
X104291402Y-112006747D01*
X104311107Y-111992133D01*
X104332151Y-111979520D01*
X104354329Y-111969030D01*
X104377429Y-111960765D01*
X104401227Y-111954804D01*
X104425496Y-111951204D01*
X104450000Y-111950000D01*
X105550000Y-111950000D01*
X105574504Y-111951204D01*
X105574504Y-111951204D01*
G37*
D14*
X105000000Y-113450000D03*
D12*
G36*
X105574504Y-107551204D02*
X105598773Y-107554804D01*
X105622571Y-107560765D01*
X105645671Y-107569030D01*
X105667849Y-107579520D01*
X105688893Y-107592133D01*
X105708598Y-107606747D01*
X105726777Y-107623223D01*
X105743253Y-107641402D01*
X105757867Y-107661107D01*
X105770480Y-107682151D01*
X105780970Y-107704329D01*
X105789235Y-107727429D01*
X105795196Y-107751227D01*
X105798796Y-107775496D01*
X105800000Y-107800000D01*
X105800000Y-110300000D01*
X105798796Y-110324504D01*
X105795196Y-110348773D01*
X105789235Y-110372571D01*
X105780970Y-110395671D01*
X105770480Y-110417849D01*
X105757867Y-110438893D01*
X105743253Y-110458598D01*
X105726777Y-110476777D01*
X105708598Y-110493253D01*
X105688893Y-110507867D01*
X105667849Y-110520480D01*
X105645671Y-110530970D01*
X105622571Y-110539235D01*
X105598773Y-110545196D01*
X105574504Y-110548796D01*
X105550000Y-110550000D01*
X104450000Y-110550000D01*
X104425496Y-110548796D01*
X104401227Y-110545196D01*
X104377429Y-110539235D01*
X104354329Y-110530970D01*
X104332151Y-110520480D01*
X104311107Y-110507867D01*
X104291402Y-110493253D01*
X104273223Y-110476777D01*
X104256747Y-110458598D01*
X104242133Y-110438893D01*
X104229520Y-110417849D01*
X104219030Y-110395671D01*
X104210765Y-110372571D01*
X104204804Y-110348773D01*
X104201204Y-110324504D01*
X104200000Y-110300000D01*
X104200000Y-107800000D01*
X104201204Y-107775496D01*
X104204804Y-107751227D01*
X104210765Y-107727429D01*
X104219030Y-107704329D01*
X104229520Y-107682151D01*
X104242133Y-107661107D01*
X104256747Y-107641402D01*
X104273223Y-107623223D01*
X104291402Y-107606747D01*
X104311107Y-107592133D01*
X104332151Y-107579520D01*
X104354329Y-107569030D01*
X104377429Y-107560765D01*
X104401227Y-107554804D01*
X104425496Y-107551204D01*
X104450000Y-107550000D01*
X105550000Y-107550000D01*
X105574504Y-107551204D01*
X105574504Y-107551204D01*
G37*
D14*
X105000000Y-109050000D03*
G04 #@! TD*
D12*
G04 #@! TO.C,C9*
G36*
X99499504Y-85626204D02*
X99523773Y-85629804D01*
X99547571Y-85635765D01*
X99570671Y-85644030D01*
X99592849Y-85654520D01*
X99613893Y-85667133D01*
X99633598Y-85681747D01*
X99651777Y-85698223D01*
X99668253Y-85716402D01*
X99682867Y-85736107D01*
X99695480Y-85757151D01*
X99705970Y-85779329D01*
X99714235Y-85802429D01*
X99720196Y-85826227D01*
X99723796Y-85850496D01*
X99725000Y-85875000D01*
X99725000Y-87125000D01*
X99723796Y-87149504D01*
X99720196Y-87173773D01*
X99714235Y-87197571D01*
X99705970Y-87220671D01*
X99695480Y-87242849D01*
X99682867Y-87263893D01*
X99668253Y-87283598D01*
X99651777Y-87301777D01*
X99633598Y-87318253D01*
X99613893Y-87332867D01*
X99592849Y-87345480D01*
X99570671Y-87355970D01*
X99547571Y-87364235D01*
X99523773Y-87370196D01*
X99499504Y-87373796D01*
X99475000Y-87375000D01*
X98725000Y-87375000D01*
X98700496Y-87373796D01*
X98676227Y-87370196D01*
X98652429Y-87364235D01*
X98629329Y-87355970D01*
X98607151Y-87345480D01*
X98586107Y-87332867D01*
X98566402Y-87318253D01*
X98548223Y-87301777D01*
X98531747Y-87283598D01*
X98517133Y-87263893D01*
X98504520Y-87242849D01*
X98494030Y-87220671D01*
X98485765Y-87197571D01*
X98479804Y-87173773D01*
X98476204Y-87149504D01*
X98475000Y-87125000D01*
X98475000Y-85875000D01*
X98476204Y-85850496D01*
X98479804Y-85826227D01*
X98485765Y-85802429D01*
X98494030Y-85779329D01*
X98504520Y-85757151D01*
X98517133Y-85736107D01*
X98531747Y-85716402D01*
X98548223Y-85698223D01*
X98566402Y-85681747D01*
X98586107Y-85667133D01*
X98607151Y-85654520D01*
X98629329Y-85644030D01*
X98652429Y-85635765D01*
X98676227Y-85629804D01*
X98700496Y-85626204D01*
X98725000Y-85625000D01*
X99475000Y-85625000D01*
X99499504Y-85626204D01*
X99499504Y-85626204D01*
G37*
D13*
X99100000Y-86500000D03*
D12*
G36*
X102299504Y-85626204D02*
X102323773Y-85629804D01*
X102347571Y-85635765D01*
X102370671Y-85644030D01*
X102392849Y-85654520D01*
X102413893Y-85667133D01*
X102433598Y-85681747D01*
X102451777Y-85698223D01*
X102468253Y-85716402D01*
X102482867Y-85736107D01*
X102495480Y-85757151D01*
X102505970Y-85779329D01*
X102514235Y-85802429D01*
X102520196Y-85826227D01*
X102523796Y-85850496D01*
X102525000Y-85875000D01*
X102525000Y-87125000D01*
X102523796Y-87149504D01*
X102520196Y-87173773D01*
X102514235Y-87197571D01*
X102505970Y-87220671D01*
X102495480Y-87242849D01*
X102482867Y-87263893D01*
X102468253Y-87283598D01*
X102451777Y-87301777D01*
X102433598Y-87318253D01*
X102413893Y-87332867D01*
X102392849Y-87345480D01*
X102370671Y-87355970D01*
X102347571Y-87364235D01*
X102323773Y-87370196D01*
X102299504Y-87373796D01*
X102275000Y-87375000D01*
X101525000Y-87375000D01*
X101500496Y-87373796D01*
X101476227Y-87370196D01*
X101452429Y-87364235D01*
X101429329Y-87355970D01*
X101407151Y-87345480D01*
X101386107Y-87332867D01*
X101366402Y-87318253D01*
X101348223Y-87301777D01*
X101331747Y-87283598D01*
X101317133Y-87263893D01*
X101304520Y-87242849D01*
X101294030Y-87220671D01*
X101285765Y-87197571D01*
X101279804Y-87173773D01*
X101276204Y-87149504D01*
X101275000Y-87125000D01*
X101275000Y-85875000D01*
X101276204Y-85850496D01*
X101279804Y-85826227D01*
X101285765Y-85802429D01*
X101294030Y-85779329D01*
X101304520Y-85757151D01*
X101317133Y-85736107D01*
X101331747Y-85716402D01*
X101348223Y-85698223D01*
X101366402Y-85681747D01*
X101386107Y-85667133D01*
X101407151Y-85654520D01*
X101429329Y-85644030D01*
X101452429Y-85635765D01*
X101476227Y-85629804D01*
X101500496Y-85626204D01*
X101525000Y-85625000D01*
X102275000Y-85625000D01*
X102299504Y-85626204D01*
X102299504Y-85626204D01*
G37*
D13*
X101900000Y-86500000D03*
G04 #@! TD*
D12*
G04 #@! TO.C,C10*
G36*
X101049504Y-98276204D02*
X101073773Y-98279804D01*
X101097571Y-98285765D01*
X101120671Y-98294030D01*
X101142849Y-98304520D01*
X101163893Y-98317133D01*
X101183598Y-98331747D01*
X101201777Y-98348223D01*
X101218253Y-98366402D01*
X101232867Y-98386107D01*
X101245480Y-98407151D01*
X101255970Y-98429329D01*
X101264235Y-98452429D01*
X101270196Y-98476227D01*
X101273796Y-98500496D01*
X101275000Y-98525000D01*
X101275000Y-99275000D01*
X101273796Y-99299504D01*
X101270196Y-99323773D01*
X101264235Y-99347571D01*
X101255970Y-99370671D01*
X101245480Y-99392849D01*
X101232867Y-99413893D01*
X101218253Y-99433598D01*
X101201777Y-99451777D01*
X101183598Y-99468253D01*
X101163893Y-99482867D01*
X101142849Y-99495480D01*
X101120671Y-99505970D01*
X101097571Y-99514235D01*
X101073773Y-99520196D01*
X101049504Y-99523796D01*
X101025000Y-99525000D01*
X99775000Y-99525000D01*
X99750496Y-99523796D01*
X99726227Y-99520196D01*
X99702429Y-99514235D01*
X99679329Y-99505970D01*
X99657151Y-99495480D01*
X99636107Y-99482867D01*
X99616402Y-99468253D01*
X99598223Y-99451777D01*
X99581747Y-99433598D01*
X99567133Y-99413893D01*
X99554520Y-99392849D01*
X99544030Y-99370671D01*
X99535765Y-99347571D01*
X99529804Y-99323773D01*
X99526204Y-99299504D01*
X99525000Y-99275000D01*
X99525000Y-98525000D01*
X99526204Y-98500496D01*
X99529804Y-98476227D01*
X99535765Y-98452429D01*
X99544030Y-98429329D01*
X99554520Y-98407151D01*
X99567133Y-98386107D01*
X99581747Y-98366402D01*
X99598223Y-98348223D01*
X99616402Y-98331747D01*
X99636107Y-98317133D01*
X99657151Y-98304520D01*
X99679329Y-98294030D01*
X99702429Y-98285765D01*
X99726227Y-98279804D01*
X99750496Y-98276204D01*
X99775000Y-98275000D01*
X101025000Y-98275000D01*
X101049504Y-98276204D01*
X101049504Y-98276204D01*
G37*
D13*
X100400000Y-98900000D03*
D12*
G36*
X101049504Y-95476204D02*
X101073773Y-95479804D01*
X101097571Y-95485765D01*
X101120671Y-95494030D01*
X101142849Y-95504520D01*
X101163893Y-95517133D01*
X101183598Y-95531747D01*
X101201777Y-95548223D01*
X101218253Y-95566402D01*
X101232867Y-95586107D01*
X101245480Y-95607151D01*
X101255970Y-95629329D01*
X101264235Y-95652429D01*
X101270196Y-95676227D01*
X101273796Y-95700496D01*
X101275000Y-95725000D01*
X101275000Y-96475000D01*
X101273796Y-96499504D01*
X101270196Y-96523773D01*
X101264235Y-96547571D01*
X101255970Y-96570671D01*
X101245480Y-96592849D01*
X101232867Y-96613893D01*
X101218253Y-96633598D01*
X101201777Y-96651777D01*
X101183598Y-96668253D01*
X101163893Y-96682867D01*
X101142849Y-96695480D01*
X101120671Y-96705970D01*
X101097571Y-96714235D01*
X101073773Y-96720196D01*
X101049504Y-96723796D01*
X101025000Y-96725000D01*
X99775000Y-96725000D01*
X99750496Y-96723796D01*
X99726227Y-96720196D01*
X99702429Y-96714235D01*
X99679329Y-96705970D01*
X99657151Y-96695480D01*
X99636107Y-96682867D01*
X99616402Y-96668253D01*
X99598223Y-96651777D01*
X99581747Y-96633598D01*
X99567133Y-96613893D01*
X99554520Y-96592849D01*
X99544030Y-96570671D01*
X99535765Y-96547571D01*
X99529804Y-96523773D01*
X99526204Y-96499504D01*
X99525000Y-96475000D01*
X99525000Y-95725000D01*
X99526204Y-95700496D01*
X99529804Y-95676227D01*
X99535765Y-95652429D01*
X99544030Y-95629329D01*
X99554520Y-95607151D01*
X99567133Y-95586107D01*
X99581747Y-95566402D01*
X99598223Y-95548223D01*
X99616402Y-95531747D01*
X99636107Y-95517133D01*
X99657151Y-95504520D01*
X99679329Y-95494030D01*
X99702429Y-95485765D01*
X99726227Y-95479804D01*
X99750496Y-95476204D01*
X99775000Y-95475000D01*
X101025000Y-95475000D01*
X101049504Y-95476204D01*
X101049504Y-95476204D01*
G37*
D13*
X100400000Y-96100000D03*
G04 #@! TD*
D12*
G04 #@! TO.C,D1*
G36*
X128949504Y-115776204D02*
X128973773Y-115779804D01*
X128997571Y-115785765D01*
X129020671Y-115794030D01*
X129042849Y-115804520D01*
X129063893Y-115817133D01*
X129083598Y-115831747D01*
X129101777Y-115848223D01*
X129118253Y-115866402D01*
X129132867Y-115886107D01*
X129145480Y-115907151D01*
X129155970Y-115929329D01*
X129164235Y-115952429D01*
X129170196Y-115976227D01*
X129173796Y-116000496D01*
X129175000Y-116025000D01*
X129175000Y-116950000D01*
X129173796Y-116974504D01*
X129170196Y-116998773D01*
X129164235Y-117022571D01*
X129155970Y-117045671D01*
X129145480Y-117067849D01*
X129132867Y-117088893D01*
X129118253Y-117108598D01*
X129101777Y-117126777D01*
X129083598Y-117143253D01*
X129063893Y-117157867D01*
X129042849Y-117170480D01*
X129020671Y-117180970D01*
X128997571Y-117189235D01*
X128973773Y-117195196D01*
X128949504Y-117198796D01*
X128925000Y-117200000D01*
X127675000Y-117200000D01*
X127650496Y-117198796D01*
X127626227Y-117195196D01*
X127602429Y-117189235D01*
X127579329Y-117180970D01*
X127557151Y-117170480D01*
X127536107Y-117157867D01*
X127516402Y-117143253D01*
X127498223Y-117126777D01*
X127481747Y-117108598D01*
X127467133Y-117088893D01*
X127454520Y-117067849D01*
X127444030Y-117045671D01*
X127435765Y-117022571D01*
X127429804Y-116998773D01*
X127426204Y-116974504D01*
X127425000Y-116950000D01*
X127425000Y-116025000D01*
X127426204Y-116000496D01*
X127429804Y-115976227D01*
X127435765Y-115952429D01*
X127444030Y-115929329D01*
X127454520Y-115907151D01*
X127467133Y-115886107D01*
X127481747Y-115866402D01*
X127498223Y-115848223D01*
X127516402Y-115831747D01*
X127536107Y-115817133D01*
X127557151Y-115804520D01*
X127579329Y-115794030D01*
X127602429Y-115785765D01*
X127626227Y-115779804D01*
X127650496Y-115776204D01*
X127675000Y-115775000D01*
X128925000Y-115775000D01*
X128949504Y-115776204D01*
X128949504Y-115776204D01*
G37*
D15*
X128300000Y-116487500D03*
D12*
G36*
X128949504Y-112801204D02*
X128973773Y-112804804D01*
X128997571Y-112810765D01*
X129020671Y-112819030D01*
X129042849Y-112829520D01*
X129063893Y-112842133D01*
X129083598Y-112856747D01*
X129101777Y-112873223D01*
X129118253Y-112891402D01*
X129132867Y-112911107D01*
X129145480Y-112932151D01*
X129155970Y-112954329D01*
X129164235Y-112977429D01*
X129170196Y-113001227D01*
X129173796Y-113025496D01*
X129175000Y-113050000D01*
X129175000Y-113975000D01*
X129173796Y-113999504D01*
X129170196Y-114023773D01*
X129164235Y-114047571D01*
X129155970Y-114070671D01*
X129145480Y-114092849D01*
X129132867Y-114113893D01*
X129118253Y-114133598D01*
X129101777Y-114151777D01*
X129083598Y-114168253D01*
X129063893Y-114182867D01*
X129042849Y-114195480D01*
X129020671Y-114205970D01*
X128997571Y-114214235D01*
X128973773Y-114220196D01*
X128949504Y-114223796D01*
X128925000Y-114225000D01*
X127675000Y-114225000D01*
X127650496Y-114223796D01*
X127626227Y-114220196D01*
X127602429Y-114214235D01*
X127579329Y-114205970D01*
X127557151Y-114195480D01*
X127536107Y-114182867D01*
X127516402Y-114168253D01*
X127498223Y-114151777D01*
X127481747Y-114133598D01*
X127467133Y-114113893D01*
X127454520Y-114092849D01*
X127444030Y-114070671D01*
X127435765Y-114047571D01*
X127429804Y-114023773D01*
X127426204Y-113999504D01*
X127425000Y-113975000D01*
X127425000Y-113050000D01*
X127426204Y-113025496D01*
X127429804Y-113001227D01*
X127435765Y-112977429D01*
X127444030Y-112954329D01*
X127454520Y-112932151D01*
X127467133Y-112911107D01*
X127481747Y-112891402D01*
X127498223Y-112873223D01*
X127516402Y-112856747D01*
X127536107Y-112842133D01*
X127557151Y-112829520D01*
X127579329Y-112819030D01*
X127602429Y-112810765D01*
X127626227Y-112804804D01*
X127650496Y-112801204D01*
X127675000Y-112800000D01*
X128925000Y-112800000D01*
X128949504Y-112801204D01*
X128949504Y-112801204D01*
G37*
D15*
X128300000Y-113512500D03*
G04 #@! TD*
D12*
G04 #@! TO.C,D2*
G36*
X128999504Y-107301204D02*
X129023773Y-107304804D01*
X129047571Y-107310765D01*
X129070671Y-107319030D01*
X129092849Y-107329520D01*
X129113893Y-107342133D01*
X129133598Y-107356747D01*
X129151777Y-107373223D01*
X129168253Y-107391402D01*
X129182867Y-107411107D01*
X129195480Y-107432151D01*
X129205970Y-107454329D01*
X129214235Y-107477429D01*
X129220196Y-107501227D01*
X129223796Y-107525496D01*
X129225000Y-107550000D01*
X129225000Y-108475000D01*
X129223796Y-108499504D01*
X129220196Y-108523773D01*
X129214235Y-108547571D01*
X129205970Y-108570671D01*
X129195480Y-108592849D01*
X129182867Y-108613893D01*
X129168253Y-108633598D01*
X129151777Y-108651777D01*
X129133598Y-108668253D01*
X129113893Y-108682867D01*
X129092849Y-108695480D01*
X129070671Y-108705970D01*
X129047571Y-108714235D01*
X129023773Y-108720196D01*
X128999504Y-108723796D01*
X128975000Y-108725000D01*
X127725000Y-108725000D01*
X127700496Y-108723796D01*
X127676227Y-108720196D01*
X127652429Y-108714235D01*
X127629329Y-108705970D01*
X127607151Y-108695480D01*
X127586107Y-108682867D01*
X127566402Y-108668253D01*
X127548223Y-108651777D01*
X127531747Y-108633598D01*
X127517133Y-108613893D01*
X127504520Y-108592849D01*
X127494030Y-108570671D01*
X127485765Y-108547571D01*
X127479804Y-108523773D01*
X127476204Y-108499504D01*
X127475000Y-108475000D01*
X127475000Y-107550000D01*
X127476204Y-107525496D01*
X127479804Y-107501227D01*
X127485765Y-107477429D01*
X127494030Y-107454329D01*
X127504520Y-107432151D01*
X127517133Y-107411107D01*
X127531747Y-107391402D01*
X127548223Y-107373223D01*
X127566402Y-107356747D01*
X127586107Y-107342133D01*
X127607151Y-107329520D01*
X127629329Y-107319030D01*
X127652429Y-107310765D01*
X127676227Y-107304804D01*
X127700496Y-107301204D01*
X127725000Y-107300000D01*
X128975000Y-107300000D01*
X128999504Y-107301204D01*
X128999504Y-107301204D01*
G37*
D15*
X128350000Y-108012500D03*
D12*
G36*
X128999504Y-110276204D02*
X129023773Y-110279804D01*
X129047571Y-110285765D01*
X129070671Y-110294030D01*
X129092849Y-110304520D01*
X129113893Y-110317133D01*
X129133598Y-110331747D01*
X129151777Y-110348223D01*
X129168253Y-110366402D01*
X129182867Y-110386107D01*
X129195480Y-110407151D01*
X129205970Y-110429329D01*
X129214235Y-110452429D01*
X129220196Y-110476227D01*
X129223796Y-110500496D01*
X129225000Y-110525000D01*
X129225000Y-111450000D01*
X129223796Y-111474504D01*
X129220196Y-111498773D01*
X129214235Y-111522571D01*
X129205970Y-111545671D01*
X129195480Y-111567849D01*
X129182867Y-111588893D01*
X129168253Y-111608598D01*
X129151777Y-111626777D01*
X129133598Y-111643253D01*
X129113893Y-111657867D01*
X129092849Y-111670480D01*
X129070671Y-111680970D01*
X129047571Y-111689235D01*
X129023773Y-111695196D01*
X128999504Y-111698796D01*
X128975000Y-111700000D01*
X127725000Y-111700000D01*
X127700496Y-111698796D01*
X127676227Y-111695196D01*
X127652429Y-111689235D01*
X127629329Y-111680970D01*
X127607151Y-111670480D01*
X127586107Y-111657867D01*
X127566402Y-111643253D01*
X127548223Y-111626777D01*
X127531747Y-111608598D01*
X127517133Y-111588893D01*
X127504520Y-111567849D01*
X127494030Y-111545671D01*
X127485765Y-111522571D01*
X127479804Y-111498773D01*
X127476204Y-111474504D01*
X127475000Y-111450000D01*
X127475000Y-110525000D01*
X127476204Y-110500496D01*
X127479804Y-110476227D01*
X127485765Y-110452429D01*
X127494030Y-110429329D01*
X127504520Y-110407151D01*
X127517133Y-110386107D01*
X127531747Y-110366402D01*
X127548223Y-110348223D01*
X127566402Y-110331747D01*
X127586107Y-110317133D01*
X127607151Y-110304520D01*
X127629329Y-110294030D01*
X127652429Y-110285765D01*
X127676227Y-110279804D01*
X127700496Y-110276204D01*
X127725000Y-110275000D01*
X128975000Y-110275000D01*
X128999504Y-110276204D01*
X128999504Y-110276204D01*
G37*
D15*
X128350000Y-110987500D03*
G04 #@! TD*
D12*
G04 #@! TO.C,D3*
G36*
X98174504Y-114576204D02*
X98198773Y-114579804D01*
X98222571Y-114585765D01*
X98245671Y-114594030D01*
X98267849Y-114604520D01*
X98288893Y-114617133D01*
X98308598Y-114631747D01*
X98326777Y-114648223D01*
X98343253Y-114666402D01*
X98357867Y-114686107D01*
X98370480Y-114707151D01*
X98380970Y-114729329D01*
X98389235Y-114752429D01*
X98395196Y-114776227D01*
X98398796Y-114800496D01*
X98400000Y-114825000D01*
X98400000Y-116075000D01*
X98398796Y-116099504D01*
X98395196Y-116123773D01*
X98389235Y-116147571D01*
X98380970Y-116170671D01*
X98370480Y-116192849D01*
X98357867Y-116213893D01*
X98343253Y-116233598D01*
X98326777Y-116251777D01*
X98308598Y-116268253D01*
X98288893Y-116282867D01*
X98267849Y-116295480D01*
X98245671Y-116305970D01*
X98222571Y-116314235D01*
X98198773Y-116320196D01*
X98174504Y-116323796D01*
X98150000Y-116325000D01*
X97225000Y-116325000D01*
X97200496Y-116323796D01*
X97176227Y-116320196D01*
X97152429Y-116314235D01*
X97129329Y-116305970D01*
X97107151Y-116295480D01*
X97086107Y-116282867D01*
X97066402Y-116268253D01*
X97048223Y-116251777D01*
X97031747Y-116233598D01*
X97017133Y-116213893D01*
X97004520Y-116192849D01*
X96994030Y-116170671D01*
X96985765Y-116147571D01*
X96979804Y-116123773D01*
X96976204Y-116099504D01*
X96975000Y-116075000D01*
X96975000Y-114825000D01*
X96976204Y-114800496D01*
X96979804Y-114776227D01*
X96985765Y-114752429D01*
X96994030Y-114729329D01*
X97004520Y-114707151D01*
X97017133Y-114686107D01*
X97031747Y-114666402D01*
X97048223Y-114648223D01*
X97066402Y-114631747D01*
X97086107Y-114617133D01*
X97107151Y-114604520D01*
X97129329Y-114594030D01*
X97152429Y-114585765D01*
X97176227Y-114579804D01*
X97200496Y-114576204D01*
X97225000Y-114575000D01*
X98150000Y-114575000D01*
X98174504Y-114576204D01*
X98174504Y-114576204D01*
G37*
D15*
X97687500Y-115450000D03*
D12*
G36*
X95199504Y-114576204D02*
X95223773Y-114579804D01*
X95247571Y-114585765D01*
X95270671Y-114594030D01*
X95292849Y-114604520D01*
X95313893Y-114617133D01*
X95333598Y-114631747D01*
X95351777Y-114648223D01*
X95368253Y-114666402D01*
X95382867Y-114686107D01*
X95395480Y-114707151D01*
X95405970Y-114729329D01*
X95414235Y-114752429D01*
X95420196Y-114776227D01*
X95423796Y-114800496D01*
X95425000Y-114825000D01*
X95425000Y-116075000D01*
X95423796Y-116099504D01*
X95420196Y-116123773D01*
X95414235Y-116147571D01*
X95405970Y-116170671D01*
X95395480Y-116192849D01*
X95382867Y-116213893D01*
X95368253Y-116233598D01*
X95351777Y-116251777D01*
X95333598Y-116268253D01*
X95313893Y-116282867D01*
X95292849Y-116295480D01*
X95270671Y-116305970D01*
X95247571Y-116314235D01*
X95223773Y-116320196D01*
X95199504Y-116323796D01*
X95175000Y-116325000D01*
X94250000Y-116325000D01*
X94225496Y-116323796D01*
X94201227Y-116320196D01*
X94177429Y-116314235D01*
X94154329Y-116305970D01*
X94132151Y-116295480D01*
X94111107Y-116282867D01*
X94091402Y-116268253D01*
X94073223Y-116251777D01*
X94056747Y-116233598D01*
X94042133Y-116213893D01*
X94029520Y-116192849D01*
X94019030Y-116170671D01*
X94010765Y-116147571D01*
X94004804Y-116123773D01*
X94001204Y-116099504D01*
X94000000Y-116075000D01*
X94000000Y-114825000D01*
X94001204Y-114800496D01*
X94004804Y-114776227D01*
X94010765Y-114752429D01*
X94019030Y-114729329D01*
X94029520Y-114707151D01*
X94042133Y-114686107D01*
X94056747Y-114666402D01*
X94073223Y-114648223D01*
X94091402Y-114631747D01*
X94111107Y-114617133D01*
X94132151Y-114604520D01*
X94154329Y-114594030D01*
X94177429Y-114585765D01*
X94201227Y-114579804D01*
X94225496Y-114576204D01*
X94250000Y-114575000D01*
X95175000Y-114575000D01*
X95199504Y-114576204D01*
X95199504Y-114576204D01*
G37*
D15*
X94712500Y-115450000D03*
G04 #@! TD*
D12*
G04 #@! TO.C,D4*
G36*
X88649504Y-114576204D02*
X88673773Y-114579804D01*
X88697571Y-114585765D01*
X88720671Y-114594030D01*
X88742849Y-114604520D01*
X88763893Y-114617133D01*
X88783598Y-114631747D01*
X88801777Y-114648223D01*
X88818253Y-114666402D01*
X88832867Y-114686107D01*
X88845480Y-114707151D01*
X88855970Y-114729329D01*
X88864235Y-114752429D01*
X88870196Y-114776227D01*
X88873796Y-114800496D01*
X88875000Y-114825000D01*
X88875000Y-116075000D01*
X88873796Y-116099504D01*
X88870196Y-116123773D01*
X88864235Y-116147571D01*
X88855970Y-116170671D01*
X88845480Y-116192849D01*
X88832867Y-116213893D01*
X88818253Y-116233598D01*
X88801777Y-116251777D01*
X88783598Y-116268253D01*
X88763893Y-116282867D01*
X88742849Y-116295480D01*
X88720671Y-116305970D01*
X88697571Y-116314235D01*
X88673773Y-116320196D01*
X88649504Y-116323796D01*
X88625000Y-116325000D01*
X87700000Y-116325000D01*
X87675496Y-116323796D01*
X87651227Y-116320196D01*
X87627429Y-116314235D01*
X87604329Y-116305970D01*
X87582151Y-116295480D01*
X87561107Y-116282867D01*
X87541402Y-116268253D01*
X87523223Y-116251777D01*
X87506747Y-116233598D01*
X87492133Y-116213893D01*
X87479520Y-116192849D01*
X87469030Y-116170671D01*
X87460765Y-116147571D01*
X87454804Y-116123773D01*
X87451204Y-116099504D01*
X87450000Y-116075000D01*
X87450000Y-114825000D01*
X87451204Y-114800496D01*
X87454804Y-114776227D01*
X87460765Y-114752429D01*
X87469030Y-114729329D01*
X87479520Y-114707151D01*
X87492133Y-114686107D01*
X87506747Y-114666402D01*
X87523223Y-114648223D01*
X87541402Y-114631747D01*
X87561107Y-114617133D01*
X87582151Y-114604520D01*
X87604329Y-114594030D01*
X87627429Y-114585765D01*
X87651227Y-114579804D01*
X87675496Y-114576204D01*
X87700000Y-114575000D01*
X88625000Y-114575000D01*
X88649504Y-114576204D01*
X88649504Y-114576204D01*
G37*
D15*
X88162500Y-115450000D03*
D12*
G36*
X91624504Y-114576204D02*
X91648773Y-114579804D01*
X91672571Y-114585765D01*
X91695671Y-114594030D01*
X91717849Y-114604520D01*
X91738893Y-114617133D01*
X91758598Y-114631747D01*
X91776777Y-114648223D01*
X91793253Y-114666402D01*
X91807867Y-114686107D01*
X91820480Y-114707151D01*
X91830970Y-114729329D01*
X91839235Y-114752429D01*
X91845196Y-114776227D01*
X91848796Y-114800496D01*
X91850000Y-114825000D01*
X91850000Y-116075000D01*
X91848796Y-116099504D01*
X91845196Y-116123773D01*
X91839235Y-116147571D01*
X91830970Y-116170671D01*
X91820480Y-116192849D01*
X91807867Y-116213893D01*
X91793253Y-116233598D01*
X91776777Y-116251777D01*
X91758598Y-116268253D01*
X91738893Y-116282867D01*
X91717849Y-116295480D01*
X91695671Y-116305970D01*
X91672571Y-116314235D01*
X91648773Y-116320196D01*
X91624504Y-116323796D01*
X91600000Y-116325000D01*
X90675000Y-116325000D01*
X90650496Y-116323796D01*
X90626227Y-116320196D01*
X90602429Y-116314235D01*
X90579329Y-116305970D01*
X90557151Y-116295480D01*
X90536107Y-116282867D01*
X90516402Y-116268253D01*
X90498223Y-116251777D01*
X90481747Y-116233598D01*
X90467133Y-116213893D01*
X90454520Y-116192849D01*
X90444030Y-116170671D01*
X90435765Y-116147571D01*
X90429804Y-116123773D01*
X90426204Y-116099504D01*
X90425000Y-116075000D01*
X90425000Y-114825000D01*
X90426204Y-114800496D01*
X90429804Y-114776227D01*
X90435765Y-114752429D01*
X90444030Y-114729329D01*
X90454520Y-114707151D01*
X90467133Y-114686107D01*
X90481747Y-114666402D01*
X90498223Y-114648223D01*
X90516402Y-114631747D01*
X90536107Y-114617133D01*
X90557151Y-114604520D01*
X90579329Y-114594030D01*
X90602429Y-114585765D01*
X90626227Y-114579804D01*
X90650496Y-114576204D01*
X90675000Y-114575000D01*
X91600000Y-114575000D01*
X91624504Y-114576204D01*
X91624504Y-114576204D01*
G37*
D15*
X91137500Y-115450000D03*
G04 #@! TD*
D16*
G04 #@! TO.C,Q3*
X92950000Y-107700000D03*
X92950000Y-105800000D03*
X90950000Y-106750000D03*
G04 #@! TD*
G04 #@! TO.C,Q4*
X93000000Y-99350000D03*
X93000000Y-97450000D03*
X91000000Y-98400000D03*
G04 #@! TD*
G04 #@! TO.C,Q5*
X92950000Y-103800000D03*
X92950000Y-101900000D03*
X90950000Y-102850000D03*
G04 #@! TD*
D17*
G04 #@! TO.C,Q10*
X123150000Y-116550000D03*
X125050000Y-116550000D03*
X124100000Y-114550000D03*
G04 #@! TD*
G04 #@! TO.C,Q11*
X124150000Y-108350000D03*
X125100000Y-110350000D03*
X123200000Y-110350000D03*
G04 #@! TD*
D12*
G04 #@! TO.C,R1*
G36*
X77174505Y-93751204D02*
X77198773Y-93754804D01*
X77222572Y-93760765D01*
X77245671Y-93769030D01*
X77267850Y-93779520D01*
X77288893Y-93792132D01*
X77308599Y-93806747D01*
X77326777Y-93823223D01*
X77343253Y-93841401D01*
X77357868Y-93861107D01*
X77370480Y-93882150D01*
X77380970Y-93904329D01*
X77389235Y-93927428D01*
X77395196Y-93951227D01*
X77398796Y-93975495D01*
X77400000Y-93999999D01*
X77400000Y-94650001D01*
X77398796Y-94674505D01*
X77395196Y-94698773D01*
X77389235Y-94722572D01*
X77380970Y-94745671D01*
X77370480Y-94767850D01*
X77357868Y-94788893D01*
X77343253Y-94808599D01*
X77326777Y-94826777D01*
X77308599Y-94843253D01*
X77288893Y-94857868D01*
X77267850Y-94870480D01*
X77245671Y-94880970D01*
X77222572Y-94889235D01*
X77198773Y-94895196D01*
X77174505Y-94898796D01*
X77150001Y-94900000D01*
X76249999Y-94900000D01*
X76225495Y-94898796D01*
X76201227Y-94895196D01*
X76177428Y-94889235D01*
X76154329Y-94880970D01*
X76132150Y-94870480D01*
X76111107Y-94857868D01*
X76091401Y-94843253D01*
X76073223Y-94826777D01*
X76056747Y-94808599D01*
X76042132Y-94788893D01*
X76029520Y-94767850D01*
X76019030Y-94745671D01*
X76010765Y-94722572D01*
X76004804Y-94698773D01*
X76001204Y-94674505D01*
X76000000Y-94650001D01*
X76000000Y-93999999D01*
X76001204Y-93975495D01*
X76004804Y-93951227D01*
X76010765Y-93927428D01*
X76019030Y-93904329D01*
X76029520Y-93882150D01*
X76042132Y-93861107D01*
X76056747Y-93841401D01*
X76073223Y-93823223D01*
X76091401Y-93806747D01*
X76111107Y-93792132D01*
X76132150Y-93779520D01*
X76154329Y-93769030D01*
X76177428Y-93760765D01*
X76201227Y-93754804D01*
X76225495Y-93751204D01*
X76249999Y-93750000D01*
X77150001Y-93750000D01*
X77174505Y-93751204D01*
X77174505Y-93751204D01*
G37*
D18*
X76700000Y-94325000D03*
D12*
G36*
X77174505Y-91701204D02*
X77198773Y-91704804D01*
X77222572Y-91710765D01*
X77245671Y-91719030D01*
X77267850Y-91729520D01*
X77288893Y-91742132D01*
X77308599Y-91756747D01*
X77326777Y-91773223D01*
X77343253Y-91791401D01*
X77357868Y-91811107D01*
X77370480Y-91832150D01*
X77380970Y-91854329D01*
X77389235Y-91877428D01*
X77395196Y-91901227D01*
X77398796Y-91925495D01*
X77400000Y-91949999D01*
X77400000Y-92600001D01*
X77398796Y-92624505D01*
X77395196Y-92648773D01*
X77389235Y-92672572D01*
X77380970Y-92695671D01*
X77370480Y-92717850D01*
X77357868Y-92738893D01*
X77343253Y-92758599D01*
X77326777Y-92776777D01*
X77308599Y-92793253D01*
X77288893Y-92807868D01*
X77267850Y-92820480D01*
X77245671Y-92830970D01*
X77222572Y-92839235D01*
X77198773Y-92845196D01*
X77174505Y-92848796D01*
X77150001Y-92850000D01*
X76249999Y-92850000D01*
X76225495Y-92848796D01*
X76201227Y-92845196D01*
X76177428Y-92839235D01*
X76154329Y-92830970D01*
X76132150Y-92820480D01*
X76111107Y-92807868D01*
X76091401Y-92793253D01*
X76073223Y-92776777D01*
X76056747Y-92758599D01*
X76042132Y-92738893D01*
X76029520Y-92717850D01*
X76019030Y-92695671D01*
X76010765Y-92672572D01*
X76004804Y-92648773D01*
X76001204Y-92624505D01*
X76000000Y-92600001D01*
X76000000Y-91949999D01*
X76001204Y-91925495D01*
X76004804Y-91901227D01*
X76010765Y-91877428D01*
X76019030Y-91854329D01*
X76029520Y-91832150D01*
X76042132Y-91811107D01*
X76056747Y-91791401D01*
X76073223Y-91773223D01*
X76091401Y-91756747D01*
X76111107Y-91742132D01*
X76132150Y-91729520D01*
X76154329Y-91719030D01*
X76177428Y-91710765D01*
X76201227Y-91704804D01*
X76225495Y-91701204D01*
X76249999Y-91700000D01*
X77150001Y-91700000D01*
X77174505Y-91701204D01*
X77174505Y-91701204D01*
G37*
D18*
X76700000Y-92275000D03*
G04 #@! TD*
D12*
G04 #@! TO.C,R2*
G36*
X77174505Y-95801204D02*
X77198773Y-95804804D01*
X77222572Y-95810765D01*
X77245671Y-95819030D01*
X77267850Y-95829520D01*
X77288893Y-95842132D01*
X77308599Y-95856747D01*
X77326777Y-95873223D01*
X77343253Y-95891401D01*
X77357868Y-95911107D01*
X77370480Y-95932150D01*
X77380970Y-95954329D01*
X77389235Y-95977428D01*
X77395196Y-96001227D01*
X77398796Y-96025495D01*
X77400000Y-96049999D01*
X77400000Y-96700001D01*
X77398796Y-96724505D01*
X77395196Y-96748773D01*
X77389235Y-96772572D01*
X77380970Y-96795671D01*
X77370480Y-96817850D01*
X77357868Y-96838893D01*
X77343253Y-96858599D01*
X77326777Y-96876777D01*
X77308599Y-96893253D01*
X77288893Y-96907868D01*
X77267850Y-96920480D01*
X77245671Y-96930970D01*
X77222572Y-96939235D01*
X77198773Y-96945196D01*
X77174505Y-96948796D01*
X77150001Y-96950000D01*
X76249999Y-96950000D01*
X76225495Y-96948796D01*
X76201227Y-96945196D01*
X76177428Y-96939235D01*
X76154329Y-96930970D01*
X76132150Y-96920480D01*
X76111107Y-96907868D01*
X76091401Y-96893253D01*
X76073223Y-96876777D01*
X76056747Y-96858599D01*
X76042132Y-96838893D01*
X76029520Y-96817850D01*
X76019030Y-96795671D01*
X76010765Y-96772572D01*
X76004804Y-96748773D01*
X76001204Y-96724505D01*
X76000000Y-96700001D01*
X76000000Y-96049999D01*
X76001204Y-96025495D01*
X76004804Y-96001227D01*
X76010765Y-95977428D01*
X76019030Y-95954329D01*
X76029520Y-95932150D01*
X76042132Y-95911107D01*
X76056747Y-95891401D01*
X76073223Y-95873223D01*
X76091401Y-95856747D01*
X76111107Y-95842132D01*
X76132150Y-95829520D01*
X76154329Y-95819030D01*
X76177428Y-95810765D01*
X76201227Y-95804804D01*
X76225495Y-95801204D01*
X76249999Y-95800000D01*
X77150001Y-95800000D01*
X77174505Y-95801204D01*
X77174505Y-95801204D01*
G37*
D18*
X76700000Y-96375000D03*
D12*
G36*
X77174505Y-97851204D02*
X77198773Y-97854804D01*
X77222572Y-97860765D01*
X77245671Y-97869030D01*
X77267850Y-97879520D01*
X77288893Y-97892132D01*
X77308599Y-97906747D01*
X77326777Y-97923223D01*
X77343253Y-97941401D01*
X77357868Y-97961107D01*
X77370480Y-97982150D01*
X77380970Y-98004329D01*
X77389235Y-98027428D01*
X77395196Y-98051227D01*
X77398796Y-98075495D01*
X77400000Y-98099999D01*
X77400000Y-98750001D01*
X77398796Y-98774505D01*
X77395196Y-98798773D01*
X77389235Y-98822572D01*
X77380970Y-98845671D01*
X77370480Y-98867850D01*
X77357868Y-98888893D01*
X77343253Y-98908599D01*
X77326777Y-98926777D01*
X77308599Y-98943253D01*
X77288893Y-98957868D01*
X77267850Y-98970480D01*
X77245671Y-98980970D01*
X77222572Y-98989235D01*
X77198773Y-98995196D01*
X77174505Y-98998796D01*
X77150001Y-99000000D01*
X76249999Y-99000000D01*
X76225495Y-98998796D01*
X76201227Y-98995196D01*
X76177428Y-98989235D01*
X76154329Y-98980970D01*
X76132150Y-98970480D01*
X76111107Y-98957868D01*
X76091401Y-98943253D01*
X76073223Y-98926777D01*
X76056747Y-98908599D01*
X76042132Y-98888893D01*
X76029520Y-98867850D01*
X76019030Y-98845671D01*
X76010765Y-98822572D01*
X76004804Y-98798773D01*
X76001204Y-98774505D01*
X76000000Y-98750001D01*
X76000000Y-98099999D01*
X76001204Y-98075495D01*
X76004804Y-98051227D01*
X76010765Y-98027428D01*
X76019030Y-98004329D01*
X76029520Y-97982150D01*
X76042132Y-97961107D01*
X76056747Y-97941401D01*
X76073223Y-97923223D01*
X76091401Y-97906747D01*
X76111107Y-97892132D01*
X76132150Y-97879520D01*
X76154329Y-97869030D01*
X76177428Y-97860765D01*
X76201227Y-97854804D01*
X76225495Y-97851204D01*
X76249999Y-97850000D01*
X77150001Y-97850000D01*
X77174505Y-97851204D01*
X77174505Y-97851204D01*
G37*
D18*
X76700000Y-98425000D03*
G04 #@! TD*
D12*
G04 #@! TO.C,R3*
G36*
X77174505Y-101951204D02*
X77198773Y-101954804D01*
X77222572Y-101960765D01*
X77245671Y-101969030D01*
X77267850Y-101979520D01*
X77288893Y-101992132D01*
X77308599Y-102006747D01*
X77326777Y-102023223D01*
X77343253Y-102041401D01*
X77357868Y-102061107D01*
X77370480Y-102082150D01*
X77380970Y-102104329D01*
X77389235Y-102127428D01*
X77395196Y-102151227D01*
X77398796Y-102175495D01*
X77400000Y-102199999D01*
X77400000Y-102850001D01*
X77398796Y-102874505D01*
X77395196Y-102898773D01*
X77389235Y-102922572D01*
X77380970Y-102945671D01*
X77370480Y-102967850D01*
X77357868Y-102988893D01*
X77343253Y-103008599D01*
X77326777Y-103026777D01*
X77308599Y-103043253D01*
X77288893Y-103057868D01*
X77267850Y-103070480D01*
X77245671Y-103080970D01*
X77222572Y-103089235D01*
X77198773Y-103095196D01*
X77174505Y-103098796D01*
X77150001Y-103100000D01*
X76249999Y-103100000D01*
X76225495Y-103098796D01*
X76201227Y-103095196D01*
X76177428Y-103089235D01*
X76154329Y-103080970D01*
X76132150Y-103070480D01*
X76111107Y-103057868D01*
X76091401Y-103043253D01*
X76073223Y-103026777D01*
X76056747Y-103008599D01*
X76042132Y-102988893D01*
X76029520Y-102967850D01*
X76019030Y-102945671D01*
X76010765Y-102922572D01*
X76004804Y-102898773D01*
X76001204Y-102874505D01*
X76000000Y-102850001D01*
X76000000Y-102199999D01*
X76001204Y-102175495D01*
X76004804Y-102151227D01*
X76010765Y-102127428D01*
X76019030Y-102104329D01*
X76029520Y-102082150D01*
X76042132Y-102061107D01*
X76056747Y-102041401D01*
X76073223Y-102023223D01*
X76091401Y-102006747D01*
X76111107Y-101992132D01*
X76132150Y-101979520D01*
X76154329Y-101969030D01*
X76177428Y-101960765D01*
X76201227Y-101954804D01*
X76225495Y-101951204D01*
X76249999Y-101950000D01*
X77150001Y-101950000D01*
X77174505Y-101951204D01*
X77174505Y-101951204D01*
G37*
D18*
X76700000Y-102525000D03*
D12*
G36*
X77174505Y-99901204D02*
X77198773Y-99904804D01*
X77222572Y-99910765D01*
X77245671Y-99919030D01*
X77267850Y-99929520D01*
X77288893Y-99942132D01*
X77308599Y-99956747D01*
X77326777Y-99973223D01*
X77343253Y-99991401D01*
X77357868Y-100011107D01*
X77370480Y-100032150D01*
X77380970Y-100054329D01*
X77389235Y-100077428D01*
X77395196Y-100101227D01*
X77398796Y-100125495D01*
X77400000Y-100149999D01*
X77400000Y-100800001D01*
X77398796Y-100824505D01*
X77395196Y-100848773D01*
X77389235Y-100872572D01*
X77380970Y-100895671D01*
X77370480Y-100917850D01*
X77357868Y-100938893D01*
X77343253Y-100958599D01*
X77326777Y-100976777D01*
X77308599Y-100993253D01*
X77288893Y-101007868D01*
X77267850Y-101020480D01*
X77245671Y-101030970D01*
X77222572Y-101039235D01*
X77198773Y-101045196D01*
X77174505Y-101048796D01*
X77150001Y-101050000D01*
X76249999Y-101050000D01*
X76225495Y-101048796D01*
X76201227Y-101045196D01*
X76177428Y-101039235D01*
X76154329Y-101030970D01*
X76132150Y-101020480D01*
X76111107Y-101007868D01*
X76091401Y-100993253D01*
X76073223Y-100976777D01*
X76056747Y-100958599D01*
X76042132Y-100938893D01*
X76029520Y-100917850D01*
X76019030Y-100895671D01*
X76010765Y-100872572D01*
X76004804Y-100848773D01*
X76001204Y-100824505D01*
X76000000Y-100800001D01*
X76000000Y-100149999D01*
X76001204Y-100125495D01*
X76004804Y-100101227D01*
X76010765Y-100077428D01*
X76019030Y-100054329D01*
X76029520Y-100032150D01*
X76042132Y-100011107D01*
X76056747Y-99991401D01*
X76073223Y-99973223D01*
X76091401Y-99956747D01*
X76111107Y-99942132D01*
X76132150Y-99929520D01*
X76154329Y-99919030D01*
X76177428Y-99910765D01*
X76201227Y-99904804D01*
X76225495Y-99901204D01*
X76249999Y-99900000D01*
X77150001Y-99900000D01*
X77174505Y-99901204D01*
X77174505Y-99901204D01*
G37*
D18*
X76700000Y-100475000D03*
G04 #@! TD*
D12*
G04 #@! TO.C,R6*
G36*
X94924505Y-105151204D02*
X94948773Y-105154804D01*
X94972572Y-105160765D01*
X94995671Y-105169030D01*
X95017850Y-105179520D01*
X95038893Y-105192132D01*
X95058599Y-105206747D01*
X95076777Y-105223223D01*
X95093253Y-105241401D01*
X95107868Y-105261107D01*
X95120480Y-105282150D01*
X95130970Y-105304329D01*
X95139235Y-105327428D01*
X95145196Y-105351227D01*
X95148796Y-105375495D01*
X95150000Y-105399999D01*
X95150000Y-106300001D01*
X95148796Y-106324505D01*
X95145196Y-106348773D01*
X95139235Y-106372572D01*
X95130970Y-106395671D01*
X95120480Y-106417850D01*
X95107868Y-106438893D01*
X95093253Y-106458599D01*
X95076777Y-106476777D01*
X95058599Y-106493253D01*
X95038893Y-106507868D01*
X95017850Y-106520480D01*
X94995671Y-106530970D01*
X94972572Y-106539235D01*
X94948773Y-106545196D01*
X94924505Y-106548796D01*
X94900001Y-106550000D01*
X94249999Y-106550000D01*
X94225495Y-106548796D01*
X94201227Y-106545196D01*
X94177428Y-106539235D01*
X94154329Y-106530970D01*
X94132150Y-106520480D01*
X94111107Y-106507868D01*
X94091401Y-106493253D01*
X94073223Y-106476777D01*
X94056747Y-106458599D01*
X94042132Y-106438893D01*
X94029520Y-106417850D01*
X94019030Y-106395671D01*
X94010765Y-106372572D01*
X94004804Y-106348773D01*
X94001204Y-106324505D01*
X94000000Y-106300001D01*
X94000000Y-105399999D01*
X94001204Y-105375495D01*
X94004804Y-105351227D01*
X94010765Y-105327428D01*
X94019030Y-105304329D01*
X94029520Y-105282150D01*
X94042132Y-105261107D01*
X94056747Y-105241401D01*
X94073223Y-105223223D01*
X94091401Y-105206747D01*
X94111107Y-105192132D01*
X94132150Y-105179520D01*
X94154329Y-105169030D01*
X94177428Y-105160765D01*
X94201227Y-105154804D01*
X94225495Y-105151204D01*
X94249999Y-105150000D01*
X94900001Y-105150000D01*
X94924505Y-105151204D01*
X94924505Y-105151204D01*
G37*
D18*
X94575000Y-105850000D03*
D12*
G36*
X96974505Y-105151204D02*
X96998773Y-105154804D01*
X97022572Y-105160765D01*
X97045671Y-105169030D01*
X97067850Y-105179520D01*
X97088893Y-105192132D01*
X97108599Y-105206747D01*
X97126777Y-105223223D01*
X97143253Y-105241401D01*
X97157868Y-105261107D01*
X97170480Y-105282150D01*
X97180970Y-105304329D01*
X97189235Y-105327428D01*
X97195196Y-105351227D01*
X97198796Y-105375495D01*
X97200000Y-105399999D01*
X97200000Y-106300001D01*
X97198796Y-106324505D01*
X97195196Y-106348773D01*
X97189235Y-106372572D01*
X97180970Y-106395671D01*
X97170480Y-106417850D01*
X97157868Y-106438893D01*
X97143253Y-106458599D01*
X97126777Y-106476777D01*
X97108599Y-106493253D01*
X97088893Y-106507868D01*
X97067850Y-106520480D01*
X97045671Y-106530970D01*
X97022572Y-106539235D01*
X96998773Y-106545196D01*
X96974505Y-106548796D01*
X96950001Y-106550000D01*
X96299999Y-106550000D01*
X96275495Y-106548796D01*
X96251227Y-106545196D01*
X96227428Y-106539235D01*
X96204329Y-106530970D01*
X96182150Y-106520480D01*
X96161107Y-106507868D01*
X96141401Y-106493253D01*
X96123223Y-106476777D01*
X96106747Y-106458599D01*
X96092132Y-106438893D01*
X96079520Y-106417850D01*
X96069030Y-106395671D01*
X96060765Y-106372572D01*
X96054804Y-106348773D01*
X96051204Y-106324505D01*
X96050000Y-106300001D01*
X96050000Y-105399999D01*
X96051204Y-105375495D01*
X96054804Y-105351227D01*
X96060765Y-105327428D01*
X96069030Y-105304329D01*
X96079520Y-105282150D01*
X96092132Y-105261107D01*
X96106747Y-105241401D01*
X96123223Y-105223223D01*
X96141401Y-105206747D01*
X96161107Y-105192132D01*
X96182150Y-105179520D01*
X96204329Y-105169030D01*
X96227428Y-105160765D01*
X96251227Y-105154804D01*
X96275495Y-105151204D01*
X96299999Y-105150000D01*
X96950001Y-105150000D01*
X96974505Y-105151204D01*
X96974505Y-105151204D01*
G37*
D18*
X96625000Y-105850000D03*
G04 #@! TD*
D12*
G04 #@! TO.C,R7*
G36*
X95074505Y-96901204D02*
X95098773Y-96904804D01*
X95122572Y-96910765D01*
X95145671Y-96919030D01*
X95167850Y-96929520D01*
X95188893Y-96942132D01*
X95208599Y-96956747D01*
X95226777Y-96973223D01*
X95243253Y-96991401D01*
X95257868Y-97011107D01*
X95270480Y-97032150D01*
X95280970Y-97054329D01*
X95289235Y-97077428D01*
X95295196Y-97101227D01*
X95298796Y-97125495D01*
X95300000Y-97149999D01*
X95300000Y-98050001D01*
X95298796Y-98074505D01*
X95295196Y-98098773D01*
X95289235Y-98122572D01*
X95280970Y-98145671D01*
X95270480Y-98167850D01*
X95257868Y-98188893D01*
X95243253Y-98208599D01*
X95226777Y-98226777D01*
X95208599Y-98243253D01*
X95188893Y-98257868D01*
X95167850Y-98270480D01*
X95145671Y-98280970D01*
X95122572Y-98289235D01*
X95098773Y-98295196D01*
X95074505Y-98298796D01*
X95050001Y-98300000D01*
X94399999Y-98300000D01*
X94375495Y-98298796D01*
X94351227Y-98295196D01*
X94327428Y-98289235D01*
X94304329Y-98280970D01*
X94282150Y-98270480D01*
X94261107Y-98257868D01*
X94241401Y-98243253D01*
X94223223Y-98226777D01*
X94206747Y-98208599D01*
X94192132Y-98188893D01*
X94179520Y-98167850D01*
X94169030Y-98145671D01*
X94160765Y-98122572D01*
X94154804Y-98098773D01*
X94151204Y-98074505D01*
X94150000Y-98050001D01*
X94150000Y-97149999D01*
X94151204Y-97125495D01*
X94154804Y-97101227D01*
X94160765Y-97077428D01*
X94169030Y-97054329D01*
X94179520Y-97032150D01*
X94192132Y-97011107D01*
X94206747Y-96991401D01*
X94223223Y-96973223D01*
X94241401Y-96956747D01*
X94261107Y-96942132D01*
X94282150Y-96929520D01*
X94304329Y-96919030D01*
X94327428Y-96910765D01*
X94351227Y-96904804D01*
X94375495Y-96901204D01*
X94399999Y-96900000D01*
X95050001Y-96900000D01*
X95074505Y-96901204D01*
X95074505Y-96901204D01*
G37*
D18*
X94725000Y-97600000D03*
D12*
G36*
X97124505Y-96901204D02*
X97148773Y-96904804D01*
X97172572Y-96910765D01*
X97195671Y-96919030D01*
X97217850Y-96929520D01*
X97238893Y-96942132D01*
X97258599Y-96956747D01*
X97276777Y-96973223D01*
X97293253Y-96991401D01*
X97307868Y-97011107D01*
X97320480Y-97032150D01*
X97330970Y-97054329D01*
X97339235Y-97077428D01*
X97345196Y-97101227D01*
X97348796Y-97125495D01*
X97350000Y-97149999D01*
X97350000Y-98050001D01*
X97348796Y-98074505D01*
X97345196Y-98098773D01*
X97339235Y-98122572D01*
X97330970Y-98145671D01*
X97320480Y-98167850D01*
X97307868Y-98188893D01*
X97293253Y-98208599D01*
X97276777Y-98226777D01*
X97258599Y-98243253D01*
X97238893Y-98257868D01*
X97217850Y-98270480D01*
X97195671Y-98280970D01*
X97172572Y-98289235D01*
X97148773Y-98295196D01*
X97124505Y-98298796D01*
X97100001Y-98300000D01*
X96449999Y-98300000D01*
X96425495Y-98298796D01*
X96401227Y-98295196D01*
X96377428Y-98289235D01*
X96354329Y-98280970D01*
X96332150Y-98270480D01*
X96311107Y-98257868D01*
X96291401Y-98243253D01*
X96273223Y-98226777D01*
X96256747Y-98208599D01*
X96242132Y-98188893D01*
X96229520Y-98167850D01*
X96219030Y-98145671D01*
X96210765Y-98122572D01*
X96204804Y-98098773D01*
X96201204Y-98074505D01*
X96200000Y-98050001D01*
X96200000Y-97149999D01*
X96201204Y-97125495D01*
X96204804Y-97101227D01*
X96210765Y-97077428D01*
X96219030Y-97054329D01*
X96229520Y-97032150D01*
X96242132Y-97011107D01*
X96256747Y-96991401D01*
X96273223Y-96973223D01*
X96291401Y-96956747D01*
X96311107Y-96942132D01*
X96332150Y-96929520D01*
X96354329Y-96919030D01*
X96377428Y-96910765D01*
X96401227Y-96904804D01*
X96425495Y-96901204D01*
X96449999Y-96900000D01*
X97100001Y-96900000D01*
X97124505Y-96901204D01*
X97124505Y-96901204D01*
G37*
D18*
X96775000Y-97600000D03*
G04 #@! TD*
D12*
G04 #@! TO.C,R8*
G36*
X97174505Y-101301204D02*
X97198773Y-101304804D01*
X97222572Y-101310765D01*
X97245671Y-101319030D01*
X97267850Y-101329520D01*
X97288893Y-101342132D01*
X97308599Y-101356747D01*
X97326777Y-101373223D01*
X97343253Y-101391401D01*
X97357868Y-101411107D01*
X97370480Y-101432150D01*
X97380970Y-101454329D01*
X97389235Y-101477428D01*
X97395196Y-101501227D01*
X97398796Y-101525495D01*
X97400000Y-101549999D01*
X97400000Y-102450001D01*
X97398796Y-102474505D01*
X97395196Y-102498773D01*
X97389235Y-102522572D01*
X97380970Y-102545671D01*
X97370480Y-102567850D01*
X97357868Y-102588893D01*
X97343253Y-102608599D01*
X97326777Y-102626777D01*
X97308599Y-102643253D01*
X97288893Y-102657868D01*
X97267850Y-102670480D01*
X97245671Y-102680970D01*
X97222572Y-102689235D01*
X97198773Y-102695196D01*
X97174505Y-102698796D01*
X97150001Y-102700000D01*
X96499999Y-102700000D01*
X96475495Y-102698796D01*
X96451227Y-102695196D01*
X96427428Y-102689235D01*
X96404329Y-102680970D01*
X96382150Y-102670480D01*
X96361107Y-102657868D01*
X96341401Y-102643253D01*
X96323223Y-102626777D01*
X96306747Y-102608599D01*
X96292132Y-102588893D01*
X96279520Y-102567850D01*
X96269030Y-102545671D01*
X96260765Y-102522572D01*
X96254804Y-102498773D01*
X96251204Y-102474505D01*
X96250000Y-102450001D01*
X96250000Y-101549999D01*
X96251204Y-101525495D01*
X96254804Y-101501227D01*
X96260765Y-101477428D01*
X96269030Y-101454329D01*
X96279520Y-101432150D01*
X96292132Y-101411107D01*
X96306747Y-101391401D01*
X96323223Y-101373223D01*
X96341401Y-101356747D01*
X96361107Y-101342132D01*
X96382150Y-101329520D01*
X96404329Y-101319030D01*
X96427428Y-101310765D01*
X96451227Y-101304804D01*
X96475495Y-101301204D01*
X96499999Y-101300000D01*
X97150001Y-101300000D01*
X97174505Y-101301204D01*
X97174505Y-101301204D01*
G37*
D18*
X96825000Y-102000000D03*
D12*
G36*
X95124505Y-101301204D02*
X95148773Y-101304804D01*
X95172572Y-101310765D01*
X95195671Y-101319030D01*
X95217850Y-101329520D01*
X95238893Y-101342132D01*
X95258599Y-101356747D01*
X95276777Y-101373223D01*
X95293253Y-101391401D01*
X95307868Y-101411107D01*
X95320480Y-101432150D01*
X95330970Y-101454329D01*
X95339235Y-101477428D01*
X95345196Y-101501227D01*
X95348796Y-101525495D01*
X95350000Y-101549999D01*
X95350000Y-102450001D01*
X95348796Y-102474505D01*
X95345196Y-102498773D01*
X95339235Y-102522572D01*
X95330970Y-102545671D01*
X95320480Y-102567850D01*
X95307868Y-102588893D01*
X95293253Y-102608599D01*
X95276777Y-102626777D01*
X95258599Y-102643253D01*
X95238893Y-102657868D01*
X95217850Y-102670480D01*
X95195671Y-102680970D01*
X95172572Y-102689235D01*
X95148773Y-102695196D01*
X95124505Y-102698796D01*
X95100001Y-102700000D01*
X94449999Y-102700000D01*
X94425495Y-102698796D01*
X94401227Y-102695196D01*
X94377428Y-102689235D01*
X94354329Y-102680970D01*
X94332150Y-102670480D01*
X94311107Y-102657868D01*
X94291401Y-102643253D01*
X94273223Y-102626777D01*
X94256747Y-102608599D01*
X94242132Y-102588893D01*
X94229520Y-102567850D01*
X94219030Y-102545671D01*
X94210765Y-102522572D01*
X94204804Y-102498773D01*
X94201204Y-102474505D01*
X94200000Y-102450001D01*
X94200000Y-101549999D01*
X94201204Y-101525495D01*
X94204804Y-101501227D01*
X94210765Y-101477428D01*
X94219030Y-101454329D01*
X94229520Y-101432150D01*
X94242132Y-101411107D01*
X94256747Y-101391401D01*
X94273223Y-101373223D01*
X94291401Y-101356747D01*
X94311107Y-101342132D01*
X94332150Y-101329520D01*
X94354329Y-101319030D01*
X94377428Y-101310765D01*
X94401227Y-101304804D01*
X94425495Y-101301204D01*
X94449999Y-101300000D01*
X95100001Y-101300000D01*
X95124505Y-101301204D01*
X95124505Y-101301204D01*
G37*
D18*
X94775000Y-102000000D03*
G04 #@! TD*
D12*
G04 #@! TO.C,R9*
G36*
X131474505Y-107626204D02*
X131498773Y-107629804D01*
X131522572Y-107635765D01*
X131545671Y-107644030D01*
X131567850Y-107654520D01*
X131588893Y-107667132D01*
X131608599Y-107681747D01*
X131626777Y-107698223D01*
X131643253Y-107716401D01*
X131657868Y-107736107D01*
X131670480Y-107757150D01*
X131680970Y-107779329D01*
X131689235Y-107802428D01*
X131695196Y-107826227D01*
X131698796Y-107850495D01*
X131700000Y-107874999D01*
X131700000Y-108525001D01*
X131698796Y-108549505D01*
X131695196Y-108573773D01*
X131689235Y-108597572D01*
X131680970Y-108620671D01*
X131670480Y-108642850D01*
X131657868Y-108663893D01*
X131643253Y-108683599D01*
X131626777Y-108701777D01*
X131608599Y-108718253D01*
X131588893Y-108732868D01*
X131567850Y-108745480D01*
X131545671Y-108755970D01*
X131522572Y-108764235D01*
X131498773Y-108770196D01*
X131474505Y-108773796D01*
X131450001Y-108775000D01*
X130549999Y-108775000D01*
X130525495Y-108773796D01*
X130501227Y-108770196D01*
X130477428Y-108764235D01*
X130454329Y-108755970D01*
X130432150Y-108745480D01*
X130411107Y-108732868D01*
X130391401Y-108718253D01*
X130373223Y-108701777D01*
X130356747Y-108683599D01*
X130342132Y-108663893D01*
X130329520Y-108642850D01*
X130319030Y-108620671D01*
X130310765Y-108597572D01*
X130304804Y-108573773D01*
X130301204Y-108549505D01*
X130300000Y-108525001D01*
X130300000Y-107874999D01*
X130301204Y-107850495D01*
X130304804Y-107826227D01*
X130310765Y-107802428D01*
X130319030Y-107779329D01*
X130329520Y-107757150D01*
X130342132Y-107736107D01*
X130356747Y-107716401D01*
X130373223Y-107698223D01*
X130391401Y-107681747D01*
X130411107Y-107667132D01*
X130432150Y-107654520D01*
X130454329Y-107644030D01*
X130477428Y-107635765D01*
X130501227Y-107629804D01*
X130525495Y-107626204D01*
X130549999Y-107625000D01*
X131450001Y-107625000D01*
X131474505Y-107626204D01*
X131474505Y-107626204D01*
G37*
D18*
X131000000Y-108200000D03*
D12*
G36*
X131474505Y-109676204D02*
X131498773Y-109679804D01*
X131522572Y-109685765D01*
X131545671Y-109694030D01*
X131567850Y-109704520D01*
X131588893Y-109717132D01*
X131608599Y-109731747D01*
X131626777Y-109748223D01*
X131643253Y-109766401D01*
X131657868Y-109786107D01*
X131670480Y-109807150D01*
X131680970Y-109829329D01*
X131689235Y-109852428D01*
X131695196Y-109876227D01*
X131698796Y-109900495D01*
X131700000Y-109924999D01*
X131700000Y-110575001D01*
X131698796Y-110599505D01*
X131695196Y-110623773D01*
X131689235Y-110647572D01*
X131680970Y-110670671D01*
X131670480Y-110692850D01*
X131657868Y-110713893D01*
X131643253Y-110733599D01*
X131626777Y-110751777D01*
X131608599Y-110768253D01*
X131588893Y-110782868D01*
X131567850Y-110795480D01*
X131545671Y-110805970D01*
X131522572Y-110814235D01*
X131498773Y-110820196D01*
X131474505Y-110823796D01*
X131450001Y-110825000D01*
X130549999Y-110825000D01*
X130525495Y-110823796D01*
X130501227Y-110820196D01*
X130477428Y-110814235D01*
X130454329Y-110805970D01*
X130432150Y-110795480D01*
X130411107Y-110782868D01*
X130391401Y-110768253D01*
X130373223Y-110751777D01*
X130356747Y-110733599D01*
X130342132Y-110713893D01*
X130329520Y-110692850D01*
X130319030Y-110670671D01*
X130310765Y-110647572D01*
X130304804Y-110623773D01*
X130301204Y-110599505D01*
X130300000Y-110575001D01*
X130300000Y-109924999D01*
X130301204Y-109900495D01*
X130304804Y-109876227D01*
X130310765Y-109852428D01*
X130319030Y-109829329D01*
X130329520Y-109807150D01*
X130342132Y-109786107D01*
X130356747Y-109766401D01*
X130373223Y-109748223D01*
X130391401Y-109731747D01*
X130411107Y-109717132D01*
X130432150Y-109704520D01*
X130454329Y-109694030D01*
X130477428Y-109685765D01*
X130501227Y-109679804D01*
X130525495Y-109676204D01*
X130549999Y-109675000D01*
X131450001Y-109675000D01*
X131474505Y-109676204D01*
X131474505Y-109676204D01*
G37*
D18*
X131000000Y-110250000D03*
G04 #@! TD*
D12*
G04 #@! TO.C,R15*
G36*
X88974505Y-105051204D02*
X88998773Y-105054804D01*
X89022572Y-105060765D01*
X89045671Y-105069030D01*
X89067850Y-105079520D01*
X89088893Y-105092132D01*
X89108599Y-105106747D01*
X89126777Y-105123223D01*
X89143253Y-105141401D01*
X89157868Y-105161107D01*
X89170480Y-105182150D01*
X89180970Y-105204329D01*
X89189235Y-105227428D01*
X89195196Y-105251227D01*
X89198796Y-105275495D01*
X89200000Y-105299999D01*
X89200000Y-105950001D01*
X89198796Y-105974505D01*
X89195196Y-105998773D01*
X89189235Y-106022572D01*
X89180970Y-106045671D01*
X89170480Y-106067850D01*
X89157868Y-106088893D01*
X89143253Y-106108599D01*
X89126777Y-106126777D01*
X89108599Y-106143253D01*
X89088893Y-106157868D01*
X89067850Y-106170480D01*
X89045671Y-106180970D01*
X89022572Y-106189235D01*
X88998773Y-106195196D01*
X88974505Y-106198796D01*
X88950001Y-106200000D01*
X88049999Y-106200000D01*
X88025495Y-106198796D01*
X88001227Y-106195196D01*
X87977428Y-106189235D01*
X87954329Y-106180970D01*
X87932150Y-106170480D01*
X87911107Y-106157868D01*
X87891401Y-106143253D01*
X87873223Y-106126777D01*
X87856747Y-106108599D01*
X87842132Y-106088893D01*
X87829520Y-106067850D01*
X87819030Y-106045671D01*
X87810765Y-106022572D01*
X87804804Y-105998773D01*
X87801204Y-105974505D01*
X87800000Y-105950001D01*
X87800000Y-105299999D01*
X87801204Y-105275495D01*
X87804804Y-105251227D01*
X87810765Y-105227428D01*
X87819030Y-105204329D01*
X87829520Y-105182150D01*
X87842132Y-105161107D01*
X87856747Y-105141401D01*
X87873223Y-105123223D01*
X87891401Y-105106747D01*
X87911107Y-105092132D01*
X87932150Y-105079520D01*
X87954329Y-105069030D01*
X87977428Y-105060765D01*
X88001227Y-105054804D01*
X88025495Y-105051204D01*
X88049999Y-105050000D01*
X88950001Y-105050000D01*
X88974505Y-105051204D01*
X88974505Y-105051204D01*
G37*
D18*
X88500000Y-105625000D03*
D12*
G36*
X88974505Y-107101204D02*
X88998773Y-107104804D01*
X89022572Y-107110765D01*
X89045671Y-107119030D01*
X89067850Y-107129520D01*
X89088893Y-107142132D01*
X89108599Y-107156747D01*
X89126777Y-107173223D01*
X89143253Y-107191401D01*
X89157868Y-107211107D01*
X89170480Y-107232150D01*
X89180970Y-107254329D01*
X89189235Y-107277428D01*
X89195196Y-107301227D01*
X89198796Y-107325495D01*
X89200000Y-107349999D01*
X89200000Y-108000001D01*
X89198796Y-108024505D01*
X89195196Y-108048773D01*
X89189235Y-108072572D01*
X89180970Y-108095671D01*
X89170480Y-108117850D01*
X89157868Y-108138893D01*
X89143253Y-108158599D01*
X89126777Y-108176777D01*
X89108599Y-108193253D01*
X89088893Y-108207868D01*
X89067850Y-108220480D01*
X89045671Y-108230970D01*
X89022572Y-108239235D01*
X88998773Y-108245196D01*
X88974505Y-108248796D01*
X88950001Y-108250000D01*
X88049999Y-108250000D01*
X88025495Y-108248796D01*
X88001227Y-108245196D01*
X87977428Y-108239235D01*
X87954329Y-108230970D01*
X87932150Y-108220480D01*
X87911107Y-108207868D01*
X87891401Y-108193253D01*
X87873223Y-108176777D01*
X87856747Y-108158599D01*
X87842132Y-108138893D01*
X87829520Y-108117850D01*
X87819030Y-108095671D01*
X87810765Y-108072572D01*
X87804804Y-108048773D01*
X87801204Y-108024505D01*
X87800000Y-108000001D01*
X87800000Y-107349999D01*
X87801204Y-107325495D01*
X87804804Y-107301227D01*
X87810765Y-107277428D01*
X87819030Y-107254329D01*
X87829520Y-107232150D01*
X87842132Y-107211107D01*
X87856747Y-107191401D01*
X87873223Y-107173223D01*
X87891401Y-107156747D01*
X87911107Y-107142132D01*
X87932150Y-107129520D01*
X87954329Y-107119030D01*
X87977428Y-107110765D01*
X88001227Y-107104804D01*
X88025495Y-107101204D01*
X88049999Y-107100000D01*
X88950001Y-107100000D01*
X88974505Y-107101204D01*
X88974505Y-107101204D01*
G37*
D18*
X88500000Y-107675000D03*
G04 #@! TD*
D12*
G04 #@! TO.C,R16*
G36*
X89124505Y-96701204D02*
X89148773Y-96704804D01*
X89172572Y-96710765D01*
X89195671Y-96719030D01*
X89217850Y-96729520D01*
X89238893Y-96742132D01*
X89258599Y-96756747D01*
X89276777Y-96773223D01*
X89293253Y-96791401D01*
X89307868Y-96811107D01*
X89320480Y-96832150D01*
X89330970Y-96854329D01*
X89339235Y-96877428D01*
X89345196Y-96901227D01*
X89348796Y-96925495D01*
X89350000Y-96949999D01*
X89350000Y-97600001D01*
X89348796Y-97624505D01*
X89345196Y-97648773D01*
X89339235Y-97672572D01*
X89330970Y-97695671D01*
X89320480Y-97717850D01*
X89307868Y-97738893D01*
X89293253Y-97758599D01*
X89276777Y-97776777D01*
X89258599Y-97793253D01*
X89238893Y-97807868D01*
X89217850Y-97820480D01*
X89195671Y-97830970D01*
X89172572Y-97839235D01*
X89148773Y-97845196D01*
X89124505Y-97848796D01*
X89100001Y-97850000D01*
X88199999Y-97850000D01*
X88175495Y-97848796D01*
X88151227Y-97845196D01*
X88127428Y-97839235D01*
X88104329Y-97830970D01*
X88082150Y-97820480D01*
X88061107Y-97807868D01*
X88041401Y-97793253D01*
X88023223Y-97776777D01*
X88006747Y-97758599D01*
X87992132Y-97738893D01*
X87979520Y-97717850D01*
X87969030Y-97695671D01*
X87960765Y-97672572D01*
X87954804Y-97648773D01*
X87951204Y-97624505D01*
X87950000Y-97600001D01*
X87950000Y-96949999D01*
X87951204Y-96925495D01*
X87954804Y-96901227D01*
X87960765Y-96877428D01*
X87969030Y-96854329D01*
X87979520Y-96832150D01*
X87992132Y-96811107D01*
X88006747Y-96791401D01*
X88023223Y-96773223D01*
X88041401Y-96756747D01*
X88061107Y-96742132D01*
X88082150Y-96729520D01*
X88104329Y-96719030D01*
X88127428Y-96710765D01*
X88151227Y-96704804D01*
X88175495Y-96701204D01*
X88199999Y-96700000D01*
X89100001Y-96700000D01*
X89124505Y-96701204D01*
X89124505Y-96701204D01*
G37*
D18*
X88650000Y-97275000D03*
D12*
G36*
X89124505Y-98751204D02*
X89148773Y-98754804D01*
X89172572Y-98760765D01*
X89195671Y-98769030D01*
X89217850Y-98779520D01*
X89238893Y-98792132D01*
X89258599Y-98806747D01*
X89276777Y-98823223D01*
X89293253Y-98841401D01*
X89307868Y-98861107D01*
X89320480Y-98882150D01*
X89330970Y-98904329D01*
X89339235Y-98927428D01*
X89345196Y-98951227D01*
X89348796Y-98975495D01*
X89350000Y-98999999D01*
X89350000Y-99650001D01*
X89348796Y-99674505D01*
X89345196Y-99698773D01*
X89339235Y-99722572D01*
X89330970Y-99745671D01*
X89320480Y-99767850D01*
X89307868Y-99788893D01*
X89293253Y-99808599D01*
X89276777Y-99826777D01*
X89258599Y-99843253D01*
X89238893Y-99857868D01*
X89217850Y-99870480D01*
X89195671Y-99880970D01*
X89172572Y-99889235D01*
X89148773Y-99895196D01*
X89124505Y-99898796D01*
X89100001Y-99900000D01*
X88199999Y-99900000D01*
X88175495Y-99898796D01*
X88151227Y-99895196D01*
X88127428Y-99889235D01*
X88104329Y-99880970D01*
X88082150Y-99870480D01*
X88061107Y-99857868D01*
X88041401Y-99843253D01*
X88023223Y-99826777D01*
X88006747Y-99808599D01*
X87992132Y-99788893D01*
X87979520Y-99767850D01*
X87969030Y-99745671D01*
X87960765Y-99722572D01*
X87954804Y-99698773D01*
X87951204Y-99674505D01*
X87950000Y-99650001D01*
X87950000Y-98999999D01*
X87951204Y-98975495D01*
X87954804Y-98951227D01*
X87960765Y-98927428D01*
X87969030Y-98904329D01*
X87979520Y-98882150D01*
X87992132Y-98861107D01*
X88006747Y-98841401D01*
X88023223Y-98823223D01*
X88041401Y-98806747D01*
X88061107Y-98792132D01*
X88082150Y-98779520D01*
X88104329Y-98769030D01*
X88127428Y-98760765D01*
X88151227Y-98754804D01*
X88175495Y-98751204D01*
X88199999Y-98750000D01*
X89100001Y-98750000D01*
X89124505Y-98751204D01*
X89124505Y-98751204D01*
G37*
D18*
X88650000Y-99325000D03*
G04 #@! TD*
D12*
G04 #@! TO.C,R17*
G36*
X89024505Y-101251204D02*
X89048773Y-101254804D01*
X89072572Y-101260765D01*
X89095671Y-101269030D01*
X89117850Y-101279520D01*
X89138893Y-101292132D01*
X89158599Y-101306747D01*
X89176777Y-101323223D01*
X89193253Y-101341401D01*
X89207868Y-101361107D01*
X89220480Y-101382150D01*
X89230970Y-101404329D01*
X89239235Y-101427428D01*
X89245196Y-101451227D01*
X89248796Y-101475495D01*
X89250000Y-101499999D01*
X89250000Y-102150001D01*
X89248796Y-102174505D01*
X89245196Y-102198773D01*
X89239235Y-102222572D01*
X89230970Y-102245671D01*
X89220480Y-102267850D01*
X89207868Y-102288893D01*
X89193253Y-102308599D01*
X89176777Y-102326777D01*
X89158599Y-102343253D01*
X89138893Y-102357868D01*
X89117850Y-102370480D01*
X89095671Y-102380970D01*
X89072572Y-102389235D01*
X89048773Y-102395196D01*
X89024505Y-102398796D01*
X89000001Y-102400000D01*
X88099999Y-102400000D01*
X88075495Y-102398796D01*
X88051227Y-102395196D01*
X88027428Y-102389235D01*
X88004329Y-102380970D01*
X87982150Y-102370480D01*
X87961107Y-102357868D01*
X87941401Y-102343253D01*
X87923223Y-102326777D01*
X87906747Y-102308599D01*
X87892132Y-102288893D01*
X87879520Y-102267850D01*
X87869030Y-102245671D01*
X87860765Y-102222572D01*
X87854804Y-102198773D01*
X87851204Y-102174505D01*
X87850000Y-102150001D01*
X87850000Y-101499999D01*
X87851204Y-101475495D01*
X87854804Y-101451227D01*
X87860765Y-101427428D01*
X87869030Y-101404329D01*
X87879520Y-101382150D01*
X87892132Y-101361107D01*
X87906747Y-101341401D01*
X87923223Y-101323223D01*
X87941401Y-101306747D01*
X87961107Y-101292132D01*
X87982150Y-101279520D01*
X88004329Y-101269030D01*
X88027428Y-101260765D01*
X88051227Y-101254804D01*
X88075495Y-101251204D01*
X88099999Y-101250000D01*
X89000001Y-101250000D01*
X89024505Y-101251204D01*
X89024505Y-101251204D01*
G37*
D18*
X88550000Y-101825000D03*
D12*
G36*
X89024505Y-103301204D02*
X89048773Y-103304804D01*
X89072572Y-103310765D01*
X89095671Y-103319030D01*
X89117850Y-103329520D01*
X89138893Y-103342132D01*
X89158599Y-103356747D01*
X89176777Y-103373223D01*
X89193253Y-103391401D01*
X89207868Y-103411107D01*
X89220480Y-103432150D01*
X89230970Y-103454329D01*
X89239235Y-103477428D01*
X89245196Y-103501227D01*
X89248796Y-103525495D01*
X89250000Y-103549999D01*
X89250000Y-104200001D01*
X89248796Y-104224505D01*
X89245196Y-104248773D01*
X89239235Y-104272572D01*
X89230970Y-104295671D01*
X89220480Y-104317850D01*
X89207868Y-104338893D01*
X89193253Y-104358599D01*
X89176777Y-104376777D01*
X89158599Y-104393253D01*
X89138893Y-104407868D01*
X89117850Y-104420480D01*
X89095671Y-104430970D01*
X89072572Y-104439235D01*
X89048773Y-104445196D01*
X89024505Y-104448796D01*
X89000001Y-104450000D01*
X88099999Y-104450000D01*
X88075495Y-104448796D01*
X88051227Y-104445196D01*
X88027428Y-104439235D01*
X88004329Y-104430970D01*
X87982150Y-104420480D01*
X87961107Y-104407868D01*
X87941401Y-104393253D01*
X87923223Y-104376777D01*
X87906747Y-104358599D01*
X87892132Y-104338893D01*
X87879520Y-104317850D01*
X87869030Y-104295671D01*
X87860765Y-104272572D01*
X87854804Y-104248773D01*
X87851204Y-104224505D01*
X87850000Y-104200001D01*
X87850000Y-103549999D01*
X87851204Y-103525495D01*
X87854804Y-103501227D01*
X87860765Y-103477428D01*
X87869030Y-103454329D01*
X87879520Y-103432150D01*
X87892132Y-103411107D01*
X87906747Y-103391401D01*
X87923223Y-103373223D01*
X87941401Y-103356747D01*
X87961107Y-103342132D01*
X87982150Y-103329520D01*
X88004329Y-103319030D01*
X88027428Y-103310765D01*
X88051227Y-103304804D01*
X88075495Y-103301204D01*
X88099999Y-103300000D01*
X89000001Y-103300000D01*
X89024505Y-103301204D01*
X89024505Y-103301204D01*
G37*
D18*
X88550000Y-103875000D03*
G04 #@! TD*
D12*
G04 #@! TO.C,R23*
G36*
X100874505Y-93051204D02*
X100898773Y-93054804D01*
X100922572Y-93060765D01*
X100945671Y-93069030D01*
X100967850Y-93079520D01*
X100988893Y-93092132D01*
X101008599Y-93106747D01*
X101026777Y-93123223D01*
X101043253Y-93141401D01*
X101057868Y-93161107D01*
X101070480Y-93182150D01*
X101080970Y-93204329D01*
X101089235Y-93227428D01*
X101095196Y-93251227D01*
X101098796Y-93275495D01*
X101100000Y-93299999D01*
X101100000Y-93950001D01*
X101098796Y-93974505D01*
X101095196Y-93998773D01*
X101089235Y-94022572D01*
X101080970Y-94045671D01*
X101070480Y-94067850D01*
X101057868Y-94088893D01*
X101043253Y-94108599D01*
X101026777Y-94126777D01*
X101008599Y-94143253D01*
X100988893Y-94157868D01*
X100967850Y-94170480D01*
X100945671Y-94180970D01*
X100922572Y-94189235D01*
X100898773Y-94195196D01*
X100874505Y-94198796D01*
X100850001Y-94200000D01*
X99949999Y-94200000D01*
X99925495Y-94198796D01*
X99901227Y-94195196D01*
X99877428Y-94189235D01*
X99854329Y-94180970D01*
X99832150Y-94170480D01*
X99811107Y-94157868D01*
X99791401Y-94143253D01*
X99773223Y-94126777D01*
X99756747Y-94108599D01*
X99742132Y-94088893D01*
X99729520Y-94067850D01*
X99719030Y-94045671D01*
X99710765Y-94022572D01*
X99704804Y-93998773D01*
X99701204Y-93974505D01*
X99700000Y-93950001D01*
X99700000Y-93299999D01*
X99701204Y-93275495D01*
X99704804Y-93251227D01*
X99710765Y-93227428D01*
X99719030Y-93204329D01*
X99729520Y-93182150D01*
X99742132Y-93161107D01*
X99756747Y-93141401D01*
X99773223Y-93123223D01*
X99791401Y-93106747D01*
X99811107Y-93092132D01*
X99832150Y-93079520D01*
X99854329Y-93069030D01*
X99877428Y-93060765D01*
X99901227Y-93054804D01*
X99925495Y-93051204D01*
X99949999Y-93050000D01*
X100850001Y-93050000D01*
X100874505Y-93051204D01*
X100874505Y-93051204D01*
G37*
D18*
X100400000Y-93625000D03*
D12*
G36*
X100874505Y-91001204D02*
X100898773Y-91004804D01*
X100922572Y-91010765D01*
X100945671Y-91019030D01*
X100967850Y-91029520D01*
X100988893Y-91042132D01*
X101008599Y-91056747D01*
X101026777Y-91073223D01*
X101043253Y-91091401D01*
X101057868Y-91111107D01*
X101070480Y-91132150D01*
X101080970Y-91154329D01*
X101089235Y-91177428D01*
X101095196Y-91201227D01*
X101098796Y-91225495D01*
X101100000Y-91249999D01*
X101100000Y-91900001D01*
X101098796Y-91924505D01*
X101095196Y-91948773D01*
X101089235Y-91972572D01*
X101080970Y-91995671D01*
X101070480Y-92017850D01*
X101057868Y-92038893D01*
X101043253Y-92058599D01*
X101026777Y-92076777D01*
X101008599Y-92093253D01*
X100988893Y-92107868D01*
X100967850Y-92120480D01*
X100945671Y-92130970D01*
X100922572Y-92139235D01*
X100898773Y-92145196D01*
X100874505Y-92148796D01*
X100850001Y-92150000D01*
X99949999Y-92150000D01*
X99925495Y-92148796D01*
X99901227Y-92145196D01*
X99877428Y-92139235D01*
X99854329Y-92130970D01*
X99832150Y-92120480D01*
X99811107Y-92107868D01*
X99791401Y-92093253D01*
X99773223Y-92076777D01*
X99756747Y-92058599D01*
X99742132Y-92038893D01*
X99729520Y-92017850D01*
X99719030Y-91995671D01*
X99710765Y-91972572D01*
X99704804Y-91948773D01*
X99701204Y-91924505D01*
X99700000Y-91900001D01*
X99700000Y-91249999D01*
X99701204Y-91225495D01*
X99704804Y-91201227D01*
X99710765Y-91177428D01*
X99719030Y-91154329D01*
X99729520Y-91132150D01*
X99742132Y-91111107D01*
X99756747Y-91091401D01*
X99773223Y-91073223D01*
X99791401Y-91056747D01*
X99811107Y-91042132D01*
X99832150Y-91029520D01*
X99854329Y-91019030D01*
X99877428Y-91010765D01*
X99901227Y-91004804D01*
X99925495Y-91001204D01*
X99949999Y-91000000D01*
X100850001Y-91000000D01*
X100874505Y-91001204D01*
X100874505Y-91001204D01*
G37*
D18*
X100400000Y-91575000D03*
G04 #@! TD*
D12*
G04 #@! TO.C,R24*
G36*
X102274505Y-88651204D02*
X102298773Y-88654804D01*
X102322572Y-88660765D01*
X102345671Y-88669030D01*
X102367850Y-88679520D01*
X102388893Y-88692132D01*
X102408599Y-88706747D01*
X102426777Y-88723223D01*
X102443253Y-88741401D01*
X102457868Y-88761107D01*
X102470480Y-88782150D01*
X102480970Y-88804329D01*
X102489235Y-88827428D01*
X102495196Y-88851227D01*
X102498796Y-88875495D01*
X102500000Y-88899999D01*
X102500000Y-89800001D01*
X102498796Y-89824505D01*
X102495196Y-89848773D01*
X102489235Y-89872572D01*
X102480970Y-89895671D01*
X102470480Y-89917850D01*
X102457868Y-89938893D01*
X102443253Y-89958599D01*
X102426777Y-89976777D01*
X102408599Y-89993253D01*
X102388893Y-90007868D01*
X102367850Y-90020480D01*
X102345671Y-90030970D01*
X102322572Y-90039235D01*
X102298773Y-90045196D01*
X102274505Y-90048796D01*
X102250001Y-90050000D01*
X101599999Y-90050000D01*
X101575495Y-90048796D01*
X101551227Y-90045196D01*
X101527428Y-90039235D01*
X101504329Y-90030970D01*
X101482150Y-90020480D01*
X101461107Y-90007868D01*
X101441401Y-89993253D01*
X101423223Y-89976777D01*
X101406747Y-89958599D01*
X101392132Y-89938893D01*
X101379520Y-89917850D01*
X101369030Y-89895671D01*
X101360765Y-89872572D01*
X101354804Y-89848773D01*
X101351204Y-89824505D01*
X101350000Y-89800001D01*
X101350000Y-88899999D01*
X101351204Y-88875495D01*
X101354804Y-88851227D01*
X101360765Y-88827428D01*
X101369030Y-88804329D01*
X101379520Y-88782150D01*
X101392132Y-88761107D01*
X101406747Y-88741401D01*
X101423223Y-88723223D01*
X101441401Y-88706747D01*
X101461107Y-88692132D01*
X101482150Y-88679520D01*
X101504329Y-88669030D01*
X101527428Y-88660765D01*
X101551227Y-88654804D01*
X101575495Y-88651204D01*
X101599999Y-88650000D01*
X102250001Y-88650000D01*
X102274505Y-88651204D01*
X102274505Y-88651204D01*
G37*
D18*
X101925000Y-89350000D03*
D12*
G36*
X100224505Y-88651204D02*
X100248773Y-88654804D01*
X100272572Y-88660765D01*
X100295671Y-88669030D01*
X100317850Y-88679520D01*
X100338893Y-88692132D01*
X100358599Y-88706747D01*
X100376777Y-88723223D01*
X100393253Y-88741401D01*
X100407868Y-88761107D01*
X100420480Y-88782150D01*
X100430970Y-88804329D01*
X100439235Y-88827428D01*
X100445196Y-88851227D01*
X100448796Y-88875495D01*
X100450000Y-88899999D01*
X100450000Y-89800001D01*
X100448796Y-89824505D01*
X100445196Y-89848773D01*
X100439235Y-89872572D01*
X100430970Y-89895671D01*
X100420480Y-89917850D01*
X100407868Y-89938893D01*
X100393253Y-89958599D01*
X100376777Y-89976777D01*
X100358599Y-89993253D01*
X100338893Y-90007868D01*
X100317850Y-90020480D01*
X100295671Y-90030970D01*
X100272572Y-90039235D01*
X100248773Y-90045196D01*
X100224505Y-90048796D01*
X100200001Y-90050000D01*
X99549999Y-90050000D01*
X99525495Y-90048796D01*
X99501227Y-90045196D01*
X99477428Y-90039235D01*
X99454329Y-90030970D01*
X99432150Y-90020480D01*
X99411107Y-90007868D01*
X99391401Y-89993253D01*
X99373223Y-89976777D01*
X99356747Y-89958599D01*
X99342132Y-89938893D01*
X99329520Y-89917850D01*
X99319030Y-89895671D01*
X99310765Y-89872572D01*
X99304804Y-89848773D01*
X99301204Y-89824505D01*
X99300000Y-89800001D01*
X99300000Y-88899999D01*
X99301204Y-88875495D01*
X99304804Y-88851227D01*
X99310765Y-88827428D01*
X99319030Y-88804329D01*
X99329520Y-88782150D01*
X99342132Y-88761107D01*
X99356747Y-88741401D01*
X99373223Y-88723223D01*
X99391401Y-88706747D01*
X99411107Y-88692132D01*
X99432150Y-88679520D01*
X99454329Y-88669030D01*
X99477428Y-88660765D01*
X99501227Y-88654804D01*
X99525495Y-88651204D01*
X99549999Y-88650000D01*
X100200001Y-88650000D01*
X100224505Y-88651204D01*
X100224505Y-88651204D01*
G37*
D18*
X99875000Y-89350000D03*
G04 #@! TD*
D12*
G04 #@! TO.C,R25*
G36*
X94074505Y-87551204D02*
X94098773Y-87554804D01*
X94122572Y-87560765D01*
X94145671Y-87569030D01*
X94167850Y-87579520D01*
X94188893Y-87592132D01*
X94208599Y-87606747D01*
X94226777Y-87623223D01*
X94243253Y-87641401D01*
X94257868Y-87661107D01*
X94270480Y-87682150D01*
X94280970Y-87704329D01*
X94289235Y-87727428D01*
X94295196Y-87751227D01*
X94298796Y-87775495D01*
X94300000Y-87799999D01*
X94300000Y-88700001D01*
X94298796Y-88724505D01*
X94295196Y-88748773D01*
X94289235Y-88772572D01*
X94280970Y-88795671D01*
X94270480Y-88817850D01*
X94257868Y-88838893D01*
X94243253Y-88858599D01*
X94226777Y-88876777D01*
X94208599Y-88893253D01*
X94188893Y-88907868D01*
X94167850Y-88920480D01*
X94145671Y-88930970D01*
X94122572Y-88939235D01*
X94098773Y-88945196D01*
X94074505Y-88948796D01*
X94050001Y-88950000D01*
X93399999Y-88950000D01*
X93375495Y-88948796D01*
X93351227Y-88945196D01*
X93327428Y-88939235D01*
X93304329Y-88930970D01*
X93282150Y-88920480D01*
X93261107Y-88907868D01*
X93241401Y-88893253D01*
X93223223Y-88876777D01*
X93206747Y-88858599D01*
X93192132Y-88838893D01*
X93179520Y-88817850D01*
X93169030Y-88795671D01*
X93160765Y-88772572D01*
X93154804Y-88748773D01*
X93151204Y-88724505D01*
X93150000Y-88700001D01*
X93150000Y-87799999D01*
X93151204Y-87775495D01*
X93154804Y-87751227D01*
X93160765Y-87727428D01*
X93169030Y-87704329D01*
X93179520Y-87682150D01*
X93192132Y-87661107D01*
X93206747Y-87641401D01*
X93223223Y-87623223D01*
X93241401Y-87606747D01*
X93261107Y-87592132D01*
X93282150Y-87579520D01*
X93304329Y-87569030D01*
X93327428Y-87560765D01*
X93351227Y-87554804D01*
X93375495Y-87551204D01*
X93399999Y-87550000D01*
X94050001Y-87550000D01*
X94074505Y-87551204D01*
X94074505Y-87551204D01*
G37*
D18*
X93725000Y-88250000D03*
D12*
G36*
X96124505Y-87551204D02*
X96148773Y-87554804D01*
X96172572Y-87560765D01*
X96195671Y-87569030D01*
X96217850Y-87579520D01*
X96238893Y-87592132D01*
X96258599Y-87606747D01*
X96276777Y-87623223D01*
X96293253Y-87641401D01*
X96307868Y-87661107D01*
X96320480Y-87682150D01*
X96330970Y-87704329D01*
X96339235Y-87727428D01*
X96345196Y-87751227D01*
X96348796Y-87775495D01*
X96350000Y-87799999D01*
X96350000Y-88700001D01*
X96348796Y-88724505D01*
X96345196Y-88748773D01*
X96339235Y-88772572D01*
X96330970Y-88795671D01*
X96320480Y-88817850D01*
X96307868Y-88838893D01*
X96293253Y-88858599D01*
X96276777Y-88876777D01*
X96258599Y-88893253D01*
X96238893Y-88907868D01*
X96217850Y-88920480D01*
X96195671Y-88930970D01*
X96172572Y-88939235D01*
X96148773Y-88945196D01*
X96124505Y-88948796D01*
X96100001Y-88950000D01*
X95449999Y-88950000D01*
X95425495Y-88948796D01*
X95401227Y-88945196D01*
X95377428Y-88939235D01*
X95354329Y-88930970D01*
X95332150Y-88920480D01*
X95311107Y-88907868D01*
X95291401Y-88893253D01*
X95273223Y-88876777D01*
X95256747Y-88858599D01*
X95242132Y-88838893D01*
X95229520Y-88817850D01*
X95219030Y-88795671D01*
X95210765Y-88772572D01*
X95204804Y-88748773D01*
X95201204Y-88724505D01*
X95200000Y-88700001D01*
X95200000Y-87799999D01*
X95201204Y-87775495D01*
X95204804Y-87751227D01*
X95210765Y-87727428D01*
X95219030Y-87704329D01*
X95229520Y-87682150D01*
X95242132Y-87661107D01*
X95256747Y-87641401D01*
X95273223Y-87623223D01*
X95291401Y-87606747D01*
X95311107Y-87592132D01*
X95332150Y-87579520D01*
X95354329Y-87569030D01*
X95377428Y-87560765D01*
X95401227Y-87554804D01*
X95425495Y-87551204D01*
X95449999Y-87550000D01*
X96100001Y-87550000D01*
X96124505Y-87551204D01*
X96124505Y-87551204D01*
G37*
D18*
X95775000Y-88250000D03*
G04 #@! TD*
D12*
G04 #@! TO.C,R26*
G36*
X120174505Y-116026204D02*
X120198773Y-116029804D01*
X120222572Y-116035765D01*
X120245671Y-116044030D01*
X120267850Y-116054520D01*
X120288893Y-116067132D01*
X120308599Y-116081747D01*
X120326777Y-116098223D01*
X120343253Y-116116401D01*
X120357868Y-116136107D01*
X120370480Y-116157150D01*
X120380970Y-116179329D01*
X120389235Y-116202428D01*
X120395196Y-116226227D01*
X120398796Y-116250495D01*
X120400000Y-116274999D01*
X120400000Y-116925001D01*
X120398796Y-116949505D01*
X120395196Y-116973773D01*
X120389235Y-116997572D01*
X120380970Y-117020671D01*
X120370480Y-117042850D01*
X120357868Y-117063893D01*
X120343253Y-117083599D01*
X120326777Y-117101777D01*
X120308599Y-117118253D01*
X120288893Y-117132868D01*
X120267850Y-117145480D01*
X120245671Y-117155970D01*
X120222572Y-117164235D01*
X120198773Y-117170196D01*
X120174505Y-117173796D01*
X120150001Y-117175000D01*
X119249999Y-117175000D01*
X119225495Y-117173796D01*
X119201227Y-117170196D01*
X119177428Y-117164235D01*
X119154329Y-117155970D01*
X119132150Y-117145480D01*
X119111107Y-117132868D01*
X119091401Y-117118253D01*
X119073223Y-117101777D01*
X119056747Y-117083599D01*
X119042132Y-117063893D01*
X119029520Y-117042850D01*
X119019030Y-117020671D01*
X119010765Y-116997572D01*
X119004804Y-116973773D01*
X119001204Y-116949505D01*
X119000000Y-116925001D01*
X119000000Y-116274999D01*
X119001204Y-116250495D01*
X119004804Y-116226227D01*
X119010765Y-116202428D01*
X119019030Y-116179329D01*
X119029520Y-116157150D01*
X119042132Y-116136107D01*
X119056747Y-116116401D01*
X119073223Y-116098223D01*
X119091401Y-116081747D01*
X119111107Y-116067132D01*
X119132150Y-116054520D01*
X119154329Y-116044030D01*
X119177428Y-116035765D01*
X119201227Y-116029804D01*
X119225495Y-116026204D01*
X119249999Y-116025000D01*
X120150001Y-116025000D01*
X120174505Y-116026204D01*
X120174505Y-116026204D01*
G37*
D18*
X119700000Y-116600000D03*
D12*
G36*
X120174505Y-113976204D02*
X120198773Y-113979804D01*
X120222572Y-113985765D01*
X120245671Y-113994030D01*
X120267850Y-114004520D01*
X120288893Y-114017132D01*
X120308599Y-114031747D01*
X120326777Y-114048223D01*
X120343253Y-114066401D01*
X120357868Y-114086107D01*
X120370480Y-114107150D01*
X120380970Y-114129329D01*
X120389235Y-114152428D01*
X120395196Y-114176227D01*
X120398796Y-114200495D01*
X120400000Y-114224999D01*
X120400000Y-114875001D01*
X120398796Y-114899505D01*
X120395196Y-114923773D01*
X120389235Y-114947572D01*
X120380970Y-114970671D01*
X120370480Y-114992850D01*
X120357868Y-115013893D01*
X120343253Y-115033599D01*
X120326777Y-115051777D01*
X120308599Y-115068253D01*
X120288893Y-115082868D01*
X120267850Y-115095480D01*
X120245671Y-115105970D01*
X120222572Y-115114235D01*
X120198773Y-115120196D01*
X120174505Y-115123796D01*
X120150001Y-115125000D01*
X119249999Y-115125000D01*
X119225495Y-115123796D01*
X119201227Y-115120196D01*
X119177428Y-115114235D01*
X119154329Y-115105970D01*
X119132150Y-115095480D01*
X119111107Y-115082868D01*
X119091401Y-115068253D01*
X119073223Y-115051777D01*
X119056747Y-115033599D01*
X119042132Y-115013893D01*
X119029520Y-114992850D01*
X119019030Y-114970671D01*
X119010765Y-114947572D01*
X119004804Y-114923773D01*
X119001204Y-114899505D01*
X119000000Y-114875001D01*
X119000000Y-114224999D01*
X119001204Y-114200495D01*
X119004804Y-114176227D01*
X119010765Y-114152428D01*
X119019030Y-114129329D01*
X119029520Y-114107150D01*
X119042132Y-114086107D01*
X119056747Y-114066401D01*
X119073223Y-114048223D01*
X119091401Y-114031747D01*
X119111107Y-114017132D01*
X119132150Y-114004520D01*
X119154329Y-113994030D01*
X119177428Y-113985765D01*
X119201227Y-113979804D01*
X119225495Y-113976204D01*
X119249999Y-113975000D01*
X120150001Y-113975000D01*
X120174505Y-113976204D01*
X120174505Y-113976204D01*
G37*
D18*
X119700000Y-114550000D03*
G04 #@! TD*
D12*
G04 #@! TO.C,R27*
G36*
X120174505Y-107651204D02*
X120198773Y-107654804D01*
X120222572Y-107660765D01*
X120245671Y-107669030D01*
X120267850Y-107679520D01*
X120288893Y-107692132D01*
X120308599Y-107706747D01*
X120326777Y-107723223D01*
X120343253Y-107741401D01*
X120357868Y-107761107D01*
X120370480Y-107782150D01*
X120380970Y-107804329D01*
X120389235Y-107827428D01*
X120395196Y-107851227D01*
X120398796Y-107875495D01*
X120400000Y-107899999D01*
X120400000Y-108550001D01*
X120398796Y-108574505D01*
X120395196Y-108598773D01*
X120389235Y-108622572D01*
X120380970Y-108645671D01*
X120370480Y-108667850D01*
X120357868Y-108688893D01*
X120343253Y-108708599D01*
X120326777Y-108726777D01*
X120308599Y-108743253D01*
X120288893Y-108757868D01*
X120267850Y-108770480D01*
X120245671Y-108780970D01*
X120222572Y-108789235D01*
X120198773Y-108795196D01*
X120174505Y-108798796D01*
X120150001Y-108800000D01*
X119249999Y-108800000D01*
X119225495Y-108798796D01*
X119201227Y-108795196D01*
X119177428Y-108789235D01*
X119154329Y-108780970D01*
X119132150Y-108770480D01*
X119111107Y-108757868D01*
X119091401Y-108743253D01*
X119073223Y-108726777D01*
X119056747Y-108708599D01*
X119042132Y-108688893D01*
X119029520Y-108667850D01*
X119019030Y-108645671D01*
X119010765Y-108622572D01*
X119004804Y-108598773D01*
X119001204Y-108574505D01*
X119000000Y-108550001D01*
X119000000Y-107899999D01*
X119001204Y-107875495D01*
X119004804Y-107851227D01*
X119010765Y-107827428D01*
X119019030Y-107804329D01*
X119029520Y-107782150D01*
X119042132Y-107761107D01*
X119056747Y-107741401D01*
X119073223Y-107723223D01*
X119091401Y-107706747D01*
X119111107Y-107692132D01*
X119132150Y-107679520D01*
X119154329Y-107669030D01*
X119177428Y-107660765D01*
X119201227Y-107654804D01*
X119225495Y-107651204D01*
X119249999Y-107650000D01*
X120150001Y-107650000D01*
X120174505Y-107651204D01*
X120174505Y-107651204D01*
G37*
D18*
X119700000Y-108225000D03*
D12*
G36*
X120174505Y-109701204D02*
X120198773Y-109704804D01*
X120222572Y-109710765D01*
X120245671Y-109719030D01*
X120267850Y-109729520D01*
X120288893Y-109742132D01*
X120308599Y-109756747D01*
X120326777Y-109773223D01*
X120343253Y-109791401D01*
X120357868Y-109811107D01*
X120370480Y-109832150D01*
X120380970Y-109854329D01*
X120389235Y-109877428D01*
X120395196Y-109901227D01*
X120398796Y-109925495D01*
X120400000Y-109949999D01*
X120400000Y-110600001D01*
X120398796Y-110624505D01*
X120395196Y-110648773D01*
X120389235Y-110672572D01*
X120380970Y-110695671D01*
X120370480Y-110717850D01*
X120357868Y-110738893D01*
X120343253Y-110758599D01*
X120326777Y-110776777D01*
X120308599Y-110793253D01*
X120288893Y-110807868D01*
X120267850Y-110820480D01*
X120245671Y-110830970D01*
X120222572Y-110839235D01*
X120198773Y-110845196D01*
X120174505Y-110848796D01*
X120150001Y-110850000D01*
X119249999Y-110850000D01*
X119225495Y-110848796D01*
X119201227Y-110845196D01*
X119177428Y-110839235D01*
X119154329Y-110830970D01*
X119132150Y-110820480D01*
X119111107Y-110807868D01*
X119091401Y-110793253D01*
X119073223Y-110776777D01*
X119056747Y-110758599D01*
X119042132Y-110738893D01*
X119029520Y-110717850D01*
X119019030Y-110695671D01*
X119010765Y-110672572D01*
X119004804Y-110648773D01*
X119001204Y-110624505D01*
X119000000Y-110600001D01*
X119000000Y-109949999D01*
X119001204Y-109925495D01*
X119004804Y-109901227D01*
X119010765Y-109877428D01*
X119019030Y-109854329D01*
X119029520Y-109832150D01*
X119042132Y-109811107D01*
X119056747Y-109791401D01*
X119073223Y-109773223D01*
X119091401Y-109756747D01*
X119111107Y-109742132D01*
X119132150Y-109729520D01*
X119154329Y-109719030D01*
X119177428Y-109710765D01*
X119201227Y-109704804D01*
X119225495Y-109701204D01*
X119249999Y-109700000D01*
X120150001Y-109700000D01*
X120174505Y-109701204D01*
X120174505Y-109701204D01*
G37*
D18*
X119700000Y-110275000D03*
G04 #@! TD*
D12*
G04 #@! TO.C,R28*
G36*
X98174505Y-111551204D02*
X98198773Y-111554804D01*
X98222572Y-111560765D01*
X98245671Y-111569030D01*
X98267850Y-111579520D01*
X98288893Y-111592132D01*
X98308599Y-111606747D01*
X98326777Y-111623223D01*
X98343253Y-111641401D01*
X98357868Y-111661107D01*
X98370480Y-111682150D01*
X98380970Y-111704329D01*
X98389235Y-111727428D01*
X98395196Y-111751227D01*
X98398796Y-111775495D01*
X98400000Y-111799999D01*
X98400000Y-112700001D01*
X98398796Y-112724505D01*
X98395196Y-112748773D01*
X98389235Y-112772572D01*
X98380970Y-112795671D01*
X98370480Y-112817850D01*
X98357868Y-112838893D01*
X98343253Y-112858599D01*
X98326777Y-112876777D01*
X98308599Y-112893253D01*
X98288893Y-112907868D01*
X98267850Y-112920480D01*
X98245671Y-112930970D01*
X98222572Y-112939235D01*
X98198773Y-112945196D01*
X98174505Y-112948796D01*
X98150001Y-112950000D01*
X97499999Y-112950000D01*
X97475495Y-112948796D01*
X97451227Y-112945196D01*
X97427428Y-112939235D01*
X97404329Y-112930970D01*
X97382150Y-112920480D01*
X97361107Y-112907868D01*
X97341401Y-112893253D01*
X97323223Y-112876777D01*
X97306747Y-112858599D01*
X97292132Y-112838893D01*
X97279520Y-112817850D01*
X97269030Y-112795671D01*
X97260765Y-112772572D01*
X97254804Y-112748773D01*
X97251204Y-112724505D01*
X97250000Y-112700001D01*
X97250000Y-111799999D01*
X97251204Y-111775495D01*
X97254804Y-111751227D01*
X97260765Y-111727428D01*
X97269030Y-111704329D01*
X97279520Y-111682150D01*
X97292132Y-111661107D01*
X97306747Y-111641401D01*
X97323223Y-111623223D01*
X97341401Y-111606747D01*
X97361107Y-111592132D01*
X97382150Y-111579520D01*
X97404329Y-111569030D01*
X97427428Y-111560765D01*
X97451227Y-111554804D01*
X97475495Y-111551204D01*
X97499999Y-111550000D01*
X98150001Y-111550000D01*
X98174505Y-111551204D01*
X98174505Y-111551204D01*
G37*
D18*
X97825000Y-112250000D03*
D12*
G36*
X96124505Y-111551204D02*
X96148773Y-111554804D01*
X96172572Y-111560765D01*
X96195671Y-111569030D01*
X96217850Y-111579520D01*
X96238893Y-111592132D01*
X96258599Y-111606747D01*
X96276777Y-111623223D01*
X96293253Y-111641401D01*
X96307868Y-111661107D01*
X96320480Y-111682150D01*
X96330970Y-111704329D01*
X96339235Y-111727428D01*
X96345196Y-111751227D01*
X96348796Y-111775495D01*
X96350000Y-111799999D01*
X96350000Y-112700001D01*
X96348796Y-112724505D01*
X96345196Y-112748773D01*
X96339235Y-112772572D01*
X96330970Y-112795671D01*
X96320480Y-112817850D01*
X96307868Y-112838893D01*
X96293253Y-112858599D01*
X96276777Y-112876777D01*
X96258599Y-112893253D01*
X96238893Y-112907868D01*
X96217850Y-112920480D01*
X96195671Y-112930970D01*
X96172572Y-112939235D01*
X96148773Y-112945196D01*
X96124505Y-112948796D01*
X96100001Y-112950000D01*
X95449999Y-112950000D01*
X95425495Y-112948796D01*
X95401227Y-112945196D01*
X95377428Y-112939235D01*
X95354329Y-112930970D01*
X95332150Y-112920480D01*
X95311107Y-112907868D01*
X95291401Y-112893253D01*
X95273223Y-112876777D01*
X95256747Y-112858599D01*
X95242132Y-112838893D01*
X95229520Y-112817850D01*
X95219030Y-112795671D01*
X95210765Y-112772572D01*
X95204804Y-112748773D01*
X95201204Y-112724505D01*
X95200000Y-112700001D01*
X95200000Y-111799999D01*
X95201204Y-111775495D01*
X95204804Y-111751227D01*
X95210765Y-111727428D01*
X95219030Y-111704329D01*
X95229520Y-111682150D01*
X95242132Y-111661107D01*
X95256747Y-111641401D01*
X95273223Y-111623223D01*
X95291401Y-111606747D01*
X95311107Y-111592132D01*
X95332150Y-111579520D01*
X95354329Y-111569030D01*
X95377428Y-111560765D01*
X95401227Y-111554804D01*
X95425495Y-111551204D01*
X95449999Y-111550000D01*
X96100001Y-111550000D01*
X96124505Y-111551204D01*
X96124505Y-111551204D01*
G37*
D18*
X95775000Y-112250000D03*
G04 #@! TD*
D12*
G04 #@! TO.C,R29*
G36*
X91624505Y-111551204D02*
X91648773Y-111554804D01*
X91672572Y-111560765D01*
X91695671Y-111569030D01*
X91717850Y-111579520D01*
X91738893Y-111592132D01*
X91758599Y-111606747D01*
X91776777Y-111623223D01*
X91793253Y-111641401D01*
X91807868Y-111661107D01*
X91820480Y-111682150D01*
X91830970Y-111704329D01*
X91839235Y-111727428D01*
X91845196Y-111751227D01*
X91848796Y-111775495D01*
X91850000Y-111799999D01*
X91850000Y-112700001D01*
X91848796Y-112724505D01*
X91845196Y-112748773D01*
X91839235Y-112772572D01*
X91830970Y-112795671D01*
X91820480Y-112817850D01*
X91807868Y-112838893D01*
X91793253Y-112858599D01*
X91776777Y-112876777D01*
X91758599Y-112893253D01*
X91738893Y-112907868D01*
X91717850Y-112920480D01*
X91695671Y-112930970D01*
X91672572Y-112939235D01*
X91648773Y-112945196D01*
X91624505Y-112948796D01*
X91600001Y-112950000D01*
X90949999Y-112950000D01*
X90925495Y-112948796D01*
X90901227Y-112945196D01*
X90877428Y-112939235D01*
X90854329Y-112930970D01*
X90832150Y-112920480D01*
X90811107Y-112907868D01*
X90791401Y-112893253D01*
X90773223Y-112876777D01*
X90756747Y-112858599D01*
X90742132Y-112838893D01*
X90729520Y-112817850D01*
X90719030Y-112795671D01*
X90710765Y-112772572D01*
X90704804Y-112748773D01*
X90701204Y-112724505D01*
X90700000Y-112700001D01*
X90700000Y-111799999D01*
X90701204Y-111775495D01*
X90704804Y-111751227D01*
X90710765Y-111727428D01*
X90719030Y-111704329D01*
X90729520Y-111682150D01*
X90742132Y-111661107D01*
X90756747Y-111641401D01*
X90773223Y-111623223D01*
X90791401Y-111606747D01*
X90811107Y-111592132D01*
X90832150Y-111579520D01*
X90854329Y-111569030D01*
X90877428Y-111560765D01*
X90901227Y-111554804D01*
X90925495Y-111551204D01*
X90949999Y-111550000D01*
X91600001Y-111550000D01*
X91624505Y-111551204D01*
X91624505Y-111551204D01*
G37*
D18*
X91275000Y-112250000D03*
D12*
G36*
X89574505Y-111551204D02*
X89598773Y-111554804D01*
X89622572Y-111560765D01*
X89645671Y-111569030D01*
X89667850Y-111579520D01*
X89688893Y-111592132D01*
X89708599Y-111606747D01*
X89726777Y-111623223D01*
X89743253Y-111641401D01*
X89757868Y-111661107D01*
X89770480Y-111682150D01*
X89780970Y-111704329D01*
X89789235Y-111727428D01*
X89795196Y-111751227D01*
X89798796Y-111775495D01*
X89800000Y-111799999D01*
X89800000Y-112700001D01*
X89798796Y-112724505D01*
X89795196Y-112748773D01*
X89789235Y-112772572D01*
X89780970Y-112795671D01*
X89770480Y-112817850D01*
X89757868Y-112838893D01*
X89743253Y-112858599D01*
X89726777Y-112876777D01*
X89708599Y-112893253D01*
X89688893Y-112907868D01*
X89667850Y-112920480D01*
X89645671Y-112930970D01*
X89622572Y-112939235D01*
X89598773Y-112945196D01*
X89574505Y-112948796D01*
X89550001Y-112950000D01*
X88899999Y-112950000D01*
X88875495Y-112948796D01*
X88851227Y-112945196D01*
X88827428Y-112939235D01*
X88804329Y-112930970D01*
X88782150Y-112920480D01*
X88761107Y-112907868D01*
X88741401Y-112893253D01*
X88723223Y-112876777D01*
X88706747Y-112858599D01*
X88692132Y-112838893D01*
X88679520Y-112817850D01*
X88669030Y-112795671D01*
X88660765Y-112772572D01*
X88654804Y-112748773D01*
X88651204Y-112724505D01*
X88650000Y-112700001D01*
X88650000Y-111799999D01*
X88651204Y-111775495D01*
X88654804Y-111751227D01*
X88660765Y-111727428D01*
X88669030Y-111704329D01*
X88679520Y-111682150D01*
X88692132Y-111661107D01*
X88706747Y-111641401D01*
X88723223Y-111623223D01*
X88741401Y-111606747D01*
X88761107Y-111592132D01*
X88782150Y-111579520D01*
X88804329Y-111569030D01*
X88827428Y-111560765D01*
X88851227Y-111554804D01*
X88875495Y-111551204D01*
X88899999Y-111550000D01*
X89550001Y-111550000D01*
X89574505Y-111551204D01*
X89574505Y-111551204D01*
G37*
D18*
X89225000Y-112250000D03*
G04 #@! TD*
D19*
G04 #@! TO.C,SW1*
X97200000Y-93000000D03*
X91800000Y-93000000D03*
G04 #@! TD*
G04 #@! TO.C,SW2*
X97200000Y-82250000D03*
X91800000Y-82250000D03*
G04 #@! TD*
G04 #@! TO.C,SW3*
X88700000Y-82250000D03*
X83300000Y-82250000D03*
G04 #@! TD*
G04 #@! TO.C,SW4*
X80200000Y-82250000D03*
X74800000Y-82250000D03*
G04 #@! TD*
D20*
G04 #@! TO.C,U1*
X85300000Y-98655000D03*
X85300000Y-97385000D03*
X85300000Y-96115000D03*
X85300000Y-94845000D03*
X79900000Y-94845000D03*
X79900000Y-96115000D03*
X79900000Y-97385000D03*
X79900000Y-98655000D03*
G04 #@! TD*
D21*
G04 #@! TO.C,U2*
X113250000Y-115150000D03*
D22*
X113250000Y-108850000D03*
X110950000Y-108850000D03*
X115550000Y-108850000D03*
G04 #@! TD*
D23*
G04 #@! TO.C,U4*
X112125000Y-94070000D03*
D24*
X104625000Y-86570000D03*
X104625000Y-87840000D03*
X104625000Y-89110000D03*
X104625000Y-90380000D03*
X104625000Y-91650000D03*
X104625000Y-92920000D03*
X104625000Y-94190000D03*
X104625000Y-95460000D03*
X104625000Y-96730000D03*
X104625000Y-98000000D03*
X104625000Y-99270000D03*
X104625000Y-100540000D03*
X104625000Y-101810000D03*
X104625000Y-103080000D03*
D25*
X107410000Y-104080000D03*
X108680000Y-104080000D03*
X109950000Y-104080000D03*
X111220000Y-104080000D03*
X112490000Y-104080000D03*
X113760000Y-104080000D03*
X115030000Y-104080000D03*
X116300000Y-104080000D03*
X117570000Y-104080000D03*
X118840000Y-104080000D03*
D24*
X121625000Y-103080000D03*
X121625000Y-101810000D03*
X121625000Y-100540000D03*
X121625000Y-99270000D03*
X121625000Y-98000000D03*
X121625000Y-96730000D03*
X121625000Y-95460000D03*
X121625000Y-94190000D03*
X121625000Y-92920000D03*
X121625000Y-91650000D03*
X121625000Y-90380000D03*
X121625000Y-89110000D03*
X121625000Y-87840000D03*
X121625000Y-86570000D03*
G04 #@! TD*
D26*
G04 #@! TO.C,J8*
X148435000Y-89025000D03*
X148435000Y-94505000D03*
D27*
X147685000Y-94725000D03*
X147685000Y-88775000D03*
D22*
X146385000Y-94625000D03*
X146365000Y-88875000D03*
D28*
X146485000Y-93075000D03*
X146485000Y-92425000D03*
X146485000Y-91775000D03*
X146485000Y-91125000D03*
X146485000Y-90475000D03*
D29*
X149635000Y-92735000D03*
X149635000Y-90815000D03*
G04 #@! TD*
D12*
G04 #@! TO.C,D5*
G36*
X85474504Y-114626204D02*
X85498773Y-114629804D01*
X85522571Y-114635765D01*
X85545671Y-114644030D01*
X85567849Y-114654520D01*
X85588893Y-114667133D01*
X85608598Y-114681747D01*
X85626777Y-114698223D01*
X85643253Y-114716402D01*
X85657867Y-114736107D01*
X85670480Y-114757151D01*
X85680970Y-114779329D01*
X85689235Y-114802429D01*
X85695196Y-114826227D01*
X85698796Y-114850496D01*
X85700000Y-114875000D01*
X85700000Y-116125000D01*
X85698796Y-116149504D01*
X85695196Y-116173773D01*
X85689235Y-116197571D01*
X85680970Y-116220671D01*
X85670480Y-116242849D01*
X85657867Y-116263893D01*
X85643253Y-116283598D01*
X85626777Y-116301777D01*
X85608598Y-116318253D01*
X85588893Y-116332867D01*
X85567849Y-116345480D01*
X85545671Y-116355970D01*
X85522571Y-116364235D01*
X85498773Y-116370196D01*
X85474504Y-116373796D01*
X85450000Y-116375000D01*
X84525000Y-116375000D01*
X84500496Y-116373796D01*
X84476227Y-116370196D01*
X84452429Y-116364235D01*
X84429329Y-116355970D01*
X84407151Y-116345480D01*
X84386107Y-116332867D01*
X84366402Y-116318253D01*
X84348223Y-116301777D01*
X84331747Y-116283598D01*
X84317133Y-116263893D01*
X84304520Y-116242849D01*
X84294030Y-116220671D01*
X84285765Y-116197571D01*
X84279804Y-116173773D01*
X84276204Y-116149504D01*
X84275000Y-116125000D01*
X84275000Y-114875000D01*
X84276204Y-114850496D01*
X84279804Y-114826227D01*
X84285765Y-114802429D01*
X84294030Y-114779329D01*
X84304520Y-114757151D01*
X84317133Y-114736107D01*
X84331747Y-114716402D01*
X84348223Y-114698223D01*
X84366402Y-114681747D01*
X84386107Y-114667133D01*
X84407151Y-114654520D01*
X84429329Y-114644030D01*
X84452429Y-114635765D01*
X84476227Y-114629804D01*
X84500496Y-114626204D01*
X84525000Y-114625000D01*
X85450000Y-114625000D01*
X85474504Y-114626204D01*
X85474504Y-114626204D01*
G37*
D15*
X84987500Y-115500000D03*
D12*
G36*
X82499504Y-114626204D02*
X82523773Y-114629804D01*
X82547571Y-114635765D01*
X82570671Y-114644030D01*
X82592849Y-114654520D01*
X82613893Y-114667133D01*
X82633598Y-114681747D01*
X82651777Y-114698223D01*
X82668253Y-114716402D01*
X82682867Y-114736107D01*
X82695480Y-114757151D01*
X82705970Y-114779329D01*
X82714235Y-114802429D01*
X82720196Y-114826227D01*
X82723796Y-114850496D01*
X82725000Y-114875000D01*
X82725000Y-116125000D01*
X82723796Y-116149504D01*
X82720196Y-116173773D01*
X82714235Y-116197571D01*
X82705970Y-116220671D01*
X82695480Y-116242849D01*
X82682867Y-116263893D01*
X82668253Y-116283598D01*
X82651777Y-116301777D01*
X82633598Y-116318253D01*
X82613893Y-116332867D01*
X82592849Y-116345480D01*
X82570671Y-116355970D01*
X82547571Y-116364235D01*
X82523773Y-116370196D01*
X82499504Y-116373796D01*
X82475000Y-116375000D01*
X81550000Y-116375000D01*
X81525496Y-116373796D01*
X81501227Y-116370196D01*
X81477429Y-116364235D01*
X81454329Y-116355970D01*
X81432151Y-116345480D01*
X81411107Y-116332867D01*
X81391402Y-116318253D01*
X81373223Y-116301777D01*
X81356747Y-116283598D01*
X81342133Y-116263893D01*
X81329520Y-116242849D01*
X81319030Y-116220671D01*
X81310765Y-116197571D01*
X81304804Y-116173773D01*
X81301204Y-116149504D01*
X81300000Y-116125000D01*
X81300000Y-114875000D01*
X81301204Y-114850496D01*
X81304804Y-114826227D01*
X81310765Y-114802429D01*
X81319030Y-114779329D01*
X81329520Y-114757151D01*
X81342133Y-114736107D01*
X81356747Y-114716402D01*
X81373223Y-114698223D01*
X81391402Y-114681747D01*
X81411107Y-114667133D01*
X81432151Y-114654520D01*
X81454329Y-114644030D01*
X81477429Y-114635765D01*
X81501227Y-114629804D01*
X81525496Y-114626204D01*
X81550000Y-114625000D01*
X82475000Y-114625000D01*
X82499504Y-114626204D01*
X82499504Y-114626204D01*
G37*
D15*
X82012500Y-115500000D03*
G04 #@! TD*
D12*
G04 #@! TO.C,D6*
G36*
X75749504Y-114626204D02*
X75773773Y-114629804D01*
X75797571Y-114635765D01*
X75820671Y-114644030D01*
X75842849Y-114654520D01*
X75863893Y-114667133D01*
X75883598Y-114681747D01*
X75901777Y-114698223D01*
X75918253Y-114716402D01*
X75932867Y-114736107D01*
X75945480Y-114757151D01*
X75955970Y-114779329D01*
X75964235Y-114802429D01*
X75970196Y-114826227D01*
X75973796Y-114850496D01*
X75975000Y-114875000D01*
X75975000Y-116125000D01*
X75973796Y-116149504D01*
X75970196Y-116173773D01*
X75964235Y-116197571D01*
X75955970Y-116220671D01*
X75945480Y-116242849D01*
X75932867Y-116263893D01*
X75918253Y-116283598D01*
X75901777Y-116301777D01*
X75883598Y-116318253D01*
X75863893Y-116332867D01*
X75842849Y-116345480D01*
X75820671Y-116355970D01*
X75797571Y-116364235D01*
X75773773Y-116370196D01*
X75749504Y-116373796D01*
X75725000Y-116375000D01*
X74800000Y-116375000D01*
X74775496Y-116373796D01*
X74751227Y-116370196D01*
X74727429Y-116364235D01*
X74704329Y-116355970D01*
X74682151Y-116345480D01*
X74661107Y-116332867D01*
X74641402Y-116318253D01*
X74623223Y-116301777D01*
X74606747Y-116283598D01*
X74592133Y-116263893D01*
X74579520Y-116242849D01*
X74569030Y-116220671D01*
X74560765Y-116197571D01*
X74554804Y-116173773D01*
X74551204Y-116149504D01*
X74550000Y-116125000D01*
X74550000Y-114875000D01*
X74551204Y-114850496D01*
X74554804Y-114826227D01*
X74560765Y-114802429D01*
X74569030Y-114779329D01*
X74579520Y-114757151D01*
X74592133Y-114736107D01*
X74606747Y-114716402D01*
X74623223Y-114698223D01*
X74641402Y-114681747D01*
X74661107Y-114667133D01*
X74682151Y-114654520D01*
X74704329Y-114644030D01*
X74727429Y-114635765D01*
X74751227Y-114629804D01*
X74775496Y-114626204D01*
X74800000Y-114625000D01*
X75725000Y-114625000D01*
X75749504Y-114626204D01*
X75749504Y-114626204D01*
G37*
D15*
X75262500Y-115500000D03*
D12*
G36*
X78724504Y-114626204D02*
X78748773Y-114629804D01*
X78772571Y-114635765D01*
X78795671Y-114644030D01*
X78817849Y-114654520D01*
X78838893Y-114667133D01*
X78858598Y-114681747D01*
X78876777Y-114698223D01*
X78893253Y-114716402D01*
X78907867Y-114736107D01*
X78920480Y-114757151D01*
X78930970Y-114779329D01*
X78939235Y-114802429D01*
X78945196Y-114826227D01*
X78948796Y-114850496D01*
X78950000Y-114875000D01*
X78950000Y-116125000D01*
X78948796Y-116149504D01*
X78945196Y-116173773D01*
X78939235Y-116197571D01*
X78930970Y-116220671D01*
X78920480Y-116242849D01*
X78907867Y-116263893D01*
X78893253Y-116283598D01*
X78876777Y-116301777D01*
X78858598Y-116318253D01*
X78838893Y-116332867D01*
X78817849Y-116345480D01*
X78795671Y-116355970D01*
X78772571Y-116364235D01*
X78748773Y-116370196D01*
X78724504Y-116373796D01*
X78700000Y-116375000D01*
X77775000Y-116375000D01*
X77750496Y-116373796D01*
X77726227Y-116370196D01*
X77702429Y-116364235D01*
X77679329Y-116355970D01*
X77657151Y-116345480D01*
X77636107Y-116332867D01*
X77616402Y-116318253D01*
X77598223Y-116301777D01*
X77581747Y-116283598D01*
X77567133Y-116263893D01*
X77554520Y-116242849D01*
X77544030Y-116220671D01*
X77535765Y-116197571D01*
X77529804Y-116173773D01*
X77526204Y-116149504D01*
X77525000Y-116125000D01*
X77525000Y-114875000D01*
X77526204Y-114850496D01*
X77529804Y-114826227D01*
X77535765Y-114802429D01*
X77544030Y-114779329D01*
X77554520Y-114757151D01*
X77567133Y-114736107D01*
X77581747Y-114716402D01*
X77598223Y-114698223D01*
X77616402Y-114681747D01*
X77636107Y-114667133D01*
X77657151Y-114654520D01*
X77679329Y-114644030D01*
X77702429Y-114635765D01*
X77726227Y-114629804D01*
X77750496Y-114626204D01*
X77775000Y-114625000D01*
X78700000Y-114625000D01*
X78724504Y-114626204D01*
X78724504Y-114626204D01*
G37*
D15*
X78237500Y-115500000D03*
G04 #@! TD*
D12*
G04 #@! TO.C,R4*
G36*
X76824505Y-87551204D02*
X76848773Y-87554804D01*
X76872572Y-87560765D01*
X76895671Y-87569030D01*
X76917850Y-87579520D01*
X76938893Y-87592132D01*
X76958599Y-87606747D01*
X76976777Y-87623223D01*
X76993253Y-87641401D01*
X77007868Y-87661107D01*
X77020480Y-87682150D01*
X77030970Y-87704329D01*
X77039235Y-87727428D01*
X77045196Y-87751227D01*
X77048796Y-87775495D01*
X77050000Y-87799999D01*
X77050000Y-88700001D01*
X77048796Y-88724505D01*
X77045196Y-88748773D01*
X77039235Y-88772572D01*
X77030970Y-88795671D01*
X77020480Y-88817850D01*
X77007868Y-88838893D01*
X76993253Y-88858599D01*
X76976777Y-88876777D01*
X76958599Y-88893253D01*
X76938893Y-88907868D01*
X76917850Y-88920480D01*
X76895671Y-88930970D01*
X76872572Y-88939235D01*
X76848773Y-88945196D01*
X76824505Y-88948796D01*
X76800001Y-88950000D01*
X76149999Y-88950000D01*
X76125495Y-88948796D01*
X76101227Y-88945196D01*
X76077428Y-88939235D01*
X76054329Y-88930970D01*
X76032150Y-88920480D01*
X76011107Y-88907868D01*
X75991401Y-88893253D01*
X75973223Y-88876777D01*
X75956747Y-88858599D01*
X75942132Y-88838893D01*
X75929520Y-88817850D01*
X75919030Y-88795671D01*
X75910765Y-88772572D01*
X75904804Y-88748773D01*
X75901204Y-88724505D01*
X75900000Y-88700001D01*
X75900000Y-87799999D01*
X75901204Y-87775495D01*
X75904804Y-87751227D01*
X75910765Y-87727428D01*
X75919030Y-87704329D01*
X75929520Y-87682150D01*
X75942132Y-87661107D01*
X75956747Y-87641401D01*
X75973223Y-87623223D01*
X75991401Y-87606747D01*
X76011107Y-87592132D01*
X76032150Y-87579520D01*
X76054329Y-87569030D01*
X76077428Y-87560765D01*
X76101227Y-87554804D01*
X76125495Y-87551204D01*
X76149999Y-87550000D01*
X76800001Y-87550000D01*
X76824505Y-87551204D01*
X76824505Y-87551204D01*
G37*
D18*
X76475000Y-88250000D03*
D12*
G36*
X78874505Y-87551204D02*
X78898773Y-87554804D01*
X78922572Y-87560765D01*
X78945671Y-87569030D01*
X78967850Y-87579520D01*
X78988893Y-87592132D01*
X79008599Y-87606747D01*
X79026777Y-87623223D01*
X79043253Y-87641401D01*
X79057868Y-87661107D01*
X79070480Y-87682150D01*
X79080970Y-87704329D01*
X79089235Y-87727428D01*
X79095196Y-87751227D01*
X79098796Y-87775495D01*
X79100000Y-87799999D01*
X79100000Y-88700001D01*
X79098796Y-88724505D01*
X79095196Y-88748773D01*
X79089235Y-88772572D01*
X79080970Y-88795671D01*
X79070480Y-88817850D01*
X79057868Y-88838893D01*
X79043253Y-88858599D01*
X79026777Y-88876777D01*
X79008599Y-88893253D01*
X78988893Y-88907868D01*
X78967850Y-88920480D01*
X78945671Y-88930970D01*
X78922572Y-88939235D01*
X78898773Y-88945196D01*
X78874505Y-88948796D01*
X78850001Y-88950000D01*
X78199999Y-88950000D01*
X78175495Y-88948796D01*
X78151227Y-88945196D01*
X78127428Y-88939235D01*
X78104329Y-88930970D01*
X78082150Y-88920480D01*
X78061107Y-88907868D01*
X78041401Y-88893253D01*
X78023223Y-88876777D01*
X78006747Y-88858599D01*
X77992132Y-88838893D01*
X77979520Y-88817850D01*
X77969030Y-88795671D01*
X77960765Y-88772572D01*
X77954804Y-88748773D01*
X77951204Y-88724505D01*
X77950000Y-88700001D01*
X77950000Y-87799999D01*
X77951204Y-87775495D01*
X77954804Y-87751227D01*
X77960765Y-87727428D01*
X77969030Y-87704329D01*
X77979520Y-87682150D01*
X77992132Y-87661107D01*
X78006747Y-87641401D01*
X78023223Y-87623223D01*
X78041401Y-87606747D01*
X78061107Y-87592132D01*
X78082150Y-87579520D01*
X78104329Y-87569030D01*
X78127428Y-87560765D01*
X78151227Y-87554804D01*
X78175495Y-87551204D01*
X78199999Y-87550000D01*
X78850001Y-87550000D01*
X78874505Y-87551204D01*
X78874505Y-87551204D01*
G37*
D18*
X78525000Y-88250000D03*
G04 #@! TD*
D12*
G04 #@! TO.C,R5*
G36*
X81474505Y-85876204D02*
X81498773Y-85879804D01*
X81522572Y-85885765D01*
X81545671Y-85894030D01*
X81567850Y-85904520D01*
X81588893Y-85917132D01*
X81608599Y-85931747D01*
X81626777Y-85948223D01*
X81643253Y-85966401D01*
X81657868Y-85986107D01*
X81670480Y-86007150D01*
X81680970Y-86029329D01*
X81689235Y-86052428D01*
X81695196Y-86076227D01*
X81698796Y-86100495D01*
X81700000Y-86124999D01*
X81700000Y-86775001D01*
X81698796Y-86799505D01*
X81695196Y-86823773D01*
X81689235Y-86847572D01*
X81680970Y-86870671D01*
X81670480Y-86892850D01*
X81657868Y-86913893D01*
X81643253Y-86933599D01*
X81626777Y-86951777D01*
X81608599Y-86968253D01*
X81588893Y-86982868D01*
X81567850Y-86995480D01*
X81545671Y-87005970D01*
X81522572Y-87014235D01*
X81498773Y-87020196D01*
X81474505Y-87023796D01*
X81450001Y-87025000D01*
X80549999Y-87025000D01*
X80525495Y-87023796D01*
X80501227Y-87020196D01*
X80477428Y-87014235D01*
X80454329Y-87005970D01*
X80432150Y-86995480D01*
X80411107Y-86982868D01*
X80391401Y-86968253D01*
X80373223Y-86951777D01*
X80356747Y-86933599D01*
X80342132Y-86913893D01*
X80329520Y-86892850D01*
X80319030Y-86870671D01*
X80310765Y-86847572D01*
X80304804Y-86823773D01*
X80301204Y-86799505D01*
X80300000Y-86775001D01*
X80300000Y-86124999D01*
X80301204Y-86100495D01*
X80304804Y-86076227D01*
X80310765Y-86052428D01*
X80319030Y-86029329D01*
X80329520Y-86007150D01*
X80342132Y-85986107D01*
X80356747Y-85966401D01*
X80373223Y-85948223D01*
X80391401Y-85931747D01*
X80411107Y-85917132D01*
X80432150Y-85904520D01*
X80454329Y-85894030D01*
X80477428Y-85885765D01*
X80501227Y-85879804D01*
X80525495Y-85876204D01*
X80549999Y-85875000D01*
X81450001Y-85875000D01*
X81474505Y-85876204D01*
X81474505Y-85876204D01*
G37*
D18*
X81000000Y-86450000D03*
D12*
G36*
X81474505Y-87926204D02*
X81498773Y-87929804D01*
X81522572Y-87935765D01*
X81545671Y-87944030D01*
X81567850Y-87954520D01*
X81588893Y-87967132D01*
X81608599Y-87981747D01*
X81626777Y-87998223D01*
X81643253Y-88016401D01*
X81657868Y-88036107D01*
X81670480Y-88057150D01*
X81680970Y-88079329D01*
X81689235Y-88102428D01*
X81695196Y-88126227D01*
X81698796Y-88150495D01*
X81700000Y-88174999D01*
X81700000Y-88825001D01*
X81698796Y-88849505D01*
X81695196Y-88873773D01*
X81689235Y-88897572D01*
X81680970Y-88920671D01*
X81670480Y-88942850D01*
X81657868Y-88963893D01*
X81643253Y-88983599D01*
X81626777Y-89001777D01*
X81608599Y-89018253D01*
X81588893Y-89032868D01*
X81567850Y-89045480D01*
X81545671Y-89055970D01*
X81522572Y-89064235D01*
X81498773Y-89070196D01*
X81474505Y-89073796D01*
X81450001Y-89075000D01*
X80549999Y-89075000D01*
X80525495Y-89073796D01*
X80501227Y-89070196D01*
X80477428Y-89064235D01*
X80454329Y-89055970D01*
X80432150Y-89045480D01*
X80411107Y-89032868D01*
X80391401Y-89018253D01*
X80373223Y-89001777D01*
X80356747Y-88983599D01*
X80342132Y-88963893D01*
X80329520Y-88942850D01*
X80319030Y-88920671D01*
X80310765Y-88897572D01*
X80304804Y-88873773D01*
X80301204Y-88849505D01*
X80300000Y-88825001D01*
X80300000Y-88174999D01*
X80301204Y-88150495D01*
X80304804Y-88126227D01*
X80310765Y-88102428D01*
X80319030Y-88079329D01*
X80329520Y-88057150D01*
X80342132Y-88036107D01*
X80356747Y-88016401D01*
X80373223Y-87998223D01*
X80391401Y-87981747D01*
X80411107Y-87967132D01*
X80432150Y-87954520D01*
X80454329Y-87944030D01*
X80477428Y-87935765D01*
X80501227Y-87929804D01*
X80525495Y-87926204D01*
X80549999Y-87925000D01*
X81450001Y-87925000D01*
X81474505Y-87926204D01*
X81474505Y-87926204D01*
G37*
D18*
X81000000Y-88500000D03*
G04 #@! TD*
D12*
G04 #@! TO.C,R30*
G36*
X85124505Y-111551204D02*
X85148773Y-111554804D01*
X85172572Y-111560765D01*
X85195671Y-111569030D01*
X85217850Y-111579520D01*
X85238893Y-111592132D01*
X85258599Y-111606747D01*
X85276777Y-111623223D01*
X85293253Y-111641401D01*
X85307868Y-111661107D01*
X85320480Y-111682150D01*
X85330970Y-111704329D01*
X85339235Y-111727428D01*
X85345196Y-111751227D01*
X85348796Y-111775495D01*
X85350000Y-111799999D01*
X85350000Y-112700001D01*
X85348796Y-112724505D01*
X85345196Y-112748773D01*
X85339235Y-112772572D01*
X85330970Y-112795671D01*
X85320480Y-112817850D01*
X85307868Y-112838893D01*
X85293253Y-112858599D01*
X85276777Y-112876777D01*
X85258599Y-112893253D01*
X85238893Y-112907868D01*
X85217850Y-112920480D01*
X85195671Y-112930970D01*
X85172572Y-112939235D01*
X85148773Y-112945196D01*
X85124505Y-112948796D01*
X85100001Y-112950000D01*
X84449999Y-112950000D01*
X84425495Y-112948796D01*
X84401227Y-112945196D01*
X84377428Y-112939235D01*
X84354329Y-112930970D01*
X84332150Y-112920480D01*
X84311107Y-112907868D01*
X84291401Y-112893253D01*
X84273223Y-112876777D01*
X84256747Y-112858599D01*
X84242132Y-112838893D01*
X84229520Y-112817850D01*
X84219030Y-112795671D01*
X84210765Y-112772572D01*
X84204804Y-112748773D01*
X84201204Y-112724505D01*
X84200000Y-112700001D01*
X84200000Y-111799999D01*
X84201204Y-111775495D01*
X84204804Y-111751227D01*
X84210765Y-111727428D01*
X84219030Y-111704329D01*
X84229520Y-111682150D01*
X84242132Y-111661107D01*
X84256747Y-111641401D01*
X84273223Y-111623223D01*
X84291401Y-111606747D01*
X84311107Y-111592132D01*
X84332150Y-111579520D01*
X84354329Y-111569030D01*
X84377428Y-111560765D01*
X84401227Y-111554804D01*
X84425495Y-111551204D01*
X84449999Y-111550000D01*
X85100001Y-111550000D01*
X85124505Y-111551204D01*
X85124505Y-111551204D01*
G37*
D18*
X84775000Y-112250000D03*
D12*
G36*
X83074505Y-111551204D02*
X83098773Y-111554804D01*
X83122572Y-111560765D01*
X83145671Y-111569030D01*
X83167850Y-111579520D01*
X83188893Y-111592132D01*
X83208599Y-111606747D01*
X83226777Y-111623223D01*
X83243253Y-111641401D01*
X83257868Y-111661107D01*
X83270480Y-111682150D01*
X83280970Y-111704329D01*
X83289235Y-111727428D01*
X83295196Y-111751227D01*
X83298796Y-111775495D01*
X83300000Y-111799999D01*
X83300000Y-112700001D01*
X83298796Y-112724505D01*
X83295196Y-112748773D01*
X83289235Y-112772572D01*
X83280970Y-112795671D01*
X83270480Y-112817850D01*
X83257868Y-112838893D01*
X83243253Y-112858599D01*
X83226777Y-112876777D01*
X83208599Y-112893253D01*
X83188893Y-112907868D01*
X83167850Y-112920480D01*
X83145671Y-112930970D01*
X83122572Y-112939235D01*
X83098773Y-112945196D01*
X83074505Y-112948796D01*
X83050001Y-112950000D01*
X82399999Y-112950000D01*
X82375495Y-112948796D01*
X82351227Y-112945196D01*
X82327428Y-112939235D01*
X82304329Y-112930970D01*
X82282150Y-112920480D01*
X82261107Y-112907868D01*
X82241401Y-112893253D01*
X82223223Y-112876777D01*
X82206747Y-112858599D01*
X82192132Y-112838893D01*
X82179520Y-112817850D01*
X82169030Y-112795671D01*
X82160765Y-112772572D01*
X82154804Y-112748773D01*
X82151204Y-112724505D01*
X82150000Y-112700001D01*
X82150000Y-111799999D01*
X82151204Y-111775495D01*
X82154804Y-111751227D01*
X82160765Y-111727428D01*
X82169030Y-111704329D01*
X82179520Y-111682150D01*
X82192132Y-111661107D01*
X82206747Y-111641401D01*
X82223223Y-111623223D01*
X82241401Y-111606747D01*
X82261107Y-111592132D01*
X82282150Y-111579520D01*
X82304329Y-111569030D01*
X82327428Y-111560765D01*
X82351227Y-111554804D01*
X82375495Y-111551204D01*
X82399999Y-111550000D01*
X83050001Y-111550000D01*
X83074505Y-111551204D01*
X83074505Y-111551204D01*
G37*
D18*
X82725000Y-112250000D03*
G04 #@! TD*
D12*
G04 #@! TO.C,R31*
G36*
X76074505Y-111551204D02*
X76098773Y-111554804D01*
X76122572Y-111560765D01*
X76145671Y-111569030D01*
X76167850Y-111579520D01*
X76188893Y-111592132D01*
X76208599Y-111606747D01*
X76226777Y-111623223D01*
X76243253Y-111641401D01*
X76257868Y-111661107D01*
X76270480Y-111682150D01*
X76280970Y-111704329D01*
X76289235Y-111727428D01*
X76295196Y-111751227D01*
X76298796Y-111775495D01*
X76300000Y-111799999D01*
X76300000Y-112700001D01*
X76298796Y-112724505D01*
X76295196Y-112748773D01*
X76289235Y-112772572D01*
X76280970Y-112795671D01*
X76270480Y-112817850D01*
X76257868Y-112838893D01*
X76243253Y-112858599D01*
X76226777Y-112876777D01*
X76208599Y-112893253D01*
X76188893Y-112907868D01*
X76167850Y-112920480D01*
X76145671Y-112930970D01*
X76122572Y-112939235D01*
X76098773Y-112945196D01*
X76074505Y-112948796D01*
X76050001Y-112950000D01*
X75399999Y-112950000D01*
X75375495Y-112948796D01*
X75351227Y-112945196D01*
X75327428Y-112939235D01*
X75304329Y-112930970D01*
X75282150Y-112920480D01*
X75261107Y-112907868D01*
X75241401Y-112893253D01*
X75223223Y-112876777D01*
X75206747Y-112858599D01*
X75192132Y-112838893D01*
X75179520Y-112817850D01*
X75169030Y-112795671D01*
X75160765Y-112772572D01*
X75154804Y-112748773D01*
X75151204Y-112724505D01*
X75150000Y-112700001D01*
X75150000Y-111799999D01*
X75151204Y-111775495D01*
X75154804Y-111751227D01*
X75160765Y-111727428D01*
X75169030Y-111704329D01*
X75179520Y-111682150D01*
X75192132Y-111661107D01*
X75206747Y-111641401D01*
X75223223Y-111623223D01*
X75241401Y-111606747D01*
X75261107Y-111592132D01*
X75282150Y-111579520D01*
X75304329Y-111569030D01*
X75327428Y-111560765D01*
X75351227Y-111554804D01*
X75375495Y-111551204D01*
X75399999Y-111550000D01*
X76050001Y-111550000D01*
X76074505Y-111551204D01*
X76074505Y-111551204D01*
G37*
D18*
X75725000Y-112250000D03*
D12*
G36*
X78124505Y-111551204D02*
X78148773Y-111554804D01*
X78172572Y-111560765D01*
X78195671Y-111569030D01*
X78217850Y-111579520D01*
X78238893Y-111592132D01*
X78258599Y-111606747D01*
X78276777Y-111623223D01*
X78293253Y-111641401D01*
X78307868Y-111661107D01*
X78320480Y-111682150D01*
X78330970Y-111704329D01*
X78339235Y-111727428D01*
X78345196Y-111751227D01*
X78348796Y-111775495D01*
X78350000Y-111799999D01*
X78350000Y-112700001D01*
X78348796Y-112724505D01*
X78345196Y-112748773D01*
X78339235Y-112772572D01*
X78330970Y-112795671D01*
X78320480Y-112817850D01*
X78307868Y-112838893D01*
X78293253Y-112858599D01*
X78276777Y-112876777D01*
X78258599Y-112893253D01*
X78238893Y-112907868D01*
X78217850Y-112920480D01*
X78195671Y-112930970D01*
X78172572Y-112939235D01*
X78148773Y-112945196D01*
X78124505Y-112948796D01*
X78100001Y-112950000D01*
X77449999Y-112950000D01*
X77425495Y-112948796D01*
X77401227Y-112945196D01*
X77377428Y-112939235D01*
X77354329Y-112930970D01*
X77332150Y-112920480D01*
X77311107Y-112907868D01*
X77291401Y-112893253D01*
X77273223Y-112876777D01*
X77256747Y-112858599D01*
X77242132Y-112838893D01*
X77229520Y-112817850D01*
X77219030Y-112795671D01*
X77210765Y-112772572D01*
X77204804Y-112748773D01*
X77201204Y-112724505D01*
X77200000Y-112700001D01*
X77200000Y-111799999D01*
X77201204Y-111775495D01*
X77204804Y-111751227D01*
X77210765Y-111727428D01*
X77219030Y-111704329D01*
X77229520Y-111682150D01*
X77242132Y-111661107D01*
X77256747Y-111641401D01*
X77273223Y-111623223D01*
X77291401Y-111606747D01*
X77311107Y-111592132D01*
X77332150Y-111579520D01*
X77354329Y-111569030D01*
X77377428Y-111560765D01*
X77401227Y-111554804D01*
X77425495Y-111551204D01*
X77449999Y-111550000D01*
X78100001Y-111550000D01*
X78124505Y-111551204D01*
X78124505Y-111551204D01*
G37*
D18*
X77775000Y-112250000D03*
G04 #@! TD*
M02*
