G04 #@! TF.GenerationSoftware,KiCad,Pcbnew,5.0.2+dfsg1-1~bpo9+1*
G04 #@! TF.CreationDate,2020-03-04T21:18:40+01:00*
G04 #@! TF.ProjectId,things_02,7468696e-6773-45f3-9032-2e6b69636164,rev?*
G04 #@! TF.SameCoordinates,Original*
G04 #@! TF.FileFunction,Soldermask,Bot*
G04 #@! TF.FilePolarity,Negative*
%FSLAX46Y46*%
G04 Gerber Fmt 4.6, Leading zero omitted, Abs format (unit mm)*
G04 Created by KiCad (PCBNEW 5.0.2+dfsg1-1~bpo9+1) date Wed Mar  4 21:18:40 2020*
%MOMM*%
%LPD*%
G01*
G04 APERTURE LIST*
%ADD10C,0.100000*%
G04 APERTURE END LIST*
D10*
G36*
X141547142Y-115358242D02*
X141695102Y-115419530D01*
X141828258Y-115508502D01*
X141941498Y-115621742D01*
X142030470Y-115754898D01*
X142091758Y-115902858D01*
X142123000Y-116059925D01*
X142123000Y-116220075D01*
X142091758Y-116377142D01*
X142030470Y-116525102D01*
X141941498Y-116658258D01*
X141828258Y-116771498D01*
X141695102Y-116860470D01*
X141547142Y-116921758D01*
X141390075Y-116953000D01*
X141229925Y-116953000D01*
X141072858Y-116921758D01*
X140924898Y-116860470D01*
X140791742Y-116771498D01*
X140678502Y-116658258D01*
X140589530Y-116525102D01*
X140528242Y-116377142D01*
X140497000Y-116220075D01*
X140497000Y-116059925D01*
X140528242Y-115902858D01*
X140589530Y-115754898D01*
X140678502Y-115621742D01*
X140791742Y-115508502D01*
X140924898Y-115419530D01*
X141072858Y-115358242D01*
X141229925Y-115327000D01*
X141390075Y-115327000D01*
X141547142Y-115358242D01*
X141547142Y-115358242D01*
G37*
G36*
X133927142Y-115358242D02*
X134075102Y-115419530D01*
X134208258Y-115508502D01*
X134321498Y-115621742D01*
X134410470Y-115754898D01*
X134471758Y-115902858D01*
X134503000Y-116059925D01*
X134503000Y-116220075D01*
X134471758Y-116377142D01*
X134410470Y-116525102D01*
X134321498Y-116658258D01*
X134208258Y-116771498D01*
X134075102Y-116860470D01*
X133927142Y-116921758D01*
X133770075Y-116953000D01*
X133609925Y-116953000D01*
X133452858Y-116921758D01*
X133304898Y-116860470D01*
X133171742Y-116771498D01*
X133058502Y-116658258D01*
X132969530Y-116525102D01*
X132908242Y-116377142D01*
X132877000Y-116220075D01*
X132877000Y-116059925D01*
X132908242Y-115902858D01*
X132969530Y-115754898D01*
X133058502Y-115621742D01*
X133171742Y-115508502D01*
X133304898Y-115419530D01*
X133452858Y-115358242D01*
X133609925Y-115327000D01*
X133770075Y-115327000D01*
X133927142Y-115358242D01*
X133927142Y-115358242D01*
G37*
G36*
X141547142Y-112818242D02*
X141695102Y-112879530D01*
X141828258Y-112968502D01*
X141941498Y-113081742D01*
X142030470Y-113214898D01*
X142091758Y-113362858D01*
X142123000Y-113519925D01*
X142123000Y-113680075D01*
X142091758Y-113837142D01*
X142030470Y-113985102D01*
X141941498Y-114118258D01*
X141828258Y-114231498D01*
X141695102Y-114320470D01*
X141547142Y-114381758D01*
X141390075Y-114413000D01*
X141229925Y-114413000D01*
X141072858Y-114381758D01*
X140924898Y-114320470D01*
X140791742Y-114231498D01*
X140678502Y-114118258D01*
X140589530Y-113985102D01*
X140528242Y-113837142D01*
X140497000Y-113680075D01*
X140497000Y-113519925D01*
X140528242Y-113362858D01*
X140589530Y-113214898D01*
X140678502Y-113081742D01*
X140791742Y-112968502D01*
X140924898Y-112879530D01*
X141072858Y-112818242D01*
X141229925Y-112787000D01*
X141390075Y-112787000D01*
X141547142Y-112818242D01*
X141547142Y-112818242D01*
G37*
G36*
X133927142Y-112818242D02*
X134075102Y-112879530D01*
X134208258Y-112968502D01*
X134321498Y-113081742D01*
X134410470Y-113214898D01*
X134471758Y-113362858D01*
X134503000Y-113519925D01*
X134503000Y-113680075D01*
X134471758Y-113837142D01*
X134410470Y-113985102D01*
X134321498Y-114118258D01*
X134208258Y-114231498D01*
X134075102Y-114320470D01*
X133927142Y-114381758D01*
X133770075Y-114413000D01*
X133609925Y-114413000D01*
X133452858Y-114381758D01*
X133304898Y-114320470D01*
X133171742Y-114231498D01*
X133058502Y-114118258D01*
X132969530Y-113985102D01*
X132908242Y-113837142D01*
X132877000Y-113680075D01*
X132877000Y-113519925D01*
X132908242Y-113362858D01*
X132969530Y-113214898D01*
X133058502Y-113081742D01*
X133171742Y-112968502D01*
X133304898Y-112879530D01*
X133452858Y-112818242D01*
X133609925Y-112787000D01*
X133770075Y-112787000D01*
X133927142Y-112818242D01*
X133927142Y-112818242D01*
G37*
G36*
X148551000Y-110551000D02*
X145449000Y-110551000D01*
X145449000Y-107449000D01*
X148551000Y-107449000D01*
X148551000Y-110551000D01*
X148551000Y-110551000D01*
G37*
G36*
X141547142Y-107738242D02*
X141695102Y-107799530D01*
X141828258Y-107888502D01*
X141941498Y-108001742D01*
X142030470Y-108134898D01*
X142091758Y-108282858D01*
X142123000Y-108439925D01*
X142123000Y-108600075D01*
X142091758Y-108757142D01*
X142030470Y-108905102D01*
X141941498Y-109038258D01*
X141828258Y-109151498D01*
X141695102Y-109240470D01*
X141547142Y-109301758D01*
X141390075Y-109333000D01*
X141229925Y-109333000D01*
X141072858Y-109301758D01*
X140924898Y-109240470D01*
X140791742Y-109151498D01*
X140678502Y-109038258D01*
X140589530Y-108905102D01*
X140528242Y-108757142D01*
X140497000Y-108600075D01*
X140497000Y-108439925D01*
X140528242Y-108282858D01*
X140589530Y-108134898D01*
X140678502Y-108001742D01*
X140791742Y-107888502D01*
X140924898Y-107799530D01*
X141072858Y-107738242D01*
X141229925Y-107707000D01*
X141390075Y-107707000D01*
X141547142Y-107738242D01*
X141547142Y-107738242D01*
G37*
G36*
X133927142Y-107738242D02*
X134075102Y-107799530D01*
X134208258Y-107888502D01*
X134321498Y-108001742D01*
X134410470Y-108134898D01*
X134471758Y-108282858D01*
X134503000Y-108439925D01*
X134503000Y-108600075D01*
X134471758Y-108757142D01*
X134410470Y-108905102D01*
X134321498Y-109038258D01*
X134208258Y-109151498D01*
X134075102Y-109240470D01*
X133927142Y-109301758D01*
X133770075Y-109333000D01*
X133609925Y-109333000D01*
X133452858Y-109301758D01*
X133304898Y-109240470D01*
X133171742Y-109151498D01*
X133058502Y-109038258D01*
X132969530Y-108905102D01*
X132908242Y-108757142D01*
X132877000Y-108600075D01*
X132877000Y-108439925D01*
X132908242Y-108282858D01*
X132969530Y-108134898D01*
X133058502Y-108001742D01*
X133171742Y-107888502D01*
X133304898Y-107799530D01*
X133452858Y-107738242D01*
X133609925Y-107707000D01*
X133770075Y-107707000D01*
X133927142Y-107738242D01*
X133927142Y-107738242D01*
G37*
G36*
X77651000Y-109151000D02*
X75849000Y-109151000D01*
X75849000Y-107349000D01*
X77651000Y-107349000D01*
X77651000Y-109151000D01*
X77651000Y-109151000D01*
G37*
G36*
X79400442Y-107355518D02*
X79466627Y-107362037D01*
X79579853Y-107396384D01*
X79636467Y-107413557D01*
X79702775Y-107449000D01*
X79792991Y-107497222D01*
X79828729Y-107526552D01*
X79930186Y-107609814D01*
X80009943Y-107707000D01*
X80042778Y-107747009D01*
X80042779Y-107747011D01*
X80126443Y-107903533D01*
X80126443Y-107903534D01*
X80177963Y-108073373D01*
X80195359Y-108250000D01*
X80177963Y-108426627D01*
X80143616Y-108539853D01*
X80126443Y-108596467D01*
X80124514Y-108600075D01*
X80042778Y-108752991D01*
X80013448Y-108788729D01*
X79930186Y-108890186D01*
X79828729Y-108973448D01*
X79792991Y-109002778D01*
X79792989Y-109002779D01*
X79636467Y-109086443D01*
X79579853Y-109103616D01*
X79466627Y-109137963D01*
X79400442Y-109144482D01*
X79334260Y-109151000D01*
X79245740Y-109151000D01*
X79179558Y-109144482D01*
X79113373Y-109137963D01*
X79000147Y-109103616D01*
X78943533Y-109086443D01*
X78787011Y-109002779D01*
X78787009Y-109002778D01*
X78751271Y-108973448D01*
X78649814Y-108890186D01*
X78566552Y-108788729D01*
X78537222Y-108752991D01*
X78455486Y-108600075D01*
X78453557Y-108596467D01*
X78436384Y-108539853D01*
X78402037Y-108426627D01*
X78384641Y-108250000D01*
X78402037Y-108073373D01*
X78453557Y-107903534D01*
X78453557Y-107903533D01*
X78537221Y-107747011D01*
X78537222Y-107747009D01*
X78570057Y-107707000D01*
X78649814Y-107609814D01*
X78751271Y-107526552D01*
X78787009Y-107497222D01*
X78877225Y-107449000D01*
X78943533Y-107413557D01*
X79000147Y-107396384D01*
X79113373Y-107362037D01*
X79179558Y-107355518D01*
X79245740Y-107349000D01*
X79334260Y-107349000D01*
X79400442Y-107355518D01*
X79400442Y-107355518D01*
G37*
G36*
X81940442Y-107355518D02*
X82006627Y-107362037D01*
X82119853Y-107396384D01*
X82176467Y-107413557D01*
X82242775Y-107449000D01*
X82332991Y-107497222D01*
X82368729Y-107526552D01*
X82470186Y-107609814D01*
X82549943Y-107707000D01*
X82582778Y-107747009D01*
X82582779Y-107747011D01*
X82666443Y-107903533D01*
X82666443Y-107903534D01*
X82717963Y-108073373D01*
X82735359Y-108250000D01*
X82717963Y-108426627D01*
X82683616Y-108539853D01*
X82666443Y-108596467D01*
X82664514Y-108600075D01*
X82582778Y-108752991D01*
X82553448Y-108788729D01*
X82470186Y-108890186D01*
X82368729Y-108973448D01*
X82332991Y-109002778D01*
X82332989Y-109002779D01*
X82176467Y-109086443D01*
X82119853Y-109103616D01*
X82006627Y-109137963D01*
X81940442Y-109144482D01*
X81874260Y-109151000D01*
X81785740Y-109151000D01*
X81719558Y-109144482D01*
X81653373Y-109137963D01*
X81540147Y-109103616D01*
X81483533Y-109086443D01*
X81327011Y-109002779D01*
X81327009Y-109002778D01*
X81291271Y-108973448D01*
X81189814Y-108890186D01*
X81106552Y-108788729D01*
X81077222Y-108752991D01*
X80995486Y-108600075D01*
X80993557Y-108596467D01*
X80976384Y-108539853D01*
X80942037Y-108426627D01*
X80924641Y-108250000D01*
X80942037Y-108073373D01*
X80993557Y-107903534D01*
X80993557Y-107903533D01*
X81077221Y-107747011D01*
X81077222Y-107747009D01*
X81110057Y-107707000D01*
X81189814Y-107609814D01*
X81291271Y-107526552D01*
X81327009Y-107497222D01*
X81417225Y-107449000D01*
X81483533Y-107413557D01*
X81540147Y-107396384D01*
X81653373Y-107362037D01*
X81719558Y-107355518D01*
X81785740Y-107349000D01*
X81874260Y-107349000D01*
X81940442Y-107355518D01*
X81940442Y-107355518D01*
G37*
G36*
X84480442Y-107355518D02*
X84546627Y-107362037D01*
X84659853Y-107396384D01*
X84716467Y-107413557D01*
X84782775Y-107449000D01*
X84872991Y-107497222D01*
X84908729Y-107526552D01*
X85010186Y-107609814D01*
X85089943Y-107707000D01*
X85122778Y-107747009D01*
X85122779Y-107747011D01*
X85206443Y-107903533D01*
X85206443Y-107903534D01*
X85257963Y-108073373D01*
X85275359Y-108250000D01*
X85257963Y-108426627D01*
X85223616Y-108539853D01*
X85206443Y-108596467D01*
X85204514Y-108600075D01*
X85122778Y-108752991D01*
X85093448Y-108788729D01*
X85010186Y-108890186D01*
X84908729Y-108973448D01*
X84872991Y-109002778D01*
X84872989Y-109002779D01*
X84716467Y-109086443D01*
X84659853Y-109103616D01*
X84546627Y-109137963D01*
X84480442Y-109144482D01*
X84414260Y-109151000D01*
X84325740Y-109151000D01*
X84259558Y-109144482D01*
X84193373Y-109137963D01*
X84080147Y-109103616D01*
X84023533Y-109086443D01*
X83867011Y-109002779D01*
X83867009Y-109002778D01*
X83831271Y-108973448D01*
X83729814Y-108890186D01*
X83646552Y-108788729D01*
X83617222Y-108752991D01*
X83535486Y-108600075D01*
X83533557Y-108596467D01*
X83516384Y-108539853D01*
X83482037Y-108426627D01*
X83464641Y-108250000D01*
X83482037Y-108073373D01*
X83533557Y-107903534D01*
X83533557Y-107903533D01*
X83617221Y-107747011D01*
X83617222Y-107747009D01*
X83650057Y-107707000D01*
X83729814Y-107609814D01*
X83831271Y-107526552D01*
X83867009Y-107497222D01*
X83957225Y-107449000D01*
X84023533Y-107413557D01*
X84080147Y-107396384D01*
X84193373Y-107362037D01*
X84259558Y-107355518D01*
X84325740Y-107349000D01*
X84414260Y-107349000D01*
X84480442Y-107355518D01*
X84480442Y-107355518D01*
G37*
G36*
X84480442Y-104815518D02*
X84546627Y-104822037D01*
X84659853Y-104856384D01*
X84716467Y-104873557D01*
X84782223Y-104908705D01*
X84872991Y-104957222D01*
X84908729Y-104986552D01*
X85010186Y-105069814D01*
X85093448Y-105171271D01*
X85122778Y-105207009D01*
X85122779Y-105207011D01*
X85206443Y-105363533D01*
X85206443Y-105363534D01*
X85257963Y-105533373D01*
X85275359Y-105710000D01*
X85257963Y-105886627D01*
X85223616Y-105999853D01*
X85206443Y-106056467D01*
X85132348Y-106195087D01*
X85122778Y-106212991D01*
X85093448Y-106248729D01*
X85010186Y-106350186D01*
X84908729Y-106433448D01*
X84872991Y-106462778D01*
X84872989Y-106462779D01*
X84716467Y-106546443D01*
X84659853Y-106563616D01*
X84546627Y-106597963D01*
X84480442Y-106604482D01*
X84414260Y-106611000D01*
X84325740Y-106611000D01*
X84259558Y-106604482D01*
X84193373Y-106597963D01*
X84080147Y-106563616D01*
X84023533Y-106546443D01*
X83867011Y-106462779D01*
X83867009Y-106462778D01*
X83831271Y-106433448D01*
X83729814Y-106350186D01*
X83646552Y-106248729D01*
X83617222Y-106212991D01*
X83607652Y-106195087D01*
X83533557Y-106056467D01*
X83516384Y-105999853D01*
X83482037Y-105886627D01*
X83464641Y-105710000D01*
X83482037Y-105533373D01*
X83533557Y-105363534D01*
X83533557Y-105363533D01*
X83617221Y-105207011D01*
X83617222Y-105207009D01*
X83646552Y-105171271D01*
X83729814Y-105069814D01*
X83831271Y-104986552D01*
X83867009Y-104957222D01*
X83957777Y-104908705D01*
X84023533Y-104873557D01*
X84080147Y-104856384D01*
X84193373Y-104822037D01*
X84259558Y-104815518D01*
X84325740Y-104809000D01*
X84414260Y-104809000D01*
X84480442Y-104815518D01*
X84480442Y-104815518D01*
G37*
G36*
X76860442Y-104815518D02*
X76926627Y-104822037D01*
X77039853Y-104856384D01*
X77096467Y-104873557D01*
X77162223Y-104908705D01*
X77252991Y-104957222D01*
X77288729Y-104986552D01*
X77390186Y-105069814D01*
X77473448Y-105171271D01*
X77502778Y-105207009D01*
X77502779Y-105207011D01*
X77586443Y-105363533D01*
X77586443Y-105363534D01*
X77637963Y-105533373D01*
X77655359Y-105710000D01*
X77637963Y-105886627D01*
X77603616Y-105999853D01*
X77586443Y-106056467D01*
X77512348Y-106195087D01*
X77502778Y-106212991D01*
X77473448Y-106248729D01*
X77390186Y-106350186D01*
X77288729Y-106433448D01*
X77252991Y-106462778D01*
X77252989Y-106462779D01*
X77096467Y-106546443D01*
X77039853Y-106563616D01*
X76926627Y-106597963D01*
X76860442Y-106604482D01*
X76794260Y-106611000D01*
X76705740Y-106611000D01*
X76639558Y-106604482D01*
X76573373Y-106597963D01*
X76460147Y-106563616D01*
X76403533Y-106546443D01*
X76247011Y-106462779D01*
X76247009Y-106462778D01*
X76211271Y-106433448D01*
X76109814Y-106350186D01*
X76026552Y-106248729D01*
X75997222Y-106212991D01*
X75987652Y-106195087D01*
X75913557Y-106056467D01*
X75896384Y-105999853D01*
X75862037Y-105886627D01*
X75844641Y-105710000D01*
X75862037Y-105533373D01*
X75913557Y-105363534D01*
X75913557Y-105363533D01*
X75997221Y-105207011D01*
X75997222Y-105207009D01*
X76026552Y-105171271D01*
X76109814Y-105069814D01*
X76211271Y-104986552D01*
X76247009Y-104957222D01*
X76337777Y-104908705D01*
X76403533Y-104873557D01*
X76460147Y-104856384D01*
X76573373Y-104822037D01*
X76639558Y-104815518D01*
X76705740Y-104809000D01*
X76794260Y-104809000D01*
X76860442Y-104815518D01*
X76860442Y-104815518D01*
G37*
G36*
X79400442Y-104815518D02*
X79466627Y-104822037D01*
X79579853Y-104856384D01*
X79636467Y-104873557D01*
X79702223Y-104908705D01*
X79792991Y-104957222D01*
X79828729Y-104986552D01*
X79930186Y-105069814D01*
X80013448Y-105171271D01*
X80042778Y-105207009D01*
X80042779Y-105207011D01*
X80126443Y-105363533D01*
X80126443Y-105363534D01*
X80177963Y-105533373D01*
X80195359Y-105710000D01*
X80177963Y-105886627D01*
X80143616Y-105999853D01*
X80126443Y-106056467D01*
X80052348Y-106195087D01*
X80042778Y-106212991D01*
X80013448Y-106248729D01*
X79930186Y-106350186D01*
X79828729Y-106433448D01*
X79792991Y-106462778D01*
X79792989Y-106462779D01*
X79636467Y-106546443D01*
X79579853Y-106563616D01*
X79466627Y-106597963D01*
X79400442Y-106604482D01*
X79334260Y-106611000D01*
X79245740Y-106611000D01*
X79179558Y-106604482D01*
X79113373Y-106597963D01*
X79000147Y-106563616D01*
X78943533Y-106546443D01*
X78787011Y-106462779D01*
X78787009Y-106462778D01*
X78751271Y-106433448D01*
X78649814Y-106350186D01*
X78566552Y-106248729D01*
X78537222Y-106212991D01*
X78527652Y-106195087D01*
X78453557Y-106056467D01*
X78436384Y-105999853D01*
X78402037Y-105886627D01*
X78384641Y-105710000D01*
X78402037Y-105533373D01*
X78453557Y-105363534D01*
X78453557Y-105363533D01*
X78537221Y-105207011D01*
X78537222Y-105207009D01*
X78566552Y-105171271D01*
X78649814Y-105069814D01*
X78751271Y-104986552D01*
X78787009Y-104957222D01*
X78877777Y-104908705D01*
X78943533Y-104873557D01*
X79000147Y-104856384D01*
X79113373Y-104822037D01*
X79179558Y-104815518D01*
X79245740Y-104809000D01*
X79334260Y-104809000D01*
X79400442Y-104815518D01*
X79400442Y-104815518D01*
G37*
G36*
X81940442Y-104815518D02*
X82006627Y-104822037D01*
X82119853Y-104856384D01*
X82176467Y-104873557D01*
X82242223Y-104908705D01*
X82332991Y-104957222D01*
X82368729Y-104986552D01*
X82470186Y-105069814D01*
X82553448Y-105171271D01*
X82582778Y-105207009D01*
X82582779Y-105207011D01*
X82666443Y-105363533D01*
X82666443Y-105363534D01*
X82717963Y-105533373D01*
X82735359Y-105710000D01*
X82717963Y-105886627D01*
X82683616Y-105999853D01*
X82666443Y-106056467D01*
X82592348Y-106195087D01*
X82582778Y-106212991D01*
X82553448Y-106248729D01*
X82470186Y-106350186D01*
X82368729Y-106433448D01*
X82332991Y-106462778D01*
X82332989Y-106462779D01*
X82176467Y-106546443D01*
X82119853Y-106563616D01*
X82006627Y-106597963D01*
X81940442Y-106604482D01*
X81874260Y-106611000D01*
X81785740Y-106611000D01*
X81719558Y-106604482D01*
X81653373Y-106597963D01*
X81540147Y-106563616D01*
X81483533Y-106546443D01*
X81327011Y-106462779D01*
X81327009Y-106462778D01*
X81291271Y-106433448D01*
X81189814Y-106350186D01*
X81106552Y-106248729D01*
X81077222Y-106212991D01*
X81067652Y-106195087D01*
X80993557Y-106056467D01*
X80976384Y-105999853D01*
X80942037Y-105886627D01*
X80924641Y-105710000D01*
X80942037Y-105533373D01*
X80993557Y-105363534D01*
X80993557Y-105363533D01*
X81077221Y-105207011D01*
X81077222Y-105207009D01*
X81106552Y-105171271D01*
X81189814Y-105069814D01*
X81291271Y-104986552D01*
X81327009Y-104957222D01*
X81417777Y-104908705D01*
X81483533Y-104873557D01*
X81540147Y-104856384D01*
X81653373Y-104822037D01*
X81719558Y-104815518D01*
X81785740Y-104809000D01*
X81874260Y-104809000D01*
X81940442Y-104815518D01*
X81940442Y-104815518D01*
G37*
G36*
X127860442Y-104225518D02*
X127926627Y-104232037D01*
X128039853Y-104266384D01*
X128096467Y-104283557D01*
X128235087Y-104357652D01*
X128252991Y-104367222D01*
X128288729Y-104396552D01*
X128390186Y-104479814D01*
X128473448Y-104581271D01*
X128502778Y-104617009D01*
X128502779Y-104617011D01*
X128586443Y-104773533D01*
X128601156Y-104822037D01*
X128637963Y-104943373D01*
X128655359Y-105120000D01*
X128637963Y-105296627D01*
X128617667Y-105363533D01*
X128586443Y-105466467D01*
X128584020Y-105471000D01*
X128502778Y-105622991D01*
X128473448Y-105658729D01*
X128390186Y-105760186D01*
X128288729Y-105843448D01*
X128252991Y-105872778D01*
X128252989Y-105872779D01*
X128096467Y-105956443D01*
X128039853Y-105973616D01*
X127926627Y-106007963D01*
X127860443Y-106014481D01*
X127794260Y-106021000D01*
X127705740Y-106021000D01*
X127639557Y-106014481D01*
X127573373Y-106007963D01*
X127460147Y-105973616D01*
X127403533Y-105956443D01*
X127247011Y-105872779D01*
X127247009Y-105872778D01*
X127211271Y-105843448D01*
X127109814Y-105760186D01*
X127026552Y-105658729D01*
X126997222Y-105622991D01*
X126915980Y-105471000D01*
X126913557Y-105466467D01*
X126882333Y-105363533D01*
X126862037Y-105296627D01*
X126844641Y-105120000D01*
X126862037Y-104943373D01*
X126898844Y-104822037D01*
X126913557Y-104773533D01*
X126997221Y-104617011D01*
X126997222Y-104617009D01*
X127026552Y-104581271D01*
X127109814Y-104479814D01*
X127211271Y-104396552D01*
X127247009Y-104367222D01*
X127264913Y-104357652D01*
X127403533Y-104283557D01*
X127460147Y-104266384D01*
X127573373Y-104232037D01*
X127639557Y-104225519D01*
X127705740Y-104219000D01*
X127794260Y-104219000D01*
X127860442Y-104225518D01*
X127860442Y-104225518D01*
G37*
G36*
X147313635Y-102401000D02*
X147452410Y-102428604D01*
X147734674Y-102545521D01*
X147988705Y-102715259D01*
X148204741Y-102931295D01*
X148374479Y-103185326D01*
X148470210Y-103416443D01*
X148491396Y-103467591D01*
X148551000Y-103767238D01*
X148551000Y-104072762D01*
X148533553Y-104160471D01*
X148491396Y-104372410D01*
X148374479Y-104654674D01*
X148204741Y-104908705D01*
X147988705Y-105124741D01*
X147734674Y-105294479D01*
X147452410Y-105411396D01*
X147352527Y-105431264D01*
X147152762Y-105471000D01*
X146847238Y-105471000D01*
X146647473Y-105431264D01*
X146547590Y-105411396D01*
X146265326Y-105294479D01*
X146011295Y-105124741D01*
X145795259Y-104908705D01*
X145625521Y-104654674D01*
X145508604Y-104372410D01*
X145466447Y-104160471D01*
X145449000Y-104072762D01*
X145449000Y-103767238D01*
X145508604Y-103467591D01*
X145529790Y-103416443D01*
X145625521Y-103185326D01*
X145795259Y-102931295D01*
X146011295Y-102715259D01*
X146265326Y-102545521D01*
X146547590Y-102428604D01*
X146686365Y-102401000D01*
X146847238Y-102369000D01*
X147152762Y-102369000D01*
X147313635Y-102401000D01*
X147313635Y-102401000D01*
G37*
G36*
X133927142Y-102658242D02*
X134041583Y-102705646D01*
X134064799Y-102715262D01*
X134075102Y-102719530D01*
X134142130Y-102764317D01*
X134208257Y-102808501D01*
X134321499Y-102921743D01*
X134324655Y-102926467D01*
X134410470Y-103054898D01*
X134471758Y-103202858D01*
X134503000Y-103359925D01*
X134503000Y-103520075D01*
X134471758Y-103677142D01*
X134424354Y-103791583D01*
X134410471Y-103825100D01*
X134321499Y-103958257D01*
X134208257Y-104071499D01*
X134142130Y-104115683D01*
X134075102Y-104160470D01*
X133927142Y-104221758D01*
X133770075Y-104253000D01*
X133609925Y-104253000D01*
X133452858Y-104221758D01*
X133304898Y-104160470D01*
X133237870Y-104115683D01*
X133171743Y-104071499D01*
X133058501Y-103958257D01*
X132969529Y-103825100D01*
X132955646Y-103791583D01*
X132908242Y-103677142D01*
X132877000Y-103520075D01*
X132877000Y-103359925D01*
X132908242Y-103202858D01*
X132969530Y-103054898D01*
X133055345Y-102926467D01*
X133058501Y-102921743D01*
X133171743Y-102808501D01*
X133237870Y-102764317D01*
X133304898Y-102719530D01*
X133315202Y-102715262D01*
X133338417Y-102705646D01*
X133452858Y-102658242D01*
X133609925Y-102627000D01*
X133770075Y-102627000D01*
X133927142Y-102658242D01*
X133927142Y-102658242D01*
G37*
G36*
X141547142Y-102658242D02*
X141661583Y-102705646D01*
X141684799Y-102715262D01*
X141695102Y-102719530D01*
X141762130Y-102764317D01*
X141828257Y-102808501D01*
X141941499Y-102921743D01*
X141944655Y-102926467D01*
X142030470Y-103054898D01*
X142091758Y-103202858D01*
X142123000Y-103359925D01*
X142123000Y-103520075D01*
X142091758Y-103677142D01*
X142044354Y-103791583D01*
X142030471Y-103825100D01*
X141941499Y-103958257D01*
X141828257Y-104071499D01*
X141762130Y-104115683D01*
X141695102Y-104160470D01*
X141547142Y-104221758D01*
X141390075Y-104253000D01*
X141229925Y-104253000D01*
X141072858Y-104221758D01*
X140924898Y-104160470D01*
X140857870Y-104115683D01*
X140791743Y-104071499D01*
X140678501Y-103958257D01*
X140589529Y-103825100D01*
X140575646Y-103791583D01*
X140528242Y-103677142D01*
X140497000Y-103520075D01*
X140497000Y-103359925D01*
X140528242Y-103202858D01*
X140589530Y-103054898D01*
X140675345Y-102926467D01*
X140678501Y-102921743D01*
X140791743Y-102808501D01*
X140857870Y-102764317D01*
X140924898Y-102719530D01*
X140935202Y-102715262D01*
X140958417Y-102705646D01*
X141072858Y-102658242D01*
X141229925Y-102627000D01*
X141390075Y-102627000D01*
X141547142Y-102658242D01*
X141547142Y-102658242D01*
G37*
G36*
X127860443Y-101685519D02*
X127926627Y-101692037D01*
X128039853Y-101726384D01*
X128096467Y-101743557D01*
X128235087Y-101817652D01*
X128252991Y-101827222D01*
X128276441Y-101846467D01*
X128390186Y-101939814D01*
X128442033Y-102002991D01*
X128502778Y-102077009D01*
X128502779Y-102077011D01*
X128586443Y-102233533D01*
X128586443Y-102233534D01*
X128637963Y-102403373D01*
X128655359Y-102580000D01*
X128637963Y-102756627D01*
X128622227Y-102808501D01*
X128586443Y-102926467D01*
X128545539Y-103002991D01*
X128502778Y-103082991D01*
X128473448Y-103118729D01*
X128390186Y-103220186D01*
X128288729Y-103303448D01*
X128252991Y-103332778D01*
X128252989Y-103332779D01*
X128096467Y-103416443D01*
X128039853Y-103433616D01*
X127926627Y-103467963D01*
X127860442Y-103474482D01*
X127794260Y-103481000D01*
X127705740Y-103481000D01*
X127639558Y-103474482D01*
X127573373Y-103467963D01*
X127460147Y-103433616D01*
X127403533Y-103416443D01*
X127247011Y-103332779D01*
X127247009Y-103332778D01*
X127211271Y-103303448D01*
X127109814Y-103220186D01*
X127026552Y-103118729D01*
X126997222Y-103082991D01*
X126954461Y-103002991D01*
X126913557Y-102926467D01*
X126877773Y-102808501D01*
X126862037Y-102756627D01*
X126844641Y-102580000D01*
X126862037Y-102403373D01*
X126913557Y-102233534D01*
X126913557Y-102233533D01*
X126997221Y-102077011D01*
X126997222Y-102077009D01*
X127057967Y-102002991D01*
X127109814Y-101939814D01*
X127223559Y-101846467D01*
X127247009Y-101827222D01*
X127264913Y-101817652D01*
X127403533Y-101743557D01*
X127460147Y-101726384D01*
X127573373Y-101692037D01*
X127639558Y-101685518D01*
X127705740Y-101679000D01*
X127794260Y-101679000D01*
X127860443Y-101685519D01*
X127860443Y-101685519D01*
G37*
G36*
X130510443Y-101605519D02*
X130576627Y-101612037D01*
X130689853Y-101646384D01*
X130746467Y-101663557D01*
X130885087Y-101737652D01*
X130902991Y-101747222D01*
X130938729Y-101776552D01*
X131040186Y-101859814D01*
X131105839Y-101939814D01*
X131152778Y-101997009D01*
X131152779Y-101997011D01*
X131236443Y-102153533D01*
X131236443Y-102153534D01*
X131287963Y-102323373D01*
X131305359Y-102500000D01*
X131287963Y-102676627D01*
X131263696Y-102756625D01*
X131236443Y-102846467D01*
X131193682Y-102926466D01*
X131152778Y-103002991D01*
X131123448Y-103038729D01*
X131040186Y-103140186D01*
X130942705Y-103220185D01*
X130902991Y-103252778D01*
X130902989Y-103252779D01*
X130746467Y-103336443D01*
X130689853Y-103353616D01*
X130576627Y-103387963D01*
X130510442Y-103394482D01*
X130444260Y-103401000D01*
X130355740Y-103401000D01*
X130289558Y-103394482D01*
X130223373Y-103387963D01*
X130110147Y-103353616D01*
X130053533Y-103336443D01*
X129897011Y-103252779D01*
X129897009Y-103252778D01*
X129857295Y-103220185D01*
X129759814Y-103140186D01*
X129676552Y-103038729D01*
X129647222Y-103002991D01*
X129606318Y-102926466D01*
X129563557Y-102846467D01*
X129536304Y-102756625D01*
X129512037Y-102676627D01*
X129494641Y-102500000D01*
X129512037Y-102323373D01*
X129563557Y-102153534D01*
X129563557Y-102153533D01*
X129647221Y-101997011D01*
X129647222Y-101997009D01*
X129694161Y-101939814D01*
X129759814Y-101859814D01*
X129861271Y-101776552D01*
X129897009Y-101747222D01*
X129914913Y-101737652D01*
X130053533Y-101663557D01*
X130110147Y-101646384D01*
X130223373Y-101612037D01*
X130289557Y-101605519D01*
X130355740Y-101599000D01*
X130444260Y-101599000D01*
X130510443Y-101605519D01*
X130510443Y-101605519D01*
G37*
G36*
X71935443Y-100605519D02*
X72001627Y-100612037D01*
X72114853Y-100646384D01*
X72171467Y-100663557D01*
X72310087Y-100737652D01*
X72327991Y-100747222D01*
X72363729Y-100776552D01*
X72465186Y-100859814D01*
X72548448Y-100961271D01*
X72577778Y-100997009D01*
X72577779Y-100997011D01*
X72661443Y-101153533D01*
X72661443Y-101153534D01*
X72712963Y-101323373D01*
X72730359Y-101500000D01*
X72712963Y-101676627D01*
X72691548Y-101747222D01*
X72661443Y-101846467D01*
X72654308Y-101859815D01*
X72577778Y-102002991D01*
X72548448Y-102038729D01*
X72465186Y-102140186D01*
X72363729Y-102223448D01*
X72327991Y-102252778D01*
X72327989Y-102252779D01*
X72171467Y-102336443D01*
X72114853Y-102353616D01*
X72001627Y-102387963D01*
X71935443Y-102394481D01*
X71869260Y-102401000D01*
X71530740Y-102401000D01*
X71464557Y-102394481D01*
X71398373Y-102387963D01*
X71285147Y-102353616D01*
X71228533Y-102336443D01*
X71072011Y-102252779D01*
X71072009Y-102252778D01*
X71036271Y-102223448D01*
X70934814Y-102140186D01*
X70851552Y-102038729D01*
X70822222Y-102002991D01*
X70745692Y-101859815D01*
X70738557Y-101846467D01*
X70708452Y-101747222D01*
X70687037Y-101676627D01*
X70669641Y-101500000D01*
X70687037Y-101323373D01*
X70738557Y-101153534D01*
X70738557Y-101153533D01*
X70822221Y-100997011D01*
X70822222Y-100997009D01*
X70851552Y-100961271D01*
X70934814Y-100859814D01*
X71036271Y-100776552D01*
X71072009Y-100747222D01*
X71089913Y-100737652D01*
X71228533Y-100663557D01*
X71285147Y-100646384D01*
X71398373Y-100612037D01*
X71464558Y-100605518D01*
X71530740Y-100599000D01*
X71869260Y-100599000D01*
X71935443Y-100605519D01*
X71935443Y-100605519D01*
G37*
G36*
X101501000Y-101551000D02*
X99399000Y-101551000D01*
X99399000Y-100449000D01*
X101501000Y-100449000D01*
X101501000Y-101551000D01*
X101501000Y-101551000D01*
G37*
G36*
X117501000Y-101551000D02*
X115399000Y-101551000D01*
X115399000Y-100449000D01*
X117501000Y-100449000D01*
X117501000Y-101551000D01*
X117501000Y-101551000D01*
G37*
G36*
X127860442Y-99145518D02*
X127926627Y-99152037D01*
X128039853Y-99186384D01*
X128096467Y-99203557D01*
X128235087Y-99277652D01*
X128252991Y-99287222D01*
X128288729Y-99316552D01*
X128390186Y-99399814D01*
X128473448Y-99501271D01*
X128502778Y-99537009D01*
X128502779Y-99537011D01*
X128586443Y-99693533D01*
X128586443Y-99693534D01*
X128637963Y-99863373D01*
X128655359Y-100040000D01*
X128637963Y-100216627D01*
X128610711Y-100306466D01*
X128586443Y-100386467D01*
X128545539Y-100462991D01*
X128502778Y-100542991D01*
X128473448Y-100578729D01*
X128390186Y-100680186D01*
X128308502Y-100747221D01*
X128252991Y-100792778D01*
X128252989Y-100792779D01*
X128096467Y-100876443D01*
X128039853Y-100893616D01*
X127926627Y-100927963D01*
X127860442Y-100934482D01*
X127794260Y-100941000D01*
X127705740Y-100941000D01*
X127639557Y-100934481D01*
X127573373Y-100927963D01*
X127460147Y-100893616D01*
X127403533Y-100876443D01*
X127247011Y-100792779D01*
X127247009Y-100792778D01*
X127191498Y-100747221D01*
X127109814Y-100680186D01*
X127026552Y-100578729D01*
X126997222Y-100542991D01*
X126954461Y-100462991D01*
X126913557Y-100386467D01*
X126889289Y-100306466D01*
X126862037Y-100216627D01*
X126844641Y-100040000D01*
X126862037Y-99863373D01*
X126913557Y-99693534D01*
X126913557Y-99693533D01*
X126997221Y-99537011D01*
X126997222Y-99537009D01*
X127026552Y-99501271D01*
X127109814Y-99399814D01*
X127211271Y-99316552D01*
X127247009Y-99287222D01*
X127264913Y-99277652D01*
X127403533Y-99203557D01*
X127460147Y-99186384D01*
X127573373Y-99152037D01*
X127639557Y-99145519D01*
X127705740Y-99139000D01*
X127794260Y-99139000D01*
X127860442Y-99145518D01*
X127860442Y-99145518D01*
G37*
G36*
X130510442Y-99065518D02*
X130576627Y-99072037D01*
X130689853Y-99106384D01*
X130746467Y-99123557D01*
X130885087Y-99197652D01*
X130902991Y-99207222D01*
X130938729Y-99236552D01*
X131040186Y-99319814D01*
X131105839Y-99399814D01*
X131152778Y-99457009D01*
X131152779Y-99457011D01*
X131236443Y-99613533D01*
X131244528Y-99640186D01*
X131287963Y-99783373D01*
X131305359Y-99960000D01*
X131287963Y-100136627D01*
X131264347Y-100214479D01*
X131236443Y-100306467D01*
X131223118Y-100331396D01*
X131152778Y-100462991D01*
X131123448Y-100498729D01*
X131040186Y-100600186D01*
X130962967Y-100663557D01*
X130902991Y-100712778D01*
X130902989Y-100712779D01*
X130746467Y-100796443D01*
X130689853Y-100813616D01*
X130576627Y-100847963D01*
X130510443Y-100854481D01*
X130444260Y-100861000D01*
X130355740Y-100861000D01*
X130289558Y-100854482D01*
X130223373Y-100847963D01*
X130110147Y-100813616D01*
X130053533Y-100796443D01*
X129897011Y-100712779D01*
X129897009Y-100712778D01*
X129837033Y-100663557D01*
X129759814Y-100600186D01*
X129676552Y-100498729D01*
X129647222Y-100462991D01*
X129576882Y-100331396D01*
X129563557Y-100306467D01*
X129535653Y-100214479D01*
X129512037Y-100136627D01*
X129494641Y-99960000D01*
X129512037Y-99783373D01*
X129555472Y-99640186D01*
X129563557Y-99613533D01*
X129647221Y-99457011D01*
X129647222Y-99457009D01*
X129694161Y-99399814D01*
X129759814Y-99319814D01*
X129861271Y-99236552D01*
X129897009Y-99207222D01*
X129914913Y-99197652D01*
X130053533Y-99123557D01*
X130110147Y-99106384D01*
X130223373Y-99072037D01*
X130289558Y-99065518D01*
X130355740Y-99059000D01*
X130444260Y-99059000D01*
X130510442Y-99065518D01*
X130510442Y-99065518D01*
G37*
G36*
X147352527Y-97328736D02*
X147452410Y-97348604D01*
X147734674Y-97465521D01*
X147988705Y-97635259D01*
X148204741Y-97851295D01*
X148374479Y-98105326D01*
X148479891Y-98359815D01*
X148491396Y-98387591D01*
X148551000Y-98687238D01*
X148551000Y-98992762D01*
X148533553Y-99080471D01*
X148491396Y-99292410D01*
X148374479Y-99574674D01*
X148204741Y-99828705D01*
X147988705Y-100044741D01*
X147734674Y-100214479D01*
X147452410Y-100331396D01*
X147352527Y-100351264D01*
X147152762Y-100391000D01*
X146847238Y-100391000D01*
X146647473Y-100351264D01*
X146547590Y-100331396D01*
X146265326Y-100214479D01*
X146011295Y-100044741D01*
X145795259Y-99828705D01*
X145625521Y-99574674D01*
X145508604Y-99292410D01*
X145466447Y-99080471D01*
X145449000Y-98992762D01*
X145449000Y-98687238D01*
X145508604Y-98387591D01*
X145520109Y-98359815D01*
X145625521Y-98105326D01*
X145795259Y-97851295D01*
X146011295Y-97635259D01*
X146265326Y-97465521D01*
X146547590Y-97348604D01*
X146647473Y-97328736D01*
X146847238Y-97289000D01*
X147152762Y-97289000D01*
X147352527Y-97328736D01*
X147352527Y-97328736D01*
G37*
G36*
X71933488Y-98105326D02*
X72001627Y-98112037D01*
X72114853Y-98146384D01*
X72171467Y-98163557D01*
X72310087Y-98237652D01*
X72327991Y-98247222D01*
X72363729Y-98276552D01*
X72465186Y-98359814D01*
X72538378Y-98449000D01*
X72577778Y-98497009D01*
X72577779Y-98497011D01*
X72661443Y-98653533D01*
X72661443Y-98653534D01*
X72712963Y-98823373D01*
X72730359Y-99000000D01*
X72712963Y-99176627D01*
X72703682Y-99207221D01*
X72661443Y-99346467D01*
X72632928Y-99399814D01*
X72577778Y-99502991D01*
X72549860Y-99537009D01*
X72465186Y-99640186D01*
X72400180Y-99693534D01*
X72327991Y-99752778D01*
X72327989Y-99752779D01*
X72171467Y-99836443D01*
X72114853Y-99853616D01*
X72001627Y-99887963D01*
X71935443Y-99894481D01*
X71869260Y-99901000D01*
X71530740Y-99901000D01*
X71464557Y-99894481D01*
X71398373Y-99887963D01*
X71285147Y-99853616D01*
X71228533Y-99836443D01*
X71072011Y-99752779D01*
X71072009Y-99752778D01*
X70999820Y-99693534D01*
X70934814Y-99640186D01*
X70850140Y-99537009D01*
X70822222Y-99502991D01*
X70767072Y-99399814D01*
X70738557Y-99346467D01*
X70696318Y-99207221D01*
X70687037Y-99176627D01*
X70669641Y-99000000D01*
X70687037Y-98823373D01*
X70738557Y-98653534D01*
X70738557Y-98653533D01*
X70822221Y-98497011D01*
X70822222Y-98497009D01*
X70861622Y-98449000D01*
X70934814Y-98359814D01*
X71036271Y-98276552D01*
X71072009Y-98247222D01*
X71089913Y-98237652D01*
X71228533Y-98163557D01*
X71285147Y-98146384D01*
X71398373Y-98112037D01*
X71466512Y-98105326D01*
X71530740Y-98099000D01*
X71869260Y-98099000D01*
X71933488Y-98105326D01*
X71933488Y-98105326D01*
G37*
G36*
X117501000Y-99551000D02*
X115399000Y-99551000D01*
X115399000Y-98449000D01*
X117501000Y-98449000D01*
X117501000Y-99551000D01*
X117501000Y-99551000D01*
G37*
G36*
X101501000Y-99551000D02*
X99399000Y-99551000D01*
X99399000Y-98449000D01*
X101501000Y-98449000D01*
X101501000Y-99551000D01*
X101501000Y-99551000D01*
G37*
G36*
X133927142Y-97578242D02*
X134041583Y-97625646D01*
X134064799Y-97635262D01*
X134075102Y-97639530D01*
X134208258Y-97728502D01*
X134321498Y-97841742D01*
X134410470Y-97974898D01*
X134471758Y-98122858D01*
X134503000Y-98279925D01*
X134503000Y-98440075D01*
X134471758Y-98597142D01*
X134424354Y-98711583D01*
X134410471Y-98745100D01*
X134321499Y-98878257D01*
X134208257Y-98991499D01*
X134195534Y-99000000D01*
X134075102Y-99080470D01*
X133927142Y-99141758D01*
X133770075Y-99173000D01*
X133609925Y-99173000D01*
X133452858Y-99141758D01*
X133304898Y-99080470D01*
X133184466Y-99000000D01*
X133171743Y-98991499D01*
X133058501Y-98878257D01*
X132969529Y-98745100D01*
X132955646Y-98711583D01*
X132908242Y-98597142D01*
X132877000Y-98440075D01*
X132877000Y-98279925D01*
X132908242Y-98122858D01*
X132969530Y-97974898D01*
X133058502Y-97841742D01*
X133171742Y-97728502D01*
X133304898Y-97639530D01*
X133315202Y-97635262D01*
X133338417Y-97625646D01*
X133452858Y-97578242D01*
X133609925Y-97547000D01*
X133770075Y-97547000D01*
X133927142Y-97578242D01*
X133927142Y-97578242D01*
G37*
G36*
X141547142Y-97578242D02*
X141661583Y-97625646D01*
X141684799Y-97635262D01*
X141695102Y-97639530D01*
X141828258Y-97728502D01*
X141941498Y-97841742D01*
X142030470Y-97974898D01*
X142091758Y-98122858D01*
X142123000Y-98279925D01*
X142123000Y-98440075D01*
X142091758Y-98597142D01*
X142044354Y-98711583D01*
X142030471Y-98745100D01*
X141941499Y-98878257D01*
X141828257Y-98991499D01*
X141815534Y-99000000D01*
X141695102Y-99080470D01*
X141547142Y-99141758D01*
X141390075Y-99173000D01*
X141229925Y-99173000D01*
X141072858Y-99141758D01*
X140924898Y-99080470D01*
X140804466Y-99000000D01*
X140791743Y-98991499D01*
X140678501Y-98878257D01*
X140589529Y-98745100D01*
X140575646Y-98711583D01*
X140528242Y-98597142D01*
X140497000Y-98440075D01*
X140497000Y-98279925D01*
X140528242Y-98122858D01*
X140589530Y-97974898D01*
X140678502Y-97841742D01*
X140791742Y-97728502D01*
X140924898Y-97639530D01*
X140935202Y-97635262D01*
X140958417Y-97625646D01*
X141072858Y-97578242D01*
X141229925Y-97547000D01*
X141390075Y-97547000D01*
X141547142Y-97578242D01*
X141547142Y-97578242D01*
G37*
G36*
X128651000Y-98401000D02*
X126849000Y-98401000D01*
X126849000Y-96599000D01*
X128651000Y-96599000D01*
X128651000Y-98401000D01*
X128651000Y-98401000D01*
G37*
G36*
X130510442Y-96525518D02*
X130576627Y-96532037D01*
X130689853Y-96566384D01*
X130746467Y-96583557D01*
X130775358Y-96599000D01*
X130902991Y-96667222D01*
X130938729Y-96696552D01*
X131040186Y-96779814D01*
X131123448Y-96881271D01*
X131152778Y-96917009D01*
X131152779Y-96917011D01*
X131236443Y-97073533D01*
X131236443Y-97073534D01*
X131287963Y-97243373D01*
X131305359Y-97420000D01*
X131287963Y-97596627D01*
X131253616Y-97709853D01*
X131236443Y-97766467D01*
X131191102Y-97851293D01*
X131152778Y-97922991D01*
X131123448Y-97958729D01*
X131040186Y-98060186D01*
X130938729Y-98143448D01*
X130902991Y-98172778D01*
X130902989Y-98172779D01*
X130746467Y-98256443D01*
X130689853Y-98273616D01*
X130576627Y-98307963D01*
X130510442Y-98314482D01*
X130444260Y-98321000D01*
X130355740Y-98321000D01*
X130289558Y-98314482D01*
X130223373Y-98307963D01*
X130110147Y-98273616D01*
X130053533Y-98256443D01*
X129897011Y-98172779D01*
X129897009Y-98172778D01*
X129861271Y-98143448D01*
X129759814Y-98060186D01*
X129676552Y-97958729D01*
X129647222Y-97922991D01*
X129608898Y-97851293D01*
X129563557Y-97766467D01*
X129546384Y-97709853D01*
X129512037Y-97596627D01*
X129494641Y-97420000D01*
X129512037Y-97243373D01*
X129563557Y-97073534D01*
X129563557Y-97073533D01*
X129647221Y-96917011D01*
X129647222Y-96917009D01*
X129676552Y-96881271D01*
X129759814Y-96779814D01*
X129861271Y-96696552D01*
X129897009Y-96667222D01*
X130024642Y-96599000D01*
X130053533Y-96583557D01*
X130110147Y-96566384D01*
X130223373Y-96532037D01*
X130289558Y-96525518D01*
X130355740Y-96519000D01*
X130444260Y-96519000D01*
X130510442Y-96525518D01*
X130510442Y-96525518D01*
G37*
G36*
X117501000Y-97551000D02*
X115399000Y-97551000D01*
X115399000Y-96449000D01*
X117501000Y-96449000D01*
X117501000Y-97551000D01*
X117501000Y-97551000D01*
G37*
G36*
X101501000Y-97551000D02*
X99399000Y-97551000D01*
X99399000Y-96449000D01*
X101501000Y-96449000D01*
X101501000Y-97551000D01*
X101501000Y-97551000D01*
G37*
G36*
X71935442Y-95605518D02*
X72001627Y-95612037D01*
X72070004Y-95632779D01*
X72171467Y-95663557D01*
X72270408Y-95716443D01*
X72327991Y-95747222D01*
X72353264Y-95767963D01*
X72465186Y-95859814D01*
X72548448Y-95961271D01*
X72577778Y-95997009D01*
X72577779Y-95997011D01*
X72661443Y-96153533D01*
X72661443Y-96153534D01*
X72712963Y-96323373D01*
X72730359Y-96500000D01*
X72712963Y-96676627D01*
X72681662Y-96779814D01*
X72661443Y-96846467D01*
X72623737Y-96917009D01*
X72577778Y-97002991D01*
X72548448Y-97038729D01*
X72465186Y-97140186D01*
X72363729Y-97223448D01*
X72327991Y-97252778D01*
X72327989Y-97252779D01*
X72171467Y-97336443D01*
X72114853Y-97353616D01*
X72001627Y-97387963D01*
X71935443Y-97394481D01*
X71869260Y-97401000D01*
X71530740Y-97401000D01*
X71464557Y-97394481D01*
X71398373Y-97387963D01*
X71285147Y-97353616D01*
X71228533Y-97336443D01*
X71072011Y-97252779D01*
X71072009Y-97252778D01*
X71036271Y-97223448D01*
X70934814Y-97140186D01*
X70851552Y-97038729D01*
X70822222Y-97002991D01*
X70776263Y-96917009D01*
X70738557Y-96846467D01*
X70718338Y-96779814D01*
X70687037Y-96676627D01*
X70669641Y-96500000D01*
X70687037Y-96323373D01*
X70738557Y-96153534D01*
X70738557Y-96153533D01*
X70822221Y-95997011D01*
X70822222Y-95997009D01*
X70851552Y-95961271D01*
X70934814Y-95859814D01*
X71046736Y-95767963D01*
X71072009Y-95747222D01*
X71129592Y-95716443D01*
X71228533Y-95663557D01*
X71329996Y-95632779D01*
X71398373Y-95612037D01*
X71464558Y-95605518D01*
X71530740Y-95599000D01*
X71869260Y-95599000D01*
X71935442Y-95605518D01*
X71935442Y-95605518D01*
G37*
G36*
X130510442Y-93985518D02*
X130576627Y-93992037D01*
X130689853Y-94026384D01*
X130746467Y-94043557D01*
X130851509Y-94099704D01*
X130902991Y-94127222D01*
X130938729Y-94156552D01*
X131040186Y-94239814D01*
X131123448Y-94341271D01*
X131152778Y-94377009D01*
X131152779Y-94377011D01*
X131236443Y-94533533D01*
X131236443Y-94533534D01*
X131287963Y-94703373D01*
X131305359Y-94880000D01*
X131287963Y-95056627D01*
X131271297Y-95111567D01*
X131236443Y-95226467D01*
X131234020Y-95231000D01*
X131152778Y-95382991D01*
X131123448Y-95418729D01*
X131040186Y-95520186D01*
X130944149Y-95599000D01*
X130902991Y-95632778D01*
X130902989Y-95632779D01*
X130746467Y-95716443D01*
X130689853Y-95733616D01*
X130576627Y-95767963D01*
X130510443Y-95774481D01*
X130444260Y-95781000D01*
X130355740Y-95781000D01*
X130289557Y-95774481D01*
X130223373Y-95767963D01*
X130110147Y-95733616D01*
X130053533Y-95716443D01*
X129897011Y-95632779D01*
X129897009Y-95632778D01*
X129855851Y-95599000D01*
X129759814Y-95520186D01*
X129676552Y-95418729D01*
X129647222Y-95382991D01*
X129565980Y-95231000D01*
X129563557Y-95226467D01*
X129528703Y-95111567D01*
X129512037Y-95056627D01*
X129494641Y-94880000D01*
X129512037Y-94703373D01*
X129563557Y-94533534D01*
X129563557Y-94533533D01*
X129647221Y-94377011D01*
X129647222Y-94377009D01*
X129676552Y-94341271D01*
X129759814Y-94239814D01*
X129861271Y-94156552D01*
X129897009Y-94127222D01*
X129948491Y-94099704D01*
X130053533Y-94043557D01*
X130110147Y-94026384D01*
X130223373Y-93992037D01*
X130289557Y-93985519D01*
X130355740Y-93979000D01*
X130444260Y-93979000D01*
X130510442Y-93985518D01*
X130510442Y-93985518D01*
G37*
G36*
X117501000Y-95551000D02*
X115399000Y-95551000D01*
X115399000Y-94449000D01*
X117501000Y-94449000D01*
X117501000Y-95551000D01*
X117501000Y-95551000D01*
G37*
G36*
X101501000Y-95551000D02*
X99399000Y-95551000D01*
X99399000Y-94449000D01*
X101501000Y-94449000D01*
X101501000Y-95551000D01*
X101501000Y-95551000D01*
G37*
G36*
X149596991Y-93781101D02*
X149682321Y-93789505D01*
X149819172Y-93831019D01*
X149819174Y-93831020D01*
X149819177Y-93831021D01*
X149945296Y-93898432D01*
X150055843Y-93989157D01*
X150146568Y-94099704D01*
X150213979Y-94225823D01*
X150213980Y-94225826D01*
X150213981Y-94225828D01*
X150255495Y-94362679D01*
X150269512Y-94505000D01*
X150255495Y-94647321D01*
X150213981Y-94784172D01*
X150213979Y-94784177D01*
X150146568Y-94910296D01*
X150055843Y-95020843D01*
X149945296Y-95111568D01*
X149819177Y-95178979D01*
X149819174Y-95178980D01*
X149819172Y-95178981D01*
X149682321Y-95220495D01*
X149596991Y-95228899D01*
X149575660Y-95231000D01*
X149154340Y-95231000D01*
X149133009Y-95228899D01*
X149047679Y-95220495D01*
X148910828Y-95178981D01*
X148910826Y-95178980D01*
X148910823Y-95178979D01*
X148784704Y-95111568D01*
X148674157Y-95020843D01*
X148583432Y-94910296D01*
X148516021Y-94784177D01*
X148516019Y-94784172D01*
X148474505Y-94647321D01*
X148460488Y-94505000D01*
X148474505Y-94362679D01*
X148516019Y-94225828D01*
X148516020Y-94225826D01*
X148516021Y-94225823D01*
X148583432Y-94099704D01*
X148674157Y-93989157D01*
X148784704Y-93898432D01*
X148910823Y-93831021D01*
X148910826Y-93831020D01*
X148910828Y-93831019D01*
X149047679Y-93789505D01*
X149133009Y-93781101D01*
X149154340Y-93779000D01*
X149575660Y-93779000D01*
X149596991Y-93781101D01*
X149596991Y-93781101D01*
G37*
G36*
X72583600Y-93102989D02*
X72616649Y-93113014D01*
X72647106Y-93129294D01*
X72673799Y-93151201D01*
X72695706Y-93177894D01*
X72711986Y-93208351D01*
X72722011Y-93241400D01*
X72726000Y-93281904D01*
X72726000Y-94718096D01*
X72722011Y-94758600D01*
X72711986Y-94791649D01*
X72695706Y-94822106D01*
X72673799Y-94848799D01*
X72647106Y-94870706D01*
X72616649Y-94886986D01*
X72583600Y-94897011D01*
X72543096Y-94901000D01*
X70856904Y-94901000D01*
X70816400Y-94897011D01*
X70783351Y-94886986D01*
X70752894Y-94870706D01*
X70726201Y-94848799D01*
X70704294Y-94822106D01*
X70688014Y-94791649D01*
X70677989Y-94758600D01*
X70674000Y-94718096D01*
X70674000Y-93281904D01*
X70677989Y-93241400D01*
X70688014Y-93208351D01*
X70704294Y-93177894D01*
X70726201Y-93151201D01*
X70752894Y-93129294D01*
X70783351Y-93113014D01*
X70816400Y-93102989D01*
X70856904Y-93099000D01*
X72543096Y-93099000D01*
X72583600Y-93102989D01*
X72583600Y-93102989D01*
G37*
G36*
X146682818Y-93602696D02*
X146796105Y-93637062D01*
X146900513Y-93692869D01*
X146992027Y-93767973D01*
X147067131Y-93859487D01*
X147122938Y-93963895D01*
X147157304Y-94077182D01*
X147168907Y-94195000D01*
X147157304Y-94312818D01*
X147122938Y-94426105D01*
X147067131Y-94530513D01*
X146992027Y-94622027D01*
X146900513Y-94697131D01*
X146796105Y-94752938D01*
X146682818Y-94787304D01*
X146594519Y-94796000D01*
X146135481Y-94796000D01*
X146047182Y-94787304D01*
X145933895Y-94752938D01*
X145829487Y-94697131D01*
X145737973Y-94622027D01*
X145662869Y-94530513D01*
X145607062Y-94426105D01*
X145572696Y-94312818D01*
X145561093Y-94195000D01*
X145572696Y-94077182D01*
X145607062Y-93963895D01*
X145662869Y-93859487D01*
X145737973Y-93767973D01*
X145829487Y-93692869D01*
X145933895Y-93637062D01*
X146047182Y-93602696D01*
X146135481Y-93594000D01*
X146594519Y-93594000D01*
X146682818Y-93602696D01*
X146682818Y-93602696D01*
G37*
G36*
X117501000Y-93551000D02*
X115399000Y-93551000D01*
X115399000Y-92449000D01*
X117501000Y-92449000D01*
X117501000Y-93551000D01*
X117501000Y-93551000D01*
G37*
G36*
X101501000Y-93551000D02*
X99399000Y-93551000D01*
X99399000Y-92449000D01*
X101501000Y-92449000D01*
X101501000Y-93551000D01*
X101501000Y-93551000D01*
G37*
G36*
X130510443Y-91445519D02*
X130576627Y-91452037D01*
X130689853Y-91486384D01*
X130746467Y-91503557D01*
X130835225Y-91551000D01*
X130902991Y-91587222D01*
X130938729Y-91616552D01*
X131040186Y-91699814D01*
X131123448Y-91801271D01*
X131152778Y-91837009D01*
X131152779Y-91837011D01*
X131236443Y-91993533D01*
X131236443Y-91993534D01*
X131287963Y-92163373D01*
X131305359Y-92340000D01*
X131287963Y-92516627D01*
X131253616Y-92629853D01*
X131236443Y-92686467D01*
X131162348Y-92825087D01*
X131152778Y-92842991D01*
X131123448Y-92878729D01*
X131040186Y-92980186D01*
X130938729Y-93063448D01*
X130902991Y-93092778D01*
X130902989Y-93092779D01*
X130746467Y-93176443D01*
X130689853Y-93193616D01*
X130576627Y-93227963D01*
X130510442Y-93234482D01*
X130444260Y-93241000D01*
X130355740Y-93241000D01*
X130289558Y-93234482D01*
X130223373Y-93227963D01*
X130110147Y-93193616D01*
X130053533Y-93176443D01*
X129897011Y-93092779D01*
X129897009Y-93092778D01*
X129861271Y-93063448D01*
X129759814Y-92980186D01*
X129676552Y-92878729D01*
X129647222Y-92842991D01*
X129637652Y-92825087D01*
X129563557Y-92686467D01*
X129546384Y-92629853D01*
X129512037Y-92516627D01*
X129494641Y-92340000D01*
X129512037Y-92163373D01*
X129563557Y-91993534D01*
X129563557Y-91993533D01*
X129647221Y-91837011D01*
X129647222Y-91837009D01*
X129676552Y-91801271D01*
X129759814Y-91699814D01*
X129861271Y-91616552D01*
X129897009Y-91587222D01*
X129964775Y-91551000D01*
X130053533Y-91503557D01*
X130110147Y-91486384D01*
X130223373Y-91452037D01*
X130289557Y-91445519D01*
X130355740Y-91439000D01*
X130444260Y-91439000D01*
X130510443Y-91445519D01*
X130510443Y-91445519D01*
G37*
G36*
X117501000Y-91551000D02*
X115399000Y-91551000D01*
X115399000Y-90449000D01*
X117501000Y-90449000D01*
X117501000Y-91551000D01*
X117501000Y-91551000D01*
G37*
G36*
X101501000Y-91551000D02*
X99399000Y-91551000D01*
X99399000Y-90449000D01*
X101501000Y-90449000D01*
X101501000Y-91551000D01*
X101501000Y-91551000D01*
G37*
G36*
X131301000Y-90701000D02*
X129499000Y-90701000D01*
X129499000Y-88899000D01*
X131301000Y-88899000D01*
X131301000Y-90701000D01*
X131301000Y-90701000D01*
G37*
G36*
X88900442Y-88895518D02*
X88966627Y-88902037D01*
X89079853Y-88936384D01*
X89136467Y-88953557D01*
X89275087Y-89027652D01*
X89292991Y-89037222D01*
X89302468Y-89045000D01*
X89430186Y-89149814D01*
X89513448Y-89251271D01*
X89542778Y-89287009D01*
X89542779Y-89287011D01*
X89626443Y-89443533D01*
X89626443Y-89443534D01*
X89677963Y-89613373D01*
X89695359Y-89790000D01*
X89677963Y-89966627D01*
X89643616Y-90079853D01*
X89626443Y-90136467D01*
X89552348Y-90275087D01*
X89542778Y-90292991D01*
X89513448Y-90328729D01*
X89430186Y-90430186D01*
X89328729Y-90513448D01*
X89292991Y-90542778D01*
X89292989Y-90542779D01*
X89136467Y-90626443D01*
X89079853Y-90643616D01*
X88966627Y-90677963D01*
X88900443Y-90684481D01*
X88834260Y-90691000D01*
X88745740Y-90691000D01*
X88679557Y-90684481D01*
X88613373Y-90677963D01*
X88500147Y-90643616D01*
X88443533Y-90626443D01*
X88287011Y-90542779D01*
X88287009Y-90542778D01*
X88251271Y-90513448D01*
X88149814Y-90430186D01*
X88066552Y-90328729D01*
X88037222Y-90292991D01*
X88027652Y-90275087D01*
X87953557Y-90136467D01*
X87936384Y-90079853D01*
X87902037Y-89966627D01*
X87884641Y-89790000D01*
X87902037Y-89613373D01*
X87953557Y-89443534D01*
X87953557Y-89443533D01*
X88037221Y-89287011D01*
X88037222Y-89287009D01*
X88066552Y-89251271D01*
X88149814Y-89149814D01*
X88277532Y-89045000D01*
X88287009Y-89037222D01*
X88304913Y-89027652D01*
X88443533Y-88953557D01*
X88500147Y-88936384D01*
X88613373Y-88902037D01*
X88679558Y-88895518D01*
X88745740Y-88889000D01*
X88834260Y-88889000D01*
X88900442Y-88895518D01*
X88900442Y-88895518D01*
G37*
G36*
X83820442Y-88895518D02*
X83886627Y-88902037D01*
X83999853Y-88936384D01*
X84056467Y-88953557D01*
X84195087Y-89027652D01*
X84212991Y-89037222D01*
X84222468Y-89045000D01*
X84350186Y-89149814D01*
X84433448Y-89251271D01*
X84462778Y-89287009D01*
X84462779Y-89287011D01*
X84546443Y-89443533D01*
X84546443Y-89443534D01*
X84597963Y-89613373D01*
X84615359Y-89790000D01*
X84597963Y-89966627D01*
X84563616Y-90079853D01*
X84546443Y-90136467D01*
X84472348Y-90275087D01*
X84462778Y-90292991D01*
X84433448Y-90328729D01*
X84350186Y-90430186D01*
X84248729Y-90513448D01*
X84212991Y-90542778D01*
X84212989Y-90542779D01*
X84056467Y-90626443D01*
X83999853Y-90643616D01*
X83886627Y-90677963D01*
X83820443Y-90684481D01*
X83754260Y-90691000D01*
X83665740Y-90691000D01*
X83599557Y-90684481D01*
X83533373Y-90677963D01*
X83420147Y-90643616D01*
X83363533Y-90626443D01*
X83207011Y-90542779D01*
X83207009Y-90542778D01*
X83171271Y-90513448D01*
X83069814Y-90430186D01*
X82986552Y-90328729D01*
X82957222Y-90292991D01*
X82947652Y-90275087D01*
X82873557Y-90136467D01*
X82856384Y-90079853D01*
X82822037Y-89966627D01*
X82804641Y-89790000D01*
X82822037Y-89613373D01*
X82873557Y-89443534D01*
X82873557Y-89443533D01*
X82957221Y-89287011D01*
X82957222Y-89287009D01*
X82986552Y-89251271D01*
X83069814Y-89149814D01*
X83197532Y-89045000D01*
X83207009Y-89037222D01*
X83224913Y-89027652D01*
X83363533Y-88953557D01*
X83420147Y-88936384D01*
X83533373Y-88902037D01*
X83599558Y-88895518D01*
X83665740Y-88889000D01*
X83754260Y-88889000D01*
X83820442Y-88895518D01*
X83820442Y-88895518D01*
G37*
G36*
X86360442Y-88895518D02*
X86426627Y-88902037D01*
X86539853Y-88936384D01*
X86596467Y-88953557D01*
X86735087Y-89027652D01*
X86752991Y-89037222D01*
X86762468Y-89045000D01*
X86890186Y-89149814D01*
X86973448Y-89251271D01*
X87002778Y-89287009D01*
X87002779Y-89287011D01*
X87086443Y-89443533D01*
X87086443Y-89443534D01*
X87137963Y-89613373D01*
X87155359Y-89790000D01*
X87137963Y-89966627D01*
X87103616Y-90079853D01*
X87086443Y-90136467D01*
X87012348Y-90275087D01*
X87002778Y-90292991D01*
X86973448Y-90328729D01*
X86890186Y-90430186D01*
X86788729Y-90513448D01*
X86752991Y-90542778D01*
X86752989Y-90542779D01*
X86596467Y-90626443D01*
X86539853Y-90643616D01*
X86426627Y-90677963D01*
X86360443Y-90684481D01*
X86294260Y-90691000D01*
X86205740Y-90691000D01*
X86139557Y-90684481D01*
X86073373Y-90677963D01*
X85960147Y-90643616D01*
X85903533Y-90626443D01*
X85747011Y-90542779D01*
X85747009Y-90542778D01*
X85711271Y-90513448D01*
X85609814Y-90430186D01*
X85526552Y-90328729D01*
X85497222Y-90292991D01*
X85487652Y-90275087D01*
X85413557Y-90136467D01*
X85396384Y-90079853D01*
X85362037Y-89966627D01*
X85344641Y-89790000D01*
X85362037Y-89613373D01*
X85413557Y-89443534D01*
X85413557Y-89443533D01*
X85497221Y-89287011D01*
X85497222Y-89287009D01*
X85526552Y-89251271D01*
X85609814Y-89149814D01*
X85737532Y-89045000D01*
X85747009Y-89037222D01*
X85764913Y-89027652D01*
X85903533Y-88953557D01*
X85960147Y-88936384D01*
X86073373Y-88902037D01*
X86139558Y-88895518D01*
X86205740Y-88889000D01*
X86294260Y-88889000D01*
X86360442Y-88895518D01*
X86360442Y-88895518D01*
G37*
G36*
X146682818Y-88762696D02*
X146796105Y-88797062D01*
X146900513Y-88852869D01*
X146992027Y-88927973D01*
X147067131Y-89019487D01*
X147122938Y-89123895D01*
X147157304Y-89237182D01*
X147168907Y-89355000D01*
X147157304Y-89472818D01*
X147122938Y-89586105D01*
X147067131Y-89690513D01*
X146992027Y-89782027D01*
X146900513Y-89857131D01*
X146796105Y-89912938D01*
X146682818Y-89947304D01*
X146594519Y-89956000D01*
X146135481Y-89956000D01*
X146047182Y-89947304D01*
X145933895Y-89912938D01*
X145829487Y-89857131D01*
X145737973Y-89782027D01*
X145662869Y-89690513D01*
X145607062Y-89586105D01*
X145572696Y-89472818D01*
X145561093Y-89355000D01*
X145572696Y-89237182D01*
X145607062Y-89123895D01*
X145662869Y-89019487D01*
X145737973Y-88927973D01*
X145829487Y-88852869D01*
X145933895Y-88797062D01*
X146047182Y-88762696D01*
X146135481Y-88754000D01*
X146594519Y-88754000D01*
X146682818Y-88762696D01*
X146682818Y-88762696D01*
G37*
G36*
X149596991Y-88321101D02*
X149682321Y-88329505D01*
X149819172Y-88371019D01*
X149819174Y-88371020D01*
X149819177Y-88371021D01*
X149945296Y-88438432D01*
X150055843Y-88529157D01*
X150146568Y-88639704D01*
X150213979Y-88765823D01*
X150213980Y-88765826D01*
X150213981Y-88765828D01*
X150255495Y-88902679D01*
X150269512Y-89045000D01*
X150255495Y-89187321D01*
X150213981Y-89324172D01*
X150213979Y-89324177D01*
X150146568Y-89450296D01*
X150055843Y-89560843D01*
X149945296Y-89651568D01*
X149819177Y-89718979D01*
X149819174Y-89718980D01*
X149819172Y-89718981D01*
X149682321Y-89760495D01*
X149596991Y-89768899D01*
X149575660Y-89771000D01*
X149154340Y-89771000D01*
X149133009Y-89768899D01*
X149047679Y-89760495D01*
X148910828Y-89718981D01*
X148910826Y-89718980D01*
X148910823Y-89718979D01*
X148784704Y-89651568D01*
X148674157Y-89560843D01*
X148583432Y-89450296D01*
X148516021Y-89324177D01*
X148516019Y-89324172D01*
X148474505Y-89187321D01*
X148460488Y-89045000D01*
X148474505Y-88902679D01*
X148516019Y-88765828D01*
X148516020Y-88765826D01*
X148516021Y-88765823D01*
X148583432Y-88639704D01*
X148674157Y-88529157D01*
X148784704Y-88438432D01*
X148910823Y-88371021D01*
X148910826Y-88371020D01*
X148910828Y-88371019D01*
X149047679Y-88329505D01*
X149133009Y-88321101D01*
X149154340Y-88319000D01*
X149575660Y-88319000D01*
X149596991Y-88321101D01*
X149596991Y-88321101D01*
G37*
G36*
X117501000Y-89551000D02*
X115399000Y-89551000D01*
X115399000Y-88449000D01*
X117501000Y-88449000D01*
X117501000Y-89551000D01*
X117501000Y-89551000D01*
G37*
G36*
X101501000Y-89551000D02*
X99399000Y-89551000D01*
X99399000Y-88449000D01*
X101501000Y-88449000D01*
X101501000Y-89551000D01*
X101501000Y-89551000D01*
G37*
G36*
X70083643Y-86979781D02*
X70229415Y-87040162D01*
X70360611Y-87127824D01*
X70472176Y-87239389D01*
X70559838Y-87370585D01*
X70620219Y-87516357D01*
X70651000Y-87671107D01*
X70651000Y-87828893D01*
X70620219Y-87983643D01*
X70559838Y-88129415D01*
X70472176Y-88260611D01*
X70360611Y-88372176D01*
X70229415Y-88459838D01*
X70083643Y-88520219D01*
X69928893Y-88551000D01*
X69771107Y-88551000D01*
X69616357Y-88520219D01*
X69470585Y-88459838D01*
X69339389Y-88372176D01*
X69227824Y-88260611D01*
X69140162Y-88129415D01*
X69079781Y-87983643D01*
X69049000Y-87828893D01*
X69049000Y-87671107D01*
X69079781Y-87516357D01*
X69140162Y-87370585D01*
X69227824Y-87239389D01*
X69339389Y-87127824D01*
X69470585Y-87040162D01*
X69616357Y-86979781D01*
X69771107Y-86949000D01*
X69928893Y-86949000D01*
X70083643Y-86979781D01*
X70083643Y-86979781D01*
G37*
G36*
X73483643Y-86979781D02*
X73629415Y-87040162D01*
X73760611Y-87127824D01*
X73872176Y-87239389D01*
X73959838Y-87370585D01*
X74020219Y-87516357D01*
X74051000Y-87671107D01*
X74051000Y-87828893D01*
X74020219Y-87983643D01*
X73959838Y-88129415D01*
X73872176Y-88260611D01*
X73760611Y-88372176D01*
X73629415Y-88459838D01*
X73483643Y-88520219D01*
X73328893Y-88551000D01*
X73171107Y-88551000D01*
X73016357Y-88520219D01*
X72870585Y-88459838D01*
X72739389Y-88372176D01*
X72627824Y-88260611D01*
X72540162Y-88129415D01*
X72479781Y-87983643D01*
X72449000Y-87828893D01*
X72449000Y-87671107D01*
X72479781Y-87516357D01*
X72540162Y-87370585D01*
X72627824Y-87239389D01*
X72739389Y-87127824D01*
X72870585Y-87040162D01*
X73016357Y-86979781D01*
X73171107Y-86949000D01*
X73328893Y-86949000D01*
X73483643Y-86979781D01*
X73483643Y-86979781D01*
G37*
G36*
X88900443Y-86355519D02*
X88966627Y-86362037D01*
X89059422Y-86390186D01*
X89136467Y-86413557D01*
X89202775Y-86449000D01*
X89292991Y-86497222D01*
X89299762Y-86502779D01*
X89430186Y-86609814D01*
X89513448Y-86711271D01*
X89542778Y-86747009D01*
X89542779Y-86747011D01*
X89626443Y-86903533D01*
X89626443Y-86903534D01*
X89677963Y-87073373D01*
X89695359Y-87250000D01*
X89677963Y-87426627D01*
X89650744Y-87516357D01*
X89626443Y-87596467D01*
X89586546Y-87671107D01*
X89542778Y-87752991D01*
X89513448Y-87788729D01*
X89430186Y-87890186D01*
X89328729Y-87973448D01*
X89292991Y-88002778D01*
X89292989Y-88002779D01*
X89136467Y-88086443D01*
X89079853Y-88103616D01*
X88966627Y-88137963D01*
X88900442Y-88144482D01*
X88834260Y-88151000D01*
X88745740Y-88151000D01*
X88679558Y-88144482D01*
X88613373Y-88137963D01*
X88500147Y-88103616D01*
X88443533Y-88086443D01*
X88287011Y-88002779D01*
X88287009Y-88002778D01*
X88251271Y-87973448D01*
X88149814Y-87890186D01*
X88066552Y-87788729D01*
X88037222Y-87752991D01*
X87993454Y-87671107D01*
X87953557Y-87596467D01*
X87929256Y-87516357D01*
X87902037Y-87426627D01*
X87884641Y-87250000D01*
X87902037Y-87073373D01*
X87953557Y-86903534D01*
X87953557Y-86903533D01*
X88037221Y-86747011D01*
X88037222Y-86747009D01*
X88066552Y-86711271D01*
X88149814Y-86609814D01*
X88280238Y-86502779D01*
X88287009Y-86497222D01*
X88377225Y-86449000D01*
X88443533Y-86413557D01*
X88520578Y-86390186D01*
X88613373Y-86362037D01*
X88679557Y-86355519D01*
X88745740Y-86349000D01*
X88834260Y-86349000D01*
X88900443Y-86355519D01*
X88900443Y-86355519D01*
G37*
G36*
X86360443Y-86355519D02*
X86426627Y-86362037D01*
X86519422Y-86390186D01*
X86596467Y-86413557D01*
X86662775Y-86449000D01*
X86752991Y-86497222D01*
X86759762Y-86502779D01*
X86890186Y-86609814D01*
X86973448Y-86711271D01*
X87002778Y-86747009D01*
X87002779Y-86747011D01*
X87086443Y-86903533D01*
X87086443Y-86903534D01*
X87137963Y-87073373D01*
X87155359Y-87250000D01*
X87137963Y-87426627D01*
X87110744Y-87516357D01*
X87086443Y-87596467D01*
X87046546Y-87671107D01*
X87002778Y-87752991D01*
X86973448Y-87788729D01*
X86890186Y-87890186D01*
X86788729Y-87973448D01*
X86752991Y-88002778D01*
X86752989Y-88002779D01*
X86596467Y-88086443D01*
X86539853Y-88103616D01*
X86426627Y-88137963D01*
X86360442Y-88144482D01*
X86294260Y-88151000D01*
X86205740Y-88151000D01*
X86139558Y-88144482D01*
X86073373Y-88137963D01*
X85960147Y-88103616D01*
X85903533Y-88086443D01*
X85747011Y-88002779D01*
X85747009Y-88002778D01*
X85711271Y-87973448D01*
X85609814Y-87890186D01*
X85526552Y-87788729D01*
X85497222Y-87752991D01*
X85453454Y-87671107D01*
X85413557Y-87596467D01*
X85389256Y-87516357D01*
X85362037Y-87426627D01*
X85344641Y-87250000D01*
X85362037Y-87073373D01*
X85413557Y-86903534D01*
X85413557Y-86903533D01*
X85497221Y-86747011D01*
X85497222Y-86747009D01*
X85526552Y-86711271D01*
X85609814Y-86609814D01*
X85740238Y-86502779D01*
X85747009Y-86497222D01*
X85837225Y-86449000D01*
X85903533Y-86413557D01*
X85980578Y-86390186D01*
X86073373Y-86362037D01*
X86139557Y-86355519D01*
X86205740Y-86349000D01*
X86294260Y-86349000D01*
X86360443Y-86355519D01*
X86360443Y-86355519D01*
G37*
G36*
X84611000Y-88151000D02*
X82809000Y-88151000D01*
X82809000Y-86349000D01*
X84611000Y-86349000D01*
X84611000Y-88151000D01*
X84611000Y-88151000D01*
G37*
G36*
X117501000Y-87551000D02*
X115399000Y-87551000D01*
X115399000Y-86449000D01*
X117501000Y-86449000D01*
X117501000Y-87551000D01*
X117501000Y-87551000D01*
G37*
G36*
X101501000Y-87551000D02*
X99399000Y-87551000D01*
X99399000Y-86449000D01*
X101501000Y-86449000D01*
X101501000Y-87551000D01*
X101501000Y-87551000D01*
G37*
G36*
X142780442Y-84855518D02*
X142846627Y-84862037D01*
X142959853Y-84896384D01*
X143016467Y-84913557D01*
X143155087Y-84987652D01*
X143172991Y-84997222D01*
X143208729Y-85026552D01*
X143310186Y-85109814D01*
X143393448Y-85211271D01*
X143422778Y-85247009D01*
X143422779Y-85247011D01*
X143506443Y-85403533D01*
X143506443Y-85403534D01*
X143557963Y-85573373D01*
X143575359Y-85750000D01*
X143557963Y-85926627D01*
X143523616Y-86039853D01*
X143506443Y-86096467D01*
X143432348Y-86235087D01*
X143422778Y-86252991D01*
X143393448Y-86288729D01*
X143310186Y-86390186D01*
X143208729Y-86473448D01*
X143172991Y-86502778D01*
X143172989Y-86502779D01*
X143016467Y-86586443D01*
X142959853Y-86603616D01*
X142846627Y-86637963D01*
X142780443Y-86644481D01*
X142714260Y-86651000D01*
X142625740Y-86651000D01*
X142559557Y-86644481D01*
X142493373Y-86637963D01*
X142380147Y-86603616D01*
X142323533Y-86586443D01*
X142167011Y-86502779D01*
X142167009Y-86502778D01*
X142131271Y-86473448D01*
X142029814Y-86390186D01*
X141946552Y-86288729D01*
X141917222Y-86252991D01*
X141907652Y-86235087D01*
X141833557Y-86096467D01*
X141816384Y-86039853D01*
X141782037Y-85926627D01*
X141764641Y-85750000D01*
X141782037Y-85573373D01*
X141833557Y-85403534D01*
X141833557Y-85403533D01*
X141917221Y-85247011D01*
X141917222Y-85247009D01*
X141946552Y-85211271D01*
X142029814Y-85109814D01*
X142131271Y-85026552D01*
X142167009Y-84997222D01*
X142184913Y-84987652D01*
X142323533Y-84913557D01*
X142380147Y-84896384D01*
X142493373Y-84862037D01*
X142559558Y-84855518D01*
X142625740Y-84849000D01*
X142714260Y-84849000D01*
X142780442Y-84855518D01*
X142780442Y-84855518D01*
G37*
G36*
X140240442Y-84855518D02*
X140306627Y-84862037D01*
X140419853Y-84896384D01*
X140476467Y-84913557D01*
X140615087Y-84987652D01*
X140632991Y-84997222D01*
X140668729Y-85026552D01*
X140770186Y-85109814D01*
X140853448Y-85211271D01*
X140882778Y-85247009D01*
X140882779Y-85247011D01*
X140966443Y-85403533D01*
X140966443Y-85403534D01*
X141017963Y-85573373D01*
X141035359Y-85750000D01*
X141017963Y-85926627D01*
X140983616Y-86039853D01*
X140966443Y-86096467D01*
X140892348Y-86235087D01*
X140882778Y-86252991D01*
X140853448Y-86288729D01*
X140770186Y-86390186D01*
X140668729Y-86473448D01*
X140632991Y-86502778D01*
X140632989Y-86502779D01*
X140476467Y-86586443D01*
X140419853Y-86603616D01*
X140306627Y-86637963D01*
X140240443Y-86644481D01*
X140174260Y-86651000D01*
X140085740Y-86651000D01*
X140019557Y-86644481D01*
X139953373Y-86637963D01*
X139840147Y-86603616D01*
X139783533Y-86586443D01*
X139627011Y-86502779D01*
X139627009Y-86502778D01*
X139591271Y-86473448D01*
X139489814Y-86390186D01*
X139406552Y-86288729D01*
X139377222Y-86252991D01*
X139367652Y-86235087D01*
X139293557Y-86096467D01*
X139276384Y-86039853D01*
X139242037Y-85926627D01*
X139224641Y-85750000D01*
X139242037Y-85573373D01*
X139293557Y-85403534D01*
X139293557Y-85403533D01*
X139377221Y-85247011D01*
X139377222Y-85247009D01*
X139406552Y-85211271D01*
X139489814Y-85109814D01*
X139591271Y-85026552D01*
X139627009Y-84997222D01*
X139644913Y-84987652D01*
X139783533Y-84913557D01*
X139840147Y-84896384D01*
X139953373Y-84862037D01*
X140019558Y-84855518D01*
X140085740Y-84849000D01*
X140174260Y-84849000D01*
X140240442Y-84855518D01*
X140240442Y-84855518D01*
G37*
G36*
X137700442Y-84855518D02*
X137766627Y-84862037D01*
X137879853Y-84896384D01*
X137936467Y-84913557D01*
X138075087Y-84987652D01*
X138092991Y-84997222D01*
X138128729Y-85026552D01*
X138230186Y-85109814D01*
X138313448Y-85211271D01*
X138342778Y-85247009D01*
X138342779Y-85247011D01*
X138426443Y-85403533D01*
X138426443Y-85403534D01*
X138477963Y-85573373D01*
X138495359Y-85750000D01*
X138477963Y-85926627D01*
X138443616Y-86039853D01*
X138426443Y-86096467D01*
X138352348Y-86235087D01*
X138342778Y-86252991D01*
X138313448Y-86288729D01*
X138230186Y-86390186D01*
X138128729Y-86473448D01*
X138092991Y-86502778D01*
X138092989Y-86502779D01*
X137936467Y-86586443D01*
X137879853Y-86603616D01*
X137766627Y-86637963D01*
X137700443Y-86644481D01*
X137634260Y-86651000D01*
X137545740Y-86651000D01*
X137479557Y-86644481D01*
X137413373Y-86637963D01*
X137300147Y-86603616D01*
X137243533Y-86586443D01*
X137087011Y-86502779D01*
X137087009Y-86502778D01*
X137051271Y-86473448D01*
X136949814Y-86390186D01*
X136866552Y-86288729D01*
X136837222Y-86252991D01*
X136827652Y-86235087D01*
X136753557Y-86096467D01*
X136736384Y-86039853D01*
X136702037Y-85926627D01*
X136684641Y-85750000D01*
X136702037Y-85573373D01*
X136753557Y-85403534D01*
X136753557Y-85403533D01*
X136837221Y-85247011D01*
X136837222Y-85247009D01*
X136866552Y-85211271D01*
X136949814Y-85109814D01*
X137051271Y-85026552D01*
X137087009Y-84997222D01*
X137104913Y-84987652D01*
X137243533Y-84913557D01*
X137300147Y-84896384D01*
X137413373Y-84862037D01*
X137479558Y-84855518D01*
X137545740Y-84849000D01*
X137634260Y-84849000D01*
X137700442Y-84855518D01*
X137700442Y-84855518D01*
G37*
G36*
X145320442Y-84855518D02*
X145386627Y-84862037D01*
X145499853Y-84896384D01*
X145556467Y-84913557D01*
X145695087Y-84987652D01*
X145712991Y-84997222D01*
X145748729Y-85026552D01*
X145850186Y-85109814D01*
X145933448Y-85211271D01*
X145962778Y-85247009D01*
X145962779Y-85247011D01*
X146046443Y-85403533D01*
X146046443Y-85403534D01*
X146097963Y-85573373D01*
X146115359Y-85750000D01*
X146097963Y-85926627D01*
X146063616Y-86039853D01*
X146046443Y-86096467D01*
X145972348Y-86235087D01*
X145962778Y-86252991D01*
X145933448Y-86288729D01*
X145850186Y-86390186D01*
X145748729Y-86473448D01*
X145712991Y-86502778D01*
X145712989Y-86502779D01*
X145556467Y-86586443D01*
X145499853Y-86603616D01*
X145386627Y-86637963D01*
X145320443Y-86644481D01*
X145254260Y-86651000D01*
X145165740Y-86651000D01*
X145099557Y-86644481D01*
X145033373Y-86637963D01*
X144920147Y-86603616D01*
X144863533Y-86586443D01*
X144707011Y-86502779D01*
X144707009Y-86502778D01*
X144671271Y-86473448D01*
X144569814Y-86390186D01*
X144486552Y-86288729D01*
X144457222Y-86252991D01*
X144447652Y-86235087D01*
X144373557Y-86096467D01*
X144356384Y-86039853D01*
X144322037Y-85926627D01*
X144304641Y-85750000D01*
X144322037Y-85573373D01*
X144373557Y-85403534D01*
X144373557Y-85403533D01*
X144457221Y-85247011D01*
X144457222Y-85247009D01*
X144486552Y-85211271D01*
X144569814Y-85109814D01*
X144671271Y-85026552D01*
X144707009Y-84997222D01*
X144724913Y-84987652D01*
X144863533Y-84913557D01*
X144920147Y-84896384D01*
X145033373Y-84862037D01*
X145099558Y-84855518D01*
X145165740Y-84849000D01*
X145254260Y-84849000D01*
X145320442Y-84855518D01*
X145320442Y-84855518D01*
G37*
G36*
X135160442Y-84855518D02*
X135226627Y-84862037D01*
X135339853Y-84896384D01*
X135396467Y-84913557D01*
X135535087Y-84987652D01*
X135552991Y-84997222D01*
X135588729Y-85026552D01*
X135690186Y-85109814D01*
X135773448Y-85211271D01*
X135802778Y-85247009D01*
X135802779Y-85247011D01*
X135886443Y-85403533D01*
X135886443Y-85403534D01*
X135937963Y-85573373D01*
X135955359Y-85750000D01*
X135937963Y-85926627D01*
X135903616Y-86039853D01*
X135886443Y-86096467D01*
X135812348Y-86235087D01*
X135802778Y-86252991D01*
X135773448Y-86288729D01*
X135690186Y-86390186D01*
X135588729Y-86473448D01*
X135552991Y-86502778D01*
X135552989Y-86502779D01*
X135396467Y-86586443D01*
X135339853Y-86603616D01*
X135226627Y-86637963D01*
X135160443Y-86644481D01*
X135094260Y-86651000D01*
X135005740Y-86651000D01*
X134939557Y-86644481D01*
X134873373Y-86637963D01*
X134760147Y-86603616D01*
X134703533Y-86586443D01*
X134547011Y-86502779D01*
X134547009Y-86502778D01*
X134511271Y-86473448D01*
X134409814Y-86390186D01*
X134326552Y-86288729D01*
X134297222Y-86252991D01*
X134287652Y-86235087D01*
X134213557Y-86096467D01*
X134196384Y-86039853D01*
X134162037Y-85926627D01*
X134144641Y-85750000D01*
X134162037Y-85573373D01*
X134213557Y-85403534D01*
X134213557Y-85403533D01*
X134297221Y-85247011D01*
X134297222Y-85247009D01*
X134326552Y-85211271D01*
X134409814Y-85109814D01*
X134511271Y-85026552D01*
X134547009Y-84997222D01*
X134564913Y-84987652D01*
X134703533Y-84913557D01*
X134760147Y-84896384D01*
X134873373Y-84862037D01*
X134939558Y-84855518D01*
X135005740Y-84849000D01*
X135094260Y-84849000D01*
X135160442Y-84855518D01*
X135160442Y-84855518D01*
G37*
G36*
X148651000Y-86651000D02*
X146849000Y-86651000D01*
X146849000Y-84849000D01*
X148651000Y-84849000D01*
X148651000Y-86651000D01*
X148651000Y-86651000D01*
G37*
M02*
